<svg width="114" height="28" fill="none" xmlns="http://www.w3.org/2000/svg"><path d="M109.94 7.356s-1.245 0-1.486 1.485c0 0-.1 1.305 1.486 1.305 0 0 1.365 0 1.365-1.405 0 0 0-1.385-1.365-1.385ZM100.988 16.89h-3.031l.14-2.91.1-.402-.1-.3-.24-.141-.181-.18-.241.18-1.947 1.826s-.14.12-.14.301v1.747l-1.526.3s-.2.101-.24.362v.08s.04.14.3.14h1.465v6.404s0 1.646.482 2.148c0 0 .863.762 2.49.762 0 0 1.063 0 2.087-.622 0 0 .321-.28.582-.783l-.281-.3-.362.3s-.441.341-1.144.341c0 0-1.304 0-1.304-3.15v-5.1h3.091s.241 0 .301-.22v-.522s0-.26-.301-.26ZM106.387 18.797l.181.18 1.545-.481s.281 0 .281 1.124v5.58s0 .944-1.405.944c0 0-.602 0-.602.36v.202s0 .3.341.3l2.911-.2 2.91.2s.362 0 .362-.3v-.201s0-.361-.663-.361c0 0-1.003.08-1.184-.342 0 0-.241-.521-.241-2.609l.301-5.44v-.602s0-.682-.642-.682c0 0-.362 0-.964.421l-1.184.562s-2.067.944-2.067 1.164l.12.181ZM86.114 16.75l-1.646.32s-.662.061-.662.503v4.416s0 1.886-.462 2.509c0 0-1.044 1.525-2.67 1.525 0 0-1.786 0-1.786-2.348l.402-6.303s0-.703-.623-.703l-1.204.342-.823.361s-2.007.743-2.007 1.124l.04.12.26.181 1.185-.341s.522 0 .522.622v1.847l-.26 3.753s0 1.465.862 1.907c0 0 1.104.522 3.011.522 0 0 1.566 0 3.513-2.128l-.08.864s0 1.164.963 1.164c0 0 .722.02 1.465-.301l1.486-.803.823-.623-.04-.14-.081-.12-.1-.12-1.004.5-.522.181s-.381 0-.381-.983v-4.396l.22-2.429.201-.582v-.04s0-.401-.602-.401ZM67.226 2.097l.18-.602-.18-.482-.12-.1-.261-.12-.14.04L62.187 3s-.12.08-.26.14l.08.121s.04.14.22.181l.703-.22.863-.382.341-.04s.361 0 .361 1.204v19.831s0 2.43-1.907 2.369c0 0-.963 0-.963.381v.12s0 .302.301.302l3.754-.12 3.733.12s.301 0 .301-.301v-.12s0-.322-.783-.382c0 0-1.826 0-1.826-2.53V4.145l.12-2.047ZM51.991 16.369l-.18-.181s-.101 0-1.125.682c0 0-.662.542-1.826.904 0 0-.823.28-.823.542l.04.06.06.12.18.12.964-.3.12-.04.101-.08s.14 0 .18.26v6.825s0 .883-1.184.923c0 0-1.063.14-1.063.301v.2s0 .302.34.302l4.035-.2 2.389.2s.401 0 .401-.301v-.2s0-.161-1.304-.302c0 0-1.305-.04-1.305-1.064v-3.07s0-1.506.662-2.39c0 0 1.004-1.404 1.405-1.404 0 0 .281.14.422.481 0 0 .462.743.943.743 0 0 .502 0 .904-.422 0 0 .481-.34.481-.762 0 0 0-1.646-1.786-1.646 0 0-.903 0-1.967 1.525l-.944 1.184v-.762l.181-1.867s0-.422-.301-.381ZM37.299 16.469s-2.329 0-3.975 1.806c0 0-1.706 1.807-1.706 4.135 0 0 0 2.168 1.465 3.433 0 0 1.566 1.304 3.975 1.304l1.967-.24 1.706-.623 1.004-.783-.1-.22-.081-.08-.06-.121-.12.02s-.201.04-.282.2c0 0-1.124.904-2.73.904 0 0-1.886 0-2.91-1.305 0 0-1.064-1.285-1.064-3.412v-.562l7.347.14s.36 0 .36-.401c0 0-.06-1.726-1.484-2.99 0 0-1.426-1.205-3.312-1.205Zm-.422.682s.803 0 1.546.823c0 0 .722.883.722 1.706 0 0 0 .281-1.204.462l-3.553.341.301-1.987s.602-1.345 2.188-1.345ZM4.741 1.696l-3.211.26s-.14 0-.14.262v.32s0 .161.1.262l.3.04 3.152-.14.963.1s.442.16.602.421c0 0 .282.623.282 2.95v17.123s0 1.425-.282 1.906c0 0-.3.462-1.364.603l-2.75.22s-1.526-.04-1.526.422v.26s0 .302.462.302l3.312-.2 10.738.2s4.035 0 6.102-1.164c0 0 3.393-1.867 3.393-5.861 0 0 0-5.62-6.403-7.527 0 0 3.914-1.767 3.914-4.717 0 0 0-2.69-2.409-4.336 0 0-.462-.361-.943-.602 0 0-2.068-1.104-5.019-1.104H4.742Zm7.567 1.144s2.53 0 4.276 1.586c0 0 1.686 1.445 1.686 3.633 0 0 0 1.826-1.485 2.91 0 0-1.546 1.084-4.075 1.084l-1.706-.08V9.544s0-4.336.401-6.022c0 0 .18-.682.903-.682Zm1.064 10.297s3.272 0 4.256.843c0 0 1.184.963 2.027 2.59 0 0 .742 1.465.742 2.91 0 0 0 2.95-1.766 4.717 0 0-1.566 1.606-5.8 1.606 0 0-2.149 0-2.209-1.225l-.1-5.198.1-4.015.241-1.666s.14-.562 2.51-.562Z" fill="#000"/></svg>