<svg width="305" height="34" fill="none" xmlns="http://www.w3.org/2000/svg"><g filter="url('#filter0_d_168_787')"><path d="M17.696 18.234c0-5.393-4.908-6.197-7.835-6.197h-.859v11.88h1.999c4.256 0 6.695-2.071 6.695-5.683Zm-8.694-7.741h1.904c3.1 0 4.672-1.44 4.672-4.28 0-2.618-1.554-4.06-4.378-4.06H9.002v8.34Zm5.391.658c3.857.566 7.783 2.756 7.783 7.342 0 2.466-1.258 4.33-3.739 5.541-2.476 1.21-5.401 1.39-6.925 1.39H4v-.474c.994-.481.965-2.088.965-3.223V4.306c0-1.135.03-2.742-.965-3.223V.609h6.071c3.218 0 5.582.39 7.026 1.156 1.668.876 2.704 2.524 2.704 4.3 0 2.33-1.77 3.997-5.408 5.086Zm32.185 1.866c0-6.32-3.166-11.443-8.424-11.443-5.258 0-8.423 5.123-8.423 11.443 0 6.32 3.165 11.442 8.423 11.442s8.424-5.123 8.424-11.442ZM38.154.032c7.293 0 13.205 5.814 13.205 12.985C51.36 20.187 45.447 26 38.154 26s-13.205-5.813-13.205-12.983C24.949 5.846 30.86.032 38.154.032ZM52.204 3.3V.569h15.562V3.3h-.46c-.805-1.23-2.2-1.22-3.312-1.22h-2.01v19.649c0 1.137-.03 2.746.955 3.23v.473h-5.906v-.474c.984-.483.955-2.092.955-3.23h-.002V2.08h-2.01c-1.11-.001-2.506-.011-3.311 1.219h-.46Zm19.738 0V.569h15.562V3.3h-.46c-.806-1.23-2.201-1.22-3.313-1.22h-2.009v19.649h-.001c0 1.137-.03 2.746.955 3.23v.473H76.77v-.474c.984-.483.955-2.092.955-3.23h-.002V2.08h-2.009c-1.112-.001-2.506-.011-3.312 1.219h-.46Zm32.851 20.623c1.114 0 2.552-.005 3.316-1.22h.46v2.73h-16.7v-.468c1.248-.82 1.24-2.301 1.239-3.465V4.503c0-1.164.009-2.646-1.24-3.466V.57h15.676V3.3h-.461c-.795-1.224-2.202-1.22-3.315-1.22h-6.694v9.82h5.612c1.13 0 2.746.014 3.186-.968h.467v3.445h-.467c-.44-.983-2.056-.969-3.186-.969h-5.612v10.515h7.719Zm25.878-9.63v-.459h6.248c-.207 2.722-.509 4.232-1.685 6.23-2.271 3.83-6.109 5.938-10.808 5.938-3.582 0-6.935-1.268-9.44-3.567-2.58-2.37-4.001-5.635-4.001-9.196 0-3.992 2.105-8.165 5.362-10.631C118.564.923 121.32.032 124.316.032c1.587 0 3.153.214 4.536.596.276.077 1.103.303 2.035.41.827.087 2.032.073 2.547-.421h.459v5.718l-.459.077a9.786 9.786 0 0 0-.484-.775c-1.883-2.692-4.544-4.056-8.191-4.056-3.102 0-5.488 1.16-7.09 3.45-1.385 1.98-1.972 4.74-1.972 7.985 0 3.053.588 5.833 1.919 7.83 1.555 2.334 3.91 3.569 6.811 3.569 3.806 0 7.88-3.044 7.88-7.577 0-2.307-1.636-2.545-1.636-2.545Zm20.721 1.548-3.856-10.1-3.856 10.1h7.712Zm6.769 6.48c.248.608.929 2.282 1.822 2.614v.49h-6.66v-.484c.862-.405 1.084-1.145.721-2.114l-2.055-5.48h-8.87l-2.078 5.479c-.362.97-.154 1.692.72 2.114v.484h-4.256v-.496c.971-.276 1.789-1.785 2.098-2.647l8.3-21.67h1.878l.027.068 8.353 21.643Zm31.375-21.262V.572l4.245-.002v.498c-.934.258-1.765 1.727-2.079 2.65l-7.469 21.713h-2.05l-7.317-21.758c-.334-.993-.966-2.286-1.771-2.613V.57h6.6v.485c-1.221.586-.885 1.909-.695 2.432l5.488 16.444 5.825-16.934c.192-.604.219-1.46-.776-1.94h-.001Zm20.776 22.864c1.113 0 2.551-.005 3.315-1.22h.461v2.73h-16.701v-.468c1.248-.82 1.239-2.301 1.239-3.465V4.503c0-1.164.009-2.646-1.239-3.466V.57h15.675V3.3h-.461c-.794-1.224-2.202-1.22-3.315-1.22h-6.694v9.82h5.612c1.13 0 2.747.014 3.186-.968h.467v3.445h-.467c-.439-.983-2.056-.969-3.186-.969h-5.612v10.515h7.72Zm23.39-22.886V.57h3.159v.466c-.788.508-.781 2.054-.779 2.546v21.85h-1.038L220.881 5.033V22.42c-.002.491-.009 2.038.779 2.545v.466h-3.158v-.466c.787-.507.78-2.054.779-2.545L219.28 4.4c.001-1.13.006-2.575-1.207-3.362V.57h4.878l.032.046 11.499 16.541V3.581c.002-.491.008-2.038-.78-2.545Zm20.828 22.886c1.114 0 2.552-.005 3.316-1.22h.461v2.729h-16.701v-.467c1.248-.82 1.239-2.301 1.239-3.465V4.503c0-1.164.009-2.646-1.239-3.466V.57h15.675V3.3h-.461c-.795-1.224-2.202-1.22-3.315-1.22h-6.694v9.82h5.613c1.129 0 2.745.014 3.185-.968h.467v3.445h-.467c-.44-.983-2.056-.969-3.185-.969h-5.613v10.515h7.719Zm7.193-20.624V.57h15.562v2.729h-.461c-.805-1.23-2.2-1.22-3.312-1.22h-2.009v19.649h-.002c0 1.137-.028 2.746.956 3.23v.473h-5.906v-.474c.984-.483.955-2.092.955-3.23h-.002V2.08h-2.009c-1.112-.001-2.507-.011-3.312 1.219h-.46ZM291.5 15.83 287.658 5.71l-3.842 10.12h7.684Zm6.743 6.494c.247.608.926 2.286 1.815 2.618v.49h-6.634v-.484c.858-.405 1.079-1.147.718-2.119l-2.047-5.489h-8.838l-2.069 5.489c-.361.97-.154 1.695.718 2.117v.486h-4.242v-.498c.969-.275 1.783-1.787 2.092-2.652L288.024.57h1.872l.026.069 8.321 21.684Z" fill="#0A0A0A"/></g><defs><filter id="filter0_d_168_787" x="0" y="0" width="304.059" height="34.001" filterUnits="userSpaceOnUse" color-interpolation-filters="sRGB"><feFlood flood-opacity="0" result="BackgroundImageFix"/><feColorMatrix in="SourceAlpha" values="0 0 0 0 0 0 0 0 0 0 0 0 0 0 0 0 0 0 127 0" result="hardAlpha"/><feOffset dy="4"/><feGaussianBlur stdDeviation="2"/><feComposite in2="hardAlpha" operator="out"/><feColorMatrix values="0 0 0 0 0 0 0 0 0 0 0 0 0 0 0 0 0 0 0.25 0"/><feBlend in2="BackgroundImageFix" result="effect1_dropShadow_168_787"/><feBlend in="SourceGraphic" in2="effect1_dropShadow_168_787" result="shape"/></filter></defs></svg>