<svg width="139" height="26" fill="none" xmlns="http://www.w3.org/2000/svg"><path fill-rule="evenodd" clip-rule="evenodd" d="M137.623.614h1.268v24.698h-1.268V.614ZM119.67 2.241v8.662h10.461v1.09H119.67v12.23h10.461v1.089H118.4V.614h11.731v1.091H119.67v.536ZM95.837 24.393h3.286l.794-.007.746-.013.7-.024.651-.032.604-.044.557-.05.507-.061.459-.07.415-.08.365-.088.356-.104.345-.117.333-.13.323-.147.312-.158.299-.172.29-.185.278-.2.268-.213.256-.227.333-.328.315-.343.301-.359.28-.376.267-.39.25-.407.233-.421.216-.439.199-.453.182-.468.164-.476.145-.486.13-.502.113-.515.095-.527.078-.54.06-.555.043-.565.026-.58.01-.594-.01-.608-.026-.592-.045-.578-.06-.564-.081-.546-.095-.535-.112-.519-.131-.503-.148-.49-.166-.476-.183-.47-.204-.451-.219-.437-.236-.418-.252-.401-.27-.383-.287-.367-.304-.349-.318-.33-.338-.316-.271-.232-.282-.217-.293-.205-.306-.19-.316-.176-.329-.162-.34-.148-.351-.134-.366-.12-.375-.106-.391-.089-.444-.081-.499-.072-.552-.064-.605-.05-.663-.046-.714-.035-.769-.023-.823-.015-.878-.006h-3.067v22.95h.535Zm1.67.919h.793l.909-.006.858-.015.804-.026.757-.037.705-.048.653-.057.601-.068.551-.08.497-.088.447-.102.401-.11.396-.125.382-.138.377-.154.366-.167.359-.181.349-.193.34-.21.33-.223.323-.236.39-.317.372-.34.353-.358.337-.38.315-.4.298-.42.278-.44.26-.463.242-.48.223-.504.206-.53.185-.546.163-.558.141-.575.118-.59.098-.604.075-.617.054-.634.033-.649.012-.663-.012-.661-.033-.649-.054-.632-.075-.62-.098-.602-.118-.588-.141-.573-.162-.559-.185-.543-.205-.529-.225-.503-.243-.484-.264-.466-.282-.446-.303-.43-.319-.409-.342-.39-.359-.372-.379-.352-.399-.333-.31-.236-.324-.221-.337-.208-.347-.191-.361-.179-.372-.164-.384-.15-.395-.135-.408-.12-.42-.106-.474-.098-.534-.089-.598-.077-.657-.067-.719-.057-.78-.046-.84-.034-.904-.026-.965-.015-1.025-.006h-3.47v24.698h3.47Zm-23.17-9.654h9.734l-.284-.726L79.4 3.697l-.49-1.251-.506 1.244-4.565 11.232-.3.737h.798Zm-.795.922h10.874l.131.345 3.15 8.387h1.385L79.046.439l-10.5 24.873h1.226l3.271-8.393.135-.34h.364Zm-21.908 4.674.135.32.147.306.16.294.174.28.185.265.2.252.211.24.223.226.238.212.248.2.31.216.32.196.334.173.346.149.357.127.37.105.382.08.395.059.407.034.42.012.527-.017.504-.05.48-.081.455-.115.431-.145.408-.18.384-.21.361-.24.337-.273.313-.304.286-.328.256-.35.226-.375.199-.4.167-.424.139-.45.106-.474.078-.497.048-.521.014-.547-.01-.408-.032-.39-.052-.38-.073-.363-.094-.35-.115-.335-.134-.322-.155-.306-.173-.295-.195-.278-.216-.262-.26-.273-.304-.28-.348-.286-.393-.3-.437-.304-.481-.314-.527-.32-.572-.328-.617-.338-.722-.392-.675-.384-.623-.372-.573-.363-.525-.354-.474-.342-.423-.336-.374-.324-.322-.316-.273-.307-.221-.292-.198-.302-.173-.314L52 7.862l-.127-.337-.103-.348-.081-.36-.057-.373-.035-.383-.011-.395.017-.492.048-.472.085-.455.116-.435.151-.418.184-.398.22-.38.251-.36.288-.344.32-.324.355-.302.374-.271.394-.238.414-.206.435-.176.455-.142.477-.11.496-.08.516-.046.536-.017.35.008.342.021.333.037.324.052.316.068.306.08.296.098.288.111.276.127.269.142.217.13.21.14.205.154.195.162.19.172.182.184.177.195.168.205.162.214.155.227-.907.535-.121-.176-.13-.166-.135-.158-.144-.153-.15-.144-.156-.136-.162-.131-.17-.122-.174-.114-.183-.107-.231-.122-.242-.109-.249-.096-.258-.084-.265-.072-.275-.057-.281-.046-.294-.033-.298-.018-.308-.007-.422.012-.401.04-.385.064-.368.09-.349.116-.334.14-.312.165-.297.19-.28.216-.256.243-.244.262-.217.276-.191.297-.168.313-.142.33-.118.35-.09.366-.066.382-.04.404-.013.42.047.583.136.576.23.574.325.565.422.559.52.552.619.544.72.536.822.525.929.518 1.229.645.608.344.57.34.526.338.485.332.446.326.4.324.363.32.318.315.279.313.233.31.196.308.174.326.154.345.132.361.11.38.093.395.07.415.049.433.032.45.01.465-.02.633-.054.604-.092.579-.131.552-.168.525-.204.5-.244.474-.282.445-.319.418-.357.392-.39.359-.419.32-.446.28-.473.244-.5.205-.527.167-.554.13-.58.092-.609.055-.634.017-.464-.01-.452-.036-.438-.055-.424-.081-.41-.101-.397-.128-.383-.148-.37-.172-.355-.197-.343-.22-.3-.22-.285-.24-.274-.258-.262-.279-.25-.296-.238-.314-.227-.334-.214-.354-.203-.37-.192-.391 1.018-.537ZM31.35 15.658h9.737l-.285-.726-4.388-11.235-.49-1.251-.505 1.244-4.565 11.232-.299.737h.795Zm-.79.922H41.43l.133.345 3.15 8.387h1.384L36.063.439 25.558 25.312h1.23l3.272-8.393.132-.34h.367ZM17.658 1.834l-.422-.155-.428-.14-.431-.123-.436-.107-.439-.09-.446-.073-.45-.057-.453-.04-.457-.026-.462-.007-1.03.033-.99.1-.95.166-.91.234-.872.3-.833.367-.792.433-.751.497-.716.566-.674.63-.62.683-.557.723-.492.762-.426.804-.36.844-.296.884-.23.923-.164.966-.1 1.005-.033 1.046.007.527.024.515.04.505.057.496.072.482.089.475.103.464.12.45.136.442.153.43.169.427.186.414.204.405.22.397.237.386.252.376.271.37.288.357.306.346.32.339.33.318.34.303.35.287.358.27.368.257.38.242.387.222.396.21.407.194.414.177.422.162.428.144.433.128.44.11.448.093.451.076.46.061.465.043.472.023.478.01.46-.008.461-.024.457-.04.455-.055.451-.072.452-.089.447-.102.445-.118.445-.136.442-.151.34-.129.34-.138.335-.148.333-.156.33-.166.326-.176.324-.184.323-.194.318-.204.315-.212v1.415l-.348.199-.35.188-.356.18-.357.172-.363.162-.366.153-.369.144-.373.134-.377.126-.381.115-.41.115-.406.103-.408.089-.406.079-.406.064-.405.053-.404.043-.403.03-.402.017-.4.006-.539-.01-.534-.029-.528-.048-.524-.066-.517-.086-.515-.106-.51-.125-.504-.144-.5-.164-.495-.184-.482-.2-.467-.215-.456-.231-.44-.247-.427-.261-.414-.28-.4-.292-.385-.31-.372-.323-.36-.34-.352-.363-.335-.375-.317-.386-.3-.398-.282-.41-.263-.421-.247-.431-.23-.445-.212-.457-.194-.466-.177-.48-.159-.489-.14-.499-.12-.507-.101-.518-.082-.527-.065-.534-.046-.546-.028-.552L0 12.971l.01-.553.027-.543.048-.539.067-.53.084-.523.105-.516.124-.509.142-.501.162-.494.182-.487.2-.471.215-.46.232-.445.249-.433.265-.42.283-.406.298-.395.316-.379.333-.369.349-.353.355-.334.37-.319.384-.303.4-.29.413-.275.427-.26.443-.243.455-.23.47-.216.484-.199.495-.184.499-.166L9.39.48l.506-.125.512-.11.514-.085.52-.068.523-.05.527-.03.53-.009.472.008.464.018.459.033.451.046.444.061.437.072.43.085.423.1.416.11.41.125.374.128.369.138.361.15.356.163.35.173.343.184.338.198.33.208.324.22.317.23-.018 1.195-.317-.23-.317-.22-.319-.21-.32-.198-.32-.185-.321-.176-.324-.166-.325-.152-.326-.144-.326-.133Z" fill="#000"/></svg>