<svg width="182" height="26" fill="none" xmlns="http://www.w3.org/2000/svg"><g clip-path="url('#clip0_431_7468')"><path d="M108.401 21.684c-1.902 1.603-4.273 2.457-6.837 2.457-6.024 0-10.725-4.87-10.725-11.088 0-6.11 4.594-11.024 10.447-11.173 2.201.085 3.696.534 5.299 1.645V5.66h1.111V.491h-1.09v.983a13.378 13.378 0 0 0-5.021-.983c-7.242 0-13.138 5.619-13.138 12.54 0 6.902 5.896 12.52 13.138 12.52 2.821 0 5.512-1.068 7.606-3.012l.192-.171-.769-.833-.213.15ZM76.461 1.965h1.111l-4.016 10.127-5.063-10.127h1.068V.833h-4.764v1.132h1.09l5.896 12.05v10.083h-1.517v1.133h5.725v-1.133h-1.709v-10.04l4.829-12.093h1.068V.833H76.46v1.132Zm-54.777 0h1.068V.833h-4.614v1.132h1.132v22.133h-1.132v1.133h4.614v-1.133h-1.068V1.965ZM54.136 13.61 48.666.833h-2.862v1.132h1.218v22.133h-1.218v1.133h3.803v-1.133h-1.09V6.003l5.234 12.434 5.192-13.075v18.736h-1.197v1.133h4.7v-1.133h-1.068V1.965h1.069V.833H59.22l-5.085 12.776Zm-19.698 0L28.97.833h-2.863v1.132h1.218v22.133h-1.218v1.133h3.803v-1.133h-1.09V6.003l5.213 12.434 5.213-13.075v18.736l-.961.022-.128.021-.107.171v.919h4.679v-1.133H41.68V1.965h1.047V.833h-3.205l-5.085 12.776Zm89.9-11.644h1.09V.855l-4.743-.022v1.132h1.196v5.341h-7.135v-5.34h1.068V.832h-4.7v1.132h1.175v22.133h-1.175v1.133h4.7v-1.133h-1.068V8.652h7.135v15.446h-1.196v1.133h4.764v-1.133h-1.111V1.965ZM10.062 1.944h1.196v16.984c0 4.102-2.756 5.256-4.208 5.277-1.346-.021-3.974-1.068-4.209-4.764l-.021-.278-2.372.363.043.257a7.591 7.591 0 0 0 1.004 2.905c.684 1.154 2.735 2.885 5.533 2.885 3.461 0 5.213-2.393 5.534-2.863 1.068-1.667 1.153-3.632 1.153-5.854V1.986h1.069V.834h-4.722v1.111ZM139.934.491c-7.243 0-13.139 5.619-13.139 12.54 0 6.902 5.896 12.542 13.139 12.542 7.242 0 13.139-5.62 13.139-12.541 0-6.922-5.897-12.54-13.139-12.54Zm-.064 23.65c-5.982 0-10.661-4.87-10.661-11.11 0-2.99 1.111-5.789 3.119-7.882a10.473 10.473 0 0 1 7.606-3.248c5.918 0 10.746 5.042 10.746 11.238-.021 6.152-4.764 11.002-10.81 11.002ZM167.963.491c-7.242 0-13.138 5.619-13.138 12.54 0 6.902 5.896 12.542 13.138 12.542 7.243 0 13.139-5.62 13.139-12.541 0-6.922-5.896-12.54-13.139-12.54Zm.065 23.65c-5.961-.043-10.789-5.02-10.789-11.11 0-2.99 1.111-5.789 3.119-7.882a10.469 10.469 0 0 1 7.605-3.248c5.918 0 10.747 5.042 10.747 11.238 0 6.131-4.701 10.96-10.682 11.002Z" fill="#000"/></g><defs><clipPath id="clip0_431_7468"><path fill="#fff" d="M0 0h181.551v26H0z"/></clipPath></defs></svg>