<svg xmlns="http://www.w3.org/2000/svg" width="90" viewBox="0 0 67.5 67.5" height="90" version="1.0"><defs><clipPath id="id1"><path d="M24 53h20v14.004H24Zm0 0"/></clipPath><clipPath id="id2"><path d="M16 58h11v9.004H16Zm0 0"/></clipPath><clipPath id="id3"><path d="M21 8h46.004v9H21Zm0 0"/></clipPath></defs><path d="M62.223 41.137H21.098a1.053 1.053 0 0 1-1.055-1.055v-4.227c0-.582.469-1.054 1.055-1.054h41.125c.586 0 1.054.472 1.054 1.054v4.227c0 .582-.468 1.055-1.054 1.055Zm-40.07-2.11h39.015V36.91H22.152Zm0 0"/><path d="M21.102 41.137H1.055A1.055 1.055 0 0 1 0 40.082v-4.227c0-.582.473-1.054 1.055-1.054h15.824c.277 0 .547.113.742.312l4.227 4.223c.3.3.39.754.226 1.148a1.054 1.054 0 0 1-.972.653Zm-18.993-2.11h16.446L16.44 36.91H2.11Zm0 0"/><path d="M1.059 65.402a1.053 1.053 0 0 1-1.055-1.054V40.082a1.05 1.05 0 0 1 1.055-1.055c.582 0 1.054.47 1.054 1.055v24.266c0 .582-.472 1.054-1.054 1.054ZM55.895 55.906a1.055 1.055 0 0 1 0-2.11 4.221 4.221 0 0 0 4.218-4.218 1.055 1.055 0 0 1 2.11 0 6.334 6.334 0 0 1-6.328 6.328Zm0 0"/><path d="M61.168 50.633a1.055 1.055 0 0 1-1.055-1.055v-9.496c0-.586.473-1.055 1.055-1.055a1.05 1.05 0 0 1 1.055 1.055v9.496c0 .582-.47 1.055-1.055 1.055ZM55.895 55.906H42.187a1.055 1.055 0 0 1 0-2.11h13.708c.585 0 1.054.474 1.054 1.056 0 .582-.469 1.054-1.054 1.054Zm0 0"/><g clip-path="url('#id1')"><path d="M25.313 67.512a1.054 1.054 0 0 1-.598-1.926L41.59 53.98a1.06 1.06 0 0 1 1.469.274 1.06 1.06 0 0 1-.274 1.469L25.906 67.324c-.18.125-.39.188-.593.188Zm0 0"/></g><path d="M5.273 65.402H1.06a1.053 1.053 0 0 1-1.055-1.054 1.05 1.05 0 0 1 1.055-1.055h4.214a1.055 1.055 0 0 1 0 2.11Zm0 0"/><path d="M5.277 65.398a1.053 1.053 0 0 1-1.054-1.054 6.33 6.33 0 0 1 6.324-6.324 1.055 1.055 0 0 1 0 2.11 4.22 4.22 0 0 0-4.215 4.214c0 .582-.473 1.054-1.055 1.054Zm0 0"/><g clip-path="url('#id2')"><path d="M25.309 67.512a1.055 1.055 0 0 1-1.055-1.055 6.332 6.332 0 0 0-6.328-6.328 1.055 1.055 0 0 1 0-2.11c4.652 0 8.437 3.786 8.437 8.438 0 .582-.468 1.055-1.054 1.055Zm0 0"/></g><path d="M17.926 60.129h-7.38a1.055 1.055 0 0 1 0-2.11h7.38a1.05 1.05 0 0 1 1.054 1.055c0 .582-.468 1.055-1.054 1.055Zm0 0"/><path d="M17.926 60.129a1.055 1.055 0 0 1-1.055-1.055c0-4.07-3.308-7.383-7.379-7.383a1.055 1.055 0 0 1 0-2.11c5.235.001 9.488 4.259 9.488 9.493 0 .582-.468 1.055-1.054 1.055ZM6.332 51.684a6.332 6.332 0 0 1-6.328-6.329 1.055 1.055 0 0 1 2.11 0 4.221 4.221 0 0 0 4.218 4.22 1.055 1.055 0 0 1 0 2.109Zm0 0"/><path d="M9.492 51.691h-3.16a1.05 1.05 0 0 1-1.055-1.054c0-.582.47-1.055 1.055-1.055h3.16a1.055 1.055 0 0 1 0 2.11ZM31.453 63.29c-.328 0-.652-.157-.855-.442l-1.739-2.422a1.056 1.056 0 0 1 1.715-1.23l1.735 2.421a1.055 1.055 0 0 1-.856 1.672ZM34.93 60.898c-.328 0-.649-.152-.856-.441l-1.785-2.488a1.053 1.053 0 0 1 .242-1.473 1.057 1.057 0 0 1 1.473.242l1.785 2.489a1.056 1.056 0 0 1-.86 1.671ZM38.41 58.508c-.332 0-.652-.153-.86-.442l-1.831-2.554a1.056 1.056 0 0 1 1.715-1.23l1.832 2.554a1.056 1.056 0 0 1-.856 1.672ZM41.887 56.117c-.328 0-.653-.156-.86-.441l-1.882-2.63a1.051 1.051 0 0 1 .242-1.468 1.053 1.053 0 0 1 1.472.242l1.883 2.625a1.056 1.056 0 0 1-.855 1.672ZM13.715 36.914a1.055 1.055 0 0 1-1.055-1.055v-8.425a1.055 1.055 0 0 1 2.11 0v8.425c0 .582-.473 1.055-1.055 1.055Zm0 0"/><path d="M14.777 28.488h-2.12a1.055 1.055 0 0 1 0-2.11h2.12a1.055 1.055 0 0 1 0 2.11ZM17.938 25.305H9.495a1.055 1.055 0 0 1-1.055-1.055v-4.219c0-.582.473-1.054 1.055-1.054h8.441c.583 0 1.055.472 1.055 1.054v4.219c0 .582-.472 1.055-1.055 1.055Zm-7.387-2.11h6.332v-2.11H10.55Zm0 0"/><path d="M11.605 21.086a1.055 1.055 0 0 1-1.054-1.055v-3.16a1.055 1.055 0 0 1 2.11 0v3.16c0 .582-.473 1.055-1.056 1.055ZM15.824 21.086a1.055 1.055 0 0 1-1.054-1.055v-3.16a1.055 1.055 0 0 1 2.109 0v3.16c0 .582-.473 1.055-1.055 1.055ZM11.605 9.48a1.055 1.055 0 0 1-1.054-1.054V5.262a1.055 1.055 0 0 1 2.11 0v3.164c0 .582-.473 1.054-1.056 1.054ZM15.824 9.48a1.055 1.055 0 0 1-1.054-1.054V1.043a1.055 1.055 0 0 1 2.109 0v7.383c0 .582-.473 1.054-1.055 1.054Zm0 0"/><path d="M11.605 17.926a5.281 5.281 0 0 1-5.273-5.274 5.279 5.279 0 0 1 5.273-5.273 1.055 1.055 0 0 1 0 2.11 3.166 3.166 0 0 0-3.164 3.163 3.168 3.168 0 0 0 3.164 3.164 1.055 1.055 0 0 1 0 2.11Zm0 0"/><path d="M22.156 17.926h-10.55a1.055 1.055 0 0 1 0-2.11h10.55a1.055 1.055 0 0 1 0 2.11Zm0 0"/><path d="M22.156 17.926a1.053 1.053 0 0 1-1.054-1.055V8.43a1.055 1.055 0 0 1 2.11 0l-.001 8.441c0 .582-.473 1.055-1.055 1.055Zm0 0"/><path d="M22.156 9.484h-10.55a1.055 1.055 0 0 1 0-2.109h10.55a1.055 1.055 0 0 1 0 2.11ZM11.605 6.316a1.055 1.055 0 0 1-1.054-1.054 5.281 5.281 0 0 1 5.273-5.274 1.055 1.055 0 0 1 0 2.11 3.168 3.168 0 0 0-3.164 3.164c0 .582-.473 1.054-1.055 1.054Zm0 0"/><g clip-path="url('#id3')"><path d="M66.445 16.887H22.156a1.053 1.053 0 0 1-1.054-1.055V9.504c0-.582.468-1.055 1.054-1.055h44.29c.581 0 1.054.473 1.054 1.055v6.328c0 .582-.473 1.055-1.055 1.055Zm-43.234-2.11h42.18V10.56H23.21Zm0 0"/></g></svg>