<svg xmlns="http://www.w3.org/2000/svg" width="90" viewBox="0 0 67.5 67.5" height="90" version="1.0"><defs><clipPath id="id1"><path d="M20 55h47.004v7.273H20Zm0 0"/></clipPath><clipPath id="id2"><path d="M0 55h23v7.273H0Zm0 0"/></clipPath><clipPath id="id3"><path d="M60 37h7.004v9H60Zm0 0"/></clipPath><clipPath id="id4"><path d="M65 43h2.004v16H65Zm0 0"/></clipPath><clipPath id="id5"><path d="M33 5.277h34.004V18H33Zm0 0"/></clipPath><clipPath id="id6"><path d="M4 5.277h23V28H4Zm0 0"/></clipPath></defs><g clip-path="url('#id1')"><path d="M66.445 62.273H21.098a1.053 1.053 0 0 1-1.055-1.054v-4.227a1.05 1.05 0 0 1 1.055-1.054h45.347c.582 0 1.055.468 1.055 1.054v4.227c0 .582-.473 1.054-1.055 1.054Zm-44.293-2.109h43.239v-2.117H22.152Zm0 0"/></g><g clip-path="url('#id2')"><path d="M16.879 62.273H1.055A1.055 1.055 0 0 1 0 61.22v-4.227c0-.586.473-1.054 1.055-1.054h20.047c.425 0 .812.253.972.648.164.394.074.852-.226 1.152l-4.227 4.227a1.04 1.04 0 0 1-.742.308Zm-14.77-2.109h14.332l2.114-2.117H2.109Zm0 0"/></g><path d="M1.059 58.047a1.053 1.053 0 0 1-1.055-1.055V29.535c0-.586.473-1.055 1.055-1.055s1.054.47 1.054 1.055v27.457c0 .586-.472 1.055-1.054 1.055Zm0 0"/><g clip-path="url('#id3')"><path d="M66.445 45.371a1.054 1.054 0 0 1-1.054-1.059 4.224 4.224 0 0 0-4.22-4.218 1.054 1.054 0 0 1-1.054-1.059c0-.582.469-1.055 1.055-1.055 3.488 0 6.328 2.84 6.328 6.333 0 .585-.473 1.058-1.055 1.058Zm0 0"/></g><g clip-path="url('#id4')"><path d="M66.445 58.047a1.053 1.053 0 0 1-1.054-1.055v-12.68a1.055 1.055 0 0 1 2.11 0l-.001 12.68c0 .582-.473 1.055-1.055 1.055Zm0 0"/></g><path d="M61.172 40.094H43.246a1.054 1.054 0 0 1-1.055-1.059c0-.582.47-1.055 1.055-1.055h17.926a1.056 1.056 0 0 1 0 2.113Zm0 0"/><path d="M43.242 40.094c-.203 0-.414-.063-.594-.188L25.77 28.293a1.054 1.054 0 0 1-.27-1.469 1.05 1.05 0 0 1 1.465-.27l16.879 11.614a1.058 1.058 0 0 1-.602 1.926ZM5.277 30.59H1.06a1.055 1.055 0 0 1 0-2.11h4.218a1.055 1.055 0 0 1 0 2.11Zm0 0"/><path d="M10.547 35.867c-3.488 0-6.324-2.84-6.324-6.332a1.055 1.055 0 0 1 2.109 0 4.224 4.224 0 0 0 4.215 4.223 1.055 1.055 0 0 1 0 2.11ZM18.984 35.867a1.055 1.055 0 0 1 0-2.11c3.489 0 6.328-2.839 6.328-6.335a1.055 1.055 0 0 1 2.11 0c0 4.66-3.785 8.445-8.438 8.445Zm0 0"/><path d="M18.984 35.867h-8.437a1.055 1.055 0 0 1 0-2.11h8.437a1.055 1.055 0 0 1 0 2.11ZM30.773 35.129a1.056 1.056 0 0 1-.855-1.672l1.738-2.422a1.044 1.044 0 0 1 1.469-.242c.473.336.582.996.242 1.473l-1.734 2.422c-.207.289-.531.44-.86.44ZM34.203 37.586c-.21 0-.43-.063-.613-.195a1.06 1.06 0 0 1-.242-1.477l1.78-2.488a1.056 1.056 0 0 1 1.715 1.23l-1.78 2.492a1.06 1.06 0 0 1-.86.438ZM37.629 40.05a1.056 1.056 0 0 1-.855-1.672l1.835-2.558a1.048 1.048 0 0 1 1.47-.242c.472.336.585.996.241 1.469l-1.832 2.562c-.207.29-.531.442-.86.442ZM41.059 42.516a1.056 1.056 0 0 1-.855-1.672l1.882-2.633a1.056 1.056 0 1 1 1.715 1.234l-1.883 2.63c-.207.288-.531.44-.86.44Zm0 0"/><g clip-path="url('#id5')"><path d="M66.445 17.945h-31.64a1.055 1.055 0 0 1-1.055-1.054V6.328c0-.582.473-1.055 1.055-1.055h31.64c.582 0 1.055.473 1.055 1.055v10.563c0 .582-.473 1.054-1.055 1.054ZM35.86 15.832h29.532v-8.45H35.859Zm0 0"/></g><path d="M63.277 25.336H37.973a1.053 1.053 0 0 1-1.055-1.055v-7.39c0-.586.469-1.059 1.055-1.059h25.304c.586 0 1.055.473 1.055 1.059v7.39c0 .582-.469 1.055-1.055 1.055Zm-24.25-2.113h23.196v-5.278H39.027ZM60.117 31.664H41.133a1.054 1.054 0 0 1-1.055-1.059c0-.582.469-1.054 1.055-1.054h18.984c.586 0 1.055.472 1.055 1.054 0 .586-.469 1.06-1.055 1.06Zm0 0"/><path d="M42.188 32.719a1.06 1.06 0 0 1-.747-.309l-1.054-1.058a1.052 1.052 0 0 1 0-1.493c.41-.41 1.078-.41 1.492 0l1.055 1.059c.41.41.41 1.078 0 1.492a1.066 1.066 0 0 1-.746.309Zm0 0"/><path d="M41.133 31.664c-.27 0-.543-.105-.746-.312a1.052 1.052 0 0 1 0-1.493l1.054-1.054a1.052 1.052 0 0 1 1.493 0c.41.414.41 1.082 0 1.492l-1.055 1.055a1.054 1.054 0 0 1-.746.312ZM60.117 31.664c-.27 0-.539-.105-.746-.312l-1.055-1.055a1.059 1.059 0 0 1 0-1.492 1.052 1.052 0 0 1 1.493 0l1.054 1.054a1.059 1.059 0 0 1-.746 1.805Zm0 0"/><path d="M59.063 32.719c-.27 0-.54-.106-.747-.309a1.059 1.059 0 0 1 0-1.492l1.055-1.059a1.059 1.059 0 0 1 1.492 0c.41.414.41 1.082 0 1.493L59.81 32.41a1.066 1.066 0 0 1-.746.309ZM41.164 23.219a1.059 1.059 0 0 1-1.059-1.055 1.05 1.05 0 0 1 1.047-1.059h.012a1.056 1.056 0 0 1 0 2.114ZM47.492 23.219a1.059 1.059 0 0 1-1.058-1.055 1.05 1.05 0 0 1 1.046-1.059h.012a1.056 1.056 0 0 1 0 2.114ZM53.82 23.219a1.059 1.059 0 0 1-1.058-1.055 1.05 1.05 0 0 1 1.047-1.059h.011a1.056 1.056 0 0 1 0 2.114ZM60.148 23.219a1.059 1.059 0 0 1-1.058-1.055 1.05 1.05 0 0 1 1.047-1.059h.011a1.056 1.056 0 0 1 0 2.114ZM44.328 20.05a1.06 1.06 0 0 1-1.058-1.058c0-.582.464-1.055 1.046-1.055h.012a1.056 1.056 0 0 1 0 2.113ZM50.656 20.05a1.06 1.06 0 0 1-1.058-1.058c0-.582.465-1.055 1.047-1.055h.011a1.056 1.056 0 0 1 0 2.113ZM56.984 20.05a1.06 1.06 0 0 1-1.058-1.058c0-.582.465-1.055 1.047-1.055h.011a1.056 1.056 0 0 1 0 2.113ZM61.172 12.66H40.078a1.055 1.055 0 0 1 0-2.11h21.094a1.055 1.055 0 0 1 0 2.11Zm0 0"/><g clip-path="url('#id6')"><path d="M15.3 27.441h-.003c-6.106 0-11.074-4.968-11.074-11.078A10.999 10.999 0 0 1 7.46 8.527a10.976 10.976 0 0 1 7.828-3.25c6.11 0 11.078 4.97 11.078 11.078a11.005 11.005 0 0 1-3.238 7.836 10.999 10.999 0 0 1-7.828 3.25Zm-.007-20.054c-4.945.004-8.965 4.027-8.961 8.976 0 4.946 4.023 8.969 8.965 8.969v1.055l.004-1.055a8.917 8.917 0 0 0 6.336-2.633 8.908 8.908 0 0 0 2.62-6.344c0-4.945-4.023-8.968-8.964-8.968Zm0 0"/></g><path d="M13.71 20.055c-.269 0-.538-.102-.745-.309l-2.11-2.11a1.063 1.063 0 0 1 0-1.495 1.059 1.059 0 0 1 1.493 0l2.109 2.113a1.052 1.052 0 0 1 0 1.492 1.043 1.043 0 0 1-.746.309Zm0 0"/><path d="M13.71 20.055c-.269 0-.538-.102-.745-.309a1.059 1.059 0 0 1 0-1.492l5.273-5.281a1.052 1.052 0 0 1 1.492 0c.41.41.41 1.078 0 1.492l-5.273 5.281a1.043 1.043 0 0 1-.746.309Zm0 0"/></svg>