<svg xmlns="http://www.w3.org/2000/svg" width="90" viewBox="0 0 67.5 67.5" height="90" version="1.0"><defs><clipPath id="id1"><path d="M5.215 4h57v63.004h-57Zm0 0"/></clipPath></defs><path d="M16.75 26.035a1.124 1.124 0 0 0-.797.332 1.124 1.124 0 0 0-.332.797v.906a1.1 1.1 0 0 0 .356.754c.214.203.472.305.77.305.3 0 .558-.102.773-.305a1.1 1.1 0 0 0 .355-.754v-.906c0-.148-.027-.293-.086-.43a1.114 1.114 0 0 0-.61-.613 1.155 1.155 0 0 0-.429-.086ZM22.34 2.266l1.676.613a1.1 1.1 0 0 0 1.102-.203 1.08 1.08 0 0 0 .382-.664c.047-.266.004-.52-.133-.754a1.07 1.07 0 0 0-.582-.496L23.11.148a1.112 1.112 0 0 0-.449-.09 1.111 1.111 0 0 0-.816.356 1.104 1.104 0 0 0-.239.387 1.103 1.103 0 0 0-.066.449 1.107 1.107 0 0 0 .402.8c.118.098.25.169.399.216ZM16.75 24.691a1.115 1.115 0 0 0 1.043-.703c.055-.136.082-.281.082-.433v-.895c-.02-.3-.137-.55-.355-.754a1.09 1.09 0 0 0-.774-.308c-.297 0-.555.105-.77.308a1.085 1.085 0 0 0-.355.754v.895c0 .152.027.297.086.433a1.11 1.11 0 0 0 1.043.703ZM22.723 11.785h1.816c.297-.02.547-.137.75-.351.203-.22.309-.477.309-.774 0-.3-.106-.555-.309-.773a1.064 1.064 0 0 0-.75-.352h-1.805a1.064 1.064 0 0 0-.75.352 1.08 1.08 0 0 0-.308.773c0 .297.101.555.308.774.203.214.453.332.75.351ZM17.414 25.367a1.124 1.124 0 0 0 .7 1.04c.14.058.284.085.433.081h.906a1.12 1.12 0 0 0 .453-.062c.145-.055.274-.133.387-.242.113-.106.203-.23.266-.372a1.148 1.148 0 0 0 0-.895 1.112 1.112 0 0 0-.266-.374 1.122 1.122 0 0 0-.84-.305h-.906c-.149 0-.293.028-.434.082-.136.059-.261.14-.367.246a1.066 1.066 0 0 0-.246.368 1.088 1.088 0 0 0-.086.433ZM14.059 26.488h.906a1.12 1.12 0 0 0 .453-.062c.145-.055.273-.133.387-.242a1.116 1.116 0 0 0 .262-1.266 1.05 1.05 0 0 0-.262-.375 1.122 1.122 0 0 0-.84-.305h-.906a1.122 1.122 0 0 0-.84.305 1.05 1.05 0 0 0-.262.375 1.116 1.116 0 0 0 .262 1.266c.113.109.242.187.386.242.149.05.297.074.454.062Zm0 0"/><g clip-path="url('#id1')"><path d="M61.176 65.16h-2.27a5.542 5.542 0 0 0 1.188-3.484V22.758a1.079 1.079 0 0 0-.082-.43 1.093 1.093 0 0 0-.61-.61 1.082 1.082 0 0 0-.43-.085h-2.128V19.41c0-.43-.086-.844-.25-1.238a3.184 3.184 0 0 0-.703-1.05 3.229 3.229 0 0 0-2.29-.95h-2.144v-3.543a2.7 2.7 0 0 0 1.035-1.008c.258-.43.383-.894.387-1.39V7.476c0-.368-.074-.723-.215-1.059-.14-.34-.34-.64-.602-.898a2.681 2.681 0 0 0-.898-.598c-.34-.14-.695-.211-1.062-.207h-5.868a2.766 2.766 0 0 0-2.547 1.703c-.14.34-.21.691-.21 1.059v2.753c.003.497.128.961.382 1.391a2.7 2.7 0 0 0 1.036 1.008v3.543h-2.141c-.43.004-.84.086-1.234.254a3.209 3.209 0 0 0-1.743 1.75 3.18 3.18 0 0 0-.246 1.234v2.223h-2.148a1.079 1.079 0 0 0-.43.082c-.14.058-.262.14-.367.246a1.124 1.124 0 0 0-.246.367 1.151 1.151 0 0 0-.082.43v.492a3.023 3.023 0 0 0-.68-.371 3.282 3.282 0 0 0-2.172-.078 3.336 3.336 0 0 0-.89.426c-.274.187-.516.41-.727.671a3.375 3.375 0 0 0-.496.852l-8.496 21.938-.492-.196a1.18 1.18 0 0 0-.418-.074 1.126 1.126 0 0 0-1.05.715l-.056.14a7.453 7.453 0 0 1-2.593-1.851 7.427 7.427 0 0 1-1.598-2.762 1.094 1.094 0 0 0-.399-.547 1.1 1.1 0 0 0-.644-.222h-.05c-.227.004-.434.07-.618.203-.188.129-.32.3-.402.511L5.352 61.004c-.067.172-.09.351-.07.535.019.184.081.352.187.504a1.112 1.112 0 0 0 .918.496c.191 0 .375-.05.543-.14a7.414 7.414 0 0 1 3.722-.997c.864 0 1.7.141 2.516.422-.398 1.047-.371 2.086.082 3.114.035.074.086.14.121.218H7.223a1.12 1.12 0 0 0-.453.063 1.115 1.115 0 0 0-.387.242 1.116 1.116 0 0 0-.262 1.266c.059.144.149.27.262.375a1.122 1.122 0 0 0 .84.305h53.953c.297-.02.55-.137.754-.352a1.1 1.1 0 0 0 .304-.774 1.1 1.1 0 0 0-.304-.773 1.089 1.089 0 0 0-.754-.352ZM49.203 12.992v3.18h-4.058v-3.18ZM43.73 10.23V7.477c0-.141.047-.262.145-.36a.487.487 0 0 1 .36-.152h5.867c.144 0 .261.05.363.148a.492.492 0 0 1 .148.364v2.753c0 .141-.047.262-.148.36a.49.49 0 0 1-.363.152h-5.868a.52.52 0 0 1-.359-.152.495.495 0 0 1-.145-.36Zm-3.964 11.403V19.41c0-.273.097-.504.289-.695a.94.94 0 0 1 .699-.29h12.844a.964.964 0 0 1 .699.29.976.976 0 0 1 .285.695v2.223Zm-29.13 37.512c-.769 0-1.53.093-2.277.277l1.332-3.442h.344c.45 0 .887.063 1.317.188.175.047.351.105.52.176a1.097 1.097 0 0 0 1.137-.172c.206-.172.339-.39.39-.652.05-.266.011-.516-.118-.754a1.075 1.075 0 0 0-.57-.504 7.037 7.037 0 0 0-2.149-.524l3.079-7.93a9.569 9.569 0 0 0 4.347 3.56l-4.011 10.359a9.95 9.95 0 0 0-3.34-.582Zm10.06 6.015a5.19 5.19 0 0 0 .187-.394l13.375-34.504V61.66a5.567 5.567 0 0 0 1.176 3.5ZM20.535 49l.487.188c.137.054.278.078.422.078.23 0 .446-.067.637-.2.191-.129.328-.3.414-.52l8.899-22.964c.078-.207.21-.367.39-.492a1.072 1.072 0 0 1 .98-.113 1.058 1.058 0 0 1 .602 1.37L18.793 63.954a1.81 1.81 0 0 1-.293.504c-.379.465-.867.7-1.469.703a1.912 1.912 0 0 1-1.3-.523 1.921 1.921 0 0 1-.583-1.32 1.85 1.85 0 0 1 .125-.727Zm15.972-13.027c2.234 1.316 3.77 4.449 3.77 7.965 0 3.511-1.548 6.652-3.77 7.964Zm6.039 7.965c0-4.915-2.516-9.126-6.04-10.442v-3.691h10.798v27.383H36.508v-2.81c3.535-1.312 6.05-5.53 6.05-10.44Zm7.008 14.374V28.684c0-.153-.028-.297-.086-.434a1.093 1.093 0 0 0-.61-.61 1.101 1.101 0 0 0-.433-.085H36.508v-3.672H57.84v37.793c0 .46-.09.906-.266 1.332a3.502 3.502 0 0 1-1.883 1.887c-.43.175-.87.265-1.332.265H39.99a3.479 3.479 0 0 1-3.216-2.152 3.464 3.464 0 0 1-.265-1.332v-2.239h11.918c.152 0 .293-.027.433-.085a1.15 1.15 0 0 0 .61-.605c.058-.142.086-.282.086-.434Zm0 0"/></g><path d="m27.91 4.273 1.938.7c.12.047.25.066.382.066.274.004.516-.082.727-.258a1.09 1.09 0 0 0 .39-.672c.048-.27 0-.523-.14-.761a1.066 1.066 0 0 0-.598-.493l-1.933-.68a1.168 1.168 0 0 0-.367-.081 1.11 1.11 0 0 0-.73.254 1.11 1.11 0 0 0-.392.668c-.046.27-.003.523.133.761.137.239.332.403.59.496ZM33.723 6.367l1.68.613a1.097 1.097 0 0 0 1.098-.2c.206-.175.331-.397.378-.667.047-.265.004-.52-.133-.754a1.085 1.085 0 0 0-.582-.496l-1.676-.61a1.164 1.164 0 0 0-.383-.07c-.273 0-.52.087-.73.262-.21.176-.34.399-.387.668a1.114 1.114 0 0 0 .735 1.254ZM30.207 9.535h-1.898a1.064 1.064 0 0 0-.75.352 1.08 1.08 0 0 0-.309.773c0 .297.102.555.309.774.203.214.453.332.75.351h1.894c.156.008.305-.012.453-.066a1.12 1.12 0 0 0 .742-1.059c0-.156-.03-.305-.09-.45a1.13 1.13 0 0 0-.652-.613 1.12 1.12 0 0 0-.453-.062ZM33.996 11.785h1.805c.297-.02.547-.137.75-.351.203-.22.308-.477.308-.774 0-.3-.105-.555-.308-.773a1.064 1.064 0 0 0-.75-.352h-1.805a1.064 1.064 0 0 0-.75.352 1.08 1.08 0 0 0-.309.773c0 .297.102.555.31.774.202.214.452.332.75.351Zm0 0"/></svg>