<svg xmlns="http://www.w3.org/2000/svg" width="90" viewBox="0 0 67.5 67.5" height="90" version="1.0"><defs><clipPath id="id1"><path d="M39 20h23.25v37H39Zm0 0"/></clipPath><clipPath id="id2"><path d="M6.75 0H59v67.004H6.75Zm0 0"/></clipPath></defs><path fill="#231f20" d="M33.41 28.414c.074.008.149.008.227 0l1.793-.352c.285-.062.511-.21.683-.445a1.09 1.09 0 0 0 .215-.785 1.097 1.097 0 0 0-.363-.727 1.117 1.117 0 0 0-.762-.296.86.86 0 0 0-.223.02l-1.792.355c-.29.058-.52.203-.696.437a1.1 1.1 0 0 0-.222.79c.03.288.152.534.37.73.22.195.473.293.77.293ZM26.434 27.52a1.06 1.06 0 0 0-.223 0l-1.793.355a1.103 1.103 0 0 0-.688.441 1.108 1.108 0 0 0-.214.786c.027.285.148.53.363.726.215.195.469.297.758.3.078.009.152.009.226 0l1.797-.355a1.11 1.11 0 0 0 .684-.441c.172-.234.242-.496.215-.785a1.093 1.093 0 0 0-.368-.727 1.1 1.1 0 0 0-.757-.3ZM36.79 34.05l-1.157 1.419a1.12 1.12 0 0 0-.113 1.258c.07.132.167.246.285.343a1.15 1.15 0 0 0 .84.242c.152-.015.292-.058.425-.128.133-.075.25-.168.344-.286l1.156-1.414a1.12 1.12 0 0 0 .113-1.258 1.147 1.147 0 0 0-.285-.343 1.15 1.15 0 0 0-.836-.242 1.148 1.148 0 0 0-.769.41ZM36.508 29.066l-1.57.942a1.11 1.11 0 0 0-.485.55 1.104 1.104 0 0 0-.043.735c.07.25.207.453.418.605.207.157.442.23.703.227.211 0 .41-.055.594-.16l1.563-.945c.128-.079.238-.18.328-.301a1.107 1.107 0 0 0 .21-.844 1.128 1.128 0 0 0-.152-.414 1.095 1.095 0 0 0-.3-.328 1.086 1.086 0 0 0-.403-.188 1.136 1.136 0 0 0-.445-.023c-.149.023-.29.074-.418.152Zm0 0"/><g clip-path="url('#id1')"><path fill="#231f20" d="m61.883 34.117-4.535-7.472a1.148 1.148 0 0 0-.707-.516 1.14 1.14 0 0 0-.868.133l-1.18.707-.745-1.235a2.712 2.712 0 0 0-.735-.8 2.763 2.763 0 0 0-.988-.461 2.826 2.826 0 0 0-2.113.324l-1.188.715-2.836-4.664a1.075 1.075 0 0 0-.687-.532 1.133 1.133 0 0 0-.867.129l-4.184 2.516a1.108 1.108 0 0 0-.547.71c-.035.15-.043.302-.02.454.028.156.083.297.165.426l2.836 4.664-1.196.715a2.766 2.766 0 0 0-.804.73 2.732 2.732 0 0 0-.512 2.067c.058.363.183.703.375 1.015l.75 1.235-1.18.707c-.129.078-.238.18-.328.3a1.12 1.12 0 0 0-.059 1.262L50.836 55.54c.223.367.55.55.984.55.446 0 .778-.19.996-.577.215-.387.211-.766-.02-1.145L42.29 37.012l1.18-.703 11.324-6.782 1.187-.738 3.946 6.5a1.148 1.148 0 0 0 .707.516 1.136 1.136 0 0 0 .863-.133 1.135 1.135 0 0 0 .54-1.145 1.128 1.128 0 0 0-.153-.414ZM42.465 32.18a.46.46 0 0 1 .222-.301l8.524-5.117a.475.475 0 0 1 .25-.07.627.627 0 0 1 .121 0c.133.03.234.109.305.226l.75 1.227-9.38 5.62-.75-1.23a.453.453 0 0 1-.042-.355Zm2.187-4.14-2.246-3.712 2.227-1.336 2.246 3.68Zm0 0"/></g><path fill="#231f20" d="M28.422 36.383c.215.004.41-.055.594-.164l1.566-.942c.227-.129.39-.312.488-.554a1.134 1.134 0 0 0-1.078-1.563c-.215 0-.41.055-.594.164l-1.566.95c-.227.128-.39.312-.488.554a1.093 1.093 0 0 0-.043.73 1.129 1.129 0 0 0 1.12.833ZM31.488 42.348c.207.172.45.257.719.254.363 0 .66-.141.89-.422l1.157-1.414a1.177 1.177 0 0 0 .281-.852 1.161 1.161 0 0 0-.422-.789 1.072 1.072 0 0 0-.41-.207 1.162 1.162 0 0 0-.89.11 1.15 1.15 0 0 0-.34.304l-1.149 1.434a1.052 1.052 0 0 0-.203.386c-.043.145-.058.29-.043.438a1.105 1.105 0 0 0 .41.758Zm0 0"/><g clip-path="url('#id2')"><path fill="#231f20" d="M57.234 65.168h-2.043c0-.047.051-.086.067-.129a3.24 3.24 0 0 0 .02-2.297 3.186 3.186 0 0 0-.587-1.008 3.328 3.328 0 0 0-.906-.742c-.851-.476-2.437-.976-4.129-1.512-1.152-.359-2.34-.734-3.125-1.054a8.122 8.122 0 0 1-4.449-4.395 187.666 187.666 0 0 1-3.895-10.12 1.144 1.144 0 0 0-.23-.388 1.143 1.143 0 0 0-1.238-.32 1.134 1.134 0 0 0-.657.586 1.115 1.115 0 0 0-.113.43c-.008.152.012.3.063.445a175.077 175.077 0 0 0 3.949 10.254 10.211 10.211 0 0 0 2.273 3.375 10.35 10.35 0 0 0 3.41 2.242c.391.16.852.332 1.376.504a9.98 9.98 0 0 0-1.563 4.031c-6.355-.226-11.05-.847-12.414-1.625-1.07-.629-2.133-2.23-3.145-3.78-1.418-2.145-2.878-4.368-4.988-5.278l-.293-.114a14.219 14.219 0 0 0 1.168-5.566 14.29 14.29 0 0 0-.644-4.187 14.365 14.365 0 0 0-1.836-3.825c-.399-.59-.84-1.148-1.32-1.672a14.78 14.78 0 0 0-1.547-1.46 15.09 15.09 0 0 0-1.75-1.223c-.614-.363-1.25-.68-1.907-.953.25-.461.485-.922.684-1.38.851-1.94 1.34-8.109 1.625-21.062h14.988a71.795 71.795 0 0 0-.426 7.88l.032 1.542c.023.301.144.551.37.754.227.203.489.3.794.297.304-.008.562-.117.78-.328.216-.211.333-.469.34-.77l-.027-1.543c0-2.96.176-5.91.524-8.847.082-.746.168-1.524.265-2.332v-.106c.094-.781.196-1.601.305-2.445l.028-.195c.109-.825.226-1.672.347-2.54l.04-.273c.128-.89.26-1.8.402-2.742a1.097 1.097 0 0 0-.247-.926 1.11 1.11 0 0 0-.851-.394h-18.64c-.153 0-.298.027-.434.085-.14.055-.266.137-.371.243-.106.105-.192.23-.25.367a1.155 1.155 0 0 0-.086.43c-.043 3.625-.09 7.242-.164 10.687-.184 9.02-.57 19.238-1.465 21.297a21.31 21.31 0 0 1-1.305 2.426 86.283 86.283 0 0 1-1.187 1.863c-1.79 2.8-3.649 5.668-3.688 8.676-.008.437.024.87.098 1.297a5.893 5.893 0 0 0 1.656 3.136v14.684H8.18a1.085 1.085 0 0 0-.461.066 1.11 1.11 0 0 0-.66.617 1.075 1.075 0 0 0-.098.454c0 .156.031.308.098.453a1.11 1.11 0 0 0 .66.617c.148.055.3.078.46.066h49.055c.301-.015.555-.136.762-.355.211-.219.313-.48.313-.781 0-.301-.102-.563-.313-.782a1.095 1.095 0 0 0-.762-.355Zm-7.48 0h-.191c-.606 0-1.2 0-1.786-.027a8.3 8.3 0 0 1 1.528-3.368 22.76 22.76 0 0 1 3.332 1.207.991.991 0 0 1 .476.516c.098.227.11.461.035.695a.826.826 0 0 1-.14.223c-.43.477-1.586.754-3.254.754Zm-18.215 0h-9.543l1.469-8.898.55.214c1.481.641 2.75 2.567 3.981 4.434 1.121 1.695 2.188 3.3 3.543 4.25Zm-15.934-27.8a12.2 12.2 0 0 1 4.149 2.597c.594.57 1.125 1.191 1.594 1.867.468.676.863 1.39 1.183 2.148.324.754.567 1.536.727 2.34.164.805.242 1.617.238 2.438a12.022 12.022 0 0 1-1.012 4.77l-.636-.204c-2.895-.914-6.887-2.183-8.95-4.113a3.902 3.902 0 0 1-1.347-2.234 4.968 4.968 0 0 1-.067-.993c.063-2.363 1.711-4.906 3.309-7.355.262-.399.52-.8.777-1.203Zm4.067 27.8h-6.465v-12.89c2.379 1.449 5.414 2.413 7.945 3.214l.114.04ZM15.25 37.199l-.023.031ZM34.582 8.41c-.098.777-.187 1.535-.27 2.262H19.142v-.645c.02-1.047.039-2.117.054-3.265V6.3c.024-1.293.04-2.64.055-4.051h16.16l-.387 2.762-.101.75c-.09.66-.176 1.308-.25 1.933-.031.239-.067.48-.09.715Zm0 0"/></g></svg>