<svg xmlns="http://www.w3.org/2000/svg" width="90" viewBox="0 0 67.5 67.5" height="90" version="1.0"><defs><clipPath id="id1"><path d="M0 4.297h51V47H0Zm0 0"/></clipPath><clipPath id="id2"><path d="M0 23h67.004v37.547H0Zm0 0"/></clipPath></defs><g clip-path="url('#id1')"><path fill="#5c5c5c" d="M4.066 46.32a3.561 3.561 0 0 0 2.625-1.078l20.051-19.98.625.617a1.092 1.092 0 0 0 .773.32c.15 0 .286-.027.422-.082.133-.055.254-.133.356-.238l.3-.3A9.097 9.097 0 0 1 31.376 29a9.111 9.111 0 0 1 .473 4.016 1.068 1.068 0 0 0 .277.84 1.081 1.081 0 0 0 .816.355c.305 0 .563-.106.778-.32l16.68-16.61c.156-.156.257-.343.3-.562.043-.219.024-.43-.062-.633a1.055 1.055 0 0 0-.407-.488 1.068 1.068 0 0 0-.613-.184h-.097c-.325.031-.641.047-.946.047a9.22 9.22 0 0 1-3.535-.688 9.187 9.187 0 0 1-3-1.98l.133-.133c.207-.219.39-.457.555-.71a4.82 4.82 0 0 0 .406-.802 4.762 4.762 0 0 0 .316-1.761 4.578 4.578 0 0 0-.367-1.754 4.676 4.676 0 0 0-.43-.79 4.642 4.642 0 0 0-2.059-1.7 4.67 4.67 0 0 0-.859-.268 4.622 4.622 0 0 0-2.664.207c-.28.106-.55.242-.808.398a4.84 4.84 0 0 0-.715.551L1.445 40.011a3.64 3.64 0 0 0-.648.872 3.662 3.662 0 0 0-.422 2.105c.04.364.125.711.266 1.051.14.336.328.648.558.93.235.281.504.527.809.73a3.778 3.778 0 0 0 2.058.621Zm-1.07-4.761L37.121 7.574c.234-.23.504-.414.813-.539a2.506 2.506 0 0 1 1.914 0 2.482 2.482 0 0 1 1.355 1.352c.129.304.192.62.192.953 0 .332-.063.648-.192.957a2.457 2.457 0 0 1-.543.808L28.133 23.562l-.625-.62a1.092 1.092 0 0 0-.773-.32 1.097 1.097 0 0 0-.778.32L5.125 43.698a1.493 1.493 0 0 1-1.898.188 1.476 1.476 0 0 1-.559-.676 1.48 1.48 0 0 1-.086-.871c.063-.3.2-.559.414-.774Zm40.438-20.461a5.848 5.848 0 0 1-2.45-1.54 1.056 1.056 0 0 0-.789-.331 1.031 1.031 0 0 0-.761.308 1.031 1.031 0 0 0-.243.352 1.105 1.105 0 0 0-.016.836c.055.132.13.254.231.359a8.254 8.254 0 0 0 2.364 1.691l-7.786 7.735a11.33 11.33 0 0 0-1.082-3.496 11.31 11.31 0 0 0-2.132-2.977l9.738-9.703a11.398 11.398 0 0 0 3.004 2.137 11.38 11.38 0 0 0 3.531 1.07Zm0 0"/></g><g clip-path="url('#id2')"><path fill="#5c5c5c" d="M66.406 58.34H63.16a4.937 4.937 0 0 0 .906-2.88V51.56a11.26 11.26 0 0 0 2.23-7.098v-.152c0-.29-.03-.586-.062-.887-.03-.3-.078-.66-.136-1v-.031a16.747 16.747 0 0 0-2.887-6.559c-1.918-2.773-2.34-6.215-1.25-10.227a1.035 1.035 0 0 0-.215-.988 1.044 1.044 0 0 0-.816-.406h-.121c-.028 0-1.344.105-3.38.105a53.983 53.983 0 0 1-8.288-.613h-.176a1.05 1.05 0 0 0-.735.297c-.207.191-.32.43-.343.71a1.06 1.06 0 0 0 .226.759c.176.222.403.36.68.406 1.633.258 3.23.406 4.7.516 1.464.113 2.796.129 3.925.129H59.5c-.816 4.07-.16 7.605 1.902 10.582.106.148.188.3.29.453-.926.074-1.84.21-2.747.41-.906.203-1.797.465-2.664.789-.87.328-1.715.71-2.531 1.152-.816.442-1.598.938-2.344 1.489a19.345 19.345 0 0 0-2.117 1.796 19.334 19.334 0 0 0-1.844 2.07c-.566.735-1.082 1.5-1.539 2.305-.46.805-.863 1.637-1.207 2.5h-.105c-2.688 0-9.664.63-16.797 6.426a8.076 8.076 0 0 1-4.129 1.805c.023-3.602-.867-6.961-2.672-10.086l5.094-2.035c3.676-1.438 6.726-3.707 9.152-6.813a6.333 6.333 0 0 0 3.34.856c.875 0 1.73-.125 2.57-.38.137-.042.262-.112.371-.206a1.072 1.072 0 0 0 .379-.746 1.056 1.056 0 0 0-.05-.426 1.1 1.1 0 0 0-.547-.633 1.007 1.007 0 0 0-.41-.113 1.048 1.048 0 0 0-.426.05c-.492.141-.996.227-1.512.255h-.375c-1.062.054-1.992-.27-2.785-.977a.32.32 0 0 0-.078-.047c-.024-.023-.035-.055-.067-.07a.625.625 0 0 0-.117-.051.959.959 0 0 0-.406-.125h-.203c-.067.012-.137.023-.203.043a.821.821 0 0 0-.192.078.79.79 0 0 0-.18.117c-.035.028-.074.04-.105.07a.997.997 0 0 0-.055.083c0 .027-.046.039-.066.062a19.454 19.454 0 0 1-3.914 4.113 19.558 19.558 0 0 1-4.938 2.829l-6.308 2.492L8.594 50.73c-.36.145-.696.32-1.016.532a5.607 5.607 0 0 0-1.602 1.617c-.206.32-.378.66-.515 1.02-.14.355-.238.722-.3 1.101a5.575 5.575 0 0 0 .507 3.34H1.457a1.132 1.132 0 0 0-.441.062c-.141.051-.27.13-.38.235-.109.101-.195.222-.253.36-.063.14-.09.284-.09.437a1.111 1.111 0 0 0 .344.797 1.11 1.11 0 0 0 .82.292h64.945c.29-.015.535-.128.735-.34.199-.21.297-.46.297-.75 0-.288-.098-.538-.297-.75a1.06 1.06 0 0 0-.735-.343ZM62.88 39.664c2.582 5.5.383 9.297-.438 10.422H47.043c.344-.758.738-1.488 1.187-2.191.45-.704.946-1.372 1.485-2.004a17.898 17.898 0 0 1 1.754-1.774 17.731 17.731 0 0 1 4.16-2.738 17.747 17.747 0 0 1 4.762-1.484c.82-.133 1.652-.211 2.488-.23ZM46.73 52.281h15.141v3.2a2.871 2.871 0 0 1-1.781 2.66 2.905 2.905 0 0 1-1.106.218h-9.37a2.879 2.879 0 0 1-2.883-2.879Zm-2.19-.035v3.258a4.862 4.862 0 0 0 .905 2.875H28.95c.078-.063.164-.117.242-.184 6.528-5.355 12.957-5.949 15.348-5.968ZM8.331 58.352a3.422 3.422 0 0 1-.539-.649 3.236 3.236 0 0 1-.36-.762c-.09-.27-.14-.546-.16-.828a3.366 3.366 0 0 1 1.387-2.93c.23-.163.477-.3.742-.402l9.528-3.77c1.726 2.876 2.57 5.989 2.543 9.34Zm0 0"/></g></svg>