<svg width="265" height="26" fill="none" xmlns="http://www.w3.org/2000/svg"><path fill-rule="evenodd" clip-rule="evenodd" d="M.059 1.082h8.625c6.027 0 11.093 5.337 11.093 12.05 0 6.574-5.067 11.91-11.093 12.05H.06v-24.1Zm3.697 2.874v18.35h3.97c5.479-.139 8.216-4.518 8.216-9.041 0-4.657-2.738-8.49-7.258-9.176l-4.928-.133ZM34.294.53c7.396 0 13.281 5.615 13.281 12.6 0 6.98-5.887 12.597-13.281 12.597-7.258 0-13.282-5.615-13.282-12.596C21.01 6.146 27.035.53 34.294.53Zm0 3.014c5.341 0 9.722 4.245 9.722 9.588 0 5.203-4.38 9.448-9.722 9.448-5.203 0-9.587-4.245-9.587-9.448 0-5.343 4.383-9.588 9.587-9.588Zm14.378-2.462h3.56v21.226h6.846v2.874H48.672v-24.1Zm21.91-.685c2.738 0 5.341.818 7.53 2.19V6.97a9.687 9.687 0 0 0-7.53-3.566c-5.342 0-9.587 4.384-9.587 9.727 0 5.203 4.245 9.582 9.587 9.582a9.682 9.682 0 0 0 7.53-3.56v4.519c-2.19 1.37-4.793 2.196-7.53 2.196-7.258 0-13.282-5.756-13.282-12.736C57.3 6.146 63.325.397 70.582.397Zm12.324 21.91h8.628v2.873H79.208V1.082h12.326v2.735h-8.628v7.12h8.628v2.88h-8.628v8.49Zm22.185 1.232c-.411.412-.823.685-1.371.957-.411.273-.958.413-1.507.545-.136 0-.273 0-.409.14h-.411c-.412 0-.686-.14-1.097-.14-.411-.133-.686-.273-1.097-.545-.273-.273-.546-.685-.82-1.098-.137-.406-.274-.818-.41-1.23v-.685h.136v-.272c.135-.685.411-1.23.958-1.783.546-.406 1.094-.819 1.643-1.231a189.21 189.21 0 0 1-.823-1.23c-.274-.274-.41-.82-.41-1.232v-.552c.136 0 .136-.132.136-.132.138-.545.412-.958.823-1.371.547-.273.958-.412 1.506-.412H102.349c.546 0 1.232.279 1.781.685.41.412.683.958.683 1.784 0 .685-.135 1.23-.548 1.643-.548.545-.957.957-1.505 1.23l2.602 3.148c.136-.274.411-.546.685-.958.274-.273.41-.545.686-.818l.821.818c-.137.273-.411.552-.548.825-.136.273-.411.545-.685.818l-.137.14s0 .132-.137.132l1.917 2.196h-1.643l-1.23-1.372Zm-3.151.412c.411 0 .822-.14 1.232-.412.275-.274.685-.546.96-.825h.136l.138-.133-3.012-3.427c0 .14 0 .14-.138.14l-.137.132c-.274.14-.411.28-.683.413-.277.273-.411.412-.549.685-.135 0-.135.14-.135.274-.138.139-.138.273-.138.412-.137.139-.137.273-.137.273v.412c0 .546.137.958.549 1.505.547.412.958.551 1.642.551h.272Zm-1.095-8.49v.272c0 .273 0 .545.138.818.136.274.411.552.546.686.137.139.137.139.275.273l.136.14h.137s.136 0 .136-.14c.275-.133.549-.273.824-.545.273-.273.411-.545.546-.958v-.272c0-.412-.136-.685-.411-.957-.274-.14-.546-.274-.821-.274h-.274c-.273 0-.548 0-.822.274a.74.74 0 0 0-.41.683ZM127.274.258c4.793 0 9.038 2.468 11.503 6.028l-3.149 1.643c-1.78-2.74-4.794-4.524-8.217-4.524-5.477 0-9.723 4.384-9.723 9.727 0 5.337 4.246 9.582 9.723 9.582 4.519 0 8.079-2.19 8.354-6.847h-7.805v-2.874h11.641v.14c0 7.53-4.111 12.867-12.326 12.867-8.217 0-13.421-5.749-13.421-12.868 0-7.126 6.025-12.874 13.42-12.874Zm10.27 24.924 9.998-24.1h2.328l9.995 24.1h-3.833l-2.739-6.847h-9.175l-2.738 6.847h-3.836Zm7.945-9.861 3.284-8.63 3.15 8.63h-6.434Zm49.433 9.86 9.86-24.099h2.326l9.997 24.1h-3.833l-2.737-6.847h-9.178l-2.739 6.847h-3.696Zm7.806-9.86 3.286-8.63 3.286 8.63h-6.572Zm39.847 9.86 9.998-24.099h2.329l9.998 24.1h-3.837l-2.874-6.847h-9.039l-2.737 6.847h-3.838Zm7.944-9.86 3.151-8.63 3.285 8.63h-6.436ZM168.493 3.816c2.465.274 3.285 1.231 3.285 3.7 0 2.329-1.643 3.56-3.698 3.56h-3.149v-7.26h3.562Zm.274 10.134h.135c1.782 0 4.931.412 4.931 4.384 0 3.147-2.737 3.972-5.34 3.972h.545-4.109v-8.358h3.838v.002Zm-4.655 11.23h6.162c4.245 0 7.396-2.873 7.396-6.846 0-3.154-1.921-5.476-4.658-6.435 1.507-.964 2.329-2.741 2.329-4.93 0-3.566-2.329-5.889-6.026-5.889-1.919-.139-3.972 0-5.888 0h-2.191v24.1h2.876Zm22.73-21.364c2.328.274 3.15 1.231 3.286 3.7 0 2.329-1.643 3.56-3.698 3.56h-3.149v-7.26h3.561Zm.139 10.134h.136c1.78 0 4.927.412 4.927 4.384 0 3.147-2.738 3.972-5.339 3.972h.684-4.108v-8.358h3.7v.002Zm-4.658 11.23h6.301c4.245 0 7.255-2.873 7.255-6.846 0-3.154-1.916-5.476-4.653-6.435 1.643-.964 2.461-2.741 2.461-4.93 0-3.566-2.461-5.889-6.025-5.889-2.052-.139-3.969 0-6.026 0H179.448v24.1h2.875Zm36.426-24.099h2.329l16.843 17.8v-17.8h3.287v24.1h-2.466l-16.57-17.666v17.666h-3.423v-24.1Z" fill="#0A0A0A"/></svg>