<svg width="75" height="26" fill="none" xmlns="http://www.w3.org/2000/svg"><path d="M0 24.635h2.597V1.498H0V0h19.675v7.857h-1.099a3.87 3.87 0 0 0-.133-.6l-.1-.532c-.2-.932-.965-2.297-1.964-3.396-.999-1.099-2.297-1.864-3.429-1.864H8.955v10.287h1.265c1.066 0 1.731-.633 2.23-1.498.5-.9.766-2.031.8-3.097h1.398V18.41H13.15c-.1-1.698-.333-2.93-.8-3.729-.432-.799-1.098-1.198-2.096-1.198H8.955v11.152h2.863v1.332H0v-1.332ZM62.72.1v1.398h3.03v23.137h-2.864v1.331h11.552v-1.331l-2.463.033V1.498h2.463V.066L62.72.1ZM26.3.1c-2.264 6.292-5.826 16.113-8.523 23.603-.133.4-.3.966-.899.966h-1.664V26h7.49V24.67H20.54c-.499 0-.965-.2-.965-.6 0-.632 1.431-4.427 1.764-5.226h6.692c.5 1.331 1.032 2.93 2.03 5.826h-2.763V26h11.253V24.67h-1.898C33.324 15.048 29.296 3.562 28.131.133H26.3V.1ZM24.802 8.99l2.796 8.389h-5.826l3.03-8.39ZM40.248.1v1.332h2.264v23.237h-2.364v1.298h14.648c.233 0 7.091-.033 7.091-6.958 0-5.925-7.19-6.425-7.224-6.425.067-.066 6.06-1.465 6.06-6.292 0-4.494-4.595-6.159-6.593-6.159H40.248V.1Zm8.623 1.398h3.462c1.165 0 2.197 1.032 2.197 2.264l-.033 4.927c0 1.864-1.166 3.096-2.763 3.096h-2.897V1.498h.034Zm0 11.719h2.33c1.498 0 3.995.799 3.995 3.395v5.793c0 1.564-.999 2.264-1.898 2.264h-4.427V13.217Z" fill="#1D1D1B"/></svg>