<svg width="96" height="26" fill="none" xmlns="http://www.w3.org/2000/svg"><path d="M.002.01c5.685 0 11.37.005 17.055-.003.006 1.543.012 3.085-.002 4.629-4.015-.002-8.031-.004-12.048 0 .003 1.937-.002 3.874.003 5.81 3.516-.008 7.032-.001 10.547-.003.02 1.538-.004 3.075.012 4.613-3.52-.004-7.038.003-10.557-.004-.008 3.647-.005 7.294-.002 10.942a232.844 232.844 0 0 0-5-.002C-.01 17.332.006 8.67.001.01ZM20.374 25.994c-.006-8.664-.007-17.328.001-25.993 5.875.019 11.752.01 17.628.005.001 1.544-.006 3.088.004 4.63-4.243 0-8.486-.008-12.729.005.014 1.811.001 3.624.006 5.436 3.897-.01 7.792-.004 11.688-.004-.015 1.537.002 3.074-.011 4.61-3.891.004-7.784.006-11.676-.002-.01 2.223.01 4.447-.01 6.669 4.435.015 8.87.002 13.305.006.011 1.542.011 3.085 0 4.628-6.068.005-12.138-.016-18.206.01ZM42.343.001c1.766.014 3.532.018 5.298 0 3.186 6.038 6.37 12.075 9.562 18.109.011-6.033.01-12.065 0-18.096 1.557-.009 3.114.002 4.67-.006.008 8.66.007 17.32.002 25.981-1.666-.012-3.331-.005-4.996-.005a7695.43 7695.43 0 0 0-9.827-18.536c0 6.181.002 12.362-.002 18.544-1.569-.014-3.139-.02-4.71.003.012-8.664.007-17.33.003-25.994ZM66.655.006c3.637.011 7.274 0 10.911.007 1.995.032 4.037.6 5.575 1.928 1.61 1.273 2.55 3.193 3.139 5.13.496 1.762.677 3.6.708 5.43-.072 2.824-.467 5.716-1.76 8.258-.81 1.76-2.158 3.28-3.849 4.216-1.238.68-2.653.966-4.052 1.003-3.554.017-7.11-.014-10.663.016-.025-8.663-.008-17.326-.009-25.988m4.957 4.529c-.014 5.64-.008 11.28-.004 16.92 1.581-.008 3.161 0 4.743-.004.647-.017 1.307-.099 1.904-.363 1.156-.481 1.976-1.524 2.52-2.626.919-2.008 1.12-4.271 1.06-6.456-.056-2.094-.371-4.336-1.74-6-.823-1.028-2.185-1.37-3.435-1.453-1.683-.03-3.365.006-5.048-.018ZM90.333 26a6828.29 6828.29 0 0 1 0-26c1.663.025 3.33.006 4.994.007.007 8.658.01 17.318-.002 25.977-1.664.007-3.329-.025-4.992.016Z" fill="#231F20"/></svg>