<svg width="120" height="26" fill="none" xmlns="http://www.w3.org/2000/svg"><path d="m108.343 7.599-.223.074c-.869-1.888-2.111-3.39-3.726-4.508-1.589-1.117-3.588-1.675-5.996-1.675-1.341 0-2.62.285-3.837.856a9.53 9.53 0 0 0-3.204 2.347c-.894.993-1.614 2.198-2.16 3.614-.546 1.414-.82 2.979-.82 4.692 0 1.714.274 3.278.82 4.693.547 1.416 1.267 2.633 2.16 3.651a9.787 9.787 0 0 0 3.203 2.31 9.27 9.27 0 0 0 3.838.82c2.383 0 4.32-.373 5.81-1.118 1.515-.77 2.794-1.938 3.837-3.502l.223.074-.074 2.384a10.498 10.498 0 0 1-1.974 1.602c-.745.447-1.552.832-2.421 1.156-.844.297-1.726.52-2.644.67-.92.173-1.839.26-2.757.26-1.912 0-3.738-.31-5.476-.93-1.738-.622-3.266-1.491-4.582-2.608a12.691 12.691 0 0 1-3.129-4.098c-.77-1.614-1.154-3.402-1.154-5.364 0-1.961.385-3.737 1.155-5.327a12.556 12.556 0 0 1 3.128-4.134c1.316-1.142 2.844-2.012 4.582-2.608C94.66.31 96.485 0 98.397 0c.92 0 1.838.074 2.758.222.918.15 1.8.386 2.644.708.869.299 1.676.684 2.421 1.156a9.427 9.427 0 0 1 1.974 1.564l.149 3.949ZM26.26 14.713a3.704 3.704 0 0 0-.781.484c-.248.199-.372.472-.372.82v4.582a12.25 12.25 0 0 1-4.583 3.986C18.662 25.528 16.6 26 14.34 26a16.16 16.16 0 0 1-5.476-.931c-1.738-.621-3.265-1.49-4.581-2.608a12.696 12.696 0 0 1-3.13-4.097C.385 16.75 0 14.961 0 13c0-1.96.385-3.736 1.156-5.326a12.566 12.566 0 0 1 3.128-4.135C5.6 2.396 7.127 1.527 8.864.931A16.16 16.16 0 0 1 14.342 0c.919 0 1.837.074 2.756.223.92.15 1.8.385 2.644.708.87.298 1.677.683 2.422 1.155a9.477 9.477 0 0 1 1.974 1.564l.15 3.949-.224.074c-.868-1.887-2.11-3.39-3.724-4.507-1.59-1.118-3.59-1.676-5.998-1.676-1.34 0-2.62.285-3.837.856a9.55 9.55 0 0 0-3.202 2.347c-.895.994-1.615 2.198-2.162 3.614-.546 1.415-.82 2.98-.82 4.692 0 1.689.262 3.24.784 4.656.546 1.416 1.266 2.633 2.16 3.651.919.993 1.987 1.775 3.203 2.347a9.351 9.351 0 0 0 3.874.82c2.583 0 4.793-.497 6.63-1.49v-6.966a.96.96 0 0 0-.41-.82 4.26 4.26 0 0 0-.744-.485l.034-.186c.124.023.348.048.67.075.324.023.66.047 1.006.074h3.204c.298-.023.584-.048.857-.074a7.26 7.26 0 0 0 .632-.075l.04.187ZM53.24.781a4.187 4.187 0 0 0-.744.485c-.248.199-.385.571-.41 1.117-.023.597-.048 1.354-.074 2.272 0 .895-.011 1.913-.034 3.056 0 1.142-.011 2.383-.034 3.724v4.172c-.023 1.614-.222 2.992-.596 4.135-.373 1.142-.869 2.098-1.49 2.867-.596.77-1.266 1.38-2.011 1.826-.72.447-1.44.782-2.16 1.006a7.756 7.756 0 0 1-1.975.447 13.01 13.01 0 0 1-1.453.112 14.99 14.99 0 0 1-4.098-.558c-1.316-.348-2.47-.92-3.464-1.714-.993-.795-1.787-1.826-2.383-3.092-.596-1.267-.895-2.806-.895-4.62V7.934c0-1.191-.011-2.259-.034-3.202 0-.969-.011-1.751-.034-2.348-.022-.546-.159-.918-.41-1.116a4.231 4.231 0 0 0-.744-.486l.034-.186c.124.023.323.048.597.075.298.022.595.047.893.074.323 0 .633.011.93.034h1.342c.298-.023.609-.034.931-.034A33.2 33.2 0 0 0 35.82.67c.297-.023.508-.048.632-.075l.035.186a3.705 3.705 0 0 0-.783.485c-.223.199-.347.571-.372 1.117-.023.597-.048 1.379-.075 2.347v11.287c0 2.706.634 4.706 1.9 5.997 1.267 1.291 3.142 1.937 5.625 1.937.72 0 1.54-.087 2.458-.261a6.555 6.555 0 0 0 2.57-1.192c.82-.596 1.503-1.44 2.05-2.533.57-1.093.856-2.545.856-4.358 0-1.962-.011-3.638-.034-5.029 0-1.415-.012-2.62-.034-3.613a84.14 84.14 0 0 0-.035-2.607c-.022-.72-.047-1.378-.074-1.975-.022-.546-.159-.918-.41-1.117a4.26 4.26 0 0 0-.744-.485l.033-.186c.274.05.584.1.932.15.348.022.67.033.97.033.271 0 .582-.01.93-.033.372-.05.695-.1.968-.15l.024.186ZM80.27 7.599l-.224.074c-.87-1.888-2.111-3.39-3.725-4.508-1.59-1.117-3.588-1.675-5.997-1.675-1.34 0-2.62.285-3.836.856a9.529 9.529 0 0 0-3.204 2.347c-.894.993-1.614 2.198-2.16 3.614-.547 1.414-.82 2.979-.82 4.692 0 1.714.273 3.278.82 4.693.546 1.416 1.266 2.633 2.16 3.651a9.788 9.788 0 0 0 3.203 2.31 9.268 9.268 0 0 0 3.837.82c2.384 0 4.321-.373 5.81-1.118 1.516-.77 2.795-1.938 3.838-3.502l.223.074-.074 2.384c-.572.596-1.23 1.13-1.975 1.602-.744.447-1.55.832-2.42 1.156-.845.297-1.726.52-2.645.67-.919.173-1.838.26-2.756.26-1.913 0-3.739-.31-5.477-.93-1.738-.622-3.265-1.491-4.581-2.608a12.692 12.692 0 0 1-3.129-4.098c-.77-1.614-1.156-3.402-1.156-5.364 0-1.961.386-3.737 1.156-5.327a12.585 12.585 0 0 1 3.129-4.134C61.583 2.396 63.11 1.526 64.848.93 66.587.31 68.412 0 70.325 0c.918 0 1.837.074 2.755.222.92.15 1.801.386 2.645.708.87.299 1.677.684 2.421 1.156a9.434 9.434 0 0 1 1.975 1.564l.149 3.949ZM119.57 25.365a8.395 8.395 0 0 0-.632-.073c-.273 0-.571-.012-.894-.035-.324 0-.634-.01-.932-.033h-2.234c-.298.022-.596.047-.895.074a7.237 7.237 0 0 0-.632.074l-.035-.149c.249-.124.497-.285.745-.485.248-.198.385-.57.41-1.117.023-.596.034-1.217.034-1.863.023-.645.035-1.378.035-2.197V6.413c0-.82-.012-1.541-.035-2.162 0-.646-.011-1.266-.034-1.862-.023-.546-.159-.919-.409-1.117a3.38 3.38 0 0 0-.745-.522l.034-.149c.149.05.359.087.632.112.299 0 .597.011.894.034.324.023.634.034.932.034h1.303c.298-.023.608-.034.931-.034.323-.023.622-.048.895-.074.297-.023.508-.048.632-.075l.035.15a3.09 3.09 0 0 0-.783.521c-.223.198-.347.57-.372 1.116l-.074 1.864v17.507c.022.645.047 1.266.074 1.862.022.547.146.919.372 1.117.248.199.509.36.783.485l-.035.145Z" fill="#000"/></svg>