<svg width="156" height="26" fill="none" xmlns="http://www.w3.org/2000/svg"><path fill-rule="evenodd" clip-rule="evenodd" d="m72.203 22.124-.085-4.521c0-1.373-.938-2.827-2.216-3.634-.256-.081-.683-.243-1.023-.243.34 0 .767 0 1.193-.161 1.279-.565 2.813-2.099 2.813-4.763 0-2.02-.852-3.553-2.388-4.603-1.448-.969-3.068-1.212-4.773-1.212H52.597v3.23h2.983v15.907h-2.983v3.15h9.377v-3.15H58.99v-7.025h6.48c2.215.081 3.068 1.454 3.068 2.584l.254 7.59h6.394v-3.15h-2.983ZM66.15 12.032h-7.16V6.216h6.734c.767 0 1.62 0 2.302.243.853.404 1.62 1.291 1.62 2.664 0 1.696-1.62 2.907-3.496 2.907Zm38.447 10.092V6.217h3.153v-3.23h-8.524l-5.712 13.08-.085.647-.17-.646-5.627-13.08h-8.61v3.23h3.154v15.906h-3.154v3.15h9.633v-3.15h-2.983V6.54l.255.726 6.564 14.857h1.876l6.564-14.857.17-.807.085.888v14.776h-2.983v3.15h9.547v-3.15h-3.153m45.777-9.608c-2.388-.566-4.007-.485-6.479-1.211-2.132-.728-2.558-1.939-2.558-2.747 0-.887.937-3.067 4.348-3.067 3.409 0 5.712 2.18 5.796 4.037h3.326v-6.54h-3.24V4.44l.171.404v.08-.08c-.086 0-.171-.243-.512-.485v-.08c-.937-.808-2.899-1.777-5.797-1.777-3.494 0-7.587 2.1-7.587 6.055 0 3.877 2.899 5.168 5.456 5.815 2.472.645 3.751.645 5.883 1.21 2.045.485 3.409 1.697 3.409 3.473 0 1.615-1.109 3.794-5.541 3.794-4.348 0-6.137-2.26-6.65-5.41h-3.153v7.833h3.239V23.82l-.086-.405s.086.243.513.485v.081c1.618 1.211 3.835 2.019 6.563 2.019 3.155 0 8.525-1.534 8.525-6.863 0-3.876-2.131-5.652-5.626-6.622M117.809 0h6.905l1.705 1.938h-6.734L117.809 0M27.96 2.987h19.351v6.218h-3.324V6.217H34.61v5.33h8.013v3.148h-8.014v7.429h9.293v-4.279h3.41v7.428H27.96v-3.15h3.153V6.218H27.96v-3.23m84.223 0h19.266v6.218h-3.24V6.217h-9.377v5.33h8.014v3.148h-8.014v7.429h9.292v-4.279h3.41v7.428h-19.351v-3.15h3.154V6.218h-3.154v-3.23M0 2.987h9.376v3.23H6.478v5.41h10.57v-5.41h-2.983v-3.23h9.547v3.23h-3.068v15.907h3.068v3.15h-9.547v-3.15h2.983v-7.348H6.478v7.348h2.898v3.15H0v-3.15h2.983V6.217H0v-3.23" fill="#000"/></svg>