<svg xmlns="http://www.w3.org/2000/svg" width="240" height="240" fill="none"><path d="M142.969 120c0 12.686-10.283 22.969-22.969 22.969-12.686 0-22.969-10.283-22.969-22.969 0-12.686 10.283-22.969 22.969-22.969 12.686 0 22.969 10.283 22.969 22.969Z" fill="#1F1E1D"/><path d="M173.716 79.361a21.348 21.348 0 0 0-5.155-7.923 21.326 21.326 0 0 0-7.923-5.154c-2.428-.943-6.075-2.066-12.793-2.371-7.268-.332-9.447-.403-27.845-.403-18.4 0-20.58.07-27.845.4-6.718.308-10.367 1.43-12.793 2.374a21.32 21.32 0 0 0-7.923 5.154 21.363 21.363 0 0 0-5.157 7.923c-.943 2.428-2.065 6.078-2.37 12.796-.332 7.265-.404 9.444-.404 27.844 0 18.399.072 20.578.403 27.845.306 6.718 1.428 10.366 2.371 12.794a21.356 21.356 0 0 0 5.155 7.923 21.33 21.33 0 0 0 7.923 5.154c2.428.945 6.077 2.068 12.795 2.373 7.266.332 9.443.401 27.843.401 18.402 0 20.581-.069 27.845-.401 6.718-.305 10.367-1.428 12.795-2.373a22.818 22.818 0 0 0 13.078-13.077c.943-2.428 2.065-6.076 2.373-12.794.331-7.267.401-9.446.401-27.845 0-18.4-.07-20.579-.401-27.844-.306-6.718-1.428-10.368-2.373-12.796ZM120 155.383c-19.543 0-35.385-15.841-35.385-35.383 0-19.543 15.842-35.384 35.385-35.384 19.541 0 35.383 15.841 35.383 35.384 0 19.542-15.842 35.383-35.383 35.383Zm36.782-63.897a8.27 8.27 0 1 1 .001-16.539 8.27 8.27 0 0 1-.001 16.54Z" fill="#1F1E1D"/><path d="M120 0C53.736 0 0 53.736 0 120c0 66.264 53.736 120 120 120 66.264 0 120-53.736 120-120C240 53.736 186.264 0 120 0Zm68.491 148.409c-.334 7.335-1.5 12.343-3.203 16.726a35.236 35.236 0 0 1-20.153 20.153c-4.381 1.703-9.391 2.868-16.724 3.203-7.348.335-9.696.415-28.409.415-18.715 0-21.061-.08-28.41-.415-7.334-.335-12.344-1.5-16.726-3.203a33.748 33.748 0 0 1-12.206-7.949 33.766 33.766 0 0 1-7.946-12.204c-1.703-4.381-2.87-9.391-3.203-16.724-.339-7.35-.417-9.698-.417-28.411s.078-21.06.415-28.409c.334-7.335 1.498-12.343 3.201-16.726a33.757 33.757 0 0 1 7.95-12.204 33.753 33.753 0 0 1 12.205-7.95c4.383-1.702 9.391-2.867 16.726-3.202 7.348-.335 9.696-.415 28.409-.415s21.061.08 28.409.417c7.335.333 12.343 1.498 16.726 3.2a33.775 33.775 0 0 1 12.206 7.95 33.752 33.752 0 0 1 7.947 12.204c1.705 4.383 2.869 9.391 3.204 16.726.336 7.348.414 9.696.414 28.409s-.078 21.061-.415 28.409Z" fill="#1F1E1D"/></svg>