<svg xmlns="http://www.w3.org/2000/svg" width="90" viewBox="0 0 67.5 67.5" height="90" version="1.0"><defs><clipPath id="id1"><path d="M33 24h34.004v43.004H33Zm0 0"/></clipPath></defs><g clip-path="url('#id1')"><path fill="#5c5c5c" d="M65.25 55.125a3.376 3.376 0 0 1-3.375 3.375h-13.5A3.376 3.376 0 0 1 45 55.125V29.25A2.256 2.256 0 0 1 47.25 27a2.256 2.256 0 0 1 2.25 2.25v14.625h2.25V40.5h3.375v3.375h2.25V40.5h2.25c.387 0 .762.04 1.125.113V45H63v-3.344c1.36 1.028 2.25 2.637 2.25 4.469ZM61.875 65.25h-13.5v-4.5h13.5ZM35.754 43.57c.059-.597.34-1.136.8-1.523.923-.77 2.407-.629 3.165.277l3.031 3.614v6.996l-6.473-7.727a2.245 2.245 0 0 1-.523-1.637Zm23.871-5.32H51.75v-9a4.501 4.501 0 0 0-9 0v13.188l-1.305-1.551a4.459 4.459 0 0 0-3.453-1.614c-1.05 0-2.082.375-2.879 1.051a4.435 4.435 0 0 0-1.597 3.051 4.457 4.457 0 0 0 1.039 3.281l8.457 10.09c.484 1.578 1.617 2.871 3.113 3.524v6.105c0 .621.504 1.125 1.125 1.125H63c.621 0 1.125-.504 1.125-1.125V60.27c1.98-.868 3.375-2.848 3.375-5.145v-9c0-4.344-3.535-7.875-7.875-7.875"/></g><path fill="#5c5c5c" d="M3.375 2.25h33.75c.621 0 1.125.504 1.125 1.125V18h-36V3.375c0-.621.504-1.125 1.125-1.125ZM2.25 52.875V20.25h36v16.875h2.25V3.375A3.376 3.376 0 0 0 37.125 0H3.375A3.376 3.376 0 0 0 0 3.375v49.5a3.376 3.376 0 0 0 3.375 3.375h33.75V54H3.375a1.125 1.125 0 0 1-1.125-1.125"/><path fill="#5c5c5c" d="M6.75 6.75h27v6.75h-27Zm-1.125 9h29.25c.621 0 1.125-.504 1.125-1.125v-9c0-.621-.504-1.125-1.125-1.125H5.625c-.621 0-1.125.504-1.125 1.125v9c0 .621.504 1.125 1.125 1.125M22.5 36h-6.75v-9h6.75Zm-6.75 11.25v-9h6.75v9Zm-9-9h6.75v9H6.75ZM13.5 27v9H6.75v-9ZM36 37.125v-11.25c0-.621-.504-1.125-1.125-1.125H5.625c-.621 0-1.125.504-1.125 1.125v22.5c0 .621.504 1.125 1.125 1.125h27v-2.25H24.75V27h9v10.125H36"/><path fill="#5c5c5c" d="M19.125 11.25h2.25V9h-2.25v2.25M23.625 11.25h2.25V9h-2.25v2.25M14.625 11.25h2.25V9h-2.25v2.25"/></svg>