<svg xmlns="http://www.w3.org/2000/svg" width="90" viewBox="0 0 67.5 67.5" height="90" version="1.0"><defs><clipPath id="id1"><path d="M10.125 0h47.25v67.004h-47.25Zm0 0"/></clipPath></defs><g clip-path="url('#id1')"><path d="M52.402 38.285h-.004l-8.12-2.215-3.778-1.89v-4.946a12.464 12.464 0 0 0 3.828-4.242 12.713 12.713 0 0 0 1.535-4.676h.004a3.39 3.39 0 0 0 1.258-1.937 3.49 3.49 0 0 0 .004-1.559 3.433 3.433 0 0 0-.691-1.395 3.243 3.243 0 0 0-.563-.546c.156-.828.238-1.66.25-2.504 0-.813-.078-1.617-.238-2.414A12.323 12.323 0 0 0 44.039 5.5c-.45-.676-.965-1.3-1.539-1.875-.574-.574-1.2-1.09-1.875-1.54a12.323 12.323 0 0 0-4.46-1.848A12.22 12.22 0 0 0 33.75.001c-.813 0-1.617.078-2.414.238a12.323 12.323 0 0 0-4.461 1.848c-.676.45-1.3.965-1.875 1.539-.574.574-1.09 1.2-1.54 1.875a12.323 12.323 0 0 0-1.848 4.46 12.22 12.22 0 0 0-.237 2.415c0 .855.082 1.703.238 2.547a3.327 3.327 0 0 0-1.343 2.617 3.3 3.3 0 0 0 .71 2.125 3.2 3.2 0 0 0 .536.543l.039.04a12.525 12.525 0 0 0 1.734 5.132A12.55 12.55 0 0 0 27 29.32v4.86l-3.777 1.89-8.125 2.215c-.711.195-1.375.5-1.989.914a6.702 6.702 0 0 0-1.593 1.504 6.68 6.68 0 0 0-1.032 1.934c-.238.699-.359 1.422-.359 2.16v19.328c0 .45.086.879.258 1.29a3.355 3.355 0 0 0 1.828 1.827c.41.172.84.258 1.289.258H54c.45 0 .879-.086 1.29-.258a3.355 3.355 0 0 0 1.827-1.828c.172-.41.258-.84.258-1.289V44.797c0-.738-.121-1.461-.36-2.16a6.68 6.68 0 0 0-1.03-1.934c-.45-.59-.981-1.09-1.594-1.504a6.709 6.709 0 0 0-1.989-.914ZM39.937 40.5h-3.843l3.57-4.223 2.504 1.25Zm-14.605-2.973 2.504-1.25 3.57 4.223h-3.843Zm12.918-3.062-4.5 5.324-4.5-5.324v-3.93a12.33 12.33 0 0 0 4.504.82 12.304 12.304 0 0 0 4.496-.867Zm-7.875 8.285h6.75v10.832l-2.863-1.465a1.059 1.059 0 0 0-1.024 0l-2.863 1.465Zm13.5-30.387v.012c-.008.602-.059 1.2-.16 1.79l-4.383-.802a24.442 24.442 0 0 0-3.32-10.851c.55.129 1.09.3 1.617.52.523.218 1.027.48 1.508.78.48.301.933.645 1.355 1.024.422.375.813.789 1.168 1.23a10.133 10.133 0 0 1 2.067 4.606c.097.558.148 1.125.148 1.691Zm-6.824.653a25.962 25.962 0 0 0-6.606.011 22.653 22.653 0 0 1 3.305-9.894 22.65 22.65 0 0 1 3.3 9.883Zm-5.563-10.5a24.375 24.375 0 0 0-3.32 10.863l-4.387.793a10.193 10.193 0 0 1-.012-3.488c.098-.563.239-1.11.43-1.649.188-.535.418-1.05.696-1.55a10.069 10.069 0 0 1 3.468-3.669c.48-.304.985-.566 1.508-.785a9.738 9.738 0 0 1 1.617-.515Zm-8.093 14.011 6.144-1.109a23.606 23.606 0 0 1 8.559.008l6.011 1.097c.446.094.727.36.84.801.117.442.004.809-.34 1.11a1.03 1.03 0 0 1-.89.234l-5.29-.961a25.813 25.813 0 0 0-9.359 0l-5.289.961a1.076 1.076 0 0 1-1.242-.879 1.074 1.074 0 0 1 .008-.418 1 1 0 0 1 .164-.387 1.074 1.074 0 0 1 .684-.457Zm1.878 7.785a10.577 10.577 0 0 1-1.359-3.41c.379.012 5.285-.957 5.559-.98 2.851-.52 5.703-.52 8.554 0 .176.012 5.227.984 5.45.973a10.585 10.585 0 0 1-1.114 3.003 9.891 9.891 0 0 1-1.511 2.094 9.787 9.787 0 0 1-2.004 1.63 9.743 9.743 0 0 1-2.36 1.05 9.794 9.794 0 0 1-5.117.125 9.845 9.845 0 0 1-4.488-2.469 9.762 9.762 0 0 1-1.61-2.016ZM12.375 64.126V60.75h4.5v4.5H13.5a1.155 1.155 0 0 1-.797-.328 1.155 1.155 0 0 1-.328-.797Zm4.5-20.25V58.5h-4.5V44.797c0-.492.082-.973.238-1.442.16-.468.387-.898.688-1.289.3-.39.652-.726 1.062-1 .41-.277.852-.48 1.328-.613l7.493-2.043 1.566 2.09h-4.5c-.45 0-.879.086-1.29.258a3.355 3.355 0 0 0-1.827 1.828c-.172.41-.258.84-.258 1.289Zm31.5 21.375h-29.25V43.875a1.155 1.155 0 0 1 .328-.797 1.155 1.155 0 0 1 .797-.328h7.875v12.668c0 .098.012.191.035.285.027.094.063.18.11.266.046.082.101.16.171.23.067.067.141.13.223.18a1.115 1.115 0 0 0 .828.137c.094-.02.184-.051.27-.094l3.988-2.04 3.988 2.04c.086.043.176.074.27.094a1.115 1.115 0 0 0 1.05-.316c.07-.071.126-.15.172-.231.047-.086.083-.172.11-.266.023-.094.035-.187.035-.285V42.75h7.875a1.155 1.155 0 0 1 .797.328 1.155 1.155 0 0 1 .328.797ZM47.25 40.5h-4.5l1.566-2.09 7.493 2.043c.476.133.918.336 1.328.613.41.274.761.61 1.062 1 .301.391.528.82.688 1.29.156.468.238.949.238 1.44V58.5h-4.5V43.875c0-.45-.086-.879-.258-1.29a3.355 3.355 0 0 0-1.828-1.827 3.302 3.302 0 0 0-1.289-.258Zm7.875 23.625a1.155 1.155 0 0 1-.328.797 1.155 1.155 0 0 1-.797.328h-3.375v-4.5h4.5Zm0 0"/></g></svg>