<svg xmlns="http://www.w3.org/2000/svg" width="90" viewBox="0 0 67.5 67.5" height="90" version="1.0"><defs><clipPath id="id1"><path d="M1.09 23h65.25v44.004H1.09Zm0 0"/></clipPath><clipPath id="id2"><path d="M22 .547h23V22H22Zm0 0"/></clipPath></defs><g clip-path="url('#id1')"><path fill="#5c5c5c" d="M65.254 23.691H38.066c-.289 0-.566.114-.77.32l-3.038 3.055-3.035-3.054a1.075 1.075 0 0 0-.77-.32H2.176a1.09 1.09 0 0 0-1.086 1.093v20.79a1.09 1.09 0 0 0 1.086 1.093h11.469c-.461 1.45-.137 3.098 1 4.242a4.125 4.125 0 0 0 2.945 1.23c.07 0 .137-.019.207-.023a4.19 4.19 0 0 0 1.2 3.172 4.115 4.115 0 0 0 2.944 1.227c.07 0 .137-.016.207-.02-.054 1.14.332 2.3 1.2 3.168a4.11 4.11 0 0 0 2.941 1.23c.07 0 .137-.019.211-.023a4.172 4.172 0 0 0 1.195 3.172 4.115 4.115 0 0 0 2.946 1.227 4.097 4.097 0 0 0 2.695-1.024l1.785 1.797a4.128 4.128 0 0 0 2.945 1.227 4.128 4.128 0 0 0 2.946-1.227 4.167 4.167 0 0 0 1.195-3.172c.07.004.14.02.211.02a4.138 4.138 0 0 0 2.941-1.223 4.199 4.199 0 0 0 1.2-3.176c.07.004.136.024.207.024 1.066 0 2.132-.41 2.945-1.227a4.196 4.196 0 0 0 1.2-3.172c.066.004.136.02.206.02 1.067 0 2.133-.41 2.942-1.227a4.21 4.21 0 0 0 0-5.926l-.317-.316h11.512c.601 0 1.086-.488 1.086-1.094V24.785c0-.605-.485-1.094-1.086-1.094ZM3.266 44.481V25.878h6.523V44.48Zm12.918 4.882a2.006 2.006 0 0 1 0-2.828l3.261-3.281c.387-.39.899-.586 1.407-.586.507 0 1.02.195 1.406.586a2.006 2.006 0 0 1 0 2.828l-3.262 3.281c-.754.758-2.062.758-2.812 0Zm4.351 4.38a2.011 2.011 0 0 1 0-2.833l3.262-3.281a1.97 1.97 0 0 1 1.406-.586c.508 0 1.02.195 1.406.586.774.781.774 2.05 0 2.832l-3.261 3.281c-.754.758-2.063.758-2.813 0Zm4.348 4.374a2.014 2.014 0 0 1 0-2.828l3.262-3.281c.386-.39.898-.586 1.406-.586.512 0 1.02.195 1.406.586a2.006 2.006 0 0 1 0 2.828l-3.262 3.281c-.754.758-2.058.758-2.812 0Zm4.351 4.38a2.011 2.011 0 0 1 0-2.833l3.262-3.281c.387-.39.899-.586 1.406-.586.508 0 1.02.195 1.407.586.773.781.773 2.05 0 2.832l-3.262 3.281c-.754.758-2.063.758-2.813 0Zm10.239 2a1.98 1.98 0 0 1-2.813 0l-1.765-1.774 1.953-1.961c.3-.305.527-.653.715-1.012l1.91 1.918c.773.781.773 2.05 0 2.828Zm13.047-13.13a1.987 1.987 0 0 1-2.813 0l-2.172-2.191-1.539 1.55 2.176 2.188c.773.781.773 2.05 0 2.828a1.98 1.98 0 0 1-2.813 0l-2.175-2.187-1.54 1.547 2.176 2.187c.778.781.778 2.05 0 2.832a1.987 1.987 0 0 1-2.812 0l-2.176-2.191-.922.933c.363-1.394.02-2.937-1.062-4.027a4.122 4.122 0 0 0-3.157-1.203 4.167 4.167 0 0 0-1.195-3.172 4.126 4.126 0 0 0-3.152-1.207c.054-1.14-.332-2.3-1.2-3.172a4.108 4.108 0 0 0-3.152-1.203 4.167 4.167 0 0 0-1.195-3.172 4.15 4.15 0 0 0-5.887 0l-2.762 2.773h-3.183V25.88h18.039l2.719 2.734-8.477 8.528a1.1 1.1 0 0 0-.32.773c0 .29.117.57.32.773a8.722 8.722 0 0 0 6.207 2.583c2.246 0 4.496-.86 6.207-2.583l3.035-3.054L52.52 48.535c.777.781.777 2.05 0 2.832ZM41.234 34.086l.864-.867-1.54-1.551-5.437 5.473a6.587 6.587 0 0 1-8.504.71L38.516 25.88h16.949V44.48h-3.899Zm22.93 10.394h-6.523V25.88h6.523Zm0 0"/></g><g clip-path="url('#id2')"><path fill="#5c5c5c" d="M23.926 21.5h19.578c.601 0 1.086-.488 1.086-1.094V10.56c0-.313-.133-.61-.363-.82L42.414 8.12V1.805c0-.606-.484-1.094-1.086-1.094h-4.351c-.602 0-1.086.488-1.086 1.094v.48l-1.453-1.3a1.086 1.086 0 0 0-1.446 0l-9.785 8.753c-.234.211-.367.508-.367.82v9.848a1.09 1.09 0 0 0 1.086 1.094Zm8.703-2.188V13.84H34.8v5.473Zm-7.613-8.261 8.699-7.781 2.539 2.27c.32.288.777.358 1.168.183.39-.18.644-.57.644-1V2.898h2.172v5.715c0 .313.133.61.367.817l1.81 1.62v8.262h-5.438v-6.566a1.09 1.09 0 0 0-1.086-1.094h-4.352a1.09 1.09 0 0 0-1.086 1.094v6.566h-5.437Zm0 0"/></g><path fill="#5c5c5c" d="M47.852 10.559h7.613v2.187h-7.613ZM48.04 6.77l4.612-4.641 1.54 1.547-4.614 4.64ZM48.04 16.805l1.538-1.547 4.613 4.64-1.539 1.547ZM11.965 10.559h7.613v2.187h-7.613ZM13.238 3.672l1.54-1.547 4.613 4.64-1.54 1.551ZM13.238 19.898l4.614-4.64 1.539 1.547-4.614 4.64ZM59.816 40.102h2.172v2.191h-2.172Zm0 0"/></svg>