<svg xmlns="http://www.w3.org/2000/svg" width="90" viewBox="0 0 67.5 67.5" height="90" version="1.0"><defs><clipPath id="id1"><path d="M0 0h67.004v67.004H0Zm0 0"/></clipPath></defs><g clip-path="url('#id1')"><path fill="#5c5c5c" d="M65.25 65.25h-63V58.5h7.875a3.386 3.386 0 0 0 3.375 3.375c.441 0 .867-.094 1.262-.246.144.57.425 1.09.843 1.492A3.328 3.328 0 0 0 18 64.125a3.386 3.386 0 0 0 3.375-3.375V58.5H44.02a4.506 4.506 0 0 0 4.355 3.375 4.48 4.48 0 0 0 3.238-1.383A7.927 7.927 0 0 0 57.375 63c3.07 0 5.813-1.79 7.09-4.5h.785ZM7.965 48.492a4.472 4.472 0 0 1 2.86.278c.331.156.718.132 1.03-.055.317-.195.52-.52.555-.89.281-4.11 3.723-7.325 7.84-7.325 1.855 0 3.656.656 5.074 1.855.246.208.574.293.899.25.328-.058.609-.25.789-.53a7.807 7.807 0 0 1 6.738-3.825 7.912 7.912 0 0 1 6.41 3.309c.274.39.766.562 1.227.425 2.925-.855 6.05-.136 8.316 1.79.266.238.64.324.988.238a4.575 4.575 0 0 1 1.059-.137 4.496 4.496 0 0 1 4.5 4.488c0 .617.504 1.137 1.125 1.137A5.626 5.626 0 0 1 63 55.125c0 .64-.113 1.27-.324 1.875-1.059 3.016-4.551 4.707-7.824 3.176-1-.469-1.762-1.301-2.332-2.242a1.155 1.155 0 0 0-1.075-.547 1.14 1.14 0 0 0-.957.754 2.248 2.248 0 0 1-3.031 1.289c-.828-.356-1.285-1.22-1.336-2.121A1.122 1.122 0 0 0 45 56.25H20.25c-.621 0-1.125.504-1.125 1.125v3.375c0 .621-.504 1.125-1.125 1.125-.305 0-.574-.113-.8-.348a1.055 1.055 0 0 1-.325-.777v-3.375a1.125 1.125 0 0 0-2.25 0V58.5c0 .305-.113.574-.348.8-.203.212-.472.325-.777.325a1.125 1.125 0 0 1-1.125-1.125v-1.125c0-.621-.504-1.125-1.125-1.125H6.066c-1.746-1.54-2.28-4.285-.3-6.457a4.31 4.31 0 0 1 2.199-1.3Zm4.398-18.117h2.262L14.637 36h2.25l-.012-5.625h2.238l.012 4.5h2.25l-.012-4.5h2.262L23.637 36h2.25l-.012-5.625h2.238l.012 4.5h2.25l-.012-4.5h2.262l.012 3.375h2.25l-.012-3.375h2.25L37.137 36h2.25l-.012-5.625h2.238l.012 4.5h2.25l-.012-4.5h2.262L46.137 36h2.25l-.012-5.625h2.238l.012 4.5h2.25l-.012-4.5h2.262L55.137 36h2.25l-.012-5.625h2.25V47.59a7.232 7.232 0 0 0-1.203-.274c-.52-3.218-3.309-5.691-6.672-5.691a6.39 6.39 0 0 0-1.023.094 11.21 11.21 0 0 0-9.215-2.086A10.175 10.175 0 0 0 33.75 36c-3.16 0-6.066 1.441-7.977 3.895a10.07 10.07 0 0 0-5.523-1.645c-4.816 0-8.906 3.418-9.887 8.012A6.67 6.67 0 0 0 9 46.125c-.383 0-.75.043-1.125.102V30.375h2.238l.012 4.5h2.25ZM4.5 28.125v-6.75h57.375c.621 0 1.125.504 1.125 1.125V27c0 .621-.504 1.125-1.125 1.125Zm6.75-11.25H18v2.25h-6.75Zm0-4.5H18v2.25h-6.75Zm0-9c0-.621.504-1.125 1.125-1.125h9v4.5h-2.25c-.621 0-1.125.504-1.125 1.125v2.25h-6.75ZM23.625 2.25H40.5v4.5H23.625Zm19.125 0h3.375a2.256 2.256 0 0 1 2.25 2.25 2.256 2.256 0 0 1-2.25 2.25H42.75Zm23.625 54h-1.227c.059-.375.102-.742.102-1.125a7.85 7.85 0 0 0-3.375-6.445V30.375A3.386 3.386 0 0 0 65.25 27v-4.5a3.386 3.386 0 0 0-3.375-3.375H20.25V9h25.875c2.488 0 4.5-2.012 4.5-4.5S48.613 0 46.125 0h-33.75A3.386 3.386 0 0 0 9 3.375v15.75H4.5a2.256 2.256 0 0 0-2.25 2.25v6.75a2.256 2.256 0 0 0 2.25 2.25h1.125v16.66c-2.012 1.172-3.375 3.344-3.375 5.84 0 1.191.34 2.363.922 3.375H1.125C.504 56.25 0 56.754 0 57.375v9c0 .621.504 1.125 1.125 1.125h65.25c.621 0 1.125-.504 1.125-1.125v-9c0-.621-.504-1.125-1.125-1.125"/></g><path fill="#5c5c5c" d="M51.75 13.5a1.125 1.125 0 1 1 0 2.25 1.125 1.125 0 0 1 0-2.25Zm-3.375 1.125a3.376 3.376 0 1 0 6.752-.002 3.376 3.376 0 0 0-6.752.002M59.625 1.125h-2.25v2.25h2.25v-2.25M61.875 5.625v-2.25h-2.25v2.25h2.25M57.375 7.875h2.25v-2.25h-2.25v2.25M57.375 3.375h-2.25v2.25h2.25v-2.25M20.25 49.5a1.125 1.125 0 1 1 0 2.25 1.125 1.125 0 0 1 0-2.25Zm0 4.5a3.376 3.376 0 1 0-.002-6.752A3.376 3.376 0 0 0 20.25 54M33.75 40.5H31.5v2.25h2.25V40.5M36 45v-2.25h-2.25V45H36M31.5 47.25h2.25V45H31.5v2.25M31.5 42.75h-2.25V45h2.25v-2.25M46.125 47.25h-2.25v2.25h2.25v-2.25M48.375 51.75V49.5h-2.25v2.25h2.25M43.875 54h2.25v-2.25h-2.25V54M43.875 49.5h-2.25v2.25h2.25V49.5"/></svg>