<svg width="261" height="26" fill="none" xmlns="http://www.w3.org/2000/svg"><path d="M5.402 17.23c0 .705.141 1.411.423 2.117.283.565.707 1.13 1.271 1.413.565.423 1.13.706 1.695.847.706.141 1.412.282 2.118.282.565 0 1.13 0 1.554-.14.565-.142 1.13-.283 1.553-.424.424-.283.848-.565 1.271-.989.283-.424.424-.989.424-1.553 0-.565-.283-1.271-.706-1.695-.424-.424-.989-.848-1.695-.989-.706-.282-1.553-.565-2.4-.706l-2.684-.847c-.847-.283-1.836-.565-2.683-.848-.847-.282-1.695-.706-2.4-1.27-.707-.565-1.272-1.13-1.695-1.978C1.024 9.603.74 8.473.74 7.485c0-1.13.283-2.26.848-3.39.706-.847 1.412-1.694 2.26-2.26C4.836 1.272 5.824.707 6.813.425 7.944.14 9.074 0 10.062 0c1.271 0 2.542.141 3.813.424 1.13.282 2.26.706 3.107 1.412.847.706 1.695 1.553 2.118 2.542a8.24 8.24 0 0 1 .848 3.672h-5.226c0-.706-.14-1.271-.423-1.836-.283-.424-.565-.848-.989-1.13-.424-.424-.988-.565-1.553-.706-.565-.141-1.271-.141-1.836-.141-.424 0-.847 0-1.412.14l-1.271.425c-.424.282-.706.564-.848.847-.282.424-.423.847-.423 1.27 0 .425.14.848.282 1.272.283.424.706.706 1.13.847.706.283 1.553.565 2.26.706.988.283 2.259.565 3.812.989.283.141.707.141 1.271.282.424.141.989.283 1.554.565.565.283.988.565 1.695.848.564.423 1.13.847 1.553 1.27.424.565.847 1.13 1.13 1.836.282.848.423 1.695.423 2.542 0 1.13-.282 2.119-.706 3.107-.423.989-1.13 1.836-1.977 2.542-.988.706-2.118 1.271-3.248 1.695-1.412.424-2.966.565-4.519.565-1.412 0-2.683-.141-3.954-.565-1.271-.283-2.401-.847-3.39-1.554a7.78 7.78 0 0 1-2.4-2.824c-.706-1.27-.989-2.683-.848-3.954l5.367.141ZM30.116.565h5.648l9.321 24.855h-5.649L37.6 19.771h-9.18l-1.976 5.649h-5.65L30.117.565Zm-.424 15.252h6.496l-3.107-9.18h-.141l-3.248 9.18ZM46.497.565h5.508V25.42h-5.508V.565ZM76.86.565h-5.084V17.37h-.14L61.325.565h-5.508V25.42h5.084V8.756h.142l10.45 16.664h5.367V5.084h6.92V25.42h5.366V5.084h7.485V.564H76.86ZM106.94.565h5.508V20.9h12.145v4.66H106.94V.565ZM134.338.565h5.649l9.32 24.855h-5.648l-1.836-5.649h-9.321l-1.977 5.649h-5.649L134.338.565Zm-.424 15.252h6.496l-3.248-9.038-3.248 9.038ZM170.914 15.958c0 3.39-.847 5.932-2.824 7.485-2.26 1.836-4.943 2.683-7.909 2.542-2.824.141-5.649-.706-7.908-2.542-1.836-1.695-2.825-4.096-2.825-7.485V.565h5.508v15.393c0 .706 0 1.271.141 1.977.141.565.424 1.271.706 1.695.424.565.989.989 1.554 1.27a8.216 8.216 0 0 0 2.683.425c1.412.14 2.966-.283 4.095-1.271.848-1.13 1.271-2.684 1.13-4.096V.565h5.508l.141 15.393ZM174.304.565h13.416c.988 0 2.118.141 2.965.565.848.282 1.695.847 2.401 1.553.565.565 1.13 1.412 1.412 2.119.283.847.565 1.694.565 2.683 0 1.27-.282 2.683-.847 3.813-.706 1.13-1.695 1.977-2.966 2.4v.142c.565.141 1.13.424 1.695.847.424.424.847.848.989 1.412.282.565.423 1.13.564 1.695.142.565.283 1.271.283 1.836 0 .424.141.847.141 1.412s0 1.13.141 1.695c0 .565.142 1.13.283 1.553.141.424.282.848.565 1.271h-5.508l-.424-1.27c-.141-.424-.141-.99-.282-1.554-.141-.565-.141-.989-.141-1.554 0-.564 0-1.13-.142-1.553-.141-1.13-.564-2.118-1.271-2.825-.847-.706-1.835-.988-2.965-.847h-5.508v9.745h-5.366V.564Zm5.507 11.157h6.073c.988 0 1.977-.283 2.824-.848.706-.706 1.13-1.695.989-2.683.141-.989-.283-1.977-.989-2.683a5.091 5.091 0 0 0-2.824-.848h-6.073v7.062ZM198.452.565h18.641v4.66H203.96v5.367h12.004v4.236H203.96v6.073h13.416v4.66h-18.924V.565ZM240.96.565h-5.084V17.37h-.141L225.284.565h-5.366V25.42h5.084V8.756h.141l10.309 16.664h5.508V5.084h6.92V25.42h5.366V5.084h7.485V.564H240.96Z" fill="#000"/></svg>