<svg xmlns="http://www.w3.org/2000/svg" width="90" viewBox="0 0 67.5 67.5" height="90" version="1.0"><defs><clipPath id="id1"><path d="M0 0h67.004v67.004H0Zm0 0"/></clipPath></defs><g clip-path="url('#id1')"><path d="M64.234 32.66H14.152v-2.176h4.356a1.09 1.09 0 0 0 1.09-1.09V25.04c0-.602-.489-1.086-1.09-1.086h-1.09v-2.18h1.09c.601 0 1.09-.484 1.09-1.09v-2.175h8.707c0 .578.453 1.055 1.027 1.086l31.594 1.851a6.147 6.147 0 0 0 4.629-1.684 6.157 6.157 0 0 0 1.953-4.523c0-1.73-.695-3.336-1.953-4.523a6.156 6.156 0 0 0-4.633-1.684l-31.59 1.86a1.088 1.088 0 0 0-1.027 1.086h-8.707v-2.18c0-.602-.489-1.086-1.09-1.086h-2.176a1.09 1.09 0 0 1 0-2.18h2.176c.601 0 1.09-.484 1.09-1.086V1.09A1.09 1.09 0 0 0 18.508 0h-3.453c-2.242 0-4.442.91-6.028 2.496a8.587 8.587 0 0 0-2.496 6.027v12.16c0 .606.489 1.09 1.09 1.09h1.09v2.18H7.62c-.601 0-1.09.485-1.09 1.086v4.356c0 .601.489 1.09 1.09 1.09h4.356v2.175H9.05a9.736 9.736 0 0 0-6.93 2.871l-1.8 1.805c-.2.195-.321.469-.321.77v4.746c0 4.144 2.41 7.988 6.137 9.796l30.406 14.743c.148.074.309.109.473.109h4.355c.363 0 .703-.184.906-.484l3.383-5.079a2.184 2.184 0 0 1 1.813-.968h6.96c.602 0 1.09.488 1.09 1.086v2.18A3.27 3.27 0 0 0 58.79 67.5h5.445a3.27 3.27 0 0 0 3.266-3.266V35.926a3.27 3.27 0 0 0-3.266-3.266Zm1.094-17.422c0 1.125-.45 2.172-1.27 2.942-.277.261-.59.46-.913.629v-7.137c.324.168.64.367.914.625a4 4 0 0 1 1.27 2.941Zm-4.36-4.031v8.063l-2.179-.13v-7.804Zm-30.484 1.797 26.13-1.54v7.548l-26.13-1.532Zm-2.18 1.148v2.18h-8.706v-2.18ZM8.712 8.523c0-1.671.676-3.304 1.855-4.488a6.401 6.401 0 0 1 4.489-1.86h2.363v2.18h-1.086a3.27 3.27 0 0 0-3.266 3.266 3.27 3.27 0 0 0 3.266 3.266h1.086v8.71H8.711Zm2.176 13.25h4.355v2.18h-4.355ZM8.71 26.13h8.707v2.176H8.711Zm.34 8.71h55.183c.602 0 1.09.49 1.09 1.087v1.09H3.72A7.573 7.573 0 0 1 9.05 34.84Zm47.562 4.356h8.711v6.532H58.79a2.18 2.18 0 0 1-2.176-2.18ZM2.176 42.852v-3.657h25.68l-5.442 5.442h-6.082c-.289 0-.566.113-.77.32l-6.628 6.629-1.848-.895a8.77 8.77 0 0 1-4.91-7.84Zm62.058 22.472H58.79a1.087 1.087 0 0 1-1.086-1.09v-2.18c0-1.8-1.469-3.265-3.27-3.265h-6.96a4.34 4.34 0 0 0-3.621 1.941l-3.063 4.594h-3.523l-4.262-2.07 3.691-3.695-1.539-1.54-4.226 4.231-3.063-1.484 3.387-3.383-1.54-1.54-3.921 3.919-3.059-1.48 3.075-3.075-1.54-1.539-3.605 3.605-3.062-1.484 2.765-2.762-1.543-1.539-3.293 3.297-4.527-2.191 5.777-5.778h6.082c.29 0 .567-.117.77-.32l7.3-7.3h23.5v4.35a4.36 4.36 0 0 0 4.356 4.356h6.535v16.332a1.09 1.09 0 0 1-1.09 1.09Zm0 0"/></g><path d="M23.953 28.305h4.352v2.18h-4.352ZM22.094 25.36l3.265-3.266 1.54 1.539-3.266 3.265Zm0 0"/></svg>