<svg aria-hidden="true" style="width:0;height:0;position:absolute;overflow:hidden" xmlns="http://www.w3.org/2000/svg"><defs><symbol id="balenciaga" viewBox="0 0 56 32"><path d="M15.258 12.136c.019.374.082.786.077 1.159L15.073 13c-.414-.43-.899-.867-1.75-.853l.23.58.273.995a3.307 3.307 0 0 0 1.892 1.903l.427.131c.129.074.352.596.416.766-.71-.433-1.369-.836-2.57-.766.041.225.18.43.284.602.464.761 1.09 1.373 2.045 1.641.299.084.844.21 1.236.098.242.184.579.652.744.919v.011c-.858-.235-1.872-.652-2.975-.317.035.256.259.463.394.634.315.401 1.16 1.213 1.936 1.105.412-.057.736-.106 1.072-.23l.514-.23-3.166-2.523c.174.143.348.286 3.701 2.96l.153.164v.011c-1 .005-1.84.151-2.439.547-.141.093-.407.221-.459.394.159.204.566.267.842.35.898.27 1.888.252 2.603-.164.192-.112.406-.211.536-.383.163.026 1.074.383 1.17.47-.404.132-1.634.827-1.728 1.203.154.189.572.169.864.219a3.056 3.056 0 0 0 2.341-.591c.182-.142.442-.605.602-.678.173-.12.505.133.602.197.323.215.571.5.765.842l.208.481a.316.316 0 0 0 .372.12c.178-.294-.061-.702-.186-.908-.361-.597-.896-1.213-1.728-1.323.25-1.328-.794-2.416-1.487-2.909-.23-.163-.528-.428-.831-.492.034 1.178.295 2.923 1.116 3.281l.022.033c-.583.019-.848-.014-1.247-.208.006-1.471-.276-2.289-.864-3.172-.144-.217-.41-.677-.634-.788h-.011c-.22.698-.214 1.864 0 2.559l.306.766c-.418-.208-.625-.549-.963-.82.107-.791.258-2.216.066-3.03-.106-.449-.322-.733-.448-1.094l-.022-.011h-.033l-.383 1.116c-.179.582-.239 1.234-.219 1.98-.3-.218-.433-.524-.656-.82l.252-.525c.145-.335.264-.681.372-1.05.126-.428.128-.914.208-1.389l.033-.558v-.241c-.894.101-1.498 1.781-1.498 2.866h-.011c-.057-.164-.343-.472-.306-.678l.47-1.127c.249-.645.349-1.402.525-2.1l.328-.973c-.89.156-1.347.966-1.739 1.63l-.405.798v.022c-.091-.102-.426-1.204-.317-1.367.074-.112.303-.155.427-.219.264-.135.537-.284.766-.459.52-.401.802-1.089 1.17-1.641l.503-.766c-1.25-.002-1.818.71-2.297 1.477-.196.313-.388.756-.689.962-.252-.424.006-1.868.153-2.231.155-.031.354.016.536.022.429.013.8-.124 1.061-.295.637-.417 1.082-1.06 1.728-1.487.147-.097.298-.227.481-.284v-.044c-1.673-.606-2.559.672-3.598 1.258.108-.458.266-.851.481-1.203l.416-.623c.469.034.926.123 1.411 0l1.706-.58.623-.197c.073-.364-.505-.47-.831-.525a1.686 1.686 0 0 0-.503.022c-.325.054-.6.066-.897.142-.314.081-.617.194-.962.241.259-.397.617-.72.897-1.094l.481.142.766.109.623-.011.798-.055c.591-.106 1.177-.186 1.695-.361-.041-.155-.187-.248-.306-.328-.758-.511-2.107-.388-3.161-.241l-.044-.066c.117-.226.632-.561.853-.711 1.354.67 2.82-.491 3.402-1.225.164-.208.459-.46.525-.744-1.346-.043-2.513.03-3.314.602-.506.361-.743.95-1.313 1.247l-.011-.033c.26-.712.694-1.515.405-2.538a4.297 4.297 0 0 0-.438-1.006L19.22-.05l-.022-.007h-.012l-.425 1.517c-.158.505-.422.885-.591 1.345-.231.629-.125 1.688.066 2.286-.344.276-.52.746-.875 1.017.099-.973.268-1.918-.022-2.855-.079-.254-.169-.655-.416-.733-.235.888-.601 1.64-.755 2.581-.104.639.113 1.233.284 1.673l.164.448c-.004.163-.475.807-.558.995l-.033.022c-.177-.269-.126-.699-.197-1.083-.14-.766-.322-1.377-.973-1.63h-.033c.03.288.122.625.066.973-.101.621-.318 1.605-.12 2.22.124.386.438.697.744.908-.012.205-.075.542-.175.689l-.011.022c-.182-.437-.579-.841-.897-1.159l-.35-.339h-.044c-.451 1.384-.422 3.276 1.225 3.292zM36.806-.056c.202.641.31 1.306.546 1.91.187.479.452.816.558 1.4.083.456 0 .99-.077 1.378-.027.139-.113.428-.044.492.096.21.646.846.831.984-.097-.947-.26-1.95.022-2.855.079-.252.169-.657.416-.733.215.897.595 1.636.755 2.581.144.853-.252 1.521-.448 2.122.082.285.418.769.58 1.017l.044-.033c.225-.916.195-2.566 1.17-2.68-.03.288-.121.625-.066.973.1.622.319 1.605.12 2.22-.154.476-.483.598-.744.919.014.242.108.492.175.7l.011-.022.328-.492c.248-.349.589-.728.93-.984l.044.011.186.995c.23 1.301-.249 2.263-1.422 2.286-.015.374-.081.786-.077 1.159l.273-.306c.422-.431.887-.844 1.739-.842l-.252.656c-.124.399-.192.808-.35 1.17-.376.862-1.234 1.553-2.242 1.783-.132.256-.277.486-.394.766.734-.429 1.351-.817 2.57-.766-.174.918-1.377 1.967-2.242 2.231l-.689.131c-.245.038-.561-.061-.7.033-.155.33-.532.529-.678.875h.011c.784-.296 1.94-.62 2.964-.317-.035.255-.259.463-.394.634-.319.404-1.155 1.209-1.936 1.105-.412-.055-.736-.106-1.072-.23l-.525-.23c-.189.232-.496.36-.678.602v.011c1.327-.016 2.218.291 2.898.908-.042.182-.634.321-.842.383-.654.194-1.656.287-2.297.011-.325-.14-.59-.357-.853-.558l-1.159.47h.022c.55.41 1.374.561 1.706 1.181l-.033.066a5.065 5.065 0 0 1-.711.175 3.186 3.186 0 0 1-2.461-.591c-.239-.186-.408-.477-.613-.7-.717.01-1.227.781-1.455 1.312-.057.132-.25.53-.481.35-.211-.165.089-.732.153-.853.335-.634.926-1.257 1.761-1.378-.26-1.316.803-2.424 1.488-2.909.231-.164.527-.426.831-.492v.077l-.077.788c-.103.563-.153 1.14-.35 1.608-.161.383-.464.557-.711.842.472.024.993.035 1.247-.219-.03-1.436.324-2.351.886-3.194.119-.179.43-.694.623-.755l.011.011c.051.634.238 1.397.088 2.122-.06.288-.137.576-.241.831l-.164.361a2.68 2.68 0 0 0 .962-.831c-.139-.719-.241-2.27-.066-3.019.1-.429.282-.763.459-1.105h.044l.197.547.328 1.094c.11.443.079.953.077 1.455.205-.15.611-.577.656-.864-.142-.172-.216-.426-.306-.645-.347-.843-.557-1.873-.558-3.073h.033c.798.303 1.137 1.067 1.356 1.947l.12.919v-.022c.54-.609.12-1.06-.131-1.695-.264-.666-.373-1.457-.558-2.187l-.328-.973c.993.175 1.403 1.101 1.837 1.849.108.185.24.384.306.602l.022-.011c.052-.265.44-1.055.306-1.334-.055-.114-.256-.152-.372-.208a4.762 4.762 0 0 1-.831-.492c-.52-.4-.803-1.089-1.17-1.641l-.503-.766c1.248-.01 1.821.716 2.297 1.477.152.243.454.855.7.962.099-.518.075-1.198-.033-1.717-.034-.165-.034-.435-.153-.514-.172-.074-.448.06-.678.022-.351-.058-.651-.134-.897-.295-.637-.417-1.081-1.06-1.728-1.487-.148-.098-.298-.224-.481-.284v-.044c1.634-.611 2.585.68 3.598 1.258-.121-.577-.552-1.496-.908-1.827-.207.025-.465.119-.711.088-.831-.107-1.406-.311-2.067-.569l-.963-.306c.105-.894 2.081-.392 2.658-.23l.547.12-.022-.022c-.094-.213-.7-.933-.886-1.072-.317.059-.633.17-.995.23-1.006.165-2.613-.14-3.358-.405v-.033c.129-.127.222-.263.383-.361.452-.274 1.353-.424 2.089-.306l.995.12c.025-.018.026-.03.044-.055v-.011c-.087-.103-.744-.676-.842-.7l-.361.142c-.297.073-.717.06-1.006-.011-.901-.222-1.549-.729-2.045-1.356-.165-.209-.456-.459-.525-.744 1.342-.054 2.519.034 3.314.602.506.362.745.945 1.313 1.247l.011-.033c-.129-.364-.319-.669-.416-1.072-.304-1.261.279-2.098.698-2.862h.036zm-9.177 8.921v8.138l-2.964-.011c-.621 0-1.292.038-1.728-.142-.847-.351-1.59-1.622-1.192-2.877.189-.595.567-.937.984-1.301v-.011c-.166-.059-.303-.212-.405-.339-.607-.76-.686-1.871-.011-2.636.984-1.115 3.343-.841 5.316-.82zm.722 8.138V8.866c1.615-.024 3.708-.256 4.802.405.667.403 1.3 1.352.886 2.439-.169.444-.447.692-.788.963l.022.011c.295.315.641.536.831.962.101.226.168.474.219.755.084.465-.073.951-.197 1.269-.247.631-.642 1.053-1.313 1.258-.415.127-1.059.066-1.575.066l-2.888.011zm-3.325-7.109-.613.066c-.547.129-1.26.541-1.105 1.302.245 1.197 1.97.975 3.063.711v-1.947c-.421-.06-.845-.129-1.345-.131zm5.643 0-.35.022-.711.109v1.433c0 .125-.044.438.022.514.213.11.502.102.766.153.966.185 2.014.009 2.242-.733.076-.247.018-.528-.066-.722-.268-.624-1.006-.783-1.903-.777zm-5.709 3.39-.459.033c-.543.106-.975.262-1.214.667a1.129 1.129 0 0 0-.131.623c.198 1.532 1.841 1.246 3.216 1.028v-2.231c-.441-.058-.887-.118-1.411-.12zm5.709 0-.273.011-.787.109v2.231c1.062.164 2.556.418 3.073-.449.122-.204.185-.551.12-.842-.2-.898-1.033-1.068-2.133-1.061zM46.19 25.873l-.273.033-.58.153c-.696.273-1.246.695-1.619 1.291a3.08 3.08 0 0 0-.339.82c-.514 1.868.818 3.204 2.078 3.587.979.298 2.077-.004 2.756-.35.18-.092.498-.183.602-.35.158-.257-.041-1.199.087-1.531.106-.275.508-.191.744-.339a.313.313 0 0 0 .011-.175l-.044-.066-2.034.011c-.196 0-.597-.057-.667.077l-.011.164c.259.176.66-.016.875.273.115.154.114.354.153.591.135.805-.256 1.189-.777 1.4-.364.148-.904.075-1.225-.055-.803-.324-1.286-1.013-1.488-1.936-.297-1.359.46-2.655 1.269-3.073.379-.196.985-.296 1.466-.109.472.184.865.501 1.137.886.11.156.316.683.459.755h.142c.122-.171-.05-1.583-.175-1.75h-.142c-.072.072-.123.159-.219.208-.274-.012-.487-.196-.711-.284-.421-.167-.871-.238-1.477-.23zm-38.478.011c.115-.004.249-.008.317.033l.416.941.82 2.166c.214.554.39 1.113.613 1.641.092.218.159.448.295.623.183.236.545.166.733.35l-.011.142-.022.044c-.151.028-.337 0-.481-.022H8.937c-.217.032-.512.043-.634-.044l-.011-.022c-.002-.099.017-.113.055-.164.219-.038.54-.044.645-.197.093-.136.027-.359-.022-.514l-.437-1.28-1.498.022c-.121.018-.364-.046-.427.033-.149.253-.557 1.4-.35 1.673.153.202.525.157.733.306.005.123-.018.146-.066.208l-1.28-.033c-.248 0-.514.046-.722 0l-.055-.066.011-.109c.062-.12.313-.107.427-.175.208-.124.359-.349.459-.58.543-1.252.938-2.628 1.466-3.872.159-.374.283-.765.481-1.105zm23.821 0-.602.12a2.843 2.843 0 0 0-1.389.962c-.982 1.304-.727 3.427.437 4.32.521.4 1.153.602 1.775.605.706.004 1.4-.248 1.91-.758.212-.212.519-.473.514-.886l-.066-.055-.153-.011c-.15.114-.216.329-.328.481-.26.354-.658.667-1.137.798-.565.154-1.081-.107-1.4-.339-.9-.656-1.423-2.174-.864-3.598.284-.724 1.053-1.682 2.155-1.236.246.1.442.261.634.416.227.183.421.497.558.766.076.149.124.396.273.47l.12.011.055-.055c.065-.36-.012-.981-.066-1.334-.026-.169.021-.381-.044-.514a3.668 3.668 0 0 0-.055-.077h-.164c-.054.059-.109.116-.142.197l-.164.164-.525-.252c-.379-.15-.791-.201-1.334-.197zm8.783 0c.101-.003.239-.01.306.022l.459 1.039.788 2.089c.207.535.38 1.073.591 1.586.093.227.166.474.306.656.189.246.549.173.744.361.004.111-.013.141-.055.197-.525.001-1.069-.044-1.641-.044-.298 0-.622.064-.875.011l-.044-.055.011-.12.022-.044c.207-.051.544-.049.656-.197.098-.129.035-.366-.011-.514l-.437-1.291-1.925.022c-.071.359-.623 1.342-.361 1.695.16.215.558.144.744.328.004.119-.019.137-.066.197l-1.269-.033c-.257 0-.527.046-.744 0l-.044-.055c-.004-.108.014-.132.055-.186.841-.196.906-.9 1.192-1.63.393-.999.739-2.051 1.148-3.019.146-.344.262-.709.449-1.017zm12.119 0c.101-.003.239-.01.306.022l.427.963.82 2.166c.207.535.38 1.074.591 1.586.094.228.165.473.306.656.189.246.549.173.744.361.004.111-.013.141-.055.197-.525.001-1.069-.044-1.641-.044-.298 0-.622.064-.875.011l-.044-.055.011-.12.022-.044c.207-.051.544-.049.656-.197.104-.137.029-.396-.022-.547l-.427-1.258-1.925.022c-.071.358-.624 1.342-.361 1.695.168.226.564.151.744.328.004.119-.019.137-.066.197l-1.269-.033c-.257 0-.527.046-.744 0l-.044-.055c-.004-.108.014-.132.055-.186.841-.197.906-.901 1.192-1.63.393-.999.739-2.052 1.148-3.019.146-.344.262-.709.448-1.017zm-49.995.033c.341-.005.711-.022.995.044.669.155 1.355.612 1.181 1.553a1.335 1.335 0 0 1-.142.416c-.155.262-.419.466-.7.602l-.306.131c.744.126 1.684.89 1.378 1.914-.082.274-.235.481-.394.678-.576.716-1.613.536-2.789.536-.407 0-1.45.099-1.663-.055l-.001-.029v-.005c0-.084.018-.113.055-.163.209-.021.512-.071.612-.208.214-.29.106-.78.175-1.225l.011-1.148c.092-.602.067-2.077-.131-2.494-.088-.184-.421-.171-.58-.284 0-.318.322-.219.612-.219.396 0 .815.035 1.192-.022l.492-.022zm9.089.033c-.049.027-.073.024-.098.077l-.011.142c.272.198.595.113.788.427.174.283.164.777.164 1.225l-.011 2.187c-.058.389.032.786-.088 1.094-.073.188-.194.333-.394.394-.212.065-.498-.037-.503.252.287.199.945.044 1.356.044l3.478.022c.115-.215.33-1.587.284-1.903-.05-.035-.088-.048-.186-.044-.158.122-.224.394-.339.558-.358.505-.756.898-1.509 1.017-.448.071-.931.052-1.105-.241-.159-.269-.029-.723-.088-1.105v-1.181l.022-1.367c.052-.349-.053-.727.098-.963.171-.265.447-.228.809-.317.04-.018.048-.026.066-.066l.011-.131-.055-.066h-1.181l-1.509-.055zm23.1 0-.055.066-.011.142c.178.13.492.117.591.328.168.359.047.856.12 1.323l.011.733v1.717c-.055.361.067.818-.087 1.083-.096.166-.298.101-.492.175-.039.018-.048.026-.066.066l-.011.142c.145.105.385.066.624.066h1.662c.039-.018.048-.026.066-.066l.011-.131c-.215-.209-.557-.048-.7-.394-.114-.274-.034-.647-.087-.984l-.033-1.028c-.063-.401-.049-1.281.011-1.673.054-.352-.033-.767.12-1.017.119-.194.378-.225.634-.284.041-.054.059-.078.055-.186-.148-.107-.474-.081-.733-.077-.549.009-1.069-.004-1.63 0zm-16.188 2.669c.001-.756-.025-1.545.066-2.22.898-.09 1.742-.142 2.308.295.202.156.377.391.525.602.064.091.094.211.197.263l.098.011.022-.011c.127-.218-.152-1.239-.208-1.487-.182-.082-1.028-.022-1.302-.022l-2.319-.022c-.294-.044-.742-.091-1.028-.022-.041.067-.046.122-.022.208.215.131.581.134.7.361.143.274.021.748.077 1.094.054.335.065.845.011 1.192v1.302c0 .4.013.909-.164 1.148-.141.192-.404.139-.678.208l-.077.066v.142c.248.163.977.009 1.345.066l.93.033 2.756.033c.098-.17.367-1.34.317-1.586l-.044-.022-.131-.011c-.154.12-.214.387-.328.547-.226.318-.598.532-1.017.656-.629.186-1.736.203-1.958-.339-.126-.308-.018-.727-.077-1.116l.011-1.017c.088-.077.422-.006.525.011.429.072.673.136.853.448.082.141.084.493.23.569l.109.011.066-.066-.011-1.236c.042-.293.085-.698.033-.984-.052-.036-.096-.048-.197-.044-.152.218-.207.511-.372.711-.224.272-.775.234-1.247.23zm3.839-2.604c-.096.051-.127.063-.12.219.098.067.257.074.372.131.279.137.51.466.634.755.119.277.054.628.109.995l.022 1.159c.07.464.07 1.526-.066 1.87-.071.179-.216.279-.416.328-.245.061-.511-.07-.514.252.145.1.469.066.711.066l1.739-.011c.045-.058.069-.072.066-.186-.113-.11-.241-.068-.437-.109s-.392-.177-.492-.317c-.12-.168-.101-.443-.142-.689-.106-.626-.098-1.347-.098-2.056v-.963c.187.18.381.473.547.678.706.876 1.519 1.69 2.22 2.57.175.219.781 1.077 1.072 1.083l.066-.066c.074-.329-.026-.731.033-1.094l.033-2.428c0-.485-.056-1.166.12-1.509.196-.382.457-.242.82-.405.04-.018.048-.026.066-.066l.011-.12-.044-.055c-.155-.038-.39-.022-.58-.022l-1.323.022c-.167.002-.662-.045-.536.23.045.098.285.051.405.077.198.043.397.147.503.284.346.445.208 1.776.208 2.538l-.033.941v.022l-2.614-3.019-.897-1.094-1.444-.011zm-19.95.197-.536.12-.033 1.575c0 .215-.018.477.022.656.207.077.573.013.777-.033.7-.159 1.023-.37 1.137-1.127a1.134 1.134 0 0 0-.142-.678c-.217-.357-.641-.521-1.225-.514zm5.239.853-.306.711-.525 1.433H8.4c-.079-.438-.389-1.035-.558-1.444l-.273-.7zm32.605.011c-.305.663-.633 1.392-.831 2.133h1.662v-.011l-.831-2.122zm12.119 0c-.305.663-.633 1.391-.831 2.133h1.663v-.011l-.831-2.122zM2.068 28.892c-.078.027-.229-.007-.284.044-.09.175-.054.535-.055.777-.001.527-.096 1.183.022 1.662.211.114.421.096.733.142 1.033.151 1.669-.805 1.367-1.794-.21-.687-.872-.839-1.783-.831z"/></symbol><symbol id="berluti" viewBox="0 0 144 32"><path d="M42.485 26.771H30.696v-8.506h9.663v-4.624h-9.663V5.275h11.696V.328H26.905l-1.941 1.895v17.983l-.324 11.466h17.845zm34.58-24.547L75.123.328h-4.16l.371 11.418v8.46l-.371 11.466h17.891v-4.901H77.066zM103.924.328v24.04c-.139 1.525-1.248 2.45-3.005 2.45-1.849 0-3.051-1.063-3.051-2.773V.329h-6.103l.371 11.418v12.02c0 4.947 3.282 7.906 8.783 7.906s8.737-2.959 8.737-7.906V2.224L107.761.329zm36.059 0-1.895 1.895v29.449h5.686V11.747l.37-11.418zm-24.917 4.946h5.917v24.502l1.895 1.895h4.16l-.369-11.418V6.662c0-.766.621-1.387 1.386-1.387h4.531V.329h-17.521zM61.162 18.958c3.282-1.617 5.085-4.807 5.085-8.969 0-6.241-3.421-9.662-9.616-9.662H50.02l-1.941 1.895v17.983l-.37 11.466h6.056V19.559h.878l6.797 12.112h5.5v-1.895l-5.917-10.772zm-5.594-4.16h-1.802V5.274h1.802c3.236 0 4.854 1.572 4.854 4.762s-1.619 4.762-4.854 4.762zm-41.052.832-.555-.231.463-.232c2.311-1.294 3.42-3.328 3.42-6.333 0-5.501-3.236-8.506-9.153-8.506H0l.371 11.418v17.983l1.895 1.895h7.72c5.917 0 9.153-3.097 9.153-8.691 0-4.715-2.635-6.426-4.623-7.304zM5.224 5.274H8.46c1.664 0 3.653 1.11 3.653 4.16s-1.942 4.208-3.653 4.208H5.224zm4.391 21.497H5.177v-6.98c0-.766.621-1.386 1.387-1.386H9.615c1.665 0 3.653 1.109 3.653 4.16s-1.942 4.207-3.653 4.207z"/></symbol><symbol id="bottega-veneta" viewBox="0 0 32 32"><path style="fill:var(--color2,#000);transform:scale(1.1)" d="m20.456 14.435-1.183 3.13h-.25l-1.173-3.13h.311l.988 2.676.997-2.676h.311zm.464 1.414h1.322v.301H20.92v1.113h1.322v.301H20.61v-3.13h1.632v.311H20.92v1.104zm4.178-1.414v3.13h-.371l-1.706-2.759.033 2.759h-.311v-3.13h.371l1.716 2.759-.037-2.759h.306zm.82.311v1.104h1.322v.301h-1.322v1.113h1.322v.301h-1.623v-3.13h1.623v.311h-1.322zm4.026-.311-1.196 3.13h.315l.38-.983h1.382l.38.983h.325l-1.206-3.13h-.38zm-.886 0v.311h-.635v2.819h-.301v-2.819h-.626v-.311h1.563zm.491 1.869.58-1.576.598 1.576h-1.178zM16.89 17.565l-1.21-3.13h-.371l-1.215 3.13h.325l.371-.983h1.391l.38.983h.329zM1.018 14.727c.255 0 .45.046.566.134.116.074.176.209.176.385 0 .195-.06.334-.176.427-.125.084-.343.121-.645.121H.754v-1.066h.264zm-.548-.292v3.13h.677c.38 0 .668-.069.844-.218.171-.153.255-.394.264-.709a.86.86 0 0 0-.134-.455.767.767 0 0 0-.376-.301.666.666 0 0 0 .255-.25.802.802 0 0 0 .074-.371c0-.283-.083-.487-.255-.617-.162-.139-.417-.209-.77-.209h-.58zm2.008 1.544c0 .473.153.867.464 1.178.301.315.682.468 1.136.468.232 0 .45-.037.649-.121a1.91 1.91 0 0 0 .543-.403c.13-.149.236-.315.306-.501s.102-.394.102-.622c0-.222-.037-.431-.125-.617a1.36 1.36 0 0 0-.352-.524 1.382 1.382 0 0 0-.501-.344l-.009-.003a1.594 1.594 0 0 0-.612-.116h-.008a1.58 1.58 0 0 0-.605.12l.01-.004a1.338 1.338 0 0 0-.5.338l-.001.001a1.617 1.617 0 0 0-.366.533 1.54 1.54 0 0 0-.13.617zm.45-.556a1.362 1.362 0 0 1 .711-.674l.008-.003.431-.079c.348 0 .649.13.904.394.255.255.38.556.38.918 0 .38-.125.705-.366.96a1.189 1.189 0 0 1-.909.394c-.348 0-.658-.13-.914-.394a1.314 1.314 0 0 1-.371-.951c0-.185.037-.371.125-.566zm2.68-.988h3.107v.311h-.626v2.819h-.311v-2.819H6.545v2.819h-.311v-2.819h-.626v-.311zm3.664 1.414h1.321v.301H9.272v1.113h1.321v.301H8.961v-3.13h1.632v.311H9.272v1.104zm1.799-.486c.086-.21.21-.388.366-.532l.001-.001c.167-.172.338-.288.515-.339a1.58 1.58 0 0 1 .626-.116c.301 0 .58.074.821.222.241.139.427.348.57.635h-.371a1.484 1.484 0 0 0-.468-.427 1.16 1.16 0 0 0-.566-.139c-.362 0-.672.13-.918.394-.255.255-.38.566-.38.927 0 .38.125.705.38.96s.561.385.927.385c.278 0 .533-.093.765-.269.223-.185.371-.427.44-.728h-1.572v-.269h1.943c-.023.464-.195.835-.496 1.118-.301.297-.672.44-1.122.44-.454 0-.825-.153-1.127-.468-.311-.311-.464-.705-.454-1.178v-.004c0-.221.044-.431.124-.623l-.004.011zm-9.321.88c.134.093.195.241.195.441 0 .195-.06.338-.186.441-.13.102-.315.148-.566.148h-.44V16.09h.44c.25 0 .436.051.556.153zm13.735-1.516.594 1.576h-1.173l.58-1.576z"/></symbol><symbol id="casadei" viewBox="0 0 32 32"><path style="fill:var(--color2,#000)" d="M30.322 13.398v5.188h.266v-5.188h-.266zm-3.772.342v-.113h2.198v-.229h-2.464v5.188h2.464v-.229H26.55v-2.569h2.198v-.229H26.55V13.74zm-5.006 4.653h-.112v-4.821h.644l.184.001.173.003.162.005.15.007.139.009.127.011.116.013.105.015.093.017.082.019.079.022.077.025.074.028.071.031.069.034.066.037.064.04.062.043.059.046.057.049.071.066.067.07.064.073.06.077.057.081.053.084.05.088.046.092.043.095.038.099.035.1.031.103.028.106.023.109.02.112.017.115.013.118.009.122.005.124.002.128-.002.125-.005.122-.009.119-.013.117-.016.113-.02.111-.024.108-.027.105-.031.102-.034.1-.038.098-.042.095-.045.092-.049.088-.052.085-.056.082-.059.079-.063.075-.066.072-.07.069-.054.047-.056.045-.058.042-.061.039-.063.036-.066.033-.068.031-.07.028-.072.025-.075.022-.077.019-.087.017-.097.015-.106.013-.117.011-.127.009-.137.007-.147.005-.157.003-.167.001h-.69zm.35.193h.167l.191-.001.18-.003.169-.005.159-.008.148-.01.137-.012.126-.014.116-.017.104-.018.094-.021.084-.023.083-.026.08-.029.079-.032.077-.035.076-.038.073-.041.071-.044.069-.047.068-.05.082-.067.078-.071.074-.075.071-.08.066-.084.063-.088.058-.092.055-.097.051-.101.047-.106.043-.111.039-.115.034-.117.03-.121.025-.124.02-.127.016-.13.011-.133.007-.136.003-.139-.003-.139-.007-.136-.011-.133-.016-.13-.02-.127-.025-.123-.03-.12-.034-.117-.039-.114-.043-.111-.047-.106-.051-.102-.055-.098-.059-.094-.064-.09-.067-.086-.072-.082-.076-.078-.08-.074-.084-.07-.065-.049-.068-.046-.071-.044-.073-.04-.076-.038-.078-.035-.081-.031-.083-.029-.086-.025-.088-.022-.1-.021-.112-.019-.125-.016-.138-.014-.151-.012-.164-.01-.177-.007-.19-.005-.203-.003-.215-.001h-.729v5.188h.729zm-4.867-2.028h-.168l1.128-2.776 1.084 2.776h-2.045zm-.167.194h2.284l.028.072.662 1.762h.291l-2.108-5.225-2.206 5.225h.258l.687-1.763.028-.071h.077zm-4.602.982-.214.113.04.082.043.078.045.074.047.07.05.066.053.062.055.059.058.054.06.05.063.046.072.046.075.041.078.036.081.031.083.027.086.021.089.017.092.012.095.007.097.002.133-.004.128-.012.122-.019.117-.027.111-.035.105-.043.099-.051.094-.059.088-.067.082-.075.075-.082.067-.088.059-.094.051-.1.043-.105.035-.11.028-.116.019-.122.012-.127.004-.133-.002-.098-.007-.094-.01-.091-.015-.087-.019-.083-.023-.08-.028-.076-.032-.072-.037-.069-.041-.065-.049-.065-.058-.066-.067-.066-.076-.067-.084-.068-.094-.068-.102-.07-.111-.071-.12-.072-.128-.072-.258-.135-.195-.109-.173-.11-.151-.113-.13-.114-.109-.116-.089-.117-.068-.119-.048-.121-.029-.121-.01-.122.003-.088.008-.085.014-.08.019-.077.025-.073.03-.07.035-.066.04-.062.046-.058.051-.055.054-.051.059-.045.062-.04.066-.035.07-.029.073-.024.077-.019.081-.014.084-.008.089-.003.065.002.063.004.062.007.059.01.058.012.056.015.054.018.052.02.051.023.049.026.038.022.037.024.036.026.034.028.033.029.031.03.03.032.028.033.027.035.026.037.19-.112-.033-.048-.034-.045-.035-.043-.037-.041-.038-.039-.04-.036-.041-.034-.043-.032-.044-.029-.046-.027-.056-.03-.058-.027-.06-.023-.062-.021-.064-.017-.066-.014-.068-.011-.07-.008-.072-.004-.074-.002-.113.004-.108.01-.104.017-.1.023-.096.03-.091.037-.087.043-.083.05-.079.057-.074.064-.067.068-.06.072-.053.076-.046.08-.039.084-.032.088-.024.091-.018.096-.01.099-.004.103.002.083.007.081.012.078.017.076.022.073.027.071.032.069.036.066.041.063.046.061.057.065.068.066.079.068.089.07.099.072.11.074.12.076.131.078.142.081.152.082.13.071.12.069.111.067.101.066.092.064.082.063.073.06.064.059.055.057.045.055.041.058.036.062.033.064.028.068.024.07.02.074.015.076.011.08.007.082.002.086-.003.115-.01.11-.016.104-.022.1-.029.094-.035.089-.042.084-.048.079-.054.073-.06.069-.066.064-.071.057-.076.05-.081.044-.086.038-.09.031-.096.024-.101.017-.106.01-.111.003-.088-.002-.085-.007-.083-.012-.08-.017-.078-.022-.075-.027-.073-.031-.07-.036-.067-.041-.065-.046-.052-.042-.05-.044-.047-.048-.044-.05-.042-.053-.039-.056-.036-.059-.034-.062-.031-.064-.028-.067zm-4.261-1.176H7.83l1.128-2.776 1.085 2.776H7.998zm-.166.194h2.284l.028.072.662 1.762h.291l-2.108-5.225-2.207 5.225h.258l.715-1.834h.077zM5.12 13.654l-.089-.033-.09-.029-.091-.026-.092-.022-.092-.019-.094-.015-.094-.012-.095-.008-.096-.005-.097-.002-.216.007-.208.021-.2.035-.191.049-.183.063-.175.077-.166.091-.158.104-.15.119-.142.132-.131.144-.117.152-.103.16-.089.169-.076.177-.062.186-.048.194-.035.203-.021.211-.007.22.002.111.005.108.008.106.012.104.015.101.019.1.022.097.025.095.029.093.032.09.036.089.039.087.043.085.046.083.05.081.053.079.057.078.06.075.064.073.067.071.069.067.072.064.074.06.075.057.077.054.08.051.081.047.083.044.086.041.087.037.089.034.09.03.091.027.093.023.094.02.095.016.096.013.098.009.099.005.1.002.097-.002.097-.005.096-.008.096-.012.095-.015.095-.019.094-.022.094-.025.093-.029.093-.032.072-.027.071-.029.07-.031.07-.033.069-.035.069-.037.068-.039.068-.041.067-.043.066-.044v.297l-.073.042-.074.04-.075.038-.075.036-.076.034-.077.032-.077.03-.079.028-.079.026-.08.024-.086.024-.085.022-.085.019-.085.017-.085.014-.085.011-.085.009-.085.006-.085.004-.084.001-.113-.002-.112-.006-.111-.01-.11-.014-.109-.018-.108-.022-.107-.026-.106-.03-.105-.034-.104-.039-.101-.042-.098-.045-.096-.048-.092-.052-.09-.055-.087-.059-.084-.061-.081-.065-.078-.068-.076-.071-.074-.076-.07-.079-.067-.081-.063-.084-.059-.086-.055-.088-.052-.091-.048-.093-.045-.096-.041-.098-.037-.101-.033-.102-.029-.105-.025-.107-.021-.109-.017-.111-.014-.112-.01-.115-.006-.116-.002-.119.002-.116.006-.114.01-.113.014-.111.018-.11.022-.108.026-.107.03-.105.034-.104.038-.102.042-.099.045-.096.049-.094.052-.091.056-.088.06-.085.063-.083.066-.08.07-.078.073-.074.075-.07.078-.067.081-.064.084-.061.087-.058.09-.055.093-.051.096-.048.099-.045.102-.042.104-.039.105-.035.106-.031.106-.026.108-.023.108-.018.109-.014.11-.01.111-.006.111-.002.099.002.097.004.096.007.095.01.093.013.092.015.09.018.089.021.088.023.086.026.079.027.077.029.076.032.075.034.074.036.072.039.071.041.069.044.068.046.067.048-.004.251-.067-.048-.067-.046-.067-.044-.067-.041-.067-.039-.067-.037-.068-.035-.068-.032-.069-.03-.068-.028z"/></symbol><symbol id="chanel" viewBox="0 0 48 32"><path d="m3.457 31.998-.155-.016a3.66 3.66 0 0 1-1.713-.656 3.82 3.82 0 0 1-1.482-2.205 3.96 3.96 0 0 1-.065-1.496 3.81 3.81 0 0 1 2.268-2.94c.3-.126.598-.205.949-.254.195-.027.668-.027.864 0 .416.056.769.161 1.131.337.399.193.675.392 1.009.726.292.293.472.536.681.92l.044.082-.158.117c-.217.161-.726.524-.892.637l-.137.093-.056-.122a2.305 2.305 0 0 0-.2-.361 2.203 2.203 0 0 0-1.391-.93 2.43 2.43 0 0 0-.95.017 2.398 2.398 0 0 0-.891.429 3.03 3.03 0 0 0-.373.37 2.35 2.35 0 0 0-.125 2.768c.379.566.96.929 1.618 1.01.116.014.397.014.513 0a2.267 2.267 0 0 0 1.489-.837c.108-.136.184-.254.27-.422.038-.073.072-.133.076-.133s.272.189.596.421l.589.421-.06.113a3.761 3.761 0 0 1-1.632 1.554c-.37.181-.762.296-1.179.347a7.435 7.435 0 0 1-.64.015zm5.037-3.831V24.48h1.43v2.647h3.735V24.48h1.43v7.374h-1.43V28.61H9.924v3.244h-1.43v-3.687zm8.04 3.034 1.634-3.687 1.344-3.033h2.006l1.625 3.642 1.646 3.687.02.045h-1.712l-.661-1.462-3.827.005-.654 1.457h-1.712l.29-.654zm5.298-2.296c-.006-.026-1.305-2.93-1.311-2.93-.004 0-1.238 2.88-1.258 2.935-.002.006.491.01 1.284.01 1.095 0 1.287-.002 1.284-.015zm4.132-.738V24.48h2.012l3.148 4.422.005-4.422h1.441v7.374l-1.156-.006-1.997-2.772c-1.098-1.524-2-2.772-2.005-2.772s-.008 1.248-.008 2.774v2.775h-1.441v-3.687zm9.21 0V24.48h5.154v1.483h-3.714v1.473h3.436v1.483h-3.436v1.473h4.247v1.462h-5.688v-3.687zm7.705 0V24.48h1.441v5.912h4.013v1.462H42.88v-3.687zM18.19 22.605c-1.539-.071-3.253-.539-4.635-1.264a10.904 10.904 0 0 1-2.782-2.062c-.69-.691-1.199-1.327-1.63-2.038l-.189-.311.268-.142a198.76 198.76 0 0 1 2.917-1.494c.01 0 .109.134.218.297 1.239 1.846 3.176 3.047 5.444 3.374.396.057 1.588.048 2.02-.015a9.566 9.566 0 0 0 1.422-.323c.024-.008-.022-.082-.126-.205-.811-.955-1.549-2.267-1.965-3.488a11.274 11.274 0 0 1-.154-6.806 11.236 11.236 0 0 1 1.983-3.822c.131-.163.239-.308.239-.32 0-.044-.689-.227-1.14-.303-.697-.118-1.789-.133-2.419-.033-1.06.169-2.137.566-2.977 1.099a7.848 7.848 0 0 0-2.342 2.285l-.275.41-.351-.184-1.591-.825-1.246-.645c-.011-.01.416-.689.592-.942.534-.768 1.482-1.785 2.183-2.341C13.486 1.053 15.522.234 17.815.029c.425-.038 1.48-.038 1.89-.001 1.456.134 2.703.487 3.992 1.129l.616.307.206-.117c.333-.19.925-.463 1.375-.635A10.731 10.731 0 0 1 29.831 0c.98 0 1.798.097 2.686.316a11.057 11.057 0 0 1 5.191 2.887c.799.78 1.425 1.577 1.931 2.456l.077.133-1.247.643c-.686.354-1.403.725-1.595.826l-.347.182-.263-.396a7.772 7.772 0 0 0-5.735-3.443c-.687-.064-1.706-.005-2.326.134-.319.072-.837.22-.837.239 0 .01.085.122.188.249 1.329 1.631 2.159 3.619 2.427 5.815.064.524.073 1.862.015 2.381-.242 2.191-1.071 4.213-2.393 5.84-.3.369-.287.343-.191.381.045.018.258.076.472.131a7.962 7.962 0 0 0 3.362.112 7.736 7.736 0 0 0 4.965-3.26c.108-.159.205-.299.216-.312s.279.106.594.264c.625.313 2.583 1.327 2.604 1.347.035.035-.589.961-.972 1.442-.362.456-1.312 1.404-1.766 1.764-1.64 1.299-3.48 2.094-5.506 2.377-2.327.326-4.791-.11-6.797-1.203l-.283-.154-.352.186a11.229 11.229 0 0 1-5.762 1.267zm6.501-6.401a7.898 7.898 0 0 0 1.725-4.152c.05-.501.02-1.522-.058-1.979-.215-1.256-.674-2.332-1.415-3.316a9.128 9.128 0 0 0-.451-.55l-.198-.213-.184.199a9.358 9.358 0 0 0-.848 1.126c-1.032 1.669-1.369 3.718-.932 5.669a8.039 8.039 0 0 0 1.759 3.441l.196.225.086-.081c.047-.045.191-.211.319-.37z"/></symbol><symbol id="d-and-g" viewBox="0 0 66 32"><path d="M0 .922h7.035c1.682 0 3.339.127 4.971.408 1.631.255 3.161.969 4.588 2.116 1.351 1.147 2.396 2.6 3.161 4.359s1.173 3.569 1.249 5.455a2.1 2.1 0 0 1 .025.408v.688c-.025 1.937-.433 3.824-1.198 5.633s-1.861 3.314-3.339 4.486c-1.3.943-2.677 1.555-4.155 1.835a29.14 29.14 0 0 1-4.512.51H-.001V.921zm5.149 21.234c.178 0 .357 0 .561.025h1.045c.178.025.306.051.459.051h.433c.255 0 .484-.025.739-.025s.51-.025.765-.051a13.292 13.292 0 0 0 2.243-.408c.714-.229 1.351-.535 1.886-.994.816-.688 1.453-1.657 1.861-2.83.433-1.198.663-2.422.663-3.696v-.535a11.11 11.11 0 0 0-.637-3.671c-.408-1.198-1.02-2.167-1.81-2.906a4.78 4.78 0 0 0-2.014-1.122c-.739-.204-1.529-.306-2.345-.357-.178-.025-.357-.025-.535-.025H5.149v16.544zm30.385 4.257-1.555-1.861a9.277 9.277 0 0 1-2.345 1.529 7.895 7.895 0 0 1-2.677.714c-.102 0-.178.025-.28.025h-.28c-.204 0-.382-.025-.586-.025l-.612-.076a11.198 11.198 0 0 1-1.173-.306 8.74 8.74 0 0 1-1.096-.535c-.637-.433-1.147-1.02-1.529-1.733s-.637-1.453-.714-2.192v-.943c0-.025.025-.051.025-.051.025-.051.025-.051.025-.102v-.127c.025-.051.025-.102.025-.127.204-1.122.663-2.039 1.402-2.779a15.056 15.056 0 0 1 2.473-1.937 8.95 8.95 0 0 1-1.376-1.937 4.155 4.155 0 0 1-.561-2.09c0-.153 0-.28.025-.459.025-.127.025-.28.051-.408l.076-.306c.025-.102.051-.204.076-.28.306-.994.918-1.708 1.81-2.141a6.1 6.1 0 0 1 2.83-.688c1.274 0 2.422.331 3.467 1.02s1.581 1.682 1.581 3.008v.331a3.696 3.696 0 0 1-.918 2.141 14.444 14.444 0 0 1-1.708 1.606c-.153.076-.28.153-.408.255s-.255.178-.382.28l3.161 3.696c.178-.153.331-.331.484-.484.178-.153.306-.306.459-.484.306-.306.637-.637.943-.969s.612-.663.892-.994l2.116 2.218c-.255.255-.484.51-.739.765-.229.229-.459.484-.688.765-.28.229-.51.484-.765.739-.229.255-.459.51-.688.739l3.467 4.206h-4.308zm-8.973-3.9c.204.255.408.484.586.663.204.178.408.306.612.408.204.127.408.204.612.255s.382.077.586.077c.408 0 .816-.102 1.173-.255s.688-.357.994-.586c.255-.178.586-.459.918-.79l-3.543-4.231c-.102.051-.178.102-.255.153s-.153.102-.204.153c-.382.331-.739.688-1.071 1.096s-.586.816-.714 1.275l-.076.306c-.025.127-.025.255-.025.357 0 .204.025.382.102.586.077.178.178.357.306.535zm2.83-8.132c.025 0 .051-.025.077-.025.025-.025.025-.025.076-.051.026-.025.051-.025.076-.076h.051c.382-.28.765-.586 1.096-.892s.535-.714.663-1.198v-.357c0-.51-.204-.943-.561-1.249a2.313 2.313 0 0 0-1.147-.561h-.408c-.306.025-.612.178-.918.408-.28.229-.433.561-.484 1.02v.076c-.025.025-.025.051-.025.102v.076c-.025.025-.025.051-.025.102 0 .382.102.765.331 1.096.204.331.459.663.688.969.127.102.204.204.28.28.076.102.153.204.229.28zm36.834-1.657v.867c0 2.32-.382 4.512-1.172 6.551-.765 2.065-2.269 3.722-4.537 4.971-.714.484-1.504.816-2.371 1.096-.867.229-1.733.433-2.575.535-.331.025-.612.051-.892.051-.306 0-.586.025-.867.025h-.51c-.153 0-.306-.025-.484-.051a14.748 14.748 0 0 1-6.041-1.708 13.03 13.03 0 0 1-4.716-4.053c-.586-.918-1.045-1.912-1.402-2.931s-.612-2.065-.714-3.135a73.96 73.96 0 0 1-.077-.663c0-.229-.025-.459-.025-.688 0-2.498.663-4.843 1.937-7.086 1.3-2.269 3.135-3.951 5.481-5.124.51-.255 1.02-.459 1.555-.612s1.071-.306 1.631-.433a11.393 11.393 0 0 1 1.58-.255c.51-.051 1.045-.077 1.529-.077h.382c2.039.051 4.002.535 5.914 1.427a15.23 15.23 0 0 1 4.945 3.747l-3.747 2.728c-1.02-1.02-2.09-1.784-3.263-2.345a8.246 8.246 0 0 0-3.671-.841c-.433 0-.867.051-1.3.077-.459.076-.918.153-1.377.255-1.912.586-3.365 1.708-4.333 3.339s-1.453 3.339-1.453 5.2v.408c.025.153.051.28.077.433 0 .076 0 .153.025.204.025.076.025.153.025.229.025.051.025.127.051.204s.025.153.025.204c.331 2.014 1.198 3.594 2.6 4.741s2.931 1.835 4.563 2.065c.204.076.459.102.714.127h.714c1.555 0 2.931-.408 4.155-1.249s1.835-2.014 1.835-3.594l.077-.153H54.14v-4.486h12.083zM18.022 29.141h.969c.688 0 1.275.612 1.275 1.376s-.586 1.377-1.275 1.377h-.969v-2.753zm.408.331v2.09h.459c.612 0 .943-.51.943-1.02 0-.535-.331-.969-.841-1.045l-.561-.025zm3.492-.382c.841 0 1.504.637 1.504 1.427s-.663 1.453-1.504 1.453-1.529-.663-1.529-1.453.688-1.427 1.529-1.427zm0 .331a1.083 1.083 0 1 1 0 2.167 1.082 1.082 0 0 1-1.096-1.071c0-.612.484-1.096 1.096-1.096zm1.632-.28h.408v2.422h.79v.331h-1.198v-2.753zm2.498-.077c.306 0 .612.102.867.255v.51a1.126 1.126 0 0 0-.867-.408c-.612 0-1.096.484-1.096 1.096a1.104 1.104 0 0 0 1.963.688v.51a1.505 1.505 0 0 1-.867.255c-.816 0-1.504-.663-1.504-1.453s.688-1.453 1.504-1.453zm1.402 2.498h.994v.331h-1.402V29.14h1.402v.331h-.994v.79h.994v.331h-.994v.969zm2.523.153c-.025.051-.076.076-.153.102-.051.025-.102.051-.178.076h-.204c-.051-.025-.076-.051-.127-.076-.025-.025-.051-.077-.102-.127a.19.19 0 0 0-.051-.127v-.076h.025v-.051a.763.763 0 0 1 .102-.204c.076-.025.127-.076.204-.127-.025-.051-.076-.102-.102-.153a.195.195 0 0 1-.051-.127v-.076h.025c0-.076.051-.102.102-.153s.102-.051.153-.051h.051c.076 0 .153.026.204.076s.077.102.077.204c0 .076 0 .127-.051.178-.076.076-.127.102-.178.153l.306.357c0-.025.026-.076.076-.102.026-.051.026-.076.076-.102l.077.102c0 .025-.025.051-.051.076s-.051.076-.076.102h-.026v.025l.204.255h-.178l-.153-.153zm-.357.051a.356.356 0 0 0 .153-.051l.102-.102h.025v-.025l-.331-.382c0 .025 0 .025-.026.025-.051.025-.051.051-.076.051-.051.025-.051.051-.077.077-.025 0-.025.025-.025.051v.025c-.025.025-.025.051-.025.051v.025c0 .076.025.127.076.178s.102.076.178.076h.025zm-.127-.969v.025c0 .025 0 .051.026.102.025.025.051.051.051.076.025 0 .025 0 .051.025h.025c.051-.025.076-.025.102-.076a.345.345 0 0 0 .076-.102v-.025c0-.051-.025-.076-.051-.102s-.076-.051-.102-.051h-.025c-.025 0-.076 0-.102.051-.026 0-.051.025-.051.076zm3.033-1.733c.535 0 1.02.28 1.3.688l-.357.178a1.114 1.114 0 0 0-.943-.51c-.612 0-1.096.484-1.096 1.096s.484 1.096 1.096 1.096c.51 0 .918-.255.969-.79h-.892v-.306h1.326s0-.841 0 0c0 .867-.484 1.478-1.402 1.478-.943 0-1.529-.663-1.529-1.478s.688-1.453 1.529-1.453zm1.173 2.83 1.122-2.753h.28l1.122 2.753h-.433l-.306-.79h-1.045l-.306.79H33.7zm.892-1.122.382-.994.357.994h-.739zm5.634 1.122 1.122-2.753h.28l1.122 2.753h-.433l-.306-.79h-1.045l-.306.79h-.433zm.892-1.122.382-.994.382.994h-.765zm4.537 1.122 1.147-2.753h.255l1.147 2.753h-.433l-.331-.79h-1.02l-.331.79h-.433zm.918-1.122.357-.994.382.994h-.739zm-9.355-1.3c.28.025.382.127.382.408s-.204.408-.433.408h-.357v-.816h.408zm.025 1.147h.025c.204 0 .561.051.561.484 0 .382-.306.459-.612.459h-.408v-.943h.433zm-.535 1.275h.714c.484 0 .841-.331.841-.79 0-.357-.229-.612-.535-.714a.677.677 0 0 0 .28-.561c0-.408-.28-.688-.688-.688h-.943v2.753h.331zm2.6-2.422c.255.025.357.127.382.408 0 .28-.204.408-.433.408h-.357v-.816h.408zm.025 1.147c.204 0 .561.051.561.484 0 .382-.306.459-.612.459h-.382v-.943h.433zm-.535 1.275h.714c.484 0 .816-.331.816-.79a.72.72 0 0 0-.51-.714.677.677 0 0 0 .28-.561c0-.408-.28-.688-.688-.688h-.943v2.753h.331zm4.155-2.753h.255l1.937 2.039v-2.039h.357v2.753h-.28l-1.886-2.014v2.014h-.382v-2.753z"/></symbol><symbol id="fendi" viewBox="0 0 32 32"><path style="fill:var(--color2,#000)" d="M2.093 20.96v3.525H.471v-8.379h5.55v1.487H2.093v1.881h3.44v1.487h-3.44zm10.756-4.854v1.487H8.705v1.758h3.807v1.487H8.705v2.16h4.329v1.487H7.109v-8.379h5.74zm6.268 5.833v-5.834h1.516v8.379h-1.625l-3.197-5.978h-.02v5.978h-1.516v-8.379h1.713l3.108 5.834h.02zm6.238-4.375c.303 0 .585.058.844.174s.481.373.667.768c.186.395.279.968.279 1.719 0 .488-.058.945-.175 1.371s-.308.77-.575 1.034c-.266.264-.606.396-1.02.396h-1.582v-5.463h1.562zm.217 6.921c.609 0 1.127-.136 1.552-.407.421-.269.761-.63.999-1.055l.008-.015c.231-.406.412-.878.517-1.377l.006-.032c.102-.497.154-.998.154-1.501 0-.45-.047-.903-.14-1.359a4.254 4.254 0 0 0-.496-1.302l.011.02c-.231-.399-.557-.724-.979-.975s-.944-.376-1.566-.376h-3.441v8.38h3.375zm5.958-8.379v8.379h-1.623v-8.379h1.623zM13.16 5.633l-.016 7.28h1.088v-3.79h1.764v-.957h-1.764v-1.52h3.134l.013-1.007-4.218-.006z"/><path style="fill:var(--color2,#000)" d="m18.84 12.913.016-7.28h-1.088v3.79h-1.764v.957h1.764v1.52h-3.133l-.013 1.007 4.218.006z"/></symbol><symbol id="gucci" viewBox="0 0 31 32"><path d="M6.175 4.48v1.446c-.52.462-1.764.737-2.689.737-.924 0-3.483-.578-3.483-3.296S2.439.064 3.421.064c.984 0 2.031.18 2.638.586v1.272c0 .159-.217.145-.217 0C5.828 1.705 5.249.405 3.803.433 2.242.465 1.187 1.692 1.187 3.31S2.212 6.317 3.76 6.273c.503-.014 1.026-.173 1.28-.384l.006-1.408c0-.404-.245-.549-.491-.549-.16 0-.16-.231 0-.231h2.11c.159 0 .159.245 0 .231-.244 0-.491.145-.491.549zm14.224-2.558c0 .159-.159.145-.159 0-.015-.217-.593-1.561-2.039-1.531-1.561.031-2.617 1.301-2.617 2.919s1.012 3.05 2.559 3.007c1.547-.044 2.284-1.575 2.342-1.778s.159-.173.159-.014V5.71c-.635.462-1.836.954-2.76.954s-3.483-.578-3.483-3.296C14.401.649 16.83 0 17.812 0c.984 0 1.981.245 2.589.649v1.273zM30.75.159c.231 0 .231.217 0 .217-.247 0-.492.145-.492.549v4.813c0 .404.245.549.492.549.231 0 .231.289 0 .289h-2.125c-.231 0-.231-.289 0-.289.247 0 .492-.145.492-.549V.925c0-.405-.245-.549-.492-.549-.231 0-.231-.217 0-.217h2.125zm-16.899 0c.231 0 .231.217 0 .217-.245 0-.491.145-.491.549l-.028 3.159c0 1.512-1.227 2.624-2.74 2.624S7.897 5.596 7.897 4.084V.925c0-.405-.247-.549-.492-.549-.231 0-.231-.217 0-.217h2.139c.231 0 .231.217 0 .217-.247 0-.492.145-.492.549L9.05 4.452c0 1.067.872 1.932 1.939 1.932s1.932-1.082 1.932-2.148L12.869.924c0-.405-.245-.549-.492-.549-.23 0-.23-.217 0-.217h1.474zm1.978 14.161a9.178 9.178 0 0 1 4.122-.962h.015-.001a9.323 9.323 0 1 1-4.188 17.654l.054.024a9.188 9.188 0 0 1-4.127.964 9.321 9.321 0 0 1-.008-18.642c1.486 0 2.885.346 4.132.962zm1.879 1.224a9.222 9.222 0 0 1 2.963 4.578l.015.065h-1.932a7.527 7.527 0 0 0-2.899-3.727l-.027-.017a7.529 7.529 0 0 0-2.905 3.69l-.017.052-1.931.001a9.328 9.328 0 0 1 2.975-4.639l.014-.012a7.434 7.434 0 0 0-2.243-.339h-.028.001a7.481 7.481 0 1 0 2.294 14.606l-.053.015a9.267 9.267 0 0 1-3.262-6.359l-.002-.032h4.435v1.86l-2.157-.001a7.545 7.545 0 0 0 2.857 3.613l.027.017a7.505 7.505 0 0 0 2.861-3.579l.017-.051-2.157.001v-1.86h4.435a9.282 9.282 0 0 1-3.281 6.369l-.014.012a7.338 7.338 0 0 0 2.269.352c4.132 0 7.481-3.349 7.481-7.481a7.48 7.48 0 0 0-9.79-7.118l.053-.015zm9.76-13.622c0 .159-.159.145-.159 0-.014-.217-.593-1.561-2.039-1.531-1.561.031-2.617 1.301-2.617 2.919s1.012 3.05 2.559 3.007 2.284-1.575 2.342-1.778.16-.173.16-.014V5.71c-.636.462-1.836.954-2.762.954-.924 0-3.483-.578-3.483-3.296C21.469.649 23.898 0 24.881 0c.983 0 1.981.245 2.587.649v1.273z"/></symbol><symbol id="hermes" viewBox="0 0 32 32"><path style="fill:var(--color2,#000);transform:scale(1.1)" d="M28.578 18.481a.528.528 0 0 1-.162.149.268.268 0 0 1-.149.032c-.117 0-.214-.039-.285-.117s-.104-.208-.104-.389v-.513c0-.188.032-.318.104-.396s.169-.117.285-.117a.38.38 0 0 1 .227.071.444.444 0 0 1 .136.233.52.52 0 0 0 .104.227c.071.078.201.156.383.24.182.078.383.117.603.117.344 0 .623-.078.843-.24.136-.097.208-.214.208-.357 0-.097-.039-.182-.104-.266s-.175-.156-.324-.208a5.041 5.041 0 0 0-.668-.156c-.421-.078-.733-.169-.947-.279s-.389-.259-.512-.46a1.2 1.2 0 0 1-.182-.638v-.011.001c0-.363.149-.681.454-.96.311-.273.707-.409 1.193-.409.201 0 .383.019.552.065.162.039.318.11.454.195a.43.43 0 0 1 .298-.143c.11 0 .201.039.273.117s.11.208.11.389v.577c0 .182-.039.311-.11.396a.381.381 0 0 1-.273.117.368.368 0 0 1-.246-.091c-.052-.039-.097-.123-.123-.253a.67.67 0 0 0-.104-.272c-.071-.091-.182-.175-.324-.24s-.312-.091-.5-.091c-.279 0-.493.058-.655.188s-.24.259-.24.402c0 .097.032.188.097.272a.588.588 0 0 0 .292.208c.084.032.318.091.713.169.389.078.694.162.902.253s.383.233.526.434c.136.195.208.428.208.701 0 .376-.13.681-.396.908-.357.298-.804.447-1.356.447a2.46 2.46 0 0 1-.616-.078 2.747 2.747 0 0 1-.599-.234l.015.007zm-10.801-2.9v2.316h.311c.208 0 .357.032.441.104a.356.356 0 0 1 .136.286c0 .11-.045.208-.136.279-.084.071-.233.104-.441.104h-1.122c-.208 0-.357-.032-.441-.104a.341.341 0 0 1-.13-.285c0-.11.039-.201.123-.279.091-.071.227-.104.402-.104v-3.042c-.149-.013-.259-.052-.337-.123s-.117-.162-.117-.266c0-.117.045-.208.136-.279.084-.078.233-.11.435-.11h.94l1.168 2.342 1.148-2.342h.947c.208 0 .35.039.441.11.084.071.13.162.13.279 0 .104-.039.195-.117.266s-.188.11-.337.123v3.042c.182 0 .311.032.402.11.084.072.13.163.13.279 0 .11-.045.208-.136.279-.084.071-.233.104-.441.104H20.19c-.208 0-.35-.032-.441-.104a.362.362 0 0 1-.13-.285c0-.11.045-.201.13-.279.091-.071.233-.104.441-.104h.312v-2.316l-.986 2.27h-.74l-.999-2.27zm-5.26.383h.597c.221 0 .415-.039.59-.104.234-.091.389-.097.474-.201.078-.097.123-.11.123-.208 0-.149-.078-.285-.234-.409s-.376-.188-.675-.188h-.876v1.109zm0 .688v1.245h.273c.188 0 .318.032.396.104s.117.169.117.286c0 .11-.039.208-.117.279s-.208.104-.396.104h-1.161c-.182 0-.311-.032-.389-.104s-.117-.169-.117-.285c0-.11.039-.208.117-.279s.208-.104.389-.104h.123v-3.042h-.123c-.182 0-.311-.032-.389-.11-.078-.071-.117-.162-.117-.279s.039-.214.117-.285.208-.104.389-.104h1.732c.662 0 1.706.253 1.706 1.09 0 .811-.136.765-.662 1.051.409.266.59.636.623 1.68.195 0 .499.013.564.058a.38.38 0 0 1 .162.331c0 .11-.039.208-.11.279-.078.071-.208.11-.396.104l-1.148-.045c-.039-1.505-.104-2.004-.83-1.972h-.752zm-5.021.136v1.116H9.39v-.409c0-.188.039-.318.104-.396a.352.352 0 0 1 .272-.117c.104 0 .195.039.266.117s.104.208.104.396v1.174H6.639c-.182 0-.311-.032-.383-.104a.357.357 0 0 1-.117-.279c0-.11.039-.201.117-.273s.201-.11.383-.11h.11v-2.99h-.11c-.182 0-.311-.032-.383-.104-.078-.071-.117-.162-.117-.279s.039-.208.117-.279c.071-.071.201-.104.383-.104h3.334v1.168c0 .182-.039.311-.104.389s-.156.117-.266.117c-.117 0-.201-.039-.272-.117s-.104-.208-.104-.389v-.402H7.495v1.109h.655l.83-.013.039.746-.869.032h-.655zm16.891 0v1.116h1.901v-.409c0-.188.032-.318.097-.396.071-.078.162-.117.272-.117s.195.039.266.117c.071.078.104.208.104.396v1.174h-3.496c-.182 0-.305-.032-.383-.104s-.117-.162-.117-.279c0-.11.039-.201.117-.273s.208-.11.383-.11h.117v-2.99h-.117c-.182 0-.305-.032-.383-.104s-.117-.162-.117-.279c0-.117.039-.208.117-.279s.201-.104.383-.104h3.334v1.168c0 .182-.032.311-.104.389-.065.078-.156.117-.266.117s-.201-.039-.272-.117c-.065-.078-.104-.208-.104-.389v-.402h-1.732v1.109h.655l.83-.013.045.746-.876.032h-.655zm-20.699-.052H1.911v1.142h.13c.201 0 .344.039.428.117.084.071.13.169.13.286s-.045.208-.13.279c-.084.078-.227.11-.428.11H1.023c-.195 0-.337-.032-.428-.11a.356.356 0 0 1-.123-.285c0-.143.065-.253.195-.337.065-.039.208-.058.415-.058v-3.088a.547.547 0 0 1-.331-.13.372.372 0 0 1-.11-.272c0-.117.045-.214.13-.285s.227-.11.428-.11l.843.006c.201 0 .344.032.428.104.084.078.13.169.13.285 0 .123-.045.221-.13.292s-.227.11-.428.11h-.13v1.155h1.777v-1.155h-.13c-.201 0-.344-.039-.428-.11s-.13-.169-.13-.292c0-.117.045-.214.13-.285s.227-.11.428-.11l.843.006c.201 0 .344.032.428.104.084.078.13.169.13.285 0 .11-.039.201-.11.272a.553.553 0 0 1-.331.13v3.088c.214 0 .35.026.409.058a.38.38 0 0 1 .201.344.345.345 0 0 1-.13.279c-.084.078-.227.11-.422.11H3.559c-.201 0-.344-.032-.428-.11-.084-.071-.13-.169-.13-.285s.045-.208.13-.279c.084-.078.227-.117.428-.117h.13v-1.142zm20.823-3.516.986.169c.117.019.195.065.233.13.032.052.039.11.019.175a.259.259 0 0 1-.109.136l-.001.001c-.045.026-.117.033-.22.013l-.986-.169c-.117-.019-.195-.058-.233-.123-.032-.058-.039-.117-.019-.175s.052-.11.11-.136c.045-.026.117-.032.22-.019z"/></symbol><symbol id="louis-vuitton" viewBox="0 0 32 32"><path style="fill:var(--color2,#000)" d="M28.219 28.62h.338v2.861l-2.069-2.166v2.059h-.348v-2.891l2.078 2.175v-2.04zm-9.725 0v1.75c0 .309-.087.561-.261.754-.183.213-.435.309-.754.309-.3 0-.551-.097-.735-.309-.183-.194-.271-.445-.271-.754v-1.75h.348v1.634c0 .57.213.861.657.861.454 0 .677-.29.677-.861V28.62h.338zm1.064 0h1.653v.319h-.657v2.436h-.329v-2.436h-.667v-.319zm-.6 0h.348v2.755h-.348V28.62zm-3.045 0h.377l-1.199 2.91-1.199-2.91h.377l.822 2.04.822-2.04zm9.589 1.382c0 .309-.106.57-.329.793-.203.213-.464.319-.764.319s-.561-.106-.783-.319c-.222-.222-.329-.483-.329-.793s.097-.57.309-.783c.213-.222.483-.329.802-.329s.58.106.783.329c.203.213.309.474.309.783zm-.077-1.015a1.42 1.42 0 0 0-1.015-.425 1.43 1.43 0 0 0-1.025.425c-.28.28-.425.619-.425 1.015 0 .406.145.744.425 1.025.28.271.619.406 1.025.406a1.39 1.39 0 0 0 1.015-.406c.28-.28.425-.619.425-1.025 0-.396-.145-.735-.425-1.015zm-2.542-.367v.319h-.648v2.436h-.348v-2.436h-.657v-.319h1.653zm-15.989.599c.203.213.3.474.3.783s-.106.57-.319.793c-.213.213-.474.319-.773.319s-.561-.106-.783-.319c-.203-.222-.319-.483-.319-.793s.106-.57.309-.783c.213-.222.474-.329.793-.329s.59.106.793.329zm.222-.232a1.42 1.42 0 0 0-1.015-.425c-.396 0-.744.145-1.015.425a1.36 1.36 0 0 0-.435 1.015c0 .406.145.744.435 1.025.271.271.609.406 1.015.406s.744-.135 1.015-.406c.29-.28.425-.619.425-1.025a1.35 1.35 0 0 0-.425-1.015zm1.054 1.266c0 .57.222.861.667.861.435 0 .667-.29.667-.861v-1.634h.338v1.75c0 .309-.087.561-.271.754-.184.213-.435.309-.735.309-.309 0-.551-.097-.735-.309-.193-.194-.28-.445-.28-.754v-1.75h.348v1.634zM3.781 28.62v2.446h.841v.309H3.443V28.62h.338zm8.285 1.131c.464.183.686.454.686.822a.813.813 0 0 1-.261.619.824.824 0 0 1-.609.242.812.812 0 0 1-.58-.222.892.892 0 0 1-.28-.551l.348-.078c0 .155.048.28.155.387a.523.523 0 0 0 .377.145.499.499 0 0 0 .367-.164.545.545 0 0 0 .135-.377c0-.213-.155-.386-.474-.522l-.193-.067c-.387-.184-.59-.416-.59-.706 0-.213.087-.396.242-.522a.851.851 0 0 1 .57-.193c.319 0 .551.145.706.425l-.271.155a.502.502 0 0 0-.445-.251.518.518 0 0 0-.319.097.356.356 0 0 0-.145.29c0 .164.126.29.396.387l.184.087zm-1.76-1.131h.348v2.755h-.348V28.62zM23.881 3.715l-6.667 15.737-1.839-4.036 3.398-9.248c.256-.715 1.149-1.047 2.657-1.047l.536-1.405h-7.919l-.511 1.405c1.124 0 1.584.332 1.405 1.047l-1.686 4.7-3.321-7.153c-.613-.766-.307-1.15.894-1.15V.905H3.164v1.66c1.431 0 2.325.383 2.708 1.15l5.62 11.956-2.631 7.025c-.051.945-1.533 1.405-4.394 1.405l-.536 1.405h21.867l3.04-6.463h-1.584c-1.482 3.346-3.193 5.058-5.109 5.058h-10.04l1.482-3.96 1.277 2.554h2.861l8.072-18.981c.383-1.15 1.38-1.763 2.938-1.763V.469h-6.591v1.482c1.993 0 2.555.613 1.737 1.763z"/></symbol><symbol id="prada" viewBox="0 0 201 32"><path d="M26.044.831c3.973.69 7.395 4.16 7.458 9.569-.199 5.582-4.342 8.343-8.372 9.638l-13.297-.07.258 8.716 2.486 2.914-13.79-.02 2.252-3.167V4.209L.001.902zM11.34 2.45v15.548l10.202.071c2.321-1.807 4.081-3.19 4.011-7.528-.033-3.537-.807-6.621-4.222-8.091H11.34zM65.926.656c3.974.69 7.395 4.16 7.458 9.568-.2 5.582-4.342 8.343-8.372 9.638l-10.146-.053 3.175 2.61h9.008l10.791 9.008-11.823.093-14.246-11.728h-.055l.258 8.716 2.486 2.914-13.789-.019 2.252-3.168V4.033L39.885.725zM51.223 2.273v15.548l10.202.071c2.322-1.807 4.081-3.19 4.011-7.529-.033-3.536-.807-6.621-4.222-8.091zm39.914-.818 4.488 5.779v1.478L85.002 30.311l-2.815.844 6.473.141-1.056-.985c-.54-.815.188-1.313.282-1.969l2.814-5.77 13.157-.071 3.87 5.981.141 2.064-2.252.68h14.986c-1.337-.939-3.341-.674-4.011-2.815L101.113.691h-11.89zm.395 19.143 5.465-9.985 5.689 9.929zM171.54 1.516l4.488 5.778v1.479l-10.623 21.599-2.815.844 6.472.141-1.056-.985c-.539-.815.188-1.313.282-1.971l2.814-5.768 13.157-.071 3.869 5.979.141 2.064-2.252.681h14.987c-1.337-.939-3.341-.674-4.011-2.815L181.514.751h-11.89zm.395 19.143 5.465-9.985 5.69 9.928zM124.713.402l21.182.113c6.821 1.542 11.161 5.564 12.506 12.58l-.057 5.472c-1.244 6.252-5.318 10.565-12.506 12.749l-21.238.058-.003-.662c3.229-.235 3.487-.591 3.495-2.441V3.336c-.036-1.368-.319-2.219-3.436-2.313zm12.041 2.134-.02 26.978c2.794.009 5.217.262 6.586-.413 3.102-1.368 4.543-3.468 4.675-5.441l-.074-15.93c.001-2.548-2.865-4.347-4.519-4.816-1.183-.423-3.544-.441-6.648-.378z"/></symbol><symbol id="valentino" viewBox="0 0 32 32"><path style="fill:var(--color2,#000)" d="m2.059 13.719.011.102h-.512l.975 3.518c.252-.845.729-2.304.965-3.163a.253.253 0 0 0-.116-.294c-.074-.039-.242-.025-.34-.028l-.014-.133h1.179v.102c-.158.007-.438.035-.495.193-.498 1.35-1.042 3.174-1.399 4.328h-.056L.914 13.823H.483l-.01-.102h1.589zm3.746 3.089-1.14-.011c-.116.347-.221.768-.298 1.108-.028.133-.01.179.032.239s.302.021.46.031l-.01.098H3.765l-.01-.098c.102-.01.358.028.393-.074.372-1.041.933-3.241 1.305-4.45h.063l1.298 4.524h.41v.098h-1.54v-.098h.519l-.396-1.368zm-.561-2.062-.55 1.974h1.094l-.544-1.974zm2.76-.894h-.537v-.133h1.627v.133H8.55v4.335c.27 0 .551-.014.821-.007 1.028.028 1.227-.396 1.224-1.361l.077-.01-.01 1.466H7.46v-.087h.544v-4.335zm3.503.014h-.47v-.133h2.872l.077 1.14-.074-.01c-.046-.372-.063-.481-.221-.691s-.445-.281-.758-.284l-.863-.01-.01 2.076c.151-.004.305-.004.456-.014.151-.007.379-.088.46-.203s.095-.323.109-.614h.081l.01 1.694h-.112c0-.007-.004-.017-.004-.031-.004-.203.025-.375-.098-.558-.074-.116-.312-.2-.523-.193l-.379.011.01 2.15c.515-.003 1.413.088 1.803-.305.165-.165.207-.519.207-.891l.105.007-.007 1.269h-3.132l-.01-.091h.47v-4.317zm6.236.011c-.066-.063-.34-.039-.47-.039l.01-.119 1.123.007v.095c-.376.01-.502-.039-.512.337-.035 1.052-.007 3.353-.01 4.184l-.098.007-2.585-4.331c-.007.642-.025 2.908-.025 3.809 0 .452.242.34.568.333v.116h-1.189v-.095c.54-.014.537.017.544-.649.01-1.182.018-2.438.021-3.707-.266.004-.403.007-.537.007v-.112l1.15.007 2.059 3.427c-.003-.344.01-2.332.003-3.055-.003-.126-.031-.207-.052-.221zm9.406.003c-.066-.063-.34-.039-.47-.042l.01-.116 1.123.007v.095c-.376.007-.498-.042-.512.333-.035 1.056-.007 3.353-.01 4.184l-.098.007-2.584-4.331c-.007.645-.025 2.908-.025 3.809 0 .452.242.34.568.333v.116h-1.189v-.095c.54-.014.54.017.544-.645.01-1.186.017-2.438.021-3.707-.263.004-.403.004-.537.004v-.109l1.15.007 2.059 3.423c-.003-.344.01-2.332.003-3.051-.004-.126-.032-.207-.053-.221zm-7.151-.039c-.487-.01-.926.028-1.094.235-.172.207-.154.498-.196.964l-.077.01.007-1.333h3.297l.017 1.343h-.088c-.045-.526-.035-.821-.214-.993s-.691-.239-1.088-.239l-.01 4.338.54.011v.098h-1.656v-.098h.551l.011-4.338zm2.732.011h-.473v-.133h1.508v.133h-.484v4.317h.463v.109h-1.519v-.109h.505v-4.317zm7.081-.119a.724.724 0 0 0-.144.014c-.06.013-.11.027-.159.045l.008-.003c-.196.077-.379.274-.543.593-.165.323-.246.856-.246 1.606 0 .744.08 1.273.242 1.596.165.319.344.519.537.6a.76.76 0 0 0 .614 0c.193-.084.372-.288.533-.607.165-.323.246-.852.246-1.588 0-.681-.07-1.175-.207-1.491s-.288-.53-.453-.638a.681.681 0 0 0-.22-.101l-.005-.001a.917.917 0 0 0-.203-.025zm-1.701 2.265c0-.666.154-1.203.463-1.606.309-.407.645-.645 1.017-.719.038-.007.077-.01.116-.014.038-.007.074-.007.109-.007.442 0 .838.217 1.189.659.351.438.526 1.003.526 1.687 0 .645-.14 1.161-.421 1.55s-.589.635-.923.736a.726.726 0 0 1-.182.049H30a1.06 1.06 0 0 1-.175.014h-.011.001-.002c-.101 0-.2-.014-.293-.04l.008.002a1.56 1.56 0 0 1-.319-.119c-.273-.154-.526-.41-.754-.765-.231-.358-.347-.831-.344-1.428z"/></symbol></defs></svg>