<svg width="1171" height="146" fill="none" xmlns="http://www.w3.org/2000/svg"><path d="M25 48h250H25Zm250 97H35c-6.627 0-12-5.373-12-12h4a8 8 0 0 0 8 8h240v4Zm-240 0c-6.627 0-12-5.373-12-12V48h4v85a8 8 0 0 0 8 8v4Zm240-97v95-95Z" fill="#FFD059"/><path d="M48 25.052c0 12.735-10.301 23.052-23 23.052S2 37.787 2 25.052 12.301 2 25 2s23 10.317 23 23.052Z" stroke="#FFD059" stroke-width="4"/><path d="M17.15 19.787c.677-.28 1.377-.595 2.1-.945.747-.373 1.47-.77 2.17-1.19a33.2 33.2 0 0 0 1.995-1.365 14.226 14.226 0 0 0 1.75-1.54h3.64v24.255H23.59V21.537c-.7.467-1.482.898-2.345 1.295-.863.373-1.703.7-2.52.98l-1.575-4.025Z" fill="#000"/><path d="M314 48h250-250Zm250 97H324c-6.627 0-12-5.373-12-12h4a8 8 0 0 0 8 8h240v4Zm-240 0c-6.627 0-12-5.373-12-12V48h4v85a8 8 0 0 0 8 8v4Zm240-97v95-95Z" fill="#FFD059"/><path d="M337 25.052c0 12.735-10.301 23.052-23 23.052s-23-10.317-23-23.052S301.301 2 314 2s23 10.317 23 23.052Z" stroke="#FFD059" stroke-width="4"/><path d="M321.06 21.117c0 .887-.175 1.738-.525 2.555-.35.817-.805 1.61-1.365 2.38-.56.747-1.19 1.47-1.89 2.17s-1.388 1.365-2.065 1.995c-.35.327-.735.7-1.155 1.12-.396.397-.781.805-1.155 1.225-.373.42-.711.817-1.015 1.19-.28.35-.455.642-.525.875h10.43v4.375h-16.17a5.71 5.71 0 0 1-.07-.98v-.84c0-1.12.175-2.147.525-3.08.374-.933.852-1.797 1.435-2.59a16.597 16.597 0 0 1 1.96-2.275c.747-.7 1.482-1.4 2.205-2.1.56-.537 1.085-1.038 1.575-1.505.49-.49.922-.957 1.295-1.4.374-.467.665-.922.875-1.365.21-.467.315-.933.315-1.4 0-1.027-.291-1.75-.875-2.17-.583-.42-1.306-.63-2.17-.63-.63 0-1.225.105-1.785.315a8.091 8.091 0 0 0-1.505.7 7.726 7.726 0 0 0-1.155.805 8.835 8.835 0 0 0-.735.63l-2.59-3.64a12.981 12.981 0 0 1 3.57-2.345 10.474 10.474 0 0 1 4.41-.945c1.424 0 2.649.163 3.675.49 1.027.327 1.867.793 2.52 1.4a4.994 4.994 0 0 1 1.47 2.17c.327.84.49 1.797.49 2.87Z" fill="#000"/><path d="M619 48h250-250Zm250 97H629c-6.627 0-12-5.373-12-12h4a8 8 0 0 0 8 8h240v4Zm-240 0c-6.627 0-12-5.373-12-12V48h4v85a8 8 0 0 0 8 8v4Zm240-97v95-95Z" fill="#FFD059"/><path d="M642 25.052c0 12.735-10.301 23.052-23 23.052s-23-10.317-23-23.052S606.301 2 619 2s23 10.317 23 23.052Z" stroke="#FFD059" stroke-width="4"/><path d="M617.68 39.527c-.63 0-1.295-.047-1.995-.14-.7-.07-1.376-.175-2.03-.315a22.046 22.046 0 0 1-1.785-.455 10.376 10.376 0 0 1-1.26-.455l1.015-4.34c.607.257 1.377.537 2.31.84.957.28 2.135.42 3.535.42 1.61 0 2.789-.303 3.535-.91.747-.607 1.12-1.423 1.12-2.45 0-.63-.14-1.155-.42-1.575a2.757 2.757 0 0 0-1.085-1.05c-.466-.28-1.026-.467-1.68-.56a11.142 11.142 0 0 0-2.03-.175h-2.03v-4.2h2.31c.514 0 1.004-.047 1.47-.14.49-.093.922-.245 1.295-.455.374-.233.665-.537.875-.91.234-.397.35-.887.35-1.47 0-.443-.093-.828-.28-1.155a2.42 2.42 0 0 0-.735-.805 2.697 2.697 0 0 0-1.015-.455 3.845 3.845 0 0 0-1.155-.175 8.392 8.392 0 0 0-2.8.455c-.84.303-1.61.677-2.31 1.12l-1.855-3.815c.374-.233.805-.478 1.295-.735a14.07 14.07 0 0 1 1.68-.7c.607-.21 1.249-.385 1.925-.525.7-.14 1.435-.21 2.205-.21 1.424 0 2.649.175 3.675.525 1.05.327 1.914.805 2.59 1.435a5.595 5.595 0 0 1 1.505 2.17c.327.817.49 1.715.49 2.695 0 .957-.268 1.89-.805 2.8a5.341 5.341 0 0 1-2.17 2.03c1.26.513 2.229 1.283 2.905 2.31.7 1.003 1.05 2.217 1.05 3.64 0 1.12-.186 2.158-.56 3.115a6.408 6.408 0 0 1-1.75 2.45c-.793.677-1.808 1.213-3.045 1.61-1.213.373-2.66.56-4.34.56Z" fill="#000"/><path d="M912 48h250-250Zm250 97H922c-6.627 0-12-5.373-12-12h4a8 8 0 0 0 8 8h240v4Zm-240 0c-6.627 0-12-5.373-12-12V48h4v85a8 8 0 0 0 8 8v4Zm240-97v95-95Z" fill="#FFD059"/><path d="M935 25.052c0 12.735-10.301 23.052-23 23.052s-23-10.317-23-23.052S899.301 2 912 2s23 10.317 23 23.052Z" stroke="#FFD059" stroke-width="4"/><path d="M912.865 21.117c-.91 1.19-1.878 2.485-2.905 3.885a26.726 26.726 0 0 0-2.59 4.305h5.495v-8.19Zm5.11-6.37v14.56h2.59v4.27h-2.59v5.425h-5.11v-5.425H902.4v-3.815a52.601 52.601 0 0 1 1.925-3.465 66.721 66.721 0 0 1 2.555-3.99 72.324 72.324 0 0 1 3.01-4.025 43.75 43.75 0 0 1 3.15-3.535h4.935Z" fill="#000"/><path d="M1169 145.298c1.1 0 2-.896 2-2 0-1.105-.9-2-2-2v4Zm-1138 0h1138v-4H31v4Z" fill="#FFD059"/></svg>