<svg width="87" height="25" fill="none" xmlns="http://www.w3.org/2000/svg"><path d="M11.942 2.85c2.105 0 4.119.019 5.64.16l-.03-.003c.343.063.936.372 1.245.65l.541.484.049-.725c.034-.518.44-1.937.715-2.389l.33-.539L1.241.51H.856L.89.896c.027.296-.14 1.5-.483 2.498L0 4.579l.967-.798c.411-.339.951-.627 1.229-.654C3.89 2.956 5.2 2.85 8.272 2.85h.004v19.86c0 .715-.615 1.192-.622 1.197l-.94.719 1.18-.084c.492-.035 1.74-.1 2.22-.1.409 0 1.421.054 2.164.1l.935.06-.663-.663c-.167-.167-.598-.708-.598-1.19V2.85h-.01ZM30.728 24.883c3.847 0 7.273-1.307 9.647-3.68 2.327-2.328 3.558-5.517 3.558-9.22 0-3.394-1.068-6.183-3.174-8.29C38.412 1.347 34.78 0 30.795 0 23.24 0 17.961 5.137 17.961 12.493c0 3.588 1.172 6.656 3.39 8.873 2.3 2.301 5.543 3.517 9.377 3.517Zm-6.705-19.89c1.56-1.98 4.079-3.164 6.739-3.164 2.467 0 4.597.827 6.16 2.39 1.962 1.96 2.998 4.963 2.998 8.682 0 6.168-3.476 10.152-8.855 10.152-2.416 0-4.464-.874-6.084-2.6-2.268-2.416-3.15-5.932-3.007-8.176 0-2.783.349-5.076 2.05-7.284ZM45.61 24.373h7.424c3.285 0 7.375 0 10.42-2.672 2.941-2.61 4.37-5.977 4.37-10.296 0-3.65-1.327-6.765-3.736-8.773C61.47.435 58.464.467 55.28.502l-1.167.009h-9.278l.508.585c.293.339.76 1.02.76 1.4v19.778c0 .579-.542 1.281-.75 1.503l-.561.596h.818Zm4.168-21.82c.596-.015.846-.015 1.422-.04.856-.036 1.664-.071 2.475-.071 3.907 0 6.447.72 7.992 2.264 1.463 1.463 2.145 3.753 2.145 7.209 0 4.707-1.57 7.883-4.663 9.443-2.412 1.23-6.011 1.006-8.904.826l-.467-.03V2.552ZM69.05 4.58c-.245-.828-1.16-.911-1.615-1.35-.62-.601-.477-2.13.755-2.69.827-.374 2.187-.039 2.528.768.311.738.248 1.577.04 2.169-.21.59-1.194 3.172-1.506 3.586-.152.2-.46.335-.46.335s.517-1.952.258-2.818ZM72.676 19.485c-.127.958-.29 1.98-.625 2.958l-.068.198.14.155c1.3 1.424 4.205 2.087 5.761 2.087 2.58 0 4.876-.876 6.467-2.467 1.451-1.451 2.218-3.401 2.218-5.639 0-3.994-3.095-5.222-5.827-6.306-2.575-1.021-4.798-1.903-4.798-4.677 0-.983.345-1.849 1-2.503.723-.723 1.751-1.121 2.897-1.121 1.804 0 3.173.97 3.852 2.732l.088.226h.848l.072-.257.122-.438c.225-.81.439-1.576.77-2.3l.108-.236-.193-.174C84.095.453 81.967 0 80.448 0c-4.764 0-7.842 2.702-7.842 6.882 0 4.27 3.127 5.509 5.887 6.603 2.506.992 4.67 1.85 4.67 4.619 0 2.585-1.904 4.61-4.334 4.61-2.222 0-3.717-.975-5.162-3.366l-.103-.17h-.847l-.041.307Z" fill="#231F20"/></svg>