<svg width="172" height="26" fill="none" xmlns="http://www.w3.org/2000/svg"><path d="M27.527.085c-.014.047-.047.157-.075.244-.575 1.887-1.219 4.136-2.783 9.745-1.881 6.744-2.737 9.687-3.599 12.378-.267.836-.705 2.132-.758 2.243a.49.49 0 0 1-.078.098c-.098.096-.261.166-.483.204-.216.038-.298.042-.927.045-.335.002-.621.005-.637.008-.026.004-.028.008-.025.029.003.013.014.12.027.238.012.118.024.23.027.247l.005.033h2.996c1.648 0 2.997 0 2.997-.003.007-.04.058-.537.055-.54-.005-.005-.58-.004-1.423 0-.636.004-.695.002-.882-.048-.148-.04-.199-.075-.277-.193a1.06 1.06 0 0 1-.202-.67c0-.244.02-.368.166-.999.488-2.117.99-3.978 1.471-5.47l.083-.254.182.001c.1.002 1.52.015 3.153.03 1.635.015 2.972.028 2.972.03l1.095 3.775c.6 2.077 1.095 3.781 1.097 3.787.003.008-.287.011-1.434.011h-1.438v.543h8.518v-.543h-2.267l-.08-.283L27.906.015C27.902.002 27.885 0 27.727 0h-.174l-.026.085Zm.39 11.454c.816 2.971 1.487 5.415 1.49 5.43l.006.026h-6.051l.005-.023 3.026-10.857.014-.048.011.035c.007.019.68 2.466 1.498 5.437ZM162.001.009a4.992 4.992 0 0 0-.188.02c-.053.009-.161.02-.241.029-.375.036-.65.09-1.061.21-1.785.52-3.442 1.775-4.96 3.758-.179.235-.319.429-.461.643-1.238 1.86-1.943 4.184-2.115 6.96a25.5 25.5 0 0 0-.009 2.738c.139 2.543.72 4.652 1.746 6.331.089.147.305.477.429.658 1.041 1.514 2.14 2.65 3.327 3.439.389.258.541.343.935.517.492.22.842.341 1.354.473.619.16 1.032.215 1.633.215.384 0 .584-.013.93-.062.366-.052.572-.098.846-.193.084-.03.238-.082.342-.117a14.6 14.6 0 0 0 .324-.114c1.668-.62 3.227-1.922 4.659-3.89.815-1.118 1.419-2.429 1.813-3.929.31-1.18.489-2.481.539-3.928a34.44 34.44 0 0 0 0-1.508c-.103-2.827-.749-5.22-1.957-7.248-.758-1.272-1.859-2.536-2.93-3.364a8.277 8.277 0 0 0-1.357-.867 7.044 7.044 0 0 0-2.721-.762 11.906 11.906 0 0 0-.877-.01Zm.78.46c.352.036.681.101.955.19.387.124.79.339 1.155.613.829.623 1.597 1.743 2.3 3.349.515 1.178.851 2.729 1.031 4.77.174 1.953.186 4.667.031 6.736-.165 2.21-.511 3.912-1.052 5.182-.084.194-.29.609-.432.867-.595 1.079-1.212 1.868-1.878 2.4-.609.488-1.293.76-2.127.848a7.216 7.216 0 0 1-.892-.005 4.172 4.172 0 0 1-1.272-.354c-.974-.437-1.863-1.393-2.704-2.906-.277-.5-.45-.89-.628-1.415-.494-1.457-.789-3.431-.884-5.93a41.675 41.675 0 0 1-.03-1.884c0-1.385.033-2.352.118-3.425.195-2.475.617-4.296 1.294-5.576.768-1.453 1.602-2.438 2.5-2.954.261-.15.485-.24.836-.34.362-.102.651-.157.943-.18a6.51 6.51 0 0 1 .736.014ZM0 .388c0 .011.011.132.026.27l.027.26c0 .008.244.01 1.191.01 1.128 0 1.193.001 1.2.015L6.16 13.46l3.712 12.5h.312l.029-.091 1.638-5.322c2.024-6.583 3.324-10.643 4.613-14.415.627-1.834 1.436-4.103 1.52-4.257.152-.287.468-.512.94-.671.4-.135.94-.227 1.52-.259.1-.005.189-.011.2-.013l.02-.004v-.56h-3.26c-3.1 0-3.26 0-3.26.015.002.06.075.713.082.718.003.004.28.01.617.012.644.006.74.012.955.053.256.05.43.144.615.338.264.274.399.64.383 1.032a1.801 1.801 0 0 1-.02.201c-.037.217-.566 2.062-1.086 3.798-.564 1.88-1.034 3.402-2.366 7.665a562.817 562.817 0 0 0-1.913 6.187c-.005.012-.894-3.187-2.7-9.71L6.017.942c0-.007.477-.01 1.413-.012C8.768.928 8.842.928 8.842.913L8.816.649A9.678 9.678 0 0 1 8.79.384c0-.015-.147-.016-4.395-.016H0v.02ZM38.708.736v.368h2.971v24.003h-3.006v.49h17.72v-.156l.027-4.056c.015-2.145.026-3.901.024-3.903a6.872 6.872 0 0 0-.414.057c-.002.002-.008.259-.013.573-.01.584-.018.784-.04 1.165-.148 2.368-.69 3.79-1.784 4.67-.774.623-1.873.982-3.356 1.094-.404.03-.577.035-1.184.03-1.139-.007-2.412-.002-3.058.013-.344.008-.91.017-1.255.02l-.63.005V1.104H47.718V.368h-9.009v.368ZM78.083.68v.313l.48-.006c.264-.002.93-.012 1.48-.02.55-.009 1.003-.013 1.007-.01.017.017-.04 11.787-.084 17.203-.034 4.23-.04 4.65-.07 5.137-.057.897-.209 1.297-.57 1.507-.26.15-.623.214-1.393.241-.21.007-.918.026-.983.026-.016 0-.016.012-.016.263v.263h6.572v-.64h-.073c-.103 0-.33.015-.724.044-.661.05-.828.057-1.039.044-.423-.025-.678-.122-.881-.33-.241-.247-.368-.627-.412-1.233-.008-.104-.009-.76-.005-2.528a3097.045 3097.045 0 0 1 .126-18.56l.007-.37L88.65 14.01c3.93 6.591 7.151 11.987 7.158 11.988.01.005.305-.014.478-.03l.059-.005v-1.547c0-.85-.005-2.32-.01-3.264-.037-7.505-.037-12.282 0-15.146.021-1.514.057-3.08.08-3.465.061-.992.304-1.386.937-1.522.23-.05.413-.06 1.166-.072.344-.005.648-.011.673-.014l.046-.004V.669c0-.142-.001-.258-.002-.258-.004-.002-6.207-.042-6.208-.04l-.025.277c-.013.152-.025.299-.029.328l-.005.052.262-.007c.65-.013 1.281-.015 1.445-.006.607.039.88.136.984.354.086.177.148.438.182.773.025.24.032 1.674.027 5.304-.003 1.857-.009 4.382-.014 5.611-.005 1.228-.01 3.153-.011 4.277-.001 1.124-.005 2.04-.007 2.036-.003-.003-2.562-4.263-5.686-9.468L84.459.424c-.012-.017-.062-.017-2.443-.03l-3.181-.02-.752-.006V.68ZM100.517.484l-.019 3.684c-.01 1.963-.016 3.57-.013 3.574.003.002.096-.008.209-.023l.209-.027c.003 0 .008-.031.011-.069.002-.037.015-.19.028-.339l.07-.95c.072-1.012.107-1.396.157-1.776.13-.956.347-1.573.734-2.092.293-.39.657-.655 1.212-.878.745-.3 1.718-.464 3.137-.53.27-.012 1.777-.016 1.789-.004.006.005-.029 16.63-.047 22.241l-.005 1.777H104.942v.543h9.158v-.543h-.033c-.175-.002-2.948-.06-2.95-.063-.003-.002.052-22.89.056-23.943V.99h.147c.281.001.827.021 1.185.044 1.773.116 3.27.437 4.11.882.411.217.667.442.896.787.18.271.321.608.422 1.009.147.586.21 1.114.338 2.814.028.383.063.828.076.988l.024.291h.489l-.006-.3c-.005-.283-.092-6.951-.092-7.077v-.06H100.517v.116ZM120.55.736v.368h2.612V25.01l-1.395.002-1.396.003-.003.3-.002.3h8.404v-.605h-2.559V1.104h2.682V.368h-8.343v.368ZM130.133.392a4.518 4.518 0 0 0-.005.303v.298l1.155-.006c.635-.003 1.304-.008 1.486-.012l.33-.005v.643c0 2.677-.055 12.69-.096 17.716l-.018 2.164c-.01 1.335-.021 1.697-.057 2.08-.08.833-.284 1.176-.793 1.336-.279.088-.637.124-1.45.145-.193.004-.43.011-.528.014l-.178.005v.524h6.573v-.64h-.074c-.102 0-.328.015-.723.044-.661.05-.829.057-1.039.044-.345-.02-.588-.093-.768-.229-.315-.235-.478-.653-.525-1.348-.012-.17-.006-3.523.009-6.206.034-5.61.075-11.224.106-14.301l.011-.934c.001 0 3.218 5.391 7.148 11.982a7110.563 7110.563 0 0 0 7.157 11.988c.011.005.305-.014.479-.03l.059-.005v-1.608c-.001-.885-.007-2.72-.015-4.079a1702.53 1702.53 0 0 1-.013-12.273c.019-2.402.051-4.36.089-5.243.046-1.075.252-1.52.785-1.695.259-.085.607-.11 1.549-.11h.496V.432l-.396-.005c-.218-.003-1.446-.012-2.728-.019l-2.708-.015-.376-.002-.029.319c-.016.175-.028.32-.025.323.003.002.282 0 .621-.006.825-.014 1.206 0 1.509.056.32.06.479.146.556.305.101.208.165.526.196.97.014.223.014 6.542-.001 10.621a1961.51 1961.51 0 0 0-.014 4.728c0 .919-.003 1.668-.006 1.664l-5.685-9.459-5.691-9.468c-.011-.015-.142-.016-2.688-.031l-3.179-.02a14.678 14.678 0 0 0-.506 0ZM58.47.815v.368h2.594v23.906H58.47v.018c0 .01.012.119.026.242.015.123.026.23.026.236 0 .01 1.294.012 8.667.012h8.667v-.222c0-.12.008-1.702.019-3.512.01-1.811.016-3.294.015-3.296-.004-.003-.57-.04-.573-.038a17.62 17.62 0 0 0-.012.45c-.012.568-.026.85-.063 1.266-.12 1.365-.403 2.34-.862 2.962-.09.121-.286.328-.43.452-.902.778-2.292 1.247-4.241 1.43-.37.034-.768.06-1.28.08-.347.016-2.055.015-2.629 0a76.883 76.883 0 0 0-1.01-.016l-.598-.006c-.001-.005-.058-11.898-.057-11.9.001-.002.487-.017 1.08-.033.72-.021 1.14-.03 1.269-.026.953.025 1.941.361 2.437.83.136.129.25.292.381.545.172.332.274.672.324 1.077.034.282.038.407.036 1.074 0 .467.002.666.01.723l.01.079.31.003.308.001V17.2c0-.178-.012-2.177-.026-4.444l-.026-4.37v-.247h-.445l-.006.055-.014.256c-.07 1.494-.187 2.267-.423 2.795a1.588 1.588 0 0 1-.528.659c-.459.348-1.215.64-1.901.733-.16.022-.592.049-1.07.066-.271.01-1.72.039-1.726.034-.004-.005.055-11.484.06-11.49.004-.004 5.063.06 5.137.065l.206.012c1.192.07 2.196.366 2.893.855.297.208.526.432.753.735.23.306.409.589.542.853.302.6.432 1.152.61 2.598l.043.335c.002.003.4.058.403.054.003-.002-.42-6.289-.423-6.304-.001-.001-3.576-.002-7.945-.002H58.47v.368Z" fill="#000"/></svg>