<svg xmlns="http://www.w3.org/2000/svg" xmlns:xlink="http://www.w3.org/1999/xlink" width="90" zoomAndPan="magnify" viewBox="0 0 67.5 67.499996" height="90" preserveAspectRatio="xMidYMid meet" version="1.0"><defs><clipPath id="id1"><path d="M 4.847656 0 L 62.570312 0 L 62.570312 67.003906 L 4.847656 67.003906 Z M 4.847656 0 " clip-rule="nonzero"/></clipPath></defs><g clip-path="url(#id1)"><path fill="#000000" d="M 9.632812 40.980469 L 9.632812 33.75 C 9.632812 29.800781 12.808594 27 16.695312 26.527344 L 52.789062 21.707031 L 52.945312 21.695312 C 55.601562 21.695312 57.757812 23.855469 57.757812 26.519531 C 57.757812 29.128906 55.804688 30.933594 53.125 31.324219 L 21.425781 36.136719 C 20.359375 36.40625 19.257812 36.949219 19.257812 38.089844 L 19.257812 40.980469 L 58.960938 40.980469 C 61.019531 40.980469 62.570312 42.464844 62.570312 44.117188 L 62.570312 49.902344 C 62.570312 51.550781 61.019531 53.035156 58.960938 53.035156 L 58.207031 53.035156 L 60.144531 63.667969 C 60.160156 63.738281 60.164062 63.8125 60.164062 63.882812 C 60.164062 65.933594 58.664062 67.5 56.957031 67.5 L 10.4375 67.5 C 8.730469 67.5 7.226562 65.933594 7.226562 63.882812 C 7.226562 63.808594 7.234375 63.730469 7.25 63.65625 L 9.28125 53.035156 L 8.429688 53.035156 C 6.371094 53.035156 4.820312 51.550781 4.820312 49.902344 C 4.820312 49.902344 4.820312 44.117188 4.820312 44.117188 C 4.820312 42.464844 6.371094 40.980469 8.429688 40.980469 Z M 55.761719 53.035156 L 11.730469 53.035156 L 9.636719 63.980469 C 9.667969 64.558594 9.953125 65.089844 10.4375 65.089844 L 14.445312 65.089844 L 14.445312 61.472656 C 14.445312 60.808594 14.984375 60.265625 15.648438 60.265625 C 16.3125 60.265625 16.851562 60.808594 16.851562 61.472656 L 16.851562 65.089844 L 21.664062 65.089844 L 21.664062 59.0625 C 21.664062 58.394531 22.203125 57.855469 22.867188 57.855469 C 23.53125 57.855469 24.070312 58.394531 24.070312 59.0625 L 24.070312 65.089844 L 28.882812 65.089844 L 28.882812 61.472656 C 28.882812 60.808594 29.421875 60.265625 30.085938 60.265625 C 30.75 60.265625 31.289062 60.808594 31.289062 61.472656 L 31.289062 65.089844 L 36.101562 65.089844 L 36.101562 59.0625 C 36.101562 58.394531 36.640625 57.855469 37.304688 57.855469 C 37.96875 57.855469 38.507812 58.394531 38.507812 59.0625 L 38.507812 65.089844 L 43.320312 65.089844 L 43.320312 61.472656 C 43.320312 60.808594 43.859375 60.265625 44.523438 60.265625 C 45.1875 60.265625 45.726562 60.808594 45.726562 61.472656 L 45.726562 65.089844 L 50.539062 65.089844 L 50.539062 59.0625 C 50.539062 58.394531 51.078125 57.855469 51.742188 57.855469 C 52.40625 57.855469 52.945312 58.394531 52.945312 59.0625 L 52.945312 65.089844 L 56.957031 65.089844 C 57.441406 65.089844 57.730469 64.554688 57.757812 63.976562 Z M 58.960938 43.390625 C 59.332031 43.390625 59.667969 43.5 59.910156 43.695312 C 60.050781 43.804688 60.164062 43.945312 60.164062 44.117188 C 60.164062 44.117188 60.164062 49.902344 60.164062 49.902344 C 60.164062 50.074219 60.050781 50.210938 59.910156 50.324219 C 59.667969 50.515625 59.332031 50.625 58.960938 50.625 L 8.429688 50.625 C 8.0625 50.625 7.722656 50.515625 7.480469 50.324219 C 7.34375 50.210938 7.226562 50.074219 7.226562 49.902344 L 7.226562 44.117188 C 7.226562 43.945312 7.34375 43.804688 7.480469 43.695312 C 7.722656 43.5 8.0625 43.390625 8.429688 43.390625 Z M 16.851562 40.980469 L 16.851562 38.089844 C 16.851562 35.78125 18.738281 34.3125 20.898438 33.785156 C 20.933594 33.777344 20.96875 33.769531 21.003906 33.761719 C 21.003906 33.761719 52.765625 28.941406 52.773438 28.941406 C 54.195312 28.730469 55.351562 27.902344 55.351562 26.519531 C 55.351562 25.210938 54.3125 24.144531 53.015625 24.109375 L 16.996094 28.921875 C 14.328125 29.242188 12.039062 31.046875 12.039062 33.75 L 12.039062 40.980469 Z M 32.492188 12.054688 C 30.5 12.054688 28.882812 13.675781 28.882812 15.671875 C 28.882812 17.667969 30.5 19.285156 32.492188 19.285156 C 34.484375 19.285156 36.101562 17.667969 36.101562 15.671875 C 36.101562 13.675781 34.484375 12.054688 32.492188 12.054688 Z M 46.929688 12.054688 C 44.9375 12.054688 43.320312 13.675781 43.320312 15.671875 C 43.320312 17.667969 44.9375 19.285156 46.929688 19.285156 C 48.921875 19.285156 50.539062 17.667969 50.539062 15.671875 C 50.539062 13.675781 48.921875 12.054688 46.929688 12.054688 Z M 16.59375 7.917969 L 18.15625 4.339844 C 18.347656 3.898438 18.78125 3.617188 19.257812 3.617188 C 19.738281 3.617188 20.167969 3.898438 20.359375 4.339844 L 21.925781 7.917969 L 24.75 9.851562 C 25.078125 10.078125 25.273438 10.449219 25.273438 10.847656 C 25.273438 11.246094 25.078125 11.617188 24.75 11.84375 L 21.925781 13.777344 L 20.359375 17.359375 C 20.167969 17.796875 19.738281 18.082031 19.257812 18.082031 C 18.78125 18.082031 18.347656 17.796875 18.15625 17.359375 L 16.59375 13.777344 L 13.769531 11.84375 C 13.4375 11.617188 13.242188 11.246094 13.242188 10.847656 C 13.242188 10.449219 13.4375 10.078125 13.769531 9.851562 Z M 32.492188 14.464844 C 33.15625 14.464844 33.695312 15.003906 33.695312 15.671875 C 33.695312 16.335938 33.15625 16.875 32.492188 16.875 C 31.828125 16.875 31.289062 16.335938 31.289062 15.671875 C 31.289062 15.003906 31.828125 14.464844 32.492188 14.464844 Z M 46.929688 14.464844 C 47.59375 14.464844 48.132812 15.003906 48.132812 15.671875 C 48.132812 16.335938 47.59375 16.875 46.929688 16.875 C 46.265625 16.875 45.726562 16.335938 45.726562 15.671875 C 45.726562 15.003906 46.265625 14.464844 46.929688 14.464844 Z M 19.257812 7.828125 L 18.660156 9.203125 C 18.570312 9.410156 18.421875 9.585938 18.234375 9.714844 L 16.578125 10.847656 L 18.234375 11.984375 C 18.421875 12.113281 18.570312 12.289062 18.660156 12.496094 L 19.257812 13.867188 L 19.859375 12.496094 C 19.949219 12.289062 20.09375 12.113281 20.28125 11.984375 L 21.941406 10.847656 L 20.28125 9.714844 C 20.09375 9.585938 19.949219 9.410156 19.859375 9.203125 Z M 40.914062 0 C 38.921875 0 37.304688 1.621094 37.304688 3.617188 C 37.304688 5.613281 38.921875 7.234375 40.914062 7.234375 C 42.90625 7.234375 44.523438 5.613281 44.523438 3.617188 C 44.523438 1.621094 42.90625 0 40.914062 0 Z M 40.914062 2.410156 C 41.578125 2.410156 42.117188 2.953125 42.117188 3.617188 C 42.117188 4.28125 41.578125 4.820312 40.914062 4.820312 C 40.25 4.820312 39.710938 4.28125 39.710938 3.617188 C 39.710938 2.953125 40.25 2.410156 40.914062 2.410156 Z M 40.914062 2.410156 " fill-opacity="1" fill-rule="evenodd"/></g></svg>