<svg xmlns="http://www.w3.org/2000/svg" xmlns:xlink="http://www.w3.org/1999/xlink" width="90" zoomAndPan="magnify" viewBox="0 0 67.5 67.499996" height="90" preserveAspectRatio="xMidYMid meet" version="1.0"><defs><clipPath id="id1"><path d="M 1 0 L 62 0 L 62 67.003906 L 1 67.003906 Z M 1 0 " clip-rule="nonzero"/></clipPath><clipPath id="id2"><path d="M 27 51 L 63 51 L 63 67.003906 L 27 67.003906 Z M 27 51 " clip-rule="nonzero"/></clipPath><clipPath id="id3"><path d="M 60 51 L 67.003906 51 L 67.003906 59 L 60 59 Z M 60 51 " clip-rule="nonzero"/></clipPath><clipPath id="id4"><path d="M 0.550781 10 L 19 10 L 19 30 L 0.550781 30 Z M 0.550781 10 " clip-rule="nonzero"/></clipPath></defs><g clip-path="url(#id1)"><path fill="#000000" d="M 18.441406 29.660156 C 16.382812 29.644531 14.394531 30 12.472656 30.734375 C 10.550781 31.46875 8.832031 32.527344 7.3125 33.90625 C 2.648438 38.390625 0.585938 46.140625 2.515625 51.933594 C 3.007812 53.367188 3.703125 54.695312 4.597656 55.921875 C 5.496094 57.148438 6.550781 58.214844 7.773438 59.121094 C 15.96875 65.453125 27.457031 67.078125 33.578125 67.484375 C 33.605469 67.484375 33.628906 67.484375 33.652344 67.484375 C 33.898438 67.484375 34.121094 67.414062 34.320312 67.269531 C 34.519531 67.121094 34.65625 66.933594 34.730469 66.699219 C 34.804688 66.464844 34.800781 66.234375 34.722656 66 C 34.644531 65.769531 34.503906 65.582031 34.300781 65.441406 C 32.058594 63.882812 29.804688 62.347656 27.410156 60.757812 C 26.644531 60.335938 25.976562 59.792969 25.40625 59.132812 C 24.835938 58.472656 24.402344 57.730469 24.101562 56.914062 C 23.914062 56.167969 23.933594 55.433594 24.15625 54.699219 C 24.378906 53.964844 24.773438 53.339844 25.34375 52.824219 C 26 52.3125 26.714844 51.894531 27.488281 51.574219 C 28.390625 51.1875 29.234375 50.695312 30.015625 50.101562 C 31.359375 48.96875 32.320312 47.578125 32.902344 45.925781 C 33.175781 45.210938 33.359375 44.472656 33.449219 43.714844 C 33.542969 42.957031 33.539062 42.195312 33.445312 41.4375 C 33.347656 40.679688 33.160156 39.945312 32.882812 39.230469 C 32.605469 38.519531 32.242188 37.847656 31.800781 37.222656 L 34.378906 34.660156 L 35.066406 34.195312 C 41.265625 29.988281 46.6875 24.957031 51.339844 19.101562 L 61.414062 6.410156 C 61.589844 6.1875 61.671875 5.933594 61.652344 5.648438 C 61.636719 5.363281 61.527344 5.121094 61.324219 4.917969 L 56.804688 0.425781 C 56.605469 0.226562 56.359375 0.117188 56.074219 0.101562 C 55.789062 0.0820312 55.53125 0.164062 55.308594 0.339844 L 43.335938 9.738281 C 36.945312 14.753906 31.546875 20.660156 27.132812 27.460938 L 24.269531 30.308594 C 22.355469 29.832031 20.414062 29.617188 18.441406 29.660156 Z M 30.777344 45.167969 C 30.332031 46.433594 29.601562 47.5 28.582031 48.371094 C 27.945312 48.847656 27.261719 49.238281 26.53125 49.550781 C 25.566406 49.953125 24.679688 50.484375 23.867188 51.136719 C 23.429688 51.527344 23.050781 51.972656 22.734375 52.464844 C 22.417969 52.960938 22.171875 53.488281 22 54.046875 C 21.828125 54.609375 21.738281 55.183594 21.726562 55.769531 C 21.710938 56.355469 21.777344 56.933594 21.925781 57.5 C 22.289062 58.585938 22.839844 59.570312 23.566406 60.453125 C 24.296875 61.335938 25.164062 62.0625 26.164062 62.628906 C 27.277344 63.371094 28.359375 64.097656 29.425781 64.820312 C 21.144531 63.726562 14.054688 61.128906 9.160156 57.347656 C 7.027344 55.765625 5.53125 53.726562 4.664062 51.226562 C 3.015625 46.285156 4.871094 39.382812 8.890625 35.519531 C 10.203125 34.335938 11.6875 33.433594 13.34375 32.808594 C 15.003906 32.183594 16.71875 31.882812 18.488281 31.90625 C 20.371094 31.859375 22.222656 32.078125 24.042969 32.558594 L 24.234375 32.746094 C 21.023438 32.835938 18.054688 33.722656 15.328125 35.410156 C 10.359375 38.714844 6.597656 45.46875 8.890625 51.0625 L 10.984375 50.214844 C 9.148438 45.746094 12.460938 40.019531 16.582031 37.28125 C 19.574219 35.289062 23.195312 34.949219 26.417969 34.921875 L 29.46875 37.953125 C 29.90625 38.433594 30.269531 38.964844 30.558594 39.542969 C 30.847656 40.125 31.050781 40.734375 31.164062 41.375 C 31.28125 42.011719 31.304688 42.652344 31.238281 43.296875 C 31.175781 43.941406 31.019531 44.566406 30.777344 45.167969 Z M 44.734375 11.503906 L 55.917969 2.726562 L 59.015625 5.804688 L 49.570312 17.710938 C 45.0625 23.386719 39.804688 28.265625 33.792969 32.34375 L 29.457031 28.03125 C 33.660156 21.707031 38.753906 16.199219 44.734375 11.503906 Z M 28.007812 29.769531 L 32.058594 33.796875 L 30.265625 35.578125 L 26.214844 31.550781 Z M 28.007812 29.769531 " fill-opacity="1" fill-rule="nonzero"/></g><path fill="#000000" d="M 10.265625 53.683594 L 11.863281 52.09375 L 14.121094 54.339844 L 12.523438 55.929688 Z M 10.265625 53.683594 " fill-opacity="1" fill-rule="nonzero"/><g clip-path="url(#id2)"><path fill="#000000" d="M 59.394531 65.242188 L 39.066406 65.242188 L 39.066406 67.488281 L 59.394531 67.488281 C 59.84375 67.488281 60.277344 67.402344 60.691406 67.230469 C 61.109375 67.0625 61.472656 66.816406 61.792969 66.5 C 62.109375 66.1875 62.355469 65.820312 62.527344 65.410156 C 62.699219 64.996094 62.785156 64.566406 62.785156 64.121094 C 62.785156 63.671875 62.699219 63.242188 62.527344 62.828125 C 62.355469 62.417969 62.109375 62.054688 61.792969 61.738281 C 61.472656 61.421875 61.109375 61.175781 60.691406 61.007812 C 60.277344 60.835938 59.84375 60.75 59.394531 60.75 L 52.621094 60.75 C 52.46875 60.75 52.324219 60.722656 52.1875 60.664062 C 52.050781 60.609375 51.925781 60.527344 51.820312 60.421875 C 51.714844 60.316406 51.632812 60.195312 51.574219 60.058594 C 51.519531 59.917969 51.488281 59.777344 51.488281 59.628906 C 51.488281 59.476562 51.519531 59.335938 51.574219 59.195312 C 51.632812 59.058594 51.714844 58.9375 51.820312 58.832031 C 51.925781 58.726562 52.050781 58.644531 52.1875 58.589844 C 52.324219 58.53125 52.46875 58.503906 52.621094 58.503906 L 56.007812 58.503906 C 56.457031 58.503906 56.890625 58.417969 57.304688 58.246094 C 57.71875 58.078125 58.085938 57.832031 58.402344 57.515625 C 58.722656 57.199219 58.964844 56.835938 59.136719 56.425781 C 59.308594 56.011719 59.394531 55.582031 59.394531 55.132812 C 59.394531 54.6875 59.308594 54.257812 59.136719 53.84375 C 58.964844 53.433594 58.722656 53.066406 58.402344 52.753906 C 58.085938 52.4375 57.71875 52.191406 57.304688 52.023438 C 56.890625 51.851562 56.457031 51.765625 56.007812 51.765625 L 38.5 51.765625 C 38.128906 51.765625 37.765625 51.835938 37.421875 51.980469 C 37.074219 52.121094 36.769531 52.324219 36.503906 52.585938 C 36.238281 52.851562 36.035156 53.15625 35.894531 53.5 C 35.75 53.84375 35.679688 54.199219 35.679688 54.574219 C 35.679688 54.726562 35.621094 54.859375 35.511719 54.96875 C 35.402344 55.078125 35.269531 55.132812 35.113281 55.132812 L 30.59375 55.132812 C 30.222656 55.132812 29.859375 55.207031 29.515625 55.347656 C 29.167969 55.492188 28.863281 55.695312 28.597656 55.957031 C 28.335938 56.21875 28.128906 56.523438 27.988281 56.867188 C 27.84375 57.210938 27.773438 57.570312 27.773438 57.941406 L 27.773438 59.628906 L 30.03125 59.628906 L 30.03125 57.941406 C 30.03125 57.789062 30.085938 57.65625 30.195312 57.546875 C 30.304688 57.4375 30.441406 57.378906 30.59375 57.378906 L 35.113281 57.378906 C 35.488281 57.378906 35.847656 57.308594 36.195312 57.167969 C 36.539062 57.023438 36.84375 56.820312 37.109375 56.558594 C 37.375 56.296875 37.578125 55.992188 37.722656 55.648438 C 37.863281 55.304688 37.9375 54.945312 37.9375 54.574219 C 37.9375 54.417969 37.992188 54.285156 38.101562 54.175781 C 38.210938 54.066406 38.34375 54.011719 38.5 54.011719 L 56.007812 54.011719 C 56.15625 54.011719 56.300781 54.039062 56.441406 54.097656 C 56.578125 54.152344 56.699219 54.234375 56.804688 54.339844 C 56.914062 54.445312 56.992188 54.566406 57.050781 54.703125 C 57.109375 54.84375 57.136719 54.984375 57.136719 55.132812 C 57.136719 55.285156 57.109375 55.425781 57.050781 55.5625 C 56.992188 55.703125 56.914062 55.824219 56.804688 55.929688 C 56.699219 56.035156 56.578125 56.117188 56.441406 56.171875 C 56.300781 56.230469 56.15625 56.257812 56.007812 56.257812 L 52.621094 56.257812 C 52.171875 56.257812 51.738281 56.34375 51.324219 56.515625 C 50.90625 56.683594 50.542969 56.929688 50.222656 57.246094 C 49.90625 57.558594 49.660156 57.925781 49.488281 58.335938 C 49.316406 58.75 49.230469 59.179688 49.230469 59.628906 C 49.230469 60.074219 49.316406 60.503906 49.488281 60.917969 C 49.660156 61.328125 49.90625 61.695312 50.222656 62.007812 C 50.542969 62.324219 50.90625 62.570312 51.324219 62.738281 C 51.738281 62.910156 52.171875 62.996094 52.621094 62.996094 L 59.394531 62.996094 C 59.546875 62.996094 59.691406 63.023438 59.828125 63.082031 C 59.964844 63.140625 60.089844 63.21875 60.195312 63.324219 C 60.300781 63.429688 60.382812 63.550781 60.441406 63.691406 C 60.496094 63.828125 60.527344 63.96875 60.527344 64.121094 C 60.527344 64.269531 60.496094 64.410156 60.441406 64.550781 C 60.382812 64.6875 60.300781 64.808594 60.195312 64.914062 C 60.089844 65.019531 59.964844 65.101562 59.828125 65.15625 C 59.691406 65.214844 59.546875 65.242188 59.394531 65.242188 Z M 59.394531 65.242188 " fill-opacity="1" fill-rule="nonzero"/></g><g clip-path="url(#id3)"><path fill="#000000" d="M 60.527344 55.132812 C 60.527344 55.582031 60.613281 56.011719 60.785156 56.425781 C 60.957031 56.835938 61.199219 57.199219 61.519531 57.515625 C 61.835938 57.832031 62.203125 58.078125 62.617188 58.246094 C 63.03125 58.417969 63.464844 58.503906 63.914062 58.503906 C 64.363281 58.503906 64.796875 58.417969 65.210938 58.246094 C 65.625 58.078125 65.992188 57.832031 66.308594 57.515625 C 66.628906 57.199219 66.871094 56.835938 67.042969 56.425781 C 67.214844 56.011719 67.300781 55.582031 67.300781 55.132812 C 67.300781 54.6875 67.214844 54.257812 67.042969 53.84375 C 66.871094 53.433594 66.628906 53.066406 66.308594 52.753906 C 65.992188 52.4375 65.625 52.191406 65.210938 52.023438 C 64.796875 51.851562 64.363281 51.765625 63.914062 51.765625 C 63.464844 51.765625 63.03125 51.851562 62.617188 52.023438 C 62.203125 52.191406 61.835938 52.4375 61.519531 52.753906 C 61.199219 53.066406 60.957031 53.433594 60.785156 53.84375 C 60.613281 54.257812 60.527344 54.6875 60.527344 55.132812 Z M 63.914062 54.011719 C 64.0625 54.011719 64.207031 54.039062 64.347656 54.097656 C 64.484375 54.152344 64.605469 54.234375 64.710938 54.339844 C 64.820312 54.445312 64.898438 54.566406 64.957031 54.703125 C 65.015625 54.84375 65.042969 54.984375 65.042969 55.132812 C 65.042969 55.285156 65.015625 55.425781 64.957031 55.5625 C 64.898438 55.703125 64.820312 55.824219 64.710938 55.929688 C 64.605469 56.035156 64.484375 56.117188 64.347656 56.171875 C 64.207031 56.230469 64.0625 56.257812 63.914062 56.257812 C 63.765625 56.257812 63.621094 56.230469 63.480469 56.171875 C 63.34375 56.117188 63.222656 56.035156 63.117188 55.929688 C 63.007812 55.824219 62.929688 55.703125 62.871094 55.5625 C 62.8125 55.425781 62.785156 55.285156 62.785156 55.132812 C 62.785156 54.984375 62.8125 54.84375 62.871094 54.703125 C 62.929688 54.566406 63.007812 54.445312 63.117188 54.339844 C 63.222656 54.234375 63.34375 54.152344 63.480469 54.097656 C 63.621094 54.039062 63.765625 54.011719 63.914062 54.011719 Z M 63.914062 54.011719 " fill-opacity="1" fill-rule="nonzero"/></g><path fill="#000000" d="M 56.007812 46.148438 C 56.007812 46.597656 56.09375 47.027344 56.265625 47.4375 C 56.4375 47.851562 56.683594 48.214844 57 48.53125 C 57.316406 48.847656 57.683594 49.089844 58.097656 49.261719 C 58.515625 49.433594 58.945312 49.519531 59.394531 49.519531 C 59.84375 49.519531 60.277344 49.433594 60.691406 49.261719 C 61.109375 49.089844 61.472656 48.847656 61.792969 48.53125 C 62.109375 48.214844 62.355469 47.851562 62.527344 47.4375 C 62.699219 47.027344 62.785156 46.597656 62.785156 46.148438 C 62.785156 45.703125 62.699219 45.273438 62.527344 44.859375 C 62.355469 44.449219 62.109375 44.082031 61.792969 43.765625 C 61.472656 43.453125 61.109375 43.207031 60.691406 43.035156 C 60.277344 42.867188 59.84375 42.78125 59.394531 42.78125 C 58.945312 42.78125 58.515625 42.867188 58.097656 43.035156 C 57.683594 43.207031 57.316406 43.453125 57 43.765625 C 56.683594 44.082031 56.4375 44.449219 56.265625 44.859375 C 56.09375 45.273438 56.007812 45.703125 56.007812 46.148438 Z M 60.527344 46.148438 C 60.527344 46.296875 60.496094 46.441406 60.441406 46.578125 C 60.382812 46.71875 60.300781 46.839844 60.195312 46.945312 C 60.089844 47.050781 59.964844 47.128906 59.828125 47.1875 C 59.691406 47.246094 59.546875 47.273438 59.394531 47.273438 C 59.246094 47.273438 59.101562 47.246094 58.964844 47.1875 C 58.824219 47.128906 58.703125 47.050781 58.597656 46.945312 C 58.492188 46.839844 58.410156 46.71875 58.351562 46.578125 C 58.296875 46.441406 58.265625 46.296875 58.265625 46.148438 C 58.265625 46 58.296875 45.859375 58.351562 45.71875 C 58.410156 45.582031 58.492188 45.460938 58.597656 45.355469 C 58.703125 45.25 58.824219 45.167969 58.964844 45.113281 C 59.101562 45.054688 59.246094 45.027344 59.394531 45.027344 C 59.546875 45.027344 59.691406 45.054688 59.828125 45.113281 C 59.964844 45.167969 60.089844 45.25 60.195312 45.355469 C 60.300781 45.460938 60.382812 45.582031 60.441406 45.71875 C 60.496094 45.859375 60.527344 46 60.527344 46.148438 Z M 60.527344 46.148438 " fill-opacity="1" fill-rule="nonzero"/><path fill="#000000" d="M 39.066406 49.519531 L 50.359375 49.519531 C 50.808594 49.519531 51.242188 49.433594 51.65625 49.261719 C 52.074219 49.089844 52.4375 48.847656 52.757812 48.53125 C 53.074219 48.214844 53.320312 47.851562 53.492188 47.4375 C 53.664062 47.027344 53.75 46.597656 53.75 46.148438 C 53.75 45.703125 53.664062 45.273438 53.492188 44.859375 C 53.320312 44.449219 53.074219 44.082031 52.757812 43.765625 C 52.4375 43.453125 52.074219 43.207031 51.65625 43.035156 C 51.242188 42.867188 50.808594 42.78125 50.359375 42.78125 L 39.066406 42.78125 C 38.617188 42.78125 38.183594 42.867188 37.769531 43.035156 C 37.355469 43.207031 36.988281 43.453125 36.671875 43.765625 C 36.351562 44.082031 36.109375 44.449219 35.9375 44.859375 C 35.765625 45.273438 35.679688 45.703125 35.679688 46.148438 C 35.679688 46.597656 35.765625 47.027344 35.9375 47.4375 C 36.109375 47.851562 36.351562 48.214844 36.671875 48.53125 C 36.988281 48.847656 37.355469 49.089844 37.769531 49.261719 C 38.183594 49.433594 38.617188 49.519531 39.066406 49.519531 Z M 39.066406 45.027344 L 50.359375 45.027344 C 50.511719 45.027344 50.65625 45.054688 50.792969 45.113281 C 50.929688 45.167969 51.054688 45.25 51.160156 45.355469 C 51.265625 45.460938 51.347656 45.582031 51.402344 45.71875 C 51.460938 45.859375 51.488281 46 51.488281 46.148438 C 51.488281 46.296875 51.460938 46.441406 51.402344 46.578125 C 51.347656 46.71875 51.265625 46.839844 51.160156 46.945312 C 51.054688 47.050781 50.929688 47.128906 50.792969 47.1875 C 50.65625 47.246094 50.511719 47.273438 50.359375 47.273438 L 39.066406 47.273438 C 38.917969 47.273438 38.773438 47.246094 38.632812 47.1875 C 38.496094 47.128906 38.375 47.050781 38.269531 46.945312 C 38.160156 46.839844 38.078125 46.71875 38.023438 46.578125 C 37.964844 46.441406 37.9375 46.296875 37.9375 46.148438 C 37.9375 46 37.964844 45.859375 38.023438 45.71875 C 38.078125 45.582031 38.160156 45.460938 38.269531 45.355469 C 38.375 45.25 38.496094 45.167969 38.632812 45.113281 C 38.773438 45.054688 38.917969 45.027344 39.066406 45.027344 Z M 39.066406 45.027344 " fill-opacity="1" fill-rule="nonzero"/><g clip-path="url(#id4)"><path fill="#000000" d="M 2.371094 22.886719 L 5.234375 23.382812 L 5.667969 27.472656 C 5.710938 27.90625 5.878906 28.289062 6.167969 28.617188 C 6.460938 28.945312 6.820312 29.15625 7.25 29.25 C 7.40625 29.285156 7.566406 29.304688 7.726562 29.304688 C 8.082031 29.304688 8.414062 29.21875 8.722656 29.042969 C 9.03125 28.871094 9.277344 28.632812 9.460938 28.332031 L 11.804688 24.558594 L 16.144531 25.582031 C 16.574219 25.683594 16.992188 25.652344 17.398438 25.488281 C 17.804688 25.320312 18.125 25.054688 18.359375 24.683594 C 18.59375 24.316406 18.699219 23.910156 18.671875 23.476562 C 18.644531 23.039062 18.496094 22.652344 18.21875 22.3125 L 15.621094 19.109375 L 17.300781 16.753906 C 17.566406 16.382812 17.691406 15.96875 17.675781 15.511719 C 17.664062 15.058594 17.511719 14.652344 17.226562 14.296875 C 16.941406 13.941406 16.578125 13.707031 16.136719 13.59375 C 15.691406 13.480469 15.261719 13.511719 14.835938 13.683594 L 11.632812 15 L 8.519531 11.644531 C 8.230469 11.332031 7.871094 11.125 7.453125 11.035156 C 7.03125 10.941406 6.621094 10.976562 6.226562 11.140625 C 5.828125 11.304688 5.511719 11.566406 5.28125 11.929688 C 5.046875 12.289062 4.941406 12.683594 4.957031 13.109375 L 5.136719 17.671875 L 1.9375 18.988281 C 1.511719 19.160156 1.183594 19.441406 0.953125 19.835938 C 0.71875 20.226562 0.628906 20.648438 0.675781 21.097656 C 0.726562 21.550781 0.910156 21.945312 1.222656 22.273438 C 1.535156 22.605469 1.917969 22.8125 2.371094 22.886719 Z M 6.132812 19.691406 C 6.53125 19.527344 6.84375 19.265625 7.074219 18.90625 C 7.308594 18.542969 7.414062 18.152344 7.398438 17.722656 L 7.234375 13.570312 L 10.066406 16.621094 C 10.359375 16.933594 10.714844 17.136719 11.136719 17.230469 C 11.558594 17.320312 11.964844 17.289062 12.363281 17.125 L 15.046875 16.023438 L 13.691406 17.933594 C 13.425781 18.304688 13.300781 18.71875 13.316406 19.175781 C 13.332031 19.632812 13.484375 20.039062 13.769531 20.394531 L 16.089844 23.253906 L 12.183594 22.339844 C 11.753906 22.238281 11.335938 22.273438 10.925781 22.441406 C 10.515625 22.609375 10.195312 22.878906 9.960938 23.253906 L 7.851562 26.644531 L 7.464844 22.992188 C 7.417969 22.539062 7.234375 22.148438 6.921875 21.8125 C 6.605469 21.480469 6.222656 21.277344 5.773438 21.195312 L 3.449219 20.796875 Z M 6.132812 19.691406 " fill-opacity="1" fill-rule="nonzero"/></g><path fill="#000000" d="M 19.867188 5.71875 L 22.125 5.71875 L 22.125 7.964844 L 19.867188 7.964844 Z M 19.867188 5.71875 " fill-opacity="1" fill-rule="nonzero"/><path fill="#000000" d="M 17.605469 7.964844 L 19.867188 7.964844 L 19.867188 10.210938 L 17.605469 10.210938 Z M 17.605469 7.964844 " fill-opacity="1" fill-rule="nonzero"/><path fill="#000000" d="M 22.125 7.964844 L 24.382812 7.964844 L 24.382812 10.210938 L 22.125 10.210938 Z M 22.125 7.964844 " fill-opacity="1" fill-rule="nonzero"/><path fill="#000000" d="M 19.867188 10.210938 L 22.125 10.210938 L 22.125 12.457031 L 19.867188 12.457031 Z M 19.867188 10.210938 " fill-opacity="1" fill-rule="nonzero"/><path fill="#000000" d="M 22.125 19.195312 L 24.382812 19.195312 L 24.382812 21.441406 L 22.125 21.441406 Z M 22.125 19.195312 " fill-opacity="1" fill-rule="nonzero"/><path fill="#000000" d="M 24.382812 46.148438 L 24.382812 48.394531 C 24.753906 48.394531 25.121094 48.359375 25.484375 48.285156 C 25.847656 48.214844 26.199219 48.109375 26.542969 47.964844 C 26.886719 47.824219 27.210938 47.652344 27.519531 47.449219 C 27.828125 47.242188 28.113281 47.011719 28.375 46.75 C 28.636719 46.488281 28.871094 46.207031 29.078125 45.898438 C 29.28125 45.59375 29.457031 45.269531 29.597656 44.929688 C 29.742188 44.589844 29.847656 44.238281 29.921875 43.875 C 29.992188 43.515625 30.03125 43.148438 30.03125 42.78125 L 27.773438 42.78125 C 27.773438 43.226562 27.6875 43.65625 27.515625 44.070312 C 27.34375 44.484375 27.097656 44.847656 26.78125 45.164062 C 26.460938 45.480469 26.09375 45.722656 25.679688 45.894531 C 25.265625 46.0625 24.832031 46.148438 24.382812 46.148438 Z M 24.382812 46.148438 " fill-opacity="1" fill-rule="nonzero"/></svg>