<svg xmlns="http://www.w3.org/2000/svg" xmlns:xlink="http://www.w3.org/1999/xlink" width="90" zoomAndPan="magnify" viewBox="0 0 67.5 67.499996" height="90" preserveAspectRatio="xMidYMid meet" version="1.0"><defs><clipPath id="id1"><path d="M 22 31 L 45 31 L 45 67.003906 L 22 67.003906 Z M 22 31 " clip-rule="nonzero"/></clipPath><clipPath id="id2"><path d="M 20.617188 0 L 46.867188 0 L 46.867188 30 L 20.617188 30 Z M 20.617188 0 " clip-rule="nonzero"/></clipPath><clipPath id="id3"><path d="M 21 0 L 46.867188 0 L 46.867188 30 L 21 30 Z M 21 0 " clip-rule="nonzero"/></clipPath><clipPath id="id4"><path d="M 20.617188 0 L 46.867188 0 L 46.867188 30 L 20.617188 30 Z M 20.617188 0 " clip-rule="nonzero"/></clipPath></defs><path fill="#ffffff" d="M 29.554688 36.234375 C 29.324219 36.234375 29.136719 36.421875 29.136719 36.652344 L 29.136719 44.007812 C 29.136719 44.238281 29.324219 44.425781 29.554688 44.425781 L 37.902344 44.425781 C 38.132812 44.425781 38.320312 44.238281 38.320312 44.007812 L 38.320312 36.652344 C 38.320312 36.421875 38.132812 36.234375 37.902344 36.234375 Z M 33.710938 54.359375 C 29.910156 54.359375 26.816406 56.496094 26.816406 59.121094 C 26.816406 61.746094 29.910156 63.882812 33.710938 63.882812 C 37.515625 63.882812 40.605469 61.746094 40.605469 59.121094 C 40.605469 56.496094 37.515625 54.359375 33.710938 54.359375 Z M 33.710938 66.40625 C 28.09375 66.40625 23.523438 63.136719 23.523438 59.121094 C 23.523438 58.625 23.59375 58.128906 23.730469 57.644531 L 23.75 57.578125 C 23.789062 57.464844 23.839844 57.320312 23.910156 57.121094 C 25.722656 51.976562 26.644531 47.015625 26.644531 42.378906 C 26.644531 42.351562 26.648438 42.324219 26.652344 42.296875 L 26.675781 34.003906 C 26.675781 33.25 27.292969 32.632812 28.050781 32.632812 L 39.40625 32.632812 C 40.164062 32.632812 40.78125 33.25 40.78125 34.007812 L 40.78125 42.378906 C 40.78125 47.015625 41.703125 51.976562 43.515625 57.121094 C 43.585938 57.320312 43.636719 57.464844 43.664062 57.554688 L 43.695312 57.652344 C 43.832031 58.144531 43.902344 58.632812 43.902344 59.121094 C 43.902344 63.136719 39.332031 66.40625 33.710938 66.40625 " fill-opacity="1" fill-rule="nonzero"/><path fill="#5c5c5c" d="M 29.554688 36.234375 L 29.554688 35.65625 C 29.28125 35.65625 29.027344 35.769531 28.847656 35.949219 C 28.667969 36.125 28.554688 36.378906 28.558594 36.652344 L 28.554688 44.007812 C 28.554688 44.28125 28.667969 44.535156 28.847656 44.714844 C 29.027344 44.890625 29.28125 45.003906 29.554688 45.003906 L 37.902344 45.003906 C 38.175781 45.003906 38.429688 44.890625 38.609375 44.714844 C 38.789062 44.535156 38.902344 44.28125 38.902344 44.007812 L 38.902344 36.652344 C 38.902344 36.378906 38.789062 36.125 38.609375 35.949219 C 38.429688 35.769531 38.179688 35.65625 37.902344 35.65625 L 29.554688 35.65625 L 29.554688 36.8125 L 37.902344 36.8125 L 37.902344 36.652344 L 37.789062 36.765625 C 37.816406 36.792969 37.859375 36.8125 37.902344 36.8125 L 37.902344 36.652344 L 37.789062 36.765625 L 37.902344 36.652344 L 37.742188 36.652344 C 37.742188 36.695312 37.761719 36.738281 37.789062 36.765625 L 37.902344 36.652344 L 37.742188 36.652344 L 37.742188 44.007812 L 37.902344 44.007812 L 37.789062 43.894531 C 37.761719 43.921875 37.742188 43.964844 37.742188 44.007812 L 37.902344 44.007812 L 37.789062 43.894531 L 37.902344 44.007812 L 37.902344 43.847656 C 37.859375 43.847656 37.816406 43.867188 37.789062 43.894531 L 37.902344 44.007812 L 37.902344 43.847656 L 29.554688 43.847656 L 29.554688 44.007812 L 29.667969 43.894531 C 29.640625 43.867188 29.597656 43.847656 29.554688 43.847656 L 29.554688 44.007812 L 29.667969 43.894531 L 29.554688 44.007812 L 29.714844 44.007812 C 29.714844 43.964844 29.695312 43.921875 29.667969 43.894531 L 29.554688 44.007812 L 29.714844 44.007812 L 29.714844 36.652344 L 29.554688 36.652344 L 29.667969 36.765625 C 29.695312 36.738281 29.714844 36.695312 29.714844 36.652344 L 29.554688 36.652344 L 29.667969 36.765625 L 29.554688 36.652344 L 29.554688 36.8125 C 29.597656 36.8125 29.640625 36.792969 29.667969 36.765625 L 29.554688 36.652344 L 29.554688 36.8125 Z M 33.710938 54.359375 L 33.710938 53.78125 C 31.703125 53.78125 29.871094 54.339844 28.507812 55.277344 C 27.828125 55.75 27.265625 56.316406 26.863281 56.964844 C 26.46875 57.613281 26.238281 58.347656 26.238281 59.121094 C 26.238281 59.890625 26.46875 60.625 26.863281 61.273438 C 27.464844 62.25 28.433594 63.039062 29.613281 63.589844 C 30.796875 64.144531 32.203125 64.460938 33.710938 64.460938 C 35.722656 64.460938 37.550781 63.902344 38.914062 62.960938 C 39.59375 62.492188 40.160156 61.925781 40.558594 61.273438 C 40.957031 60.625 41.1875 59.890625 41.1875 59.121094 C 41.1875 58.347656 40.957031 57.613281 40.558594 56.964844 C 39.960938 55.992188 38.992188 55.203125 37.808594 54.648438 C 36.625 54.097656 35.21875 53.78125 33.710938 53.78125 L 33.710938 54.9375 C 35.503906 54.933594 37.121094 55.445312 38.253906 56.230469 C 38.824219 56.621094 39.269531 57.082031 39.570312 57.570312 C 39.871094 58.0625 40.027344 58.578125 40.027344 59.121094 C 40.027344 59.664062 39.871094 60.179688 39.570312 60.671875 C 39.121094 61.40625 38.339844 62.070312 37.320312 62.542969 C 36.300781 63.019531 35.054688 63.304688 33.710938 63.304688 C 31.917969 63.304688 30.304688 62.796875 29.167969 62.011719 C 28.601562 61.617188 28.152344 61.160156 27.851562 60.671875 C 27.554688 60.179688 27.394531 59.664062 27.394531 59.121094 C 27.394531 58.578125 27.554688 58.0625 27.851562 57.570312 C 28.300781 56.835938 29.085938 56.171875 30.105469 55.695312 C 31.121094 55.222656 32.367188 54.9375 33.710938 54.9375 Z M 33.710938 66.40625 L 33.710938 65.828125 C 31.015625 65.828125 28.578125 65.039062 26.847656 63.800781 C 25.980469 63.179688 25.292969 62.453125 24.824219 61.660156 C 24.355469 60.867188 24.101562 60.015625 24.101562 59.121094 C 24.101562 58.679688 24.164062 58.238281 24.289062 57.804688 L 23.730469 57.644531 L 24.285156 57.816406 L 24.304688 57.75 L 24.304688 57.753906 C 24.335938 57.65625 24.386719 57.511719 24.457031 57.3125 C 26.289062 52.117188 27.222656 47.09375 27.222656 42.378906 L 26.992188 42.378906 L 27.21875 42.429688 L 27.222656 42.378906 L 26.992188 42.378906 L 27.21875 42.429688 C 27.226562 42.390625 27.230469 42.34375 27.230469 42.300781 L 27.257812 34.007812 L 27.257812 34.003906 C 27.257812 33.785156 27.34375 33.589844 27.488281 33.445312 C 27.636719 33.300781 27.832031 33.210938 28.050781 33.210938 L 39.40625 33.210938 C 39.625 33.210938 39.820312 33.300781 39.96875 33.445312 C 40.113281 33.589844 40.199219 33.785156 40.203125 34.007812 L 40.203125 42.378906 C 40.203125 47.09375 41.136719 52.117188 42.96875 57.316406 L 42.96875 57.3125 C 43.039062 57.511719 43.089844 57.65625 43.109375 57.726562 L 43.140625 57.824219 L 43.695312 57.652344 L 43.136719 57.808594 C 43.261719 58.25 43.320312 58.683594 43.320312 59.121094 C 43.320312 60.015625 43.070312 60.867188 42.601562 61.660156 C 41.898438 62.847656 40.695312 63.894531 39.152344 64.640625 C 37.609375 65.386719 35.734375 65.828125 33.710938 65.828125 L 33.710938 66.984375 C 36.632812 66.984375 39.292969 66.140625 41.25 64.742188 C 42.230469 64.039062 43.035156 63.199219 43.597656 62.246094 C 44.160156 61.296875 44.480469 60.234375 44.480469 59.121094 C 44.480469 58.578125 44.40625 58.035156 44.253906 57.496094 L 44.246094 57.480469 L 44.21875 57.378906 L 44.214844 57.378906 C 44.183594 57.273438 44.132812 57.128906 44.0625 56.929688 C 42.265625 51.835938 41.359375 46.941406 41.359375 42.378906 L 41.359375 34.007812 C 41.359375 33.46875 41.140625 32.980469 40.785156 32.628906 C 40.433594 32.273438 39.941406 32.054688 39.40625 32.054688 L 28.050781 32.054688 C 27.515625 32.054688 27.023438 32.273438 26.671875 32.625 C 26.316406 32.976562 26.097656 33.46875 26.097656 34.003906 L 26.074219 42.296875 L 26.652344 42.296875 L 26.089844 42.167969 C 26.074219 42.234375 26.0625 42.304688 26.0625 42.378906 C 26.0625 46.9375 25.160156 51.835938 23.363281 56.929688 C 23.292969 57.125 23.242188 57.273438 23.199219 57.40625 L 23.199219 57.410156 L 23.179688 57.476562 L 23.175781 57.488281 C 23.023438 58.019531 22.945312 58.570312 22.945312 59.121094 C 22.945312 60.234375 23.261719 61.296875 23.824219 62.246094 C 24.671875 63.675781 26.058594 64.851562 27.765625 65.679688 C 29.476562 66.507812 31.519531 66.984375 33.710938 66.984375 L 33.710938 66.40625 " fill-opacity="1" fill-rule="nonzero"/><path fill="#ffffff" d="M 33.710938 63.542969 C 30.097656 63.542969 27.160156 61.558594 27.160156 59.121094 C 27.160156 56.683594 30.097656 54.699219 33.710938 54.699219 C 37.324219 54.699219 40.265625 56.683594 40.265625 59.121094 C 40.265625 61.558594 37.324219 63.542969 33.710938 63.542969 Z M 29.554688 44.085938 C 29.511719 44.085938 29.476562 44.050781 29.476562 44.007812 L 29.476562 36.652344 C 29.476562 36.609375 29.511719 36.574219 29.554688 36.574219 L 37.902344 36.574219 C 37.945312 36.574219 37.980469 36.609375 37.980469 36.652344 L 37.980469 44.007812 C 37.980469 44.050781 37.945312 44.085938 37.902344 44.085938 Z M 39.40625 32.292969 L 28.050781 32.292969 C 27.105469 32.292969 26.335938 33.0625 26.335938 34.007812 L 26.3125 42.265625 C 26.304688 42.304688 26.300781 42.339844 26.300781 42.378906 C 26.300781 46.976562 25.386719 51.898438 23.585938 57.007812 C 23.515625 57.210938 23.464844 57.359375 23.433594 57.449219 L 23.429688 57.472656 C 23.421875 57.492188 23.414062 57.515625 23.40625 57.535156 L 23.402344 57.546875 C 23.257812 58.0625 23.183594 58.589844 23.183594 59.121094 C 23.183594 63.324219 27.90625 66.746094 33.710938 66.746094 C 39.519531 66.746094 44.242188 63.324219 44.242188 59.121094 C 44.242188 58.597656 44.167969 58.074219 44.023438 57.5625 L 44 57.480469 L 43.992188 57.457031 C 43.960938 57.359375 43.910156 57.210938 43.839844 57.007812 C 42.035156 51.902344 41.121094 46.976562 41.121094 42.378906 L 41.121094 34.007812 C 41.121094 33.0625 40.351562 32.292969 39.40625 32.292969 Z M 33.710938 64.222656 C 37.710938 64.222656 40.949219 61.9375 40.949219 59.121094 C 40.949219 56.300781 37.710938 54.015625 33.710938 54.015625 C 29.714844 54.015625 26.476562 56.300781 26.476562 59.121094 C 26.476562 61.9375 29.714844 64.222656 33.710938 64.222656 M 29.554688 44.769531 L 37.902344 44.769531 C 38.324219 44.769531 38.664062 44.429688 38.664062 44.007812 L 38.664062 36.652344 C 38.664062 36.230469 38.324219 35.890625 37.902344 35.890625 L 29.554688 35.890625 C 29.132812 35.890625 28.792969 36.230469 28.792969 36.652344 L 28.792969 44.007812 C 28.792969 44.429688 29.132812 44.769531 29.554688 44.769531 M 39.40625 32.972656 C 39.976562 32.972656 40.4375 33.4375 40.4375 34.007812 L 40.4375 42.378906 C 40.4375 50.191406 43.058594 56.769531 43.339844 57.65625 C 43.34375 57.679688 43.355469 57.703125 43.363281 57.730469 L 43.363281 57.734375 C 43.492188 58.179688 43.558594 58.644531 43.558594 59.121094 C 43.558594 62.957031 39.152344 66.066406 33.710938 66.066406 C 28.273438 66.066406 23.863281 62.957031 23.863281 59.121094 C 23.863281 58.644531 23.933594 58.179688 24.0625 57.734375 L 24.0625 57.730469 C 24.070312 57.703125 24.078125 57.679688 24.085938 57.65625 C 24.367188 56.769531 26.984375 50.191406 26.984375 42.378906 L 26.996094 42.382812 L 27.019531 34.007812 C 27.019531 33.4375 27.480469 32.972656 28.050781 32.972656 L 39.40625 32.972656 " fill-opacity="1" fill-rule="nonzero"/><g clip-path="url(#id1)"><path fill="#5c5c5c" d="M 33.710938 63.542969 L 33.710938 62.960938 C 32.011719 62.964844 30.476562 62.492188 29.40625 61.765625 C 28.867188 61.402344 28.445312 60.980469 28.164062 60.53125 C 27.882812 60.082031 27.738281 59.613281 27.738281 59.121094 C 27.738281 58.628906 27.882812 58.15625 28.164062 57.707031 C 28.585938 57.035156 29.324219 56.421875 30.289062 55.980469 C 31.253906 55.542969 32.4375 55.277344 33.710938 55.277344 C 35.414062 55.277344 36.945312 55.75 38.019531 56.476562 C 38.558594 56.835938 38.976562 57.261719 39.257812 57.707031 C 39.539062 58.15625 39.6875 58.628906 39.6875 59.121094 C 39.6875 59.613281 39.539062 60.082031 39.257812 60.53125 C 38.839844 61.203125 38.097656 61.820312 37.132812 62.257812 C 36.167969 62.699219 34.988281 62.960938 33.710938 62.960938 L 33.710938 64.121094 C 35.625 64.117188 37.367188 63.597656 38.667969 62.722656 C 39.316406 62.285156 39.859375 61.757812 40.242188 61.148438 C 40.625 60.539062 40.84375 59.847656 40.84375 59.121094 C 40.84375 58.394531 40.625 57.703125 40.242188 57.09375 C 39.664062 56.179688 38.742188 55.445312 37.613281 54.929688 C 36.484375 54.414062 35.148438 54.121094 33.710938 54.121094 C 31.800781 54.121094 30.054688 54.640625 28.753906 55.515625 C 28.105469 55.953125 27.566406 56.484375 27.183594 57.09375 C 26.800781 57.703125 26.578125 58.394531 26.578125 59.121094 C 26.578125 59.847656 26.800781 60.539062 27.183594 61.148438 C 27.757812 62.0625 28.683594 62.796875 29.808594 63.3125 C 30.9375 63.824219 32.277344 64.121094 33.710938 64.121094 Z M 29.554688 44.085938 L 29.554688 43.507812 L 29.554688 44.007812 L 29.910156 43.652344 C 29.820312 43.5625 29.691406 43.507812 29.554688 43.507812 L 29.554688 44.007812 L 29.910156 43.652344 L 29.554688 44.007812 L 30.058594 44.007812 C 30.058594 43.875 30 43.742188 29.910156 43.652344 L 29.554688 44.007812 L 30.058594 44.007812 L 30.058594 36.652344 L 29.554688 36.652344 L 29.910156 37.003906 C 30 36.917969 30.058594 36.785156 30.058594 36.652344 L 29.554688 36.652344 L 29.910156 37.003906 L 29.554688 36.652344 L 29.554688 37.152344 C 29.691406 37.152344 29.820312 37.097656 29.910156 37.003906 L 29.554688 36.652344 L 29.554688 37.152344 L 37.902344 37.152344 L 37.902344 36.652344 L 37.546875 37.007812 C 37.636719 37.097656 37.769531 37.152344 37.902344 37.152344 L 37.902344 36.652344 L 37.546875 37.007812 L 37.902344 36.652344 L 37.402344 36.652344 C 37.402344 36.785156 37.457031 36.917969 37.546875 37.007812 L 37.902344 36.652344 L 37.402344 36.652344 L 37.402344 44.007812 L 37.902344 44.007812 L 37.546875 43.652344 C 37.457031 43.742188 37.402344 43.875 37.402344 44.007812 L 37.902344 44.007812 L 37.546875 43.652344 L 37.902344 44.007812 L 37.902344 43.507812 C 37.769531 43.507812 37.636719 43.5625 37.546875 43.652344 L 37.902344 44.007812 L 37.902344 43.507812 L 29.554688 43.507812 L 29.554688 44.664062 L 37.902344 44.664062 C 38.082031 44.664062 38.25 44.589844 38.367188 44.472656 C 38.484375 44.355469 38.558594 44.1875 38.558594 44.007812 L 38.558594 36.652344 C 38.558594 36.472656 38.484375 36.304688 38.367188 36.1875 C 38.25 36.070312 38.082031 35.996094 37.902344 35.996094 L 29.554688 35.996094 C 29.375 35.996094 29.207031 36.070312 29.089844 36.1875 C 28.972656 36.304688 28.898438 36.472656 28.898438 36.652344 L 28.898438 44.007812 C 28.898438 44.1875 28.972656 44.355469 29.089844 44.472656 C 29.207031 44.589844 29.375 44.664062 29.554688 44.664062 Z M 39.40625 32.292969 L 39.40625 31.710938 L 28.050781 31.710938 C 27.421875 31.710938 26.84375 31.972656 26.429688 32.386719 C 26.011719 32.800781 25.753906 33.375 25.753906 34.007812 L 25.753906 34.003906 L 25.730469 42.265625 L 26.3125 42.265625 L 25.738281 42.175781 C 25.730469 42.234375 25.722656 42.300781 25.722656 42.378906 C 25.722656 46.898438 24.824219 51.757812 23.039062 56.816406 C 22.96875 57.019531 22.917969 57.167969 22.882812 57.277344 L 22.882812 57.269531 L 22.875 57.292969 L 22.878906 57.289062 C 22.871094 57.316406 22.859375 57.339844 22.851562 57.371094 L 23.40625 57.535156 L 22.855469 57.363281 L 22.847656 57.386719 C 22.683594 57.953125 22.601562 58.539062 22.601562 59.121094 C 22.601562 60.28125 22.929688 61.386719 23.511719 62.378906 C 24.382812 63.867188 25.808594 65.097656 27.574219 65.964844 C 29.339844 66.828125 31.449219 67.324219 33.710938 67.324219 C 36.730469 67.324219 39.476562 66.441406 41.496094 64.980469 C 42.503906 64.246094 43.332031 63.371094 43.914062 62.378906 C 44.492188 61.386719 44.824219 60.28125 44.824219 59.121094 C 44.820312 58.542969 44.742188 57.96875 44.582031 57.40625 L 44.574219 57.378906 L 44.570312 57.367188 L 44.554688 57.308594 L 44.546875 57.292969 L 44.539062 57.273438 L 43.992188 57.457031 L 44.546875 57.285156 C 44.507812 57.167969 44.457031 57.019531 44.386719 56.820312 L 44.382812 56.816406 C 42.601562 51.761719 41.703125 46.902344 41.703125 42.378906 L 41.703125 34.007812 C 41.703125 33.375 41.441406 32.800781 41.027344 32.386719 C 40.613281 31.972656 40.035156 31.710938 39.40625 31.710938 L 39.40625 32.871094 C 39.71875 32.871094 40 32.996094 40.207031 33.203125 C 40.417969 33.410156 40.542969 33.691406 40.542969 34.007812 L 40.542969 42.378906 C 40.542969 47.054688 41.472656 52.039062 43.292969 57.203125 L 43.292969 57.199219 C 43.363281 57.402344 43.414062 57.550781 43.4375 57.628906 L 43.445312 57.644531 L 43.449219 57.65625 L 43.460938 57.699219 L 43.46875 57.722656 C 43.597656 58.179688 43.664062 58.652344 43.664062 59.121094 C 43.664062 60.0625 43.402344 60.960938 42.914062 61.792969 C 42.183594 63.042969 40.9375 64.140625 39.339844 64.921875 C 37.746094 65.707031 35.804688 66.167969 33.710938 66.167969 C 30.921875 66.171875 28.402344 65.34375 26.609375 64.042969 C 25.710938 63.394531 24.996094 62.628906 24.511719 61.792969 C 24.023438 60.960938 23.761719 60.0625 23.761719 59.121094 C 23.761719 58.644531 23.828125 58.171875 23.960938 57.707031 L 23.402344 57.546875 L 23.957031 57.71875 L 23.960938 57.707031 L 23.960938 57.699219 L 23.976562 57.65625 L 23.976562 57.652344 L 23.984375 57.628906 L 23.984375 57.625 C 24.011719 57.550781 24.0625 57.402344 24.132812 57.199219 C 25.953125 52.039062 26.878906 47.054688 26.878906 42.378906 L 26.882812 42.359375 C 26.890625 42.324219 26.890625 42.304688 26.890625 42.269531 L 26.914062 34.007812 C 26.914062 33.691406 27.039062 33.410156 27.246094 33.203125 C 27.457031 32.996094 27.738281 32.871094 28.050781 32.871094 L 39.40625 32.871094 Z M 33.710938 64.800781 C 35.820312 64.800781 37.738281 64.203125 39.164062 63.203125 C 39.875 62.699219 40.464844 62.09375 40.878906 61.402344 C 41.292969 60.714844 41.527344 59.9375 41.527344 59.121094 C 41.527344 58.304688 41.292969 57.527344 40.878906 56.835938 C 40.253906 55.800781 39.246094 54.957031 38.007812 54.367188 C 36.769531 53.777344 35.292969 53.4375 33.710938 53.4375 C 31.601562 53.441406 29.683594 54.035156 28.261719 55.039062 C 27.550781 55.539062 26.960938 56.144531 26.546875 56.835938 C 26.132812 57.527344 25.894531 58.304688 25.894531 59.121094 C 25.894531 59.9375 26.132812 60.714844 26.546875 61.402344 C 27.167969 62.441406 28.179688 63.285156 29.417969 63.875 C 30.65625 64.464844 32.128906 64.800781 33.710938 64.800781 C 34.03125 64.800781 34.292969 64.542969 34.292969 64.222656 C 34.292969 63.90625 34.03125 63.644531 33.710938 63.644531 C 31.824219 63.648438 30.125 63.101562 28.929688 62.257812 C 28.332031 61.835938 27.859375 61.339844 27.539062 60.808594 C 27.222656 60.277344 27.054688 59.714844 27.054688 59.121094 C 27.054688 58.527344 27.222656 57.960938 27.539062 57.429688 C 28.015625 56.636719 28.84375 55.921875 29.914062 55.410156 C 30.984375 54.898438 32.296875 54.59375 33.710938 54.59375 C 35.597656 54.59375 37.300781 55.136719 38.496094 55.984375 C 39.09375 56.40625 39.566406 56.898438 39.882812 57.429688 C 40.203125 57.960938 40.367188 58.527344 40.371094 59.121094 C 40.367188 59.714844 40.203125 60.277344 39.882812 60.808594 C 39.40625 61.605469 38.582031 62.320312 37.507812 62.828125 C 36.4375 63.339844 35.128906 63.644531 33.710938 63.644531 C 33.390625 63.644531 33.132812 63.90625 33.132812 64.222656 C 33.132812 64.542969 33.390625 64.800781 33.710938 64.800781 Z M 29.554688 45.347656 L 37.902344 45.347656 C 38.644531 45.347656 39.242188 44.746094 39.242188 44.007812 L 39.242188 36.652344 C 39.242188 35.914062 38.644531 35.3125 37.902344 35.3125 L 29.554688 35.3125 C 29.1875 35.3125 28.847656 35.464844 28.605469 35.707031 C 28.367188 35.945312 28.214844 36.285156 28.214844 36.652344 L 28.214844 44.007812 C 28.214844 44.375 28.367188 44.714844 28.605469 44.953125 C 28.847656 45.195312 29.1875 45.347656 29.554688 45.347656 C 29.875 45.347656 30.132812 45.085938 30.132812 44.769531 C 30.132812 44.449219 29.875 44.191406 29.554688 44.191406 C 29.503906 44.1875 29.460938 44.171875 29.425781 44.136719 C 29.394531 44.101562 29.371094 44.0625 29.371094 44.007812 L 29.371094 36.652344 C 29.371094 36.597656 29.394531 36.558594 29.425781 36.523438 C 29.460938 36.488281 29.503906 36.472656 29.554688 36.472656 L 37.902344 36.472656 C 38.003906 36.472656 38.082031 36.550781 38.085938 36.652344 L 38.082031 44.007812 C 38.082031 44.109375 38.003906 44.1875 37.902344 44.191406 L 29.554688 44.191406 C 29.234375 44.191406 28.976562 44.449219 28.976562 44.769531 C 28.976562 45.085938 29.234375 45.347656 29.554688 45.347656 Z M 39.40625 33.550781 C 39.53125 33.550781 39.640625 33.601562 39.726562 33.6875 C 39.808594 33.769531 39.859375 33.878906 39.859375 34.007812 L 39.859375 42.378906 C 39.859375 46.347656 40.523438 49.992188 41.222656 52.757812 C 41.570312 54.140625 41.929688 55.300781 42.21875 56.175781 C 42.359375 56.613281 42.488281 56.976562 42.585938 57.257812 C 42.683594 57.535156 42.757812 57.742188 42.785156 57.828125 L 42.785156 57.824219 C 42.796875 57.863281 42.804688 57.886719 42.804688 57.890625 L 42.804688 57.886719 L 42.804688 57.890625 L 43.363281 57.734375 L 43.363281 57.15625 C 43.179688 57.15625 43.007812 57.242188 42.898438 57.386719 C 42.789062 57.53125 42.753906 57.71875 42.804688 57.894531 C 42.921875 58.292969 42.980469 58.699219 42.980469 59.121094 C 42.980469 59.96875 42.738281 60.773438 42.289062 61.527344 C 41.613281 62.652344 40.457031 63.648438 38.96875 64.355469 C 37.480469 65.066406 35.667969 65.488281 33.710938 65.488281 C 31.101562 65.488281 28.75 64.738281 27.082031 63.558594 C 26.25 62.96875 25.585938 62.277344 25.136719 61.527344 C 24.6875 60.773438 24.445312 59.96875 24.445312 59.121094 C 24.445312 58.699219 24.503906 58.292969 24.617188 57.894531 C 24.625 57.871094 24.632812 57.839844 24.636719 57.816406 L 24.636719 57.8125 L 24.0625 57.730469 L 24.617188 57.894531 C 24.617188 57.890625 24.625 57.871094 24.640625 57.824219 L 24.640625 57.828125 C 24.667969 57.742188 24.738281 57.535156 24.839844 57.257812 C 25.183594 56.269531 25.867188 54.28125 26.460938 51.679688 C 27.054688 49.078125 27.566406 45.851562 27.566406 42.378906 L 26.984375 42.378906 L 26.746094 42.902344 L 26.753906 42.90625 C 26.933594 42.988281 27.140625 42.976562 27.308594 42.867188 C 27.472656 42.761719 27.574219 42.582031 27.574219 42.382812 L 27.597656 34.007812 C 27.597656 33.878906 27.648438 33.769531 27.730469 33.6875 C 27.816406 33.601562 27.925781 33.550781 28.050781 33.550781 L 39.40625 33.550781 C 39.726562 33.550781 39.984375 33.292969 39.984375 32.972656 C 39.984375 32.65625 39.726562 32.394531 39.40625 32.394531 L 28.050781 32.394531 C 27.609375 32.394531 27.203125 32.578125 26.910156 32.867188 C 26.621094 33.15625 26.4375 33.5625 26.4375 34.007812 L 26.4375 34.003906 L 26.414062 42.378906 L 26.996094 42.382812 L 27.234375 41.855469 L 27.226562 41.851562 C 27.046875 41.769531 26.839844 41.785156 26.671875 41.890625 C 26.507812 41.996094 26.40625 42.179688 26.40625 42.378906 C 26.40625 46.222656 25.761719 49.773438 25.078125 52.472656 C 24.738281 53.824219 24.390625 54.960938 24.109375 55.8125 C 23.964844 56.238281 23.84375 56.597656 23.746094 56.875 C 23.648438 57.152344 23.578125 57.347656 23.535156 57.480469 L 23.53125 57.484375 C 23.53125 57.492188 23.519531 57.519531 23.507812 57.566406 C 23.5 57.589844 23.492188 57.625 23.488281 57.648438 L 23.488281 57.652344 L 24.0625 57.734375 L 23.503906 57.574219 C 23.363281 58.070312 23.285156 58.589844 23.285156 59.121094 C 23.285156 60.191406 23.59375 61.210938 24.140625 62.121094 C 24.960938 63.488281 26.300781 64.613281 27.957031 65.402344 C 29.613281 66.1875 31.589844 66.644531 33.710938 66.644531 C 36.542969 66.640625 39.113281 65.839844 41.007812 64.503906 C 41.957031 63.835938 42.734375 63.03125 43.28125 62.121094 C 43.828125 61.210938 44.140625 60.191406 44.136719 59.121094 C 44.136719 58.589844 44.0625 58.070312 43.917969 57.574219 L 43.363281 57.734375 L 43.363281 58.3125 C 43.542969 58.3125 43.714844 58.226562 43.824219 58.082031 C 43.933594 57.9375 43.96875 57.75 43.917969 57.574219 L 43.917969 57.570312 C 43.902344 57.523438 43.894531 57.496094 43.890625 57.488281 L 43.890625 57.480469 C 43.847656 57.347656 43.777344 57.152344 43.679688 56.875 C 43.339844 55.902344 42.671875 53.964844 42.09375 51.421875 C 41.511719 48.882812 41.019531 45.738281 41.019531 42.378906 L 41.019531 34.007812 C 41.019531 33.5625 40.835938 33.15625 40.546875 32.867188 C 40.253906 32.578125 39.847656 32.394531 39.40625 32.394531 C 39.085938 32.394531 38.824219 32.65625 38.824219 32.972656 C 38.824219 33.292969 39.085938 33.550781 39.40625 33.550781 " fill-opacity="1" fill-rule="nonzero"/></g><path fill="#ffffff" d="M 34.144531 28.992188 C 34.015625 28.992188 33.882812 28.988281 33.746094 28.984375 C 33.628906 28.988281 33.496094 28.992188 33.363281 28.992188 C 27.75 28.992188 26.890625 25.839844 25.695312 21.480469 L 25.683594 21.441406 C 24.558594 17.332031 23.496094 16.015625 22.71875 15.050781 C 22.039062 14.207031 21.546875 13.597656 21.546875 11.714844 C 21.546875 8.488281 22.511719 7.753906 23.851562 6.742188 C 24.71875 6.082031 25.800781 5.265625 26.964844 3.453125 L 27.082031 3.269531 C 27.726562 2.25 28.53125 0.984375 30.488281 0.984375 L 37.019531 0.984375 C 39.207031 0.984375 39.957031 2.363281 40.558594 3.472656 C 41.644531 5.476562 42.722656 6.257812 43.675781 6.949219 C 44.953125 7.878906 45.964844 8.613281 45.964844 11.714844 C 45.964844 13.597656 45.472656 14.207031 44.789062 15.050781 C 44.015625 16.015625 42.953125 17.332031 41.828125 21.441406 L 41.816406 21.480469 C 40.621094 25.839844 39.757812 28.992188 34.148438 28.992188 L 34.144531 28.992188 " fill-opacity="1" fill-rule="nonzero"/><g clip-path="url(#id2)"><path fill="#5c5c5c" d="M 34.144531 28.992188 L 34.148438 28.414062 C 34.019531 28.414062 33.890625 28.410156 33.757812 28.40625 L 33.730469 28.40625 C 33.617188 28.410156 33.488281 28.414062 33.363281 28.414062 C 32.015625 28.414062 30.984375 28.222656 30.183594 27.894531 C 29.585938 27.648438 29.109375 27.328125 28.707031 26.933594 C 28.101562 26.339844 27.652344 25.5625 27.273438 24.613281 C 26.894531 23.667969 26.589844 22.554688 26.253906 21.328125 L 26.253906 21.332031 L 26.242188 21.292969 L 26.242188 21.289062 C 25.671875 19.203125 25.109375 17.808594 24.582031 16.796875 C 24.058594 15.789062 23.558594 15.167969 23.171875 14.6875 C 23 14.476562 22.851562 14.292969 22.726562 14.109375 C 22.539062 13.835938 22.398438 13.578125 22.292969 13.214844 C 22.191406 12.855469 22.125 12.382812 22.125 11.714844 C 22.125 10.9375 22.183594 10.324219 22.285156 9.835938 C 22.441406 9.101562 22.675781 8.652344 22.980469 8.273438 C 23.289062 7.898438 23.695312 7.582031 24.199219 7.203125 C 24.632812 6.875 25.148438 6.484375 25.699219 5.945312 C 26.253906 5.402344 26.847656 4.707031 27.449219 3.769531 L 27.453125 3.765625 L 27.570312 3.582031 L 27.570312 3.578125 C 27.890625 3.070312 28.226562 2.554688 28.667969 2.1875 C 28.886719 2 29.132812 1.847656 29.425781 1.738281 C 29.71875 1.628906 30.0625 1.5625 30.488281 1.5625 L 37.019531 1.5625 C 37.507812 1.5625 37.890625 1.636719 38.207031 1.757812 C 38.675781 1.9375 39.011719 2.214844 39.304688 2.566406 C 39.59375 2.914062 39.824219 3.332031 40.050781 3.75 C 40.613281 4.792969 41.191406 5.539062 41.753906 6.109375 C 42.316406 6.679688 42.859375 7.070312 43.332031 7.417969 C 43.652344 7.648438 43.9375 7.859375 44.183594 8.078125 C 44.546875 8.410156 44.824219 8.753906 45.035156 9.296875 C 45.246094 9.839844 45.382812 10.597656 45.382812 11.714844 C 45.382812 12.160156 45.355469 12.519531 45.304688 12.816406 C 45.226562 13.257812 45.113281 13.558594 44.957031 13.835938 C 44.800781 14.113281 44.597656 14.371094 44.339844 14.6875 C 43.949219 15.167969 43.453125 15.789062 42.925781 16.796875 C 42.398438 17.808594 41.839844 19.203125 41.269531 21.289062 L 41.257812 21.328125 C 40.957031 22.417969 40.683594 23.417969 40.359375 24.292969 C 40.117188 24.949219 39.847656 25.535156 39.523438 26.035156 C 39.039062 26.789062 38.453125 27.359375 37.613281 27.765625 C 36.777344 28.171875 35.664062 28.414062 34.148438 28.414062 L 34.144531 28.414062 L 34.148438 28.414062 L 34.144531 28.992188 L 34.144531 29.570312 L 34.148438 29.570312 C 35.601562 29.570312 36.785156 29.367188 37.761719 28.964844 C 38.496094 28.667969 39.109375 28.257812 39.617188 27.757812 C 40.378906 27.007812 40.898438 26.078125 41.3125 25.042969 C 41.726562 24.007812 42.039062 22.859375 42.375 21.632812 L 42.386719 21.59375 C 42.941406 19.566406 43.472656 18.25 43.953125 17.332031 C 44.433594 16.414062 44.855469 15.894531 45.242188 15.414062 C 45.410156 15.203125 45.578125 14.996094 45.738281 14.765625 C 45.976562 14.425781 46.1875 14.027344 46.328125 13.53125 C 46.46875 13.039062 46.542969 12.457031 46.542969 11.714844 C 46.542969 10.90625 46.476562 10.238281 46.351562 9.667969 C 46.164062 8.8125 45.828125 8.167969 45.402344 7.671875 C 44.976562 7.175781 44.492188 6.832031 44.015625 6.480469 C 43.539062 6.136719 43.066406 5.792969 42.578125 5.296875 C 42.09375 4.804688 41.589844 4.15625 41.066406 3.199219 C 40.765625 2.644531 40.402344 1.953125 39.773438 1.382812 C 39.457031 1.097656 39.074219 0.847656 38.617188 0.675781 C 38.160156 0.5 37.628906 0.402344 37.019531 0.402344 L 30.488281 0.402344 C 29.9375 0.402344 29.445312 0.496094 29.019531 0.65625 C 28.375 0.894531 27.882812 1.289062 27.5 1.710938 C 27.117188 2.128906 26.835938 2.578125 26.589844 2.960938 L 26.59375 2.960938 L 26.472656 3.144531 L 26.476562 3.140625 C 25.914062 4.011719 25.382812 4.632812 24.890625 5.117188 C 24.394531 5.601562 23.933594 5.953125 23.5 6.28125 C 23.164062 6.535156 22.835938 6.78125 22.527344 7.070312 C 22.066406 7.503906 21.648438 8.046875 21.378906 8.789062 C 21.105469 9.535156 20.96875 10.460938 20.96875 11.714844 C 20.96875 12.210938 21 12.632812 21.0625 13.007812 C 21.15625 13.566406 21.328125 14.019531 21.542969 14.402344 C 21.761719 14.789062 22.011719 15.097656 22.269531 15.414062 C 22.65625 15.894531 23.074219 16.414062 23.554688 17.332031 C 24.035156 18.25 24.570312 19.566406 25.125 21.59375 L 25.121094 21.589844 L 25.132812 21.628906 L 25.136719 21.632812 C 25.433594 22.722656 25.714844 23.75 26.0625 24.695312 C 26.324219 25.402344 26.625 26.058594 27.007812 26.65625 C 27.578125 27.554688 28.347656 28.304688 29.390625 28.808594 C 30.433594 29.3125 31.726562 29.570312 33.363281 29.570312 C 33.5 29.570312 33.640625 29.566406 33.761719 29.5625 L 33.746094 28.984375 L 33.734375 29.5625 C 33.871094 29.566406 34.007812 29.570312 34.144531 29.570312 L 34.144531 28.992188 " fill-opacity="1" fill-rule="nonzero"/></g><g clip-path="url(#id3)"><path fill="#ffffff" d="M 37.019531 0.640625 L 30.488281 0.640625 C 28.347656 0.640625 27.445312 2.054688 26.792969 3.089844 L 26.675781 3.269531 C 25.542969 5.03125 24.535156 5.792969 23.644531 6.46875 C 22.132812 7.613281 21.203125 8.480469 21.203125 11.714844 C 21.203125 13.714844 21.753906 14.402344 22.453125 15.265625 C 23.210938 16.203125 24.246094 17.492188 25.355469 21.53125 L 25.363281 21.570312 C 26.550781 25.90625 27.492188 29.332031 33.363281 29.332031 C 33.492188 29.332031 33.621094 29.332031 33.753906 29.328125 C 33.886719 29.332031 34.019531 29.332031 34.144531 29.332031 C 40.019531 29.332031 40.957031 25.90625 42.144531 21.570312 L 42.15625 21.53125 C 43.261719 17.492188 44.300781 16.203125 45.058594 15.265625 C 45.753906 14.402344 46.304688 13.714844 46.304688 11.714844 C 46.304688 8.4375 45.179688 7.621094 43.875 6.675781 C 42.953125 6.003906 41.910156 5.246094 40.859375 3.3125 C 40.246094 2.183594 39.410156 0.640625 37.019531 0.640625 Z M 37.019531 1.324219 C 39.003906 1.324219 39.667969 2.546875 40.257812 3.640625 C 42.871094 8.449219 45.621094 6.582031 45.621094 11.714844 C 45.621094 15.523438 43.628906 13.574219 41.496094 21.351562 C 40.316406 25.664062 39.515625 28.648438 34.144531 28.648438 C 34.019531 28.648438 33.886719 28.648438 33.753906 28.644531 C 33.621094 28.648438 33.492188 28.648438 33.363281 28.648438 C 27.996094 28.648438 27.195312 25.664062 26.011719 21.351562 C 23.882812 13.574219 21.886719 15.523438 21.886719 11.714844 C 21.886719 6.582031 24.289062 8.246094 27.25 3.640625 C 27.902344 2.625 28.609375 1.324219 30.488281 1.324219 L 37.019531 1.324219 " fill-opacity="1" fill-rule="nonzero"/></g><g clip-path="url(#id4)"><path fill="#5c5c5c" d="M 37.019531 0.640625 L 37.019531 0.0625 L 30.488281 0.0625 C 29.890625 0.0625 29.359375 0.164062 28.894531 0.335938 C 28.199219 0.597656 27.667969 1.019531 27.257812 1.46875 C 26.847656 1.917969 26.546875 2.390625 26.300781 2.777344 L 26.304688 2.773438 L 26.1875 2.957031 C 25.644531 3.804688 25.136719 4.398438 24.664062 4.863281 C 24.1875 5.332031 23.738281 5.671875 23.292969 6.007812 C 22.910156 6.300781 22.550781 6.582031 22.21875 6.90625 C 21.722656 7.386719 21.300781 7.972656 21.03125 8.742188 C 20.757812 9.515625 20.625 10.460938 20.625 11.714844 C 20.625 12.242188 20.660156 12.691406 20.730469 13.089844 C 20.835938 13.6875 21.015625 14.167969 21.246094 14.574219 C 21.476562 14.980469 21.742188 15.304688 22 15.628906 C 22.378906 16.097656 22.789062 16.601562 23.257812 17.503906 C 23.726562 18.398438 24.25 19.691406 24.792969 21.683594 L 24.792969 21.679688 L 24.804688 21.71875 L 24.804688 21.722656 C 25.101562 22.808594 25.386719 23.847656 25.746094 24.8125 C 26.015625 25.539062 26.328125 26.21875 26.726562 26.839844 C 27.320312 27.769531 28.121094 28.558594 29.207031 29.09375 C 30.296875 29.628906 31.648438 29.910156 33.363281 29.910156 C 33.496094 29.910156 33.632812 29.910156 33.769531 29.90625 L 33.753906 29.328125 L 33.738281 29.90625 C 33.878906 29.910156 34.011719 29.910156 34.144531 29.910156 C 35.667969 29.910156 36.910156 29.6875 37.929688 29.261719 C 38.695312 28.945312 39.335938 28.511719 39.863281 27.988281 C 40.65625 27.203125 41.195312 26.234375 41.625 25.171875 C 42.050781 24.109375 42.367188 22.941406 42.703125 21.722656 L 42.703125 21.726562 L 42.714844 21.683594 C 43.261719 19.691406 43.785156 18.398438 44.25 17.503906 C 44.722656 16.601562 45.128906 16.097656 45.507812 15.628906 C 45.683594 15.410156 45.855469 15.195312 46.023438 14.957031 C 46.273438 14.59375 46.5 14.175781 46.652344 13.652344 C 46.804688 13.125 46.882812 12.503906 46.882812 11.714844 C 46.882812 10.863281 46.8125 10.152344 46.671875 9.550781 C 46.46875 8.644531 46.105469 7.964844 45.65625 7.445312 C 45.210938 6.925781 44.703125 6.5625 44.214844 6.207031 C 43.753906 5.871094 43.296875 5.539062 42.828125 5.0625 C 42.359375 4.582031 41.871094 3.960938 41.371094 3.039062 C 41.0625 2.472656 40.671875 1.738281 39.996094 1.125 C 39.65625 0.820312 39.246094 0.546875 38.75 0.359375 C 38.253906 0.171875 37.679688 0.0625 37.019531 0.0625 L 37.019531 1.21875 C 37.554688 1.21875 37.984375 1.304688 38.335938 1.441406 C 38.863281 1.644531 39.242188 1.960938 39.558594 2.339844 C 39.878906 2.722656 40.121094 3.164062 40.351562 3.589844 C 40.898438 4.597656 41.457031 5.320312 42.003906 5.871094 C 42.546875 6.425781 43.074219 6.808594 43.535156 7.140625 C 43.863281 7.378906 44.160156 7.59375 44.417969 7.828125 C 44.804688 8.179688 45.109375 8.558594 45.339844 9.140625 C 45.574219 9.726562 45.726562 10.535156 45.726562 11.714844 C 45.726562 12.1875 45.691406 12.574219 45.636719 12.894531 C 45.554688 13.375 45.421875 13.707031 45.253906 14.003906 C 45.085938 14.304688 44.867188 14.578125 44.605469 14.902344 C 44.226562 15.371094 43.738281 15.980469 43.222656 16.96875 C 42.707031 17.957031 42.160156 19.328125 41.597656 21.378906 L 41.597656 21.375 L 41.585938 21.417969 C 41.289062 22.503906 41.011719 23.515625 40.675781 24.410156 C 40.425781 25.085938 40.144531 25.691406 39.808594 26.214844 C 39.296875 27.007812 38.675781 27.617188 37.789062 28.058594 C 36.902344 28.492188 35.734375 28.753906 34.144531 28.753906 C 34.023438 28.753906 33.898438 28.753906 33.769531 28.75 L 33.738281 28.75 C 33.609375 28.753906 33.488281 28.753906 33.363281 28.753906 C 31.949219 28.753906 30.871094 28.546875 30.027344 28.195312 C 29.394531 27.929688 28.890625 27.585938 28.460938 27.164062 C 27.824219 26.535156 27.351562 25.71875 26.960938 24.742188 C 26.566406 23.765625 26.257812 22.636719 25.921875 21.417969 L 25.925781 21.421875 L 25.914062 21.382812 L 25.914062 21.378906 C 25.351562 19.328125 24.800781 17.957031 24.285156 16.96875 C 23.773438 15.980469 23.28125 15.371094 22.902344 14.902344 C 22.730469 14.6875 22.574219 14.492188 22.441406 14.300781 C 22.242188 14.007812 22.085938 13.722656 21.972656 13.328125 C 21.855469 12.933594 21.785156 12.425781 21.785156 11.714844 C 21.785156 10.933594 21.839844 10.308594 21.941406 9.804688 C 22.09375 9.046875 22.335938 8.558594 22.664062 8.136719 C 22.992188 7.714844 23.433594 7.355469 23.992188 6.929688 C 24.4375 6.59375 24.941406 6.214844 25.476562 5.691406 C 26.011719 5.164062 26.574219 4.496094 27.160156 3.582031 L 27.277344 3.398438 L 27.28125 3.398438 C 27.605469 2.882812 27.964844 2.328125 28.457031 1.917969 C 28.699219 1.714844 28.976562 1.542969 29.300781 1.417969 C 29.632812 1.296875 30.015625 1.21875 30.488281 1.21875 L 37.019531 1.21875 Z M 37.019531 1.902344 C 37.457031 1.902344 37.796875 1.96875 38.078125 2.074219 C 38.492188 2.230469 38.785156 2.476562 39.050781 2.792969 C 39.3125 3.113281 39.527344 3.503906 39.75 3.914062 C 40.429688 5.167969 41.136719 6.011719 41.804688 6.632812 C 42.304688 7.097656 42.777344 7.433594 43.183594 7.730469 C 43.488281 7.953125 43.753906 8.148438 43.976562 8.355469 C 44.308594 8.664062 44.550781 8.972656 44.738281 9.472656 C 44.921875 9.96875 45.042969 10.671875 45.042969 11.714844 C 45.042969 12.164062 45.011719 12.515625 44.960938 12.800781 C 44.867188 13.296875 44.730469 13.578125 44.511719 13.902344 C 44.347656 14.144531 44.128906 14.402344 43.867188 14.730469 C 43.472656 15.226562 42.996094 15.882812 42.5 16.886719 C 42 17.894531 41.46875 19.257812 40.9375 21.199219 C 40.640625 22.277344 40.375 23.257812 40.058594 24.113281 C 39.824219 24.753906 39.566406 25.316406 39.261719 25.800781 C 38.796875 26.527344 38.242188 27.070312 37.449219 27.457031 C 36.652344 27.84375 35.597656 28.070312 34.144531 28.070312 C 34.023438 28.070312 33.898438 28.070312 33.769531 28.066406 L 33.738281 28.066406 C 33.609375 28.070312 33.488281 28.070312 33.363281 28.070312 C 32.074219 28.070312 31.09375 27.890625 30.335938 27.582031 C 29.765625 27.347656 29.316406 27.042969 28.933594 26.664062 C 28.359375 26.097656 27.933594 25.351562 27.570312 24.425781 C 27.203125 23.503906 26.902344 22.410156 26.570312 21.199219 C 26.03125 19.226562 25.496094 17.855469 24.988281 16.839844 C 24.605469 16.082031 24.242188 15.527344 23.914062 15.085938 C 23.671875 14.757812 23.449219 14.496094 23.269531 14.265625 C 23.128906 14.089844 23.015625 13.9375 22.917969 13.785156 C 22.777344 13.554688 22.671875 13.328125 22.59375 13.011719 C 22.515625 12.695312 22.46875 12.285156 22.46875 11.714844 C 22.464844 10.472656 22.613281 9.695312 22.84375 9.160156 C 23.015625 8.757812 23.226562 8.480469 23.515625 8.203125 C 23.730469 7.992188 23.988281 7.789062 24.292969 7.5625 C 24.742188 7.21875 25.285156 6.820312 25.871094 6.253906 C 26.457031 5.691406 27.089844 4.960938 27.738281 3.953125 C 28.070312 3.429688 28.390625 2.898438 28.800781 2.527344 C 29.003906 2.339844 29.230469 2.1875 29.496094 2.078125 C 29.769531 1.972656 30.085938 1.902344 30.488281 1.902344 L 37.019531 1.902344 C 37.339844 1.902344 37.601562 1.644531 37.601562 1.324219 C 37.601562 1.003906 37.339844 0.746094 37.019531 0.746094 L 30.488281 0.746094 C 29.953125 0.746094 29.476562 0.839844 29.0625 1.007812 C 28.441406 1.257812 27.980469 1.664062 27.621094 2.085938 C 27.265625 2.511719 27 2.957031 26.761719 3.328125 C 26.050781 4.433594 25.386719 5.148438 24.777344 5.691406 C 24.320312 6.097656 23.894531 6.410156 23.488281 6.71875 C 23.183594 6.953125 22.890625 7.183594 22.621094 7.460938 C 22.210938 7.871094 21.863281 8.386719 21.640625 9.070312 C 21.417969 9.753906 21.308594 10.59375 21.308594 11.714844 C 21.308594 12.214844 21.34375 12.632812 21.40625 13.003906 C 21.519531 13.652344 21.753906 14.144531 22.042969 14.554688 C 22.257812 14.867188 22.488281 15.136719 22.734375 15.449219 C 23.101562 15.914062 23.511719 16.476562 23.972656 17.402344 C 24.433594 18.328125 24.9375 19.617188 25.453125 21.503906 C 25.75 22.582031 26.023438 23.589844 26.359375 24.511719 C 26.613281 25.199219 26.902344 25.839844 27.269531 26.421875 C 27.816406 27.289062 28.554688 28.015625 29.554688 28.5 C 30.554688 28.984375 31.796875 29.226562 33.363281 29.226562 C 33.496094 29.226562 33.632812 29.226562 33.769531 29.222656 L 33.753906 28.644531 L 33.738281 29.222656 C 33.878906 29.226562 34.011719 29.226562 34.144531 29.226562 C 35.539062 29.226562 36.671875 29.035156 37.613281 28.652344 C 38.316406 28.363281 38.90625 27.96875 39.390625 27.484375 C 40.121094 26.761719 40.621094 25.859375 41.019531 24.851562 C 41.417969 23.839844 41.722656 22.714844 42.054688 21.503906 C 42.578125 19.585938 43.09375 18.289062 43.558594 17.359375 C 43.90625 16.660156 44.230469 16.171875 44.523438 15.777344 C 44.746094 15.476562 44.953125 15.230469 45.148438 14.980469 C 45.296875 14.792969 45.441406 14.605469 45.570312 14.398438 C 45.769531 14.085938 45.9375 13.722656 46.042969 13.289062 C 46.148438 12.851562 46.199219 12.347656 46.199219 11.714844 C 46.199219 11.046875 46.15625 10.480469 46.066406 9.988281 C 45.992188 9.558594 45.878906 9.183594 45.738281 8.851562 C 45.484375 8.273438 45.128906 7.832031 44.738281 7.480469 C 44.445312 7.214844 44.136719 6.992188 43.820312 6.761719 C 43.347656 6.417969 42.859375 6.0625 42.347656 5.546875 C 41.839844 5.03125 41.308594 4.355469 40.769531 3.363281 C 40.472656 2.820312 40.132812 2.175781 39.550781 1.644531 C 39.261719 1.378906 38.90625 1.148438 38.484375 0.992188 C 38.0625 0.832031 37.574219 0.746094 37.019531 0.746094 C 36.703125 0.746094 36.441406 1.003906 36.441406 1.324219 C 36.441406 1.644531 36.703125 1.902344 37.019531 1.902344 " fill-opacity="1" fill-rule="nonzero"/></g><path fill="#ffffff" d="M 33.566406 22.011719 C 31.242188 22.011719 29.351562 23.898438 29.351562 26.222656 L 29.351562 26.328125 C 29.351562 28.648438 31.242188 30.539062 33.566406 30.539062 C 35.890625 30.539062 37.78125 28.648438 37.78125 26.328125 L 37.78125 26.222656 C 37.78125 23.898438 35.890625 22.011719 33.566406 22.011719 Z M 33.566406 32.90625 C 30.023438 32.90625 27.144531 30.027344 27.144531 26.492188 L 27.144531 26.058594 C 27.144531 22.523438 30.023438 19.644531 33.566406 19.644531 C 37.105469 19.644531 39.988281 22.523438 39.988281 26.058594 L 39.988281 26.492188 C 39.988281 30.027344 37.105469 32.90625 33.566406 32.90625 " fill-opacity="1" fill-rule="nonzero"/><path fill="#5c5c5c" d="M 33.566406 22.011719 L 33.566406 21.433594 C 32.246094 21.433594 31.042969 21.972656 30.175781 22.835938 C 29.308594 23.703125 28.769531 24.902344 28.769531 26.222656 L 28.769531 26.328125 C 28.769531 27.648438 29.308594 28.847656 30.175781 29.710938 C 31.042969 30.578125 32.246094 31.117188 33.566406 31.117188 C 34.886719 31.117188 36.089844 30.578125 36.953125 29.710938 C 37.820312 28.847656 38.359375 27.648438 38.359375 26.328125 L 38.359375 26.222656 C 38.359375 24.902344 37.820312 23.703125 36.953125 22.835938 C 36.089844 21.972656 34.886719 21.433594 33.566406 21.433594 L 33.566406 22.589844 C 34.570312 22.589844 35.472656 22.996094 36.132812 23.65625 C 36.792969 24.316406 37.199219 25.21875 37.203125 26.222656 L 37.203125 26.328125 C 37.199219 27.332031 36.792969 28.234375 36.132812 28.894531 C 35.476562 29.554688 34.570312 29.957031 33.566406 29.960938 C 32.5625 29.957031 31.65625 29.554688 30.996094 28.894531 C 30.335938 28.234375 29.929688 27.332031 29.929688 26.328125 L 29.929688 26.222656 C 29.929688 25.21875 30.335938 24.316406 30.996094 23.65625 C 31.65625 22.996094 32.5625 22.589844 33.566406 22.589844 Z M 33.566406 32.90625 L 33.566406 32.328125 C 31.953125 32.324219 30.496094 31.671875 29.433594 30.613281 C 28.375 29.554688 27.722656 28.101562 27.722656 26.492188 L 27.722656 26.058594 C 27.722656 24.449219 28.375 22.992188 29.433594 21.933594 C 30.496094 20.878906 31.953125 20.222656 33.566406 20.222656 C 35.179688 20.222656 36.636719 20.878906 37.695312 21.933594 C 38.753906 22.992188 39.410156 24.449219 39.410156 26.058594 L 39.410156 26.492188 C 39.410156 28.101562 38.753906 29.554688 37.695312 30.613281 C 36.636719 31.671875 35.175781 32.324219 33.566406 32.328125 L 33.566406 33.484375 C 35.496094 33.484375 37.25 32.699219 38.515625 31.433594 C 39.78125 30.167969 40.566406 28.417969 40.566406 26.492188 L 40.566406 26.058594 C 40.566406 24.132812 39.78125 22.382812 38.515625 21.117188 C 37.25 19.851562 35.496094 19.066406 33.566406 19.066406 C 31.636719 19.066406 29.882812 19.851562 28.617188 21.117188 C 27.347656 22.382812 26.5625 24.132812 26.5625 26.058594 L 26.5625 26.492188 C 26.5625 28.417969 27.347656 30.167969 28.617188 31.433594 C 29.882812 32.699219 31.636719 33.484375 33.566406 33.484375 L 33.566406 32.90625 " fill-opacity="1" fill-rule="nonzero"/><path fill="#ffffff" d="M 33.566406 30.195312 C 31.429688 30.195312 29.691406 28.460938 29.691406 26.328125 L 29.691406 26.222656 C 29.691406 24.089844 31.429688 22.355469 33.566406 22.355469 C 35.699219 22.355469 37.4375 24.089844 37.4375 26.222656 L 37.4375 26.328125 C 37.4375 28.460938 35.699219 30.195312 33.566406 30.195312 Z M 33.566406 19.304688 C 29.835938 19.304688 26.800781 22.335938 26.800781 26.058594 L 26.800781 26.492188 C 26.800781 30.214844 29.835938 33.246094 33.566406 33.246094 C 37.296875 33.246094 40.332031 30.214844 40.332031 26.492188 L 40.332031 26.058594 C 40.332031 22.335938 37.296875 19.304688 33.566406 19.304688 Z M 33.566406 30.878906 C 36.082031 30.878906 38.121094 28.839844 38.121094 26.328125 L 38.121094 26.222656 C 38.121094 23.707031 36.082031 21.671875 33.566406 21.671875 C 31.050781 21.671875 29.007812 23.707031 29.007812 26.222656 L 29.007812 26.328125 C 29.007812 28.839844 31.050781 30.878906 33.566406 30.878906 M 33.566406 19.988281 C 36.921875 19.988281 39.648438 22.707031 39.648438 26.058594 L 39.648438 26.492188 C 39.648438 29.84375 36.921875 32.5625 33.566406 32.5625 C 30.207031 32.5625 27.484375 29.84375 27.484375 26.492188 L 27.484375 26.058594 C 27.484375 22.707031 30.207031 19.988281 33.566406 19.988281 " fill-opacity="1" fill-rule="nonzero"/><path fill="#5c5c5c" d="M 33.566406 30.195312 L 33.566406 29.617188 C 32.65625 29.617188 31.835938 29.25 31.238281 28.652344 C 30.640625 28.054688 30.273438 27.238281 30.273438 26.328125 L 30.273438 26.222656 C 30.273438 25.3125 30.640625 24.496094 31.238281 23.898438 C 31.835938 23.300781 32.65625 22.933594 33.566406 22.929688 C 34.476562 22.933594 35.292969 23.300781 35.894531 23.898438 C 36.492188 24.496094 36.859375 25.3125 36.859375 26.222656 L 36.859375 26.328125 C 36.859375 27.238281 36.492188 28.054688 35.894531 28.652344 C 35.292969 29.25 34.476562 29.617188 33.566406 29.617188 L 33.566406 30.773438 C 34.792969 30.773438 35.90625 30.273438 36.710938 29.46875 C 37.515625 28.667969 38.019531 27.554688 38.015625 26.328125 L 38.015625 26.222656 C 38.019531 24.996094 37.515625 23.882812 36.710938 23.078125 C 35.90625 22.273438 34.792969 21.773438 33.566406 21.777344 C 32.339844 21.773438 31.222656 22.273438 30.417969 23.078125 C 29.613281 23.882812 29.113281 24.996094 29.113281 26.222656 L 29.113281 26.328125 C 29.113281 27.554688 29.613281 28.667969 30.417969 29.472656 C 31.222656 30.273438 32.339844 30.773438 33.566406 30.773438 Z M 33.566406 19.304688 L 33.566406 18.726562 C 31.542969 18.726562 29.703125 19.550781 28.375 20.875 C 27.046875 22.203125 26.222656 24.039062 26.222656 26.058594 L 26.222656 26.492188 C 26.222656 28.511719 27.046875 30.347656 28.375 31.675781 C 29.703125 33 31.542969 33.824219 33.566406 33.824219 C 35.589844 33.824219 37.429688 33 38.757812 31.675781 C 40.085938 30.347656 40.910156 28.511719 40.910156 26.492188 L 40.910156 26.058594 C 40.910156 24.039062 40.085938 22.203125 38.757812 20.875 C 37.429688 19.550781 35.589844 18.726562 33.566406 18.726562 L 33.566406 19.882812 C 35.273438 19.882812 36.816406 20.574219 37.9375 21.695312 C 39.058594 22.816406 39.75 24.355469 39.75 26.058594 L 39.75 26.492188 C 39.75 28.195312 39.058594 29.734375 37.9375 30.855469 C 36.816406 31.976562 35.269531 32.667969 33.566406 32.667969 C 31.859375 32.667969 30.316406 31.976562 29.195312 30.855469 C 28.074219 29.734375 27.378906 28.195312 27.378906 26.492188 L 27.378906 26.058594 C 27.378906 24.355469 28.074219 22.816406 29.195312 21.695312 C 30.316406 20.574219 31.859375 19.882812 33.566406 19.882812 Z M 33.566406 31.457031 C 36.402344 31.457031 38.699219 29.160156 38.699219 26.328125 L 38.699219 26.222656 C 38.699219 24.808594 38.125 23.519531 37.195312 22.59375 C 36.269531 21.667969 34.980469 21.09375 33.566406 21.09375 C 30.730469 21.09375 28.429688 23.386719 28.429688 26.222656 L 28.429688 26.328125 C 28.429688 29.160156 30.730469 31.457031 33.566406 31.457031 C 33.886719 31.457031 34.144531 31.199219 34.144531 30.878906 C 34.144531 30.558594 33.886719 30.300781 33.566406 30.300781 C 32.464844 30.300781 31.472656 29.859375 30.753906 29.136719 C 30.03125 28.417969 29.585938 27.425781 29.585938 26.328125 L 29.585938 26.222656 C 29.585938 25.121094 30.03125 24.132812 30.753906 23.414062 C 31.472656 22.691406 32.464844 22.25 33.566406 22.25 C 34.664062 22.25 35.65625 22.691406 36.378906 23.414062 C 37.097656 24.132812 37.542969 25.121094 37.542969 26.222656 L 37.542969 26.328125 C 37.542969 27.425781 37.097656 28.417969 36.378906 29.136719 C 35.65625 29.859375 34.664062 30.300781 33.566406 30.300781 C 33.246094 30.300781 32.984375 30.558594 32.984375 30.878906 C 32.984375 31.199219 33.246094 31.457031 33.566406 31.457031 Z M 33.566406 20.566406 C 35.085938 20.566406 36.457031 21.179688 37.457031 22.175781 C 38.453125 23.171875 39.066406 24.539062 39.066406 26.058594 L 39.066406 26.492188 C 39.066406 28.007812 38.453125 29.378906 37.457031 30.375 C 36.457031 31.371094 35.085938 31.984375 33.566406 31.984375 C 32.042969 31.984375 30.671875 31.371094 29.675781 30.375 C 28.679688 29.378906 28.0625 28.007812 28.0625 26.492188 L 28.0625 26.058594 C 28.0625 24.539062 28.679688 23.171875 29.675781 22.175781 C 30.671875 21.179688 32.042969 20.566406 33.566406 20.566406 C 33.886719 20.566406 34.144531 20.308594 34.144531 19.988281 C 34.144531 19.667969 33.886719 19.410156 33.566406 19.410156 C 29.886719 19.410156 26.90625 22.386719 26.90625 26.058594 L 26.90625 26.492188 C 26.90625 30.164062 29.886719 33.140625 33.566406 33.140625 C 37.242188 33.140625 40.226562 30.164062 40.226562 26.492188 L 40.226562 26.058594 C 40.226562 22.386719 37.242188 19.410156 33.566406 19.410156 C 33.246094 19.410156 32.984375 19.667969 32.984375 19.988281 C 32.984375 20.308594 33.246094 20.566406 33.566406 20.566406 " fill-opacity="1" fill-rule="nonzero"/><path fill="#ffffff" d="M 32.464844 27.277344 C 31.1875 27.277344 30.144531 26.238281 30.144531 24.964844 L 30.144531 1.324219 C 30.144531 1.136719 30.300781 0.984375 30.488281 0.984375 L 37.019531 0.984375 C 37.210938 0.984375 37.363281 1.136719 37.363281 1.324219 L 37.363281 24.964844 C 37.363281 26.238281 36.324219 27.277344 35.046875 27.277344 L 32.464844 27.277344 " fill-opacity="1" fill-rule="nonzero"/><path fill="#5c5c5c" d="M 32.464844 27.277344 L 32.464844 26.699219 C 31.984375 26.699219 31.550781 26.503906 31.234375 26.1875 C 30.917969 25.875 30.726562 25.441406 30.726562 24.964844 L 30.726562 1.324219 L 30.488281 1.324219 L 30.65625 1.492188 C 30.699219 1.449219 30.726562 1.386719 30.726562 1.324219 L 30.488281 1.324219 L 30.65625 1.492188 L 30.488281 1.324219 L 30.488281 1.5625 C 30.550781 1.5625 30.613281 1.535156 30.65625 1.492188 L 30.488281 1.324219 L 30.488281 1.5625 L 37.019531 1.5625 L 37.019531 1.324219 L 36.855469 1.492188 C 36.894531 1.535156 36.957031 1.5625 37.019531 1.5625 L 37.019531 1.324219 L 36.855469 1.492188 L 37.019531 1.324219 L 36.785156 1.324219 C 36.785156 1.386719 36.8125 1.449219 36.855469 1.492188 L 37.019531 1.324219 L 36.785156 1.324219 L 36.785156 24.964844 C 36.785156 25.441406 36.589844 25.875 36.273438 26.1875 C 35.957031 26.503906 35.523438 26.699219 35.046875 26.699219 L 32.464844 26.699219 L 32.464844 27.855469 L 35.046875 27.855469 C 35.84375 27.855469 36.570312 27.53125 37.09375 27.007812 C 37.617188 26.484375 37.941406 25.757812 37.941406 24.964844 L 37.941406 1.324219 C 37.941406 1.070312 37.839844 0.839844 37.671875 0.675781 C 37.507812 0.507812 37.273438 0.402344 37.019531 0.402344 L 30.488281 0.402344 C 30.234375 0.402344 30 0.507812 29.835938 0.671875 C 29.671875 0.835938 29.566406 1.070312 29.566406 1.324219 L 29.566406 24.964844 C 29.566406 25.757812 29.890625 26.484375 30.417969 27.007812 C 30.9375 27.53125 31.667969 27.855469 32.464844 27.855469 L 32.464844 27.277344 " fill-opacity="1" fill-rule="nonzero"/><path fill="#ffffff" d="M 37.019531 0.640625 L 30.488281 0.640625 C 30.109375 0.640625 29.804688 0.945312 29.804688 1.324219 L 29.804688 24.964844 C 29.804688 26.425781 30.996094 27.617188 32.464844 27.617188 L 35.046875 27.617188 C 36.511719 27.617188 37.707031 26.425781 37.707031 24.964844 L 37.707031 1.324219 C 37.707031 0.945312 37.398438 0.640625 37.019531 0.640625 Z M 37.019531 1.324219 L 37.019531 24.964844 C 37.019531 26.050781 36.136719 26.9375 35.046875 26.9375 L 32.464844 26.9375 C 31.375 26.9375 30.488281 26.050781 30.488281 24.964844 L 30.488281 1.324219 L 37.019531 1.324219 " fill-opacity="1" fill-rule="nonzero"/><path fill="#5c5c5c" d="M 37.019531 0.640625 L 37.019531 0.0625 L 30.488281 0.0625 C 30.140625 0.0625 29.820312 0.207031 29.59375 0.433594 C 29.367188 0.660156 29.222656 0.976562 29.226562 1.324219 L 29.226562 24.964844 C 29.222656 25.851562 29.589844 26.664062 30.175781 27.25 C 30.757812 27.832031 31.570312 28.199219 32.464844 28.199219 L 35.046875 28.199219 C 35.9375 28.199219 36.75 27.832031 37.335938 27.25 C 37.921875 26.664062 38.285156 25.851562 38.285156 24.964844 L 38.285156 1.324219 C 38.285156 0.976562 38.144531 0.660156 37.914062 0.433594 C 37.6875 0.207031 37.367188 0.0625 37.019531 0.0625 L 37.019531 1.21875 C 37.050781 1.21875 37.074219 1.230469 37.09375 1.25 C 37.117188 1.269531 37.125 1.292969 37.125 1.324219 L 37.125 24.964844 C 37.125 25.535156 36.894531 26.050781 36.515625 26.429688 C 36.136719 26.808594 35.621094 27.039062 35.046875 27.039062 L 32.464844 27.039062 C 31.890625 27.039062 31.375 26.808594 30.992188 26.429688 C 30.617188 26.054688 30.382812 25.535156 30.382812 24.964844 L 30.382812 1.324219 C 30.382812 1.292969 30.394531 1.269531 30.414062 1.25 C 30.433594 1.230469 30.457031 1.21875 30.488281 1.21875 L 37.019531 1.21875 Z M 36.441406 1.324219 L 36.441406 24.964844 C 36.441406 25.347656 36.285156 25.695312 36.03125 25.949219 C 35.777344 26.203125 35.433594 26.359375 35.046875 26.359375 L 32.464844 26.359375 C 32.078125 26.359375 31.730469 26.203125 31.476562 25.949219 C 31.222656 25.695312 31.066406 25.347656 31.066406 24.964844 L 31.066406 1.902344 L 37.019531 1.902344 C 37.339844 1.902344 37.601562 1.644531 37.601562 1.324219 C 37.601562 1.003906 37.339844 0.746094 37.019531 0.746094 L 30.488281 0.746094 C 30.335938 0.746094 30.1875 0.808594 30.078125 0.914062 C 29.96875 1.023438 29.910156 1.171875 29.910156 1.324219 L 29.910156 24.964844 C 29.910156 25.664062 30.195312 26.308594 30.65625 26.765625 C 31.117188 27.226562 31.761719 27.515625 32.464844 27.515625 L 35.046875 27.515625 C 35.75 27.515625 36.390625 27.226562 36.851562 26.765625 C 37.3125 26.308594 37.601562 25.664062 37.601562 24.964844 L 37.601562 1.324219 C 37.601562 1.003906 37.339844 0.746094 37.019531 0.746094 C 36.703125 0.746094 36.441406 1.003906 36.441406 1.324219 " fill-opacity="1" fill-rule="nonzero"/><path fill="#ffffff" d="M 34.25 37.425781 C 34.167969 37.425781 34.082031 37.425781 33.992188 37.421875 C 33.902344 37.421875 33.808594 37.417969 33.710938 37.417969 C 33.617188 37.417969 33.523438 37.421875 33.433594 37.421875 C 33.34375 37.425781 33.257812 37.425781 33.175781 37.425781 C 32.90625 37.425781 32.625 37.40625 32.398438 37.273438 C 32.132812 37.113281 32 36.835938 32 36.449219 L 32 30.515625 C 32 29.539062 32.855469 29.539062 33.175781 29.539062 C 33.257812 29.539062 33.34375 29.542969 33.433594 29.542969 C 33.523438 29.542969 33.617188 29.546875 33.710938 29.546875 C 33.808594 29.546875 33.902344 29.542969 33.992188 29.542969 C 34.082031 29.542969 34.167969 29.539062 34.25 29.539062 C 34.570312 29.539062 35.425781 29.539062 35.425781 30.515625 L 35.425781 36.449219 C 35.425781 37.425781 34.570312 37.425781 34.25 37.425781 " fill-opacity="1" fill-rule="nonzero"/><path fill="#5c5c5c" d="M 34.25 37.425781 L 34.25 36.847656 C 34.175781 36.847656 34.09375 36.847656 34.003906 36.84375 L 34.007812 36.84375 C 33.917969 36.84375 33.816406 36.839844 33.710938 36.839844 C 33.609375 36.839844 33.507812 36.84375 33.417969 36.84375 L 33.421875 36.84375 C 33.332031 36.847656 33.25 36.847656 33.175781 36.847656 C 33.054688 36.847656 32.945312 36.84375 32.863281 36.828125 C 32.78125 36.816406 32.730469 36.796875 32.695312 36.777344 L 32.699219 36.777344 C 32.65625 36.75 32.644531 36.734375 32.621094 36.695312 C 32.601562 36.652344 32.578125 36.578125 32.578125 36.449219 L 32.578125 30.515625 C 32.582031 30.355469 32.613281 30.289062 32.632812 30.253906 C 32.648438 30.230469 32.660156 30.21875 32.6875 30.199219 C 32.726562 30.171875 32.804688 30.144531 32.894531 30.132812 C 32.988281 30.117188 33.085938 30.117188 33.175781 30.117188 C 33.246094 30.117188 33.328125 30.117188 33.421875 30.121094 L 33.417969 30.121094 C 33.511719 30.125 33.609375 30.125 33.710938 30.125 C 33.816406 30.125 33.914062 30.125 34.007812 30.121094 L 34.003906 30.121094 C 34.09375 30.117188 34.179688 30.117188 34.25 30.117188 C 34.328125 30.117188 34.414062 30.117188 34.5 30.128906 C 34.5625 30.136719 34.621094 30.148438 34.664062 30.164062 C 34.699219 30.175781 34.722656 30.191406 34.742188 30.203125 C 34.769531 30.222656 34.785156 30.238281 34.804688 30.273438 C 34.820312 30.308594 34.84375 30.378906 34.84375 30.515625 L 34.84375 36.449219 C 34.84375 36.613281 34.8125 36.675781 34.792969 36.710938 C 34.777344 36.734375 34.765625 36.75 34.738281 36.765625 C 34.699219 36.792969 34.621094 36.820312 34.53125 36.832031 C 34.4375 36.847656 34.339844 36.847656 34.25 36.847656 L 34.25 38.003906 C 34.332031 38.003906 34.472656 38.007812 34.636719 37.984375 C 34.765625 37.972656 34.90625 37.941406 35.054688 37.890625 C 35.167969 37.847656 35.289062 37.792969 35.402344 37.714844 C 35.574219 37.597656 35.738281 37.421875 35.84375 37.199219 C 35.953125 36.980469 36.003906 36.726562 36.003906 36.449219 L 36.003906 30.515625 C 36.003906 30.191406 35.929688 29.890625 35.777344 29.648438 C 35.667969 29.464844 35.515625 29.324219 35.363281 29.226562 C 35.132812 29.078125 34.898438 29.019531 34.703125 28.988281 C 34.507812 28.960938 34.339844 28.960938 34.25 28.960938 C 34.15625 28.960938 34.066406 28.960938 33.980469 28.964844 L 33.976562 28.964844 C 33.890625 28.964844 33.800781 28.96875 33.710938 28.96875 C 33.625 28.96875 33.535156 28.964844 33.445312 28.964844 C 33.355469 28.960938 33.269531 28.960938 33.175781 28.960938 C 33.09375 28.960938 32.953125 28.960938 32.785156 28.980469 C 32.660156 28.996094 32.519531 29.023438 32.367188 29.074219 C 32.253906 29.117188 32.136719 29.171875 32.023438 29.253906 C 31.851562 29.371094 31.6875 29.542969 31.582031 29.765625 C 31.472656 29.984375 31.421875 30.242188 31.421875 30.515625 L 31.421875 36.449219 C 31.421875 36.707031 31.464844 36.964844 31.578125 37.199219 C 31.691406 37.429688 31.875 37.632812 32.097656 37.765625 L 32.101562 37.765625 C 32.292969 37.882812 32.496094 37.941406 32.675781 37.972656 C 32.859375 38 33.027344 38.003906 33.175781 38.003906 C 33.265625 38.003906 33.355469 38.003906 33.445312 38 C 33.535156 38 33.625 37.996094 33.710938 37.996094 C 33.800781 37.996094 33.886719 38 33.980469 38 C 34.070312 38.003906 34.160156 38.003906 34.25 38.003906 L 34.25 37.425781 " fill-opacity="1" fill-rule="nonzero"/><path fill="#ffffff" d="M 34.25 29.199219 C 34.164062 29.199219 34.078125 29.199219 33.984375 29.203125 C 33.898438 29.203125 33.804688 29.207031 33.710938 29.207031 C 33.621094 29.207031 33.527344 29.203125 33.4375 29.203125 C 33.347656 29.199219 33.261719 29.199219 33.175781 29.199219 C 31.921875 29.199219 31.65625 29.914062 31.65625 30.515625 L 31.65625 36.449219 C 31.65625 37.050781 31.921875 37.769531 33.175781 37.769531 C 33.257812 37.769531 33.347656 37.765625 33.4375 37.765625 C 33.527344 37.761719 33.621094 37.761719 33.710938 37.761719 C 33.804688 37.761719 33.898438 37.761719 33.984375 37.765625 C 34.078125 37.765625 34.164062 37.769531 34.25 37.769531 C 35.503906 37.769531 35.765625 37.050781 35.765625 36.449219 L 35.765625 30.515625 C 35.765625 29.914062 35.503906 29.199219 34.25 29.199219 Z M 34.25 29.878906 C 34.738281 29.878906 35.082031 29.953125 35.082031 30.515625 L 35.082031 36.449219 C 35.082031 37.015625 34.738281 37.085938 34.25 37.085938 C 34.085938 37.085938 33.902344 37.078125 33.710938 37.078125 C 33.523438 37.078125 33.339844 37.085938 33.175781 37.085938 C 32.683594 37.085938 32.339844 37.015625 32.339844 36.449219 L 32.339844 30.515625 C 32.339844 29.953125 32.683594 29.878906 33.175781 29.878906 C 33.339844 29.878906 33.523438 29.886719 33.710938 29.886719 C 33.902344 29.886719 34.085938 29.878906 34.25 29.878906 " fill-opacity="1" fill-rule="nonzero"/><path fill="#5c5c5c" d="M 34.25 29.199219 L 34.25 28.621094 C 34.15625 28.621094 34.0625 28.621094 33.96875 28.621094 L 33.972656 28.621094 C 33.882812 28.625 33.796875 28.628906 33.710938 28.628906 C 33.628906 28.628906 33.542969 28.625 33.453125 28.621094 C 33.359375 28.621094 33.269531 28.621094 33.175781 28.621094 C 32.808594 28.621094 32.484375 28.671875 32.203125 28.777344 C 31.992188 28.859375 31.804688 28.972656 31.652344 29.105469 C 31.421875 29.3125 31.273438 29.566406 31.1875 29.8125 C 31.105469 30.058594 31.078125 30.300781 31.078125 30.515625 L 31.078125 36.449219 C 31.078125 36.640625 31.097656 36.851562 31.164062 37.070312 C 31.210938 37.234375 31.28125 37.402344 31.390625 37.5625 C 31.550781 37.800781 31.792969 38.007812 32.097656 38.144531 C 32.402344 38.28125 32.761719 38.347656 33.175781 38.347656 C 33.269531 38.347656 33.363281 38.34375 33.449219 38.34375 C 33.542969 38.339844 33.628906 38.339844 33.710938 38.339844 C 33.796875 38.339844 33.882812 38.339844 33.972656 38.34375 C 34.0625 38.34375 34.15625 38.347656 34.25 38.347656 C 34.617188 38.347656 34.941406 38.292969 35.222656 38.1875 C 35.433594 38.105469 35.621094 37.996094 35.773438 37.859375 C 36.003906 37.652344 36.152344 37.398438 36.234375 37.152344 C 36.320312 36.90625 36.34375 36.664062 36.34375 36.449219 L 36.347656 30.515625 C 36.34375 30.324219 36.324219 30.113281 36.261719 29.894531 C 36.214844 29.730469 36.140625 29.5625 36.035156 29.40625 C 35.871094 29.167969 35.628906 28.957031 35.324219 28.820312 C 35.019531 28.683594 34.664062 28.621094 34.25 28.617188 L 34.25 29.777344 C 34.507812 29.773438 34.6875 29.8125 34.808594 29.859375 C 34.898438 29.894531 34.957031 29.933594 35.003906 29.972656 C 35.066406 30.03125 35.105469 30.09375 35.140625 30.1875 C 35.171875 30.277344 35.1875 30.394531 35.1875 30.515625 L 35.1875 36.449219 C 35.1875 36.558594 35.175781 36.664062 35.148438 36.746094 C 35.128906 36.8125 35.105469 36.867188 35.074219 36.910156 C 35.027344 36.980469 34.972656 37.035156 34.851562 37.089844 C 34.730469 37.144531 34.539062 37.191406 34.25 37.191406 C 34.175781 37.191406 34.089844 37.1875 33.996094 37.1875 C 33.910156 37.183594 33.816406 37.183594 33.710938 37.183594 C 33.609375 37.183594 33.515625 37.183594 33.425781 37.1875 C 33.335938 37.1875 33.25 37.191406 33.175781 37.191406 C 32.917969 37.191406 32.734375 37.152344 32.617188 37.105469 C 32.523438 37.070312 32.464844 37.035156 32.421875 36.996094 C 32.359375 36.9375 32.316406 36.871094 32.285156 36.777344 C 32.253906 36.6875 32.238281 36.570312 32.238281 36.449219 L 32.238281 30.515625 C 32.238281 30.40625 32.25 30.304688 32.273438 30.21875 C 32.292969 30.152344 32.316406 30.101562 32.347656 30.054688 C 32.398438 29.988281 32.453125 29.933594 32.574219 29.878906 C 32.691406 29.824219 32.882812 29.773438 33.175781 29.777344 C 33.25 29.773438 33.335938 29.777344 33.425781 29.78125 C 33.515625 29.78125 33.609375 29.785156 33.710938 29.785156 C 33.816406 29.785156 33.910156 29.78125 33.996094 29.78125 L 34 29.78125 C 34.089844 29.777344 34.171875 29.773438 34.25 29.773438 Z M 34.25 30.457031 C 34.359375 30.457031 34.445312 30.464844 34.5 30.472656 C 34.539062 30.476562 34.558594 30.484375 34.558594 30.484375 L 34.597656 30.390625 L 34.53125 30.46875 L 34.558594 30.484375 L 34.597656 30.390625 L 34.53125 30.46875 L 34.613281 30.375 L 34.496094 30.417969 C 34.492188 30.417969 34.511719 30.449219 34.53125 30.46875 L 34.613281 30.375 L 34.496094 30.417969 L 34.5 30.441406 C 34.5 30.457031 34.503906 30.480469 34.503906 30.515625 L 34.503906 36.449219 C 34.503906 36.492188 34.5 36.519531 34.496094 36.535156 L 34.496094 36.546875 L 34.621094 36.597656 L 34.53125 36.496094 L 34.496094 36.546875 L 34.621094 36.597656 L 34.53125 36.496094 L 34.597656 36.570312 L 34.558594 36.480469 L 34.53125 36.496094 L 34.597656 36.570312 L 34.558594 36.480469 C 34.558594 36.480469 34.527344 36.492188 34.476562 36.496094 C 34.421875 36.503906 34.34375 36.507812 34.25 36.507812 C 34.105469 36.507812 33.917969 36.5 33.710938 36.5 C 33.503906 36.5 33.320312 36.507812 33.175781 36.507812 C 33.066406 36.507812 32.980469 36.503906 32.925781 36.496094 C 32.886719 36.488281 32.867188 36.480469 32.867188 36.480469 L 32.824219 36.574219 L 32.894531 36.5 L 32.867188 36.480469 L 32.824219 36.574219 L 32.894531 36.5 L 32.8125 36.589844 L 32.929688 36.546875 C 32.929688 36.546875 32.914062 36.515625 32.894531 36.5 L 32.8125 36.589844 L 32.929688 36.546875 L 32.925781 36.527344 C 32.921875 36.507812 32.921875 36.484375 32.921875 36.449219 L 32.921875 30.515625 C 32.921875 30.476562 32.925781 30.449219 32.925781 30.433594 L 32.929688 30.417969 L 32.804688 30.367188 L 32.894531 30.46875 L 32.929688 30.417969 L 32.804688 30.367188 L 32.894531 30.46875 L 32.828125 30.394531 L 32.867188 30.484375 L 32.894531 30.46875 L 32.828125 30.394531 L 32.867188 30.484375 C 32.867188 30.484375 32.894531 30.476562 32.949219 30.46875 C 33.003906 30.460938 33.082031 30.457031 33.175781 30.457031 C 33.320312 30.457031 33.503906 30.464844 33.710938 30.464844 C 33.917969 30.464844 34.101562 30.457031 34.25 30.457031 C 34.570312 30.457031 34.828125 30.199219 34.828125 29.878906 C 34.828125 29.5625 34.570312 29.300781 34.25 29.300781 C 34.066406 29.300781 33.886719 29.308594 33.710938 29.308594 C 33.539062 29.308594 33.359375 29.300781 33.175781 29.300781 C 33.039062 29.300781 32.898438 29.304688 32.75 29.328125 C 32.636719 29.347656 32.519531 29.375 32.398438 29.425781 C 32.308594 29.46875 32.214844 29.523438 32.128906 29.597656 C 32 29.710938 31.898438 29.863281 31.839844 30.023438 C 31.78125 30.183594 31.761719 30.347656 31.761719 30.515625 L 31.761719 36.449219 C 31.761719 36.648438 31.792969 36.84375 31.878906 37.027344 C 31.941406 37.167969 32.039062 37.296875 32.15625 37.390625 C 32.332031 37.535156 32.523438 37.597656 32.695312 37.628906 C 32.863281 37.660156 33.019531 37.664062 33.175781 37.664062 C 33.359375 37.664062 33.539062 37.65625 33.710938 37.65625 C 33.886719 37.65625 34.066406 37.664062 34.25 37.664062 C 34.386719 37.664062 34.523438 37.660156 34.675781 37.636719 C 34.785156 37.621094 34.902344 37.59375 35.027344 37.539062 C 35.117188 37.5 35.210938 37.441406 35.296875 37.367188 C 35.425781 37.253906 35.527344 37.101562 35.582031 36.941406 C 35.640625 36.78125 35.660156 36.617188 35.660156 36.449219 L 35.660156 30.515625 C 35.660156 30.320312 35.632812 30.125 35.546875 29.9375 C 35.484375 29.796875 35.386719 29.667969 35.269531 29.574219 C 35.09375 29.433594 34.898438 29.371094 34.730469 29.335938 C 34.5625 29.308594 34.402344 29.300781 34.25 29.300781 C 33.929688 29.300781 33.671875 29.5625 33.671875 29.878906 C 33.671875 30.199219 33.929688 30.457031 34.25 30.457031 " fill-opacity="1" fill-rule="nonzero"/></svg>