<svg xmlns="http://www.w3.org/2000/svg" xmlns:xlink="http://www.w3.org/1999/xlink" width="90" zoomAndPan="magnify" viewBox="0 0 67.5 67.499996" height="90" preserveAspectRatio="xMidYMid meet" version="1.0"><defs><clipPath id="id1"><path d="M 0 0.0390625 L 67.003906 0.0390625 L 67.003906 67.003906 L 0 67.003906 Z M 0 0.0390625 " clip-rule="nonzero"/></clipPath></defs><path fill="#000000" d="M 39.636719 31.746094 C 39.457031 31.746094 39.292969 31.695312 39.144531 31.597656 C 38.996094 31.496094 38.886719 31.359375 38.820312 31.195312 C 38.753906 31.027344 38.742188 30.855469 38.78125 30.679688 C 38.820312 30.503906 38.90625 30.355469 39.035156 30.230469 L 47.957031 21.867188 C 48.132812 21.703125 48.339844 21.625 48.582031 21.632812 C 48.824219 21.640625 49.027344 21.730469 49.195312 21.910156 C 49.359375 22.085938 49.4375 22.296875 49.429688 22.539062 C 49.421875 22.78125 49.328125 22.984375 49.152344 23.148438 L 40.234375 31.511719 C 40.066406 31.667969 39.867188 31.75 39.636719 31.746094 Z M 39.636719 31.746094 " fill-opacity="1" fill-rule="nonzero"/><g clip-path="url(#id1)"><path fill="#000000" d="M 65.757812 40.390625 C 61.148438 18.964844 54.847656 10.152344 54.582031 9.78125 C 54.488281 9.648438 54.363281 9.550781 54.214844 9.484375 L 44.679688 5.527344 L 44.535156 4.871094 C 44.492188 4.679688 44.398438 4.523438 44.25 4.394531 L 39.390625 0.257812 C 39.226562 0.113281 39.039062 0.0390625 38.824219 0.0390625 L 29.398438 0.0390625 C 29.183594 0.0390625 28.996094 0.113281 28.832031 0.257812 L 23.972656 4.421875 C 23.824219 4.546875 23.726562 4.703125 23.683594 4.894531 L 23.539062 5.550781 L 14.011719 9.484375 C 13.859375 9.550781 13.734375 9.648438 13.636719 9.78125 C 13.375 10.144531 7.074219 18.964844 2.464844 40.382812 C 2.4375 40.515625 -0.515625 53.710938 0.0742188 66.625 C 0.0820312 66.859375 0.171875 67.054688 0.34375 67.21875 C 0.511719 67.378906 0.714844 67.460938 0.949219 67.460938 L 9.957031 67.460938 C 10.191406 67.460938 10.394531 67.378906 10.5625 67.21875 C 10.730469 67.058594 10.820312 66.863281 10.832031 66.628906 C 10.832031 66.488281 11.472656 54.738281 12.941406 46.15625 C 13.613281 50.339844 14.539062 56.453125 14.894531 60.371094 C 14.914062 60.5625 14.988281 60.730469 15.117188 60.875 C 15.246094 61.019531 15.402344 61.109375 15.59375 61.148438 C 15.683594 61.167969 24.519531 62.9375 34.0625 62.949219 L 34.160156 62.949219 C 43.703125 62.9375 52.535156 61.167969 52.628906 61.148438 C 52.816406 61.109375 52.976562 61.019531 53.105469 60.875 C 53.234375 60.730469 53.308594 60.5625 53.324219 60.371094 C 53.679688 56.445312 54.609375 50.339844 55.28125 46.15625 C 56.75 54.738281 57.382812 66.488281 57.390625 66.628906 C 57.402344 66.863281 57.492188 67.058594 57.664062 67.21875 C 57.832031 67.378906 58.03125 67.460938 58.265625 67.460938 L 67.277344 67.460938 C 67.507812 67.460938 67.710938 67.378906 67.878906 67.21875 C 68.050781 67.054688 68.140625 66.859375 68.152344 66.625 C 68.742188 53.710938 65.789062 40.515625 65.761719 40.390625 Z M 42.890625 5.550781 L 45.0625 15.191406 L 38.386719 14.890625 C 38.003906 14.871094 37.730469 15.035156 37.5625 15.382812 C 37.394531 15.726562 37.433594 16.042969 37.683594 16.335938 L 42.3125 21.722656 L 30.28125 31.523438 C 30.816406 30.429688 35.394531 20.328125 35.617188 19.785156 C 39.324219 10.894531 40.429688 6.117188 40.429688 3.4375 Z M 29.84375 1.789062 L 38.375 1.789062 C 38.882812 2.796875 39.273438 6.378906 34.109375 18.832031 C 28.949219 6.390625 29.328125 2.804688 29.84375 1.789062 Z M 25.328125 5.546875 L 27.796875 3.433594 C 27.796875 6.246094 29.007812 11.363281 33.15625 21.082031 C 32.4375 22.75 31.707031 24.367188 31.011719 25.875 L 25.90625 21.710938 L 30.535156 16.324219 C 30.785156 16.035156 30.824219 15.714844 30.65625 15.371094 C 30.488281 15.027344 30.214844 14.863281 29.832031 14.878906 L 23.152344 15.179688 Z M 30.25 27.511719 C 29.445312 29.21875 28.71875 30.71875 28.148438 31.871094 C 27.828125 29.476562 27.519531 27.167969 27.234375 25.058594 Z M 26.117188 16.808594 L 27.886719 16.726562 L 26.355469 18.511719 C 26.261719 17.816406 26.179688 17.242188 26.121094 16.808594 Z M 6.730469 65.707031 L 5.882812 65.707031 L 6.730469 62.539062 Z M 12.199219 41.183594 C 10.261719 48.523438 9.355469 62.171875 9.136719 65.707031 L 8.480469 65.707031 L 8.480469 55.898438 C 8.480469 55.679688 8.40625 55.488281 8.261719 55.324219 C 8.113281 55.160156 7.933594 55.066406 7.71875 55.039062 C 7.5 55.011719 7.300781 55.058594 7.121094 55.179688 C 6.9375 55.300781 6.820312 55.46875 6.761719 55.679688 L 4.070312 65.710938 L 1.789062 65.710938 C 1.367188 53.308594 4.152344 40.898438 4.175781 40.761719 C 7.894531 23.464844 12.820312 14.410156 14.476562 11.699219 C 15.066406 12.515625 15.503906 13.402344 15.789062 14.367188 C 16.59375 16.859375 17.175781 21.433594 15.386719 29.085938 Z M 15.84375 53.625 L 21.835938 36.246094 C 21.921875 36.015625 21.914062 35.789062 21.808594 35.570312 C 21.703125 35.347656 21.535156 35.195312 21.300781 35.113281 C 21.070312 35.035156 20.84375 35.050781 20.625 35.160156 C 20.40625 35.269531 20.257812 35.441406 20.183594 35.675781 L 15.292969 49.855469 C 14.679688 45.824219 14.085938 42.292969 13.941406 41.449219 L 17.097656 29.496094 C 19.8125 17.898438 17.378906 12.625 15.855469 10.617188 L 23.074219 7.625 L 21.207031 15.921875 C 21.175781 16.054688 21.179688 16.1875 21.210938 16.320312 C 21.242188 16.453125 21.300781 16.570312 21.390625 16.675781 C 21.476562 16.78125 21.582031 16.859375 21.707031 16.914062 C 21.832031 16.96875 21.964844 16.996094 22.097656 16.988281 L 24.375 16.886719 C 24.472656 17.601562 24.632812 18.773438 24.835938 20.285156 L 24.003906 21.253906 C 23.84375 21.441406 23.773438 21.660156 23.796875 21.90625 C 23.820312 22.148438 23.925781 22.351562 24.117188 22.507812 L 25.261719 23.441406 C 26.574219 33.183594 28.597656 48.328125 29.59375 56.847656 C 25.082031 56.683594 20.59375 56.28125 16.125 55.640625 C 16.039062 54.984375 15.949219 54.304688 15.851562 53.625 Z M 16.582031 59.542969 C 16.515625 58.886719 16.4375 58.175781 16.347656 57.4375 C 20.808594 58.054688 25.289062 58.441406 29.789062 58.597656 C 29.898438 59.554688 29.988281 60.394531 30.054688 61.082031 C 25.53125 60.851562 21.039062 60.339844 16.582031 59.546875 Z M 51.648438 59.542969 C 49.476562 59.941406 42.039062 61.183594 34.113281 61.1875 C 33.34375 61.1875 32.582031 61.171875 31.816406 61.152344 C 31.753906 60.46875 31.664062 59.617188 31.554688 58.648438 C 32.597656 58.675781 33.675781 58.6875 34.777344 58.6875 C 40.511719 58.710938 46.214844 58.296875 51.882812 57.445312 C 51.792969 58.183594 51.714844 58.886719 51.648438 59.542969 Z M 52.933594 49.859375 L 48.042969 35.675781 C 47.96875 35.441406 47.820312 35.269531 47.601562 35.160156 C 47.382812 35.050781 47.15625 35.035156 46.925781 35.113281 C 46.691406 35.195312 46.523438 35.347656 46.417969 35.570312 C 46.3125 35.789062 46.304688 36.015625 46.390625 36.246094 L 52.378906 53.632812 C 52.285156 54.308594 52.195312 54.984375 52.105469 55.644531 C 44.765625 56.832031 37.472656 57.058594 31.355469 56.902344 C 30.710938 51.402344 29.628906 43.035156 28.585938 35.148438 L 44.117188 22.507812 C 44.308594 22.351562 44.414062 22.148438 44.4375 21.90625 C 44.457031 21.660156 44.386719 21.441406 44.226562 21.253906 L 40.335938 16.726562 L 46.132812 16.988281 C 46.269531 16.996094 46.398438 16.96875 46.523438 16.914062 C 46.648438 16.859375 46.753906 16.78125 46.84375 16.675781 C 46.929688 16.570312 46.988281 16.453125 47.023438 16.320312 C 47.054688 16.1875 47.054688 16.054688 47.027344 15.921875 L 45.15625 7.621094 L 52.375 10.617188 C 50.84375 12.628906 48.417969 17.898438 51.132812 29.496094 L 54.285156 41.453125 C 54.140625 42.296875 53.542969 45.835938 52.933594 49.863281 Z M 61.492188 65.707031 L 61.492188 62.539062 L 62.339844 65.707031 Z M 66.433594 65.707031 L 64.148438 65.707031 L 61.464844 55.667969 C 61.410156 55.457031 61.289062 55.292969 61.109375 55.171875 C 60.925781 55.046875 60.726562 55 60.511719 55.027344 C 60.292969 55.058594 60.113281 55.152344 59.96875 55.316406 C 59.824219 55.480469 59.75 55.667969 59.746094 55.886719 L 59.746094 65.699219 L 59.089844 65.699219 C 58.871094 62.167969 57.964844 48.515625 56.027344 41.179688 L 52.828125 29.074219 C 50.257812 18.082031 52.546875 13.320312 53.746094 11.699219 C 55.414062 14.421875 60.332031 23.476562 64.050781 40.765625 C 64.078125 40.890625 66.851562 53.300781 66.429688 65.699219 Z M 66.433594 65.707031 " fill-opacity="1" fill-rule="nonzero"/></g><path fill="#000000" d="M 44.3125 46.738281 L 36.925781 46.738281 C 36.683594 46.738281 36.476562 46.824219 36.304688 46.996094 C 36.132812 47.164062 36.050781 47.371094 36.050781 47.613281 L 36.050781 50.316406 C 36.050781 50.703125 36.226562 50.972656 36.582031 51.125 L 40.277344 52.695312 C 40.386719 52.742188 40.5 52.765625 40.617188 52.765625 C 40.738281 52.765625 40.851562 52.742188 40.960938 52.699219 L 44.65625 51.125 C 45.011719 50.976562 45.1875 50.707031 45.1875 50.320312 L 45.1875 47.613281 C 45.1875 47.371094 45.101562 47.164062 44.933594 46.996094 C 44.761719 46.824219 44.554688 46.738281 44.3125 46.738281 Z M 43.4375 49.738281 L 40.617188 50.9375 L 37.800781 49.738281 L 37.800781 48.492188 L 43.4375 48.492188 Z M 43.4375 49.738281 " fill-opacity="1" fill-rule="nonzero"/></svg>