<svg xmlns="http://www.w3.org/2000/svg" xmlns:xlink="http://www.w3.org/1999/xlink" width="90" zoomAndPan="magnify" viewBox="0 0 67.5 67.499996" height="90" preserveAspectRatio="xMidYMid meet" version="1.0"><defs><clipPath id="id1"><path d="M 13.070312 18 L 45 18 L 45 67.003906 L 13.070312 67.003906 Z M 13.070312 18 " clip-rule="nonzero"/></clipPath><clipPath id="id2"><path d="M 37 8 L 54.320312 8 L 54.320312 12 L 37 12 Z M 37 8 " clip-rule="nonzero"/></clipPath></defs><g clip-path="url(#id1)"><path fill="#5c5c5c" d="M 41.730469 67.464844 L 16.324219 67.464844 C 14.523438 67.464844 13.066406 66 13.066406 64.199219 L 13.066406 22.113281 C 13.066406 20.308594 14.523438 18.84375 16.324219 18.84375 L 41.730469 18.84375 C 43.53125 18.84375 44.992188 20.308594 44.992188 22.113281 L 44.992188 64.199219 C 44.992188 66 43.53125 67.464844 41.730469 67.464844 " fill-opacity="1" fill-rule="nonzero"/></g><path fill="#5c5c5c" d="M 23.886719 2.996094 L 34.933594 3.019531 C 35.734375 3.023438 36.378906 3.667969 36.382812 4.46875 L 36.390625 6.300781 C 36.390625 6.300781 33.898438 7.09375 34.019531 9.855469 C 34.132812 12.492188 36.355469 13.222656 36.355469 13.222656 L 36.347656 16.238281 C 36.34375 17.050781 35.6875 17.703125 34.882812 17.703125 L 23.613281 17.675781 C 22.886719 17.675781 22.300781 17.085938 22.304688 16.359375 L 22.332031 4.546875 C 22.332031 3.6875 23.03125 2.992188 23.886719 2.996094 " fill-opacity="1" fill-rule="nonzero"/><path fill="#5c5c5c" d="M 50.882812 2.90625 C 50.457031 2.898438 50.054688 2.648438 49.871094 2.230469 C 49.625 1.660156 49.882812 0.996094 50.449219 0.75 L 51.480469 0.296875 C 52.046875 0.046875 52.710938 0.304688 52.957031 0.875 C 53.207031 1.445312 52.949219 2.109375 52.382812 2.359375 L 51.351562 2.8125 C 51.199219 2.878906 51.042969 2.90625 50.882812 2.90625 Z M 46.769531 4.714844 C 46.34375 4.707031 45.941406 4.457031 45.757812 4.039062 C 45.507812 3.472656 45.765625 2.808594 46.335938 2.558594 L 47.363281 2.105469 C 47.933594 1.855469 48.59375 2.113281 48.84375 2.683594 C 49.09375 3.253906 48.835938 3.917969 48.265625 4.167969 L 47.238281 4.621094 C 47.085938 4.6875 46.925781 4.71875 46.769531 4.714844 Z M 42.65625 6.523438 C 42.230469 6.515625 41.824219 6.265625 41.644531 5.851562 C 41.394531 5.28125 41.652344 4.617188 42.21875 4.367188 L 43.25 3.914062 C 43.816406 3.664062 44.480469 3.921875 44.730469 4.492188 C 44.976562 5.0625 44.71875 5.726562 44.152344 5.976562 L 43.121094 6.429688 C 42.96875 6.496094 42.8125 6.527344 42.65625 6.523438 Z M 38.539062 8.332031 C 38.113281 8.324219 37.710938 8.074219 37.527344 7.660156 C 37.277344 7.089844 37.539062 6.425781 38.105469 6.175781 L 39.132812 5.722656 C 39.703125 5.472656 40.363281 5.730469 40.613281 6.300781 C 40.863281 6.871094 40.605469 7.535156 40.035156 7.785156 L 39.007812 8.238281 C 38.855469 8.304688 38.695312 8.335938 38.539062 8.332031 " fill-opacity="1" fill-rule="nonzero"/><g clip-path="url(#id2)"><path fill="#5c5c5c" d="M 52.007812 10.367188 C 51.425781 10.355469 50.941406 9.898438 50.90625 9.308594 C 50.867188 8.6875 51.339844 8.152344 51.960938 8.117188 L 53.082031 8.046875 C 53.699219 8.007812 54.230469 8.484375 54.269531 9.101562 C 54.308594 9.722656 53.835938 10.257812 53.21875 10.296875 L 52.09375 10.363281 C 52.066406 10.367188 52.039062 10.367188 52.007812 10.367188 Z M 47.523438 10.640625 C 46.941406 10.628906 46.457031 10.171875 46.421875 9.582031 C 46.382812 8.960938 46.855469 8.425781 47.476562 8.390625 L 48.597656 8.320312 C 49.21875 8.28125 49.746094 8.753906 49.785156 9.375 C 49.824219 9.996094 49.351562 10.53125 48.730469 10.566406 L 47.609375 10.636719 C 47.582031 10.640625 47.550781 10.640625 47.523438 10.640625 Z M 43.039062 10.910156 C 42.457031 10.902344 41.972656 10.445312 41.9375 9.855469 C 41.898438 9.234375 42.371094 8.699219 42.988281 8.660156 L 44.109375 8.59375 C 44.730469 8.550781 45.261719 9.027344 45.300781 9.648438 C 45.339844 10.269531 44.867188 10.804688 44.246094 10.839844 L 43.125 10.910156 C 43.097656 10.910156 43.066406 10.914062 43.039062 10.910156 Z M 38.554688 11.183594 C 37.972656 11.175781 37.488281 10.71875 37.453125 10.125 C 37.414062 9.507812 37.886719 8.972656 38.503906 8.933594 L 39.625 8.867188 C 40.246094 8.828125 40.777344 9.300781 40.816406 9.921875 C 40.851562 10.542969 40.382812 11.078125 39.761719 11.113281 L 38.640625 11.183594 C 38.613281 11.183594 38.582031 11.183594 38.554688 11.183594 " fill-opacity="1" fill-rule="nonzero"/></g><path fill="#5c5c5c" d="M 39.644531 14.375 C 39.519531 14.371094 39.390625 14.347656 39.265625 14.300781 L 38.214844 13.902344 C 37.636719 13.683594 37.34375 13.035156 37.5625 12.453125 C 37.78125 11.871094 38.429688 11.578125 39.007812 11.796875 L 40.058594 12.195312 C 40.640625 12.414062 40.933594 13.0625 40.714844 13.644531 C 40.542969 14.101562 40.105469 14.382812 39.644531 14.375 Z M 43.851562 15.964844 C 43.722656 15.960938 43.59375 15.9375 43.46875 15.890625 L 42.417969 15.492188 C 41.839844 15.273438 41.546875 14.625 41.765625 14.042969 C 41.984375 13.460938 42.632812 13.167969 43.210938 13.386719 L 44.261719 13.785156 C 44.84375 14.003906 45.136719 14.652344 44.917969 15.234375 C 44.746094 15.691406 44.308594 15.972656 43.851562 15.964844 Z M 48.054688 17.554688 C 47.925781 17.550781 47.800781 17.527344 47.675781 17.480469 L 46.621094 17.082031 C 46.042969 16.863281 45.75 16.214844 45.96875 15.632812 C 46.1875 15.050781 46.835938 14.757812 47.417969 14.976562 L 48.46875 15.375 C 49.046875 15.59375 49.339844 16.242188 49.121094 16.824219 C 48.949219 17.28125 48.511719 17.5625 48.054688 17.554688 Z M 52.257812 19.144531 C 52.132812 19.140625 52.003906 19.117188 51.878906 19.070312 L 50.828125 18.675781 C 50.246094 18.453125 49.953125 17.804688 50.171875 17.222656 C 50.390625 16.640625 51.039062 16.347656 51.621094 16.566406 L 52.671875 16.964844 C 53.25 17.183594 53.542969 17.832031 53.324219 18.414062 C 53.152344 18.871094 52.71875 19.152344 52.257812 19.144531 " fill-opacity="1" fill-rule="nonzero"/><path fill="#ffffff" d="M 25.3125 6.714844 L 26.25 6.710938 C 27.125 6.710938 27.839844 7.421875 27.839844 8.304688 L 27.847656 13.644531 C 27.851562 14.523438 27.140625 15.242188 26.261719 15.242188 L 25.324219 15.242188 C 24.445312 15.246094 23.734375 14.53125 23.734375 13.652344 L 23.726562 8.308594 C 23.722656 7.429688 24.433594 6.714844 25.3125 6.714844 " fill-opacity="1" fill-rule="nonzero"/><path fill="#ffffff" d="M 32.523438 64.101562 L 21.449219 64.101562 C 19.3125 64.101562 17.578125 62.367188 17.578125 60.222656 L 17.578125 26.925781 C 17.578125 24.785156 19.3125 23.046875 21.449219 23.046875 L 32.523438 23.046875 C 34.660156 23.046875 36.390625 24.785156 36.390625 26.925781 L 36.390625 60.222656 C 36.390625 62.367188 34.660156 64.101562 32.523438 64.101562 " fill-opacity="1" fill-rule="nonzero"/></svg>