<svg width="1171" height="146" viewBox="0 0 1171 146" fill="none" xmlns="http://www.w3.org/2000/svg">
<path d="M25 48H275H25ZM275 145H35C28.3726 145 23 139.627 23 133H27C27 137.418 30.5817 141 35 141H275V145ZM35 145C28.3726 145 23 139.627 23 133V48H27V133C27 137.418 30.5817 141 35 141V145ZM275 48V143V48Z" fill="#FFD059"/>
<path d="M48 25.0521C48 37.7874 37.6986 48.1043 25 48.1043C12.3014 48.1043 2 37.7874 2 25.0521C2 12.3169 12.3014 2 25 2C37.6986 2 48 12.3169 48 25.0521Z" stroke="#FFD059" stroke-width="4"/>
<path d="M17.1502 19.787C17.8269 19.507 18.5269 19.192 19.2502 18.842C19.9969 18.4686 20.7202 18.072 21.4202 17.652C22.1202 17.2086 22.7852 16.7536 23.4152 16.287C24.0685 15.797 24.6519 15.2836 25.1652 14.747H28.8052V39.002H23.5902V21.537C22.8902 22.0036 22.1085 22.4353 21.2452 22.832C20.3819 23.2053 19.5419 23.532 18.7252 23.812L17.1502 19.787Z" fill="black"/>
<path d="M314 48H564H314ZM564 145H324C317.373 145 312 139.627 312 133H316C316 137.418 319.582 141 324 141H564V145ZM324 145C317.373 145 312 139.627 312 133V48H316V133C316 137.418 319.582 141 324 141V145ZM564 48V143V48Z" fill="#FFD059"/>
<path d="M337 25.0521C337 37.7874 326.699 48.1043 314 48.1043C301.301 48.1043 291 37.7874 291 25.0521C291 12.3169 301.301 2 314 2C326.699 2 337 12.3169 337 25.0521Z" stroke="#FFD059" stroke-width="4"/>
<path d="M321.06 21.117C321.06 22.0036 320.885 22.8553 320.535 23.672C320.185 24.4886 319.73 25.282 319.17 26.052C318.61 26.7986 317.98 27.522 317.28 28.222C316.58 28.922 315.892 29.587 315.215 30.217C314.865 30.5436 314.48 30.917 314.06 31.337C313.664 31.7336 313.279 32.142 312.905 32.562C312.532 32.982 312.194 33.3786 311.89 33.752C311.61 34.102 311.435 34.3936 311.365 34.627H321.795V39.002H305.625C305.579 38.7453 305.555 38.4186 305.555 38.022C305.555 37.6253 305.555 37.3453 305.555 37.182C305.555 36.062 305.73 35.0353 306.08 34.102C306.454 33.1686 306.932 32.3053 307.515 31.512C308.099 30.6953 308.752 29.937 309.475 29.237C310.222 28.537 310.957 27.837 311.68 27.137C312.24 26.6003 312.765 26.0986 313.255 25.632C313.745 25.142 314.177 24.6753 314.55 24.232C314.924 23.7653 315.215 23.3103 315.425 22.867C315.635 22.4003 315.74 21.9336 315.74 21.467C315.74 20.4403 315.449 19.717 314.865 19.297C314.282 18.877 313.559 18.667 312.695 18.667C312.065 18.667 311.47 18.772 310.91 18.982C310.374 19.1686 309.872 19.402 309.405 19.682C308.962 19.9386 308.577 20.207 308.25 20.487C307.924 20.7436 307.679 20.9536 307.515 21.117L304.925 17.477C305.952 16.5203 307.142 15.7386 308.495 15.132C309.872 14.502 311.342 14.187 312.905 14.187C314.329 14.187 315.554 14.3503 316.58 14.677C317.607 15.0036 318.447 15.4703 319.1 16.077C319.777 16.6603 320.267 17.3836 320.57 18.247C320.897 19.087 321.06 20.0436 321.06 21.117Z" fill="black"/>
<path d="M619 48H869H619ZM869 145H629C622.373 145 617 139.627 617 133H621C621 137.418 624.582 141 629 141H869V145ZM629 145C622.373 145 617 139.627 617 133V48H621V133C621 137.418 624.582 141 629 141V145ZM869 48V143V48Z" fill="#FFD059"/>
<path d="M642 25.0521C642 37.7874 631.699 48.1043 619 48.1043C606.301 48.1043 596 37.7874 596 25.0521C596 12.3169 606.301 2 619 2C631.699 2 642 12.3169 642 25.0521Z" stroke="#FFD059" stroke-width="4"/>
<path d="M617.68 39.527C617.05 39.527 616.385 39.4803 615.685 39.387C614.985 39.317 614.309 39.212 613.655 39.072C613.002 38.932 612.407 38.7803 611.87 38.617C611.334 38.4536 610.914 38.302 610.61 38.162L611.625 33.822C612.232 34.0786 613.002 34.3586 613.935 34.662C614.892 34.942 616.07 35.082 617.47 35.082C619.08 35.082 620.259 34.7786 621.005 34.172C621.752 33.5653 622.125 32.7486 622.125 31.722C622.125 31.092 621.985 30.567 621.705 30.147C621.449 29.7036 621.087 29.3536 620.62 29.097C620.154 28.817 619.594 28.6303 618.94 28.537C618.31 28.4203 617.634 28.362 616.91 28.362H614.88V24.162H617.19C617.704 24.162 618.194 24.1153 618.66 24.022C619.15 23.9286 619.582 23.777 619.955 23.567C620.329 23.3336 620.62 23.0303 620.83 22.657C621.064 22.2603 621.18 21.7703 621.18 21.187C621.18 20.7436 621.087 20.3586 620.9 20.032C620.714 19.7053 620.469 19.437 620.165 19.227C619.885 19.017 619.547 18.8653 619.15 18.772C618.777 18.6553 618.392 18.597 617.995 18.597C616.992 18.597 616.059 18.7486 615.195 19.052C614.355 19.3553 613.585 19.7286 612.885 20.172L611.03 16.357C611.404 16.1236 611.835 15.8786 612.325 15.622C612.839 15.3653 613.399 15.132 614.005 14.922C614.612 14.712 615.254 14.537 615.93 14.397C616.63 14.257 617.365 14.187 618.135 14.187C619.559 14.187 620.784 14.362 621.81 14.712C622.86 15.0386 623.724 15.517 624.4 16.147C625.077 16.7536 625.579 17.477 625.905 18.317C626.232 19.1336 626.395 20.032 626.395 21.012C626.395 21.9686 626.127 22.902 625.59 23.812C625.054 24.6986 624.33 25.3753 623.42 25.842C624.68 26.3553 625.649 27.1253 626.325 28.152C627.025 29.1553 627.375 30.3686 627.375 31.792C627.375 32.912 627.189 33.9503 626.815 34.907C626.442 35.8403 625.859 36.657 625.065 37.357C624.272 38.0336 623.257 38.5703 622.02 38.967C620.807 39.3403 619.36 39.527 617.68 39.527Z" fill="black"/>
<path d="M912 48H1162H912ZM1162 145H922C915.373 145 910 139.627 910 133H914C914 137.418 917.582 141 922 141H1162V145ZM922 145C915.373 145 910 139.627 910 133V48H914V133C914 137.418 917.582 141 922 141V145ZM1162 48V143V48Z" fill="#FFD059"/>
<path d="M935 25.0521C935 37.7874 924.699 48.1043 912 48.1043C899.301 48.1043 889 37.7874 889 25.0521C889 12.3169 899.301 2 912 2C924.699 2 935 12.3169 935 25.0521Z" stroke="#FFD059" stroke-width="4"/>
<path d="M912.865 21.117C911.955 22.307 910.987 23.602 909.96 25.002C908.934 26.402 908.07 27.837 907.37 29.307H912.865V21.117ZM917.975 14.747V29.307H920.565V33.577H917.975V39.002H912.865V33.577H902.4V29.762C902.914 28.7353 903.555 27.5803 904.325 26.297C905.095 24.9903 905.947 23.6603 906.88 22.307C907.837 20.9303 908.84 19.5886 909.89 18.282C910.94 16.9753 911.99 15.797 913.04 14.747H917.975Z" fill="black"/>
<path d="M1169 145.298C1170.1 145.298 1171 144.402 1171 143.298C1171 142.193 1170.1 141.298 1169 141.298V145.298ZM31 145.298H1169V141.298H31V145.298Z" fill="#FFD059"/>
</svg>
