<svg xmlns="http://www.w3.org/2000/svg" xmlns:xlink="http://www.w3.org/1999/xlink" width="90" zoomAndPan="magnify" viewBox="0 0 67.5 67.499996" height="90" preserveAspectRatio="xMidYMid meet" version="1.0"><defs><clipPath id="id1"><path d="M 0 19 L 67.003906 19 L 67.003906 65.890625 L 0 65.890625 Z M 0 19 " clip-rule="nonzero"/></clipPath></defs><g clip-path="url(#id1)"><path stroke-linecap="round" transform="matrix(0.547002, 0, 0, 0.545219, -7.548619, -7.330989)" fill="none" stroke-linejoin="round" d="M 46.999459 53.001493 C 42.579053 50.809138 37.930129 51.998455 33.516864 52.65043 C 29.267847 53.259417 28.246655 57.651292 27.632511 61.018634 C 25.632974 71.958915 24.468957 83.020993 22.398008 94.018591 C 20.726966 102.852491 19.977139 111.851177 17.527706 120.548951 C 15.928076 126.251939 19.027359 130.787105 24.997406 131.768649 C 26.489918 131.976422 27.989571 132.062396 29.503507 132.026574 C 60.503478 132.026574 91.503448 132.026574 122.503419 132.026574 C 124.174461 132.012244 125.838362 131.897611 127.502263 131.682675 C 132.158329 131.138168 135.229047 128.000092 134.500644 122.569356 C 133.500875 115.712874 132.201176 108.899379 131.037159 102.057225 C 129.858861 95.057452 128.537738 88.057678 127.587957 81.057904 C 126.659601 74.222915 125.181371 67.466737 124.360133 60.588761 C 123.63173 54.513215 120.910931 52.593113 114.526693 52.16324 C 111.398846 51.926809 108.04962 51.239012 105.043173 53.073139 " stroke="#000000" stroke-width="4" stroke-opacity="1" stroke-miterlimit="4"/></g><path stroke-linecap="round" transform="matrix(0.547002, 0, 0, 0.545219, -7.548619, -7.330989)" fill="none" stroke-linejoin="round" d="M 105.250268 63.003217 C 104.793231 47.656732 101.401159 33.657185 87.997117 23.99936 C 87.054478 23.318727 86.054709 22.716904 85.004952 22.201056 C 83.955195 21.692372 82.876873 21.262499 81.755704 20.932929 C 80.634534 20.596195 79.499083 20.3526 78.335066 20.209309 C 77.178191 20.066018 76.014175 20.015866 74.850158 20.066018 C 73.686142 20.116169 72.529267 20.266625 71.386674 20.503056 C 70.244081 20.746651 69.130053 21.083385 68.04459 21.513258 C 66.959127 21.943132 65.90937 22.451816 64.909601 23.053638 C 63.909832 23.662626 62.967193 24.343259 62.081684 25.102702 C 58.282563 28.219285 55.197562 31.930526 52.819541 36.229262 C 50.448661 40.535161 48.956149 45.120479 48.349147 49.999543 C 47.742144 54.326936 45.921137 58.496709 46.749517 63.003217 " stroke="#000000" stroke-width="4" stroke-opacity="1" stroke-miterlimit="4"/><path stroke-linecap="round" transform="matrix(0.547002, 0, 0, 0.545219, -7.548619, -7.330989)" fill="none" stroke-linejoin="round" d="M 48.998996 51.496936 C 50.320119 51.747695 51.655525 51.919645 52.998071 51.998455 C 68.330238 51.998455 83.669547 51.998455 99.001714 51.998455 C 100.34426 51.926809 101.679666 51.762024 103.000789 51.518429 " stroke="#000000" stroke-width="4" stroke-opacity="1" stroke-miterlimit="4"/></svg>