<?xml version="1.0" encoding="UTF-8"?> <svg xmlns="http://www.w3.org/2000/svg" width="240" height="240" viewBox="0 0 240 240" fill="none"> <path d="M240 120C240 53.736 186.264 0 120 0C53.736 0 0 53.736 0 120C0 186.264 53.736 240 120 240C120.705 240 121.406 239.985 122.109 239.973V146.558H96.3281V116.512H122.109V94.4019C122.109 68.7598 137.763 54.8035 160.637 54.8035C171.59 54.8035 181.005 55.6201 183.75 55.9845V82.7838H167.977C155.533 82.7838 153.124 88.6981 153.124 97.3755V116.512H182.878L179 146.558H153.124V235.364C203.282 220.984 240 174.774 240 120Z" fill="#1F1E1D"></path> </svg> 