<?xml version="1.0" encoding="UTF-8"?> <svg xmlns="http://www.w3.org/2000/svg" width="240" height="240" viewBox="0 0 240 240" fill="none"> <path d="M142.969 120C142.969 132.686 132.686 142.969 120 142.969C107.314 142.969 97.0312 132.686 97.0312 120C97.0312 107.314 107.314 97.0312 120 97.0312C132.686 97.0312 142.969 107.314 142.969 120Z" fill="#1F1E1D"></path> <path d="M173.716 79.3612C172.612 76.3693 170.85 73.6611 168.561 71.4382C166.339 69.1494 163.632 67.3879 160.638 66.2838C158.21 65.3408 154.563 64.2184 147.845 63.9126C140.577 63.5812 138.398 63.5098 120 63.5098C101.6 63.5098 99.4208 63.5793 92.1552 63.9108C85.437 64.2184 81.7877 65.3408 79.3616 66.2838C76.3678 67.3879 73.6597 69.1494 71.4386 71.4382C69.1498 73.6611 67.3883 76.3674 66.2823 79.3612C65.3394 81.7892 64.2169 85.4385 63.9111 92.1566C63.5797 99.4222 63.5083 101.601 63.5083 120.001C63.5083 138.4 63.5797 140.579 63.9111 147.846C64.2169 154.564 65.3394 158.212 66.2823 160.64C67.3883 163.634 69.1479 166.34 71.4368 168.563C73.6597 170.852 76.366 172.613 79.3597 173.717C81.7877 174.662 85.437 175.785 92.1552 176.09C99.4208 176.422 101.598 176.491 119.998 176.491C138.4 176.491 140.579 176.422 147.843 176.09C154.561 175.785 158.21 174.662 160.638 173.717C166.648 171.399 171.398 166.649 173.716 160.64C174.659 158.212 175.781 154.564 176.089 147.846C176.42 140.579 176.49 138.4 176.49 120.001C176.49 101.601 176.42 99.4222 176.089 92.1566C175.783 85.4385 174.661 81.7892 173.716 79.3612V79.3612ZM120 155.383C100.457 155.383 84.6149 139.542 84.6149 120C84.6149 100.457 100.457 84.6163 120 84.6163C139.541 84.6163 155.383 100.457 155.383 120C155.383 139.542 139.541 155.383 120 155.383ZM156.782 91.4864C152.216 91.4864 148.513 87.7841 148.513 83.2174C148.513 78.6508 152.216 74.9484 156.782 74.9484C161.349 74.9484 165.051 78.6508 165.051 83.2174C165.049 87.7841 161.349 91.4864 156.782 91.4864Z" fill="#1F1E1D"></path> <path d="M120 0C53.736 0 0 53.736 0 120C0 186.264 53.736 240 120 240C186.264 240 240 186.264 240 120C240 53.736 186.264 0 120 0ZM188.491 148.409C188.157 155.744 186.991 160.752 185.288 165.135C181.708 174.391 174.391 181.708 165.135 185.288C160.754 186.991 155.744 188.156 148.411 188.491C141.063 188.826 138.715 188.906 120.002 188.906C101.287 188.906 98.941 188.826 91.5912 188.491C84.2578 188.156 79.248 186.991 74.8663 185.288C70.2667 183.558 66.1029 180.846 62.6605 177.339C59.1559 173.899 56.4441 169.733 54.7137 165.135C53.0109 160.754 51.8445 155.744 51.5112 148.411C51.1725 141.061 51.0938 138.713 51.0938 120C51.0938 101.287 51.1725 98.9392 51.5094 91.5912C51.8427 84.256 53.0072 79.248 54.7101 74.8645C56.4404 70.2667 59.1541 66.1011 62.6605 62.6605C66.1011 59.1541 70.2667 56.4423 74.8645 54.7119C79.248 53.009 84.256 51.8445 91.5912 51.5094C98.9392 51.1743 101.287 51.0938 120 51.0938C138.713 51.0938 141.061 51.1743 148.409 51.5112C155.744 51.8445 160.752 53.009 165.135 54.7101C169.733 56.4404 173.899 59.1541 177.341 62.6605C180.846 66.1029 183.56 70.2667 185.288 74.8645C186.993 79.248 188.157 84.256 188.492 91.5912C188.828 98.9392 188.906 101.287 188.906 120C188.906 138.713 188.828 141.061 188.491 148.409V148.409Z" fill="#1F1E1D"></path> </svg> 