<svg xmlns="http://www.w3.org/2000/svg" xmlns:xlink="http://www.w3.org/1999/xlink" width="90" zoomAndPan="magnify" viewBox="0 0 67.5 67.499996" height="90" preserveAspectRatio="xMidYMid meet" version="1.0"><defs><clipPath id="id1"><path d="M 7 5 L 60 5 L 60 67.003906 L 7 67.003906 Z M 7 5 " clip-rule="nonzero"/></clipPath><clipPath id="id2"><path d="M 51 15 L 64.695312 15 L 64.695312 62 L 51 62 Z M 51 15 " clip-rule="nonzero"/></clipPath><clipPath id="id3"><path d="M 2.445312 15 L 16 15 L 16 62 L 2.445312 62 Z M 2.445312 15 " clip-rule="nonzero"/></clipPath><clipPath id="id4"><path d="M 54 60 L 64 60 L 64 67.003906 L 54 67.003906 Z M 54 60 " clip-rule="nonzero"/></clipPath><clipPath id="id5"><path d="M 3 60 L 13 60 L 13 67.003906 L 3 67.003906 Z M 3 60 " clip-rule="nonzero"/></clipPath><clipPath id="id6"><path d="M 32 21 L 35 21 L 35 67.003906 L 32 67.003906 Z M 32 21 " clip-rule="nonzero"/></clipPath></defs><path fill="#000000" d="M 28.964844 1.347656 C 26.605469 1.347656 23.984375 2.300781 21.171875 4.175781 C 20.417969 4.683594 19.796875 5.316406 19.320312 6.054688 C 17.976562 8.046875 17.753906 10.527344 18.726562 12.699219 L 18.878906 13.046875 L 22.851562 21.839844 C 26.503906 19.378906 31.710938 20.300781 33.570312 21.042969 C 35.433594 20.308594 40.636719 19.378906 44.292969 21.839844 L 48.414062 12.707031 C 49.390625 10.527344 49.164062 8.046875 47.832031 6.066406 C 47.347656 5.316406 46.722656 4.683594 45.96875 4.175781 C 43.160156 2.300781 40.539062 1.347656 38.179688 1.347656 Z M 44.535156 23.398438 C 44.398438 23.398438 44.257812 23.351562 44.144531 23.257812 C 40.949219 20.59375 35.546875 21.457031 33.828125 22.265625 C 33.667969 22.34375 33.476562 22.34375 33.316406 22.265625 C 31.597656 21.457031 26.195312 20.589844 23 23.257812 C 22.851562 23.378906 22.65625 23.425781 22.46875 23.382812 C 22.285156 23.339844 22.132812 23.210938 22.050781 23.039062 L 17.613281 13.191406 C 16.46875 10.636719 16.726562 7.710938 18.308594 5.375 C 18.863281 4.511719 19.605469 3.757812 20.496094 3.160156 C 23.511719 1.148438 26.363281 0.121094 28.964844 0.121094 L 38.179688 0.121094 C 40.78125 0.121094 43.632812 1.148438 46.644531 3.15625 C 47.539062 3.757812 48.28125 4.511719 48.847656 5.386719 C 50.417969 7.710938 50.671875 10.636719 49.527344 13.199219 L 49.390625 13.53125 L 45.09375 23.039062 C 45.011719 23.210938 44.859375 23.339844 44.671875 23.382812 C 44.625 23.394531 44.578125 23.398438 44.535156 23.398438 " fill-opacity="1" fill-rule="nonzero"/><path fill="#000000" d="M 33.570312 22.320312 C 33.339844 22.320312 33.125 22.1875 33.019531 21.976562 C 32.972656 21.871094 32.101562 20.121094 30.925781 17.75 L 25.296875 6.429688 C 24.527344 4.90625 25.027344 3.066406 26.457031 2.140625 L 29.597656 0.214844 C 29.890625 0.0351562 30.261719 0.128906 30.4375 0.414062 C 30.613281 0.707031 30.523438 1.078125 30.234375 1.257812 L 27.105469 3.179688 C 26.210938 3.753906 25.894531 4.917969 26.382812 5.875 L 32.011719 17.203125 C 32.648438 18.480469 33.195312 19.578125 33.570312 20.339844 C 33.949219 19.578125 34.496094 18.480469 35.132812 17.203125 L 40.757812 5.878906 C 41.246094 4.917969 40.933594 3.753906 40.027344 3.171875 L 36.90625 1.257812 C 36.621094 1.078125 36.53125 0.707031 36.707031 0.414062 C 36.882812 0.128906 37.253906 0.0351562 37.546875 0.214844 L 40.675781 2.136719 C 42.117188 3.066406 42.617188 4.90625 41.84375 6.433594 L 36.21875 17.75 C 35.042969 20.121094 34.171875 21.871094 34.125 21.976562 C 34.019531 22.1875 33.804688 22.320312 33.570312 22.320312 " fill-opacity="1" fill-rule="nonzero"/><g clip-path="url(#id1)"><path fill="#000000" d="M 48.191406 67.5 L 18.953125 67.5 C 18.617188 67.5 18.34375 67.226562 18.34375 66.886719 L 18.34375 61.210938 C 16.457031 60.519531 15.074219 58.703125 14.132812 55.679688 C 12.496094 50.441406 13.074219 42.519531 13.492188 36.746094 C 13.6875 33.996094 13.863281 31.628906 13.710938 30.5 C 13.363281 27.886719 11.375 23.679688 9.765625 20.609375 C 8.484375 18.167969 7.382812 16.320312 7.371094 16.300781 C 7.316406 16.210938 7.28125 16.097656 7.28125 15.984375 C 7.28125 10.214844 16.6875 5.949219 18.574219 5.15625 C 18.882812 5.027344 19.238281 5.171875 19.371094 5.488281 C 19.5 5.796875 19.355469 6.15625 19.042969 6.285156 C 17.976562 6.734375 8.703125 10.796875 8.503906 15.824219 C 8.800781 16.320312 9.761719 17.972656 10.84375 20.039062 C 12.496094 23.199219 14.546875 27.546875 14.917969 30.335938 C 15.085938 31.59375 14.914062 33.90625 14.703125 36.832031 C 14.289062 42.515625 13.730469 50.296875 15.292969 55.3125 C 16.1875 58.179688 17.398438 59.722656 19.105469 60.167969 C 19.378906 60.242188 19.5625 60.484375 19.5625 60.761719 L 19.5625 66.273438 L 47.582031 66.273438 L 47.582031 60.761719 C 47.582031 60.484375 47.765625 60.242188 48.039062 60.167969 C 49.746094 59.722656 50.953125 58.179688 51.847656 55.3125 C 53.414062 50.296875 52.851562 42.515625 52.4375 36.832031 C 52.230469 33.90625 52.058594 31.59375 52.226562 30.335938 C 52.597656 27.546875 54.648438 23.199219 56.296875 20.039062 C 57.382812 17.972656 58.34375 16.320312 58.640625 15.824219 C 58.441406 10.796875 49.164062 6.734375 48.097656 6.285156 C 47.789062 6.15625 47.644531 5.796875 47.769531 5.488281 C 47.90625 5.171875 48.261719 5.027344 48.570312 5.15625 C 50.453125 5.949219 59.863281 10.214844 59.863281 15.984375 C 59.863281 16.097656 59.828125 16.210938 59.773438 16.300781 C 59.761719 16.320312 58.660156 18.167969 57.378906 20.609375 C 55.769531 23.679688 53.78125 27.886719 53.433594 30.5 C 53.28125 31.628906 53.457031 33.996094 53.652344 36.746094 C 54.070312 42.519531 54.648438 50.441406 53.011719 55.679688 C 52.066406 58.703125 50.6875 60.519531 48.800781 61.210938 L 48.800781 66.886719 C 48.800781 67.226562 48.527344 67.5 48.191406 67.5 " fill-opacity="1" fill-rule="nonzero"/></g><path fill="#000000" d="M 48.191406 61.375 L 18.953125 61.375 C 18.617188 61.375 18.34375 61.101562 18.34375 60.761719 C 18.34375 60.421875 18.617188 60.148438 18.953125 60.148438 L 48.191406 60.148438 C 48.527344 60.148438 48.800781 60.421875 48.800781 60.761719 C 48.800781 61.101562 48.527344 61.375 48.191406 61.375 " fill-opacity="1" fill-rule="nonzero"/><g clip-path="url(#id2)"><path fill="#000000" d="M 55.4375 61.375 C 54.683594 61.375 53.964844 61.070312 53.386719 60.503906 C 52.671875 59.808594 51.816406 58.378906 51.816406 55.5 C 51.816406 55.160156 52.089844 54.886719 52.425781 54.886719 C 52.761719 54.886719 53.035156 55.160156 53.035156 55.5 C 53.035156 57.949219 53.6875 59.097656 54.234375 59.625 C 54.597656 59.976562 55.042969 60.1875 55.476562 60.148438 C 55.597656 60.140625 59.445312 60.140625 62.695312 60.148438 C 62.859375 60.058594 63.417969 59.667969 63.417969 58.3125 C 63.417969 27.375 58.734375 16.339844 58.6875 16.230469 C 58.554688 15.921875 58.691406 15.558594 59 15.421875 C 59.308594 15.28125 59.667969 15.425781 59.800781 15.730469 C 60 16.183594 64.636719 27.042969 64.636719 58.3125 C 64.636719 60.871094 63.035156 61.335938 62.964844 61.351562 C 62.914062 61.363281 62.855469 61.363281 62.808594 61.375 C 60.015625 61.363281 55.773438 61.359375 55.53125 61.375 C 55.5 61.375 55.464844 61.375 55.4375 61.375 " fill-opacity="1" fill-rule="nonzero"/></g><g clip-path="url(#id3)"><path fill="#000000" d="M 11.714844 61.375 C 11.6875 61.375 11.65625 61.375 11.621094 61.375 C 11.367188 61.363281 7.128906 61.371094 4.335938 61.375 C 4.292969 61.363281 4.230469 61.363281 4.179688 61.351562 C 4.109375 61.335938 2.507812 60.871094 2.507812 58.3125 C 2.507812 27.042969 7.144531 16.183594 7.34375 15.730469 C 7.476562 15.425781 7.832031 15.289062 8.144531 15.421875 C 8.453125 15.558594 8.589844 15.921875 8.457031 16.230469 C 8.410156 16.339844 3.726562 27.375 3.726562 58.3125 C 3.726562 59.652344 4.269531 60.050781 4.453125 60.148438 C 7.703125 60.144531 11.546875 60.140625 11.695312 60.15625 C 12.117188 60.160156 12.542969 59.976562 12.910156 59.625 C 13.457031 59.097656 14.109375 57.949219 14.109375 55.5 C 14.109375 55.160156 14.382812 54.886719 14.71875 54.886719 C 15.050781 54.886719 15.328125 55.160156 15.328125 55.5 C 15.328125 58.378906 14.472656 59.808594 13.757812 60.503906 C 13.175781 61.070312 12.453125 61.375 11.714844 61.375 " fill-opacity="1" fill-rule="nonzero"/></g><g clip-path="url(#id4)"><path fill="#000000" d="M 62.808594 67.5 L 55.5 67.5 C 55.160156 67.5 54.890625 67.226562 54.890625 66.886719 L 54.890625 60.777344 C 54.890625 60.4375 55.160156 60.160156 55.5 60.160156 C 55.835938 60.160156 56.109375 60.421875 56.109375 60.761719 L 56.109375 66.273438 L 62.199219 66.273438 L 62.199219 60.761719 C 62.199219 60.421875 62.46875 60.148438 62.808594 60.148438 C 63.144531 60.148438 63.417969 60.421875 63.417969 60.761719 L 63.417969 66.886719 C 63.417969 67.226562 63.144531 67.5 62.808594 67.5 " fill-opacity="1" fill-rule="nonzero"/></g><g clip-path="url(#id5)"><path fill="#000000" d="M 11.644531 67.5 L 4.335938 67.5 C 4 67.5 3.726562 67.226562 3.726562 66.886719 L 3.726562 60.761719 C 3.726562 60.421875 4 60.148438 4.335938 60.148438 C 4.671875 60.148438 4.945312 60.421875 4.945312 60.761719 L 4.945312 66.273438 L 11.035156 66.273438 L 11.035156 60.777344 C 11.035156 60.4375 11.308594 60.160156 11.644531 60.160156 C 11.984375 60.160156 12.253906 60.421875 12.253906 60.761719 L 12.253906 66.886719 C 12.253906 67.226562 11.984375 67.5 11.644531 67.5 " fill-opacity="1" fill-rule="nonzero"/></g><path fill="#000000" d="M 56.035156 20.710938 C 55.878906 20.710938 55.722656 20.652344 55.609375 20.53125 L 49.183594 14.078125 C 48.945312 13.835938 48.945312 13.449219 49.1875 13.210938 C 49.425781 12.972656 49.8125 12.972656 50.050781 13.210938 L 56.464844 19.664062 C 56.703125 19.90625 56.703125 20.292969 56.464844 20.53125 C 56.351562 20.652344 56.195312 20.710938 56.035156 20.710938 " fill-opacity="1" fill-rule="nonzero"/><path fill="#000000" d="M 11.105469 20.710938 C 10.949219 20.710938 10.792969 20.652344 10.679688 20.53125 C 10.441406 20.292969 10.441406 19.90625 10.679688 19.664062 L 17.09375 13.210938 C 17.332031 12.972656 17.714844 12.972656 17.953125 13.210938 C 18.199219 13.449219 18.199219 13.835938 17.960938 14.078125 L 11.535156 20.53125 C 11.421875 20.652344 11.265625 20.710938 11.105469 20.710938 " fill-opacity="1" fill-rule="nonzero"/><path fill="#000000" d="M 48.191406 54.023438 C 48.09375 54.023438 48 54 47.910156 53.957031 C 43.398438 51.589844 40.246094 47.335938 39.269531 42.285156 L 39.066406 41.28125 C 39 40.949219 39.210938 40.628906 39.542969 40.5625 C 39.867188 40.496094 40.191406 40.707031 40.257812 41.042969 L 40.460938 42.046875 C 41.375 46.730469 44.292969 50.675781 48.46875 52.867188 C 48.769531 53.023438 48.882812 53.394531 48.730469 53.695312 C 48.621094 53.90625 48.410156 54.023438 48.191406 54.023438 " fill-opacity="1" fill-rule="nonzero"/><path fill="#000000" d="M 18.953125 54.023438 C 18.734375 54.023438 18.519531 53.90625 18.410156 53.695312 C 18.257812 53.394531 18.375 53.023438 18.671875 52.867188 C 22.851562 50.675781 25.769531 46.730469 26.675781 42.050781 L 26.886719 41.042969 C 26.953125 40.707031 27.273438 40.496094 27.601562 40.5625 C 27.933594 40.628906 28.140625 40.949219 28.074219 41.28125 L 27.871094 42.289062 C 26.894531 47.335938 23.746094 51.589844 19.234375 53.957031 C 19.144531 54 19.050781 54.023438 18.953125 54.023438 " fill-opacity="1" fill-rule="nonzero"/><g clip-path="url(#id6)"><path fill="#000000" d="M 33.570312 67.5 C 33.234375 67.5 32.960938 67.226562 32.960938 66.886719 L 32.960938 21.710938 C 32.960938 21.375 33.234375 21.097656 33.570312 21.097656 C 33.910156 21.097656 34.179688 21.375 34.179688 21.710938 L 34.179688 66.886719 C 34.179688 67.226562 33.910156 67.5 33.570312 67.5 " fill-opacity="1" fill-rule="nonzero"/></g></svg>