<svg xmlns="http://www.w3.org/2000/svg" xmlns:xlink="http://www.w3.org/1999/xlink" width="90" zoomAndPan="magnify" viewBox="0 0 67.5 67.499996" height="90" preserveAspectRatio="xMidYMid meet" version="1.0"><defs><clipPath id="id1"><path d="M 0 0 L 67.003906 0 L 67.003906 67.003906 L 0 67.003906 Z M 0 0 " clip-rule="nonzero"/></clipPath></defs><g clip-path="url(#id1)"><path fill="#000000" d="M 64.234375 32.660156 L 14.152344 32.660156 L 14.152344 30.484375 L 18.507812 30.484375 C 19.109375 30.484375 19.597656 29.996094 19.597656 29.394531 L 19.597656 25.039062 C 19.597656 24.4375 19.109375 23.953125 18.507812 23.953125 L 17.417969 23.953125 L 17.417969 21.773438 L 18.507812 21.773438 C 19.109375 21.773438 19.597656 21.289062 19.597656 20.683594 L 19.597656 18.507812 L 28.304688 18.507812 C 28.304688 19.085938 28.757812 19.5625 29.332031 19.59375 L 60.925781 21.445312 C 61.050781 21.453125 61.175781 21.457031 61.300781 21.457031 C 62.890625 21.457031 64.386719 20.863281 65.554688 19.761719 C 66.8125 18.578125 67.507812 16.96875 67.507812 15.238281 C 67.507812 13.507812 66.8125 11.902344 65.554688 10.714844 C 64.296875 9.527344 62.652344 8.929688 60.921875 9.03125 L 29.332031 10.890625 C 28.757812 10.921875 28.304688 11.398438 28.304688 11.976562 L 19.597656 11.976562 L 19.597656 9.796875 C 19.597656 9.195312 19.109375 8.710938 18.507812 8.710938 L 16.332031 8.710938 C 15.730469 8.710938 15.242188 8.222656 15.242188 7.621094 C 15.242188 7.019531 15.730469 6.53125 16.332031 6.53125 L 18.507812 6.53125 C 19.109375 6.53125 19.597656 6.046875 19.597656 5.445312 L 19.597656 1.089844 C 19.597656 0.488281 19.109375 0 18.507812 0 L 15.054688 0 C 12.8125 0 10.613281 0.910156 9.027344 2.496094 C 7.441406 4.082031 6.53125 6.28125 6.53125 8.523438 L 6.53125 20.683594 C 6.53125 21.289062 7.019531 21.773438 7.621094 21.773438 L 8.710938 21.773438 L 8.710938 23.953125 L 7.621094 23.953125 C 7.019531 23.953125 6.53125 24.4375 6.53125 25.039062 L 6.53125 29.394531 C 6.53125 29.996094 7.019531 30.484375 7.621094 30.484375 L 11.976562 30.484375 L 11.976562 32.660156 L 9.050781 32.660156 C 6.433594 32.660156 3.972656 33.679688 2.121094 35.53125 L 0.320312 37.335938 C 0.121094 37.53125 0 37.804688 0 38.105469 L 0 42.851562 C 0 46.996094 2.410156 50.839844 6.136719 52.648438 L 36.542969 67.390625 C 36.691406 67.464844 36.851562 67.5 37.015625 67.5 L 41.371094 67.5 C 41.734375 67.5 42.074219 67.316406 42.277344 67.015625 L 45.660156 61.9375 C 46.066406 61.332031 46.746094 60.96875 47.472656 60.96875 L 54.433594 60.96875 C 55.035156 60.96875 55.523438 61.457031 55.523438 62.054688 L 55.523438 64.234375 C 55.523438 66.035156 56.988281 67.5 58.789062 67.5 L 64.234375 67.5 C 66.035156 67.5 67.5 66.035156 67.5 64.234375 L 67.5 35.925781 C 67.5 34.125 66.035156 32.660156 64.234375 32.660156 Z M 65.328125 15.238281 C 65.328125 16.363281 64.878906 17.410156 64.058594 18.179688 C 63.78125 18.441406 63.46875 18.640625 63.144531 18.808594 L 63.144531 11.671875 C 63.46875 11.839844 63.785156 12.039062 64.058594 12.296875 C 64.878906 13.070312 65.328125 14.113281 65.328125 15.238281 Z M 60.96875 11.207031 L 60.96875 19.269531 L 58.789062 19.140625 L 58.789062 11.335938 Z M 30.484375 13.003906 L 56.613281 11.464844 L 56.613281 19.011719 L 30.484375 17.480469 Z M 28.304688 14.152344 L 28.304688 16.332031 L 19.597656 16.332031 L 19.597656 14.152344 Z M 8.710938 8.523438 C 8.710938 6.851562 9.386719 5.21875 10.566406 4.035156 C 11.75 2.855469 13.382812 2.175781 15.054688 2.175781 L 17.417969 2.175781 L 17.417969 4.355469 L 16.332031 4.355469 C 14.53125 4.355469 13.066406 5.820312 13.066406 7.621094 C 13.066406 9.421875 14.53125 10.886719 16.332031 10.886719 L 17.417969 10.886719 L 17.417969 19.597656 L 8.710938 19.597656 Z M 10.886719 21.773438 L 15.242188 21.773438 L 15.242188 23.953125 L 10.886719 23.953125 Z M 8.710938 26.128906 L 17.417969 26.128906 L 17.417969 28.304688 L 8.710938 28.304688 Z M 9.050781 34.839844 L 64.234375 34.839844 C 64.835938 34.839844 65.324219 35.328125 65.324219 35.925781 L 65.324219 37.015625 L 3.71875 37.015625 C 5.148438 35.613281 7.042969 34.839844 9.050781 34.839844 Z M 56.613281 39.195312 L 65.324219 39.195312 L 65.324219 45.726562 L 58.789062 45.726562 C 57.589844 45.726562 56.613281 44.75 56.613281 43.546875 Z M 2.175781 42.851562 L 2.175781 39.195312 L 27.855469 39.195312 L 22.414062 44.636719 L 16.332031 44.636719 C 16.042969 44.636719 15.765625 44.75 15.5625 44.957031 L 8.933594 51.585938 L 7.085938 50.691406 C 4.105469 49.242188 2.175781 46.167969 2.175781 42.851562 Z M 64.234375 65.324219 L 58.789062 65.324219 C 58.1875 65.324219 57.703125 64.835938 57.703125 64.234375 L 57.703125 62.054688 C 57.703125 60.253906 56.234375 58.789062 54.433594 58.789062 L 47.472656 58.789062 C 46.011719 58.789062 44.660156 59.515625 43.851562 60.730469 L 40.789062 65.324219 L 37.265625 65.324219 L 33.003906 63.253906 L 36.695312 59.558594 L 35.15625 58.019531 L 30.929688 62.25 L 27.867188 60.765625 L 31.253906 57.382812 L 29.714844 55.84375 L 25.792969 59.761719 L 22.734375 58.28125 L 25.808594 55.207031 L 24.269531 53.667969 L 20.664062 57.273438 L 17.601562 55.789062 L 20.367188 53.027344 L 18.824219 51.488281 L 15.53125 54.785156 L 11.003906 52.59375 L 16.78125 46.816406 L 22.863281 46.816406 C 23.152344 46.816406 23.429688 46.699219 23.632812 46.496094 L 30.933594 39.195312 L 54.433594 39.195312 L 54.433594 43.546875 C 54.433594 45.949219 56.386719 47.902344 58.789062 47.902344 L 65.324219 47.902344 L 65.324219 64.234375 C 65.324219 64.835938 64.835938 65.324219 64.234375 65.324219 Z M 64.234375 65.324219 " fill-opacity="1" fill-rule="nonzero"/></g><path fill="#000000" d="M 23.953125 28.304688 L 28.304688 28.304688 L 28.304688 30.484375 L 23.953125 30.484375 Z M 23.953125 28.304688 " fill-opacity="1" fill-rule="nonzero"/><path fill="#000000" d="M 22.09375 25.359375 L 25.359375 22.09375 L 26.898438 23.632812 L 23.632812 26.898438 Z M 22.09375 25.359375 " fill-opacity="1" fill-rule="nonzero"/></svg>