<?xml version="1.0" encoding="UTF-8"?> <svg xmlns="http://www.w3.org/2000/svg" width="240" height="240" viewBox="0 0 240 240" fill="none"> <path d="M120 240C186.29 240 240 186.29 240 120C240 53.71 186.29 0 120 0C53.71 0 0 53.71 0 120C0 186.29 53.71 240 120 240ZM54.91 117.4L170.61 72.79C175.98 70.85 180.67 74.1 178.93 82.22L178.94 82.21L159.24 175.02C157.78 181.6 153.87 183.2 148.4 180.1L118.4 157.99L103.93 171.93C102.33 173.53 100.98 174.88 97.88 174.88L100.01 144.35L155.61 94.12C158.03 91.99 155.07 90.79 151.88 92.91L83.17 136.17L53.55 126.93C47.12 124.89 46.98 120.5 54.91 117.4V117.4Z" fill="#1F1E1D"></path> </svg> 