<svg xmlns="http://www.w3.org/2000/svg" xmlns:xlink="http://www.w3.org/1999/xlink" width="90" zoomAndPan="magnify" viewBox="0 0 67.5 67.499996" height="90" preserveAspectRatio="xMidYMid meet" version="1.0"><defs><clipPath id="id1"><path d="M 33 24 L 67.003906 24 L 67.003906 67.003906 L 33 67.003906 Z M 33 24 " clip-rule="nonzero"/></clipPath></defs><g clip-path="url(#id1)"><path fill="#100f0d" d="M 65.25 55.125 C 65.25 56.988281 63.738281 58.5 61.875 58.5 L 48.375 58.5 C 46.511719 58.5 45 56.988281 45 55.125 L 45 29.25 C 45 28.011719 46.011719 27 47.25 27 C 48.488281 27 49.5 28.011719 49.5 29.25 L 49.5 43.875 L 51.75 43.875 L 51.75 40.5 L 55.125 40.5 L 55.125 43.875 L 57.375 43.875 L 57.375 40.5 L 59.625 40.5 C 60.011719 40.5 60.386719 40.539062 60.75 40.613281 L 60.75 45 L 63 45 L 63 41.65625 C 64.359375 42.683594 65.25 44.292969 65.25 46.125 Z M 61.875 65.25 L 48.375 65.25 L 48.375 60.75 L 61.875 60.75 Z M 35.753906 43.570312 C 35.8125 42.972656 36.09375 42.433594 36.554688 42.046875 C 37.476562 41.277344 38.960938 41.417969 39.71875 42.324219 L 42.75 45.9375 L 42.75 52.933594 L 36.277344 45.207031 C 35.890625 44.75 35.707031 44.167969 35.753906 43.570312 Z M 59.625 38.25 L 51.75 38.25 L 51.75 29.25 C 51.75 26.765625 49.734375 24.75 47.25 24.75 C 44.765625 24.75 42.75 26.765625 42.75 29.25 L 42.75 42.4375 L 41.445312 40.886719 C 40.597656 39.859375 39.335938 39.273438 37.992188 39.273438 C 36.941406 39.273438 35.910156 39.648438 35.113281 40.324219 C 34.183594 41.09375 33.621094 42.179688 33.515625 43.375 C 33.410156 44.570312 33.78125 45.738281 34.554688 46.65625 L 43.011719 56.746094 C 43.496094 58.324219 44.628906 59.617188 46.125 60.269531 L 46.125 66.375 C 46.125 66.996094 46.628906 67.5 47.25 67.5 L 63 67.5 C 63.621094 67.5 64.125 66.996094 64.125 66.375 L 64.125 60.269531 C 66.105469 59.402344 67.5 57.421875 67.5 55.125 L 67.5 46.125 C 67.5 41.78125 63.964844 38.25 59.625 38.25 " fill-opacity="1" fill-rule="nonzero"/></g><path fill="#100f0d" d="M 3.375 2.25 L 37.125 2.25 C 37.746094 2.25 38.25 2.753906 38.25 3.375 L 38.25 18 L 2.25 18 L 2.25 3.375 C 2.25 2.753906 2.753906 2.25 3.375 2.25 Z M 2.25 52.875 L 2.25 20.25 L 38.25 20.25 L 38.25 37.125 L 40.5 37.125 L 40.5 3.375 C 40.5 1.511719 38.988281 0 37.125 0 L 3.375 0 C 1.511719 0 0 1.511719 0 3.375 L 0 52.875 C 0 54.738281 1.511719 56.25 3.375 56.25 L 37.125 56.25 L 37.125 54 L 3.375 54 C 2.753906 54 2.25 53.496094 2.25 52.875 " fill-opacity="1" fill-rule="nonzero"/><path fill="#100f0d" d="M 6.75 6.75 L 33.75 6.75 L 33.75 13.5 L 6.75 13.5 Z M 5.625 15.75 L 34.875 15.75 C 35.496094 15.75 36 15.246094 36 14.625 L 36 5.625 C 36 5.003906 35.496094 4.5 34.875 4.5 L 5.625 4.5 C 5.003906 4.5 4.5 5.003906 4.5 5.625 L 4.5 14.625 C 4.5 15.246094 5.003906 15.75 5.625 15.75 " fill-opacity="1" fill-rule="nonzero"/><path fill="#100f0d" d="M 22.5 36 L 15.75 36 L 15.75 27 L 22.5 27 Z M 15.75 47.25 L 15.75 38.25 L 22.5 38.25 L 22.5 47.25 Z M 6.75 38.25 L 13.5 38.25 L 13.5 47.25 L 6.75 47.25 Z M 13.5 27 L 13.5 36 L 6.75 36 L 6.75 27 Z M 36 37.125 L 36 25.875 C 36 25.253906 35.496094 24.75 34.875 24.75 L 5.625 24.75 C 5.003906 24.75 4.5 25.253906 4.5 25.875 L 4.5 48.375 C 4.5 48.996094 5.003906 49.5 5.625 49.5 L 32.625 49.5 L 32.625 47.25 L 24.75 47.25 L 24.75 27 L 33.75 27 L 33.75 37.125 L 36 37.125 " fill-opacity="1" fill-rule="nonzero"/><path fill="#100f0d" d="M 19.125 11.25 L 21.375 11.25 L 21.375 9 L 19.125 9 L 19.125 11.25 " fill-opacity="1" fill-rule="nonzero"/><path fill="#100f0d" d="M 23.625 11.25 L 25.875 11.25 L 25.875 9 L 23.625 9 L 23.625 11.25 " fill-opacity="1" fill-rule="nonzero"/><path fill="#100f0d" d="M 14.625 11.25 L 16.875 11.25 L 16.875 9 L 14.625 9 L 14.625 11.25 " fill-opacity="1" fill-rule="nonzero"/></svg>