<svg xmlns="http://www.w3.org/2000/svg" xmlns:xlink="http://www.w3.org/1999/xlink" width="90" zoomAndPan="magnify" viewBox="0 0 67.5 67.499996" height="90" preserveAspectRatio="xMidYMid meet" version="1.0"><defs><clipPath id="id1"><path d="M 10.125 0 L 57.375 0 L 57.375 67.003906 L 10.125 67.003906 Z M 10.125 0 " clip-rule="nonzero"/></clipPath></defs><g clip-path="url(#id1)"><path fill="#5c5c5c" d="M 52.402344 38.285156 L 52.398438 38.285156 L 44.277344 36.070312 L 40.5 34.179688 L 40.5 29.234375 C 42.105469 28.117188 43.378906 26.703125 44.328125 24.992188 C 45.144531 23.53125 45.65625 21.976562 45.863281 20.316406 L 45.867188 20.316406 C 46.078125 20.15625 46.265625 19.976562 46.433594 19.773438 C 46.601562 19.570312 46.742188 19.351562 46.859375 19.117188 C 46.976562 18.878906 47.0625 18.636719 47.125 18.378906 C 47.183594 18.121094 47.214844 17.863281 47.214844 17.601562 C 47.214844 17.335938 47.1875 17.078125 47.128906 16.820312 C 47.066406 16.566406 46.980469 16.320312 46.863281 16.082031 C 46.746094 15.847656 46.605469 15.628906 46.4375 15.425781 C 46.273438 15.222656 46.085938 15.039062 45.875 14.878906 C 46.03125 14.050781 46.113281 13.21875 46.125 12.375 C 46.125 11.5625 46.046875 10.757812 45.886719 9.960938 C 45.730469 9.164062 45.492188 8.390625 45.183594 7.640625 C 44.871094 6.886719 44.492188 6.175781 44.039062 5.5 C 43.589844 4.824219 43.074219 4.199219 42.5 3.625 C 41.925781 3.050781 41.300781 2.535156 40.625 2.085938 C 39.949219 1.632812 39.238281 1.253906 38.484375 0.941406 C 37.734375 0.632812 36.960938 0.394531 36.164062 0.238281 C 35.367188 0.078125 34.5625 0 33.75 0 C 32.9375 0 32.132812 0.078125 31.335938 0.238281 C 30.539062 0.394531 29.765625 0.632812 29.015625 0.941406 C 28.261719 1.253906 27.550781 1.632812 26.875 2.085938 C 26.199219 2.535156 25.574219 3.050781 25 3.625 C 24.425781 4.199219 23.910156 4.824219 23.460938 5.5 C 23.007812 6.175781 22.628906 6.886719 22.316406 7.640625 C 22.007812 8.390625 21.769531 9.164062 21.613281 9.960938 C 21.453125 10.757812 21.375 11.5625 21.375 12.375 C 21.375 13.230469 21.457031 14.078125 21.613281 14.921875 C 21.410156 15.074219 21.222656 15.246094 21.058594 15.441406 C 20.894531 15.636719 20.753906 15.847656 20.636719 16.074219 C 20.519531 16.300781 20.429688 16.539062 20.367188 16.785156 C 20.304688 17.03125 20.273438 17.285156 20.269531 17.539062 C 20.261719 17.792969 20.289062 18.046875 20.339844 18.296875 C 20.394531 18.546875 20.472656 18.785156 20.582031 19.015625 C 20.691406 19.25 20.824219 19.464844 20.980469 19.664062 C 21.136719 19.867188 21.316406 20.046875 21.515625 20.207031 L 21.554688 20.246094 C 21.757812 22.082031 22.335938 23.792969 23.289062 25.378906 C 24.238281 26.960938 25.476562 28.277344 27 29.320312 L 27 34.179688 L 23.222656 36.070312 L 15.097656 38.285156 C 14.386719 38.480469 13.722656 38.785156 13.109375 39.199219 C 12.496094 39.613281 11.964844 40.113281 11.515625 40.703125 C 11.066406 41.289062 10.722656 41.933594 10.484375 42.636719 C 10.246094 43.335938 10.125 44.058594 10.125 44.796875 L 10.125 64.125 C 10.125 64.574219 10.210938 65.003906 10.382812 65.414062 C 10.554688 65.828125 10.796875 66.195312 11.113281 66.511719 C 11.429688 66.828125 11.796875 67.070312 12.210938 67.242188 C 12.621094 67.414062 13.050781 67.5 13.5 67.5 L 54 67.5 C 54.449219 67.5 54.878906 67.414062 55.289062 67.242188 C 55.703125 67.070312 56.070312 66.828125 56.386719 66.511719 C 56.703125 66.195312 56.945312 65.828125 57.117188 65.414062 C 57.289062 65.003906 57.375 64.574219 57.375 64.125 L 57.375 44.796875 C 57.375 44.058594 57.253906 43.335938 57.015625 42.636719 C 56.777344 41.933594 56.433594 41.289062 55.984375 40.703125 C 55.535156 40.113281 55.003906 39.613281 54.390625 39.199219 C 53.777344 38.785156 53.113281 38.480469 52.402344 38.285156 Z M 39.9375 40.5 L 36.09375 40.5 L 39.664062 36.277344 L 42.167969 37.527344 Z M 25.332031 37.527344 L 27.835938 36.277344 L 31.40625 40.5 L 27.5625 40.5 Z M 38.25 34.464844 L 33.75 39.789062 L 29.25 34.464844 L 29.25 30.535156 C 30.699219 31.089844 32.203125 31.363281 33.753906 31.355469 C 35.308594 31.347656 36.804688 31.058594 38.25 30.488281 Z M 30.375 42.75 L 37.125 42.75 L 37.125 53.582031 L 34.261719 52.117188 C 33.921875 51.941406 33.578125 51.941406 33.238281 52.117188 L 30.375 53.582031 Z M 43.875 12.363281 L 43.875 12.375 C 43.867188 12.976562 43.816406 13.574219 43.714844 14.164062 L 39.332031 13.363281 C 39.078125 9.484375 37.96875 5.871094 36.011719 2.511719 C 36.5625 2.640625 37.101562 2.8125 37.628906 3.03125 C 38.152344 3.25 38.65625 3.511719 39.136719 3.8125 C 39.617188 4.113281 40.070312 4.457031 40.492188 4.835938 C 40.914062 5.210938 41.304688 5.625 41.660156 6.066406 C 42.015625 6.511719 42.328125 6.980469 42.605469 7.480469 C 42.878906 7.976562 43.113281 8.492188 43.300781 9.027344 C 43.488281 9.5625 43.632812 10.113281 43.726562 10.671875 C 43.824219 11.230469 43.875 11.796875 43.875 12.363281 Z M 37.050781 13.015625 C 34.847656 12.738281 32.648438 12.742188 30.445312 13.027344 C 30.777344 9.472656 31.878906 6.171875 33.75 3.132812 C 35.617188 6.167969 36.71875 9.464844 37.050781 13.015625 Z M 31.488281 2.515625 C 29.527344 5.875 28.417969 9.496094 28.167969 13.378906 L 23.78125 14.171875 C 23.679688 13.578125 23.625 12.976562 23.625 12.375 C 23.625 11.804688 23.675781 11.242188 23.769531 10.683594 C 23.867188 10.121094 24.007812 9.574219 24.199219 9.035156 C 24.386719 8.5 24.617188 7.984375 24.894531 7.484375 C 25.167969 6.988281 25.484375 6.515625 25.835938 6.074219 C 26.191406 5.628906 26.582031 5.214844 27.003906 4.835938 C 27.429688 4.457031 27.882812 4.117188 28.363281 3.816406 C 28.84375 3.511719 29.347656 3.25 29.871094 3.03125 C 30.394531 2.8125 30.933594 2.640625 31.488281 2.515625 Z M 23.394531 16.527344 L 29.539062 15.417969 C 32.394531 14.898438 35.246094 14.902344 38.097656 15.425781 L 44.109375 16.523438 C 44.554688 16.617188 44.835938 16.882812 44.949219 17.324219 C 45.066406 17.765625 44.953125 18.132812 44.609375 18.433594 C 44.347656 18.652344 44.050781 18.730469 43.71875 18.667969 L 38.429688 17.707031 C 35.308594 17.136719 32.191406 17.136719 29.070312 17.707031 L 23.78125 18.667969 C 23.640625 18.691406 23.503906 18.6875 23.363281 18.65625 C 23.226562 18.621094 23.097656 18.566406 22.980469 18.484375 C 22.863281 18.398438 22.769531 18.300781 22.691406 18.179688 C 22.617188 18.058594 22.566406 17.929688 22.539062 17.789062 C 22.515625 17.648438 22.515625 17.507812 22.546875 17.371094 C 22.574219 17.230469 22.628906 17.101562 22.710938 16.984375 C 22.789062 16.867188 22.890625 16.765625 23.007812 16.6875 C 23.125 16.609375 23.253906 16.554688 23.394531 16.527344 Z M 25.273438 24.3125 C 24.621094 23.253906 24.167969 22.117188 23.914062 20.902344 C 24.292969 20.914062 29.199219 19.945312 29.472656 19.921875 C 32.324219 19.402344 35.175781 19.402344 38.027344 19.921875 C 38.203125 19.933594 43.253906 20.90625 43.476562 20.894531 C 43.257812 21.953125 42.886719 22.953125 42.363281 23.898438 C 41.949219 24.664062 41.445312 25.363281 40.851562 25.992188 C 40.253906 26.625 39.585938 27.167969 38.847656 27.621094 C 38.105469 28.078125 37.320312 28.425781 36.488281 28.671875 C 35.65625 28.917969 34.804688 29.054688 33.9375 29.074219 C 33.070312 29.09375 32.214844 29.003906 31.371094 28.796875 C 30.527344 28.589844 29.722656 28.277344 28.960938 27.859375 C 28.203125 27.441406 27.507812 26.929688 26.882812 26.328125 C 26.257812 25.726562 25.71875 25.054688 25.273438 24.3125 Z M 12.375 64.125 L 12.375 60.75 L 16.875 60.75 L 16.875 65.25 L 13.5 65.25 C 13.351562 65.25 13.207031 65.222656 13.070312 65.164062 C 12.933594 65.105469 12.808594 65.027344 12.703125 64.921875 C 12.597656 64.816406 12.519531 64.691406 12.460938 64.554688 C 12.402344 64.417969 12.375 64.273438 12.375 64.125 Z M 16.875 43.875 L 16.875 58.5 L 12.375 58.5 L 12.375 44.796875 C 12.375 44.304688 12.457031 43.824219 12.613281 43.355469 C 12.773438 42.886719 13 42.457031 13.300781 42.066406 C 13.601562 41.675781 13.953125 41.339844 14.363281 41.066406 C 14.773438 40.789062 15.214844 40.585938 15.691406 40.453125 L 23.183594 38.410156 L 24.75 40.5 L 20.25 40.5 C 19.800781 40.5 19.371094 40.585938 18.960938 40.757812 C 18.546875 40.929688 18.179688 41.171875 17.863281 41.488281 C 17.546875 41.804688 17.304688 42.171875 17.132812 42.585938 C 16.960938 42.996094 16.875 43.425781 16.875 43.875 Z M 48.375 65.25 L 19.125 65.25 L 19.125 43.875 C 19.125 43.726562 19.152344 43.582031 19.210938 43.445312 C 19.269531 43.308594 19.347656 43.183594 19.453125 43.078125 C 19.558594 42.972656 19.683594 42.894531 19.820312 42.835938 C 19.957031 42.777344 20.101562 42.75 20.25 42.75 L 28.125 42.75 L 28.125 55.417969 C 28.125 55.515625 28.136719 55.609375 28.160156 55.703125 C 28.1875 55.796875 28.222656 55.882812 28.269531 55.96875 C 28.316406 56.050781 28.371094 56.128906 28.441406 56.199219 C 28.507812 56.265625 28.582031 56.328125 28.664062 56.378906 C 28.746094 56.429688 28.832031 56.46875 28.925781 56.496094 C 29.015625 56.523438 29.109375 56.539062 29.207031 56.542969 C 29.304688 56.546875 29.398438 56.539062 29.492188 56.515625 C 29.585938 56.496094 29.675781 56.464844 29.761719 56.421875 L 33.75 54.382812 L 37.738281 56.421875 C 37.824219 56.464844 37.914062 56.496094 38.007812 56.515625 C 38.101562 56.539062 38.195312 56.546875 38.292969 56.542969 C 38.390625 56.539062 38.484375 56.523438 38.574219 56.496094 C 38.667969 56.46875 38.753906 56.429688 38.835938 56.378906 C 38.917969 56.328125 38.992188 56.269531 39.058594 56.199219 C 39.128906 56.128906 39.183594 56.050781 39.230469 55.96875 C 39.277344 55.882812 39.3125 55.796875 39.339844 55.703125 C 39.363281 55.609375 39.375 55.515625 39.375 55.417969 L 39.375 42.75 L 47.25 42.75 C 47.398438 42.75 47.542969 42.777344 47.679688 42.835938 C 47.816406 42.894531 47.941406 42.972656 48.046875 43.078125 C 48.152344 43.183594 48.230469 43.308594 48.289062 43.445312 C 48.347656 43.582031 48.375 43.726562 48.375 43.875 Z M 47.25 40.5 L 42.75 40.5 L 44.316406 38.410156 L 51.808594 40.453125 C 52.285156 40.585938 52.726562 40.789062 53.136719 41.066406 C 53.546875 41.339844 53.898438 41.675781 54.199219 42.066406 C 54.5 42.457031 54.726562 42.886719 54.886719 43.355469 C 55.042969 43.824219 55.125 44.304688 55.125 44.796875 L 55.125 58.5 L 50.625 58.5 L 50.625 43.875 C 50.625 43.425781 50.539062 42.996094 50.367188 42.585938 C 50.195312 42.171875 49.953125 41.804688 49.636719 41.488281 C 49.320312 41.171875 48.953125 40.929688 48.539062 40.757812 C 48.128906 40.585938 47.699219 40.5 47.25 40.5 Z M 55.125 64.125 C 55.125 64.273438 55.097656 64.417969 55.039062 64.554688 C 54.980469 64.691406 54.902344 64.816406 54.796875 64.921875 C 54.691406 65.027344 54.566406 65.105469 54.429688 65.164062 C 54.292969 65.222656 54.148438 65.25 54 65.25 L 50.625 65.25 L 50.625 60.75 L 55.125 60.75 Z M 55.125 64.125 " fill-opacity="1" fill-rule="nonzero"/></g></svg>