<svg xmlns="http://www.w3.org/2000/svg" xmlns:xlink="http://www.w3.org/1999/xlink" width="90" zoomAndPan="magnify" viewBox="0 0 67.5 67.499996" height="90" preserveAspectRatio="xMidYMid meet" version="1.0"><defs><clipPath id="id1"><path d="M 0 0 L 67.003906 0 L 67.003906 67.003906 L 0 67.003906 Z M 0 0 " clip-rule="nonzero"/></clipPath></defs><g clip-path="url(#id1)"><path fill="#000000" d="M 65.25 65.25 L 2.25 65.25 L 2.25 58.5 L 10.125 58.5 C 10.125 60.355469 11.644531 61.875 13.5 61.875 C 13.941406 61.875 14.367188 61.78125 14.761719 61.628906 C 14.90625 62.199219 15.1875 62.71875 15.605469 63.121094 C 16.234375 63.765625 17.089844 64.125 18 64.125 C 19.855469 64.125 21.375 62.605469 21.375 60.75 L 21.375 58.5 L 44.019531 58.5 C 44.515625 60.433594 46.28125 61.875 48.375 61.875 C 49.621094 61.875 50.792969 61.355469 51.613281 60.492188 C 53.089844 62.0625 55.167969 63 57.375 63 C 60.445312 63 63.1875 61.210938 64.464844 58.5 L 65.25 58.5 Z M 7.964844 48.492188 C 8.96875 48.265625 9.921875 48.371094 10.824219 48.769531 C 11.15625 48.925781 11.542969 48.902344 11.855469 48.714844 C 12.171875 48.519531 12.375 48.195312 12.410156 47.824219 C 12.691406 43.714844 16.132812 40.5 20.25 40.5 C 22.105469 40.5 23.90625 41.15625 25.324219 42.355469 C 25.570312 42.5625 25.898438 42.648438 26.222656 42.605469 C 26.550781 42.546875 26.832031 42.355469 27.011719 42.074219 C 28.449219 39.679688 30.972656 38.25 33.75 38.25 C 36.28125 38.25 38.675781 39.488281 40.160156 41.558594 C 40.433594 41.949219 40.925781 42.121094 41.386719 41.984375 C 44.3125 41.128906 47.4375 41.847656 49.703125 43.773438 C 49.96875 44.011719 50.34375 44.097656 50.691406 44.011719 C 51.085938 43.917969 51.433594 43.875 51.75 43.875 C 54.234375 43.875 56.242188 45.878906 56.25 48.363281 C 56.25 48.980469 56.753906 49.5 57.375 49.5 C 60.480469 49.5 63 52.019531 63 55.125 C 63 55.765625 62.886719 56.394531 62.675781 57 C 61.617188 60.015625 58.125 61.707031 54.851562 60.175781 C 53.851562 59.707031 53.089844 58.875 52.519531 57.933594 C 52.289062 57.558594 51.867188 57.351562 51.445312 57.386719 C 51.007812 57.433594 50.636719 57.722656 50.488281 58.140625 C 50.074219 59.3125 48.71875 59.976562 47.457031 59.429688 C 46.628906 59.074219 46.171875 58.210938 46.121094 57.308594 C 46.089844 56.71875 45.597656 56.25 45 56.25 L 20.25 56.25 C 19.628906 56.25 19.125 56.753906 19.125 57.375 L 19.125 60.75 C 19.125 61.371094 18.621094 61.875 18 61.875 C 17.695312 61.875 17.425781 61.761719 17.199219 61.527344 C 16.988281 61.324219 16.875 61.054688 16.875 60.75 L 16.875 57.375 C 16.875 56.753906 16.371094 56.25 15.75 56.25 C 15.128906 56.25 14.625 56.753906 14.625 57.375 L 14.625 58.5 C 14.625 58.804688 14.511719 59.074219 14.277344 59.300781 C 14.074219 59.511719 13.804688 59.625 13.5 59.625 C 12.878906 59.625 12.375 59.121094 12.375 58.5 L 12.375 57.375 C 12.375 56.753906 11.871094 56.25 11.25 56.25 L 6.066406 56.25 C 4.320312 54.710938 3.785156 51.964844 5.765625 49.792969 C 6.347656 49.152344 7.121094 48.6875 7.964844 48.492188 Z M 12.363281 30.375 L 14.625 30.375 L 14.636719 36 L 16.886719 36 L 16.875 30.375 L 19.113281 30.375 L 19.125 34.875 L 21.375 34.875 L 21.363281 30.375 L 23.625 30.375 L 23.636719 36 L 25.886719 36 L 25.875 30.375 L 28.113281 30.375 L 28.125 34.875 L 30.375 34.875 L 30.363281 30.375 L 32.625 30.375 L 32.636719 33.75 L 34.886719 33.75 L 34.875 30.375 L 37.125 30.375 L 37.136719 36 L 39.386719 36 L 39.375 30.375 L 41.613281 30.375 L 41.625 34.875 L 43.875 34.875 L 43.863281 30.375 L 46.125 30.375 L 46.136719 36 L 48.386719 36 L 48.375 30.375 L 50.613281 30.375 L 50.625 34.875 L 52.875 34.875 L 52.863281 30.375 L 55.125 30.375 L 55.136719 36 L 57.386719 36 L 57.375 30.375 L 59.625 30.375 L 59.625 47.589844 C 59.230469 47.464844 58.824219 47.371094 58.421875 47.316406 C 57.902344 44.097656 55.113281 41.625 51.75 41.625 C 51.425781 41.625 51.085938 41.660156 50.726562 41.71875 C 48.152344 39.722656 44.753906 38.925781 41.511719 39.632812 C 39.589844 37.347656 36.742188 36 33.75 36 C 30.589844 36 27.683594 37.441406 25.773438 39.894531 C 24.144531 38.824219 22.21875 38.25 20.25 38.25 C 15.433594 38.25 11.34375 41.667969 10.363281 46.261719 C 9.910156 46.167969 9.460938 46.125 9 46.125 C 8.617188 46.125 8.25 46.167969 7.875 46.226562 L 7.875 30.375 L 10.113281 30.375 L 10.125 34.875 L 12.375 34.875 Z M 4.5 28.125 L 4.5 21.375 L 61.875 21.375 C 62.496094 21.375 63 21.878906 63 22.5 L 63 27 C 63 27.621094 62.496094 28.125 61.875 28.125 Z M 11.25 16.875 L 18 16.875 L 18 19.125 L 11.25 19.125 Z M 11.25 12.375 L 18 12.375 L 18 14.625 L 11.25 14.625 Z M 11.25 3.375 C 11.25 2.753906 11.753906 2.25 12.375 2.25 L 21.375 2.25 L 21.375 6.75 L 19.125 6.75 C 18.503906 6.75 18 7.253906 18 7.875 L 18 10.125 L 11.25 10.125 Z M 23.625 2.25 L 40.5 2.25 L 40.5 6.75 L 23.625 6.75 Z M 42.75 2.25 L 46.125 2.25 C 47.363281 2.25 48.375 3.261719 48.375 4.5 C 48.375 5.738281 47.363281 6.75 46.125 6.75 L 42.75 6.75 Z M 66.375 56.25 L 65.148438 56.25 C 65.207031 55.875 65.25 55.507812 65.25 55.125 C 65.25 52.457031 63.910156 50.097656 61.875 48.679688 L 61.875 30.375 C 63.730469 30.375 65.25 28.855469 65.25 27 L 65.25 22.5 C 65.25 20.644531 63.730469 19.125 61.875 19.125 L 20.25 19.125 L 20.25 9 L 46.125 9 C 48.613281 9 50.625 6.988281 50.625 4.5 C 50.625 2.011719 48.613281 0 46.125 0 L 12.375 0 C 10.519531 0 9 1.519531 9 3.375 L 9 19.125 L 4.5 19.125 C 3.261719 19.125 2.25 20.136719 2.25 21.375 L 2.25 28.125 C 2.25 29.363281 3.261719 30.375 4.5 30.375 L 5.625 30.375 L 5.625 47.035156 C 3.613281 48.207031 2.25 50.378906 2.25 52.875 C 2.25 54.066406 2.589844 55.238281 3.171875 56.25 L 1.125 56.25 C 0.503906 56.25 0 56.753906 0 57.375 L 0 66.375 C 0 66.996094 0.503906 67.5 1.125 67.5 L 66.375 67.5 C 66.996094 67.5 67.5 66.996094 67.5 66.375 L 67.5 57.375 C 67.5 56.753906 66.996094 56.25 66.375 56.25 " fill-opacity="1" fill-rule="nonzero"/></g><path fill="#000000" d="M 51.75 13.5 C 52.371094 13.5 52.875 14.003906 52.875 14.625 C 52.875 15.246094 52.371094 15.75 51.75 15.75 C 51.128906 15.75 50.625 15.246094 50.625 14.625 C 50.625 14.003906 51.128906 13.5 51.75 13.5 Z M 48.375 14.625 C 48.375 16.488281 49.886719 18 51.75 18 C 53.613281 18 55.125 16.488281 55.125 14.625 C 55.125 12.761719 53.613281 11.25 51.75 11.25 C 49.886719 11.25 48.375 12.761719 48.375 14.625 " fill-opacity="1" fill-rule="nonzero"/><path fill="#000000" d="M 59.625 1.125 L 57.375 1.125 L 57.375 3.375 L 59.625 3.375 L 59.625 1.125 " fill-opacity="1" fill-rule="nonzero"/><path fill="#000000" d="M 61.875 5.625 L 61.875 3.375 L 59.625 3.375 L 59.625 5.625 L 61.875 5.625 " fill-opacity="1" fill-rule="nonzero"/><path fill="#000000" d="M 57.375 7.875 L 59.625 7.875 L 59.625 5.625 L 57.375 5.625 L 57.375 7.875 " fill-opacity="1" fill-rule="nonzero"/><path fill="#000000" d="M 57.375 3.375 L 55.125 3.375 L 55.125 5.625 L 57.375 5.625 L 57.375 3.375 " fill-opacity="1" fill-rule="nonzero"/><path fill="#000000" d="M 20.25 49.5 C 20.871094 49.5 21.375 50.003906 21.375 50.625 C 21.375 51.246094 20.871094 51.75 20.25 51.75 C 19.628906 51.75 19.125 51.246094 19.125 50.625 C 19.125 50.003906 19.628906 49.5 20.25 49.5 Z M 20.25 54 C 22.113281 54 23.625 52.488281 23.625 50.625 C 23.625 48.761719 22.113281 47.25 20.25 47.25 C 18.386719 47.25 16.875 48.761719 16.875 50.625 C 16.875 52.488281 18.386719 54 20.25 54 " fill-opacity="1" fill-rule="nonzero"/><path fill="#000000" d="M 33.75 40.5 L 31.5 40.5 L 31.5 42.75 L 33.75 42.75 L 33.75 40.5 " fill-opacity="1" fill-rule="nonzero"/><path fill="#000000" d="M 36 45 L 36 42.75 L 33.75 42.75 L 33.75 45 L 36 45 " fill-opacity="1" fill-rule="nonzero"/><path fill="#000000" d="M 31.5 47.25 L 33.75 47.25 L 33.75 45 L 31.5 45 L 31.5 47.25 " fill-opacity="1" fill-rule="nonzero"/><path fill="#000000" d="M 31.5 42.75 L 29.25 42.75 L 29.25 45 L 31.5 45 L 31.5 42.75 " fill-opacity="1" fill-rule="nonzero"/><path fill="#000000" d="M 46.125 47.25 L 43.875 47.25 L 43.875 49.5 L 46.125 49.5 L 46.125 47.25 " fill-opacity="1" fill-rule="nonzero"/><path fill="#000000" d="M 48.375 51.75 L 48.375 49.5 L 46.125 49.5 L 46.125 51.75 L 48.375 51.75 " fill-opacity="1" fill-rule="nonzero"/><path fill="#000000" d="M 43.875 54 L 46.125 54 L 46.125 51.75 L 43.875 51.75 L 43.875 54 " fill-opacity="1" fill-rule="nonzero"/><path fill="#000000" d="M 43.875 49.5 L 41.625 49.5 L 41.625 51.75 L 43.875 51.75 L 43.875 49.5 " fill-opacity="1" fill-rule="nonzero"/></svg>