<svg xmlns="http://www.w3.org/2000/svg" xmlns:xlink="http://www.w3.org/1999/xlink" width="90" zoomAndPan="magnify" viewBox="0 0 67.5 67.499996" height="90" preserveAspectRatio="xMidYMid meet" version="1.0"><defs><clipPath id="id1"><path d="M 1.089844 23 L 66.339844 23 L 66.339844 67.003906 L 1.089844 67.003906 Z M 1.089844 23 " clip-rule="nonzero"/></clipPath><clipPath id="id2"><path d="M 22 0.546875 L 45 0.546875 L 45 22 L 22 22 Z M 22 0.546875 " clip-rule="nonzero"/></clipPath></defs><g clip-path="url(#id1)"><path fill="#5c5c5c" d="M 65.253906 23.691406 L 38.066406 23.691406 C 37.777344 23.691406 37.5 23.804688 37.296875 24.011719 L 34.257812 27.066406 L 31.222656 24.011719 C 31.019531 23.804688 30.742188 23.691406 30.453125 23.691406 L 2.175781 23.691406 C 1.578125 23.691406 1.089844 24.179688 1.089844 24.785156 L 1.089844 45.574219 C 1.089844 46.179688 1.578125 46.667969 2.175781 46.667969 L 13.644531 46.667969 C 13.183594 48.117188 13.507812 49.765625 14.644531 50.910156 C 15.433594 51.703125 16.476562 52.140625 17.589844 52.140625 C 17.660156 52.140625 17.726562 52.121094 17.796875 52.117188 C 17.742188 53.261719 18.132812 54.417969 18.996094 55.289062 C 19.78125 56.082031 20.828125 56.515625 21.941406 56.515625 C 22.011719 56.515625 22.078125 56.5 22.148438 56.496094 C 22.09375 57.636719 22.480469 58.796875 23.347656 59.664062 C 24.132812 60.457031 25.175781 60.894531 26.289062 60.894531 C 26.359375 60.894531 26.425781 60.875 26.5 60.871094 C 26.441406 62.015625 26.832031 63.171875 27.695312 64.042969 C 28.480469 64.835938 29.527344 65.269531 30.640625 65.269531 C 31.644531 65.269531 32.582031 64.898438 33.335938 64.246094 L 35.121094 66.042969 C 35.933594 66.863281 37 67.269531 38.066406 67.269531 C 39.132812 67.269531 40.199219 66.863281 41.011719 66.042969 C 41.875 65.175781 42.265625 64.015625 42.207031 62.871094 C 42.277344 62.875 42.347656 62.890625 42.417969 62.890625 C 43.480469 62.890625 44.546875 62.484375 45.359375 61.667969 C 46.222656 60.796875 46.613281 59.636719 46.558594 58.492188 C 46.628906 58.496094 46.695312 58.515625 46.765625 58.515625 C 47.832031 58.515625 48.898438 58.105469 49.710938 57.289062 C 50.574219 56.417969 50.964844 55.257812 50.910156 54.117188 C 50.976562 54.121094 51.046875 54.136719 51.117188 54.136719 C 52.183594 54.136719 53.25 53.726562 54.058594 52.910156 C 55.683594 51.277344 55.683594 48.621094 54.058594 46.984375 L 53.742188 46.667969 L 65.253906 46.667969 C 65.855469 46.667969 66.339844 46.179688 66.339844 45.574219 L 66.339844 24.785156 C 66.339844 24.179688 65.855469 23.691406 65.253906 23.691406 Z M 3.265625 44.480469 L 3.265625 25.878906 L 9.789062 25.878906 L 9.789062 44.480469 Z M 16.183594 49.363281 C 15.40625 48.585938 15.40625 47.316406 16.183594 46.535156 L 19.445312 43.253906 C 19.832031 42.863281 20.34375 42.667969 20.851562 42.667969 C 21.359375 42.667969 21.871094 42.863281 22.257812 43.253906 C 23.035156 44.03125 23.035156 45.300781 22.257812 46.082031 L 18.996094 49.363281 C 18.242188 50.121094 16.933594 50.121094 16.183594 49.363281 Z M 20.535156 53.742188 C 19.757812 52.960938 19.757812 51.691406 20.535156 50.910156 L 23.796875 47.628906 C 24.183594 47.238281 24.691406 47.042969 25.203125 47.042969 C 25.710938 47.042969 26.222656 47.238281 26.609375 47.628906 C 27.382812 48.410156 27.382812 49.679688 26.609375 50.460938 L 23.347656 53.742188 C 22.59375 54.5 21.285156 54.5 20.535156 53.742188 Z M 24.882812 58.117188 C 24.109375 57.339844 24.109375 56.070312 24.882812 55.289062 L 28.144531 52.007812 C 28.53125 51.617188 29.042969 51.421875 29.550781 51.421875 C 30.0625 51.421875 30.570312 51.617188 30.957031 52.007812 C 31.734375 52.785156 31.734375 54.054688 30.957031 54.835938 L 27.695312 58.117188 C 26.941406 58.875 25.636719 58.875 24.882812 58.117188 Z M 29.234375 62.496094 C 28.457031 61.714844 28.457031 60.445312 29.234375 59.664062 L 32.496094 56.382812 C 32.882812 55.992188 33.394531 55.796875 33.902344 55.796875 C 34.410156 55.796875 34.921875 55.992188 35.308594 56.382812 C 36.082031 57.164062 36.082031 58.433594 35.308594 59.214844 L 32.046875 62.496094 C 31.292969 63.253906 29.984375 63.253906 29.234375 62.496094 Z M 39.472656 64.496094 C 38.695312 65.277344 37.433594 65.277344 36.660156 64.496094 L 34.894531 62.722656 L 36.847656 60.761719 C 37.148438 60.457031 37.375 60.109375 37.5625 59.75 L 39.472656 61.667969 C 40.246094 62.449219 40.246094 63.71875 39.472656 64.496094 Z M 52.519531 51.367188 C 51.746094 52.144531 50.484375 52.144531 49.707031 51.367188 L 47.535156 49.175781 L 45.996094 50.726562 L 48.171875 52.914062 C 48.945312 53.695312 48.945312 54.964844 48.171875 55.742188 C 47.394531 56.523438 46.132812 56.523438 45.359375 55.742188 L 43.183594 53.554688 L 41.644531 55.101562 L 43.820312 57.289062 C 44.597656 58.070312 44.597656 59.339844 43.820312 60.121094 C 43.046875 60.898438 41.785156 60.898438 41.007812 60.121094 L 38.832031 57.929688 L 37.910156 58.863281 C 38.273438 57.46875 37.929688 55.925781 36.847656 54.835938 C 35.980469 53.964844 34.828125 53.574219 33.691406 53.632812 C 33.75 52.488281 33.359375 51.328125 32.496094 50.460938 C 31.632812 49.589844 30.480469 49.199219 29.34375 49.253906 C 29.398438 48.113281 29.011719 46.953125 28.144531 46.082031 C 27.28125 45.210938 26.128906 44.820312 24.992188 44.878906 C 25.050781 43.734375 24.660156 42.574219 23.796875 41.707031 C 22.171875 40.074219 19.53125 40.074219 17.910156 41.707031 L 15.148438 44.480469 L 11.964844 44.480469 L 11.964844 25.878906 L 30.003906 25.878906 L 32.722656 28.613281 L 24.246094 37.140625 C 24.042969 37.34375 23.925781 37.625 23.925781 37.914062 C 23.925781 38.203125 24.042969 38.484375 24.246094 38.6875 C 25.957031 40.410156 28.207031 41.269531 30.453125 41.269531 C 32.699219 41.269531 34.949219 40.410156 36.660156 38.6875 L 39.695312 35.632812 L 52.519531 48.535156 C 53.296875 49.316406 53.296875 50.585938 52.519531 51.367188 Z M 41.234375 34.085938 L 42.097656 33.21875 L 40.558594 31.667969 L 35.121094 37.140625 C 32.808594 39.464844 29.195312 39.703125 26.617188 37.851562 L 38.515625 25.878906 L 55.464844 25.878906 L 55.464844 44.480469 L 51.566406 44.480469 Z M 64.164062 44.480469 L 57.640625 44.480469 L 57.640625 25.878906 L 64.164062 25.878906 Z M 64.164062 44.480469 " fill-opacity="1" fill-rule="nonzero"/></g><g clip-path="url(#id2)"><path fill="#5c5c5c" d="M 23.925781 21.5 L 43.503906 21.5 C 44.105469 21.5 44.589844 21.011719 44.589844 20.40625 L 44.589844 10.558594 C 44.589844 10.246094 44.457031 9.949219 44.226562 9.738281 L 42.414062 8.121094 L 42.414062 1.804688 C 42.414062 1.199219 41.929688 0.710938 41.328125 0.710938 L 36.976562 0.710938 C 36.375 0.710938 35.890625 1.199219 35.890625 1.804688 L 35.890625 2.285156 L 34.4375 0.984375 C 34.023438 0.617188 33.40625 0.617188 32.992188 0.984375 L 23.207031 9.738281 C 22.972656 9.949219 22.839844 10.246094 22.839844 10.558594 L 22.839844 20.40625 C 22.839844 21.011719 23.328125 21.5 23.925781 21.5 Z M 32.628906 19.3125 L 32.628906 13.839844 L 34.800781 13.839844 L 34.800781 19.3125 Z M 25.015625 11.050781 L 33.714844 3.269531 L 36.253906 5.539062 C 36.574219 5.828125 37.03125 5.898438 37.421875 5.722656 C 37.8125 5.542969 38.066406 5.152344 38.066406 4.722656 L 38.066406 2.898438 L 40.238281 2.898438 L 40.238281 8.613281 C 40.238281 8.925781 40.371094 9.222656 40.605469 9.429688 L 42.414062 11.050781 L 42.414062 19.3125 L 36.976562 19.3125 L 36.976562 12.746094 C 36.976562 12.144531 36.492188 11.652344 35.890625 11.652344 L 31.539062 11.652344 C 30.9375 11.652344 30.453125 12.144531 30.453125 12.746094 L 30.453125 19.3125 L 25.015625 19.3125 Z M 25.015625 11.050781 " fill-opacity="1" fill-rule="nonzero"/></g><path fill="#5c5c5c" d="M 47.851562 10.558594 L 55.464844 10.558594 L 55.464844 12.746094 L 47.851562 12.746094 Z M 47.851562 10.558594 " fill-opacity="1" fill-rule="nonzero"/><path fill="#5c5c5c" d="M 48.039062 6.769531 L 52.652344 2.128906 L 54.191406 3.675781 L 49.578125 8.316406 Z M 48.039062 6.769531 " fill-opacity="1" fill-rule="nonzero"/><path fill="#5c5c5c" d="M 48.039062 16.804688 L 49.578125 15.257812 L 54.191406 19.898438 L 52.652344 21.445312 Z M 48.039062 16.804688 " fill-opacity="1" fill-rule="nonzero"/><path fill="#5c5c5c" d="M 11.964844 10.558594 L 19.578125 10.558594 L 19.578125 12.746094 L 11.964844 12.746094 Z M 11.964844 10.558594 " fill-opacity="1" fill-rule="nonzero"/><path fill="#5c5c5c" d="M 13.238281 3.671875 L 14.777344 2.125 L 19.390625 6.765625 L 17.851562 8.316406 Z M 13.238281 3.671875 " fill-opacity="1" fill-rule="nonzero"/><path fill="#5c5c5c" d="M 13.238281 19.898438 L 17.851562 15.257812 L 19.390625 16.804688 L 14.777344 21.445312 Z M 13.238281 19.898438 " fill-opacity="1" fill-rule="nonzero"/><path fill="#5c5c5c" d="M 59.816406 40.101562 L 61.988281 40.101562 L 61.988281 42.292969 L 59.816406 42.292969 Z M 59.816406 40.101562 " fill-opacity="1" fill-rule="nonzero"/></svg>