<svg width="122" height="26" viewBox="0 0 122 26" fill="none" xmlns="http://www.w3.org/2000/svg">
<path fill-rule="evenodd" clip-rule="evenodd" d="M5.65616 16.4744H6.2334C8.08006 16.4744 10.8794 16.2139 10.8794 18.8408C10.8794 21.2354 8.05071 21.1498 6.3777 21.1498H5.65616V16.4744ZM8.71477 25.4778C12.6967 25.4778 16.593 23.976 16.593 19.4181C16.593 16.3876 15.2661 14.2817 12.1488 13.8781C13.9099 12.9254 14.5434 11.338 14.5434 9.37639C14.5434 5.22079 11.947 3.72145 8.08006 3.72145H0V25.4778H8.71477ZM5.65616 8.04948H6.05974C7.58965 8.04948 9.34948 8.16444 9.34948 10.1554C9.34948 12.0021 7.79144 12.2613 6.29088 12.2613H5.65616V8.04948ZM26.9539 14.0591C29.2249 14.0591 30.5445 15.6856 30.5445 17.6203C30.5445 19.615 29.2249 21.1498 26.9539 21.1498C24.6804 21.1498 23.3609 19.615 23.3609 17.6203C23.3609 15.6856 24.6804 14.0591 26.9539 14.0591ZM35.9475 9.73104H30.3598V11.2659C29.1944 9.88514 27.2914 9.20884 25.479 9.20884C20.8135 9.20884 17.5897 13.0758 17.5897 17.5885C17.5897 22.1012 20.8746 26 25.5414 26C27.3832 26 29.3167 25.2931 30.2987 23.729L30.3598 25.4778H35.9475V9.73104ZM43.306 -5.25483e-07H37.7183V25.4778H43.306V-5.25483e-07ZM56.8979 25.4778H62.4856V-5.25483e-07H56.8979V11.2659C55.7325 9.88514 53.8283 9.20884 52.0171 9.20884C47.3503 9.20884 44.1278 13.0758 44.1278 17.5885C44.1278 22.1012 47.4115 26 52.0783 26C53.92 26 55.8547 25.2931 56.8368 23.729L56.8979 25.4778ZM53.4908 14.0591C55.763 14.0591 57.0826 15.6856 57.0826 17.6203C57.0826 19.615 55.763 21.1498 53.4908 21.1498C51.2185 21.1498 49.899 19.615 49.899 17.6203C49.899 15.6856 51.2185 14.0591 53.4908 14.0591ZM69.6277 9.73104H64.0412V25.479H69.6277V9.73104ZM66.8344 0.552774C65.115 0.552774 63.7024 1.96406 63.7024 3.68231C63.7024 5.40301 65.115 6.8143 66.8344 6.8143C68.5527 6.8143 69.9652 5.40301 69.9652 3.68231C69.9652 1.96406 68.5527 0.552774 66.8344 0.552774V0.552774ZM76.9593 9.73104H71.3716V25.4778H76.9593V17.3121C76.9593 15.3481 77.6025 13.6592 79.8748 13.6592C82.6374 13.6592 82.3916 16.2995 82.3916 17.805V25.4778H87.9793V15.748C87.9793 11.8798 86.2904 9.20884 82.0553 9.20884C79.8748 9.20884 78.3094 9.85334 77.0192 11.7563L76.9593 9.73104ZM95.3121 9.73104H89.7245V25.479H95.3121V9.73104ZM92.5177 0.552774C90.7982 0.552774 89.3857 1.96406 89.3857 3.68231C89.3857 5.40301 90.7982 6.8143 92.5177 6.8143C94.2372 6.8143 95.6484 5.40301 95.6484 3.68231C95.6484 1.96406 94.2372 0.552774 92.5177 0.552774V0.552774ZM102.643 9.73104H97.0548V25.4778H102.643V17.3121C102.643 15.3481 103.286 13.6592 105.559 13.6592C108.321 13.6592 108.075 16.2995 108.075 17.805V25.4778H113.663V15.748C113.663 11.8798 111.974 9.20884 107.739 9.20884C105.559 9.20884 103.991 9.85334 102.702 11.7563L102.643 9.73104ZM120.995 9.73104H115.408V25.479H120.995V9.73104ZM118.201 0.552774C116.481 0.552774 115.069 1.96406 115.069 3.68231C115.069 5.40301 116.481 6.8143 118.201 6.8143C119.92 6.8143 121.332 5.40301 121.332 3.68231C121.332 1.96406 119.92 0.552774 118.201 0.552774" fill="black"/>
</svg>
