<?xml version="1.0" standalone="yes"?>
<svg xmlns="http://www.w3.org/2000/svg" width="512" height="512">
<path style="fill:#010101; stroke:none;" d="M0 0L0 512L512 512L512 0L0 0z"/>
<path style="fill:#231f21; stroke:none;" d="M129 179L156 175C158.822 140.494 193.794 144 219 144L219 118C183.997 118 145.056 117.581 131.749 158C129.443 165.004 129 171.697 129 179M226 118L226 177L252 177L252 145L302 145C313.033 145 324.105 144.248 334 150.094C357.616 164.046 358.797 195.387 334 209.095C319.569 217.072 299.86 214 284 214L284 152L257 152L257 240C271.722 240 286.311 239 301 239C318.184 239 334.433 240.307 350 231.688C391.436 208.745 387.728 149.403 349 126.454C333.125 117.046 315.737 118 298 118L226 118M284 303L284 244L257 244L257 276L181 276C167.205 276 151.571 277.358 139 270.482C113.64 256.612 111.919 223.77 139 210.785C150.132 205.448 162.961 206 175 206L226 206L226 269L252 269L252 181L171 181C154.5 181 138.11 179.368 123 187.32C81.3781 209.226 79.9119 273.092 122 295.676C139.889 305.275 160.428 303 180 303L284 303M289 183L289 209C313.856 209 341.525 213.973 348 183L289 183M383 190C382.424 197.056 374.961 207.547 376.708 214C377.874 218.306 382.688 221.46 385.211 225C389.635 231.209 391.815 239.422 390.699 247C388.683 260.688 377.179 272.604 364 276.076C355.557 278.3 345.673 277 337 277L287 277L287 303C321.732 303 371.354 312.639 398.961 286.826C420.459 266.726 422.997 230.518 405.841 207C400.487 199.66 392.484 191.03 383 190M221 239L221 211L162 211C158.247 211 145.359 208.99 143.137 212.603C139.714 218.168 154.46 227.027 158 229.302C177.127 241.592 199.345 239 221 239M303 375L289 375C288.751 379.554 284.437 388.486 280.178 380.937C277.24 375.728 275.428 352.609 283.104 350.613C287.296 349.523 288.394 354.957 291.414 356.397C294.338 357.79 298.835 357 302 357C301.957 341.362 283.845 332.036 271.105 343.279C263.763 349.757 263.897 361.041 264.004 370C264.083 376.68 264.972 384.837 270.213 389.606C276.496 395.321 293.559 396.503 299.567 389.772C302.965 385.964 302.96 379.805 303 375M423 365L404 365L404 374L410 374C409.996 379.796 406.423 390.277 399.589 381.772C395.188 376.296 394.396 352.01 403.04 349.89C407.571 348.779 408.566 354.01 411.495 355.972C414.435 357.943 419.622 357 423 357C422.863 340.703 403.931 332.354 391.105 343.394C383.457 349.976 383.895 361.834 384.004 371C384.194 386.983 392.199 394.372 408 393.985C411.868 393.891 419.391 393.716 421.972 390.297C425.666 385.405 423 371.02 423 365M37 340L37 393C45.98 393 59.997 395.631 67.9815 390.91C77.8123 385.098 75.4895 370.212 66 366C73.8025 360.918 77.2376 346.624 66.9846 341.573C58.9023 337.591 45.8231 340 37 340M92 340L80 393L91.2724 391.972L94.9375 384.318L106 382L108 393L121 393L111.873 354L107.436 341.028L92 340M133 340L133 393L162 393L162 384L146 384L146 340L133 340M171 340L171 393L204 393L204 383L185 383L185 371L202 371L202 360L185 360L185 350L203 350L203 340L171 340M214 340L214 393L225 393L225 361L226 361L235 393L254 393L254 340L241 340L241 371L232.272 341.028L214 340M313 340L313 393L326 393L326 340L313 340M351 340L338 393L351 393L353 382L365 382L367 393L380 393L370.873 355L366.436 341.028L351 340M434 393C437.242 393 442.682 394.007 445.436 391.972C449.94 388.645 447.197 381.721 454.988 382.078C461.877 382.394 459.394 388.892 463.564 391.972C466.318 394.007 471.758 393 475 393L463 340L447.564 341.028L443.127 354L434 393z"/>
<path style="fill:#010101; stroke:none;" d="M50 349L50 361C62.4084 360.888 62.0716 349.561 50 349M454 356L451 373L458 373L454 356M100 357L97 373L104 373L100 357M359 358L355 373L363 373L359 358M50 371L50 383C63.2481 382.88 63.4089 371.038 50 371z"/>
</svg>
