<svg width="114" height="28" viewBox="0 0 114 28" fill="none" xmlns="http://www.w3.org/2000/svg">
<path d="M109.94 7.35596C109.94 7.35596 108.695 7.35596 108.454 8.8413C108.454 8.8413 108.354 10.146 109.94 10.146C109.94 10.146 111.305 10.146 111.305 8.74094C111.305 8.74094 111.305 7.35596 109.94 7.35596Z" fill="black"/>
<path d="M100.988 16.8902H97.9568L98.0973 13.9797L98.1977 13.5783L98.0973 13.2772L97.8564 13.1367L97.6758 12.9561L97.4349 13.1367L95.4879 14.9633C95.4879 14.9633 95.3474 15.0837 95.3474 15.2644V17.0107L93.8219 17.3117C93.8219 17.3117 93.6212 17.4121 93.5811 17.673V17.7533C93.5811 17.7533 93.6212 17.8938 93.8821 17.8938H95.3474V24.2969C95.3474 24.2969 95.3474 25.9428 95.8291 26.4446C95.8291 26.4446 96.6923 27.2074 98.3181 27.2074C98.3181 27.2074 99.3819 27.2074 100.406 26.5851C100.406 26.5851 100.727 26.3041 100.988 25.8023L100.707 25.5012L100.345 25.8023C100.345 25.8023 99.9038 26.1435 99.2013 26.1435C99.2013 26.1435 97.8966 26.1435 97.8966 22.9922V17.8938H100.988C100.988 17.8938 101.229 17.8938 101.289 17.673V17.1512C101.289 17.1512 101.289 16.8902 100.988 16.8902Z" fill="black"/>
<path d="M106.387 18.7971L106.568 18.9778L108.113 18.496C108.113 18.496 108.394 18.496 108.394 19.6201V25.2002C108.394 25.2002 108.394 26.1436 106.989 26.1436C106.989 26.1436 106.387 26.1436 106.387 26.5049V26.7056C106.387 26.7056 106.387 27.0067 106.728 27.0067L109.639 26.806L112.549 27.0067C112.549 27.0067 112.911 27.0067 112.911 26.7056V26.5049C112.911 26.5049 112.911 26.1436 112.248 26.1436C112.248 26.1436 111.245 26.2239 111.064 25.8024C111.064 25.8024 110.823 25.2805 110.823 23.193L111.124 17.7534V17.1512C111.124 17.1512 111.124 16.4688 110.482 16.4688C110.482 16.4688 110.12 16.4688 109.518 16.8903L108.334 17.4523C108.334 17.4523 106.267 18.3957 106.267 18.6165L106.387 18.7971Z" fill="black"/>
<path d="M86.1141 16.7497L84.4682 17.0709C84.4682 17.0709 83.8058 17.1311 83.8058 17.5727V21.9886C83.8058 21.9886 83.8058 23.8754 83.3442 24.4976C83.3442 24.4976 82.3004 26.0231 80.6746 26.0231C80.6746 26.0231 78.8881 26.0231 78.8881 23.6747L79.2896 17.372C79.2896 17.372 79.2896 16.6694 78.6673 16.6694L77.463 17.0107L76.64 17.372C76.64 17.372 74.6328 18.1146 74.6328 18.496L74.673 18.6164L74.9339 18.7971L76.1182 18.4559C76.1182 18.4559 76.64 18.4559 76.64 19.0781V20.9248L76.3791 24.6783C76.3791 24.6783 76.3791 26.1435 77.2422 26.5851C77.2422 26.5851 78.3462 27.107 80.253 27.107C80.253 27.107 81.8187 27.107 83.7657 24.9793L83.6854 25.8425C83.6854 25.8425 83.6854 27.0066 84.6489 27.0066C84.6489 27.0066 85.3715 27.0267 86.1141 26.7056L87.5995 25.9027L88.4225 25.2804L88.3823 25.1399L88.302 25.0195L88.2017 24.8991L87.198 25.4009L86.6762 25.5815C86.6762 25.5815 86.2948 25.5815 86.2948 24.598V20.2022L86.5156 17.7734L86.7163 17.1913V17.1512C86.7163 17.1512 86.7163 16.7497 86.1141 16.7497Z" fill="black"/>
<path d="M67.2261 2.09718L67.4068 1.49501L67.2261 1.01328L67.1057 0.912914L66.8448 0.79248L66.7043 0.832625L62.188 3.00043C62.188 3.00043 62.0676 3.08072 61.9271 3.14093L62.0073 3.26137C62.0073 3.26137 62.0475 3.40187 62.2281 3.44202L62.9307 3.22122L63.7938 2.83985L64.135 2.79971C64.135 2.79971 64.4963 2.79971 64.4963 4.00404V23.8354C64.4963 23.8354 64.4963 26.2642 62.5894 26.204C62.5894 26.204 61.626 26.204 61.626 26.5853V26.7058C61.626 26.7058 61.626 27.0069 61.9271 27.0069L65.6806 26.8864L69.414 27.0069C69.414 27.0069 69.7151 27.0069 69.7151 26.7058V26.5853C69.7151 26.5853 69.7151 26.2642 68.9323 26.204C68.9323 26.204 67.1057 26.204 67.1057 23.6749V4.14455L67.2261 2.09718Z" fill="black"/>
<path d="M51.991 16.3686L51.8103 16.188C51.8103 16.188 51.71 16.188 50.6863 16.8704C50.6863 16.8704 50.0239 17.4124 48.8597 17.7737C48.8597 17.7737 48.0367 18.0547 48.0367 18.3156L48.0769 18.3759L48.1371 18.4963L48.3177 18.6167L49.2812 18.3156L49.4017 18.2755L49.502 18.1952C49.502 18.1952 49.6425 18.1952 49.6827 18.4562V25.2807C49.6827 25.2807 49.6827 26.1639 48.4984 26.204C48.4984 26.204 47.4346 26.3446 47.4346 26.5051V26.7059C47.4346 26.7059 47.4346 27.0069 47.7758 27.0069L51.8103 26.8062L54.1989 27.0069C54.1989 27.0069 54.6004 27.0069 54.6004 26.7059V26.5051C54.6004 26.5051 54.6004 26.3446 53.2957 26.204C53.2957 26.204 51.991 26.1639 51.991 25.1402V22.0692C51.991 22.0692 51.991 20.5637 52.6534 19.6806C52.6534 19.6806 53.657 18.2755 54.0584 18.2755C54.0584 18.2755 54.3394 18.416 54.4799 18.7572C54.4799 18.7572 54.9416 19.4999 55.4233 19.4999C55.4233 19.4999 55.9251 19.4999 56.3266 19.0784C56.3266 19.0784 56.8083 18.7372 56.8083 18.3156C56.8083 18.3156 56.8083 16.6697 55.0219 16.6697C55.0219 16.6697 54.1186 16.6697 53.0548 18.1952L52.1114 19.3795V18.6167L52.2921 16.75C52.2921 16.75 52.2921 16.3285 51.991 16.3686Z" fill="black"/>
<path d="M37.2986 16.4688C37.2986 16.4688 34.9702 16.4688 33.3243 18.2753C33.3243 18.2753 31.6182 20.0818 31.6182 22.4101C31.6182 22.4101 31.6182 24.5779 33.0834 25.8425C33.0834 25.8425 34.6491 27.1472 37.0577 27.1472L39.0248 26.9063L40.731 26.2841L41.7346 25.5013L41.6342 25.2805L41.5539 25.2002L41.4937 25.0797L41.3733 25.0998C41.3733 25.0998 41.1726 25.14 41.0923 25.3005C41.0923 25.3005 39.9682 26.2038 38.3624 26.2038C38.3624 26.2038 36.4757 26.2038 35.452 24.8991C35.452 24.8991 34.3881 23.6145 34.3881 21.4868V20.9248L41.7346 21.0653C41.7346 21.0653 42.0959 21.0653 42.0959 20.6639C42.0959 20.6639 42.0357 18.9376 40.6105 17.6731C40.6105 17.6731 39.1854 16.4688 37.2986 16.4688ZM36.8771 17.1512C36.8771 17.1512 37.68 17.1512 38.4227 17.9742C38.4227 17.9742 39.1453 18.8573 39.1453 19.6803C39.1453 19.6803 39.1453 19.9613 37.9409 20.142L34.3881 20.4832L34.6892 18.496C34.6892 18.496 35.2914 17.1512 36.8771 17.1512Z" fill="black"/>
<path d="M4.74113 1.6958L1.52957 1.95674C1.52957 1.95674 1.38907 1.95674 1.38907 2.21768V2.53884C1.38907 2.53884 1.38907 2.69941 1.48943 2.79977L1.79051 2.83992L4.94186 2.69941L5.90532 2.79977C5.90532 2.79977 6.34691 2.96035 6.50749 3.22129C6.50749 3.22129 6.7885 3.84353 6.7885 6.17191V23.2935C6.7885 23.2935 6.7885 24.7187 6.50749 25.2004C6.50749 25.2004 6.20641 25.6621 5.14258 25.8026L2.39268 26.0234C2.39268 26.0234 0.867188 25.9832 0.867188 26.4449V26.7058C0.867188 26.7058 0.867188 27.0069 1.32885 27.0069L4.64077 26.8062L15.3794 27.0069C15.3794 27.0069 19.414 27.0069 21.4814 25.8427C21.4814 25.8427 24.8736 23.976 24.8736 19.9816C24.8736 19.9816 24.8736 14.3614 18.4706 12.4545C18.4706 12.4545 22.3846 10.6882 22.3846 7.73755C22.3846 7.73755 22.3846 5.04786 19.976 3.40194C19.976 3.40194 19.5143 3.04064 19.0326 2.79977C19.0326 2.79977 16.9651 1.6958 14.0145 1.6958H4.74113ZM12.3084 2.83992C12.3084 2.83992 14.8375 2.83992 16.5838 4.42562C16.5838 4.42562 18.2698 5.87083 18.2698 8.0587C18.2698 8.0587 18.2698 9.88528 16.7845 10.9692C16.7845 10.9692 15.2389 12.0531 12.7098 12.0531L11.0037 11.9728V9.54405C11.0037 9.54405 11.0037 5.20844 11.4051 3.52237C11.4051 3.52237 11.5858 2.83992 12.3084 2.83992ZM13.3722 13.137C13.3722 13.137 16.644 13.137 17.6275 13.98C17.6275 13.98 18.8118 14.9435 19.6548 16.5693C19.6548 16.5693 20.3975 18.0346 20.3975 19.4798C20.3975 19.4798 20.3975 22.4304 18.6311 24.1968C18.6311 24.1968 17.0655 25.8026 12.8303 25.8026C12.8303 25.8026 10.6825 25.8026 10.6223 24.5782L10.5219 19.3795L10.6223 15.365L10.8632 13.699C10.8632 13.699 11.0037 13.137 13.3722 13.137Z" fill="black"/>
</svg>
