<svg width="305" height="34" viewBox="0 0 305 34" fill="none" xmlns="http://www.w3.org/2000/svg">
<g filter="url(#filter0_d_168_787)">
<path d="M17.6963 18.2343C17.6963 12.8415 12.7876 12.0366 9.8612 12.0366H9.00244V23.9167H11.001C15.2565 23.9167 17.6961 21.8458 17.6961 18.2343H17.6963ZM9.00244 10.493H10.9061C14.0068 10.493 15.578 9.0529 15.578 6.21245C15.578 3.59518 14.0237 2.1536 11.1997 2.1536H9.00206L9.00244 10.493ZM14.3932 11.1507C18.2497 11.7167 22.1763 13.9071 22.1763 18.4928C22.1763 20.9592 20.9184 22.8232 18.4374 24.0344C15.9609 25.2431 13.0359 25.4238 11.5125 25.4238H4V24.9501C4.99407 24.4688 4.96466 22.8623 4.96466 21.7269V4.30591C4.96466 3.17083 4.99407 1.56414 4 1.08285V0.609161H10.0711C13.2886 0.609161 15.6526 0.998781 17.0968 1.76493C18.7646 2.64134 19.8015 4.28901 19.8015 6.06461C19.8015 8.39512 18.0305 10.0616 14.3932 11.1507ZM46.5776 13.0167C46.5776 6.69696 43.412 1.57363 38.1539 1.57363C32.8957 1.57363 29.7307 6.69677 29.7307 13.0167C29.7307 19.3364 32.8957 24.4595 38.1539 24.4595C43.412 24.4595 46.5776 19.3364 46.5776 13.0167ZM38.1539 0.0322266C45.4468 0.0322266 51.3595 5.8456 51.3595 13.0165C51.3595 20.1875 45.4468 26.0005 38.1539 26.0005C30.8607 26.0005 24.9488 20.1875 24.9488 13.0165C24.9488 5.8456 30.8605 0.0322266 38.1539 0.0322266ZM52.2044 3.29855V0.569876H67.7664V3.29855H67.3062C66.5006 2.06896 65.1057 2.07901 63.994 2.07977H61.9849V21.7278H61.9834C61.9834 22.8648 61.9544 24.4743 62.9386 24.9571V25.4312H57.0326V24.9571C58.0168 24.4743 57.9878 22.8648 57.9878 21.7276H57.9859V2.07958H55.9768C54.8651 2.07902 53.4702 2.06896 52.6646 3.29855H52.2044ZM71.9416 3.29855V0.569876H87.5036V3.29855H87.0434C86.2376 2.06896 84.8429 2.07901 83.7308 2.07977H81.722V21.7278H81.7208C81.7208 22.8648 81.6914 24.4743 82.676 24.9571V25.4312H76.7696V24.9571C77.7538 24.4743 77.7248 22.8648 77.7248 21.7276H77.7233V2.07958H75.7144C74.6023 2.07902 73.2076 2.06896 72.4018 3.29855H71.9416ZM104.793 23.9219C105.907 23.9222 107.345 23.9171 108.109 22.7025H108.569V25.4312H91.8686V24.9641C93.1168 24.1447 93.1081 22.663 93.1079 21.4987V4.50271C93.1081 3.33859 93.1168 1.85678 91.8686 1.03731V0.570066H107.544V3.29874H107.083C106.288 2.07465 104.881 2.0792 103.768 2.07958H97.0737V11.8989H102.686C103.816 11.8989 105.432 11.9129 105.872 10.9306H106.339V14.3759H105.872C105.432 13.393 103.816 13.4074 102.686 13.4074H97.0737V23.9217H104.793V23.9219ZM130.671 14.2926V13.8331H136.919C136.712 16.5555 136.41 18.0647 135.234 20.0636C132.963 23.8924 129.125 26.0005 124.426 26.0005C120.844 26.0005 117.491 24.7334 114.986 22.4338C112.406 20.0648 110.985 16.799 110.985 13.2381C110.985 9.24591 113.09 5.07319 116.347 2.60699C118.564 0.922679 121.32 0.0322266 124.316 0.0322266C125.903 0.0322266 127.469 0.24554 128.852 0.628329C129.128 0.70538 129.955 0.931219 130.887 1.0375C131.714 1.1248 132.919 1.11132 133.434 0.616942H133.893V6.33504L133.434 6.4121C133.285 6.14617 133.123 5.88746 132.95 5.63684C131.067 2.94537 128.406 1.58084 124.759 1.58084C121.657 1.58084 119.271 2.74135 117.669 5.03106C116.284 7.01085 115.697 9.77179 115.697 13.0161C115.697 16.0689 116.285 18.8492 117.616 20.8461C119.171 23.1804 121.526 24.4147 124.427 24.4147C128.233 24.4147 132.307 21.3706 132.307 16.8377C132.307 14.5307 130.671 14.2928 130.671 14.2928L130.671 14.2926ZM151.392 15.8398L147.536 5.74008L143.68 15.8398H151.392ZM158.161 22.3209C158.409 22.9278 159.09 24.6024 159.983 24.9342V25.4232H153.323V24.94C154.185 24.5354 154.407 23.7953 154.044 22.8255L151.989 17.3469H143.119L141.041 22.8247C140.679 23.7943 140.887 24.5172 141.761 24.9385V25.4232H137.505V24.9268C138.476 24.6512 139.294 23.1424 139.603 22.2797L147.903 0.609161H149.781L149.808 0.678241L158.161 22.3209ZM189.536 1.0578V0.571964L193.781 0.570066V1.06786C192.847 1.32596 192.016 2.79525 191.702 3.71815L184.233 25.4312H182.183L174.866 3.67299C174.532 2.67986 173.9 1.38669 173.095 1.0597V0.570066H179.695V1.05477C178.474 1.64119 178.81 2.96377 179 3.48719L184.488 19.9313L190.313 2.99718C190.505 2.39272 190.532 1.53776 189.537 1.0578H189.536ZM210.312 23.9219C211.425 23.9222 212.863 23.9171 213.627 22.7025H214.088V25.4312H197.387V24.9641C198.635 24.1447 198.626 22.663 198.626 21.4987V4.50271C198.626 3.33859 198.635 1.85678 197.387 1.03731V0.570066H213.062V3.29874H212.601C211.807 2.07465 210.399 2.0792 209.286 2.07958H202.592V11.8989H208.204C209.334 11.8989 210.951 11.9129 211.39 10.9306H211.857V14.3759H211.39C210.951 13.393 209.334 13.4074 208.204 13.4074H202.592V23.9217H210.312L210.312 23.9219ZM233.702 1.03598V0.569876H236.861V1.03617C236.073 1.54364 236.08 3.09036 236.082 3.58151V25.4314H235.044L220.881 5.03391V22.4201C220.879 22.9113 220.872 24.4576 221.66 24.9651V25.4314H218.502V24.9651C219.289 24.4576 219.282 22.9113 219.281 22.4201L219.28 4.39947C219.281 3.26951 219.286 1.8249 218.073 1.03769V0.569876H222.951L222.983 0.616183L234.482 17.1575V3.58113C234.484 3.08998 234.49 1.54326 233.702 1.03579V1.03598ZM254.53 23.9215C255.644 23.9221 257.082 23.9169 257.846 22.7023H258.307V25.431H241.606V24.9639C242.854 24.1445 242.845 22.6629 242.845 21.4985V4.50271C242.845 3.33859 242.854 1.85678 241.606 1.03731V0.570066H257.281V3.29874H256.82C256.025 2.07465 254.618 2.0792 253.505 2.07958H246.811V11.8989H252.424C253.553 11.8989 255.169 11.9129 255.609 10.9306H256.076V14.3759H255.609C255.169 13.393 253.553 13.4074 252.424 13.4074H246.811V23.9217H254.53V23.9215ZM261.723 3.29836V0.569876H277.285V3.29855H276.824C276.019 2.06896 274.624 2.07901 273.512 2.07977H271.503V21.7278H271.501C271.501 22.8648 271.473 24.4743 272.457 24.9571V25.4312H266.551V24.9571C267.535 24.4743 267.506 22.8648 267.506 21.7276H267.504V2.07958H265.495C264.383 2.07902 262.988 2.06896 262.183 3.29855H261.723V3.29836ZM291.5 15.8294L287.658 5.71047L283.816 15.8294H291.5ZM298.243 22.3226C298.49 22.9306 299.169 24.6089 300.058 24.9412V25.4312H293.424V24.9473C294.282 24.5417 294.503 23.7998 294.142 22.8285L292.095 17.3391H283.257L281.188 22.8276C280.827 23.7987 281.034 24.5231 281.906 24.9455V25.4314H277.664V24.9334C278.633 24.6576 279.447 23.146 279.756 22.2812L288.024 0.569876H289.896L289.922 0.638956L298.243 22.3226Z" fill="#0A0A0A"/>
</g>
<defs>
<filter id="filter0_d_168_787" x="0" y="0" width="304.059" height="34.001" filterUnits="userSpaceOnUse" color-interpolation-filters="sRGB">
<feFlood flood-opacity="0" result="BackgroundImageFix"/>
<feColorMatrix in="SourceAlpha" type="matrix" values="0 0 0 0 0 0 0 0 0 0 0 0 0 0 0 0 0 0 127 0" result="hardAlpha"/>
<feOffset dy="4"/>
<feGaussianBlur stdDeviation="2"/>
<feComposite in2="hardAlpha" operator="out"/>
<feColorMatrix type="matrix" values="0 0 0 0 0 0 0 0 0 0 0 0 0 0 0 0 0 0 0.25 0"/>
<feBlend mode="normal" in2="BackgroundImageFix" result="effect1_dropShadow_168_787"/>
<feBlend mode="normal" in="SourceGraphic" in2="effect1_dropShadow_168_787" result="shape"/>
</filter>
</defs>
</svg>
