<svg width="139" height="26" viewBox="0 0 139 26" fill="none" xmlns="http://www.w3.org/2000/svg">
<path fill-rule="evenodd" clip-rule="evenodd" d="M137.623 0.614043H138.891V25.3117H137.623V0.614043ZM119.67 2.24122V10.9026H130.131V11.9932H119.67V24.2227H130.131V25.3117H118.4V0.614043H130.131V1.70541H119.67V2.24122ZM95.8373 24.3926H99.1232L99.9167 24.3863L100.663 24.3728L101.363 24.3491L102.014 24.3167L102.618 24.2733L103.175 24.2227L103.682 24.1618L104.141 24.0915L104.556 24.0125L104.921 23.924L105.277 23.8204L105.622 23.7035L105.955 23.5723L106.278 23.4261L106.59 23.268L106.889 23.0965L107.179 22.9108L107.457 22.7117L107.725 22.4975L107.981 22.2715L108.314 21.9427L108.629 21.5998L108.93 21.241L109.21 20.8648L109.477 20.4744L109.727 20.0682L109.96 19.647L110.176 19.2084L110.375 18.7548L110.557 18.2869L110.721 17.8112L110.866 17.3252L110.996 16.8233L111.109 16.3081L111.204 15.781L111.282 15.2412L111.342 14.6864L111.385 14.1206L111.411 13.5405L111.421 12.9471L111.411 12.3385L111.385 11.7474L111.34 11.1689L111.28 10.6055L111.199 10.0586L111.104 9.52437L110.992 9.00517L110.861 8.50176L110.713 8.0118L110.547 7.53605L110.364 7.06583L110.16 6.61459L109.941 6.17756L109.705 5.75951L109.453 5.35884L109.183 4.97556L108.896 4.60888L108.592 4.26036L108.274 3.92924L107.936 3.61392L107.665 3.38237L107.383 3.16504L107.09 2.96036L106.784 2.7707L106.468 2.59368L106.139 2.43167L105.799 2.28389L105.448 2.14955L105.082 2.03021L104.707 1.92352L104.316 1.83501L103.872 1.75361L103.373 1.6817L102.821 1.61848L102.216 1.56711L101.553 1.52206L100.839 1.48729L100.07 1.46358L99.2473 1.44857L98.3693 1.44304H95.3023V24.3926H95.8373V24.3926ZM97.5063 25.3117H98.2998L99.2086 25.3061L100.067 25.2911L100.871 25.2651L101.628 25.2279L102.333 25.1797L102.986 25.1228L103.587 25.0548L104.138 24.975L104.635 24.8873L105.082 24.7854L105.483 24.6747L105.879 24.5498L106.261 24.4116L106.638 24.2582L107.004 24.0907L107.363 23.9097L107.712 23.7169L108.052 23.5067L108.382 23.2838L108.705 23.0475L109.095 22.7306L109.467 22.3916L109.82 22.0328L110.157 21.6535L110.472 21.2536L110.77 20.8332L111.048 20.393L111.308 19.9299L111.55 19.4494L111.773 18.946L111.979 18.4157L112.164 17.8705L112.327 17.3125L112.468 16.7372L112.586 16.1477L112.684 15.5431L112.759 14.9259L112.813 14.2921L112.846 13.6433L112.858 12.9802L112.846 12.3188L112.813 11.67L112.759 11.0377L112.684 10.4182L112.586 9.81599L112.468 9.22802L112.327 8.65507L112.165 8.09635L111.98 7.55265L111.775 7.02395L111.55 6.52134L111.307 6.0369L111.043 5.57064L110.761 5.12493L110.458 4.6958L110.139 4.28644L109.797 3.89605L109.438 3.52383L109.059 3.17216L108.66 2.83866L108.35 2.60316L108.026 2.38188L107.689 2.17404L107.342 1.98279L106.981 1.80419L106.609 1.63982L106.225 1.49045L105.83 1.35453L105.422 1.23519L105.002 1.12851L104.528 1.03052L103.994 0.942001L103.396 0.864555L102.739 0.798172L102.02 0.741274L101.24 0.695439L100.4 0.660668L99.4963 0.634585L98.5313 0.619572L97.5063 0.614043H94.0362V25.3117H97.5063V25.3117ZM74.3363 15.6585H84.0709L83.7872 14.9322L79.3988 3.6969L78.9096 2.4459L78.4031 3.68979L73.8376 14.9219L73.5381 15.6593H74.3363V15.6585ZM73.5421 16.5799H84.4162L84.5474 16.9245L87.6975 25.3117H89.082L79.0463 0.439392L68.5452 25.3117H69.7725L73.0434 16.919L73.1778 16.5799H73.5421ZM51.6341 21.2544L51.7685 21.5745L51.9162 21.8803L52.0767 22.1735L52.2497 22.4533L52.4355 22.7188L52.6346 22.9709L52.8464 23.2103L53.0693 23.4371L53.3071 23.6489L53.5553 23.8481L53.8651 24.0654L54.1851 24.2606L54.5186 24.4337L54.8648 24.583L55.222 24.7095L55.5926 24.8146L55.9743 24.8944L56.3686 24.9537L56.7756 24.9885L57.1961 24.9995L57.7232 24.9829L58.2266 24.9331L58.7071 24.8517L59.1623 24.7371L59.593 24.5917L60.0015 24.4123L60.3848 24.2021L60.746 23.9627L61.0834 23.6892L61.3964 23.385L61.6817 23.057L61.9377 22.7077L62.1645 22.3316L62.3629 21.9317L62.5304 21.5081L62.6687 21.0584L62.7754 20.5843L62.8528 20.0872L62.901 19.5656L62.9153 19.0187L62.9042 18.6109L62.8726 18.2206L62.8212 17.8412L62.7477 17.4785L62.6537 17.1284L62.5391 16.7933L62.4048 16.4709L62.2499 16.165L62.0768 15.8703L61.8816 15.5921L61.6658 15.3297L61.4059 15.0571L61.1016 14.7773L60.7539 14.4905L60.3611 14.1917L59.9241 13.8875L59.4428 13.5729L58.9157 13.2521L58.3443 12.9249L57.7271 12.5867L57.0048 12.1947L56.3299 11.8114L55.7072 11.4392L55.1342 11.0765L54.6087 10.7224L54.1353 10.3795L53.7117 10.0444L53.3379 9.71957L53.0155 9.40425L52.7429 9.09684L52.5216 8.80523L52.324 8.50334L52.151 8.18882L52 7.86243L51.8728 7.52498L51.77 7.17727L51.6886 6.81611L51.6317 6.44389L51.597 6.06061L51.5859 5.66626L51.6025 5.17392L51.6515 4.70213L51.7361 4.24693L51.8522 3.81228L52.0032 3.39422L52.1873 2.99593L52.4062 2.61659L52.6583 2.25544L52.946 1.91246L53.2668 1.58845L53.6209 1.28577L53.9947 1.01471L54.389 0.776834L54.8031 0.570578L55.2378 0.395137L55.693 0.252887L56.1703 0.14225L56.6658 0.0624275L57.1818 0.0165927L57.7176 0L58.0677 0.0078984L58.4099 0.0292361L58.7434 0.0663827L59.0674 0.117746L59.3827 0.185715L59.6886 0.266321L59.9849 0.364315L60.2726 0.474953L60.5492 0.602189L60.8179 0.744433L61.0352 0.874829L61.2454 1.01471L61.4501 1.16802L61.6453 1.33003L61.835 1.50152L62.0175 1.68565L62.1945 1.88085L62.3621 2.08553L62.5241 2.29969L62.679 2.5265L61.7725 3.06152L61.6508 2.88608L61.5204 2.72012L61.3861 2.56206L61.2423 2.40875L61.0929 2.26492L60.9364 2.129L60.7744 1.99781L60.6045 1.87611L60.4299 1.76152L60.2473 1.65483L60.0158 1.53313L59.7739 1.42407L59.525 1.32845L59.2674 1.24389L59.0018 1.17197L58.7268 1.11507L58.4455 1.06924L58.1523 1.03605L57.8536 1.01787L57.5462 1.01076L57.1241 1.0234L56.7227 1.06212L56.3378 1.12693L55.9696 1.21702L55.621 1.33319L55.2875 1.47307L54.9746 1.63824L54.6783 1.8279L54.3985 2.04365L54.1417 2.28705L53.8983 2.54863L53.6809 2.82523L53.4897 3.12158L53.3221 3.43453L53.1799 3.76565L53.0621 4.11417L52.972 4.48085L52.9057 4.86334L52.8669 5.26718L52.8535 5.6876L52.9001 6.27003L53.0361 6.84614L53.2668 7.41988L53.5908 7.98492L54.0128 8.54365L54.5328 9.09605L55.1516 9.63976L55.8724 10.1756L56.6942 10.7011L57.6228 11.2187L58.8517 11.8636L59.4602 12.2081L60.0292 12.5488L60.5563 12.8862L61.0407 13.2181L61.4865 13.5437L61.8879 13.8685L62.2499 14.1886L62.5683 14.5031L62.8465 14.8161L63.0804 15.1266L63.2756 15.434L63.4503 15.7604L63.6036 16.105L63.7356 16.4661L63.8462 16.8455L63.9387 17.2414L64.009 17.6555L64.058 18.0886L64.0896 18.5382L64.0991 19.0045L64.0809 19.6367L64.0256 20.2413L63.9339 20.8198L63.8027 21.3722L63.6352 21.8969L63.4305 22.3964L63.1871 22.8705L62.905 23.3162L62.5865 23.7343L62.2293 24.1263L61.8389 24.485L61.4201 24.8059L60.9744 25.0857L60.501 25.3291L60.0015 25.5337L59.4744 25.7013L58.9196 25.8301L58.3396 25.9226L57.7311 25.9779L57.0973 25.9953L56.6334 25.9842L56.1814 25.9494L55.7427 25.8941L55.3192 25.8127L54.9082 25.7116L54.5123 25.5843L54.129 25.4357L53.7592 25.2643L53.4035 25.0667L53.0606 24.8478L52.7618 24.6273L52.4765 24.3871L52.2015 24.1294L51.9399 23.8505L51.6894 23.5541L51.4516 23.2396L51.2255 22.9061L51.0114 22.552L50.8083 22.1814L50.6162 21.791L51.6341 21.2544V21.2544ZM31.3494 15.6585H41.0863L40.801 14.9322L36.4134 3.6969L35.9235 2.4459L35.4185 3.68979L30.8531 14.9219L30.5544 15.6593H31.3494V15.6585V15.6585ZM30.5591 16.5799H41.4301L41.5629 16.9245L44.7129 25.3117H46.0967L36.0626 0.439392L25.5582 25.3117H26.7871L30.0596 16.919L30.1924 16.5799H30.5591ZM17.6579 1.83422L17.2359 1.67933L16.8083 1.53945L16.3768 1.41617L15.9406 1.30948L15.502 1.21939L15.0563 1.14589L14.6066 1.089L14.153 1.04869L13.6962 1.02261L13.2339 1.0155L12.2034 1.04869L11.214 1.14984L10.2633 1.31501L9.35368 1.54894L8.48201 1.84924L7.64906 2.21593L6.85721 2.649L6.10565 3.14608L5.39046 3.71191L4.71635 4.34176L4.0952 5.02535L3.53885 5.74766L3.0473 6.51027L2.62134 7.31398L2.26018 8.15799L1.96541 9.04231L1.73544 9.96535L1.57106 10.9311L1.47149 11.9355L1.4383 12.9818L1.44541 13.5089L1.46912 14.0242L1.50942 14.5292L1.56632 15.0255L1.63824 15.5075L1.72675 15.9817L1.83027 16.4456L1.94961 16.8968L2.08632 17.3378L2.23885 17.7685L2.40796 18.1945L2.59368 18.6086L2.79836 19.014L3.01726 19.4107L3.25514 19.7971L3.50723 20.1733L3.7783 20.5424L4.06596 20.8996L4.37179 21.2457L4.69265 21.5847L5.02219 21.9032L5.3628 22.2059L5.71289 22.4928L6.07009 22.7638L6.43836 23.0199L6.81769 23.2617L7.20493 23.4838L7.60085 23.694L8.00784 23.8876L8.42195 24.0646L8.84395 24.2274L9.27228 24.3712L9.70456 24.4985L10.1455 24.6091L10.5928 24.7024L11.0441 24.7782L11.5032 24.8391L11.9687 24.8818L12.4413 24.9055L12.9186 24.915L13.3793 24.9071L13.8401 24.8833L14.2968 24.843L14.752 24.7877L15.2033 24.7158L15.6545 24.6273L16.1018 24.5246L16.5475 24.4068L16.9917 24.2709L17.4342 24.1199L17.7748 23.9911L18.1139 23.8528L18.4489 23.705L18.7824 23.5486L19.112 23.3826L19.4384 23.2072L19.7624 23.023L20.0848 22.8294L20.4033 22.6247L20.7178 22.413V23.8275L20.3701 24.0267L20.02 24.2148L19.6644 24.3957L19.3072 24.5672L18.9444 24.7292L18.5778 24.8818L18.2095 25.0256L17.8357 25.1599L17.4595 25.2856L17.0778 25.401L16.6685 25.5156L16.2615 25.6191L15.8545 25.7076L15.4475 25.7866L15.0421 25.8514L14.6367 25.9044L14.2328 25.9471L13.8298 25.9763L13.4275 25.9945L13.0277 26L12.4895 25.9905L11.9553 25.9613L11.4266 25.9131L10.9034 25.8467L10.3858 25.7606L9.87131 25.6554L9.36079 25.5298L8.85739 25.386L8.35794 25.2224L7.86243 25.0382L7.38037 24.8375L6.91252 24.6226L6.45733 24.3918L6.01714 24.1452L5.58961 23.8837L5.1755 23.6047L4.77562 23.3123L4.39076 23.0025L4.01854 22.6785L3.65897 22.3395L3.3073 21.9759L2.97222 21.6013L2.65532 21.2149L2.35502 20.8166L2.07289 20.4072L1.80973 19.986L1.56316 19.5545L1.33319 19.1104L1.12061 18.6528L0.926991 18.1866L0.74997 17.7061L0.591125 17.2185L0.451246 16.719L0.331124 16.2117L0.22997 15.694L0.147781 15.1669L0.0829784 14.6327L0.0371428 14.0874L0.00948335 13.535L0 12.9708L0.00948335 12.4184L0.0371428 11.8747L0.0853494 11.3365L0.151733 10.8062L0.236292 10.283L0.341398 9.76699L0.464681 9.25805L0.60693 8.75702L0.768936 8.2631L0.95149 7.77629L1.15064 7.3045L1.36638 6.84535L1.59793 6.39964L1.84687 5.96656L2.11161 5.54614L2.39532 5.14073L2.69325 4.74638L3.00857 4.36705L3.34207 3.99799L3.69058 3.64474L4.0462 3.31124L4.41684 2.99197L4.80012 2.68851L5.2 2.39927L5.61252 2.12425L6.04006 1.86426L6.48261 1.62085L6.93781 1.39088L7.40723 1.17514L7.89167 0.975989L8.38718 0.791853L8.88584 0.625897L9.39082 0.480482L9.89739 0.354831L10.4095 0.245773L10.9232 0.159632L11.4424 0.0916696L11.9655 0.0418796L12.4926 0.0126435L13.0229 0.00315936L13.4947 0.0110638L13.9586 0.0292361L14.4178 0.0624275L14.869 0.108268L15.3131 0.169116L15.7502 0.241034L16.1809 0.325589L16.6029 0.425163L17.0193 0.535801L17.4287 0.661458L17.8033 0.788694L18.1716 0.926988L18.5335 1.07793L18.8891 1.23994L19.2392 1.413L19.5822 1.59714L19.9196 1.79471L20.2492 2.00255L20.574 2.22225L20.8909 2.45222L20.8727 3.6479L20.5558 3.41714L20.2389 3.19824L19.9204 2.98802L19.5996 2.79046L19.2795 2.60474L18.9587 2.4293L18.6347 2.26334L18.3099 2.11082L17.9835 1.96699L17.6579 1.83422V1.83422Z" fill="black"/>
</svg>
