<svg width="182" height="26" viewBox="0 0 182 26" fill="none" xmlns="http://www.w3.org/2000/svg">
<g clip-path="url(#clip0_431_7468)">
<path d="M108.401 21.6843C106.499 23.2866 104.128 24.1412 101.564 24.1412C95.5395 24.1412 90.8394 19.2702 90.8394 13.0532C90.8394 6.94314 95.4326 2.02942 101.286 1.87987C103.487 1.96533 104.982 2.41397 106.585 3.5249V5.6613H107.696V0.491211H106.606V1.47396C104.961 0.811671 103.273 0.491211 101.585 0.491211C94.3431 0.491211 88.4466 6.10995 88.4466 13.0319C88.4466 19.9325 94.3431 25.5512 101.585 25.5512C104.406 25.5512 107.097 24.483 109.191 22.5389L109.383 22.368L108.614 21.5348L108.401 21.6843ZM76.4614 1.96533H77.5723L73.5559 12.0919L68.4926 1.96533H69.5608V0.833035H64.7966V1.96533H65.8862L71.7827 14.0146V24.0984H70.2658V25.2307H75.9914V24.0984H74.2823V14.0574L79.1105 1.96533H80.1787V0.833035H76.4614V1.96533ZM21.6841 1.96533H22.7523V0.833035H18.1376V1.96533H19.2699V24.0984H18.1376V25.2307H22.7523V24.0984H21.6841V1.96533ZM54.136 13.6087L48.6668 0.833035H45.804V1.96533H47.0218V24.0984H45.804V25.2307H49.6068V24.0984H48.5173V6.00313L53.7514 18.437L58.9429 5.36221V24.0984H57.7465V25.2307H62.4466V24.0984H61.3784V1.96533H62.4466V0.833035H59.2206L54.136 13.6087ZM34.4384 13.6087L28.9692 0.833035H26.1064V1.96533H27.3242V24.0984H26.1064V25.2307H29.9092V24.0984H28.8196V6.00313L34.0325 18.437L39.2453 5.36221V24.0984L38.2839 24.1198L38.1557 24.1412L38.0489 24.3121V25.2307H42.7276V24.0984H41.6808V1.96533H42.7276V0.833035H39.523L34.4384 13.6087ZM124.338 1.96533H125.428V0.854399L120.685 0.833035V1.96533H121.881V7.30633H114.746V1.96533H115.814V0.833035H111.114V1.96533H112.289V24.0984H111.114V25.2307H115.814V24.0984H114.746V8.65226H121.881V24.0984H120.685V25.2307H125.449V24.0984H124.338V1.96533ZM10.062 1.94396H11.2584V18.9284C11.2584 23.0302 8.50247 24.1839 7.04972 24.2053C5.70379 24.1839 3.07602 23.1371 2.84101 19.4411L2.81965 19.1634L0.448242 19.5265L0.49097 19.7829C0.640518 20.8511 0.960978 21.7911 1.49508 22.6884C2.17873 23.8421 4.22967 25.5726 7.02836 25.5726C10.4893 25.5726 12.2412 23.1798 12.5616 22.7098C13.6298 21.0434 13.7153 19.0779 13.7153 16.856V1.98669H14.7835V0.833035H10.062V1.94396ZM139.934 0.491211C132.691 0.491211 126.795 6.10995 126.795 13.0319C126.795 19.9325 132.691 25.5726 139.934 25.5726C147.176 25.5726 153.073 19.9538 153.073 13.0319C153.073 6.10995 147.176 0.491211 139.934 0.491211ZM139.87 24.1412C133.888 24.1412 129.209 19.2702 129.209 13.0319C129.209 10.0409 130.32 7.24224 132.328 5.14857C134.337 3.05489 137.05 1.90124 139.934 1.90124C145.852 1.90124 150.68 6.94314 150.68 13.1387C150.659 19.2915 145.916 24.1412 139.87 24.1412ZM167.963 0.491211C160.721 0.491211 154.825 6.10995 154.825 13.0319C154.825 19.9325 160.721 25.5726 167.963 25.5726C175.206 25.5726 181.102 19.9538 181.102 13.0319C181.102 6.10995 175.206 0.491211 167.963 0.491211V0.491211ZM168.028 24.1412C162.067 24.0984 157.239 19.1206 157.239 13.0319C157.239 10.0409 158.35 7.24224 160.358 5.14857C162.366 3.05489 165.079 1.90124 167.963 1.90124C173.881 1.90124 178.71 6.94314 178.71 13.1387C178.71 19.2702 174.009 24.0984 168.028 24.1412Z" fill="black"/>
</g>
<defs>
<clipPath id="clip0_431_7468">
<rect width="181.551" height="26" fill="white"/>
</clipPath>
</defs>
</svg>
