<svg width="265" height="26" viewBox="0 0 265 26" fill="none" xmlns="http://www.w3.org/2000/svg">
<path fill-rule="evenodd" clip-rule="evenodd" d="M0.0585938 1.08248H3.48148H3.75595H8.6841C14.7114 1.08248 19.7774 6.41925 19.7774 13.1321C19.7774 19.7059 14.7102 25.0426 8.6841 25.1817H3.75595H3.34486H0.0585938V1.08248ZM3.75595 3.95641V22.3066H7.72655C13.2049 22.1675 15.9422 17.7883 15.9422 13.265C15.9422 8.6076 13.2037 4.77487 8.6841 4.0893L3.75595 3.95641ZM34.2936 0.529805C41.6896 0.529805 47.5753 6.14477 47.5753 13.1309C47.5753 20.1108 41.6883 25.727 34.2936 25.727C27.0355 25.727 21.0119 20.112 21.0119 13.1309C21.0107 6.14601 27.0355 0.529805 34.2936 0.529805ZM34.2936 3.54408C39.6353 3.54408 44.0158 7.78914 44.0158 13.1321C44.0158 18.3347 39.6353 22.5798 34.2936 22.5798C29.091 22.5798 24.7068 18.3347 24.7068 13.1321C24.7068 7.78914 29.0897 3.54408 34.2936 3.54408ZM48.6719 1.08248H52.2314V22.3078H59.0784V25.1817H52.2314H50.5896H48.6719V1.08248ZM70.5816 0.396914C73.3202 0.396914 75.9233 1.21538 78.1129 2.58651V6.97068C76.3307 4.77487 73.5934 3.40497 70.5816 3.40497C65.2399 3.40497 60.9948 7.78914 60.9948 13.1321C60.9948 18.3347 65.2399 22.7139 70.5816 22.7139C73.5946 22.7139 76.3319 21.349 78.1129 19.1544V23.6728C75.9221 25.0439 73.3189 25.8686 70.5816 25.8686C63.3235 25.8686 57.2999 20.1133 57.2999 13.1334C57.2999 6.14601 63.3248 0.396914 70.5816 0.396914ZM82.9057 22.3066H91.5337V25.1805H82.9057H79.2084V22.3066V13.8164V10.9363V3.81731V1.08248H82.9057H91.5337V3.81731H82.9057V10.9363H91.5337V13.8164H82.9057V22.3066ZM105.091 23.5386C104.68 23.951 104.268 24.2242 103.72 24.4962C103.309 24.7694 102.762 24.9085 102.213 25.0414C102.077 25.0414 101.94 25.0414 101.804 25.1805C101.666 25.1805 101.529 25.1805 101.393 25.1805C100.981 25.1805 100.707 25.0414 100.296 25.0414C99.8848 24.9085 99.6103 24.7682 99.1992 24.4962C98.9259 24.2229 98.6527 23.8106 98.3795 23.3983C98.2416 22.9921 98.105 22.5798 97.9684 22.1675V22.0284C97.9684 21.8955 97.9684 21.8955 97.9684 21.8955C97.9684 21.7564 97.9684 21.7564 97.9684 21.7564C97.9684 21.6235 97.9684 21.6235 97.9684 21.4831H98.105C98.105 21.3503 98.105 21.3503 98.105 21.3503C98.105 21.3503 98.105 21.3503 98.105 21.2112C98.2404 20.5256 98.5161 19.9804 99.0626 19.4277C99.609 19.0216 100.157 18.6092 100.706 18.1969C100.432 17.7908 100.157 17.3784 99.8835 16.9661C99.609 16.6929 99.4724 16.1476 99.4724 15.7353V15.5962C99.4724 15.4633 99.4724 15.4633 99.4724 15.323C99.4724 15.1839 99.4724 15.1839 99.4724 15.1839C99.609 15.1839 99.609 15.051 99.609 15.051C99.7469 14.5057 100.021 14.0934 100.432 13.6798C100.979 13.4066 101.39 13.2675 101.938 13.2675C101.938 13.2675 101.938 13.2675 102.074 13.2675H102.211C102.211 13.2675 102.211 13.2675 102.349 13.2675C102.895 13.2675 103.581 13.5469 104.13 13.9531C104.54 14.3654 104.813 14.9106 104.813 15.7365C104.813 16.4221 104.678 16.9673 104.265 17.3797C103.717 17.9249 103.308 18.3372 102.76 18.6105L105.362 21.7576C105.498 21.4844 105.773 21.2124 106.047 20.8001C106.321 20.5268 106.457 20.2548 106.733 19.9816L107.554 20.8001C107.417 21.0733 107.143 21.3515 107.006 21.6247C106.87 21.898 106.595 22.17 106.321 22.4432C106.321 22.4432 106.321 22.4432 106.184 22.5823C106.184 22.5823 106.184 22.7152 106.047 22.7152L107.964 24.911H106.321L105.091 23.5386ZM101.94 23.951C102.351 23.951 102.762 23.8119 103.172 23.5386C103.447 23.2654 103.857 22.9934 104.132 22.7139C104.268 22.7139 104.268 22.7139 104.268 22.7139C104.268 22.7139 104.268 22.7139 104.406 22.5811L101.394 19.1544C101.394 19.2935 101.394 19.2935 101.256 19.2935C101.119 19.4264 101.119 19.4264 101.119 19.4264C100.845 19.5655 100.708 19.7059 100.436 19.8388C100.159 20.112 100.025 20.2511 99.8872 20.5243C99.7519 20.5243 99.7519 20.6634 99.7519 20.7976C99.614 20.9367 99.614 21.0708 99.614 21.2099C99.4774 21.349 99.4774 21.4831 99.4774 21.4831C99.4774 21.6222 99.4774 21.7564 99.4774 21.8955C99.4774 22.4407 99.614 22.853 100.026 23.3995C100.573 23.8119 100.984 23.951 101.668 23.951H101.806C101.805 23.951 101.805 23.951 101.94 23.951ZM100.845 15.4608C100.845 15.5937 100.845 15.5937 100.845 15.5937V15.7328C100.845 16.006 100.845 16.278 100.983 16.5513C101.119 16.8245 101.394 17.1027 101.529 17.2368C101.666 17.3759 101.666 17.3759 101.804 17.5101L101.94 17.6492H102.077C102.077 17.6492 102.213 17.6492 102.213 17.5101C102.488 17.3772 102.762 17.2368 103.037 16.9648C103.31 16.6916 103.448 16.4196 103.583 16.0073C103.583 15.8682 103.583 15.8682 103.583 15.8682C103.583 15.7353 103.583 15.7353 103.583 15.7353C103.583 15.323 103.447 15.0497 103.172 14.7777C102.898 14.6386 102.626 14.5045 102.351 14.5045C102.213 14.5045 102.213 14.5045 102.213 14.5045C102.213 14.5045 102.213 14.5045 102.077 14.5045C101.804 14.5045 101.529 14.5045 101.255 14.7777C100.983 14.9081 100.845 15.1814 100.845 15.4608ZM127.274 0.257812C132.067 0.257812 136.312 2.72561 138.777 6.28635L135.628 7.92949C133.848 5.18845 130.834 3.40497 127.411 3.40497C121.934 3.40497 117.688 7.78914 117.688 13.1321C117.688 18.4689 121.934 22.7139 127.411 22.7139C131.93 22.7139 135.49 20.5243 135.765 15.8669H127.96V12.993H135.49C135.49 12.993 139.324 12.993 139.601 12.993C139.601 12.993 139.601 5.60078 139.601 13.1321C139.601 20.6634 135.49 26.0002 127.275 26.0002C119.058 26.0002 113.854 20.2511 113.854 13.1321C113.854 6.00567 119.879 0.257812 127.274 0.257812ZM137.544 25.1817L147.542 1.08248H149.87L159.865 25.1817H156.032L153.293 18.3347H144.118L141.38 25.1817H137.544ZM145.489 15.3205L148.773 6.69124L151.923 15.3205H145.489ZM194.922 25.1817L204.782 1.08248H207.108L217.105 25.1817H213.272L210.535 18.3347H201.357L198.618 25.1817H194.922ZM202.728 15.3205L206.014 6.69124L209.3 15.3205H202.728ZM242.575 25.1817L252.573 1.08248H254.902L264.9 25.1817H261.063L258.189 18.3347H249.15L246.413 25.1817H242.575ZM250.519 15.3205L253.67 6.69124L256.955 15.3205H250.519ZM168.493 3.81731C170.958 4.09054 171.778 5.0481 171.778 7.51715C171.778 9.84585 170.135 11.0766 168.08 11.0766H164.931V3.81731H168.493ZM168.767 13.9506H168.902C170.684 13.9506 173.833 14.3629 173.833 18.3347C173.833 21.4819 171.096 22.3066 168.493 22.3066H169.038H164.929V13.9493H168.079H168.767V13.9506ZM164.112 25.1817H164.931H170.274C174.519 25.1817 177.67 22.3078 177.67 18.3347C177.67 15.1814 175.749 12.8589 173.012 11.9001C174.519 10.9363 175.341 9.15904 175.341 6.96944C175.341 3.40373 173.012 1.08124 169.315 1.08124C167.396 0.942142 165.343 1.08124 163.427 1.08124H163.288C163.288 1.08124 163.288 1.08124 163.152 1.08124H161.236V25.1805H164.112V25.1817ZM186.842 3.81731C189.17 4.09054 189.992 5.0481 190.128 7.51715C190.128 9.84585 188.485 11.0766 186.43 11.0766H183.281V3.81731H186.842ZM186.981 13.9506C187.117 13.9506 187.117 13.9506 187.117 13.9506C188.897 13.9506 192.044 14.3629 192.044 18.3347C192.044 21.4819 189.306 22.3066 186.705 22.3066H187.389H183.281V13.9493H186.43H186.981V13.9506ZM182.323 25.1817H183.281H188.624C192.869 25.1817 195.879 22.3078 195.879 18.3347C195.879 15.1814 193.963 12.8589 191.226 11.9001C192.869 10.9363 193.687 9.15904 193.687 6.96944C193.687 3.40373 191.226 1.08124 187.662 1.08124C185.61 0.942142 183.693 1.08124 181.636 1.08124C181.501 1.08124 181.501 1.08124 181.501 1.08124H181.364H179.448V25.1805H182.323V25.1817ZM218.749 1.08248H221.078L237.921 18.8812V1.08248H241.208V25.1817H238.742L222.172 7.51591V25.1817H218.749V1.08248Z" fill="#0A0A0A"/>
</svg>
