<?xml version="1.0" standalone="no"?>
<!DOCTYPE svg PUBLIC "-//W3C//DTD SVG 20010904//EN"
 "http://www.w3.org/TR/2001/REC-SVG-20010904/DTD/svg10.dtd">
<svg version="1.0" xmlns="http://www.w3.org/2000/svg"
 width="900.000000pt" height="900.000000pt" viewBox="0 0 900.000000 900.000000"
 preserveAspectRatio="xMidYMid meet">
<metadata>
Created by potrace 1.16, written by Peter Selinger 2001-2019
</metadata>
<g transform="translate(0.000000,900.000000) scale(0.100000,-0.100000)"
fill="#000000" stroke="none">
<path d="M7035 6603 c-282 -24 -579 -116 -791 -243 -303 -182 -510 -412 -670
-745 -246 -510 -243 -1073 6 -1590 73 -152 159 -273 280 -395 376 -380 974
-597 1521 -552 302 25 524 93 757 233 259 156 431 333 537 554 74 154 146 418
175 645 6 47 14 160 17 253 l6 167 -802 0 -801 0 2 -292 3 -293 416 -3 417 -2
-5 -48 c-20 -231 -110 -375 -304 -485 -288 -163 -659 -167 -996 -12 -227 104
-421 283 -517 474 -82 162 -143 460 -130 630 14 190 55 336 144 516 108 218
245 358 455 461 128 62 230 89 399 104 348 30 632 -69 940 -329 l96 -82 223
162 c122 89 233 171 246 181 l24 19 -104 102 c-328 321 -744 520 -1190 567
-89 9 -266 11 -354 3z"/>
<path d="M138 6484 c-5 -4 -8 -774 -8 -1711 l0 -1705 598 5 c628 4 721 10 977
57 295 55 512 161 702 342 199 190 333 427 428 754 84 289 93 663 24 979 -49
224 -163 495 -281 667 -81 119 -248 287 -359 361 -218 144 -368 191 -764 238
-105 12 -1306 25 -1317 13z m1252 -624 c231 -20 380 -76 498 -186 156 -143
259 -354 308 -629 27 -151 25 -425 -4 -570 -83 -417 -269 -653 -582 -739 -162
-45 -446 -66 -682 -51 l-118 7 0 1089 0 1089 233 0 c127 0 284 -5 347 -10z"/>
<path d="M3870 5596 c-208 -48 -348 -142 -415 -279 -115 -234 -75 -469 123
-718 35 -45 60 -85 55 -89 -4 -4 -53 -40 -108 -80 -213 -155 -332 -305 -374
-472 -42 -165 -35 -281 28 -445 82 -211 228 -339 461 -406 291 -83 643 -1 909
214 52 42 66 49 76 37 7 -7 54 -61 104 -120 l92 -108 280 0 c221 0 279 3 273
13 -5 6 -104 128 -221 269 -117 141 -213 262 -213 270 1 7 84 98 185 203 l183
189 -31 36 c-17 19 -78 86 -137 147 l-106 113 -179 -190 c-98 -105 -182 -190
-186 -190 -3 0 -100 109 -213 242 l-207 241 48 34 c144 101 299 253 345 339
100 186 69 425 -71 564 -73 71 -148 115 -274 158 -93 32 -113 35 -237 38 -86
2 -155 -1 -190 -10z m276 -336 c88 -50 134 -126 134 -219 0 -56 -38 -136 -88
-185 -55 -53 -162 -136 -178 -136 -12 0 -87 86 -133 153 -60 88 -74 132 -67
209 8 85 33 136 83 170 51 34 58 36 133 37 54 1 73 -4 116 -29z m-20 -1311
c133 -159 224 -276 220 -284 -10 -26 -138 -123 -213 -162 -73 -36 -81 -38
-172 -38 -87 0 -102 3 -156 30 -71 36 -164 127 -197 192 -53 109 -18 239 103
381 64 75 167 164 181 156 4 -3 109 -127 234 -275z"/>
<path d="M3522 2771 c-170 -42 -205 -260 -55 -347 51 -31 128 -37 181 -15 27
11 32 18 32 48 l0 34 -26 -20 c-58 -46 -141 -35 -194 25 -57 65 -34 181 44
218 46 22 94 20 134 -4 42 -26 42 -25 42 9 0 22 -6 31 -27 39 -42 17 -94 22
-131 13z"/>
<path d="M4333 2756 c-93 -44 -135 -146 -99 -241 47 -123 214 -165 316 -79 30
26 68 123 55 144 -3 5 -44 10 -91 10 -83 0 -85 -1 -82 -22 3 -20 10 -23 61
-26 55 -3 58 -4 51 -25 -23 -75 -139 -101 -208 -46 -80 63 -72 185 16 239 53
32 127 23 175 -22 14 -13 28 -18 42 -13 29 9 26 18 -14 53 -63 56 -141 65
-222 28z"/>
<path d="M2510 2585 l0 -185 63 0 c149 0 228 65 228 185 0 60 -15 97 -59 138
-35 33 -83 46 -169 47 l-63 0 0 -185z m169 121 c80 -42 91 -170 20 -230 -25
-21 -41 -26 -85 -26 l-55 0 2 135 1 135 45 0 c24 0 57 -7 72 -14z"/>
<path d="M2935 2753 c-87 -45 -128 -128 -105 -212 23 -85 100 -141 195 -141
114 0 195 76 195 185 0 110 -81 185 -197 185 -33 -1 -71 -8 -88 -17z m180 -57
c92 -70 60 -213 -56 -247 -34 -11 -46 -10 -86 7 -64 26 -88 62 -88 129 0 62
21 97 75 127 47 26 109 19 155 -16z"/>
<path d="M3240 2585 l0 -186 78 3 c69 3 77 5 77 23 0 17 -8 20 -52 23 l-53 3
0 160 0 159 -25 0 -25 0 0 -185z"/>
<path d="M3700 2585 l0 -185 90 0 c89 0 90 0 90 25 0 24 -2 25 -65 25 l-65 0
0 60 0 60 65 0 c62 0 65 1 65 25 0 23 -4 24 -62 27 l-62 3 -2 43 c-1 23 2 45
7 48 8 5 63 12 102 13 10 1 17 9 17 21 0 19 -7 20 -90 20 l-90 0 0 -185z"/>
<path d="M4716 2738 c-93 -219 -136 -324 -136 -330 0 -5 11 -8 25 -8 21 0 29
9 50 55 l24 55 66 0 65 0 25 -55 c20 -46 28 -55 49 -55 15 0 26 2 26 4 0 2
-33 84 -74 183 -79 190 -95 211 -120 151z"/>
<path d="M4934 2757 c-2 -7 -3 -89 -2 -182 l3 -170 65 -3 c115 -6 167 22 177
96 4 33 1 44 -27 76 -25 28 -30 40 -21 49 14 14 15 82 1 107 -5 10 -24 23 -41
29 -45 16 -148 14 -155 -2z"/>
<path d="M5210 2586 l0 -186 64 0 c35 0 77 3 95 6 80 16 111 118 52 173 -26
24 -27 29 -15 46 22 29 17 80 -10 112 -22 25 -31 28 -105 31 l-81 4 0 -186z"/>
<path d="M5576 2738 c-60 -144 -136 -331 -136 -334 0 -2 11 -4 26 -4 21 0 29
9 49 55 l25 55 65 0 65 0 25 -55 c20 -47 28 -55 50 -55 32 0 36 -15 -53 200
-74 178 -91 198 -116 138z"/>
<path d="M5800 2585 l0 -185 25 0 25 0 0 133 0 132 128 -134 c90 -95 133 -133
144 -129 13 6 15 31 14 185 -1 177 -1 178 -23 181 -23 3 -23 3 -23 -127 0 -72
-4 -131 -8 -131 -5 0 -63 59 -131 130 -67 72 -129 130 -137 130 -12 0 -14 -32
-14 -185z"/>
<path d="M6302 2753 c-15 -28 -142 -338 -142 -346 0 -4 11 -7 25 -7 21 0 29 9
50 55 l24 55 64 0 64 0 24 -52 c19 -43 29 -54 52 -56 15 -2 27 -1 27 1 0 3
-33 85 -74 183 -73 176 -94 206 -114 167z"/>
</g>
</svg>
