<svg width="75" height="26" viewBox="0 0 75 26" fill="none" xmlns="http://www.w3.org/2000/svg">
<path d="M0 24.6351H2.33035H2.59667V1.49808H0V0H19.6748V7.8566H18.5762C18.5429 7.65685 18.5096 7.45711 18.443 7.25736L18.3431 6.72472C18.1434 5.79258 17.3777 4.42766 16.379 3.32907C15.3803 2.23047 14.0819 1.46479 12.9501 1.46479H8.95518V11.7516H10.2202C11.2855 11.7516 11.9513 11.1191 12.4507 10.2535C12.9501 9.35467 13.2164 8.22279 13.2497 7.15749H14.6479V18.4097H13.1498C13.0499 16.7119 12.8169 15.4802 12.3508 14.6812C11.9181 13.8822 11.2522 13.4827 10.2535 13.4827H8.95518V24.6351H11.8182V25.9667H0V24.6351Z" fill="#1D1D1B"/>
<path d="M62.7197 0.0996939V1.4979H65.7492V24.6349H62.8862V25.9665H74.438V24.6349L71.9745 24.6682V1.4979H74.438V0.0664062L62.7197 0.0996939Z" fill="#1D1D1B"/>
<path d="M26.2997 0.100098C24.0359 6.39203 20.4738 16.2128 17.7772 23.7032C17.6441 24.1027 17.4776 24.6686 16.8784 24.6686H15.2139V26.0002H22.7043V24.6686H20.5404C20.041 24.6686 19.5749 24.4689 19.5749 24.0694C19.5749 23.4368 21.0064 19.6417 21.3393 18.8427H28.0308C28.5301 20.1744 29.0628 21.7723 30.0615 24.6686H27.2984V26.0002H38.5506V24.6686H36.653C33.324 15.0476 29.2958 3.56233 28.1306 0.13339H26.2997V0.100098ZM24.8016 8.9887L27.598 17.3779H21.7721L24.8016 8.9887Z" fill="#1D1D1B"/>
<path d="M40.2483 0.100098V1.43172H42.1459H42.5121V24.6686H42.1459H40.1484V25.9669H54.7963C55.0294 25.9669 61.8872 25.9336 61.8872 19.0092C61.8872 13.0835 54.6964 12.5841 54.6632 12.5841C54.7297 12.5175 60.7221 11.1193 60.7221 6.29216C60.7221 1.79792 56.1279 0.13339 54.1305 0.13339H40.2483V0.100098ZM48.8706 1.4983H52.3328C53.498 1.4983 54.53 2.53032 54.53 3.76207L54.4967 8.68909C54.4967 10.5534 53.3315 11.7851 51.7336 11.7851H48.8373V1.4983H48.8706ZM48.8706 13.2166H51.2009C52.699 13.2166 55.1958 14.0156 55.1958 16.6123V22.4048C55.1958 23.9695 54.1971 24.6686 53.2982 24.6686H48.8706V13.2166Z" fill="#1D1D1B"/>
</svg>
