<svg width="96" height="26" viewBox="0 0 96 26" fill="none" xmlns="http://www.w3.org/2000/svg">
<path d="M0.00176464 0.00979059C5.6873 0.00979059 11.3716 0.0147274 17.0572 0.00732422C17.0633 1.54966 17.0694 3.09198 17.0547 4.63555C13.0397 4.63431 9.02354 4.63185 5.00734 4.63678C5.00978 6.57272 5.00489 8.50988 5.00978 10.4458C8.52579 10.4384 12.0418 10.4446 15.5566 10.4434C15.5762 11.9807 15.5529 13.5181 15.5688 15.0555C12.0491 15.0518 8.53069 15.0592 5.01223 15.0518C5.00367 18.6991 5.00734 22.3464 5.00978 25.9937C3.34289 25.9752 1.676 25.9752 0.00910245 25.9925C-0.00924194 17.332 0.00665648 8.67029 0.00176464 0.00979059V0.00979059Z" fill="#231F20"/>
<path d="M20.374 25.9941C20.3679 17.3299 20.3667 8.66566 20.3753 0.00146484C26.2504 0.0199728 32.1267 0.010103 38.003 0.00640136C38.0042 1.54997 37.9969 3.09353 38.0067 4.63586C33.7642 4.63586 29.5205 4.62846 25.2781 4.6408C25.2916 6.45211 25.2793 8.26466 25.2842 10.0772C29.1806 10.0673 33.0757 10.0735 36.972 10.0735C36.9574 11.6097 36.9745 13.1471 36.961 14.6832C33.0696 14.6869 29.1769 14.6894 25.2854 14.6808C25.2757 16.9042 25.2952 19.1276 25.2757 21.3498C29.7101 21.3646 34.1446 21.3523 38.5802 21.356C38.5912 22.8983 38.5912 24.4406 38.5802 25.9842C32.5119 25.9891 26.4424 25.9682 20.374 25.9941V25.9941Z" fill="#231F20"/>
<path d="M42.3433 0.00146484C44.1092 0.0150374 45.8752 0.0187389 47.6411 0.00146484C50.8269 6.03876 54.0115 12.0761 57.2034 18.1097C57.2145 12.0773 57.2132 6.04494 57.2034 0.0138042C58.7603 0.00516719 60.3171 0.0162735 61.8739 0.00763643C61.8813 8.66813 61.88 17.3286 61.8751 25.9891C60.2095 25.9768 58.5438 25.9842 56.8794 25.9842C53.6116 19.8013 50.3365 13.6221 47.0517 7.44784C47.0529 13.6295 47.0541 19.8099 47.0504 25.9916C45.4814 25.978 43.9111 25.9719 42.3408 25.9953C42.3518 17.3311 42.3469 8.66566 42.3433 0.00146484V0.00146484Z" fill="#231F20"/>
<path d="M66.6551 0.00634766C70.2922 0.0174524 73.9292 0.00634615 77.5663 0.0125155C79.561 0.044596 81.6033 0.612174 83.1406 1.94105C84.7512 3.21439 85.6917 5.13429 86.2799 7.07022C86.7764 8.83342 86.9574 10.6719 86.988 12.5005C86.9159 15.3248 86.5208 18.217 85.2282 20.7587C84.4186 22.5194 83.0696 24.0383 81.3795 24.9748C80.1407 25.6547 78.7257 25.9409 77.3266 25.978C73.7727 25.9952 70.2176 25.9644 66.6636 25.994C66.6392 17.331 66.6563 8.66808 66.6551 0.00634766M71.6117 4.53463C71.5983 10.1746 71.6044 15.8146 71.6081 21.4546C73.1894 21.4472 74.7694 21.4546 76.3507 21.4509C76.9976 21.4336 77.658 21.3522 78.2549 21.0882C79.4105 20.607 80.2312 19.5643 80.7754 18.4625C81.6938 16.4538 81.8944 14.1909 81.8345 12.0057C81.7794 9.91181 81.4639 7.66988 80.0954 6.00663C79.2724 4.97759 77.91 4.63581 76.6601 4.55314C74.9773 4.52229 73.2945 4.55931 71.6117 4.53463V4.53463Z" fill="#231F20"/>
<path d="M90.3333 26C90.315 17.3333 90.3174 8.66667 90.3321 0C91.9965 0.0246773 93.6622 0.00616902 95.3267 0.00740289C95.334 8.66543 95.3377 17.3247 95.3254 25.984C93.661 25.9914 91.9965 25.9593 90.3333 26Z" fill="#231F20"/>
</svg>
