<svg width="120" height="26" viewBox="0 0 120 26" fill="none" xmlns="http://www.w3.org/2000/svg">
<path d="M108.343 7.59856L108.12 7.67297C107.251 5.7855 106.009 4.28289 104.394 3.16516C102.805 2.04808 100.806 1.48954 98.3978 1.48954C97.0568 1.48954 95.7778 1.77518 94.5608 2.34645C93.3439 2.89226 92.2761 3.67441 91.3575 4.6929C90.463 5.68593 89.7429 6.8905 89.1971 8.3066C88.6506 9.72139 88.3774 11.2857 88.3774 12.9995C88.3774 14.7127 88.6506 16.277 89.1971 17.6924C89.7436 19.1079 90.4637 20.3248 91.3575 21.3433C92.2761 22.3364 93.3435 23.1061 94.5599 23.6526C95.7775 24.199 97.0568 24.4723 98.3978 24.4723C100.781 24.4723 102.718 24.0998 104.208 23.3548C105.723 22.5844 107.002 21.4171 108.045 19.8528L108.268 19.9272L108.194 22.3109C107.623 22.907 106.965 23.441 106.22 23.9131C105.475 24.3603 104.668 24.7455 103.799 25.0687C102.955 25.3657 102.073 25.589 101.155 25.7385C100.235 25.9122 99.3164 25.999 98.3978 25.999C96.4855 25.999 94.6604 25.6889 92.9224 25.0687C91.1838 24.4471 89.6564 23.5778 88.3402 22.4607C87.024 21.3182 85.981 19.9524 85.2113 18.3632C84.4415 16.7493 84.0566 14.9614 84.0566 12.9995C84.0566 11.0376 84.4418 9.26177 85.2122 7.672C85.9813 6.05808 87.024 4.68017 88.3402 3.53828C89.6564 2.39574 91.1838 1.52643 92.9224 0.930352C94.6604 0.310115 96.4852 0 98.3968 0C99.3161 0 100.235 0.0741069 101.155 0.222311C102.073 0.371821 102.955 0.607829 103.799 0.930352C104.668 1.22872 105.475 1.61393 106.22 2.08596C106.965 2.53253 107.623 3.05386 108.194 3.64994L108.343 7.59856Z" fill="black"/>
<path d="M26.2605 14.7133C25.9876 14.8374 25.7271 14.9986 25.479 15.1971C25.2309 15.3956 25.1069 15.6688 25.1069 16.0168V20.599C23.914 22.3122 22.3863 23.6408 20.5236 24.5849C18.6616 25.5283 16.6008 26 14.3412 26C12.4289 26 10.6034 25.6896 8.86482 25.0687C7.12685 24.4478 5.59976 23.5785 4.28355 22.4607C2.96734 21.3182 1.92437 19.9527 1.15462 18.3642C0.384873 16.7497 0 14.9614 0 12.9995C0 11.0383 0.3852 9.26274 1.1556 7.67297C1.92469 6.05905 2.96734 4.68082 4.28355 3.53828C5.59976 2.39574 7.12685 1.52677 8.86482 0.931339C10.6034 0.310449 12.4289 0 14.3412 0C15.2598 0 16.1784 0.0744253 17.097 0.223282C18.0162 0.372139 18.8976 0.608163 19.7412 0.931339C20.6108 1.22905 21.4181 1.61393 22.163 2.08596C22.908 2.53318 23.5661 3.05451 24.1373 3.64994L24.2872 7.59856L24.0629 7.67297C23.1946 5.78615 21.9531 4.28388 20.3385 3.16615C18.7488 2.04842 16.7497 1.48954 14.3412 1.48954C13.0002 1.48954 11.7212 1.77518 10.5042 2.34645C9.28788 2.89291 8.22042 3.67506 7.30182 4.6929C6.40737 5.68659 5.68692 6.89115 5.14046 8.3066C4.594 9.72204 4.32077 11.2864 4.32077 12.9995C4.32077 14.6879 4.58192 16.2398 5.10422 17.6552C5.65003 19.0713 6.36983 20.2883 7.26363 21.3061C8.18288 22.2991 9.25067 23.0813 10.467 23.6526C11.684 24.199 12.9754 24.4723 14.3412 24.4723C16.924 24.4723 19.134 23.9757 20.9712 22.9827V16.0168C20.9712 15.6695 20.8347 15.3962 20.5618 15.1971C20.3137 14.9986 20.0656 14.837 19.8175 14.7123L19.8508 14.5263C19.9749 14.5491 20.1985 14.5739 20.5217 14.6007C20.8449 14.6236 21.1801 14.6484 21.5274 14.6751H24.7308C25.0292 14.6523 25.3148 14.6275 25.5877 14.6007C25.8606 14.5778 26.0715 14.553 26.2204 14.5263L26.2605 14.7133Z" fill="black"/>
<path d="M53.2407 0.781288C52.9926 0.905336 52.7445 1.06692 52.4964 1.26605C52.2477 1.46452 52.1109 1.83698 52.0861 2.38344C52.0632 2.97953 52.0384 3.73687 52.0116 4.65548C52.0116 5.54992 52.0006 6.56841 51.9784 7.71096C51.9784 8.85284 51.9669 10.0943 51.9441 11.4353V15.6072C51.9212 17.2211 51.7224 18.5994 51.3477 19.7419C50.9755 20.8845 50.479 21.8403 49.8581 22.6094C49.262 23.3798 48.5915 23.9883 47.8466 24.4348C47.1265 24.8821 46.4063 25.2173 45.6862 25.4406C44.9909 25.6887 44.3328 25.8379 43.7119 25.8881C43.091 25.9626 42.6066 25.9998 42.2586 25.9998C40.8431 25.9998 39.4773 25.8137 38.1611 25.4416C36.8449 25.0936 35.6903 24.5223 34.6972 23.7278C33.7042 22.9326 32.9097 21.902 32.3136 20.636C31.7175 19.3694 31.4195 17.8296 31.4195 16.0166V11.8075V7.93327C31.4195 6.74176 31.408 5.67429 31.3852 4.73088C31.3852 3.76201 31.3738 2.97953 31.3509 2.38344C31.3287 1.83698 31.1923 1.46484 30.9416 1.26702C30.6935 1.06789 30.4454 0.905989 30.1973 0.781288L30.2306 0.595215C30.3546 0.618066 30.5537 0.642864 30.8279 0.669632C31.1257 0.692483 31.4234 0.717297 31.7211 0.744065C32.0443 0.744065 32.3544 0.755494 32.6514 0.778344H33.9931C34.2915 0.755494 34.6019 0.744065 34.9245 0.744065C35.2476 0.721214 35.5457 0.6964 35.8186 0.669632C36.1163 0.646781 36.3272 0.621983 36.4512 0.595215L36.4855 0.781288C36.2126 0.905336 35.9518 1.06692 35.703 1.26605C35.4797 1.46452 35.3557 1.83698 35.3309 2.38344C35.308 2.97953 35.2832 3.76169 35.2564 4.72991V16.0166C35.2564 18.7234 35.8897 20.7226 37.1563 22.014C38.4229 23.3054 40.2977 23.9511 42.7806 23.9511C43.5007 23.9511 44.3201 23.8639 45.2387 23.6896C46.1579 23.4911 47.0148 23.0938 47.8094 22.4977C48.6287 21.9016 49.3117 21.0575 49.8581 19.9652C50.4294 18.8723 50.715 17.4196 50.715 15.6072C50.715 13.6453 50.7036 11.9691 50.6808 10.5784C50.6808 9.16297 50.6693 7.9584 50.6465 6.96472C50.6465 5.94622 50.635 5.07724 50.6122 4.35776C50.59 3.63764 50.5652 2.97953 50.5378 2.38344C50.5156 1.83698 50.3791 1.46452 50.1284 1.26605C49.8803 1.06757 49.6322 0.905989 49.3841 0.781288L49.4174 0.595215C49.691 0.644834 50.0014 0.694779 50.3488 0.745051C50.6967 0.767249 51.0199 0.778344 51.3183 0.778344C51.5905 0.778344 51.9007 0.767249 52.2486 0.745051C52.6208 0.695432 52.9436 0.645487 53.2172 0.595215L53.2407 0.781288Z" fill="black"/>
<path d="M80.2696 7.59856L80.0463 7.67297C79.1767 5.7855 77.9349 4.28289 76.321 3.16516C74.7319 2.04808 72.7327 1.48954 70.3236 1.48954C68.9832 1.48954 67.7046 1.77518 66.4876 2.34645C65.2706 2.89226 64.2028 3.67441 63.2842 4.6929C62.3898 5.68593 61.6697 6.8905 61.1239 8.3066C60.5774 9.72139 60.3042 11.2857 60.3042 12.9995C60.3042 14.7127 60.5774 16.277 61.1239 17.6924C61.6697 19.1079 62.3898 20.3248 63.2842 21.3433C64.2028 22.3364 65.2703 23.1061 66.4866 23.6526C67.7042 24.199 68.9832 24.4723 70.3236 24.4723C72.7079 24.4723 74.645 24.0998 76.1349 23.3548C77.6496 22.5844 78.9286 21.4171 79.9719 19.8528L80.1952 19.9272L80.1207 22.3109C79.5495 22.907 78.8914 23.441 78.1464 23.9131C77.4021 24.3603 76.5952 24.7455 75.7255 25.0687C74.8814 25.3657 74 25.589 73.0814 25.7385C72.1621 25.9122 71.2432 25.999 70.3246 25.999C68.4116 25.999 66.5862 25.6889 64.8482 25.0687C63.1102 24.4471 61.5832 23.5778 60.267 22.4607C58.9507 21.3182 57.9078 19.9524 57.138 18.3632C56.3676 16.7493 55.9824 14.9614 55.9824 12.9995C55.9824 11.0376 56.3676 9.26177 57.138 7.672C57.9084 6.05808 58.9514 4.68017 60.267 3.53828C61.5832 2.39574 63.1102 1.52643 64.8482 0.930352C66.5868 0.310115 68.4123 0 70.3246 0C71.2432 0 72.1618 0.0741069 73.0804 0.222311C73.9997 0.371821 74.881 0.607829 75.7246 0.930352C76.5942 1.22872 77.4015 1.61393 78.1464 2.08596C78.8914 2.53253 79.5495 3.05386 80.1207 3.64994L80.2696 7.59856Z" fill="black"/>
<path d="M119.57 25.3652C119.446 25.343 119.235 25.3185 118.938 25.2917C118.665 25.2917 118.367 25.2803 118.044 25.2575C117.72 25.2575 117.41 25.2464 117.112 25.2242H114.878C114.58 25.2464 114.282 25.2708 113.983 25.2976C113.71 25.3205 113.5 25.3453 113.351 25.372L113.316 25.2232C113.565 25.0991 113.813 24.9376 114.061 24.7384C114.309 24.5399 114.446 24.1675 114.471 23.621C114.494 23.0249 114.505 22.4041 114.505 21.7584C114.528 21.1127 114.54 20.3801 114.54 19.5608V16.7667V13.0052V9.24263V6.41239C114.54 5.59237 114.528 4.87191 114.505 4.25102C114.505 3.60532 114.494 2.98476 114.471 2.38933C114.448 1.84287 114.312 1.4704 114.062 1.27192C113.814 1.04798 113.565 0.873986 113.317 0.749938L113.351 0.601088C113.5 0.650707 113.71 0.68792 113.983 0.712729C114.282 0.712729 114.58 0.724158 114.877 0.747009C115.201 0.76986 115.511 0.781289 115.809 0.781289H117.112C117.41 0.758438 117.72 0.747009 118.043 0.747009C118.366 0.724158 118.665 0.699345 118.938 0.672577C119.235 0.649726 119.446 0.624913 119.57 0.598145L119.605 0.747981C119.332 0.872028 119.071 1.04571 118.822 1.26899C118.599 1.46747 118.475 1.83961 118.45 2.38542C118.427 2.98215 118.402 3.60337 118.376 4.24907V21.7564C118.398 22.4014 118.423 23.022 118.45 23.6181C118.472 24.1645 118.596 24.537 118.822 24.7355C119.07 24.934 119.331 25.0955 119.605 25.2202L119.57 25.3652Z" fill="black"/>
</svg>
