<svg width="156" height="26" viewBox="0 0 156 26" fill="none" xmlns="http://www.w3.org/2000/svg">
<path fill-rule="evenodd" clip-rule="evenodd" d="M72.2031 22.1239L72.1178 17.6025C72.1178 16.2301 71.1799 14.7756 69.9018 13.9687C69.6456 13.8879 69.2193 13.7261 68.8785 13.7261C69.2193 13.7261 69.6456 13.7261 70.0719 13.565C71.3506 13.0001 72.8849 11.466 72.8849 8.80154C72.8849 6.78218 72.033 5.2487 70.4974 4.19858C69.0486 3.22997 67.4289 2.98734 65.7239 2.98734H52.5966V6.21731H55.5804V22.1239H52.5966V25.2734H61.9736V22.1239H58.9898V15.0991H65.4691C67.6851 15.18 68.5376 16.553 68.5376 17.6833L68.7924 25.2734H75.1863V22.1239H72.2031V22.1239ZM66.1501 12.0315H58.9898V6.21731C58.9898 6.21731 64.1049 6.21731 65.7239 6.21731C66.491 6.21731 67.3442 6.21731 68.0259 6.45994C68.8785 6.86368 69.6456 7.75142 69.6456 9.12378C69.6456 10.8196 68.0259 12.0315 66.1501 12.0315ZM104.597 22.1239V6.21731H107.75V2.98734H99.2262L93.5141 16.0677L93.4294 16.7141L93.2593 16.0677L87.6325 2.98734H79.022V6.21731H82.1765V22.1239H79.022V25.2734H88.6551V22.1239H85.672V6.54082L85.9268 7.26743L92.4908 22.1239H94.3666L100.931 7.26743L101.101 6.45994L101.186 7.34768V22.1239H98.2029V25.2734H107.75V22.1239H104.597M150.374 12.5155C147.986 11.95 146.367 12.0315 143.895 11.3049C141.763 10.577 141.337 9.36641 141.337 8.55829C141.337 7.67055 142.274 5.4907 145.685 5.4907C149.094 5.4907 151.397 7.67055 151.481 9.52753H154.807V2.98734H151.567V4.44058L151.738 4.84495V4.9252V4.84495C151.652 4.84495 151.567 4.60233 151.226 4.3597C151.226 4.3597 151.226 4.3597 151.226 4.27946C150.289 3.47196 148.327 2.50335 145.429 2.50335C141.935 2.50335 137.842 4.60233 137.842 8.55829C137.842 12.4346 140.741 13.7261 143.298 14.3725C145.77 15.0182 147.049 15.0182 149.181 15.5837C151.226 16.0677 152.59 17.2796 152.59 19.0557C152.59 20.6707 151.481 22.8505 147.049 22.8505C142.701 22.8505 140.912 20.5898 140.399 17.4407H137.246V25.2734H140.485V23.8201L140.399 23.4154C140.399 23.4154 140.485 23.6578 140.912 23.9004V23.9813C142.53 25.1925 144.747 26 147.475 26C150.63 26 156 24.4659 156 19.1366C156 15.2609 153.869 13.4847 150.374 12.5155M117.809 0H124.714L126.419 1.93849H119.685L117.809 0M27.9603 2.98734H47.3114V9.20466H43.9867V6.21731H34.6097V11.5463H42.6225V14.6954H34.609V22.1239H43.902V17.8451H47.3114V25.2734H27.9603V22.1239H31.1135V6.21731H27.9603V2.98734M112.183 2.98734H131.449V9.20466H128.209V6.21731H118.832V11.5463H126.846V14.6954H118.832V22.1239H128.124V17.8451H131.534V25.2734H112.183V22.1239H115.337V6.21731H112.183V2.98734M0 2.98734H9.37636V6.21731H6.47793V11.6278H17.0483V6.21731H14.0652V2.98734H23.6123V6.21731H20.5438V22.1239H23.6123V25.2734H14.0652V22.1239H17.0483V14.7756H6.47793V22.1239H9.37636V25.2734H0V22.1239H2.98314V6.21731H0V2.98734" fill="black"/>
</svg>
