<?xml version="1.0" standalone="no"?>
<!DOCTYPE svg PUBLIC "-//W3C//DTD SVG 20010904//EN"
 "http://www.w3.org/TR/2001/REC-SVG-20010904/DTD/svg10.dtd">
<svg version="1.0" xmlns="http://www.w3.org/2000/svg"
 width="500.000000pt" height="300.000000pt" viewBox="0 0 500.000000 300.000000"
 preserveAspectRatio="xMidYMid meet">
<metadata>
Created by potrace 1.16, written by Peter Selinger 2001-2019
</metadata>
<g transform="translate(0.000000,300.000000) scale(0.100000,-0.100000)"
fill="#000000" stroke="none">
<path d="M1480 2351 c0 -5 13 -12 29 -16 26 -6 31 -12 37 -52 4 -25 5 -156 2
-291 -4 -207 -7 -252 -21 -279 -23 -43 -62 -68 -108 -68 -85 0 -140 117 -95
203 8 16 13 32 9 35 -12 12 -43 -15 -63 -53 -55 -107 18 -210 147 -210 88 0
134 34 170 125 8 20 12 122 12 313 l1 282 30 0 c17 0 30 5 30 10 0 6 -37 10
-90 10 -49 0 -90 -4 -90 -9z"/>
<path d="M1720 2351 c0 -5 12 -12 26 -15 55 -14 54 -9 54 -355 l0 -321 -35 0
c-19 0 -35 -4 -35 -10 0 -6 40 -10 100 -10 60 0 100 4 100 10 0 6 -11 10 -24
10 -45 0 -46 8 -44 351 l3 324 28 3 c15 2 27 8 27 13 0 5 -45 9 -100 9 -55 0
-100 -4 -100 -9z"/>
<path d="M1976 2352 c-3 -6 6 -13 21 -17 16 -3 31 -12 35 -18 4 -7 8 -157 8
-334 l0 -323 -25 0 c-14 0 -25 -4 -25 -10 0 -6 33 -10 80 -10 47 0 80 4 80 10
0 6 -8 10 -18 10 -11 0 -27 9 -38 21 -18 19 -19 42 -22 293 -2 173 0 267 6
261 6 -5 43 -92 84 -193 41 -101 78 -184 82 -185 5 -1 41 88 82 198 l73 200 1
-297 0 -298 -30 0 c-16 0 -30 -4 -30 -10 0 -6 39 -10 97 -10 58 0 93 4 88 9
-6 5 -19 11 -30 13 -19 3 -20 12 -23 341 l-2 337 25 0 c14 0 25 5 25 10 0 7
-22 10 -57 8 l-58 -3 -62 -165 c-34 -91 -67 -178 -72 -194 -6 -16 -14 -27 -17
-24 -3 4 -41 91 -84 195 l-79 188 -54 3 c-31 2 -58 -1 -61 -6z"/>
<path d="M2570 2351 c0 -5 10 -13 23 -17 58 -17 57 -9 57 -356 l0 -318 -30 0
c-16 0 -30 -4 -30 -10 0 -6 35 -10 85 -10 85 0 112 12 55 24 -20 4 -34 14 -40
31 -6 15 -10 139 -9 288 l1 262 25 -55 c14 -30 50 -116 80 -190 30 -74 58
-139 62 -143 7 -7 44 84 117 292 l34 96 0 -292 0 -293 -25 0 c-14 0 -25 -4
-25 -10 0 -6 37 -10 90 -10 53 0 90 4 90 10 0 6 -11 10 -25 10 -14 0 -29 8
-35 20 -7 12 -9 129 -8 337 l3 318 28 3 c50 6 28 22 -32 22 -58 0 -59 0 -65
-32 -6 -29 -41 -129 -106 -301 -12 -33 -26 -55 -30 -50 -4 4 -43 92 -85 196
l-77 187 -64 0 c-35 0 -64 -4 -64 -9z"/>
<path d="M3177 2354 c-10 -10 2 -24 22 -24 29 0 54 -36 140 -200 l81 -154 0
-158 0 -158 -40 0 c-22 0 -40 -4 -40 -10 0 -6 43 -10 110 -10 62 0 110 4 110
9 0 6 -17 11 -37 13 l-38 3 0 175 1 175 75 160 c73 155 76 160 107 163 64 6
19 22 -64 22 -88 0 -104 -8 -54 -27 18 -7 30 -18 30 -30 0 -10 -20 -62 -44
-115 -24 -54 -47 -111 -51 -128 -4 -16 -10 -32 -14 -34 -5 -4 -152 260 -169
305 -2 5 12 9 32 9 20 0 36 5 36 10 0 11 -182 14 -193 4z"/>
<path d="M1670 1420 l0 -29 -44 18 c-137 59 -324 21 -432 -89 -36 -36 -55 -68
-77 -127 -26 -69 -28 -87 -24 -163 8 -152 76 -258 206 -319 49 -23 68 -26 161
-26 96 0 110 3 160 28 74 39 106 65 93 78 -7 7 -28 -2 -68 -30 -127 -89 -282
-72 -399 46 -69 69 -99 138 -104 242 -5 112 20 183 90 257 66 70 131 98 228
99 137 0 198 -49 208 -170 9 -114 22 -70 22 75 0 87 -4 140 -10 140 -5 0 -10
-13 -10 -30z"/>
<path d="M2540 1429 c-69 -14 -160 -63 -213 -116 -186 -186 -130 -488 111
-601 50 -24 69 -27 162 -27 97 0 110 2 172 32 83 39 154 108 194 188 26 54 29
70 29 155 0 82 -4 103 -27 152 -52 112 -159 195 -282 217 -67 12 -83 12 -146
0z m196 -54 c65 -32 137 -109 172 -183 23 -49 27 -70 27 -152 0 -84 -3 -101
-28 -148 -133 -254 -466 -245 -594 15 -25 53 -28 68 -28 163 0 95 3 110 28
157 45 87 123 151 212 174 52 14 155 1 211 -26z"/>
<path d="M3371 1430 c-113 -24 -236 -112 -281 -201 -47 -92 -45 -280 5 -364
33 -58 107 -122 173 -153 75 -34 205 -42 280 -18 207 69 323 273 266 467 -55
187 -255 308 -443 269z m189 -50 c220 -112 278 -413 110 -578 -66 -65 -140
-96 -226 -96 -165 1 -302 124 -334 302 -31 176 76 349 245 393 51 14 159 2
205 -21z"/>
<path d="M1750 1411 c0 -5 12 -12 27 -16 15 -3 31 -12 35 -18 4 -7 8 -157 8
-334 l0 -323 -30 0 c-16 0 -30 -4 -30 -10 0 -6 38 -10 95 -10 57 0 95 4 95 10
0 6 -10 10 -23 10 -45 0 -47 11 -47 247 l0 223 110 0 110 0 0 -235 0 -235 -25
0 c-14 0 -25 -4 -25 -10 0 -6 37 -10 90 -10 53 0 90 4 90 10 0 6 -10 10 -23
10 -46 0 -47 5 -47 352 l0 328 30 0 c17 0 30 5 30 10 0 6 -37 10 -90 10 -94 0
-111 -8 -60 -27 30 -11 30 -11 30 -92 l0 -81 -110 0 -111 0 3 88 c3 87 3 87
31 90 15 2 27 8 27 13 0 5 -43 9 -95 9 -52 0 -95 -4 -95 -9z"/>
</g>
</svg>
