<?xml version="1.0" standalone="yes"?>
<svg xmlns="http://www.w3.org/2000/svg" width="3000" height="2000">
<path style="fill:#47714d; stroke:none;" d="M0 0L0 2000L3000 2000L3000 0L0 0z"/>
<path style="fill:#010101; stroke:none;" d="M1762 333L1762 398C1784.59 398 1808.89 399.224 1830 408.012C1840.63 412.438 1851.63 421.636 1852.61 434C1854.05 452.264 1836.75 472.806 1829.85 489C1810.27 534.957 1791.03 581.055 1771.42 627C1723.69 738.865 1677.12 851.235 1629.15 963C1612.44 1001.92 1596.2 1041.04 1579.58 1080C1570.71 1100.78 1558.96 1122.21 1553 1144L1551 1144C1547.06 1130.22 1539.28 1117 1533.31 1104C1520.64 1076.4 1508.34 1048.62 1495.69 1021C1489.67 1007.85 1476.89 989.378 1475.58 975C1474.73 965.719 1483.11 951.691 1486.32 943C1495.42 918.378 1504.48 893.722 1513.31 869C1537.78 800.467 1563.08 732.163 1588.58 664C1596.16 643.715 1603.38 623.292 1610.95 603C1615.04 592.018 1618.31 579.92 1624.7 570C1641.7 543.612 1675.42 538.659 1704 535.286C1711.16 534.44 1727.55 537.237 1733.3 532.972C1737.18 530.092 1738.67 521.352 1740.4 517C1746.14 502.508 1753.41 487.153 1757 472L1415 472L1393 534C1412.08 534 1443.74 535.13 1452.52 556C1460.33 574.562 1445.58 598.495 1439.67 616C1428.12 650.193 1415.44 684.1 1403.05 718C1396.05 737.162 1390.64 757.516 1382 776C1347.44 692.99 1304.75 613.142 1268.14 531C1259.49 511.601 1250.92 491.621 1240.69 473C1235.81 464.126 1226.81 454.967 1228.19 444C1230.63 424.685 1264.67 424.119 1279 424L1279 352L948 352L948 424C979.793 424.088 1020.07 428.281 1045 450.184C1060.21 463.552 1068.03 480.977 1076.31 499C1086.75 521.737 1097.36 544.479 1108.26 567C1151.25 655.855 1191.27 746.148 1234.26 835C1252.18 872.04 1270.67 909.234 1287 947C1291.67 957.799 1305.01 975.125 1304.27 987C1303.62 997.525 1296.14 1010.15 1292.42 1020L1265.42 1092C1247.84 1138.61 1230.16 1185.22 1213.05 1232C1204.94 1254.19 1198.65 1278.7 1188.68 1300C1181.64 1315.02 1165.68 1323.03 1151 1328.8C1116.92 1342.18 1079.81 1342.42 1044 1345.83C1033.99 1346.78 1013.97 1341.64 1005.5 1347.32C1001.41 1350.06 999.752 1358.62 998 1363C992.056 1377.86 984.612 1393.4 981 1409L1672 1409L1854 1409L1902 1409L1920.36 1407.97L1931.74 1386L1959.42 1327L2052 1130L2002 1130C1996.76 1130 1986.94 1128.12 1982.39 1131.03C1977.04 1134.44 1974.5 1145.5 1971.75 1151C1963 1168.51 1954.32 1186.01 1944.58 1203C1914.85 1254.86 1874.69 1310.31 1818 1334.57C1768.4 1355.8 1706.79 1347 1654 1347L1334 1347C1349.25 1314.39 1359.71 1278.7 1372.42 1245C1380.13 1224.56 1392.77 1201.59 1396 1180L1397 1180C1404.96 1207.63 1423.88 1235.25 1436.75 1261C1439.91 1267.32 1444.85 1284.32 1451.39 1287.4C1457.89 1290.45 1470.08 1287.83 1477 1287.17C1491.42 1285.8 1506.51 1287 1521 1287C1534.31 1287 1547.63 1288 1561 1288C1565.27 1288 1572.67 1289.5 1575.64 1285.68C1579.74 1280.4 1581.8 1272.14 1584.42 1266C1590.39 1252.01 1596.25 1237.97 1602.28 1224C1623.08 1175.79 1643.27 1127.31 1663.85 1079C1729.57 924.716 1794.29 769.979 1860.72 616C1877.94 576.093 1894.5 535.906 1911.72 496C1921.18 474.076 1928.76 450.326 1946.04 433.039C1972.1 406.971 2011.19 398 2047 398L2047 333L1762 333M1934 1534L1934 1660L1951 1660L1951 1574L1952 1574L1970.91 1595L2014.99 1641L2040 1665L2040 1540L2023 1540L2023 1626L1964 1564L1934 1534M1066 1538.44C1009.26 1547.3 991.355 1628.4 1045 1655.63C1057.91 1662.18 1072.84 1663.75 1087 1661.7C1094.45 1660.62 1101.43 1657.79 1108 1654.21C1167.44 1621.79 1130.43 1528.38 1066 1538.44M1302 1624L1285 1628C1287.43 1639.76 1292.48 1650.81 1303 1657.44C1330.89 1675.03 1362.32 1651 1360.96 1621C1360.01 1600.15 1340.05 1592.71 1324 1585.11C1316.2 1581.42 1305.34 1575.37 1308.51 1565.01C1311.91 1553.93 1327.25 1552.2 1336 1556.92C1339.12 1558.6 1342.55 1563.2 1346.17 1563.41C1350.04 1563.63 1354.7 1559.74 1358 1558C1350.97 1528.44 1299.8 1533.24 1292.49 1560C1287.01 1580.04 1300.8 1593.62 1318 1601C1328.43 1605.47 1343.48 1611.65 1344.24 1625C1345.9 1653.91 1303.29 1652.23 1302 1624M1852 1538.44C1789.36 1548.22 1777.46 1639.26 1840 1659.64C1850.28 1662.99 1862.38 1663.23 1873 1661.56C1881.16 1660.28 1889.14 1657.24 1896 1652.64C1949.22 1616.96 1916.27 1528.4 1852 1538.44M961 1540L961 1660L1013 1660L1013 1646L976 1646L976 1540L961 1540M1148 1540L1148 1600C1148 1613.28 1147.21 1627.78 1153.38 1640C1168.46 1669.89 1215.36 1670.09 1231.1 1641C1237.61 1628.96 1237 1614.26 1237 1601L1237 1540L1220 1540L1220 1605C1220 1617.3 1220.23 1630.4 1210.81 1639.81C1197.55 1653.08 1174.41 1647.19 1168.09 1630C1164 1618.87 1165 1606.63 1165 1595L1165 1540L1148 1540M1255 1540L1255 1660L1271 1660L1271 1540L1255 1540M1409 1540L1423 1577L1460 1667L1462 1667C1471.79 1638.25 1484.95 1609.95 1496.85 1582C1502.28 1569.24 1511.62 1553.82 1513 1540L1495.5 1541.74L1485.72 1564L1461 1625L1436.2 1564L1425.58 1541.03L1409 1540M1520 1540L1520 1602C1520 1615 1518.7 1627.94 1524.49 1640C1538.65 1669.48 1586 1670.55 1601.69 1642C1608.54 1629.53 1608 1614.78 1608 1601L1608 1540L1592 1540L1592 1595C1592 1606.35 1592.67 1619.28 1588.37 1630C1581.56 1646.97 1558.66 1653.29 1545.19 1639.81C1536.56 1631.19 1536 1617.45 1536 1606L1536 1540L1520 1540M1626 1540L1626 1660L1643 1660L1643 1540L1626 1540M1680 1556L1680 1660L1696 1660L1696 1556L1751 1556L1752 1660L1769 1660L1769 1556L1796 1556L1796 1540L1694 1540C1683.45 1540 1662.75 1535.96 1653.32 1540.6C1649.69 1542.39 1649.69 1553.61 1653.32 1555.4C1659.75 1558.56 1672.85 1556 1680 1556z"/>
<path style="fill:#47714d; stroke:none;" d="M1067 1554.46C1008.13 1565.06 1024.67 1657.03 1083 1646.54C1141.83 1635.95 1126.22 1543.81 1067 1554.46M1853 1554.44C1846.67 1555.43 1840.36 1557.54 1835 1561.1C1793.82 1588.47 1819.62 1653.67 1868 1646.7C1927.1 1638.18 1912.11 1545.13 1853 1554.44z"/>
</svg>
