<?xml version="1.0" standalone="yes"?>
<svg xmlns="http://www.w3.org/2000/svg" width="348" height="248">
<path style="fill:#f7f7f7; stroke:none;" d="M0 0L0 248L348 248L348 0L0 0z"/>
<path style="fill:#b5b5b5; stroke:none;" d="M211 100L212 101L211 100M213 100L214 101L213 100M215 100L216 101L215 100M226 100L227 101L226 100M228 100L229 101L228 100M230 100L231 101L230 100M232 100L233 101L232 100M235 100L236 101L235 100M22 101L27 107L22 101z"/>
<path style="fill:#716f6f; stroke:none;" d="M23 101L23 102L63 102C52.488 97.589 34.4341 101 23 101z"/>
<path style="fill:#b5b5b5; stroke:none;" d="M63 101L64 102L63 101z"/>
<path style="fill:#716f6f; stroke:none;" d="M82 101L83 102L82 101z"/>
<path style="fill:#373535; stroke:none;" d="M83 103L86 102L83 103z"/>
<path style="fill:#716f6f; stroke:none;" d="M86 101L87 102L86 101z"/>
<path style="fill:#373535; stroke:none;" d="M87 101L85 104C89.4885 114.593 89.1548 136.951 86 148L102 148L102 147L100 147L100 146L104 147L104 146C99.1723 141.392 100.519 137.089 101 131L107 134L106 128L123 130L122 128L125 129L124 127L127 128L131 124L130 121L133 120L133 111L129 104L121 103L122 101C117.453 101 94.6814 98.9113 94 103L90 101L91 103L90 103L87 101z"/>
<path style="fill:#716f6f; stroke:none;" d="M89 101L90 102L89 101M92 101L93 102L92 101M122.667 101.333L123.333 101.667L122.667 101.333z"/>
<path style="fill:#b5b5b5; stroke:none;" d="M124 101L125 102L124 101z"/>
<path style="fill:#716f6f; stroke:none;" d="M157 101L158 102L157 101z"/>
<path style="fill:#252123; stroke:none;" d="M158 101L159 102L158 101z"/>
<path style="fill:#373535; stroke:none;" d="M159 103L162 102L161 105L164 109C168.813 110.127 166.337 115.298 167 119L168 119L168 116L171 117L173 125L176 130L178 129L162 131L162 132C168.78 133.75 180.659 130.015 182 140L184 143L186 146L198 146L197 140L195 141L196 138C192.708 137.572 191.875 134.098 192 131L190 132L191 129C187.639 128.218 186.872 125.269 187 122L185 123L186 120C182.639 119.218 181.872 116.269 182 113L180 114L181 111C177.512 111 176.762 107.013 177 104L175 105L176 102C171.568 100.69 162.297 99.2265 159 103z"/>
<path style="fill:#b5b5b5; stroke:none;" d="M175 101L176 102L175 101z"/>
<path style="fill:#373535; stroke:none;" d="M210 101L211 102L210 101z"/>
<path style="fill:#252123; stroke:none;" d="M211 101L211 102C219.122 106.096 217.885 133.633 215.682 141.956C214.868 145.031 212.752 146.033 210 147L210 148L216.258 144.721L217 132L216 102C232.808 106.179 249.217 96.4394 259 117C259.917 111.354 253.63 106.033 249 103.709C238.23 98.3041 222.747 101 211 101z"/>
<path style="fill:#373535; stroke:none;" d="M243 101L244 102L243 101z"/>
<path style="fill:#716f6f; stroke:none;" d="M244 101L245 102L244 101z"/>
<path style="fill:#b5b5b5; stroke:none;" d="M245 101L246 102L245 101z"/>
<path style="fill:#716f6f; stroke:none;" d="M278 101L280 103L278 101z"/>
<path style="fill:#373535; stroke:none;" d="M279 101L280 103L281 103L282 101L279 101z"/>
<path style="fill:#716f6f; stroke:none;" d="M282 101L283 102L282 101z"/>
<path style="fill:#373535; stroke:none;" d="M283 101L284 102L283 101z"/>
<path style="fill:#716f6f; stroke:none;" d="M284 101L285 102L284 101z"/>
<path style="fill:#373535; stroke:none;" d="M285 101L286 102L285 101z"/>
<path style="fill:#716f6f; stroke:none;" d="M286 101L287 102L286 101z"/>
<path style="fill:#373535; stroke:none;" d="M287 101L288 102L287 101z"/>
<path style="fill:#716f6f; stroke:none;" d="M288 101L289 102L288 101z"/>
<path style="fill:#373535; stroke:none;" d="M289 101L290 102L289 101z"/>
<path style="fill:#716f6f; stroke:none;" d="M290 101L291 102L290 101z"/>
<path style="fill:#373535; stroke:none;" d="M291 101L292 102L291 101z"/>
<path style="fill:#716f6f; stroke:none;" d="M292 101L293 102L292 101z"/>
<path style="fill:#373535; stroke:none;" d="M293 101L294 102L293 101z"/>
<path style="fill:#716f6f; stroke:none;" d="M294 101L295 102L294 101z"/>
<path style="fill:#373535; stroke:none;" d="M295 101L296 102L295 101z"/>
<path style="fill:#b5b5b5; stroke:none;" d="M296 101L297 102L296 101z"/>
<path style="fill:#252123; stroke:none;" d="M23 102L23 103L28 107L26 103C37.9425 103 67.8246 100.355 60.2623 120.998C59.3331 123.535 57.4595 125.754 56 128C63.3617 122.514 65.2123 108.79 56 104L56 103C65.3997 103.085 72.9596 108.918 71 119C75.2925 113.245 70.3286 104.663 63.9961 102.653C52.2851 98.9351 35.2719 102 23 102z"/>
<path style="fill:#373535; stroke:none;" d="M64 102L65 103L64 102z"/>
<path style="fill:#b5b5b5; stroke:none;" d="M65 102L66 103L65 102z"/>
<path style="fill:#252123; stroke:none;" d="M84 102L84 103L88 103L84 102M89.6667 102.333L90.3333 102.667L89.6667 102.333M92.6667 102.333L93.3333 102.667L92.6667 102.333M99 103L99 104C108.975 103.017 119.853 102.355 121 115L122 115L117 102L99 103M119 102L120 103L119 102M121 102L121 103L128 105L121 102z"/>
<path style="fill:#716f6f; stroke:none;" d="M125 102L126 103L125 102z"/>
<path style="fill:#b5b5b5; stroke:none;" d="M158 102L159 103L158 102z"/>
<path style="fill:#252123; stroke:none;" d="M160 102L162 104L162 102L160 102M174 102L175 103L174 102z"/>
<path style="fill:#b5b5b5; stroke:none;" d="M210 102L210 103L213 103L210 102z"/>
<path style="fill:#716f6f; stroke:none;" d="M213 102L214 103L213 102z"/>
<path style="fill:#373535; stroke:none;" d="M216 102C217.992 112.729 217.004 124.117 217 135C216.998 139.816 217.554 144.339 213 147L213 148L243 148L243 147L228 147C231.267 135.948 231.267 114.052 228 103C232.023 103 237.797 101.811 237 105C239.95 104.017 240.622 103.513 240 106L243 105L243 108C246.584 108 245 112.165 245 115L246 115L246 110L247 110C247 117.45 249.595 130.935 245 137L246 140L244 139L240 143L238 145L238 146L248 146L247 144L250 145L259 136L260 134L261 117C257.384 113.497 255.307 108.826 250.985 105.969C240.359 98.9446 227.71 103.632 216 102M246 102L247 103L246 102z"/>
<path style="fill:#b5b5b5; stroke:none;" d="M247 102L248 103L247 102z"/>
<path style="fill:#252123; stroke:none;" d="M281 102C282.891 105.32 286.787 109.086 287.096 113C287.843 122.437 275.358 138.718 271 147L277 148C274.436 137.554 285.188 126.154 289 117L291 117L298 131L299 131C297.23 126.166 293.761 116.904 288 117C289.28 111.014 286.624 107.586 283 103L297 104L281 102z"/>
<path style="fill:#716f6f; stroke:none;" d="M296 102L297 103L296 102z"/>
<path style="fill:#373535; stroke:none;" d="M24 103L25 104L24 103M26 103L28 145L26 144L26 147L42 147L42 144L41 134L39 135L41 131L40 103L26 103M56 103L56 104C64.7038 110.836 62.8965 120.704 56 128L57 126L56 126L55 129L64 130L73 118L71 119C73.9394 108.305 65.5288 103.027 56 103M66 103L67 104L66 103z"/>
<path style="fill:#b5b5b5; stroke:none;" d="M67 103L68 104L67 103z"/>
<path style="fill:#716f6f; stroke:none;" d="M84 103L85 104L84 103z"/>
<path style="fill:#373535; stroke:none;" d="M100.667 103.333L101.333 103.667L100.667 103.333M103 103L104 104L103 103M105 103L106 104L105 103M107 103L108 104L107 103M109 103L110 104L109 103M111 103L112 104L111 103M113.667 103.333L114.333 103.667L113.667 103.333z"/>
<path style="fill:#716f6f; stroke:none;" d="M127 103L128 104L127 103M160 103L161 104L160 103z"/>
<path style="fill:#252123; stroke:none;" d="M175.333 103.667L175.667 104.333L175.333 103.667z"/>
<path style="fill:#b5b5b5; stroke:none;" d="M176 103L177 104L176 103M214 103L215 104L214 103z"/>
<path style="fill:#252123; stroke:none;" d="M228 103L228 104L238 104L228 103z"/>
<path style="fill:#373535; stroke:none;" d="M248 103L249 104L248 103z"/>
<path style="fill:#716f6f; stroke:none;" d="M249 103L250 104L249 103M281 103L282 104L281 103z"/>
<path style="fill:#373535; stroke:none;" d="M283 103L288 117L291 116L299 131L284 131L284 132C289.166 133.527 299.216 130.76 301 137L303 140L305 143L307 146L321 146L321 145L318 145L319 142L317 143L318 140L317 138L315 139L316 136C313.105 135.624 312.761 133.777 313 131L311 131L311 130L312 129C308.969 129 308.928 126.723 309 124L307 125L308 122L307 120L305 121L306 118L303 118L304 115L303 113L301 113L302 111L299 106L298 105L283 103z"/>
<path style="fill:#716f6f; stroke:none;" d="M297 103L298 104L297 103z"/>
<path style="fill:#b5b5b5; stroke:none;" d="M40 104L40 105L55 105L40 104z"/>
<path style="fill:#373535; stroke:none;" d="M55 104L56 105L55 104z"/>
<path style="fill:#b5b5b5; stroke:none;" d="M68 104L69 105L68 104z"/>
<path style="fill:#252123; stroke:none;" d="M86 104L88 106L86 104z"/>
<path style="fill:#f7f7f7; stroke:none;" d="M100 104L100 127C104.759 127 111.602 128.223 115.892 125.821C122.572 122.081 122.572 108.933 115.891 105.179C111.609 102.773 104.753 104 100 104z"/>
<path style="fill:#b5b5b5; stroke:none;" d="M115 104L116 105L115 104z"/>
<path style="fill:#373535; stroke:none;" d="M116 104L117 105L116 104z"/>
<path style="fill:#252123; stroke:none;" d="M162 104L165 108L162 104z"/>
<path style="fill:#716f6f; stroke:none;" d="M215 104L215 145L216 145C216 133.304 219.511 114.75 215 104z"/>
<path style="fill:#b5b5b5; stroke:none;" d="M229 104L229 105L234 105L229 104z"/>
<path style="fill:#716f6f; stroke:none;" d="M234 104L234 105L237 105L234 104z"/>
<path style="fill:#252123; stroke:none;" d="M238 104L238 105L241 105L238 104z"/>
<path style="fill:#b5b5b5; stroke:none;" d="M251 104L252 105L251 104z"/>
<path style="fill:#373535; stroke:none;" d="M282 104L283 105L282 104z"/>
<path style="fill:#f7f7f7; stroke:none;" d="M40 105L40 127C44.643 127 51.7241 128.314 55.8912 125.972C61.7704 122.669 62.5371 109.876 56.6559 106.179C52.4717 103.549 44.7634 105 40 105z"/>
<path style="fill:#b5b5b5; stroke:none;" d="M56 105L57 106L56 105z"/>
<path style="fill:#373535; stroke:none;" d="M57 105L58 106L57 105z"/>
<path style="fill:#b5b5b5; stroke:none;" d="M69 105L70 106L69 105z"/>
<path style="fill:#252123; stroke:none;" d="M98 105L99 106L98 105z"/>
<path style="fill:#373535; stroke:none;" d="M117 105L118 106L117 105z"/>
<path style="fill:#252123; stroke:none;" d="M128 105L131 111L132 111L128 105z"/>
<path style="fill:#716f6f; stroke:none;" d="M129 105L130 106L129 105z"/>
<path style="fill:#b5b5b5; stroke:none;" d="M161 105L162 106L161 105z"/>
<path style="fill:#252123; stroke:none;" d="M176 105L179 112L180 112L176 105z"/>
<path style="fill:#b5b5b5; stroke:none;" d="M177 105L178 106L177 105z"/>
<path style="fill:#f7f7f7; stroke:none;" d="M229 105L229 144C244.457 145.288 245 135.727 245 123C245 118.31 246.126 111.987 242.682 108.228C239.147 104.37 233.741 105.001 229 105z"/>
<path style="fill:#b5b5b5; stroke:none;" d="M239 105L240 106L239 105z"/>
<path style="fill:#252123; stroke:none;" d="M241 105L244 107L241 105z"/>
<path style="fill:#716f6f; stroke:none;" d="M252 105L253 106L252 105z"/>
<path style="fill:#b5b5b5; stroke:none;" d="M282 105L283 106L282 105z"/>
<path style="fill:#252123; stroke:none;" d="M296 105L298 107L298 105L296 105z"/>
<path style="fill:#b5b5b5; stroke:none;" d="M298 105L299 106L298 105z"/>
<path style="fill:#252123; stroke:none;" d="M38 106L39 107L38 106z"/>
<path style="fill:#373535; stroke:none;" d="M58 106L59 107L58 106z"/>
<path style="fill:#b5b5b5; stroke:none;" d="M70 106L71 107L70 106z"/>
<path style="fill:#716f6f; stroke:none;" d="M118 106L119 107L118 106M130 106L131 107L130 106z"/>
<path style="fill:#b5b5b5; stroke:none;" d="M162 106L163 107L162 106z"/>
<path style="fill:#252123; stroke:none;" d="M227 106L228 107L227 106z"/>
<path style="fill:#b5b5b5; stroke:none;" d="M241 106L242 107L241 106z"/>
<path style="fill:#373535; stroke:none;" d="M253 106L255 108L253 106z"/>
<path style="fill:#b5b5b5; stroke:none;" d="M254 106L255 107L254 106M283 106L284 107L283 106M58 107L59 108L58 107z"/>
<path style="fill:#373535; stroke:none;" d="M70 107L71 108L70 107z"/>
<path style="fill:#252123; stroke:none;" d="M88 107L89 108L88 107M98 107L99 108L98 107z"/>
<path style="fill:#373535; stroke:none;" d="M119 107L120 108L119 107z"/>
<path style="fill:#b5b5b5; stroke:none;" d="M131 107L132 108L131 107z"/>
<path style="fill:#716f6f; stroke:none;" d="M163 107L164 108L163 107M178 107L179 108L178 107z"/>
<path style="fill:#b5b5b5; stroke:none;" d="M242 107L243 108L242 107z"/>
<path style="fill:#252123; stroke:none;" d="M244 107L246 110L244 107z"/>
<path style="fill:#716f6f; stroke:none;" d="M284 107L285 108L284 107z"/>
<path style="fill:#252123; stroke:none;" d="M298 107L301 111L298 107z"/>
<path style="fill:#716f6f; stroke:none;" d="M299 107L300 108L299 107z"/>
<path style="fill:#252123; stroke:none;" d="M28 108L29 109L28 108M38 108L39 109L38 108z"/>
<path style="fill:#716f6f; stroke:none;" d="M59 108L60 109L59 108M71 108L72 109L71 108M119 108L120 109L119 108M131 108L132 109L131 108z"/>
<path style="fill:#252123; stroke:none;" d="M165 108C167.58 117.919 156.631 139.457 149 146L149 147L155 147C155.701 132.95 173.439 128.611 182 139L183 139C178.375 130.368 169.333 132.728 161 132C163.145 124.708 171.545 115.08 165 108M227 108L228 109L227 108z"/>
<path style="fill:#b5b5b5; stroke:none;" d="M243 108L244 109L243 108z"/>
<path style="fill:#373535; stroke:none;" d="M255 108L256 109L255 108z"/>
<path style="fill:#716f6f; stroke:none;" d="M285 108L286 109L285 108z"/>
<path style="fill:#b5b5b5; stroke:none;" d="M300 108L301 109L300 108z"/>
<path style="fill:#252123; stroke:none;" d="M88 109L89 110L88 109M98 109L99 110L98 109z"/>
<path style="fill:#716f6f; stroke:none;" d="M179 109L180 110L179 109M244 109L245 110L244 109z"/>
<path style="fill:#373535; stroke:none;" d="M256 109L257 110L256 109z"/>
<path style="fill:#716f6f; stroke:none;" d="M300 109L301 110L300 109z"/>
<path style="fill:#252123; stroke:none;" d="M27 110L28 111L27 110M38 110L39 111L38 110z"/>
<path style="fill:#373535; stroke:none;" d="M60 110L61 111L60 110z"/>
<path style="fill:#b5b5b5; stroke:none;" d="M72 110L73 111L72 110z"/>
<path style="fill:#373535; stroke:none;" d="M120 110L121 111L120 110z"/>
<path style="fill:#716f6f; stroke:none;" d="M132 110L133 111L132 110z"/>
<path style="fill:#b5b5b5; stroke:none;" d="M165 110L166 111L165 110M180 110L181 111L180 110z"/>
<path style="fill:#252123; stroke:none;" d="M227 110L228 111L227 110M246 110L246 137L247 137L246 110z"/>
<path style="fill:#716f6f; stroke:none;" d="M257 110L258 111L257 110z"/>
<path style="fill:#b5b5b5; stroke:none;" d="M286 110L287 111L286 110M301 110L302 111L301 110z"/>
<path style="fill:#252123; stroke:none;" d="M28.3333 111.667L28.6667 112.333L28.3333 111.667z"/>
<path style="fill:#716f6f; stroke:none;" d="M60.3333 111.667L60.6667 112.333L60.3333 111.667M72 111L73 112L72 111z"/>
<path style="fill:#252123; stroke:none;" d="M88 111L89 112L88 111M98 111L99 112L98 111z"/>
<path style="fill:#716f6f; stroke:none;" d="M120 111L121 112L120 111M166 111L166 114L167 114L166 111z"/>
<path style="fill:#b5b5b5; stroke:none;" d="M258 111L259 112L258 111z"/>
<path style="fill:#716f6f; stroke:none;" d="M287 111L288 112L287 111z"/>
<path style="fill:#252123; stroke:none;" d="M38 112L39 113L38 112z"/>
<path style="fill:#373535; stroke:none;" d="M72 112L73 113L72 112z"/>
<path style="fill:#b5b5b5; stroke:none;" d="M120 112L121 113L120 112z"/>
<path style="fill:#252123; stroke:none;" d="M132 112L132 119L133 119L132 112z"/>
<path style="fill:#b5b5b5; stroke:none;" d="M133 112L133 115L134 115L133 112z"/>
<path style="fill:#252123; stroke:none;" d="M180.333 112.667L180.667 113.333L180.333 112.667z"/>
<path style="fill:#b5b5b5; stroke:none;" d="M181 112L182 113L181 112z"/>
<path style="fill:#252123; stroke:none;" d="M227 112L228 113L227 112z"/>
<path style="fill:#373535; stroke:none;" d="M258 112L259 113L258 112z"/>
<path style="fill:#b5b5b5; stroke:none;" d="M287 112L288 113L287 112z"/>
<path style="fill:#252123; stroke:none;" d="M301 112L302 113L301 112z"/>
<path style="fill:#716f6f; stroke:none;" d="M302 112L303 113L302 112z"/>
<path style="fill:#b5b5b5; stroke:none;" d="M60.3333 113.667L60.6667 114.333L60.3333 113.667z"/>
<path style="fill:#252123; stroke:none;" d="M88 113L89 114L88 113M98 113L99 114L98 113z"/>
<path style="fill:#b5b5b5; stroke:none;" d="M259 113L260 114L259 113z"/>
<path style="fill:#716f6f; stroke:none;" d="M287 113L288 114L287 113z"/>
<path style="fill:#252123; stroke:none;" d="M27 114L28 115L27 114M38 114L39 115L38 114z"/>
<path style="fill:#b5b5b5; stroke:none;" d="M73 114L73 118L74 118L73 114z"/>
<path style="fill:#252123; stroke:none;" d="M181 114L184 121L185 121L181 114z"/>
<path style="fill:#716f6f; stroke:none;" d="M182 114L183 115L182 114z"/>
<path style="fill:#252123; stroke:none;" d="M227 114L228 115L227 114z"/>
<path style="fill:#373535; stroke:none;" d="M259 114L260 115L259 114M287 114L288 115L287 114z"/>
<path style="fill:#252123; stroke:none;" d="M302 114L303 115L302 114z"/>
<path style="fill:#716f6f; stroke:none;" d="M303 114L304 115L303 114z"/>
<path style="fill:#252123; stroke:none;" d="M28 115L29 116L28 115M88 115L89 116L88 115M98 115L99 116L98 115z"/>
<path style="fill:#716f6f; stroke:none;" d="M133.333 115.667L133.667 116.333L133.333 115.667M165 115L166 116L165 115M245 115L245 137L246 137L245 115z"/>
<path style="fill:#b5b5b5; stroke:none;" d="M260 115L261 116L260 115z"/>
<path style="fill:#716f6f; stroke:none;" d="M286 115L287 116L286 115z"/>
<path style="fill:#252123; stroke:none;" d="M38 116L39 117L38 116M122 116L123 117L122 116z"/>
<path style="fill:#b5b5b5; stroke:none;" d="M164 116L165 117L164 116z"/>
<path style="fill:#252123; stroke:none;" d="M168 116L167 118L168 116z"/>
<path style="fill:#716f6f; stroke:none;" d="M183 116L184 117L183 116z"/>
<path style="fill:#252123; stroke:none;" d="M227 116L228 117L227 116z"/>
<path style="fill:#716f6f; stroke:none;" d="M260 116L261 117L260 116z"/>
<path style="fill:#373535; stroke:none;" d="M286 116L287 117L286 116z"/>
<path style="fill:#252123; stroke:none;" d="M303 116L305 119L303 116z"/>
<path style="fill:#716f6f; stroke:none;" d="M304 116L305 117L304 116z"/>
<path style="fill:#252123; stroke:none;" d="M28 117L29 118L28 117M88 117L89 118L88 117M98 117L99 118L98 117z"/>
<path style="fill:#b5b5b5; stroke:none;" d="M133.333 117.667L133.667 118.333L133.333 117.667z"/>
<path style="fill:#716f6f; stroke:none;" d="M164 117L165 118L164 117M168 117L169 118L168 117z"/>
<path style="fill:#252123; stroke:none;" d="M170 117L173 124L174 124L170 117z"/>
<path style="fill:#b5b5b5; stroke:none;" d="M285 117L286 118L285 117z"/>
<path style="fill:#373535; stroke:none;" d="M287 117L288 118L287 117z"/>
<path style="fill:#716f6f; stroke:none;" d="M289.667 117.333L290.333 117.667L289.667 117.333z"/>
<path style="fill:#b5b5b5; stroke:none;" d="M305 117L306 118L305 117z"/>
<path style="fill:#252123; stroke:none;" d="M27 118L28 119L27 118M38 118L39 119L38 118z"/>
<path style="fill:#b5b5b5; stroke:none;" d="M60.3333 118.667L60.6667 119.333L60.3333 118.667z"/>
<path style="fill:#252123; stroke:none;" d="M121 118L115 127L115 128C119.042 126.068 122.619 122.736 121 118z"/>
<path style="fill:#f7f7f7; stroke:none;" d="M168 118L162 131L176 131L168 118z"/>
<path style="fill:#b5b5b5; stroke:none;" d="M169 118L170 119L169 118z"/>
<path style="fill:#716f6f; stroke:none;" d="M184 118L185 119L184 118z"/>
<path style="fill:#252123; stroke:none;" d="M227 118L228 119L227 118M260 118L259 133L260 133L260 118z"/>
<path style="fill:#373535; stroke:none;" d="M285 118L286 119L285 118M288 118L289 119L288 118z"/>
<path style="fill:#f7f7f7; stroke:none;" d="M289 118L283 131L297 131L289 118z"/>
<path style="fill:#b5b5b5; stroke:none;" d="M290 118L291 119L290 118z"/>
<path style="fill:#252123; stroke:none;" d="M88 119L89 120L88 119M98 119L99 120L98 119z"/>
<path style="fill:#b5b5b5; stroke:none;" d="M120 119L121 120L120 119z"/>
<path style="fill:#716f6f; stroke:none;" d="M163 119L164 120L163 119z"/>
<path style="fill:#373535; stroke:none;" d="M165 119L166 120L165 119z"/>
<path style="fill:#716f6f; stroke:none;" d="M170 119L171 120L170 119z"/>
<path style="fill:#b5b5b5; stroke:none;" d="M185 119L186 120L185 119M261 119L261 129L262 129L261 119z"/>
<path style="fill:#716f6f; stroke:none;" d="M284 119L285 120L284 119z"/>
<path style="fill:#373535; stroke:none;" d="M286 119L287 120L286 119z"/>
<path style="fill:#b5b5b5; stroke:none;" d="M288 119L289 120L288 119z"/>
<path style="fill:#373535; stroke:none;" d="M291 119L292 120L291 119z"/>
<path style="fill:#252123; stroke:none;" d="M305.333 119.667L305.667 120.333L305.333 119.667z"/>
<path style="fill:#b5b5b5; stroke:none;" d="M306 119L307 120L306 119z"/>
<path style="fill:#252123; stroke:none;" d="M28 120L29 121L28 120M38.3333 120.667L38.6667 121.333L38.3333 120.667z"/>
<path style="fill:#716f6f; stroke:none;" d="M60 120L61 121L60 120z"/>
<path style="fill:#252123; stroke:none;" d="M71 120L63 128L63 129C67.0814 127.609 71.6399 124.8 71 120z"/>
<path style="fill:#716f6f; stroke:none;" d="M72 120L73 121L72 120M120 120L121 121L120 120z"/>
<path style="fill:#252123; stroke:none;" d="M131 120L130 123L131 120z"/>
<path style="fill:#b5b5b5; stroke:none;" d="M132 120L133 121L132 120z"/>
<path style="fill:#373535; stroke:none;" d="M163 120L164 121L163 120z"/>
<path style="fill:#716f6f; stroke:none;" d="M166 120L167 121L166 120z"/>
<path style="fill:#b5b5b5; stroke:none;" d="M170 120L171 121L170 120z"/>
<path style="fill:#252123; stroke:none;" d="M227 120L228 121L227 120z"/>
<path style="fill:#373535; stroke:none;" d="M284 120L285 121L284 120M287 120L288 121L287 120z"/>
<path style="fill:#b5b5b5; stroke:none;" d="M291 120L292 121L291 120z"/>
<path style="fill:#373535; stroke:none;" d="M60 121L61 122L60 121z"/>
<path style="fill:#252123; stroke:none;" d="M88 121L89 122L88 121M98 121L99 122L98 121z"/>
<path style="fill:#373535; stroke:none;" d="M120 121L121 122L120 121z"/>
<path style="fill:#716f6f; stroke:none;" d="M162 121L163 122L162 121z"/>
<path style="fill:#373535; stroke:none;" d="M164 121L165 122L164 121z"/>
<path style="fill:#b5b5b5; stroke:none;" d="M166 121L167 122L166 121z"/>
<path style="fill:#716f6f; stroke:none;" d="M171 121L172 122L171 121z"/>
<path style="fill:#252123; stroke:none;" d="M185.333 121.667L185.667 122.333L185.333 121.667z"/>
<path style="fill:#b5b5b5; stroke:none;" d="M186 121L187 122L186 121M283 121L284 122L283 121z"/>
<path style="fill:#373535; stroke:none;" d="M285 121L286 122L285 121z"/>
<path style="fill:#b5b5b5; stroke:none;" d="M287 121L288 122L287 121z"/>
<path style="fill:#716f6f; stroke:none;" d="M292 121L293 122L292 121z"/>
<path style="fill:#252123; stroke:none;" d="M306 121L307 122L306 121z"/>
<path style="fill:#716f6f; stroke:none;" d="M307 121L308 122L307 121z"/>
<path style="fill:#252123; stroke:none;" d="M28 122L29 123L28 122z"/>
<path style="fill:#b5b5b5; stroke:none;" d="M59 122L60 123L59 122z"/>
<path style="fill:#716f6f; stroke:none;" d="M71 122L72 123L71 122z"/>
<path style="fill:#252123; stroke:none;" d="M99 122L100 123L99 122z"/>
<path style="fill:#b5b5b5; stroke:none;" d="M119 122L120 123L119 122z"/>
<path style="fill:#716f6f; stroke:none;" d="M131 122L132 123L131 122z"/>
<path style="fill:#373535; stroke:none;" d="M165 122L166 123L165 122z"/>
<path style="fill:#252123; stroke:none;" d="M227 122L228 123L227 122z"/>
<path style="fill:#373535; stroke:none;" d="M283 122L284 123L283 122M286 122L287 123L286 122z"/>
<path style="fill:#252123; stroke:none;" d="M38 123L39 124L38 123z"/>
<path style="fill:#373535; stroke:none;" d="M59 123L60 124L59 123z"/>
<path style="fill:#252123; stroke:none;" d="M88 123L89 124L88 123M98 123L99 124L98 123z"/>
<path style="fill:#373535; stroke:none;" d="M119 123L120 124L119 123z"/>
<path style="fill:#252123; stroke:none;" d="M129 123L127 126L129 123z"/>
<path style="fill:#716f6f; stroke:none;" d="M161 123L162 124L161 123z"/>
<path style="fill:#373535; stroke:none;" d="M163 123L164 124L163 123z"/>
<path style="fill:#716f6f; stroke:none;" d="M172 123L173 124L172 123z"/>
<path style="fill:#252123; stroke:none;" d="M186 123L189 130L190 130L186 123z"/>
<path style="fill:#716f6f; stroke:none;" d="M187 123L188 124L187 123z"/>
<path style="fill:#b5b5b5; stroke:none;" d="M282 123L283 124L282 123z"/>
<path style="fill:#373535; stroke:none;" d="M284 123L285 124L284 123z"/>
<path style="fill:#b5b5b5; stroke:none;" d="M286 123L287 124L286 123z"/>
<path style="fill:#716f6f; stroke:none;" d="M293 123L294 124L293 123z"/>
<path style="fill:#252123; stroke:none;" d="M307.333 123.667L307.667 124.333L307.333 123.667z"/>
<path style="fill:#716f6f; stroke:none;" d="M308 123L309 124L308 123z"/>
<path style="fill:#252123; stroke:none;" d="M28 124L29 125L28 124z"/>
<path style="fill:#716f6f; stroke:none;" d="M58 124L59 125L58 124z"/>
<path style="fill:#b5b5b5; stroke:none;" d="M70 124L71 125L70 124z"/>
<path style="fill:#373535; stroke:none;" d="M118 124L119 125L118 124z"/>
<path style="fill:#b5b5b5; stroke:none;" d="M130 124L131 125L130 124z"/>
<path style="fill:#373535; stroke:none;" d="M161 124L162 125L161 124z"/>
<path style="fill:#716f6f; stroke:none;" d="M164 124L165 125L164 124z"/>
<path style="fill:#252123; stroke:none;" d="M174 124L176 129L177 129L174 124M227 124L228 125L227 124z"/>
<path style="fill:#373535; stroke:none;" d="M282 124L283 125L282 124z"/>
<path style="fill:#716f6f; stroke:none;" d="M285 124L286 125L285 124z"/>
<path style="fill:#373535; stroke:none;" d="M294 124L295 125L294 124z"/>
<path style="fill:#252123; stroke:none;" d="M38 125L39 126L38 125z"/>
<path style="fill:#716f6f; stroke:none;" d="M57 125L58 126L57 125M69 125L70 126L69 125z"/>
<path style="fill:#252123; stroke:none;" d="M88 125L89 126L88 125M98 125L99 126L98 125z"/>
<path style="fill:#373535; stroke:none;" d="M117 125L118 126L117 125z"/>
<path style="fill:#b5b5b5; stroke:none;" d="M129 125L130 126L129 125z"/>
<path style="fill:#716f6f; stroke:none;" d="M160 125L161 126L160 125z"/>
<path style="fill:#373535; stroke:none;" d="M163 125L164 126L163 125z"/>
<path style="fill:#b5b5b5; stroke:none;" d="M173 125L174 126L173 125z"/>
<path style="fill:#716f6f; stroke:none;" d="M188 125L189 126L188 125z"/>
<path style="fill:#b5b5b5; stroke:none;" d="M281 125L282 126L281 125M285 125L286 126L285 125M294 125L295 126L294 125z"/>
<path style="fill:#252123; stroke:none;" d="M308 125L310 130L311 130L308 125z"/>
<path style="fill:#716f6f; stroke:none;" d="M309 125L310 126L309 125z"/>
<path style="fill:#252123; stroke:none;" d="M28 126L29 127L28 126z"/>
<path style="fill:#b5b5b5; stroke:none;" d="M68 126L69 127L68 126M115 126L116 127L115 126z"/>
<path style="fill:#373535; stroke:none;" d="M116 126L117 127L116 126z"/>
<path style="fill:#252123; stroke:none;" d="M126 126L127 127L126 126z"/>
<path style="fill:#b5b5b5; stroke:none;" d="M128 126L129 127L128 126z"/>
<path style="fill:#373535; stroke:none;" d="M161 126L162 127L161 126z"/>
<path style="fill:#716f6f; stroke:none;" d="M163 126L164 127L163 126M174 126L175 127L174 126z"/>
<path style="fill:#252123; stroke:none;" d="M227 126L228 127L227 126z"/>
<path style="fill:#373535; stroke:none;" d="M281 126L282 127L281 126z"/>
<path style="fill:#716f6f; stroke:none;" d="M284 126L285 127L284 126M295 126L296 127L295 126z"/>
<path style="fill:#b5b5b5; stroke:none;" d="M310 126L311 127L310 126z"/>
<path style="fill:#716f6f; stroke:none;" d="M40 127L40 128L55 128L40 127z"/>
<path style="fill:#b5b5b5; stroke:none;" d="M67 127L68 128L67 127z"/>
<path style="fill:#252123; stroke:none;" d="M88 127L89 128L88 127M99 127L100 128L99 127M124.667 127.333L125.333 127.667L124.667 127.333z"/>
<path style="fill:#716f6f; stroke:none;" d="M159 127L160 128L159 127z"/>
<path style="fill:#373535; stroke:none;" d="M162 127L163 128L162 127z"/>
<path style="fill:#b5b5b5; stroke:none;" d="M174 127L175 128L174 127z"/>
<path style="fill:#716f6f; stroke:none;" d="M189 127L190 128L189 127z"/>
<path style="fill:#b5b5b5; stroke:none;" d="M280 127L281 128L280 127z"/>
<path style="fill:#373535; stroke:none;" d="M283 127L284 128L283 127z"/>
<path style="fill:#b5b5b5; stroke:none;" d="M295 127L296 128L295 127z"/>
<path style="fill:#716f6f; stroke:none;" d="M310 127L311 128L310 127z"/>
<path style="fill:#252123; stroke:none;" d="M28 128L29 129L28 128M40 128L40 129L63 130L40 128z"/>
<path style="fill:#716f6f; stroke:none;" d="M65 128L66 129L65 128z"/>
<path style="fill:#252123; stroke:none;" d="M102 128L103 129L102 128M104 128L105 129L104 128M106 128L122 130L122 129L106 128M122.667 128.333L123.333 128.667L122.667 128.333z"/>
<path style="fill:#b5b5b5; stroke:none;" d="M125 128L126 129L125 128z"/>
<path style="fill:#373535; stroke:none;" d="M159 128L160 129L159 128z"/>
<path style="fill:#b5b5b5; stroke:none;" d="M162 128L163 129L162 128z"/>
<path style="fill:#716f6f; stroke:none;" d="M175 128L176 129L175 128z"/>
<path style="fill:#b5b5b5; stroke:none;" d="M190 128L191 129L190 128z"/>
<path style="fill:#252123; stroke:none;" d="M227 128L228 129L227 128z"/>
<path style="fill:#373535; stroke:none;" d="M280 128L281 129L280 128z"/>
<path style="fill:#b5b5b5; stroke:none;" d="M283 128L284 129L283 128z"/>
<path style="fill:#716f6f; stroke:none;" d="M296 128L297 129L296 128z"/>
<path style="fill:#b5b5b5; stroke:none;" d="M311 128L312 129L311 128z"/>
<path style="fill:#373535; stroke:none;" d="M50 130L50 131L61 131L50 130z"/>
<path style="fill:#252123; stroke:none;" d="M88 129L89 130L88 129z"/>
<path style="fill:#716f6f; stroke:none;" d="M123 129L124 130L123 129z"/>
<path style="fill:#b5b5b5; stroke:none;" d="M158 129L159 130L158 129z"/>
<path style="fill:#373535; stroke:none;" d="M161 129L162 130L161 129z"/>
<path style="fill:#252123; stroke:none;" d="M177.333 129.667L177.667 130.333L177.333 129.667z"/>
<path style="fill:#b5b5b5; stroke:none;" d="M279 129L280 130L279 129z"/>
<path style="fill:#373535; stroke:none;" d="M282 129L283 130L282 129M297 129L298 130L297 129z"/>
<path style="fill:#252123; stroke:none;" d="M28 130L29 131L28 130M39 130L39 135L40 135L39 130z"/>
<path style="fill:#716f6f; stroke:none;" d="M41 130L41 131L44 131L41 130z"/>
<path style="fill:#373535; stroke:none;" d="M44 130L45 131L44 130z"/>
<path style="fill:#716f6f; stroke:none;" d="M45 130L46 131L45 130z"/>
<path style="fill:#373535; stroke:none;" d="M46 130L47 131L46 130z"/>
<path style="fill:#716f6f; stroke:none;" d="M47 130L48 131L47 130z"/>
<path style="fill:#373535; stroke:none;" d="M48 130L49 131L48 130z"/>
<path style="fill:#716f6f; stroke:none;" d="M49 130L50 131L49 130M61 130L62 131L61 130z"/>
<path style="fill:#252123; stroke:none;" d="M102 130L104 132L102 130z"/>
<path style="fill:#716f6f; stroke:none;" d="M106 130L107 131L106 130z"/>
<path style="fill:#b5b5b5; stroke:none;" d="M107 130L109 133L107 130z"/>
<path style="fill:#716f6f; stroke:none;" d="M108 130L108 131L121 131L108 130z"/>
<path style="fill:#b5b5b5; stroke:none;" d="M121 130L122 131L121 130z"/>
<path style="fill:#373535; stroke:none;" d="M158 130L159 131L158 130z"/>
<path style="fill:#b5b5b5; stroke:none;" d="M161 130L162 131L161 130z"/>
<path style="fill:#716f6f; stroke:none;" d="M176 130L177 131L176 130z"/>
<path style="fill:#252123; stroke:none;" d="M190.333 130.667L190.667 131.333L190.333 130.667z"/>
<path style="fill:#b5b5b5; stroke:none;" d="M191 130L192 131L191 130z"/>
<path style="fill:#252123; stroke:none;" d="M227 130L228 131L227 130z"/>
<path style="fill:#373535; stroke:none;" d="M260 130L261 131L260 130M279 130L280 131L279 130z"/>
<path style="fill:#b5b5b5; stroke:none;" d="M282 130L283 131L282 130M297 130L298 131L297 130z"/>
<path style="fill:#252123; stroke:none;" d="M311 130L312 131L311 130z"/>
<path style="fill:#716f6f; stroke:none;" d="M312 130L313 131L312 130M40 131L40 134L41 134L40 131z"/>
<path style="fill:#252123; stroke:none;" d="M88 131L89 132L88 131z"/>
<path style="fill:#716f6f; stroke:none;" d="M157 131L158 132L157 131z"/>
<path style="fill:#373535; stroke:none;" d="M159 131L158 134L161 132L159 131z"/>
<path style="fill:#716f6f; stroke:none;" d="M161 131L162 132L161 131M260 131L261 132L260 131z"/>
<path style="fill:#b5b5b5; stroke:none;" d="M278 131L279 132L278 131z"/>
<path style="fill:#373535; stroke:none;" d="M280 131L279 134L284 135L284 134L281 134L281 133L283 131L280 131z"/>
<path style="fill:#716f6f; stroke:none;" d="M283 131L284 132L283 131z"/>
<path style="fill:#252123; stroke:none;" d="M28 132L29 133L28 132M99 132L100 133L99 132M104 132C113.632 144.585 124.026 148 139 148L127 138L136 147C123.715 145.689 118.542 143.783 109 135L126 137L106 132L107 134L104 132z"/>
<path style="fill:#373535; stroke:none;" d="M157 132L158 133L157 132z"/>
<path style="fill:#252123; stroke:none;" d="M191 132L194 139L195 139L191 132z"/>
<path style="fill:#716f6f; stroke:none;" d="M192 132L193 133L192 132z"/>
<path style="fill:#252123; stroke:none;" d="M227 132L228 133L227 132z"/>
<path style="fill:#b5b5b5; stroke:none;" d="M260 132L261 133L260 132z"/>
<path style="fill:#373535; stroke:none;" d="M278 132L279 133L278 132z"/>
<path style="fill:#252123; stroke:none;" d="M281 133L281 134L302 136C298.601 131.188 286.419 132.138 281 133M312 132L314 137L315 137L312 132z"/>
<path style="fill:#716f6f; stroke:none;" d="M313 132L314 133L313 132z"/>
<path style="fill:#252123; stroke:none;" d="M88 133L89 134L88 133z"/>
<path style="fill:#716f6f; stroke:none;" d="M104 133L105 134L104 133M109 133L110 134L109 133z"/>
<path style="fill:#b5b5b5; stroke:none;" d="M113 133L114 134L113 133M117 133L118 134L117 133M156 133L157 134L156 133M277 133L278 134L277 133z"/>
<path style="fill:#252123; stroke:none;" d="M28 134L29 135L28 134M99 134L100 135L99 134z"/>
<path style="fill:#716f6f; stroke:none;" d="M105 134L106 135L105 134z"/>
<path style="fill:#373535; stroke:none;" d="M108 134L109 135L108 134z"/>
<path style="fill:#b5b5b5; stroke:none;" d="M124 134L125 135L124 134z"/>
<path style="fill:#373535; stroke:none;" d="M156 134L157 135L156 134M159 134L160 135L159 134z"/>
<path style="fill:#716f6f; stroke:none;" d="M160 134L160 135L179 135L160 134M193 134L194 135L193 134z"/>
<path style="fill:#252123; stroke:none;" d="M227 134L228 135L227 134M258 134L259 135L258 134z"/>
<path style="fill:#b5b5b5; stroke:none;" d="M259 134L260 135L259 134z"/>
<path style="fill:#373535; stroke:none;" d="M277 134L278 135L277 134z"/>
<path style="fill:#716f6f; stroke:none;" d="M284 134L285 135L284 134z"/>
<path style="fill:#373535; stroke:none;" d="M285.667 134.333L286.333 134.667L285.667 134.333z"/>
<path style="fill:#716f6f; stroke:none;" d="M287 134L288 135L287 134z"/>
<path style="fill:#373535; stroke:none;" d="M288 134L289 135L288 134z"/>
<path style="fill:#716f6f; stroke:none;" d="M289 134L290 135L289 134z"/>
<path style="fill:#373535; stroke:none;" d="M290 134L291 135L290 134z"/>
<path style="fill:#716f6f; stroke:none;" d="M291 134L292 135L291 134z"/>
<path style="fill:#373535; stroke:none;" d="M292 134L293 135L292 134z"/>
<path style="fill:#716f6f; stroke:none;" d="M293 134L294 135L293 134z"/>
<path style="fill:#373535; stroke:none;" d="M294 134L295 135L294 134z"/>
<path style="fill:#716f6f; stroke:none;" d="M295 134L295 135L300 135L295 134M314 134L315 135L314 134z"/>
<path style="fill:#252123; stroke:none;" d="M88 135L89 136L88 135M100 135L100 143L101 143L100 135z"/>
<path style="fill:#b5b5b5; stroke:none;" d="M106 135L107 136L106 135z"/>
<path style="fill:#373535; stroke:none;" d="M109 135C116.752 145.13 124.276 146.363 136 147L128 137L127 136L109 135z"/>
<path style="fill:#716f6f; stroke:none;" d="M125 135L126 136L125 135z"/>
<path style="fill:#b5b5b5; stroke:none;" d="M155 135L156 136L155 135z"/>
<path style="fill:#373535; stroke:none;" d="M158 135L159 136L158 135z"/>
<path style="fill:#716f6f; stroke:none;" d="M179 135L180 136L179 135z"/>
<path style="fill:#b5b5b5; stroke:none;" d="M194 135L195 136L194 135z"/>
<path style="fill:#252123; stroke:none;" d="M257 135L254 140L257 135z"/>
<path style="fill:#b5b5b5; stroke:none;" d="M276 135L277 136L276 135z"/>
<path style="fill:#373535; stroke:none;" d="M278 135L279 136L278 135z"/>
<path style="fill:#b5b5b5; stroke:none;" d="M280 135L281 136L280 135M300 135L301 136L300 135M315 135L316 136L315 135z"/>
<path style="fill:#252123; stroke:none;" d="M27 136L28 137L27 136M39 136L40 137L39 136z"/>
<path style="fill:#b5b5b5; stroke:none;" d="M107 136L108 137L107 136z"/>
<path style="fill:#373535; stroke:none;" d="M108 136L109 137L108 136z"/>
<path style="fill:#716f6f; stroke:none;" d="M158 136L159 137L158 136M180 136L181 137L180 136M194 136L195 137L194 136z"/>
<path style="fill:#252123; stroke:none;" d="M227 136L228 137L227 136z"/>
<path style="fill:#b5b5b5; stroke:none;" d="M258 136L259 137L258 136z"/>
<path style="fill:#373535; stroke:none;" d="M276 136L277 137L276 136z"/>
<path style="fill:#716f6f; stroke:none;" d="M279 136L280 137L279 136z"/>
<path style="fill:#252123; stroke:none;" d="M302 136L304 139L302 136M28.3333 137.667L28.6667 138.333L28.3333 137.667M88 137L89 138L88 137z"/>
<path style="fill:#373535; stroke:none;" d="M109 137L110 138L109 137z"/>
<path style="fill:#b5b5b5; stroke:none;" d="M154 137L155 138L154 137M180 137L181 138L180 137M195 137L196 138L195 137z"/>
<path style="fill:#716f6f; stroke:none;" d="M257 137L258 138L257 137z"/>
<path style="fill:#b5b5b5; stroke:none;" d="M275 137L276 138L275 137M301 137L302 138L301 137z"/>
<path style="fill:#252123; stroke:none;" d="M315.333 137.667L315.667 138.333L315.333 137.667z"/>
<path style="fill:#b5b5b5; stroke:none;" d="M316 137L317 138L316 137z"/>
<path style="fill:#252123; stroke:none;" d="M39 138L40 139L39 138z"/>
<path style="fill:#716f6f; stroke:none;" d="M110 138L111 139L110 138z"/>
<path style="fill:#b5b5b5; stroke:none;" d="M129 138L130 139L129 138z"/>
<path style="fill:#373535; stroke:none;" d="M154 138L155 139L154 138z"/>
<path style="fill:#b5b5b5; stroke:none;" d="M157 138L158 139L157 138z"/>
<path style="fill:#716f6f; stroke:none;" d="M181 138L182 139L181 138z"/>
<path style="fill:#252123; stroke:none;" d="M227 138L228 139L227 138z"/>
<path style="fill:#716f6f; stroke:none;" d="M244 138L245 139L244 138z"/>
<path style="fill:#252123; stroke:none;" d="M245.333 138.667L245.667 139.333L245.333 138.667z"/>
<path style="fill:#373535; stroke:none;" d="M256 138L257 139L256 138z"/>
<path style="fill:#716f6f; stroke:none;" d="M275 138L276 139L275 138M278 138L279 139L278 138z"/>
<path style="fill:#b5b5b5; stroke:none;" d="M302 138L303 139L302 138z"/>
<path style="fill:#252123; stroke:none;" d="M88 139L89 140L88 139z"/>
<path style="fill:#716f6f; stroke:none;" d="M111 139L112 140L111 139z"/>
<path style="fill:#b5b5b5; stroke:none;" d="M130 139L131 140L130 139M153 139L154 140L153 139z"/>
<path style="fill:#252123; stroke:none;" d="M183 139L185 142L183 139M195.333 139.667L195.667 140.333L195.333 139.667z"/>
<path style="fill:#b5b5b5; stroke:none;" d="M196 139L197 140L196 139M274 139L275 140L274 139M278 139L279 140L278 139z"/>
<path style="fill:#252123; stroke:none;" d="M304 139L306 142L304 139M316 139L317 140L316 139z"/>
<path style="fill:#716f6f; stroke:none;" d="M317 139L318 140L317 139z"/>
<path style="fill:#252123; stroke:none;" d="M27 140L28 141L27 140M40 140L40 145L41 145L40 140z"/>
<path style="fill:#b5b5b5; stroke:none;" d="M101 140L101 143L102 143L101 140M112 140L113 141L112 140z"/>
<path style="fill:#373535; stroke:none;" d="M113 140L114 141L113 140z"/>
<path style="fill:#716f6f; stroke:none;" d="M131 140L132 141L131 140z"/>
<path style="fill:#373535; stroke:none;" d="M153 140L154 141L153 140z"/>
<path style="fill:#716f6f; stroke:none;" d="M156 140L157 141L156 140z"/>
<path style="fill:#b5b5b5; stroke:none;" d="M182 140L183 141L182 140z"/>
<path style="fill:#252123; stroke:none;" d="M227 140L228 141L227 140z"/>
<path style="fill:#716f6f; stroke:none;" d="M243 140L241 143L243 140z"/>
<path style="fill:#252123; stroke:none;" d="M244 140L245 141L244 140M253 140L252 142L253 140z"/>
<path style="fill:#b5b5b5; stroke:none;" d="M255 140L256 141L255 140z"/>
<path style="fill:#373535; stroke:none;" d="M274 140L275 141L274 140z"/>
<path style="fill:#716f6f; stroke:none;" d="M277 140L278 141L277 140z"/>
<path style="fill:#b5b5b5; stroke:none;" d="M303 140L304 141L303 140z"/>
<path style="fill:#252123; stroke:none;" d="M28 141L29 142L28 141M88 141L89 142L88 141z"/>
<path style="fill:#373535; stroke:none;" d="M114 141L115 142L114 141z"/>
<path style="fill:#716f6f; stroke:none;" d="M132 141L133 142L132 141M152 141L153 142L152 141M183 141L184 142L183 141z"/>
<path style="fill:#252123; stroke:none;" d="M196 141L198 146L186 146L186 142L185 142L185 147L202 147L202 146L196 141z"/>
<path style="fill:#716f6f; stroke:none;" d="M197 141L198 142L197 141z"/>
<path style="fill:#252123; stroke:none;" d="M243 141L244 142L243 141z"/>
<path style="fill:#b5b5b5; stroke:none;" d="M273 141L274 142L273 141z"/>
<path style="fill:#373535; stroke:none;" d="M275 141L276 142L275 141z"/>
<path style="fill:#b5b5b5; stroke:none;" d="M277 141L278 142L277 141z"/>
<path style="fill:#716f6f; stroke:none;" d="M304 141L305 142L304 141z"/>
<path style="fill:#252123; stroke:none;" d="M317.333 141.667L317.667 142.333L317.333 141.667z"/>
<path style="fill:#716f6f; stroke:none;" d="M318 141L319 142L318 141z"/>
<path style="fill:#373535; stroke:none;" d="M115 142L116 143L115 142M133 142L134 143L133 142M152 142L153 143L152 142z"/>
<path style="fill:#716f6f; stroke:none;" d="M155 142L156 143L155 142z"/>
<path style="fill:#252123; stroke:none;" d="M227 142L228 143L227 142M242 142L243 143L242 142M251 142L249 143L249 144L251 142z"/>
<path style="fill:#b5b5b5; stroke:none;" d="M253 142L254 143L253 142z"/>
<path style="fill:#716f6f; stroke:none;" d="M273 142L274 143L273 142M276 142L277 143L276 142z"/>
<path style="fill:#252123; stroke:none;" d="M306 142L306 147L323 147L323 146L307 146L306 142z"/>
<path style="fill:#b5b5b5; stroke:none;" d="M26 143L27 144L26 143z"/>
<path style="fill:#252123; stroke:none;" d="M27.3333 143.667L27.6667 144.333L27.3333 143.667z"/>
<path style="fill:#b5b5b5; stroke:none;" d="M41 143L42 144L41 143M86 143L87 144L86 143z"/>
<path style="fill:#252123; stroke:none;" d="M87 143L84 148L87 143z"/>
<path style="fill:#716f6f; stroke:none;" d="M101 143L102 144L101 143M116 143L117 144L116 143z"/>
<path style="fill:#373535; stroke:none;" d="M134 143L135 144L134 143z"/>
<path style="fill:#b5b5b5; stroke:none;" d="M135 143L136 144L135 143M151 143L152 144L151 143z"/>
<path style="fill:#373535; stroke:none;" d="M153 143L154 144L153 143z"/>
<path style="fill:#716f6f; stroke:none;" d="M184 143L185 144L184 143M198 143L199 144L198 143M239 143L240 144L239 143z"/>
<path style="fill:#252123; stroke:none;" d="M241 143L242 144L241 143z"/>
<path style="fill:#716f6f; stroke:none;" d="M251 143L252 144L251 143z"/>
<path style="fill:#b5b5b5; stroke:none;" d="M272 143L273 144L272 143z"/>
<path style="fill:#373535; stroke:none;" d="M274 143L275 144L274 143z"/>
<path style="fill:#b5b5b5; stroke:none;" d="M276 143L277 144L276 143M305.333 143.667L305.667 144.333L305.333 143.667z"/>
<path style="fill:#252123; stroke:none;" d="M318 143L318 145L320 145L318 143z"/>
<path style="fill:#716f6f; stroke:none;" d="M319 143L320 144L319 143z"/>
<path style="fill:#252123; stroke:none;" d="M101 144L102 145L101 144z"/>
<path style="fill:#b5b5b5; stroke:none;" d="M102 144L103 145L102 144z"/>
<path style="fill:#716f6f; stroke:none;" d="M117 144L118 145L117 144z"/>
<path style="fill:#b5b5b5; stroke:none;" d="M136 144L137 145L136 144z"/>
<path style="fill:#373535; stroke:none;" d="M151 144L152 145L151 144z"/>
<path style="fill:#716f6f; stroke:none;" d="M154.333 144.667L154.667 145.333L154.333 144.667z"/>
<path style="fill:#b5b5b5; stroke:none;" d="M184.333 144.667L184.667 145.333L184.333 144.667M229 144L229 145L233 145L229 144M234 144L234 145L237 145L234 144z"/>
<path style="fill:#716f6f; stroke:none;" d="M237 144L238 145L237 144z"/>
<path style="fill:#252123; stroke:none;" d="M238.667 144.333L239.333 144.667L238.667 144.333M247.667 144.333L248.333 144.667L247.667 144.333z"/>
<path style="fill:#b5b5b5; stroke:none;" d="M250 144L251 145L250 144z"/>
<path style="fill:#716f6f; stroke:none;" d="M272 144L273 145L272 144z"/>
<path style="fill:#373535; stroke:none;" d="M275 144L276 145L275 144z"/>
<path style="fill:#b5b5b5; stroke:none;" d="M320 144L321 145L320 144z"/>
<path style="fill:#716f6f; stroke:none;" d="M25 145L26 146L25 145z"/>
<path style="fill:#252123; stroke:none;" d="M26 145L27 146L26 145M41 145L24 147L24 148L44 148L41 145z"/>
<path style="fill:#716f6f; stroke:none;" d="M42 145L43 146L42 145z"/>
<path style="fill:#373535; stroke:none;" d="M85 145L86 146L85 145z"/>
<path style="fill:#b5b5b5; stroke:none;" d="M103 145L104 146L103 145M118 145L119 146L118 145z"/>
<path style="fill:#373535; stroke:none;" d="M119 145L120 146L119 145z"/>
<path style="fill:#716f6f; stroke:none;" d="M137 145L138 146L137 145z"/>
<path style="fill:#b5b5b5; stroke:none;" d="M150 145L151 146L150 145z"/>
<path style="fill:#373535; stroke:none;" d="M152 145L153 146L152 145M199 145L200 146L199 145z"/>
<path style="fill:#b5b5b5; stroke:none;" d="M200 145L201 146L200 145z"/>
<path style="fill:#716f6f; stroke:none;" d="M214 145L215 146L214 145z"/>
<path style="fill:#252123; stroke:none;" d="M228 146L228 147L247 146L228 146z"/>
<path style="fill:#b5b5b5; stroke:none;" d="M248 145L249 146L248 145M271 145L272 146L271 145z"/>
<path style="fill:#373535; stroke:none;" d="M273 145L274 146L273 145z"/>
<path style="fill:#716f6f; stroke:none;" d="M275 145L276 146L275 145z"/>
<path style="fill:#b5b5b5; stroke:none;" d="M321 145L322 146L321 145M24 146L25 147L24 146z"/>
<path style="fill:#716f6f; stroke:none;" d="M43 146L44 147L43 146M84 146L85 147L84 146z"/>
<path style="fill:#252123; stroke:none;" d="M88 146L89 147L88 146M90 146L91 147L90 146M93 146L94 147L93 146M96 146L97 147L96 146M98 146L99 147L98 146M100 146L100 147L104 148L104 147L100 146z"/>
<path style="fill:#373535; stroke:none;" d="M120 146L121 147L120 146M138 146L139 147L138 146z"/>
<path style="fill:#b5b5b5; stroke:none;" d="M147 146L146 148L147 146z"/>
<path style="fill:#716f6f; stroke:none;" d="M148 146L153 148L153 147L148 146M155 146L156 147L155 146z"/>
<path style="fill:#b5b5b5; stroke:none;" d="M182 146L181 148L182 146z"/>
<path style="fill:#716f6f; stroke:none;" d="M183 146L184 147L183 146z"/>
<path style="fill:#373535; stroke:none;" d="M182 147L182 148L186 148L182 147M202 146L202 148L204 148L202 146z"/>
<path style="fill:#b5b5b5; stroke:none;" d="M203 146L204 147L203 146z"/>
<path style="fill:#716f6f; stroke:none;" d="M210 146L211 147L210 146z"/>
<path style="fill:#373535; stroke:none;" d="M211.667 146.333L212.333 146.667L211.667 146.333z"/>
<path style="fill:#252123; stroke:none;" d="M217 146L218 147L217 146M219 146L220 147L219 146M221 146L222 147L221 146M223 146L224 147L223 146M225.667 146.333L226.333 146.667L225.667 146.333z"/>
<path style="fill:#716f6f; stroke:none;" d="M245 146L246 147L245 146z"/>
<path style="fill:#b5b5b5; stroke:none;" d="M246 146L247 147L246 146M268 146L267 148L268 146z"/>
<path style="fill:#716f6f; stroke:none;" d="M269 146L270 147L269 146z"/>
<path style="fill:#373535; stroke:none;" d="M268 147L268 148L276 148L268 147z"/>
<path style="fill:#716f6f; stroke:none;" d="M276 146L277 147L276 146z"/>
<path style="fill:#b5b5b5; stroke:none;" d="M304 146L305 147L304 146z"/>
<path style="fill:#716f6f; stroke:none;" d="M305 146L306 147L305 146M323 146L324 147L323 146z"/>
<path style="fill:#b5b5b5; stroke:none;" d="M324 146L326 148L324 146M23 147L24 148L23 147z"/>
<path style="fill:#716f6f; stroke:none;" d="M44 147L45 148L44 147M104 147L105 148L104 147M121 147L122 148L121 147z"/>
<path style="fill:#373535; stroke:none;" d="M139 147L140 148L139 147M147 147L148 148L147 147M153 147L153 148L156 148L153 147z"/>
<path style="fill:#b5b5b5; stroke:none;" d="M156 147L157 148L156 147z"/>
<path style="fill:#716f6f; stroke:none;" d="M186 147L186 148L202 148L186 147z"/>
<path style="fill:#b5b5b5; stroke:none;" d="M204 147L205 148L204 147z"/>
<path style="fill:#716f6f; stroke:none;" d="M243 147L244 148L243 147z"/>
<path style="fill:#b5b5b5; stroke:none;" d="M277 147L278 148L277 147M302 147L303 148L302 147z"/>
<path style="fill:#373535; stroke:none;" d="M303 147L303 148L309 148L303 147z"/>
<path style="fill:#716f6f; stroke:none;" d="M309 147L310 148L309 147z"/>
<path style="fill:#373535; stroke:none;" d="M310.667 147.333L311.333 147.667L310.667 147.333z"/>
<path style="fill:#716f6f; stroke:none;" d="M312 147L313 148L312 147z"/>
<path style="fill:#373535; stroke:none;" d="M313.667 147.333L314.333 147.667L313.667 147.333z"/>
<path style="fill:#716f6f; stroke:none;" d="M315 147L316 148L315 147z"/>
<path style="fill:#373535; stroke:none;" d="M316 147L317 148L316 147z"/>
<path style="fill:#716f6f; stroke:none;" d="M317 147L318 148L317 147z"/>
<path style="fill:#373535; stroke:none;" d="M318 147L319 148L318 147z"/>
<path style="fill:#716f6f; stroke:none;" d="M319 147L320 148L319 147z"/>
<path style="fill:#373535; stroke:none;" d="M320 147L320 148L325 148L320 147z"/>
<path style="fill:#b5b5b5; stroke:none;" d="M24 148L25 149L24 148M26 148L27 149L26 148M28 148L29 149L28 148M30 148L30 149L45 149L30 148M122 148L123 149L122 148z"/>
</svg>
