<svg width="261" height="26" viewBox="0 0 261 26" fill="none" xmlns="http://www.w3.org/2000/svg">
<path d="M5.40175 17.2291C5.40175 17.9352 5.54297 18.6413 5.82541 19.3474C6.10786 19.9123 6.53152 20.4772 7.09641 20.7596C7.6613 21.1833 8.22619 21.4658 8.79108 21.607C9.49719 21.7482 10.2033 21.8894 10.9094 21.8894C11.4743 21.8894 12.0392 21.8894 12.4629 21.7482C13.0277 21.607 13.5926 21.4658 14.0163 21.3245C14.44 21.0421 14.8636 20.7597 15.2873 20.336C15.5697 19.9123 15.711 19.3474 15.711 18.7825C15.711 18.2177 15.4285 17.5115 15.0048 17.0879C14.5812 16.6642 14.0163 16.2405 13.3102 16.0993C12.6041 15.8169 11.7567 15.5344 10.9094 15.3932L8.22619 14.5459C7.37885 14.2634 6.3903 13.981 5.54297 13.6985C4.69564 13.4161 3.8483 12.9924 3.14219 12.4275C2.43608 11.8627 1.87119 11.2978 1.44753 10.4504C1.02386 9.6031 0.741416 8.47333 0.741416 7.48477C0.741416 6.355 1.02386 5.22522 1.58875 4.09544C2.29486 3.24811 3.00097 2.40078 3.8483 1.83589C4.83686 1.271 5.82541 0.706111 6.81397 0.423667C7.94374 0.141222 9.07352 0 10.0621 0C11.3331 0 12.6041 0.141222 13.8751 0.423667C15.0048 0.706111 16.1346 1.12978 16.982 1.83589C17.8293 2.542 18.6766 3.38933 19.1003 4.37789C19.6652 5.50766 19.9476 6.77866 19.9476 8.04966H14.7224C14.7224 7.34355 14.5812 6.77866 14.2987 6.21377C14.0163 5.79011 13.7339 5.36644 13.3102 5.084C12.8865 4.66033 12.3216 4.51911 11.7567 4.37789C11.1919 4.23666 10.4857 4.23666 9.92085 4.23666C9.49719 4.23666 9.07352 4.23666 8.50863 4.37789C8.08497 4.51911 7.6613 4.66033 7.23763 4.80155C6.81397 5.084 6.53152 5.36644 6.3903 5.64888C6.10786 6.07255 5.96663 6.49622 5.96663 6.91988C5.96663 7.34355 6.10786 7.76722 6.24908 8.19088C6.53152 8.61455 6.95519 8.89699 7.37886 9.03822C8.08497 9.32066 8.9323 9.6031 9.63841 9.74433C10.627 10.0268 11.898 10.3092 13.4514 10.7329C13.7338 10.8741 14.1575 10.8741 14.7224 11.0153C15.1461 11.1565 15.711 11.2978 16.2758 11.5802C16.8407 11.8627 17.2644 12.1451 17.9705 12.4275C18.5354 12.8512 19.1003 13.2749 19.524 13.6985C19.9476 14.2634 20.3713 14.8283 20.6537 15.5344C20.9362 16.3818 21.0774 17.2291 21.0774 18.0764C21.0774 19.2062 20.795 20.1948 20.3713 21.1833C19.9476 22.1719 19.2415 23.0192 18.3942 23.7253C17.4056 24.4314 16.2758 24.9963 15.1461 25.42C13.7339 25.8436 12.1804 25.9849 10.627 25.9849C9.21474 25.9849 7.94374 25.8436 6.67275 25.42C5.40175 25.1375 4.27197 24.5726 3.28341 23.8665C2.29486 23.1604 1.44753 22.1719 0.882638 21.0421C0.176528 19.7711 -0.105917 18.3589 0.0353055 17.0879L5.40175 17.2291Z" fill="black"/>
<path d="M30.1156 0.564941H35.7645L45.0851 25.42H39.4362L37.6004 19.7711H28.4209L26.4438 25.42H20.7949L30.1156 0.564941ZM29.6919 15.8169H36.1881L33.0812 6.63749H32.94L29.6919 15.8169Z" fill="black"/>
<path d="M46.4971 0.564941H52.0047V25.42H46.4971V0.564941Z" fill="black"/>
<path d="M76.8605 0.564941H71.7765V17.3704H71.6352L61.326 0.564941H55.8184V25.42H60.9024V8.75582H61.0436L71.494 25.42H76.8605V5.08405H83.7803V25.42H89.1468V5.08405H96.6316V0.564941H76.8605Z" fill="black"/>
<path d="M106.94 0.564941H112.448V20.9009H124.593V25.5613H106.94V0.564941Z" fill="black"/>
<path d="M134.338 0.564941H139.987L149.307 25.42H143.659L141.823 19.7711H132.502L130.525 25.42H124.876L134.338 0.564941ZM133.914 15.8169H140.41L137.162 6.77871L133.914 15.8169Z" fill="black"/>
<path d="M170.914 15.9582C170.914 19.3475 170.067 21.8895 168.09 23.4429C165.83 25.2788 163.147 26.1261 160.181 25.9849C157.357 26.1261 154.532 25.2788 152.273 23.4429C150.437 21.7483 149.448 19.3475 149.448 15.9582V0.564941H154.956V15.9582C154.956 16.6643 154.956 17.2291 155.097 17.9353C155.238 18.5001 155.521 19.2063 155.803 19.6299C156.227 20.1948 156.792 20.6185 157.357 20.9009C158.204 21.1834 159.051 21.3246 160.04 21.3246C161.452 21.4658 163.006 21.0421 164.135 20.0536C164.983 18.9238 165.406 17.3704 165.265 15.9582V0.564941H170.773L170.914 15.9582Z" fill="black"/>
<path d="M174.304 0.564941H187.72C188.708 0.564941 189.838 0.706164 190.685 1.12983C191.533 1.41227 192.38 1.97716 193.086 2.68327C193.651 3.24816 194.216 4.09549 194.498 4.80161C194.781 5.64894 195.063 6.49627 195.063 7.48482C195.063 8.75582 194.781 10.168 194.216 11.2978C193.51 12.4276 192.521 13.2749 191.25 13.6986V13.8398C191.815 13.981 192.38 14.2635 192.945 14.6872C193.369 15.1108 193.792 15.5345 193.934 16.0994C194.216 16.6643 194.357 17.2291 194.498 17.794C194.64 18.3589 194.781 19.065 194.781 19.6299C194.781 20.0536 194.922 20.4773 194.922 21.0421C194.922 21.607 194.922 22.1719 195.063 22.7368C195.063 23.3017 195.205 23.8666 195.346 24.2903C195.487 24.7139 195.628 25.1376 195.911 25.5613H190.403C190.262 25.1376 190.121 24.7139 189.979 24.2903C189.838 23.8666 189.838 23.3017 189.697 22.7368C189.556 22.1719 189.556 21.7483 189.556 21.1834C189.556 20.6185 189.556 20.0536 189.414 19.6299C189.273 18.5001 188.85 17.5116 188.143 16.8055C187.296 16.0994 186.308 15.8169 185.178 15.9582H179.67V25.7025H174.304V0.564941V0.564941ZM179.811 11.7215H185.884C186.872 11.7215 187.861 11.439 188.708 10.8742C189.414 10.168 189.838 9.17949 189.697 8.19094C189.838 7.20238 189.414 6.21383 188.708 5.50772C187.861 4.94283 186.872 4.66038 185.884 4.66038H179.811V11.7215Z" fill="black"/>
<path d="M198.452 0.564941H217.093V5.22527H203.96V10.5917H215.964V14.8284H203.96V20.9009H217.376V25.5613H198.452V0.564941V0.564941Z" fill="black"/>
<path d="M240.96 0.564941H235.876V17.3704H235.735L225.284 0.564941H219.918V25.42H225.002V8.75582H225.143L235.452 25.42H240.96V5.08405H247.88V25.42H253.246V5.08405H260.731V0.564941H240.96Z" fill="black"/>
</svg>
