<svg aria-hidden="true" style="position: absolute; width: 0; height: 0; overflow: hidden;" version="1.1" xmlns="http://www.w3.org/2000/svg" xmlns:xlink="http://www.w3.org/1999/xlink">
<defs>
<symbol id="balenciaga" viewBox="0 0 56 32">
<path d="M15.258 12.136c0.019 0.374 0.082 0.786 0.077 1.159-0.088-0.098-0.175-0.197-0.262-0.295-0.414-0.43-0.899-0.867-1.75-0.853 0.077 0.193 0.153 0.386 0.23 0.58 0.091 0.332 0.182 0.663 0.273 0.995 0.238 0.626 0.649 1.134 1.148 1.498 0.216 0.158 0.484 0.302 0.744 0.405 0.142 0.044 0.284 0.088 0.427 0.131 0.129 0.074 0.352 0.596 0.416 0.766-0.71-0.433-1.369-0.836-2.57-0.766 0.041 0.225 0.18 0.43 0.284 0.602 0.464 0.761 1.090 1.373 2.045 1.641 0.299 0.084 0.844 0.21 1.236 0.098 0.242 0.184 0.579 0.652 0.744 0.919v0.011c-0.858-0.235-1.872-0.652-2.975-0.317 0.035 0.256 0.259 0.463 0.394 0.634 0.315 0.401 1.16 1.213 1.936 1.105 0.412-0.057 0.736-0.106 1.072-0.23 0.171-0.077 0.343-0.153 0.514-0.23l-3.166-2.523c0.174 0.143 0.348 0.286 3.701 2.96 0.051 0.055 0.102 0.109 0.153 0.164v0.011c-1 0.005-1.84 0.151-2.439 0.547-0.141 0.093-0.407 0.221-0.459 0.394 0.159 0.204 0.566 0.267 0.842 0.35 0.898 0.27 1.888 0.252 2.603-0.164 0.192-0.112 0.406-0.211 0.536-0.383 0.163 0.026 1.074 0.383 1.17 0.47-0.404 0.132-1.634 0.827-1.728 1.203 0.154 0.189 0.572 0.169 0.864 0.219 0.972 0.165 1.834-0.196 2.341-0.591 0.182-0.142 0.442-0.605 0.602-0.678 0.173-0.12 0.505 0.133 0.602 0.197 0.323 0.215 0.571 0.5 0.765 0.842 0.069 0.16 0.139 0.321 0.208 0.481 0.078 0.116 0.219 0.169 0.372 0.12 0.178-0.294-0.061-0.702-0.186-0.908-0.361-0.597-0.896-1.213-1.728-1.323 0.25-1.328-0.794-2.416-1.487-2.909-0.23-0.163-0.528-0.428-0.831-0.492 0.034 1.178 0.295 2.923 1.116 3.281 0.007 0.011 0.015 0.022 0.022 0.033-0.583 0.019-0.848-0.014-1.247-0.208 0.006-1.471-0.276-2.289-0.864-3.172-0.144-0.217-0.41-0.677-0.634-0.788h-0.011c-0.22 0.698-0.214 1.864 0 2.559 0.102 0.255 0.204 0.51 0.306 0.766-0.418-0.208-0.625-0.549-0.963-0.82 0.107-0.791 0.258-2.216 0.066-3.030-0.106-0.449-0.322-0.733-0.448-1.094-0.007-0.004-0.015-0.007-0.022-0.011h-0.033c-0.128 0.372-0.255 0.744-0.383 1.116-0.179 0.582-0.239 1.234-0.219 1.98-0.3-0.218-0.433-0.524-0.656-0.82 0.084-0.175 0.168-0.35 0.252-0.525 0.145-0.335 0.264-0.681 0.372-1.050 0.126-0.428 0.128-0.914 0.208-1.389 0.011-0.186 0.022-0.372 0.033-0.558v-0.241c-0.894 0.101-1.498 1.781-1.498 2.866h-0.011c-0.057-0.164-0.343-0.472-0.306-0.678 0.157-0.376 0.314-0.751 0.47-1.127 0.249-0.645 0.349-1.402 0.525-2.1 0.109-0.324 0.219-0.649 0.328-0.973-0.89 0.156-1.347 0.966-1.739 1.63-0.135 0.266-0.27 0.532-0.405 0.798v0.022c-0.091-0.102-0.426-1.204-0.317-1.367 0.074-0.112 0.303-0.155 0.427-0.219 0.264-0.135 0.537-0.284 0.766-0.459 0.52-0.401 0.802-1.089 1.17-1.641 0.168-0.255 0.335-0.51 0.503-0.766-1.25-0.002-1.818 0.71-2.297 1.477-0.196 0.313-0.388 0.756-0.689 0.962-0.252-0.424 0.006-1.868 0.153-2.231 0.155-0.031 0.354 0.016 0.536 0.022 0.429 0.013 0.8-0.124 1.061-0.295 0.637-0.417 1.082-1.060 1.728-1.487 0.147-0.097 0.298-0.227 0.481-0.284v-0.044c-1.673-0.606-2.559 0.672-3.598 1.258 0.108-0.458 0.266-0.851 0.481-1.203 0.139-0.208 0.277-0.416 0.416-0.623 0.469 0.034 0.926 0.123 1.411 0 0.569-0.193 1.138-0.387 1.706-0.58 0.208-0.066 0.416-0.131 0.623-0.197 0.073-0.364-0.505-0.47-0.831-0.525-0.154-0.026-0.359-0.002-0.503 0.022-0.325 0.054-0.6 0.066-0.897 0.142-0.314 0.081-0.617 0.194-0.962 0.241 0.259-0.397 0.617-0.72 0.897-1.094 0.16 0.047 0.321 0.095 0.481 0.142 0.255 0.037 0.51 0.073 0.766 0.109 0.208-0.004 0.416-0.007 0.623-0.011 0.266-0.018 0.532-0.036 0.798-0.055 0.591-0.106 1.177-0.186 1.695-0.361-0.041-0.155-0.187-0.248-0.306-0.328-0.758-0.511-2.107-0.388-3.161-0.241-0.015-0.022-0.029-0.044-0.044-0.066 0.117-0.226 0.632-0.561 0.853-0.711 1.354 0.67 2.82-0.491 3.402-1.225 0.164-0.208 0.459-0.46 0.525-0.744-1.346-0.043-2.513 0.030-3.314 0.602-0.506 0.361-0.743 0.95-1.313 1.247-0.004-0.011-0.007-0.022-0.011-0.033 0.26-0.712 0.694-1.515 0.405-2.538-0.1-0.355-0.261-0.709-0.438-1.006-0.080-0.128-0.16-0.255-0.241-0.383l-0.022-0.007h-0.012l-0.425 1.517c-0.158 0.505-0.422 0.885-0.591 1.345-0.231 0.629-0.125 1.688 0.066 2.286-0.344 0.276-0.52 0.746-0.875 1.017 0.099-0.973 0.268-1.918-0.022-2.855-0.079-0.254-0.169-0.655-0.416-0.733-0.235 0.888-0.601 1.64-0.755 2.581-0.104 0.639 0.113 1.233 0.284 1.673 0.055 0.149 0.109 0.299 0.164 0.448-0.004 0.163-0.475 0.807-0.558 0.995-0.011 0.007-0.022 0.015-0.033 0.022-0.177-0.269-0.126-0.699-0.197-1.083-0.14-0.766-0.322-1.377-0.973-1.63h-0.033c0.030 0.288 0.122 0.625 0.066 0.973-0.101 0.621-0.318 1.605-0.12 2.22 0.124 0.386 0.438 0.697 0.744 0.908-0.012 0.205-0.075 0.542-0.175 0.689-0.004 0.007-0.007 0.015-0.011 0.022-0.182-0.437-0.579-0.841-0.897-1.159-0.117-0.113-0.233-0.226-0.35-0.339h-0.044c-0.451 1.384-0.422 3.276 1.225 3.292zM36.806-0.056c0.202 0.641 0.31 1.306 0.546 1.91 0.187 0.479 0.452 0.816 0.558 1.4 0.083 0.456 0 0.99-0.077 1.378-0.027 0.139-0.113 0.428-0.044 0.492 0.096 0.21 0.646 0.846 0.831 0.984-0.097-0.947-0.26-1.95 0.022-2.855 0.079-0.252 0.169-0.657 0.416-0.733 0.215 0.897 0.595 1.636 0.755 2.581 0.144 0.853-0.252 1.521-0.448 2.122 0.082 0.285 0.418 0.769 0.58 1.017 0.015-0.011 0.029-0.022 0.044-0.033 0.225-0.916 0.195-2.566 1.17-2.68-0.030 0.288-0.121 0.625-0.066 0.973 0.1 0.622 0.319 1.605 0.12 2.22-0.154 0.476-0.483 0.598-0.744 0.919 0.014 0.242 0.108 0.492 0.175 0.7 0.004-0.007 0.007-0.015 0.011-0.022 0.109-0.164 0.219-0.328 0.328-0.492 0.248-0.349 0.589-0.728 0.93-0.984 0.015 0.004 0.029 0.007 0.044 0.011 0.062 0.332 0.124 0.663 0.186 0.995 0.23 1.301-0.249 2.263-1.422 2.286-0.015 0.374-0.081 0.786-0.077 1.159 0.091-0.102 0.182-0.204 0.273-0.306 0.422-0.431 0.887-0.844 1.739-0.842-0.084 0.219-0.168 0.438-0.252 0.656-0.124 0.399-0.192 0.808-0.35 1.17-0.376 0.862-1.234 1.553-2.242 1.783-0.132 0.256-0.277 0.486-0.394 0.766 0.734-0.429 1.351-0.817 2.57-0.766-0.174 0.918-1.377 1.967-2.242 2.231-0.23 0.044-0.459 0.088-0.689 0.131-0.245 0.038-0.561-0.061-0.7 0.033-0.155 0.33-0.532 0.529-0.678 0.875h0.011c0.784-0.296 1.94-0.62 2.964-0.317-0.035 0.255-0.259 0.463-0.394 0.634-0.319 0.404-1.155 1.209-1.936 1.105-0.412-0.055-0.736-0.106-1.072-0.23-0.175-0.077-0.35-0.153-0.525-0.23-0.189 0.232-0.496 0.36-0.678 0.602v0.011c1.327-0.016 2.218 0.291 2.898 0.908-0.042 0.182-0.634 0.321-0.842 0.383-0.654 0.194-1.656 0.287-2.297 0.011-0.325-0.14-0.59-0.357-0.853-0.558-0.386 0.157-0.773 0.313-1.159 0.47h0.022c0.55 0.41 1.374 0.561 1.706 1.181-0.011 0.022-0.022 0.044-0.033 0.066-0.211 0.072-0.458 0.129-0.711 0.175-1.016 0.185-1.939-0.183-2.461-0.591-0.239-0.186-0.408-0.477-0.613-0.7-0.717 0.010-1.227 0.781-1.455 1.312-0.057 0.132-0.25 0.53-0.481 0.35-0.211-0.165 0.089-0.732 0.153-0.853 0.335-0.634 0.926-1.257 1.761-1.378-0.26-1.316 0.803-2.424 1.488-2.909 0.231-0.164 0.527-0.426 0.831-0.492v0.077c-0.026 0.262-0.051 0.525-0.077 0.788-0.103 0.563-0.153 1.14-0.35 1.608-0.161 0.383-0.464 0.557-0.711 0.842 0.472 0.024 0.993 0.035 1.247-0.219-0.030-1.436 0.324-2.351 0.886-3.194 0.119-0.179 0.43-0.694 0.623-0.755 0.004 0.004 0.007 0.007 0.011 0.011 0.051 0.634 0.238 1.397 0.088 2.122-0.060 0.288-0.137 0.576-0.241 0.831-0.055 0.12-0.109 0.241-0.164 0.361 0.379-0.184 0.727-0.502 0.962-0.831-0.139-0.719-0.241-2.27-0.066-3.019 0.1-0.429 0.282-0.763 0.459-1.105h0.044c0.066 0.182 0.131 0.365 0.197 0.547 0.109 0.365 0.219 0.729 0.328 1.094 0.11 0.443 0.079 0.953 0.077 1.455 0.205-0.15 0.611-0.577 0.656-0.864-0.142-0.172-0.216-0.426-0.306-0.645-0.347-0.843-0.557-1.873-0.558-3.073h0.033c0.798 0.303 1.137 1.067 1.356 1.947 0.040 0.306 0.080 0.612 0.12 0.919v-0.022c0.54-0.609 0.12-1.060-0.131-1.695-0.264-0.666-0.373-1.457-0.558-2.187-0.109-0.324-0.219-0.649-0.328-0.973 0.993 0.175 1.403 1.101 1.837 1.849 0.108 0.185 0.24 0.384 0.306 0.602 0.007-0.004 0.015-0.007 0.022-0.011 0.052-0.265 0.44-1.055 0.306-1.334-0.055-0.114-0.256-0.152-0.372-0.208-0.288-0.138-0.587-0.304-0.831-0.492-0.52-0.4-0.803-1.089-1.17-1.641-0.168-0.255-0.335-0.51-0.503-0.766 1.248-0.010 1.821 0.716 2.297 1.477 0.152 0.243 0.454 0.855 0.7 0.962 0.099-0.518 0.075-1.198-0.033-1.717-0.034-0.165-0.034-0.435-0.153-0.514-0.172-0.074-0.448 0.060-0.678 0.022-0.351-0.058-0.651-0.134-0.897-0.295-0.637-0.417-1.081-1.060-1.728-1.487-0.148-0.098-0.298-0.224-0.481-0.284v-0.044c1.634-0.611 2.585 0.68 3.598 1.258-0.121-0.577-0.552-1.496-0.908-1.827-0.207 0.025-0.465 0.119-0.711 0.088-0.831-0.107-1.406-0.311-2.067-0.569-0.321-0.102-0.642-0.204-0.963-0.306 0.105-0.894 2.081-0.392 2.658-0.23 0.182 0.040 0.365 0.080 0.547 0.12-0.007-0.007-0.015-0.015-0.022-0.022-0.094-0.213-0.7-0.933-0.886-1.072-0.317 0.059-0.633 0.17-0.995 0.23-1.006 0.165-2.613-0.14-3.358-0.405v-0.033c0.129-0.127 0.222-0.263 0.383-0.361 0.452-0.274 1.353-0.424 2.089-0.306 0.332 0.040 0.664 0.080 0.995 0.12 0.025-0.018 0.026-0.030 0.044-0.055v-0.011c-0.087-0.103-0.744-0.676-0.842-0.7-0.12 0.047-0.241 0.095-0.361 0.142-0.297 0.073-0.717 0.060-1.006-0.011-0.901-0.222-1.549-0.729-2.045-1.356-0.165-0.209-0.456-0.459-0.525-0.744 1.342-0.054 2.519 0.034 3.314 0.602 0.506 0.362 0.745 0.945 1.313 1.247 0.004-0.011 0.007-0.022 0.011-0.033-0.129-0.364-0.319-0.669-0.416-1.072-0.304-1.261 0.279-2.098 0.698-2.862h0.036zM27.629 8.865v8.138c-0.988-0.004-1.976-0.007-2.964-0.011-0.621 0-1.292 0.038-1.728-0.142-0.847-0.351-1.59-1.622-1.192-2.877 0.189-0.595 0.567-0.937 0.984-1.301v-0.011c-0.166-0.059-0.303-0.212-0.405-0.339-0.607-0.76-0.686-1.871-0.011-2.636 0.984-1.115 3.343-0.841 5.316-0.82zM28.351 17.003v-8.137c1.615-0.024 3.708-0.256 4.802 0.405 0.667 0.403 1.3 1.352 0.886 2.439-0.169 0.444-0.447 0.692-0.788 0.963 0.007 0.004 0.015 0.007 0.022 0.011 0.295 0.315 0.641 0.536 0.831 0.962 0.101 0.226 0.168 0.474 0.219 0.755 0.084 0.465-0.073 0.951-0.197 1.269-0.247 0.631-0.642 1.053-1.313 1.258-0.415 0.127-1.059 0.066-1.575 0.066-0.962 0.004-1.925 0.007-2.888 0.011zM25.026 9.894c-0.204 0.022-0.408 0.044-0.613 0.066-0.547 0.129-1.26 0.541-1.105 1.302 0.245 1.197 1.97 0.975 3.063 0.711v-1.947c-0.421-0.060-0.845-0.129-1.345-0.131zM30.669 9.894c-0.117 0.007-0.233 0.015-0.35 0.022-0.237 0.036-0.474 0.073-0.711 0.109v1.433c0 0.125-0.044 0.438 0.022 0.514 0.213 0.11 0.502 0.102 0.766 0.153 0.966 0.185 2.014 0.009 2.242-0.733 0.076-0.247 0.018-0.528-0.066-0.722-0.268-0.624-1.006-0.783-1.903-0.777zM24.96 13.284c-0.153 0.011-0.306 0.022-0.459 0.033-0.543 0.106-0.975 0.262-1.214 0.667-0.085 0.144-0.158 0.419-0.131 0.623 0.198 1.532 1.841 1.246 3.216 1.028v-2.231c-0.441-0.058-0.887-0.118-1.411-0.12zM30.669 13.284c-0.091 0.004-0.182 0.007-0.273 0.011-0.263 0.036-0.525 0.073-0.787 0.109v2.231c1.062 0.164 2.556 0.418 3.073-0.449 0.122-0.204 0.185-0.551 0.12-0.842-0.2-0.898-1.033-1.068-2.133-1.061zM46.19 25.873c-0.091 0.011-0.182 0.022-0.273 0.033-0.193 0.051-0.386 0.102-0.58 0.153-0.696 0.273-1.246 0.695-1.619 1.291-0.149 0.238-0.257 0.52-0.339 0.82-0.514 1.868 0.818 3.204 2.078 3.587 0.979 0.298 2.077-0.004 2.756-0.35 0.18-0.092 0.498-0.183 0.602-0.35 0.158-0.257-0.041-1.199 0.087-1.531 0.106-0.275 0.508-0.191 0.744-0.339 0.015-0.053 0.029-0.115 0.011-0.175-0.015-0.022-0.029-0.044-0.044-0.066-0.678 0.004-1.356 0.007-2.034 0.011-0.196 0-0.597-0.057-0.667 0.077-0.004 0.055-0.007 0.109-0.011 0.164 0.259 0.176 0.66-0.016 0.875 0.273 0.115 0.154 0.114 0.354 0.153 0.591 0.135 0.805-0.256 1.189-0.777 1.4-0.364 0.148-0.904 0.075-1.225-0.055-0.803-0.324-1.286-1.013-1.488-1.936-0.297-1.359 0.46-2.655 1.269-3.073 0.379-0.196 0.985-0.296 1.466-0.109 0.472 0.184 0.865 0.501 1.137 0.886 0.11 0.156 0.316 0.683 0.459 0.755h0.142c0.122-0.171-0.050-1.583-0.175-1.75h-0.142c-0.072 0.072-0.123 0.159-0.219 0.208-0.274-0.012-0.487-0.196-0.711-0.284-0.421-0.167-0.871-0.238-1.477-0.23zM7.712 25.884c0.115-0.004 0.249-0.008 0.317 0.033 0.139 0.313 0.277 0.627 0.416 0.941 0.273 0.722 0.547 1.444 0.82 2.166 0.214 0.554 0.39 1.113 0.613 1.641 0.092 0.218 0.159 0.448 0.295 0.623 0.183 0.236 0.545 0.166 0.733 0.35-0.004 0.047-0.007 0.095-0.011 0.142-0.007 0.015-0.015 0.029-0.022 0.044-0.151 0.028-0.337 0-0.481-0.022h-1.455c-0.217 0.032-0.512 0.043-0.634-0.044-0.004-0.007-0.007-0.015-0.011-0.022-0.002-0.099 0.017-0.113 0.055-0.164 0.219-0.038 0.54-0.044 0.645-0.197 0.093-0.136 0.027-0.359-0.022-0.514-0.146-0.427-0.292-0.853-0.437-1.28-0.499 0.007-0.999 0.015-1.498 0.022-0.121 0.018-0.364-0.046-0.427 0.033-0.149 0.253-0.557 1.4-0.35 1.673 0.153 0.202 0.525 0.157 0.733 0.306 0.005 0.123-0.018 0.146-0.066 0.208-0.427-0.011-0.853-0.022-1.28-0.033-0.248 0-0.514 0.046-0.722 0-0.018-0.022-0.036-0.044-0.055-0.066 0.004-0.036 0.007-0.073 0.011-0.109 0.062-0.12 0.313-0.107 0.427-0.175 0.208-0.124 0.359-0.349 0.459-0.58 0.543-1.252 0.938-2.628 1.466-3.872 0.159-0.374 0.283-0.765 0.481-1.105zM31.533 25.884c-0.201 0.040-0.401 0.080-0.602 0.12-0.565 0.179-1.067 0.535-1.389 0.962-0.982 1.304-0.727 3.427 0.437 4.32 0.521 0.4 1.153 0.602 1.775 0.605 0.706 0.004 1.4-0.248 1.91-0.758 0.212-0.212 0.519-0.473 0.514-0.886-0.022-0.018-0.044-0.037-0.066-0.055-0.051-0.004-0.102-0.007-0.153-0.011-0.15 0.114-0.216 0.329-0.328 0.481-0.26 0.354-0.658 0.667-1.137 0.798-0.565 0.154-1.081-0.107-1.4-0.339-0.9-0.656-1.423-2.174-0.864-3.598 0.284-0.724 1.053-1.682 2.155-1.236 0.246 0.1 0.442 0.261 0.634 0.416 0.227 0.183 0.421 0.497 0.558 0.766 0.076 0.149 0.124 0.396 0.273 0.47 0.040 0.004 0.080 0.007 0.12 0.011 0.018-0.018 0.036-0.037 0.055-0.055 0.065-0.36-0.012-0.981-0.066-1.334-0.026-0.169 0.021-0.381-0.044-0.514-0.018-0.026-0.036-0.051-0.055-0.077h-0.164c-0.054 0.059-0.109 0.116-0.142 0.197-0.055 0.055-0.109 0.109-0.164 0.164-0.175-0.084-0.35-0.168-0.525-0.252-0.379-0.15-0.791-0.201-1.334-0.197zM40.316 25.884c0.101-0.003 0.239-0.010 0.306 0.022 0.153 0.346 0.306 0.693 0.459 1.039 0.263 0.696 0.525 1.393 0.788 2.089 0.207 0.535 0.38 1.073 0.591 1.586 0.093 0.227 0.166 0.474 0.306 0.656 0.189 0.246 0.549 0.173 0.744 0.361 0.004 0.111-0.013 0.141-0.055 0.197-0.525 0.001-1.069-0.044-1.641-0.044-0.298 0-0.622 0.064-0.875 0.011-0.015-0.018-0.029-0.037-0.044-0.055 0.004-0.040 0.007-0.080 0.011-0.12 0.007-0.015 0.015-0.029 0.022-0.044 0.207-0.051 0.544-0.049 0.656-0.197 0.098-0.129 0.035-0.366-0.011-0.514-0.146-0.43-0.292-0.861-0.437-1.291-0.642 0.007-1.283 0.015-1.925 0.022-0.071 0.359-0.623 1.342-0.361 1.695 0.16 0.215 0.558 0.144 0.744 0.328 0.004 0.119-0.019 0.137-0.066 0.197-0.423-0.011-0.846-0.022-1.269-0.033-0.257 0-0.527 0.046-0.744 0-0.015-0.018-0.029-0.037-0.044-0.055-0.004-0.108 0.014-0.132 0.055-0.186 0.841-0.196 0.906-0.9 1.192-1.63 0.393-0.999 0.739-2.051 1.148-3.019 0.146-0.344 0.262-0.709 0.449-1.017zM52.435 25.884c0.101-0.003 0.239-0.010 0.306 0.022 0.142 0.321 0.284 0.642 0.427 0.963 0.273 0.722 0.547 1.444 0.82 2.166 0.207 0.535 0.38 1.074 0.591 1.586 0.094 0.228 0.165 0.473 0.306 0.656 0.189 0.246 0.549 0.173 0.744 0.361 0.004 0.111-0.013 0.141-0.055 0.197-0.525 0.001-1.069-0.044-1.641-0.044-0.298 0-0.622 0.064-0.875 0.011-0.015-0.018-0.029-0.037-0.044-0.055 0.004-0.040 0.007-0.080 0.011-0.12 0.007-0.015 0.015-0.029 0.022-0.044 0.207-0.051 0.544-0.049 0.656-0.197 0.104-0.137 0.029-0.396-0.022-0.547-0.142-0.419-0.284-0.839-0.427-1.258-0.642 0.007-1.283 0.015-1.925 0.022-0.071 0.358-0.624 1.342-0.361 1.695 0.168 0.226 0.564 0.151 0.744 0.328 0.004 0.119-0.019 0.137-0.066 0.197-0.423-0.011-0.846-0.022-1.269-0.033-0.257 0-0.527 0.046-0.744 0-0.015-0.018-0.029-0.037-0.044-0.055-0.004-0.108 0.014-0.132 0.055-0.186 0.841-0.197 0.906-0.901 1.192-1.63 0.393-0.999 0.739-2.052 1.148-3.019 0.146-0.344 0.262-0.709 0.448-1.017zM2.44 25.917c0.341-0.005 0.711-0.022 0.995 0.044 0.669 0.155 1.355 0.612 1.181 1.553-0.027 0.147-0.075 0.302-0.142 0.416-0.155 0.262-0.419 0.466-0.7 0.602-0.102 0.044-0.204 0.088-0.306 0.131 0.744 0.126 1.684 0.89 1.378 1.914-0.082 0.274-0.235 0.481-0.394 0.678-0.576 0.716-1.613 0.536-2.789 0.536-0.407 0-1.45 0.099-1.663-0.055-0-0.009-0.001-0.019-0.001-0.029v-0.005c0-0.084 0.018-0.113 0.055-0.163 0.209-0.021 0.512-0.071 0.612-0.208 0.214-0.29 0.106-0.78 0.175-1.225 0.004-0.383 0.007-0.766 0.011-1.148 0.092-0.602 0.067-2.077-0.131-2.494-0.088-0.184-0.421-0.171-0.58-0.284-0-0.318 0.322-0.219 0.612-0.219 0.396 0 0.815 0.035 1.192-0.022 0.164-0.007 0.328-0.015 0.492-0.022zM11.529 25.95c-0.049 0.027-0.073 0.024-0.098 0.077-0.004 0.047-0.007 0.095-0.011 0.142 0.272 0.198 0.595 0.113 0.788 0.427 0.174 0.283 0.164 0.777 0.164 1.225-0.004 0.729-0.007 1.458-0.011 2.187-0.058 0.389 0.032 0.786-0.088 1.094-0.073 0.188-0.194 0.333-0.394 0.394-0.212 0.065-0.498-0.037-0.503 0.252 0.287 0.199 0.945 0.044 1.356 0.044 1.159 0.007 2.319 0.015 3.478 0.022 0.115-0.215 0.33-1.587 0.284-1.903-0.050-0.035-0.088-0.048-0.186-0.044-0.158 0.122-0.224 0.394-0.339 0.558-0.358 0.505-0.756 0.898-1.509 1.017-0.448 0.071-0.931 0.052-1.105-0.241-0.159-0.269-0.029-0.723-0.088-1.105v-1.181c0.007-0.456 0.015-0.912 0.022-1.367 0.052-0.349-0.053-0.727 0.098-0.963 0.171-0.265 0.447-0.228 0.809-0.317 0.040-0.018 0.048-0.026 0.066-0.066 0.004-0.044 0.007-0.087 0.011-0.131-0.018-0.022-0.036-0.044-0.055-0.066h-1.181c-0.503-0.018-1.006-0.037-1.509-0.055zM34.629 25.95c-0.018 0.022-0.036 0.044-0.055 0.066-0.004 0.047-0.007 0.095-0.011 0.142 0.178 0.13 0.492 0.117 0.591 0.328 0.168 0.359 0.047 0.856 0.12 1.323 0.004 0.244 0.007 0.489 0.011 0.733v1.717c-0.055 0.361 0.067 0.818-0.087 1.083-0.096 0.166-0.298 0.101-0.492 0.175-0.039 0.018-0.048 0.026-0.066 0.066-0.004 0.047-0.007 0.095-0.011 0.142 0.145 0.105 0.385 0.066 0.624 0.066h1.662c0.039-0.018 0.048-0.026 0.066-0.066 0.004-0.044 0.007-0.087 0.011-0.131-0.215-0.209-0.557-0.048-0.7-0.394-0.114-0.274-0.034-0.647-0.087-0.984-0.011-0.343-0.022-0.686-0.033-1.028-0.063-0.401-0.049-1.281 0.011-1.673 0.054-0.352-0.033-0.767 0.12-1.017 0.119-0.194 0.378-0.225 0.634-0.284 0.041-0.054 0.059-0.078 0.055-0.186-0.148-0.107-0.474-0.081-0.733-0.077-0.549 0.009-1.069-0.004-1.63 0zM18.441 28.619c0.001-0.756-0.025-1.545 0.066-2.22 0.898-0.090 1.742-0.142 2.308 0.295 0.202 0.156 0.377 0.391 0.525 0.602 0.064 0.091 0.094 0.211 0.197 0.263 0.033 0.004 0.066 0.007 0.098 0.011 0.007-0.004 0.015-0.007 0.022-0.011 0.127-0.218-0.152-1.239-0.208-1.487-0.182-0.082-1.028-0.022-1.302-0.022-0.773-0.007-1.546-0.015-2.319-0.022-0.294-0.044-0.742-0.091-1.028-0.022-0.041 0.067-0.046 0.122-0.022 0.208 0.215 0.131 0.581 0.134 0.7 0.361 0.143 0.274 0.021 0.748 0.077 1.094 0.054 0.335 0.065 0.845 0.011 1.192v1.302c0 0.4 0.013 0.909-0.164 1.148-0.141 0.192-0.404 0.139-0.678 0.208-0.026 0.022-0.051 0.044-0.077 0.066v0.142c0.248 0.163 0.977 0.009 1.345 0.066 0.31 0.011 0.62 0.022 0.93 0.033 0.919 0.011 1.837 0.022 2.756 0.033 0.098-0.17 0.367-1.34 0.317-1.586-0.015-0.007-0.029-0.015-0.044-0.022-0.044-0.004-0.087-0.007-0.131-0.011-0.154 0.12-0.214 0.387-0.328 0.547-0.226 0.318-0.598 0.532-1.017 0.656-0.629 0.186-1.736 0.203-1.958-0.339-0.126-0.308-0.018-0.727-0.077-1.116 0.004-0.339 0.007-0.678 0.011-1.017 0.088-0.077 0.422-0.006 0.525 0.011 0.429 0.072 0.673 0.136 0.853 0.448 0.082 0.141 0.084 0.493 0.23 0.569 0.036 0.004 0.073 0.007 0.109 0.011 0.022-0.022 0.044-0.044 0.066-0.066-0.004-0.412-0.007-0.824-0.011-1.236 0.042-0.293 0.085-0.698 0.033-0.984-0.052-0.036-0.096-0.048-0.197-0.044-0.152 0.218-0.207 0.511-0.372 0.711-0.224 0.272-0.775 0.234-1.247 0.23zM22.28 26.015c-0.096 0.051-0.127 0.063-0.12 0.219 0.098 0.067 0.257 0.074 0.372 0.131 0.279 0.137 0.51 0.466 0.634 0.755 0.119 0.277 0.054 0.628 0.109 0.995 0.007 0.387 0.015 0.773 0.022 1.159 0.070 0.464 0.070 1.526-0.066 1.87-0.071 0.179-0.216 0.279-0.416 0.328-0.245 0.061-0.511-0.070-0.514 0.252 0.145 0.1 0.469 0.066 0.711 0.066 0.58-0.004 1.159-0.007 1.739-0.011 0.045-0.058 0.069-0.072 0.066-0.186-0.113-0.11-0.241-0.068-0.437-0.109s-0.392-0.177-0.492-0.317c-0.12-0.168-0.101-0.443-0.142-0.689-0.106-0.626-0.098-1.347-0.098-2.056v-0.963c0.187 0.18 0.381 0.473 0.547 0.678 0.706 0.876 1.519 1.69 2.22 2.57 0.175 0.219 0.781 1.077 1.072 1.083 0.022-0.022 0.044-0.044 0.066-0.066 0.074-0.329-0.026-0.731 0.033-1.094 0.011-0.809 0.022-1.619 0.033-2.428-0-0.485-0.056-1.166 0.12-1.509 0.196-0.382 0.457-0.242 0.82-0.405 0.040-0.018 0.048-0.026 0.066-0.066 0.004-0.040 0.007-0.080 0.011-0.12-0.015-0.018-0.029-0.037-0.044-0.055-0.155-0.038-0.39-0.022-0.58-0.022-0.441 0.007-0.882 0.015-1.323 0.022-0.167 0.002-0.662-0.045-0.536 0.23 0.045 0.098 0.285 0.051 0.405 0.077 0.198 0.043 0.397 0.147 0.503 0.284 0.346 0.445 0.208 1.776 0.208 2.538-0.011 0.314-0.022 0.627-0.033 0.941v0.022c-0.871-1.006-1.743-2.013-2.614-3.019-0.299-0.365-0.598-0.729-0.897-1.094-0.481-0.004-0.963-0.007-1.444-0.011zM2.33 26.212c-0.179 0.040-0.357 0.080-0.536 0.12-0.011 0.525-0.022 1.050-0.033 1.575 0 0.215-0.018 0.477 0.022 0.656 0.207 0.077 0.573 0.013 0.777-0.033 0.7-0.159 1.023-0.37 1.137-1.127 0.036-0.237-0.048-0.523-0.142-0.678-0.217-0.357-0.641-0.521-1.225-0.514zM7.569 27.065c-0.102 0.237-0.204 0.474-0.306 0.711-0.175 0.477-0.35 0.955-0.525 1.433h1.662c-0.079-0.438-0.389-1.035-0.558-1.444-0.091-0.233-0.182-0.467-0.273-0.7zM40.174 27.076c-0.305 0.663-0.633 1.392-0.831 2.133h1.662v-0.011c-0.277-0.707-0.554-1.415-0.831-2.122zM52.293 27.076c-0.305 0.663-0.633 1.391-0.831 2.133h1.663v-0.011c-0.277-0.707-0.554-1.415-0.831-2.122zM2.068 28.892c-0.078 0.027-0.229-0.007-0.284 0.044-0.090 0.175-0.054 0.535-0.055 0.777-0.001 0.527-0.096 1.183 0.022 1.662 0.211 0.114 0.421 0.096 0.733 0.142 1.033 0.151 1.669-0.805 1.367-1.794-0.21-0.687-0.872-0.839-1.783-0.831z"></path>
</symbol>
<symbol id="berluti" viewBox="0 0 144 32">
<path d="M42.485 26.771h-11.789v-8.506h9.663v-4.624h-9.663v-8.366h11.696v-4.947h-15.487l-1.941 1.895v17.983l-0.324 11.466h17.845zM77.065 2.224l-1.942-1.896h-4.16l0.371 11.418v8.46l-0.371 11.466h17.891v-4.901h-11.788zM103.924 0.328v24.040c-0.139 1.525-1.248 2.45-3.005 2.45-1.849 0-3.051-1.063-3.051-2.773v-23.716h-6.103l0.371 11.418v12.020c0 4.947 3.282 7.906 8.783 7.906s8.737-2.959 8.737-7.906v-21.543l-1.895-1.895zM139.983 0.328l-1.895 1.895v29.449h5.686v-19.925l0.37-11.418zM115.066 5.274h5.917v24.502l1.895 1.895h4.16l-0.369-11.418v-13.591c0-0.766 0.621-1.387 1.386-1.387h4.531v-4.946h-17.521zM61.162 18.958c3.282-1.617 5.085-4.807 5.085-8.969 0-6.241-3.421-9.662-9.616-9.662h-6.611l-1.941 1.895v17.983l-0.37 11.466h6.056v-12.112h0.878l6.797 12.112h5.5v-1.895l-5.917-10.772zM55.568 14.798h-1.802v-9.524h1.802c3.236 0 4.854 1.572 4.854 4.762s-1.619 4.762-4.854 4.762zM14.516 15.63l-0.555-0.231 0.463-0.232c2.311-1.294 3.42-3.328 3.42-6.333 0-5.501-3.236-8.506-9.153-8.506h-8.691l0.371 11.418v17.983l1.895 1.895h7.72c5.917 0 9.153-3.097 9.153-8.691 0-4.715-2.635-6.426-4.623-7.304zM5.224 5.274h3.236c1.664 0 3.653 1.11 3.653 4.16s-1.942 4.208-3.653 4.208h-3.236zM9.615 26.771h-4.438v-6.98c0-0.766 0.621-1.386 1.387-1.386 0 0 0.001 0 0.001 0h3.050c1.665 0 3.653 1.109 3.653 4.16s-1.942 4.207-3.653 4.207z"></path>
</symbol>
<symbol id="bottega-veneta" viewBox="0 0 32 32">

<path fill="#000" style="transform: scale(1.1);fill: var(--color2, #000)" d="M20.456 14.435l-1.183 3.13h-0.25l-1.173-3.13h0.311l0.988 2.676 0.997-2.676h0.311zM20.92 15.849h1.322v0.301h-1.322v1.113h1.322v0.301h-1.632v-3.13h1.632v0.311h-1.322v1.104zM25.098 14.435v3.13h-0.371l-1.706-2.759 0.033 2.759h-0.311v-3.13h0.371l1.716 2.759-0.037-2.759h0.306zM25.918 14.746v1.104h1.322v0.301h-1.322v1.113h1.322v0.301h-1.623v-3.13h1.623v0.311h-1.322zM29.944 14.435l-1.196 3.13h0.315l0.38-0.983h1.382l0.38 0.983h0.325l-1.206-3.13h-0.38zM29.058 14.435v0.311h-0.635v2.819h-0.301v-2.819h-0.626v-0.311h1.563zM29.549 16.304l0.58-1.576 0.598 1.576h-1.178zM16.89 17.565l-1.21-3.13h-0.371l-1.215 3.13h0.325l0.371-0.983h1.391l0.38 0.983h0.329zM1.018 14.727c0.255 0 0.45 0.046 0.566 0.134 0.116 0.074 0.176 0.209 0.176 0.385 0 0.195-0.060 0.334-0.176 0.427-0.125 0.084-0.343 0.121-0.645 0.121h-0.185v-1.066h0.264zM0.47 14.435v3.13h0.677c0.38 0 0.668-0.069 0.844-0.218 0.171-0.153 0.255-0.394 0.264-0.709-0.009-0.176-0.046-0.325-0.134-0.455-0.083-0.134-0.209-0.232-0.376-0.301 0.116-0.070 0.199-0.148 0.255-0.25 0.051-0.097 0.074-0.223 0.074-0.371 0-0.283-0.083-0.487-0.255-0.617-0.162-0.139-0.417-0.209-0.77-0.209l-0.58-0zM2.478 15.979c0 0.473 0.153 0.867 0.464 1.178 0.301 0.315 0.682 0.468 1.136 0.468 0.232 0 0.45-0.037 0.649-0.121 0.195-0.093 0.371-0.227 0.543-0.403 0.13-0.149 0.236-0.315 0.306-0.501s0.102-0.394 0.102-0.622c0-0.222-0.037-0.431-0.125-0.617-0.070-0.195-0.185-0.362-0.352-0.524-0.139-0.149-0.309-0.268-0.501-0.344l-0.009-0.003c-0.195-0.079-0.394-0.116-0.612-0.116-0.002 0-0.005-0-0.008-0-0.214 0-0.419 0.043-0.605 0.12l0.010-0.004c-0.197 0.077-0.365 0.192-0.5 0.338l-0.001 0.001c-0.162 0.153-0.278 0.334-0.366 0.533-0.083 0.195-0.13 0.394-0.13 0.617zM2.928 15.423c0.083-0.176 0.199-0.325 0.348-0.454 0.105-0.093 0.228-0.169 0.363-0.22l0.008-0.003 0.431-0.079c0.348 0 0.649 0.13 0.904 0.394 0.255 0.255 0.38 0.556 0.38 0.918 0 0.38-0.125 0.705-0.366 0.96-0.246 0.264-0.547 0.394-0.909 0.394-0.348 0-0.658-0.13-0.914-0.394-0.246-0.255-0.371-0.57-0.371-0.951-0-0.185 0.037-0.371 0.125-0.566zM5.608 14.435h3.107v0.311h-0.626v2.819h-0.311v-2.819h-1.233v2.819h-0.311v-2.819h-0.626v-0.311h0zM9.272 15.849h1.321v0.301h-1.321v1.113h1.321v0.301h-1.632v-3.13h1.632v0.311h-1.321v1.104zM11.071 15.363c0.086-0.21 0.21-0.388 0.366-0.532l0.001-0.001c0.167-0.172 0.338-0.288 0.515-0.339 0.185-0.079 0.394-0.116 0.626-0.116 0.301 0 0.58 0.074 0.821 0.222 0.241 0.139 0.427 0.348 0.57 0.635h-0.371c-0.144-0.195-0.301-0.334-0.468-0.427-0.172-0.093-0.357-0.139-0.566-0.139-0.362 0-0.672 0.13-0.918 0.394-0.255 0.255-0.38 0.566-0.38 0.927 0 0.38 0.125 0.705 0.38 0.96s0.561 0.385 0.927 0.385c0.278 0 0.533-0.093 0.765-0.269 0.223-0.185 0.371-0.427 0.44-0.728h-1.572v-0.269h1.943c-0.023 0.464-0.195 0.835-0.496 1.118-0.301 0.297-0.672 0.44-1.122 0.44-0.454 0-0.825-0.153-1.127-0.468-0.311-0.311-0.464-0.705-0.454-1.178 0-0.001 0-0.002 0-0.004 0-0.221 0.044-0.431 0.124-0.623l-0.004 0.011zM1.75 16.243c0.134 0.093 0.195 0.241 0.195 0.441 0 0.195-0.060 0.338-0.186 0.441-0.13 0.102-0.315 0.148-0.566 0.148h-0.44v-1.183h0.44c0.25 0 0.436 0.051 0.556 0.153zM15.485 14.727l0.594 1.576h-1.173l0.58-1.576z"></path>
</symbol>
<symbol id="casadei" viewBox="0 0 32 32">

<path fill="#000" style="fill: var(--color2, #000)" d="M30.322 13.398v5.188h0.266v-5.188h-0.266zM26.55 13.74v-0.113h2.198v-0.229h-2.464v5.188h2.464v-0.229h-2.198v-2.569h2.198v-0.229h-2.198v-1.819zM21.544 18.393h-0.112v-4.821h0.644l0.184 0.001 0.173 0.003 0.162 0.005 0.15 0.007 0.139 0.009 0.127 0.011 0.116 0.013 0.105 0.015 0.093 0.017 0.082 0.019 0.079 0.022 0.077 0.025 0.074 0.028 0.071 0.031 0.069 0.034 0.066 0.037 0.064 0.040 0.062 0.043 0.059 0.046 0.057 0.049 0.071 0.066 0.067 0.070 0.064 0.073 0.060 0.077 0.057 0.081 0.053 0.084 0.050 0.088 0.046 0.092 0.043 0.095 0.038 0.099 0.035 0.1 0.031 0.103 0.028 0.106 0.023 0.109 0.020 0.112 0.017 0.115 0.013 0.118 0.009 0.122 0.005 0.124 0.002 0.128-0.002 0.125-0.005 0.122-0.009 0.119-0.013 0.117-0.016 0.113-0.020 0.111-0.024 0.108-0.027 0.105-0.031 0.102-0.034 0.1-0.038 0.098-0.042 0.095-0.045 0.092-0.049 0.088-0.052 0.085-0.056 0.082-0.059 0.079-0.063 0.075-0.066 0.072-0.070 0.069-0.054 0.047-0.056 0.045-0.058 0.042-0.061 0.039-0.063 0.036-0.066 0.033-0.068 0.031-0.070 0.028-0.072 0.025-0.075 0.022-0.077 0.019-0.087 0.017-0.097 0.015-0.106 0.013-0.117 0.011-0.127 0.009-0.137 0.007-0.147 0.005-0.157 0.003-0.167 0.001h-0.69zM21.894 18.586h0.167l0.191-0.001 0.18-0.003 0.169-0.005 0.159-0.008 0.148-0.010 0.137-0.012 0.126-0.014 0.116-0.017 0.104-0.018 0.094-0.021 0.084-0.023 0.083-0.026 0.080-0.029 0.079-0.032 0.077-0.035 0.076-0.038 0.073-0.041 0.071-0.044 0.069-0.047 0.068-0.050 0.082-0.067 0.078-0.071 0.074-0.075 0.071-0.080 0.066-0.084 0.063-0.088 0.058-0.092 0.055-0.097 0.051-0.101 0.047-0.106 0.043-0.111 0.039-0.115 0.034-0.117 0.030-0.121 0.025-0.124 0.020-0.127 0.016-0.13 0.011-0.133 0.007-0.136 0.003-0.139-0.003-0.139-0.007-0.136-0.011-0.133-0.016-0.13-0.020-0.127-0.025-0.123-0.030-0.12-0.034-0.117-0.039-0.114-0.043-0.111-0.047-0.106-0.051-0.102-0.055-0.098-0.059-0.094-0.064-0.090-0.067-0.086-0.072-0.082-0.076-0.078-0.080-0.074-0.084-0.070-0.065-0.049-0.068-0.046-0.071-0.044-0.073-0.040-0.076-0.038-0.078-0.035-0.081-0.031-0.083-0.029-0.086-0.025-0.088-0.022-0.1-0.021-0.112-0.019-0.125-0.016-0.138-0.014-0.151-0.012-0.164-0.010-0.177-0.007-0.19-0.005-0.203-0.003-0.215-0.001h-0.729v5.188h0.729zM17.027 16.558l-0.168 0 1.128-2.776 1.084 2.776h-2.045zM16.86 16.752h2.284l0.028 0.072 0.662 1.762h0.291l-2.108-5.225-2.206 5.225h0.258l0.687-1.763 0.028-0.071h0.077zM12.258 17.734l-0.214 0.113 0.040 0.082 0.043 0.078 0.045 0.074 0.047 0.070 0.050 0.066 0.053 0.062 0.055 0.059 0.058 0.054 0.060 0.050 0.063 0.046 0.072 0.046 0.075 0.041 0.078 0.036 0.081 0.031 0.083 0.027 0.086 0.021 0.089 0.017 0.092 0.012 0.095 0.007 0.097 0.002 0.133-0.004 0.128-0.012 0.122-0.019 0.117-0.027 0.111-0.035 0.105-0.043 0.099-0.051 0.094-0.059 0.088-0.067 0.082-0.075 0.075-0.082 0.067-0.088 0.059-0.094 0.051-0.1 0.043-0.105 0.035-0.11 0.028-0.116 0.019-0.122 0.012-0.127 0.004-0.133-0.002-0.098-0.007-0.094-0.010-0.091-0.015-0.087-0.019-0.083-0.023-0.080-0.028-0.076-0.032-0.072-0.037-0.069-0.041-0.065-0.049-0.065-0.058-0.066-0.067-0.066-0.076-0.067-0.084-0.068-0.094-0.068-0.102-0.070-0.111-0.071-0.12-0.072-0.128-0.072-0.258-0.135-0.195-0.109-0.173-0.11-0.151-0.113-0.13-0.114-0.109-0.116-0.089-0.117-0.068-0.119-0.048-0.121-0.029-0.121-0.010-0.122 0.003-0.088 0.008-0.085 0.014-0.080 0.019-0.077 0.025-0.073 0.030-0.070 0.035-0.066 0.040-0.062 0.046-0.058 0.051-0.055 0.054-0.051 0.059-0.045 0.062-0.040 0.066-0.035 0.070-0.029 0.073-0.024 0.077-0.019 0.081-0.014 0.084-0.008 0.089-0.003 0.065 0.002 0.063 0.004 0.062 0.007 0.059 0.010 0.058 0.012 0.056 0.015 0.054 0.018 0.052 0.020 0.051 0.023 0.049 0.026 0.038 0.022 0.037 0.024 0.036 0.026 0.034 0.028 0.033 0.029 0.031 0.030 0.030 0.032 0.028 0.033 0.027 0.035 0.026 0.037 0.19-0.112-0.033-0.048-0.034-0.045-0.035-0.043-0.037-0.041-0.038-0.039-0.040-0.036-0.041-0.034-0.043-0.032-0.044-0.029-0.046-0.027-0.056-0.030-0.058-0.027-0.060-0.023-0.062-0.021-0.064-0.017-0.066-0.014-0.068-0.011-0.070-0.008-0.072-0.004-0.074-0.002-0.113 0.004-0.108 0.010-0.104 0.017-0.1 0.023-0.096 0.030-0.091 0.037-0.087 0.043-0.083 0.050-0.079 0.057-0.074 0.064-0.067 0.068-0.060 0.072-0.053 0.076-0.046 0.080-0.039 0.084-0.032 0.088-0.024 0.091-0.018 0.096-0.010 0.099-0.004 0.103 0.002 0.083 0.007 0.081 0.012 0.078 0.017 0.076 0.022 0.073 0.027 0.071 0.032 0.069 0.036 0.066 0.041 0.063 0.046 0.061 0.057 0.065 0.068 0.066 0.079 0.068 0.089 0.070 0.099 0.072 0.11 0.074 0.12 0.076 0.131 0.078 0.142 0.081 0.152 0.082 0.13 0.071 0.12 0.069 0.111 0.067 0.101 0.066 0.092 0.064 0.082 0.063 0.073 0.060 0.064 0.059 0.055 0.057 0.045 0.055 0.041 0.058 0.036 0.062 0.033 0.064 0.028 0.068 0.024 0.070 0.020 0.074 0.015 0.076 0.011 0.080 0.007 0.082 0.002 0.086-0.003 0.115-0.010 0.11-0.016 0.104-0.022 0.1-0.029 0.094-0.035 0.089-0.042 0.084-0.048 0.079-0.054 0.073-0.060 0.069-0.066 0.064-0.071 0.057-0.076 0.050-0.081 0.044-0.086 0.038-0.090 0.031-0.096 0.024-0.101 0.017-0.106 0.010-0.111 0.003-0.088-0.002-0.085-0.007-0.083-0.012-0.080-0.017-0.078-0.022-0.075-0.027-0.073-0.031-0.070-0.036-0.067-0.041-0.065-0.046-0.052-0.042-0.050-0.044-0.047-0.048-0.044-0.050-0.042-0.053-0.039-0.056-0.036-0.059-0.034-0.062-0.031-0.064-0.028-0.067zM7.997 16.558l-0.167 0 1.128-2.776 1.085 2.776h-2.045zM7.831 16.752h2.284l0.028 0.072 0.662 1.762h0.291l-2.108-5.225-2.207 5.225h0.258l0.715-1.834h0.077zM5.12 13.654l-0.089-0.033-0.090-0.029-0.091-0.026-0.092-0.022-0.092-0.019-0.094-0.015-0.094-0.012-0.095-0.008-0.096-0.005-0.097-0.002-0.216 0.007-0.208 0.021-0.2 0.035-0.191 0.049-0.183 0.063-0.175 0.077-0.166 0.091-0.158 0.104-0.15 0.119-0.142 0.132-0.131 0.144-0.117 0.152-0.103 0.16-0.089 0.169-0.076 0.177-0.062 0.186-0.048 0.194-0.035 0.203-0.021 0.211-0.007 0.22 0.002 0.111 0.005 0.108 0.008 0.106 0.012 0.104 0.015 0.101 0.019 0.1 0.022 0.097 0.025 0.095 0.029 0.093 0.032 0.090 0.036 0.089 0.039 0.087 0.043 0.085 0.046 0.083 0.050 0.081 0.053 0.079 0.057 0.078 0.060 0.075 0.064 0.073 0.067 0.071 0.069 0.067 0.072 0.064 0.074 0.060 0.075 0.057 0.077 0.054 0.080 0.051 0.081 0.047 0.083 0.044 0.086 0.041 0.087 0.037 0.089 0.034 0.090 0.030 0.091 0.027 0.093 0.023 0.094 0.020 0.095 0.016 0.096 0.013 0.098 0.009 0.099 0.005 0.1 0.002 0.097-0.002 0.097-0.005 0.096-0.008 0.096-0.012 0.095-0.015 0.095-0.019 0.094-0.022 0.094-0.025 0.093-0.029 0.093-0.032 0.072-0.027 0.071-0.029 0.070-0.031 0.070-0.033 0.069-0.035 0.069-0.037 0.068-0.039 0.068-0.041 0.067-0.043 0.066-0.044v0.297l-0.073 0.042-0.074 0.040-0.075 0.038-0.075 0.036-0.076 0.034-0.077 0.032-0.077 0.030-0.079 0.028-0.079 0.026-0.080 0.024-0.086 0.024-0.085 0.022-0.085 0.019-0.085 0.017-0.085 0.014-0.085 0.011-0.085 0.009-0.085 0.006-0.085 0.004-0.084 0.001-0.113-0.002-0.112-0.006-0.111-0.010-0.11-0.014-0.109-0.018-0.108-0.022-0.107-0.026-0.106-0.030-0.105-0.034-0.104-0.039-0.101-0.042-0.098-0.045-0.096-0.048-0.092-0.052-0.090-0.055-0.087-0.059-0.084-0.061-0.081-0.065-0.078-0.068-0.076-0.071-0.074-0.076-0.070-0.079-0.067-0.081-0.063-0.084-0.059-0.086-0.055-0.088-0.052-0.091-0.048-0.093-0.045-0.096-0.041-0.098-0.037-0.101-0.033-0.102-0.029-0.105-0.025-0.107-0.021-0.109-0.017-0.111-0.014-0.112-0.010-0.115-0.006-0.116-0.002-0.119 0.002-0.116 0.006-0.114 0.010-0.113 0.014-0.111 0.018-0.11 0.022-0.108 0.026-0.107 0.030-0.105 0.034-0.104 0.038-0.102 0.042-0.099 0.045-0.096 0.049-0.094 0.052-0.091 0.056-0.088 0.060-0.085 0.063-0.083 0.066-0.080 0.070-0.078 0.073-0.074 0.075-0.070 0.078-0.067 0.081-0.064 0.084-0.061 0.087-0.058 0.090-0.055 0.093-0.051 0.096-0.048 0.099-0.045 0.102-0.042 0.104-0.039 0.105-0.035 0.106-0.031 0.106-0.026 0.108-0.023 0.108-0.018 0.109-0.014 0.11-0.010 0.111-0.006 0.111-0.002 0.099 0.002 0.097 0.004 0.096 0.007 0.095 0.010 0.093 0.013 0.092 0.015 0.090 0.018 0.089 0.021 0.088 0.023 0.086 0.026 0.079 0.027 0.077 0.029 0.076 0.032 0.075 0.034 0.074 0.036 0.072 0.039 0.071 0.041 0.069 0.044 0.068 0.046 0.067 0.048-0.004 0.251-0.067-0.048-0.067-0.046-0.067-0.044-0.067-0.041-0.067-0.039-0.067-0.037-0.068-0.035-0.068-0.032-0.069-0.030-0.068-0.028z"></path>
</symbol>
<symbol id="chanel" viewBox="0 0 48 32">
<path d="M3.457 31.998c-0.021-0.002-0.090-0.010-0.155-0.016-0.589-0.059-1.219-0.3-1.713-0.656-0.742-0.534-1.264-1.311-1.482-2.205-0.116-0.475-0.139-1.007-0.065-1.496 0.199-1.312 1.066-2.436 2.268-2.94 0.3-0.126 0.598-0.205 0.949-0.254 0.195-0.027 0.668-0.027 0.864-0 0.416 0.056 0.769 0.161 1.131 0.337 0.399 0.193 0.675 0.392 1.009 0.726 0.292 0.293 0.472 0.536 0.681 0.92l0.044 0.082-0.158 0.117c-0.217 0.161-0.726 0.524-0.892 0.637l-0.137 0.093-0.056-0.122c-0.070-0.151-0.119-0.241-0.2-0.361-0.321-0.479-0.833-0.822-1.391-0.93-0.295-0.057-0.659-0.051-0.95 0.017-0.306 0.071-0.638 0.231-0.891 0.429-0.102 0.080-0.29 0.266-0.373 0.37-0.447 0.56-0.611 1.272-0.458 1.985 0.053 0.247 0.19 0.569 0.333 0.783 0.379 0.566 0.96 0.929 1.618 1.010 0.116 0.014 0.397 0.014 0.513 0 0.583-0.072 1.121-0.375 1.489-0.837 0.108-0.136 0.184-0.254 0.27-0.422 0.038-0.073 0.072-0.133 0.076-0.133s0.272 0.189 0.596 0.421l0.589 0.421-0.060 0.113c-0.124 0.234-0.337 0.529-0.536 0.74-0.338 0.36-0.668 0.604-1.096 0.814-0.37 0.181-0.762 0.296-1.179 0.347-0.093 0.011-0.574 0.023-0.64 0.015zM8.494 28.167v-3.687h1.43v2.647h3.735v-2.647h1.43v7.374h-1.43v-3.244h-3.735v3.244h-1.43v-3.687zM16.534 31.201c0.159-0.36 0.895-2.019 1.634-3.687l1.344-3.033 2.006 0 1.625 3.642c0.894 2.003 1.634 3.662 1.646 3.687l0.020 0.045h-1.712l-0.661-1.462-3.827 0.005-0.654 1.457h-1.712l0.29-0.654zM21.832 28.905c-0.006-0.026-1.305-2.93-1.311-2.93-0.004 0-1.238 2.88-1.258 2.935-0.002 0.006 0.491 0.010 1.284 0.010 1.095 0 1.287-0.002 1.284-0.015zM25.964 28.167v-3.687l2.012 0 3.148 4.422 0.005-4.422h1.441v7.374l-1.156-0.006-1.997-2.772c-1.098-1.524-2-2.772-2.005-2.772s-0.008 1.248-0.008 2.774v2.775h-1.441v-3.687zM35.174 28.167v-3.687h5.154v1.483h-3.714v1.473h3.436v1.483h-3.436v1.473h4.247v1.462h-5.688v-3.687zM42.879 28.167v-3.687h1.441v5.912h4.013v1.462h-5.453v-3.687zM18.19 22.605c-1.539-0.071-3.253-0.539-4.635-1.264-1.061-0.557-1.902-1.18-2.782-2.062-0.69-0.691-1.199-1.327-1.63-2.038l-0.189-0.311 0.268-0.142c0.521-0.277 2.898-1.494 2.917-1.494 0.010 0 0.109 0.134 0.218 0.297 1.239 1.846 3.176 3.047 5.444 3.374 0.396 0.057 1.588 0.048 2.020-0.015 0.48-0.071 1.056-0.202 1.422-0.323 0.024-0.008-0.022-0.082-0.126-0.205-0.811-0.955-1.549-2.267-1.965-3.488-0.752-2.208-0.805-4.579-0.154-6.806 0.405-1.383 1.101-2.725 1.983-3.822 0.131-0.163 0.239-0.308 0.239-0.32 0-0.044-0.689-0.227-1.14-0.303-0.697-0.118-1.789-0.133-2.419-0.033-1.060 0.169-2.137 0.566-2.977 1.099-0.937 0.593-1.719 1.356-2.342 2.285l-0.275 0.41-0.351-0.184c-0.193-0.101-0.909-0.472-1.591-0.825s-1.243-0.643-1.246-0.645c-0.011-0.010 0.416-0.689 0.592-0.942 0.534-0.768 1.482-1.785 2.183-2.341 1.832-1.454 3.868-2.273 6.161-2.478 0.425-0.038 1.48-0.038 1.89-0.001 1.456 0.134 2.703 0.487 3.992 1.129l0.616 0.307 0.206-0.117c0.333-0.19 0.925-0.463 1.375-0.635 1.262-0.483 2.533-0.713 3.937-0.712 0.98 0 1.798 0.097 2.686 0.316 2.006 0.496 3.717 1.447 5.191 2.887 0.799 0.78 1.425 1.577 1.931 2.456l0.077 0.133-1.247 0.643c-0.686 0.354-1.403 0.725-1.595 0.826l-0.347 0.182-0.263-0.396c-1.296-1.954-3.415-3.227-5.735-3.443-0.687-0.064-1.706-0.005-2.326 0.134-0.319 0.072-0.837 0.22-0.837 0.239 0 0.010 0.085 0.122 0.188 0.249 1.329 1.631 2.159 3.619 2.427 5.815 0.064 0.524 0.073 1.862 0.015 2.381-0.242 2.191-1.071 4.213-2.393 5.84-0.3 0.369-0.287 0.343-0.191 0.381 0.045 0.018 0.258 0.076 0.472 0.131 1.089 0.276 2.261 0.315 3.362 0.112 2.002-0.369 3.805-1.553 4.965-3.26 0.108-0.159 0.205-0.299 0.216-0.312s0.279 0.106 0.594 0.264c0.625 0.313 2.583 1.327 2.604 1.347 0.035 0.035-0.589 0.961-0.972 1.442-0.362 0.456-1.312 1.404-1.766 1.764-1.64 1.299-3.48 2.094-5.506 2.377-2.327 0.326-4.791-0.11-6.797-1.203l-0.283-0.154-0.352 0.186c-1.742 0.921-3.739 1.361-5.762 1.267zM24.691 16.204c0.971-1.201 1.576-2.659 1.725-4.152 0.050-0.501 0.020-1.522-0.058-1.979-0.215-1.256-0.674-2.332-1.415-3.316-0.14-0.185-0.343-0.433-0.451-0.55l-0.198-0.213-0.184 0.199c-0.242 0.262-0.645 0.798-0.848 1.126-1.032 1.669-1.369 3.718-0.932 5.669 0.275 1.228 0.907 2.465 1.759 3.441l0.196 0.225 0.086-0.081c0.047-0.045 0.191-0.211 0.319-0.37z"></path>
</symbol>
<symbol id="d-and-g" viewBox="0 0 66 32">
<path d="M0 0.922h7.035c1.682 0 3.339 0.127 4.971 0.408 1.631 0.255 3.161 0.969 4.588 2.116 1.351 1.147 2.396 2.6 3.161 4.359s1.173 3.569 1.249 5.455c0.025 0.127 0.025 0.255 0.025 0.408v0.688c-0.025 1.937-0.433 3.824-1.198 5.633s-1.861 3.314-3.339 4.486c-1.3 0.943-2.677 1.555-4.155 1.835-1.453 0.28-2.982 0.459-4.512 0.51h-7.826v-25.899zM5.149 22.156c0.178 0 0.357 0 0.561 0.025h1.045c0.178 0.025 0.306 0.051 0.459 0.051h0.433c0.255 0 0.484-0.025 0.739-0.025s0.51-0.025 0.765-0.051c0.765-0.076 1.504-0.204 2.243-0.408 0.714-0.229 1.351-0.535 1.886-0.994 0.816-0.688 1.453-1.657 1.861-2.83 0.433-1.198 0.663-2.422 0.663-3.696v-0.535c0-1.275-0.229-2.498-0.637-3.671-0.408-1.198-1.020-2.167-1.81-2.906-0.586-0.535-1.249-0.918-2.014-1.122-0.739-0.204-1.529-0.306-2.345-0.357-0.178-0.025-0.357-0.025-0.535-0.025h-3.314v16.544h0zM35.534 26.413l-1.555-1.861c-0.688 0.612-1.453 1.122-2.345 1.529-0.867 0.408-1.784 0.637-2.677 0.714-0.102 0-0.178 0.025-0.28 0.025h-0.28c-0.204 0-0.382-0.025-0.586-0.025l-0.612-0.076c-0.382-0.076-0.765-0.178-1.173-0.306-0.382-0.153-0.739-0.331-1.096-0.535-0.637-0.433-1.147-1.020-1.529-1.733s-0.637-1.453-0.714-2.192v-0.943c0-0.025 0.025-0.051 0.025-0.051 0.025-0.051 0.025-0.051 0.025-0.102v-0.127c0.025-0.051 0.025-0.102 0.025-0.127 0.204-1.122 0.663-2.039 1.402-2.779 0.765-0.739 1.58-1.376 2.473-1.937-0.561-0.612-1.020-1.249-1.376-1.937-0.382-0.663-0.561-1.376-0.561-2.090 0-0.153 0-0.28 0.025-0.459 0.025-0.127 0.025-0.28 0.051-0.408l0.076-0.306c0.025-0.102 0.051-0.204 0.076-0.28 0.306-0.994 0.918-1.708 1.81-2.141 0.892-0.459 1.835-0.688 2.83-0.688 1.274 0 2.422 0.331 3.467 1.020s1.581 1.682 1.581 3.008v0.331c-0.077 0.816-0.382 1.529-0.918 2.141-0.535 0.586-1.096 1.122-1.708 1.606-0.153 0.076-0.28 0.153-0.408 0.255s-0.255 0.178-0.382 0.28l3.161 3.696c0.178-0.153 0.331-0.331 0.484-0.484 0.178-0.153 0.306-0.306 0.459-0.484 0.306-0.306 0.637-0.637 0.943-0.969s0.612-0.663 0.892-0.994l2.116 2.218c-0.255 0.255-0.484 0.51-0.739 0.765-0.229 0.229-0.459 0.484-0.688 0.765-0.28 0.229-0.51 0.484-0.765 0.739-0.229 0.255-0.459 0.51-0.688 0.739l3.467 4.206-4.308-0zM26.561 22.513c0.204 0.255 0.408 0.484 0.586 0.663 0.204 0.178 0.408 0.306 0.612 0.408 0.204 0.127 0.408 0.204 0.612 0.255s0.382 0.077 0.586 0.077c0.408 0 0.816-0.102 1.173-0.255s0.688-0.357 0.994-0.586c0.255-0.178 0.586-0.459 0.918-0.79l-3.543-4.231c-0.102 0.051-0.178 0.102-0.255 0.153s-0.153 0.102-0.204 0.153c-0.382 0.331-0.739 0.688-1.071 1.096s-0.586 0.816-0.714 1.275c-0.025 0.102-0.051 0.204-0.076 0.306-0.025 0.127-0.025 0.255-0.025 0.357 0 0.204 0.025 0.382 0.102 0.586 0.077 0.178 0.178 0.357 0.306 0.535zM29.391 14.381c0.025 0 0.051-0.025 0.077-0.025 0.025-0.025 0.025-0.025 0.076-0.051 0.026-0.025 0.051-0.025 0.076-0.076h0.051c0.382-0.28 0.765-0.586 1.096-0.892s0.535-0.714 0.663-1.198v-0.357c0-0.51-0.204-0.943-0.561-1.249-0.331-0.306-0.739-0.484-1.147-0.561h-0.408c-0.306 0.025-0.612 0.178-0.918 0.408-0.28 0.229-0.433 0.561-0.484 1.020v0.076c-0.025 0.025-0.025 0.051-0.025 0.102v0.076c-0.025 0.025-0.025 0.051-0.025 0.102 0 0.382 0.102 0.765 0.331 1.096 0.204 0.331 0.459 0.663 0.688 0.969 0.127 0.102 0.204 0.204 0.28 0.28 0.076 0.102 0.153 0.204 0.229 0.28zM66.225 12.724v0.867c0 2.32-0.382 4.512-1.172 6.551-0.765 2.065-2.269 3.722-4.537 4.971-0.714 0.484-1.504 0.816-2.371 1.096-0.867 0.229-1.733 0.433-2.575 0.535-0.331 0.025-0.612 0.051-0.892 0.051-0.306 0-0.586 0.025-0.867 0.025h-0.51c-0.153 0-0.306-0.025-0.484-0.051-2.090-0.127-4.104-0.688-6.041-1.708-1.937-0.994-3.518-2.371-4.716-4.053-0.586-0.918-1.045-1.912-1.402-2.931s-0.612-2.065-0.714-3.135c-0.025-0.204-0.051-0.433-0.077-0.663 0-0.229-0.025-0.459-0.025-0.688 0-2.498 0.663-4.843 1.937-7.086 1.3-2.269 3.135-3.951 5.481-5.124 0.51-0.255 1.020-0.459 1.555-0.612s1.071-0.306 1.631-0.433c0.535-0.127 1.045-0.204 1.58-0.255 0.51-0.051 1.045-0.077 1.529-0.077h0.382c2.039 0.051 4.002 0.535 5.914 1.427 1.912 0.918 3.569 2.167 4.945 3.747l-3.747 2.728c-1.020-1.020-2.090-1.784-3.263-2.345-1.147-0.561-2.371-0.841-3.671-0.841-0.433 0-0.867 0.051-1.3 0.077-0.459 0.076-0.918 0.153-1.377 0.255-1.912 0.586-3.365 1.708-4.333 3.339s-1.453 3.339-1.453 5.2v0.408c0.025 0.153 0.051 0.28 0.077 0.433 0 0.076 0 0.153 0.025 0.204 0.025 0.076 0.025 0.153 0.025 0.229 0.025 0.051 0.025 0.127 0.051 0.204s0.025 0.153 0.025 0.204c0.331 2.014 1.198 3.594 2.6 4.741s2.931 1.835 4.563 2.065c0.204 0.076 0.459 0.102 0.714 0.127h0.714c1.555 0 2.931-0.408 4.155-1.249s1.835-2.014 1.835-3.594l0.077-0.153h-6.373v-4.486h12.083zM18.022 29.141h0.969c0.688 0 1.275 0.612 1.275 1.376s-0.586 1.377-1.275 1.377h-0.969l0-2.753zM18.43 29.472v2.090h0.459c0.612 0 0.943-0.51 0.943-1.020 0-0.535-0.331-0.969-0.841-1.045l-0.561-0.025zM21.922 29.090c0.841 0 1.504 0.637 1.504 1.427s-0.663 1.453-1.504 1.453-1.529-0.663-1.529-1.453c0-0.79 0.688-1.427 1.529-1.427zM21.922 29.421c0.612 0 1.096 0.484 1.096 1.096 0 0.586-0.484 1.071-1.096 1.071s-1.096-0.484-1.096-1.071c0-0.612 0.484-1.096 1.096-1.096zM23.554 29.141h0.408v2.422h0.79v0.331h-1.198v-2.753zM26.052 29.064c0.306 0 0.612 0.102 0.867 0.255v0.51c-0.204-0.255-0.535-0.408-0.867-0.408-0.612 0-1.096 0.484-1.096 1.096 0 0.586 0.484 1.096 1.096 1.096 0.331 0 0.663-0.153 0.867-0.408v0.51c-0.255 0.178-0.561 0.255-0.867 0.255-0.816 0-1.504-0.663-1.504-1.453s0.688-1.453 1.504-1.453zM27.454 31.562h0.994v0.331h-1.402v-2.753h1.402v0.331h-0.994v0.79h0.994v0.331h-0.994v0.969zM29.977 31.715c-0.025 0.051-0.076 0.076-0.153 0.102-0.051 0.025-0.102 0.051-0.178 0.076h-0.204c-0.051-0.025-0.076-0.051-0.127-0.076-0.025-0.025-0.051-0.077-0.102-0.127 0-0.051-0.025-0.102-0.051-0.127v-0.076h0.025v-0.051c0.025-0.076 0.051-0.127 0.102-0.204 0.076-0.025 0.127-0.076 0.204-0.127-0.025-0.051-0.076-0.102-0.102-0.153-0.025-0.025-0.051-0.076-0.051-0.127v-0.076h0.025c0-0.076 0.051-0.102 0.102-0.153s0.102-0.051 0.153-0.051h0.051c0.076 0 0.153 0.026 0.204 0.076s0.077 0.102 0.077 0.204c0 0.076 0 0.127-0.051 0.178-0.076 0.076-0.127 0.102-0.178 0.153l0.306 0.357c0-0.025 0.026-0.076 0.076-0.102 0.026-0.051 0.026-0.076 0.076-0.102l0.077 0.102c0 0.025-0.025 0.051-0.051 0.076s-0.051 0.076-0.076 0.102h-0.026v0.025l0.204 0.255h-0.178l-0.153-0.153zM29.62 31.766c0.051 0 0.102-0.025 0.153-0.051l0.102-0.102h0.025v-0.025l-0.331-0.382c0 0.025 0 0.025-0.026 0.025-0.051 0.025-0.051 0.051-0.076 0.051-0.051 0.025-0.051 0.051-0.077 0.077-0.025 0-0.025 0.025-0.025 0.051v0.025c-0.025 0.025-0.025 0.051-0.025 0.051v0.025c0 0.076 0.025 0.127 0.076 0.178s0.102 0.076 0.178 0.076l0.025-0zM29.493 30.797v0.025c0 0.025 0 0.051 0.026 0.102 0.025 0.025 0.051 0.051 0.051 0.076 0.025 0 0.025 0 0.051 0.025h0.025c0.051-0.025 0.076-0.025 0.102-0.076 0.025-0.025 0.051-0.051 0.076-0.102v-0.025c0-0.051-0.025-0.076-0.051-0.102s-0.076-0.051-0.102-0.051h-0.025c-0.025 0-0.076 0-0.102 0.051-0.026 0-0.051 0.025-0.051 0.076zM32.526 29.064c0.535 0 1.020 0.28 1.3 0.688l-0.357 0.178c-0.204-0.306-0.535-0.51-0.943-0.51-0.612 0-1.096 0.484-1.096 1.096s0.484 1.096 1.096 1.096c0.51 0 0.918-0.255 0.969-0.79h-0.892v-0.306h1.326s0-0.841 0 0c0 0.867-0.484 1.478-1.402 1.478-0.943 0-1.529-0.663-1.529-1.478s0.688-1.453 1.529-1.453zM33.699 31.894l1.122-2.753h0.28l1.122 2.753h-0.433l-0.306-0.79h-1.045l-0.306 0.79h-0.433zM34.591 30.772l0.382-0.994 0.357 0.994h-0.739zM40.225 31.894l1.122-2.753h0.28l1.122 2.753h-0.433l-0.306-0.79h-1.045l-0.306 0.79h-0.433zM41.117 30.772l0.382-0.994 0.382 0.994h-0.765zM45.654 31.894l1.147-2.753h0.255l1.147 2.753h-0.433l-0.331-0.79h-1.020l-0.331 0.79h-0.433zM46.572 30.772l0.357-0.994 0.382 0.994h-0.739zM37.217 29.472c0.28 0.025 0.382 0.127 0.382 0.408s-0.204 0.408-0.433 0.408h-0.357v-0.816l0.408 0zM37.242 30.619h0.025c0.204 0 0.561 0.051 0.561 0.484 0 0.382-0.306 0.459-0.612 0.459h-0.408v-0.943h0.433zM36.707 31.894h0.714c0.484 0 0.841-0.331 0.841-0.79 0-0.357-0.229-0.612-0.535-0.714 0.178-0.127 0.28-0.331 0.28-0.561 0-0.408-0.28-0.688-0.688-0.688h-0.943v2.753l0.331-0zM39.307 29.472c0.255 0.025 0.357 0.127 0.382 0.408 0 0.28-0.204 0.408-0.433 0.408h-0.357v-0.816l0.408 0zM39.332 30.619c0.204 0 0.561 0.051 0.561 0.484 0 0.382-0.306 0.459-0.612 0.459h-0.382v-0.943h0.433zM38.797 31.894h0.714c0.484 0 0.816-0.331 0.816-0.79 0-0.357-0.204-0.612-0.51-0.714 0.178-0.127 0.28-0.331 0.28-0.561 0-0.408-0.28-0.688-0.688-0.688h-0.943v2.753l0.331-0zM42.952 29.141h0.255l1.937 2.039v-2.039h0.357v2.753h-0.28l-1.886-2.014v2.014h-0.382v-2.753z"></path>
</symbol>
<symbol id="fendi" viewBox="0 0 32 32">

<path fill="#000" style="fill: var(--color2, #000)" d="M2.093 20.96v3.525h-1.622v-8.379h5.55v1.487h-3.928v1.881h3.44v1.487h-3.44zM12.849 16.106v1.487h-4.144v1.758h3.807v1.487h-3.807v2.16h4.329v1.487h-5.925v-8.379h5.74zM19.117 21.939v-5.834h1.516v8.379h-1.625l-3.197-5.978h-0.020v5.978h-1.516v-8.379h1.713l3.108 5.834h0.020zM25.355 17.564c0.303 0 0.585 0.058 0.844 0.174s0.481 0.373 0.667 0.768c0.186 0.395 0.279 0.968 0.279 1.719 0 0.488-0.058 0.945-0.175 1.371s-0.308 0.77-0.575 1.034c-0.266 0.264-0.606 0.396-1.020 0.396h-1.582v-5.463l1.562-0zM25.572 24.485c0.609 0 1.127-0.136 1.552-0.407 0.421-0.269 0.761-0.63 0.999-1.055l0.008-0.015c0.231-0.406 0.412-0.878 0.517-1.377l0.006-0.032c0.102-0.497 0.154-0.998 0.154-1.501 0-0.45-0.047-0.903-0.14-1.359-0.1-0.483-0.268-0.913-0.496-1.302l0.011 0.020c-0.231-0.399-0.557-0.724-0.979-0.975s-0.944-0.376-1.566-0.376h-3.441v8.38h3.375zM31.53 16.106v8.379h-1.623v-8.379h1.623zM13.16 5.633l-0.016 7.28h1.088v-3.79h1.764v-0.957h-1.764v-1.52h3.134l0.013-1.007-4.218-0.006z"></path>
<path fill="#000" style="fill: var(--color2, #000)" d="M18.84 12.913l0.016-7.28h-1.088v3.79h-1.764v0.957h1.764v1.52h-3.133l-0.013 1.007 4.218 0.006z"></path>
</symbol>
<symbol id="gucci" viewBox="0 0 31 32">
<path d="M6.175 4.48v1.446c-0.52 0.462-1.764 0.737-2.689 0.737-0.924 0-3.483-0.578-3.483-3.296s2.436-3.303 3.418-3.303c0.984 0 2.031 0.18 2.638 0.586v1.272c0 0.159-0.217 0.145-0.217 0-0.014-0.217-0.593-1.517-2.039-1.489-1.561 0.032-2.616 1.259-2.616 2.877s1.025 3.007 2.573 2.963c0.503-0.014 1.026-0.173 1.28-0.384l0.006-1.408c0-0.404-0.245-0.549-0.491-0.549-0.16 0-0.16-0.231 0-0.231h2.11c0.159 0 0.159 0.245 0 0.231-0.244 0-0.491 0.145-0.491 0.549zM20.399 1.922c0 0.159-0.159 0.145-0.159 0-0.015-0.217-0.593-1.561-2.039-1.531-1.561 0.031-2.617 1.301-2.617 2.919s1.012 3.050 2.559 3.007c1.547-0.044 2.284-1.575 2.342-1.778s0.159-0.173 0.159-0.014v1.185c-0.635 0.462-1.836 0.954-2.76 0.954s-3.483-0.578-3.483-3.296c0-2.719 2.429-3.368 3.411-3.368 0.984 0 1.981 0.245 2.589 0.649v1.273zM30.75 0.159c0.231 0 0.231 0.217 0 0.217-0.247 0-0.492 0.145-0.492 0.549v4.813c0 0.404 0.245 0.549 0.492 0.549 0.231 0 0.231 0.289 0 0.289h-2.125c-0.231 0-0.231-0.289 0-0.289 0.247 0 0.492-0.145 0.492-0.549v-4.813c0-0.405-0.245-0.549-0.492-0.549-0.231 0-0.231-0.217 0-0.217h2.125zM13.851 0.159c0.231 0 0.231 0.217 0 0.217-0.245 0-0.491 0.145-0.491 0.549l-0.028 3.159c0 1.512-1.227 2.624-2.74 2.624s-2.695-1.112-2.695-2.624v-3.159c0-0.405-0.247-0.549-0.492-0.549-0.231 0-0.231-0.217 0-0.217h2.139c0.231 0 0.231 0.217 0 0.217-0.247 0-0.492 0.145-0.492 0.549l-0.002 3.527c0 1.067 0.872 1.932 1.939 1.932s1.932-1.082 1.932-2.148l-0.052-3.312c0-0.405-0.245-0.549-0.492-0.549-0.23 0-0.23-0.217 0-0.217h1.474zM15.829 14.32c1.202-0.607 2.621-0.962 4.122-0.962 0.005 0 0.010 0 0.015 0h-0.001c5.148 0.001 9.32 4.174 9.32 9.322s-4.174 9.322-9.322 9.322c-1.505 0-2.927-0.357-4.186-0.99l0.054 0.024c-1.204 0.608-2.624 0.964-4.127 0.964-5.148 0-9.321-4.173-9.321-9.321 0-5.145 4.169-9.317 9.313-9.321h0c1.486 0 2.885 0.346 4.132 0.962zM17.708 15.544c1.413 1.186 2.457 2.77 2.963 4.578l0.015 0.065h-1.932c-0.564-1.563-1.584-2.848-2.899-3.727l-0.027-0.017c-1.339 0.897-2.358 2.18-2.905 3.69l-0.017 0.052-1.931 0.001c0.528-1.875 1.575-3.46 2.975-4.639l0.014-0.012c-0.671-0.215-1.443-0.339-2.243-0.339-0.009 0-0.019 0-0.028 0h0.001c-4.129 0.004-7.474 3.352-7.474 7.481 0 4.132 3.349 7.481 7.481 7.481 0.798 0 1.566-0.125 2.287-0.356l-0.053 0.015c-1.845-1.566-3.065-3.819-3.262-6.359l-0.002-0.032h4.435v1.86l-2.157-0.001c0.575 1.513 1.576 2.755 2.857 3.613l0.027 0.017c1.307-0.874 2.307-2.117 2.861-3.579l0.017-0.051-2.157 0.001v-1.86h4.435c-0.211 2.572-1.441 4.821-3.281 6.369l-0.014 0.012c0.678 0.223 1.458 0.352 2.269 0.352 4.132 0 7.481-3.349 7.481-7.481s-3.349-7.481-7.481-7.481c-0.806 0-1.581 0.127-2.309 0.363l0.053-0.015zM27.468 1.922c0 0.159-0.159 0.145-0.159 0-0.014-0.217-0.593-1.561-2.039-1.531-1.561 0.031-2.617 1.301-2.617 2.919s1.012 3.050 2.559 3.007 2.284-1.575 2.342-1.778 0.16-0.173 0.16-0.014v1.185c-0.636 0.462-1.836 0.954-2.762 0.954-0.924 0-3.483-0.578-3.483-3.296 0-2.719 2.429-3.368 3.412-3.368 0.983 0 1.981 0.245 2.587 0.649v1.273z"></path>
</symbol>
<symbol id="hermes" viewBox="0 0 32 32">

<path fill="#000" style="transform: scale(1.1);fill: var(--color2, #000)" d="M28.578 18.481c-0.065 0.078-0.117 0.13-0.162 0.149-0.039 0.026-0.091 0.032-0.149 0.032-0.117 0-0.214-0.039-0.285-0.117s-0.104-0.208-0.104-0.389v-0.513c0-0.188 0.032-0.318 0.104-0.396s0.169-0.117 0.285-0.117c0.091 0 0.162 0.026 0.227 0.071 0.058 0.045 0.104 0.123 0.136 0.233 0.032 0.117 0.065 0.188 0.104 0.227 0.071 0.078 0.201 0.156 0.383 0.24 0.182 0.078 0.383 0.117 0.603 0.117 0.344 0 0.623-0.078 0.843-0.24 0.136-0.097 0.208-0.214 0.208-0.357 0-0.097-0.039-0.182-0.104-0.266s-0.175-0.156-0.324-0.208c-0.104-0.039-0.325-0.091-0.668-0.156-0.421-0.078-0.733-0.169-0.947-0.279s-0.389-0.259-0.512-0.46c-0.114-0.181-0.182-0.402-0.182-0.638 0-0.004 0-0.007 0-0.011v0.001c0-0.363 0.149-0.681 0.454-0.96 0.311-0.273 0.707-0.409 1.193-0.409 0.201 0 0.383 0.019 0.552 0.065 0.162 0.039 0.318 0.11 0.454 0.195 0.097-0.097 0.201-0.143 0.298-0.143 0.11 0 0.201 0.039 0.273 0.117s0.11 0.208 0.11 0.389v0.577c0 0.182-0.039 0.311-0.11 0.396-0.072 0.071-0.163 0.117-0.273 0.117-0.097 0-0.175-0.032-0.246-0.091-0.052-0.039-0.097-0.123-0.123-0.253-0.026-0.123-0.058-0.214-0.104-0.272-0.071-0.091-0.182-0.175-0.324-0.24s-0.312-0.091-0.5-0.091c-0.279 0-0.493 0.058-0.655 0.188s-0.24 0.259-0.24 0.402c0 0.097 0.032 0.188 0.097 0.272 0.065 0.091 0.162 0.162 0.292 0.208 0.084 0.032 0.318 0.091 0.713 0.169 0.389 0.078 0.694 0.162 0.902 0.253s0.383 0.233 0.526 0.434c0.136 0.195 0.208 0.428 0.208 0.701 0 0.376-0.13 0.681-0.396 0.908-0.357 0.298-0.804 0.447-1.356 0.447-0.208 0-0.415-0.026-0.616-0.078-0.223-0.059-0.417-0.137-0.599-0.234l0.015 0.007zM17.777 15.581v2.316h0.311c0.208 0 0.357 0.032 0.441 0.104 0.091 0.078 0.136 0.169 0.136 0.286 0 0.11-0.045 0.208-0.136 0.279-0.084 0.071-0.233 0.104-0.441 0.104h-1.122c-0.208 0-0.357-0.032-0.441-0.104-0.091-0.071-0.13-0.169-0.13-0.285 0-0.11 0.039-0.201 0.123-0.279 0.091-0.071 0.227-0.104 0.402-0.104v-3.042c-0.149-0.013-0.259-0.052-0.337-0.123s-0.117-0.162-0.117-0.266c0-0.117 0.045-0.208 0.136-0.279 0.084-0.078 0.233-0.11 0.435-0.11h0.94l1.168 2.342 1.148-2.342h0.947c0.208 0 0.35 0.039 0.441 0.11 0.084 0.071 0.13 0.162 0.13 0.279 0 0.104-0.039 0.195-0.117 0.266s-0.188 0.11-0.337 0.123v3.042c0.182 0 0.311 0.032 0.402 0.11 0.084 0.072 0.13 0.163 0.13 0.279 0 0.11-0.045 0.208-0.136 0.279-0.084 0.071-0.233 0.104-0.441 0.104h-1.122c-0.208 0-0.35-0.032-0.441-0.104-0.084-0.071-0.13-0.169-0.13-0.285 0-0.11 0.045-0.201 0.13-0.279 0.091-0.071 0.233-0.104 0.441-0.104h0.312v-2.316l-0.986 2.27h-0.74l-0.999-2.27zM12.517 15.964h0.597c0.221 0 0.415-0.039 0.59-0.104 0.234-0.091 0.389-0.097 0.474-0.201 0.078-0.097 0.123-0.11 0.123-0.208 0-0.149-0.078-0.285-0.234-0.409s-0.376-0.188-0.675-0.188h-0.876v1.109h-0zM12.517 16.652v1.245h0.273c0.188 0 0.318 0.032 0.396 0.104s0.117 0.169 0.117 0.286c0 0.11-0.039 0.208-0.117 0.279s-0.208 0.104-0.396 0.104h-1.161c-0.182 0-0.311-0.032-0.389-0.104s-0.117-0.169-0.117-0.285c0-0.11 0.039-0.208 0.117-0.279s0.208-0.104 0.389-0.104h0.123v-3.042h-0.123c-0.182 0-0.311-0.032-0.389-0.11-0.078-0.071-0.117-0.162-0.117-0.279s0.039-0.214 0.117-0.285 0.208-0.104 0.389-0.104h1.732c0.662 0 1.706 0.253 1.706 1.090 0 0.811-0.136 0.765-0.662 1.051 0.409 0.266 0.59 0.636 0.623 1.68 0.195 0 0.499 0.013 0.564 0.058 0.11 0.078 0.162 0.188 0.162 0.331 0 0.11-0.039 0.208-0.11 0.279-0.078 0.071-0.208 0.11-0.396 0.104l-1.148-0.045c-0.039-1.505-0.104-2.004-0.83-1.972h-0.752zM7.496 16.788v1.116h1.894v-0.409c0-0.188 0.039-0.318 0.104-0.396 0.071-0.078 0.162-0.117 0.272-0.117 0.104 0 0.195 0.039 0.266 0.117s0.104 0.208 0.104 0.396v1.174h-3.497c-0.182 0-0.311-0.032-0.383-0.104-0.078-0.071-0.117-0.162-0.117-0.279 0-0.11 0.039-0.201 0.117-0.273s0.201-0.11 0.383-0.11h0.11v-2.99h-0.11c-0.182 0-0.311-0.032-0.383-0.104-0.078-0.071-0.117-0.162-0.117-0.279s0.039-0.208 0.117-0.279c0.071-0.071 0.201-0.104 0.383-0.104h3.334v1.168c0 0.182-0.039 0.311-0.104 0.389s-0.156 0.117-0.266 0.117c-0.117 0-0.201-0.039-0.272-0.117s-0.104-0.208-0.104-0.389v-0.402h-1.732v1.109h0.655l0.83-0.013 0.039 0.746-0.869 0.032h-0.655zM24.387 16.788v1.116h1.901v-0.409c0-0.188 0.032-0.318 0.097-0.396 0.071-0.078 0.162-0.117 0.272-0.117s0.195 0.039 0.266 0.117c0.071 0.078 0.104 0.208 0.104 0.396v1.174h-3.496c-0.182 0-0.305-0.032-0.383-0.104s-0.117-0.162-0.117-0.279c0-0.11 0.039-0.201 0.117-0.273s0.208-0.11 0.383-0.11h0.117v-2.99h-0.117c-0.182 0-0.305-0.032-0.383-0.104s-0.117-0.162-0.117-0.279c0-0.117 0.039-0.208 0.117-0.279s0.201-0.104 0.383-0.104h3.334v1.168c0 0.182-0.032 0.311-0.104 0.389-0.065 0.078-0.156 0.117-0.266 0.117s-0.201-0.039-0.272-0.117c-0.065-0.078-0.104-0.208-0.104-0.389v-0.402h-1.732v1.109h0.655l0.83-0.013 0.045 0.746-0.876 0.032h-0.655zM3.688 16.736h-1.777v1.142h0.13c0.201 0 0.344 0.039 0.428 0.117 0.084 0.071 0.13 0.169 0.13 0.286s-0.045 0.208-0.13 0.279c-0.084 0.078-0.227 0.11-0.428 0.11h-1.018c-0.195 0-0.337-0.032-0.428-0.11-0.084-0.071-0.123-0.169-0.123-0.285 0-0.143 0.065-0.253 0.195-0.337 0.065-0.039 0.208-0.058 0.415-0.058v-3.088c-0.143-0.013-0.253-0.058-0.331-0.13-0.071-0.071-0.11-0.162-0.11-0.272 0-0.117 0.045-0.214 0.13-0.285s0.227-0.11 0.428-0.11l0.843 0.006c0.201 0 0.344 0.032 0.428 0.104 0.084 0.078 0.13 0.169 0.13 0.285 0 0.123-0.045 0.221-0.13 0.292s-0.227 0.11-0.428 0.11h-0.13v1.155h1.777v-1.155h-0.13c-0.201 0-0.344-0.039-0.428-0.11s-0.13-0.169-0.13-0.292c0-0.117 0.045-0.214 0.13-0.285s0.227-0.11 0.428-0.11l0.843 0.006c0.201 0 0.344 0.032 0.428 0.104 0.084 0.078 0.13 0.169 0.13 0.285 0 0.11-0.039 0.201-0.11 0.272-0.078 0.071-0.188 0.117-0.331 0.13v3.088c0.214 0 0.35 0.026 0.409 0.058 0.136 0.084 0.201 0.195 0.201 0.344 0 0.117-0.045 0.208-0.13 0.279-0.084 0.078-0.227 0.11-0.422 0.11h-1.018c-0.201 0-0.344-0.032-0.428-0.11-0.084-0.071-0.13-0.169-0.13-0.285s0.045-0.208 0.13-0.279c0.084-0.078 0.227-0.117 0.428-0.117h0.13v-1.142h0zM24.511 13.22l0.986 0.169c0.117 0.019 0.195 0.065 0.233 0.13 0.032 0.052 0.039 0.11 0.019 0.175-0.020 0.058-0.059 0.105-0.109 0.136l-0.001 0.001c-0.045 0.026-0.117 0.033-0.22 0.013l-0.986-0.169c-0.117-0.019-0.195-0.058-0.233-0.123-0.032-0.058-0.039-0.117-0.019-0.175s0.052-0.11 0.11-0.136c0.045-0.026 0.117-0.032 0.22-0.019z"></path>
</symbol>
<symbol id="louis-vuitton" viewBox="0 0 32 32">

<path fill="#000" style="fill: var(--color2, #000)" d="M28.219 28.62h0.338v2.861l-2.069-2.166v2.059h-0.348v-2.891l2.078 2.175v-2.040zM18.494 28.62v1.75c0 0.309-0.087 0.561-0.261 0.754-0.183 0.213-0.435 0.309-0.754 0.309-0.3 0-0.551-0.097-0.735-0.309-0.183-0.194-0.271-0.445-0.271-0.754v-1.75h0.348v1.634c0 0.57 0.213 0.861 0.657 0.861 0.454 0 0.677-0.29 0.677-0.861v-1.634h0.338zM19.558 28.62h1.653v0.319h-0.657v2.436h-0.329v-2.436h-0.667v-0.319zM18.958 28.62h0.348v2.755h-0.348v-2.755zM15.913 28.62h0.377l-1.199 2.91-1.199-2.91h0.377l0.822 2.040 0.822-2.040zM25.502 30.002c0 0.309-0.106 0.57-0.329 0.793-0.203 0.213-0.464 0.319-0.764 0.319s-0.561-0.106-0.783-0.319c-0.222-0.222-0.329-0.483-0.329-0.793s0.097-0.57 0.309-0.783c0.213-0.222 0.483-0.329 0.802-0.329s0.58 0.106 0.783 0.329c0.203 0.213 0.309 0.474 0.309 0.783zM25.425 28.987c-0.29-0.28-0.628-0.425-1.015-0.425-0.396 0-0.734 0.145-1.025 0.425-0.28 0.28-0.425 0.619-0.425 1.015 0 0.406 0.145 0.744 0.425 1.025 0.28 0.271 0.619 0.406 1.025 0.406 0.397 0 0.744-0.135 1.015-0.406 0.28-0.28 0.425-0.619 0.425-1.025 0-0.396-0.145-0.735-0.425-1.015zM22.883 28.62v0.319h-0.648v2.436h-0.348v-2.436h-0.657v-0.319h1.653zM6.894 29.219c0.203 0.213 0.3 0.474 0.3 0.783s-0.106 0.57-0.319 0.793c-0.213 0.213-0.474 0.319-0.773 0.319s-0.561-0.106-0.783-0.319c-0.203-0.222-0.319-0.483-0.319-0.793s0.106-0.57 0.309-0.783c0.213-0.222 0.474-0.329 0.793-0.329s0.59 0.106 0.793 0.329zM7.116 28.987c-0.29-0.28-0.628-0.425-1.015-0.425-0.396 0-0.744 0.145-1.015 0.425-0.29 0.28-0.435 0.619-0.435 1.015 0 0.406 0.145 0.744 0.435 1.025 0.271 0.271 0.609 0.406 1.015 0.406s0.744-0.135 1.015-0.406c0.29-0.28 0.425-0.619 0.425-1.025 0-0.396-0.135-0.735-0.425-1.015zM8.17 30.253c0 0.57 0.222 0.861 0.667 0.861 0.435 0 0.667-0.29 0.667-0.861v-1.634h0.338v1.75c0 0.309-0.087 0.561-0.271 0.754-0.184 0.213-0.435 0.309-0.735 0.309-0.309 0-0.551-0.097-0.735-0.309-0.193-0.194-0.28-0.445-0.28-0.754v-1.75h0.348v1.634h-0zM3.781 28.62v2.446h0.841v0.309h-1.179v-2.755l0.338 0zM12.066 29.751c0.464 0.183 0.686 0.454 0.686 0.822 0 0.251-0.087 0.454-0.261 0.619-0.164 0.164-0.367 0.242-0.609 0.242-0.222 0-0.416-0.068-0.58-0.222-0.155-0.145-0.251-0.329-0.28-0.551l0.348-0.078c0 0.155 0.048 0.28 0.155 0.387 0.106 0.097 0.222 0.145 0.377 0.145 0.145 0 0.261-0.058 0.367-0.164 0.087-0.097 0.135-0.222 0.135-0.377 0-0.213-0.155-0.386-0.474-0.522l-0.193-0.067c-0.387-0.184-0.59-0.416-0.59-0.706 0-0.213 0.087-0.396 0.242-0.522 0.164-0.135 0.348-0.193 0.57-0.193 0.319 0 0.551 0.145 0.706 0.425l-0.271 0.155c-0.106-0.164-0.251-0.251-0.445-0.251-0.116 0-0.232 0.029-0.319 0.097-0.097 0.077-0.145 0.174-0.145 0.29 0 0.164 0.126 0.29 0.396 0.387l0.184 0.087zM10.306 28.62h0.348v2.755h-0.348v-2.755zM23.881 3.715l-6.667 15.737-1.839-4.036 3.398-9.248c0.256-0.715 1.149-1.047 2.657-1.047l0.536-1.405h-7.919l-0.511 1.405c1.124 0 1.584 0.332 1.405 1.047l-1.686 4.7-3.321-7.153c-0.613-0.766-0.307-1.15 0.894-1.15v-1.66h-7.664v1.66c1.431 0 2.325 0.383 2.708 1.15l5.62 11.956-2.631 7.025c-0.051 0.945-1.533 1.405-4.394 1.405l-0.536 1.405h21.867l3.040-6.463h-1.584c-1.482 3.346-3.193 5.058-5.109 5.058h-10.040l1.482-3.96 1.277 2.554h2.861l8.072-18.981c0.383-1.15 1.38-1.763 2.938-1.763v-1.482h-6.591v1.482c1.993 0 2.555 0.613 1.737 1.763z"></path>
</symbol>
<symbol id="prada" viewBox="0 0 201 32">
<path d="M26.044 0.831c3.973 0.69 7.395 4.16 7.458 9.569-0.199 5.582-4.342 8.343-8.372 9.638l-13.297-0.070 0.258 8.716 2.486 2.914-13.79-0.020 2.252-3.167v-24.202l-3.038-3.307zM11.34 2.45v15.548l10.202 0.071c2.321-1.807 4.081-3.19 4.011-7.528-0.033-3.537-0.807-6.621-4.222-8.091h-9.991zM65.926 0.656c3.974 0.69 7.395 4.16 7.458 9.568-0.2 5.582-4.342 8.343-8.372 9.638l-10.146-0.053 3.175 2.61h9.008l10.791 9.008-11.823 0.093-14.246-11.728h-0.055l0.258 8.716 2.486 2.914-13.789-0.019 2.252-3.168v-24.202l-3.038-3.308zM51.223 2.273v15.548l10.202 0.071c2.322-1.807 4.081-3.19 4.011-7.529-0.033-3.536-0.807-6.621-4.222-8.091zM91.137 1.455l4.488 5.779v1.478l-10.623 21.599-2.815 0.844 6.473 0.141-1.056-0.985c-0.54-0.815 0.188-1.313 0.282-1.969l2.814-5.77 13.157-0.071 3.87 5.981 0.141 2.064-2.252 0.68h14.986c-1.337-0.939-3.341-0.674-4.011-2.815l-15.478-27.72h-11.89zM91.532 20.598l5.465-9.985 5.689 9.929zM171.54 1.516l4.488 5.778v1.479l-10.623 21.599-2.815 0.844 6.472 0.141-1.056-0.985c-0.539-0.815 0.188-1.313 0.282-1.971l2.814-5.768 13.157-0.071 3.869 5.979 0.141 2.064-2.252 0.681h14.987c-1.337-0.939-3.341-0.674-4.011-2.815l-15.479-27.72h-11.89zM171.935 20.659l5.465-9.985 5.69 9.928zM124.713 0.402l21.182 0.113c6.821 1.542 11.161 5.564 12.506 12.58l-0.057 5.472c-1.244 6.252-5.318 10.565-12.506 12.749l-21.238 0.058-0.003-0.662c3.229-0.235 3.487-0.591 3.495-2.441v-24.935c-0.036-1.368-0.319-2.219-3.436-2.313zM136.754 2.536l-0.020 26.978c2.794 0.009 5.217 0.262 6.586-0.413 3.102-1.368 4.543-3.468 4.675-5.441l-0.074-15.93c0.001-2.548-2.865-4.347-4.519-4.816-1.183-0.423-3.544-0.441-6.648-0.378z"></path>
</symbol>
<symbol id="valentino" viewBox="0 0 32 32">

<path fill="#000" style="fill: var(--color2, #000)" d="M2.059 13.719l0.011 0.102h-0.512l0.975 3.518c0.252-0.845 0.729-2.304 0.965-3.163 0.035-0.13-0.025-0.246-0.116-0.294-0.074-0.039-0.242-0.025-0.34-0.028l-0.014-0.133h1.179v0.102c-0.158 0.007-0.438 0.035-0.495 0.193-0.498 1.35-1.042 3.174-1.399 4.328h-0.056l-1.343-4.521h-0.431l-0.010-0.102h1.589zM5.805 16.808l-1.14-0.011c-0.116 0.347-0.221 0.768-0.298 1.108-0.028 0.133-0.010 0.179 0.032 0.239s0.302 0.021 0.46 0.031l-0.010 0.098h-1.084l-0.010-0.098c0.102-0.010 0.358 0.028 0.393-0.074 0.372-1.041 0.933-3.241 1.305-4.45h0.063l1.298 4.524h0.41v0.098h-1.54v-0.098h0.519l-0.396-1.368zM5.244 14.746l-0.55 1.974h1.094l-0.544-1.974zM8.004 13.852h-0.537v-0.133h1.627v0.133h-0.544v4.335c0.27 0 0.551-0.014 0.821-0.007 1.028 0.028 1.227-0.396 1.224-1.361l0.077-0.010-0.010 1.466h-3.202v-0.087h0.544v-4.335zM11.507 13.866h-0.47v-0.133h2.872l0.077 1.14-0.074-0.010c-0.046-0.372-0.063-0.481-0.221-0.691s-0.445-0.281-0.758-0.284l-0.863-0.010-0.010 2.076c0.151-0.004 0.305-0.004 0.456-0.014 0.151-0.007 0.379-0.088 0.46-0.203s0.095-0.323 0.109-0.614h0.081l0.010 1.694h-0.112c0-0.007-0.004-0.017-0.004-0.031-0.004-0.203 0.025-0.375-0.098-0.558-0.074-0.116-0.312-0.2-0.523-0.193l-0.379 0.011 0.010 2.15c0.515-0.003 1.413 0.088 1.803-0.305 0.165-0.165 0.207-0.519 0.207-0.891l0.105 0.007-0.007 1.269h-3.132l-0.010-0.091h0.47v-4.317h-0zM17.743 13.877c-0.066-0.063-0.34-0.039-0.47-0.039l0.010-0.119 1.123 0.007v0.095c-0.376 0.010-0.502-0.039-0.512 0.337-0.035 1.052-0.007 3.353-0.010 4.184l-0.098 0.007-2.585-4.331c-0.007 0.642-0.025 2.908-0.025 3.809 0 0.452 0.242 0.34 0.568 0.333v0.116h-1.189v-0.095c0.54-0.014 0.537 0.017 0.544-0.649 0.010-1.182 0.018-2.438 0.021-3.707-0.266 0.004-0.403 0.007-0.537 0.007v-0.112l1.15 0.007 2.059 3.427c-0.003-0.344 0.010-2.332 0.003-3.055-0.003-0.126-0.031-0.207-0.052-0.221zM27.149 13.88c-0.066-0.063-0.34-0.039-0.47-0.042l0.010-0.116 1.123 0.007v0.095c-0.376 0.007-0.498-0.042-0.512 0.333-0.035 1.056-0.007 3.353-0.010 4.184l-0.098 0.007-2.584-4.331c-0.007 0.645-0.025 2.908-0.025 3.809 0 0.452 0.242 0.34 0.568 0.333v0.116h-1.189v-0.095c0.54-0.014 0.54 0.017 0.544-0.645 0.010-1.186 0.017-2.438 0.021-3.707-0.263 0.004-0.403 0.004-0.537 0.004v-0.109l1.15 0.007 2.059 3.423c-0.003-0.344 0.010-2.332 0.003-3.051-0.004-0.126-0.032-0.207-0.053-0.221zM19.998 13.841c-0.487-0.010-0.926 0.028-1.094 0.235-0.172 0.207-0.154 0.498-0.196 0.964l-0.077 0.010 0.007-1.333h3.297l0.017 1.343h-0.088c-0.045-0.526-0.035-0.821-0.214-0.993s-0.691-0.239-1.088-0.239l-0.010 4.338 0.54 0.011v0.098h-1.656v-0.098h0.551l0.011-4.338zM22.73 13.852h-0.473v-0.133h1.508v0.133h-0.484v4.317h0.463v0.109h-1.519v-0.109h0.505v-4.317zM29.811 13.733c-0.046 0-0.095 0.004-0.144 0.014-0.060 0.013-0.11 0.027-0.159 0.045l0.008-0.003c-0.196 0.077-0.379 0.274-0.543 0.593-0.165 0.323-0.246 0.856-0.246 1.606 0 0.744 0.080 1.273 0.242 1.596 0.165 0.319 0.344 0.519 0.537 0.6 0.052 0.024 0.105 0.038 0.154 0.049s0.098 0.014 0.151 0.014c0.049 0 0.098-0.003 0.151-0.014s0.105-0.025 0.158-0.049c0.193-0.084 0.372-0.288 0.533-0.607 0.165-0.323 0.246-0.852 0.246-1.588 0-0.681-0.070-1.175-0.207-1.491s-0.288-0.53-0.453-0.638c-0.064-0.045-0.139-0.080-0.22-0.101l-0.005-0.001c-0.061-0.015-0.131-0.024-0.203-0.025h-0zM28.11 15.998c0-0.666 0.154-1.203 0.463-1.606 0.309-0.407 0.645-0.645 1.017-0.719 0.038-0.007 0.077-0.010 0.116-0.014 0.038-0.007 0.074-0.007 0.109-0.007 0.442 0 0.838 0.217 1.189 0.659 0.351 0.438 0.526 1.003 0.526 1.687 0 0.645-0.14 1.161-0.421 1.55s-0.589 0.635-0.923 0.736c-0.054 0.023-0.117 0.040-0.182 0.049l-0.004 0c-0.053 0.009-0.113 0.014-0.175 0.014-0.004 0-0.008-0-0.011-0h0.001c-0.001 0-0.002 0-0.002 0-0.101 0-0.2-0.014-0.293-0.040l0.008 0.002c-0.105-0.025-0.21-0.066-0.319-0.119-0.273-0.154-0.526-0.41-0.754-0.765-0.231-0.358-0.347-0.831-0.344-1.428z"></path>
</symbol>
</defs>
</svg>
