<svg width="87" height="25" viewBox="0 0 87 25" fill="none" xmlns="http://www.w3.org/2000/svg">
<path d="M11.9421 2.84999C14.0467 2.84999 16.0605 2.8689 17.5827 3.01084L17.552 3.00662C17.8946 3.06955 18.4882 3.37932 18.7973 3.65621L19.3385 4.14077L19.3867 3.41636C19.421 2.89754 19.8265 1.47882 20.102 1.02712L20.4313 0.488016L1.24183 0.510379H0.855851L0.8901 0.89567C0.91737 1.19214 0.74957 2.39621 0.40695 3.394L0 4.57919L0.967026 3.78138C1.37817 3.44226 1.91796 3.15415 2.19556 3.12688C3.89118 2.95557 5.20083 2.84999 8.27183 2.84999H8.27603V22.7094C8.27603 23.4247 7.66071 23.9023 7.65442 23.9072L6.71325 24.626L7.89354 24.5421C8.38649 24.5071 9.63462 24.4414 10.1136 24.4414C10.5226 24.4414 11.5351 24.496 12.2777 24.5428L13.2126 24.6015L12.5497 23.9393C12.3833 23.7722 11.9519 23.231 11.9519 22.7486V2.84999H11.9421Z" fill="#231F20"/>
<path d="M30.7281 24.8833C34.5752 24.8833 38.0007 23.5764 40.3746 21.2026C42.7023 18.8748 43.933 15.6864 43.933 11.9826C43.933 8.58854 42.8653 5.80004 40.7592 3.69328C38.4119 1.34668 34.7801 -6.183e-05 30.7952 -6.183e-05C23.2387 -6.183e-05 17.9609 5.13715 17.9609 12.493C17.9609 16.0807 19.1329 19.1489 21.3501 21.3662C23.6505 23.6673 26.8935 24.8833 30.7281 24.8833ZM24.0232 4.9931C25.5832 3.0122 28.1018 1.82913 30.7617 1.82913C33.2292 1.82913 35.3591 2.65559 36.9225 4.21906C38.8839 6.17969 39.9201 9.18218 39.9201 12.9007C39.9201 19.0685 36.4443 23.0534 31.0651 23.0534C28.6486 23.0534 26.6013 22.1787 24.9812 20.4523C22.7129 18.0365 21.8319 14.5208 21.9738 12.277C21.9745 9.49405 22.3227 7.20126 24.0232 4.9931Z" fill="#231F20"/>
<path d="M45.6101 24.373H53.0338C56.3194 24.373 60.4092 24.3731 63.4536 21.7013C66.3953 19.0918 67.8245 15.7243 67.8245 11.4045C67.8245 7.75526 66.4974 4.64023 64.0878 2.63206C61.4713 0.435093 58.4639 0.467243 55.2804 0.502204L54.1134 0.510612H44.8346L45.343 1.09585C45.636 1.43497 46.1023 2.11601 46.1023 2.49639V22.274C46.1023 22.853 45.5611 23.555 45.3528 23.7773L44.792 24.373H45.6101ZM49.7782 2.55234C50.3739 2.53835 50.6242 2.53833 51.2004 2.51316C52.0563 2.4768 52.8639 2.44185 53.675 2.44185C57.5822 2.44185 60.1218 3.16138 61.6671 4.70596C63.1299 6.16944 63.8116 8.45941 63.8116 11.915C63.8116 16.6215 62.2426 19.798 59.1485 21.358C56.7375 22.588 53.138 22.3642 50.2446 22.1845L49.7782 22.1544V2.55234Z" fill="#231F20"/>
<path d="M69.0503 4.58005C68.8049 3.75217 67.8896 3.66898 67.4351 3.22987C66.8142 2.62853 66.9576 1.10072 68.1903 0.54064C69.0168 0.165855 70.3768 0.501499 70.718 1.30841C71.0292 2.04609 70.9655 2.88513 70.7572 3.47667C70.5481 4.06752 69.5643 6.64908 69.2517 7.06302C69.1 7.2637 68.7923 7.39795 68.7923 7.39795C68.7923 7.39795 69.3091 5.44639 69.0503 4.58005Z" fill="#231F20"/>
<path d="M72.6756 19.4846C72.5491 20.4432 72.3854 21.4641 72.0512 22.443L71.9834 22.6409L72.1239 22.7961C73.4224 24.2197 76.3284 24.8833 77.8842 24.8833C80.4636 24.8833 82.7599 24.0072 84.3513 22.4164C85.8022 20.9648 86.5692 19.0147 86.5692 16.7772C86.5692 12.7832 83.4738 11.5546 80.7419 10.4715C78.1673 9.44998 75.9438 8.56758 75.9438 5.79445C75.9438 4.81064 76.2892 3.94499 76.9437 3.29121C77.6667 2.56822 78.6953 2.16965 79.8406 2.16965C81.6453 2.16965 83.0137 3.14017 83.6933 4.90152L83.7807 5.12809H84.6289L84.7009 4.87075L84.8233 4.43305C85.0484 3.62264 85.2617 2.85699 85.5924 2.13329L85.7008 1.89695L85.5078 1.72282C84.0947 0.453029 81.9669 -6.183e-05 80.4475 -6.183e-05C75.6837 -6.183e-05 72.6057 2.70176 72.6057 6.88243C72.6057 11.1519 75.7333 12.3909 78.4925 13.4845C80.9992 14.4774 83.1633 15.3353 83.1633 18.1036C83.1633 20.6886 81.2593 22.7136 78.8288 22.7136C76.6074 22.7136 75.1117 21.7389 73.6671 19.3482L73.5636 19.1776H72.7169L72.6756 19.4846Z" fill="#231F20"/>
</svg>
