<svg width="172" height="26" viewBox="0 0 172 26" fill="none" xmlns="http://www.w3.org/2000/svg">
<path d="M27.527 0.085107C27.513 0.132412 27.4797 0.241913 27.4525 0.328638C26.8768 2.21557 26.2335 4.46516 24.6692 10.0743C22.7877 16.8178 21.9324 19.7612 21.0701 22.4523C20.8028 23.288 20.3646 24.5845 20.3121 24.6949C20.3015 24.7168 20.2665 24.7606 20.2341 24.793C20.1359 24.8894 19.9729 24.9586 19.7512 24.9971C19.5347 25.0348 19.4532 25.0391 18.824 25.0418C18.4893 25.0435 18.2027 25.047 18.1869 25.0497C18.1615 25.054 18.1589 25.0575 18.1624 25.0786C18.165 25.0917 18.1764 25.1986 18.1887 25.3168C18.2009 25.4351 18.2132 25.5464 18.2158 25.5639L18.2211 25.5972H21.2173C22.8648 25.5972 24.2135 25.5963 24.2135 25.5945C24.2214 25.5542 24.2723 25.0567 24.2688 25.054C24.2644 25.0488 23.6895 25.0497 22.8464 25.0549C22.2102 25.0584 22.1515 25.0558 21.964 25.0059C21.8159 24.9664 21.765 24.9314 21.687 24.8131C21.5337 24.5801 21.4846 24.4172 21.4846 24.143C21.4855 23.8995 21.5056 23.7751 21.6511 23.1443C22.1392 21.027 22.6405 19.1655 23.1225 17.6737L23.2049 17.4196L23.3871 17.4214C23.4871 17.4231 24.9067 17.4363 26.5402 17.4511C28.1746 17.466 29.5119 17.4792 29.5119 17.4801C29.5128 17.4801 30.0053 19.1795 30.6065 21.2565C31.2077 23.3327 31.7019 25.0374 31.7037 25.0427C31.7072 25.0514 31.4171 25.054 30.27 25.054H28.8319V25.3256V25.5972H33.0909H37.35V25.3256V25.054H36.216H35.0829L35.0022 24.7711C34.8611 24.2788 27.9117 0.0316704 27.9065 0.0150262C27.9021 0.00188603 27.8854 0.000134005 27.7277 0.000134005H27.5533L27.527 0.085107ZM27.9161 11.5389C28.7329 14.5104 29.4041 16.9536 29.4068 16.9685L29.4129 16.9947H26.3869H23.3617L23.367 16.972C23.3749 16.9413 26.3746 6.17601 26.393 6.11469L26.407 6.06651L26.4184 6.10155C26.4246 6.12082 27.0985 8.56752 27.9161 11.5389Z" fill="black"/>
<path d="M162.001 0.00875947C161.95 0.0131395 161.866 0.0227756 161.813 0.0297837C161.76 0.0376678 161.652 0.049932 161.572 0.0578161C161.197 0.0937325 160.922 0.148045 160.511 0.267183C158.726 0.787533 157.069 2.04286 155.551 4.02615C155.372 4.26092 155.232 4.45451 155.09 4.66914C153.852 6.52891 153.147 8.85296 152.975 11.629C152.923 12.4753 152.92 13.5081 152.966 14.3666C153.105 16.9105 153.686 19.0191 154.712 20.6984C154.801 20.8447 155.017 21.1749 155.141 21.3563C156.182 22.87 157.281 24.0062 158.468 24.7946C158.857 25.053 159.009 25.138 159.403 25.3123C159.895 25.5313 160.245 25.6531 160.757 25.7854C161.376 25.9457 161.789 26 162.39 26C162.774 26 162.974 25.9869 163.32 25.9378C163.686 25.8861 163.892 25.8397 164.166 25.7451C164.25 25.7153 164.404 25.6627 164.508 25.6277C164.611 25.5927 164.757 25.5418 164.832 25.5138C166.5 24.8936 168.059 23.5918 169.491 21.6243C170.306 20.5057 170.91 19.1951 171.304 17.6954C171.614 16.5146 171.793 15.2137 171.843 13.7665C171.854 13.438 171.854 12.5725 171.843 12.2589C171.74 9.43201 171.094 7.03875 169.886 5.01078C169.128 3.73881 168.027 2.47473 166.956 1.6469C166.497 1.29124 166.07 1.0188 165.599 0.779649C164.723 0.336388 163.862 0.0946085 162.878 0.0175196C162.722 0.00525543 162.119 -0.000876645 162.001 0.00875947ZM162.781 0.468665C163.133 0.504582 163.462 0.570282 163.736 0.658759C164.123 0.783153 164.526 0.997776 164.891 1.27197C165.72 1.89481 166.488 3.01523 167.191 4.62096C167.706 5.79919 168.042 7.34973 168.222 9.39084C168.396 11.3443 168.408 14.0582 168.253 16.1274C168.088 18.3367 167.742 20.0387 167.201 21.309C167.117 21.5026 166.911 21.9178 166.769 22.1762C166.174 23.2546 165.557 24.0439 164.891 24.5765C164.282 25.0644 163.598 25.3369 162.764 25.4236C162.596 25.4411 162.042 25.4385 161.872 25.4192C161.434 25.3701 161.022 25.2554 160.6 25.0653C159.626 24.6282 158.737 23.6716 157.896 22.1587C157.619 21.6594 157.446 21.2695 157.268 20.7439C156.774 19.2871 156.479 17.3126 156.384 14.8133C156.36 14.1879 156.354 13.8121 156.354 12.9299C156.354 11.5449 156.387 10.5778 156.472 9.50472C156.667 7.02999 157.089 5.20876 157.766 3.92891C158.534 2.47561 159.368 1.49097 160.266 0.974999C160.527 0.824326 160.751 0.734096 161.102 0.635107C161.464 0.53349 161.753 0.478301 162.045 0.455525C162.19 0.444137 162.621 0.452021 162.781 0.468665Z" fill="black"/>
<path d="M0 0.38794C0 0.399328 0.0113925 0.520218 0.0262904 0.657752C0.0403119 0.794409 0.0525807 0.911795 0.0525807 0.917051C0.0525807 0.925811 0.297081 0.928439 1.24441 0.928439C2.37227 0.928439 2.43712 0.929315 2.44325 0.943331C2.44676 0.952091 4.1197 6.58396 6.16071 13.4598L9.87291 25.9604H10.0289H10.1849L10.2138 25.8685C10.2567 25.7309 11.2383 22.5405 11.8517 20.5467C13.8761 13.9644 15.1757 9.90405 16.4648 6.13194C17.0922 4.29845 17.9011 2.02871 17.9844 1.87453C18.1368 1.58808 18.4532 1.36294 18.9247 1.20351C19.3252 1.0686 19.865 0.977495 20.4451 0.945083C20.5442 0.939827 20.6335 0.933695 20.6449 0.931943L20.6642 0.928439V0.648115V0.367792H17.4042C14.3055 0.367792 14.1442 0.368668 14.1451 0.382684C14.1468 0.442253 14.2205 1.09576 14.2266 1.10101C14.2301 1.10452 14.5079 1.11065 14.8435 1.11328C15.4876 1.11941 15.584 1.12467 15.7988 1.16584C16.0555 1.21577 16.229 1.31038 16.4139 1.50398C16.6777 1.77817 16.8127 2.14347 16.7969 2.53592C16.7943 2.60337 16.7855 2.6936 16.7776 2.7374C16.7399 2.95378 16.2115 4.79865 15.691 6.53491C15.1266 8.4157 14.6569 9.93733 13.3248 14.2C12.2881 17.5166 11.9498 18.609 11.5756 19.8503C11.4898 20.1367 11.4153 20.3785 11.4118 20.3873C11.4074 20.3987 10.5179 17.2003 8.71175 10.6767C7.23072 5.32777 6.01786 0.945959 6.01699 0.941579C6.01611 0.935447 6.49372 0.931943 7.42966 0.930191C8.76783 0.928439 8.84232 0.927563 8.84232 0.912671C8.84232 0.904787 8.83005 0.785649 8.81603 0.648991C8.80114 0.511458 8.78974 0.39232 8.78974 0.38356C8.78974 0.368668 8.64252 0.367792 4.39487 0.367792H0V0.38794Z" fill="black"/>
<path d="M38.7079 0.735983V1.10391H40.1933H41.6787V13.1053V25.1066H40.1758H38.6729V25.3519V25.5972H47.5327H56.3926V25.4412C56.3926 25.3563 56.4048 23.5307 56.4197 21.3853C56.4355 19.24 56.446 17.4836 56.4443 17.4818C56.4399 17.4783 56.035 17.5335 56.0297 17.5387C56.028 17.5405 56.0219 17.798 56.0166 18.1117C56.0061 18.696 55.9991 18.8957 55.9763 19.2768C55.8291 21.6446 55.2866 23.0664 54.1929 23.9468C53.4191 24.5705 52.3202 24.9288 50.8365 25.0409C50.4334 25.0707 50.2599 25.0759 49.6535 25.0716C48.5142 25.0637 47.2409 25.0689 46.595 25.0838C46.2506 25.0917 45.6854 25.1013 45.3401 25.104L44.7109 25.1092V13.107V1.10391H46.2138H47.7167V0.735983V0.368059H43.2123H38.7079V0.735983Z" fill="black"/>
<path d="M78.0826 0.679805V0.992541L78.5628 0.987285C78.8266 0.984657 79.4926 0.975021 80.043 0.967137C80.5933 0.958376 81.0464 0.953996 81.0499 0.9575C81.0665 0.974145 81.0096 12.7442 80.9657 18.1597C80.9324 22.3891 80.9263 22.8105 80.8956 23.2975C80.8387 24.1937 80.6871 24.594 80.326 24.8043C80.0666 24.9549 79.7029 25.018 78.9326 25.0452C78.7223 25.0522 78.0151 25.0714 77.9502 25.0714C77.9345 25.0714 77.9336 25.0828 77.9336 25.3343V25.5971H81.2199H84.5062V25.2773V24.9576H84.4326C84.33 24.9576 84.1039 24.9716 83.7087 25.0014C83.0479 25.0513 82.8806 25.0583 82.6702 25.0452C82.247 25.0198 81.9919 24.9234 81.7886 24.7149C81.5476 24.4679 81.4206 24.0877 81.3768 23.4815C81.3689 23.3781 81.368 22.7211 81.3724 20.9542C81.3768 18.7186 81.3803 18.0283 81.4039 14.3184C81.4328 9.74301 81.4837 3.37792 81.4986 2.39416L81.5047 2.02448L88.6513 14.0092C92.5817 20.6003 95.8023 25.9956 95.8093 25.9974C95.8189 26.0018 96.1143 25.9834 96.2869 25.9676L96.3456 25.9624V24.4153C96.3456 23.5647 96.3412 22.0956 96.3368 21.1513C96.2992 13.6465 96.2992 8.86875 96.3368 6.00507C96.357 4.49133 96.3929 2.92414 96.4157 2.54045C96.4771 1.54793 96.7198 1.15373 97.3534 1.01795C97.5821 0.968013 97.7662 0.9575 98.5189 0.946112C98.8633 0.940856 99.1666 0.934724 99.192 0.932096L99.2375 0.927716V0.669293C99.2375 0.527379 99.2367 0.41087 99.2358 0.41087C99.2323 0.409118 93.0286 0.368821 93.0278 0.370573C93.0269 0.371449 93.0164 0.496719 93.0032 0.648269C92.9901 0.799818 92.9778 0.946988 92.9743 0.975897L92.9691 1.02758L93.2311 1.02145C93.8813 1.00831 94.5123 1.00568 94.6762 1.01532C95.2826 1.05386 95.5551 1.1511 95.6603 1.36923C95.7462 1.54618 95.8075 1.80723 95.8417 2.14187C95.8671 2.38277 95.8741 3.81592 95.8689 7.44611C95.8662 9.30325 95.8601 11.8279 95.8549 13.057C95.8496 14.2851 95.8452 16.2097 95.8435 17.3336C95.8426 18.4576 95.8391 19.3739 95.8365 19.3704C95.8338 19.3669 93.2749 15.1068 90.1507 9.90245C87.0274 4.69894 84.465 0.433646 84.4589 0.42401C84.4466 0.407366 84.3975 0.407366 82.0156 0.39335C80.6792 0.385465 79.2472 0.376705 78.8345 0.373201L78.0826 0.367945V0.679805Z" fill="black"/>
<path d="M100.517 0.483748C100.517 0.547697 100.509 2.20599 100.498 4.16825C100.488 6.13051 100.482 7.73887 100.485 7.7415C100.488 7.74413 100.581 7.73449 100.694 7.71872C100.806 7.70383 100.9 7.69157 100.903 7.69157C100.906 7.69157 100.911 7.6609 100.914 7.62324C100.916 7.58644 100.929 7.43314 100.942 7.28422C100.953 7.13442 100.985 6.70693 101.012 6.33375C101.084 5.32196 101.119 4.93826 101.169 4.55807C101.299 3.60235 101.516 2.98476 101.903 2.46616C102.196 2.07546 102.56 1.8109 103.115 1.58752C103.86 1.2888 104.833 1.12411 106.252 1.05841C106.522 1.04615 108.029 1.04177 108.041 1.05403C108.047 1.05929 108.012 17.6833 107.994 23.2951L107.989 25.0716H106.465H104.942V25.3432V25.6147H109.521H114.1V25.3432V25.0716H114.067C113.892 25.0699 111.119 25.0112 111.117 25.0094C111.114 25.0068 111.169 2.11838 111.173 1.0663V0.990082H111.32C111.601 0.990958 112.147 1.01111 112.505 1.03388C114.278 1.15039 115.775 1.47101 116.615 1.91603C117.026 2.13328 117.282 2.35841 117.511 2.70268C117.691 2.97425 117.832 3.31064 117.933 3.71185C118.08 4.2979 118.143 4.82613 118.271 6.52647C118.299 6.90929 118.334 7.3543 118.347 7.51373L118.371 7.80545H118.616H118.86L118.854 7.50497C118.849 7.22202 118.762 0.553829 118.762 0.427683V0.368115H109.639H100.517V0.483748Z" fill="black"/>
<path d="M120.55 0.736039V1.10396H121.856H123.162V13.0571V25.0103L121.767 25.0121L120.371 25.0147L120.368 25.3143L120.366 25.6147H124.568H128.77V25.3125V25.0103H127.491H126.211V13.0571V1.10396H127.552H128.893V0.736039V0.368115H124.722H120.55V0.736039Z" fill="black"/>
<path d="M130.133 0.392474C130.13 0.395102 130.128 0.530883 130.128 0.694697V0.992541L131.283 0.987285C131.918 0.983781 132.587 0.978525 132.769 0.975021L133.099 0.969765V1.61276C133.099 4.28985 133.044 14.3026 133.003 19.3292C132.998 19.9117 132.99 20.8859 132.985 21.4929C132.975 22.828 132.964 23.1898 132.928 23.5735C132.848 24.4057 132.644 24.7491 132.135 24.9094C131.856 24.997 131.498 25.0329 130.685 25.0539C130.492 25.0583 130.255 25.0653 130.157 25.0679L129.979 25.0732V25.3351V25.5971H133.266H136.552V25.2773V24.9576H136.478C136.376 24.9576 136.15 24.9716 135.755 25.0014C135.094 25.0513 134.926 25.0583 134.716 25.0452C134.371 25.0241 134.128 24.9523 133.948 24.8165C133.633 24.5809 133.47 24.163 133.423 23.4683C133.411 23.2975 133.417 19.945 133.432 17.2618C133.466 11.6527 133.507 6.03836 133.538 2.96094C133.544 2.44759 133.548 2.02799 133.549 2.02711C133.55 2.02623 136.767 7.41808 140.697 14.0092C144.628 20.6003 147.848 25.9956 147.854 25.9974C147.865 26.0018 148.159 25.9834 148.333 25.9676L148.392 25.9624V24.354C148.391 23.4692 148.385 21.634 148.377 20.2753C148.359 16.8413 148.351 9.69658 148.364 8.00238C148.383 5.60036 148.415 3.6416 148.453 2.75945C148.499 1.68371 148.705 1.2387 149.238 1.06437C149.497 0.979401 149.845 0.954872 150.787 0.954872H151.283V0.692945V0.431018L150.887 0.425762C150.669 0.423134 149.441 0.414374 148.159 0.407366C146.877 0.400358 145.659 0.39335 145.451 0.392474L145.075 0.389845L145.046 0.708713C145.03 0.883916 145.018 1.02933 145.021 1.03196C145.024 1.03371 145.303 1.03109 145.642 1.02583C146.467 1.01181 146.848 1.02583 147.151 1.08189C147.471 1.14146 147.63 1.22819 147.707 1.38675C147.808 1.59524 147.872 1.91323 147.903 2.35649C147.917 2.57987 147.917 8.89941 147.902 12.9781C147.895 14.6592 147.889 16.787 147.888 17.7059C147.888 18.6249 147.885 19.3739 147.882 19.3704C147.88 19.3669 145.321 15.1103 142.197 9.91121C139.073 4.71296 136.512 0.452042 136.506 0.443282C136.495 0.42839 136.364 0.426638 133.818 0.411746C132.346 0.402986 130.915 0.39335 130.639 0.391597C130.363 0.389845 130.135 0.389845 130.133 0.392474Z" fill="black"/>
<path d="M58.4697 0.814822V1.18275H59.7667H61.0637V13.1359V25.0891H59.7667H58.4697V25.1066C58.4697 25.1171 58.482 25.2257 58.496 25.3493C58.5109 25.4719 58.5223 25.5788 58.5223 25.5849C58.5223 25.5954 59.8158 25.5972 67.1894 25.5972H75.8564V25.3755C75.8564 25.2546 75.8643 23.6734 75.8748 21.8627C75.8845 20.052 75.8915 18.5689 75.8897 18.5672C75.8862 18.5637 75.3201 18.5269 75.3175 18.5295C75.3157 18.5313 75.3105 18.7327 75.3052 18.9789C75.2929 19.5466 75.2789 19.8286 75.2421 20.2447C75.1229 21.6096 74.839 22.5854 74.3798 23.2074C74.2904 23.3283 74.0941 23.535 73.9504 23.6594C73.0477 24.4373 71.6578 24.906 69.7089 25.0891C69.3399 25.1232 68.9412 25.1487 68.4294 25.1697C68.0815 25.1846 66.3735 25.1837 65.8004 25.1697C65.5743 25.1635 65.1194 25.1565 64.7908 25.153C64.4613 25.1504 64.1923 25.1469 64.1923 25.1469C64.1905 25.1416 64.1335 13.2489 64.1353 13.2472C64.1362 13.2454 64.6217 13.2305 65.2141 13.2139C65.9353 13.1929 66.3551 13.1841 66.4839 13.1876C67.4374 13.213 68.425 13.5494 68.921 14.0181C69.0569 14.1468 69.1708 14.3098 69.3022 14.5629C69.474 14.8949 69.5765 15.2348 69.6256 15.6396C69.6598 15.9216 69.6642 16.0469 69.6624 16.7144C69.6615 17.1813 69.6642 17.3802 69.672 17.4371L69.6826 17.516L69.9919 17.5186L70.3004 17.5203V17.1989C70.3004 17.021 70.2881 15.022 70.2741 12.7548C70.2601 10.4877 70.2478 8.52197 70.2478 8.38531V8.13827H70.0252H69.8026L69.7974 8.19259C69.7947 8.22325 69.7886 8.338 69.7833 8.44926C69.7132 9.94285 69.5958 10.7164 69.3601 11.2437C69.2383 11.5179 69.0814 11.7124 68.8316 11.9025C68.3733 12.2511 67.617 12.5429 66.9308 12.6357C66.7705 12.6576 66.3393 12.6848 65.8617 12.7023C65.59 12.7119 64.1406 12.7408 64.1353 12.7365C64.1309 12.7312 64.1905 1.25195 64.1949 1.2467C64.1993 1.24232 69.2575 1.30539 69.332 1.31064C69.3566 1.3124 69.4486 1.31765 69.538 1.32291C70.7298 1.39299 71.7341 1.68908 72.4308 2.1779C72.7279 2.38639 72.9566 2.60977 73.1836 2.91287C73.4132 3.2186 73.5928 3.50155 73.726 3.7661C74.0284 4.36529 74.1581 4.91806 74.3368 6.36435C74.3596 6.54744 74.378 6.69811 74.3789 6.69899C74.3815 6.70249 74.7785 6.7568 74.782 6.7533C74.7846 6.75067 74.3622 0.464418 74.3587 0.44865C74.3579 0.447774 70.7833 0.446898 66.4138 0.446898H58.4697V0.814822Z" fill="black"/>
</svg>
