<svg xmlns="http://www.w3.org/2000/svg" xmlns:xlink="http://www.w3.org/1999/xlink" width="90" zoomAndPan="magnify" viewBox="0 0 67.5 67.499996" height="90" preserveAspectRatio="xMidYMid meet" version="1.0"><defs><clipPath id="id1"><path d="M 11 6.75 L 58 6.75 L 58 34 L 11 34 Z M 11 6.75 " clip-rule="nonzero"/></clipPath><clipPath id="id2"><path d="M 43 50 L 58 50 L 58 61.441406 L 43 61.441406 Z M 43 50 " clip-rule="nonzero"/></clipPath></defs><g clip-path="url(#id1)"><path fill="#000000" d="M 13.710938 15.929688 C 13.710938 11.96875 16.960938 8.742188 20.945312 8.742188 L 50 8.742188 C 50.828125 8.742188 51.492188 9.410156 51.492188 10.226562 C 51.492188 11.042969 50.828125 11.714844 50 11.714844 L 23.648438 11.714844 C 21.367188 11.714844 19.511719 13.558594 19.511719 15.824219 C 19.511719 18.097656 21.367188 19.941406 23.648438 19.941406 L 52.3125 19.941406 C 53.835938 19.941406 55.070312 21.171875 55.070312 22.683594 L 55.070312 31.480469 L 13.710938 31.480469 Z M 13.46875 33.53125 L 55.320312 33.53125 C 56.324219 33.53125 57.136719 32.726562 57.136719 31.726562 L 57.136719 22.683594 C 57.136719 20.039062 54.976562 17.886719 52.3125 17.886719 L 23.648438 17.886719 C 22.507812 17.886719 21.578125 16.964844 21.578125 15.824219 C 21.578125 14.691406 22.507812 13.765625 23.648438 13.765625 L 50 13.765625 C 51.96875 13.765625 53.558594 12.179688 53.558594 10.226562 C 53.558594 8.273438 51.96875 6.6875 50 6.6875 L 20.945312 6.6875 C 15.820312 6.6875 11.644531 10.835938 11.644531 15.929688 L 11.644531 31.726562 C 11.644531 32.726562 12.464844 33.53125 13.46875 33.53125 " fill-opacity="1" fill-rule="nonzero"/></g><path fill="#000000" d="M 13.625 35.746094 L 13.625 39.640625 C 13.625 40.207031 14.082031 40.664062 14.652344 40.664062 C 15.222656 40.664062 15.683594 40.207031 15.683594 39.640625 L 15.683594 35.746094 C 15.683594 35.179688 15.222656 34.71875 14.652344 34.71875 C 14.082031 34.71875 13.625 35.179688 13.625 35.746094 " fill-opacity="1" fill-rule="nonzero"/><path fill="#000000" d="M 17.570312 35.746094 L 17.570312 39.640625 C 17.570312 40.207031 18.03125 40.664062 18.601562 40.664062 C 19.171875 40.664062 19.632812 40.207031 19.632812 39.640625 L 19.632812 35.746094 C 19.632812 35.179688 19.171875 34.71875 18.601562 34.71875 C 18.03125 34.71875 17.570312 35.179688 17.570312 35.746094 " fill-opacity="1" fill-rule="nonzero"/><path fill="#000000" d="M 21.515625 35.746094 L 21.515625 39.640625 C 21.515625 40.207031 21.980469 40.664062 22.550781 40.664062 C 23.121094 40.664062 23.582031 40.207031 23.582031 39.640625 L 23.582031 35.746094 C 23.582031 35.179688 23.121094 34.71875 22.550781 34.71875 C 21.980469 34.71875 21.515625 35.179688 21.515625 35.746094 " fill-opacity="1" fill-rule="nonzero"/><path fill="#000000" d="M 25.464844 35.746094 L 25.464844 39.640625 C 25.464844 40.207031 25.929688 40.664062 26.5 40.664062 C 27.070312 40.664062 27.53125 40.207031 27.53125 39.640625 L 27.53125 35.746094 C 27.53125 35.179688 27.070312 34.71875 26.5 34.71875 C 25.929688 34.71875 25.464844 35.179688 25.464844 35.746094 " fill-opacity="1" fill-rule="nonzero"/><path fill="#000000" d="M 29.414062 35.746094 L 29.414062 39.640625 C 29.414062 40.207031 29.871094 40.664062 30.449219 40.664062 C 31.019531 40.664062 31.480469 40.207031 31.480469 39.640625 L 31.480469 35.746094 C 31.480469 35.179688 31.019531 34.71875 30.449219 34.71875 C 29.871094 34.71875 29.414062 35.179688 29.414062 35.746094 " fill-opacity="1" fill-rule="nonzero"/><path fill="#000000" d="M 33.363281 35.746094 L 33.363281 39.640625 C 33.363281 40.207031 33.820312 40.664062 34.398438 40.664062 C 34.960938 40.664062 35.429688 40.207031 35.429688 39.640625 L 35.429688 35.746094 C 35.429688 35.179688 34.960938 34.71875 34.398438 34.71875 C 33.820312 34.71875 33.363281 35.179688 33.363281 35.746094 " fill-opacity="1" fill-rule="nonzero"/><path fill="#000000" d="M 37.308594 35.746094 L 37.308594 39.640625 C 37.308594 40.207031 37.769531 40.664062 38.339844 40.664062 C 38.910156 40.664062 39.371094 40.207031 39.371094 39.640625 L 39.371094 35.746094 C 39.371094 35.179688 38.910156 34.71875 38.339844 34.71875 C 37.769531 34.71875 37.308594 35.179688 37.308594 35.746094 " fill-opacity="1" fill-rule="nonzero"/><path fill="#000000" d="M 41.257812 35.746094 L 41.257812 39.640625 C 41.257812 40.207031 41.71875 40.664062 42.289062 40.664062 C 42.859375 40.664062 43.320312 40.207031 43.320312 39.640625 L 43.320312 35.746094 C 43.320312 35.179688 42.859375 34.71875 42.289062 34.71875 C 41.71875 34.71875 41.257812 35.179688 41.257812 35.746094 " fill-opacity="1" fill-rule="nonzero"/><path fill="#000000" d="M 45.203125 35.746094 L 45.203125 39.640625 C 45.203125 40.207031 45.667969 40.664062 46.238281 40.664062 C 46.808594 40.664062 47.269531 40.207031 47.269531 39.640625 L 47.269531 35.746094 C 47.269531 35.179688 46.808594 34.71875 46.238281 34.71875 C 45.667969 34.71875 45.203125 35.179688 45.203125 35.746094 " fill-opacity="1" fill-rule="nonzero"/><path fill="#000000" d="M 49.148438 35.746094 L 49.148438 39.640625 C 49.148438 40.207031 49.617188 40.664062 50.179688 40.664062 C 50.757812 40.664062 51.214844 40.207031 51.214844 39.640625 L 51.214844 35.746094 C 51.214844 35.179688 50.757812 34.71875 50.179688 34.71875 C 49.617188 34.71875 49.148438 35.179688 49.148438 35.746094 " fill-opacity="1" fill-rule="nonzero"/><path fill="#000000" d="M 53.097656 35.746094 L 53.097656 39.640625 C 53.097656 40.207031 53.558594 40.664062 54.128906 40.664062 C 54.707031 40.664062 55.164062 40.207031 55.164062 39.640625 L 55.164062 35.746094 C 55.164062 35.179688 54.707031 34.71875 54.128906 34.71875 C 53.558594 34.71875 53.097656 35.179688 53.097656 35.746094 " fill-opacity="1" fill-rule="nonzero"/><path fill="#000000" d="M 65.792969 37.019531 C 64.90625 35.597656 63.152344 34.21875 61.242188 34.34375 L 58.613281 34.34375 C 58.042969 34.34375 57.578125 34.804688 57.578125 35.371094 C 57.578125 35.9375 58.042969 36.398438 58.613281 36.398438 L 61.308594 36.398438 C 62.359375 36.324219 63.476562 37.199219 64.035156 38.097656 C 64.949219 39.570312 64.949219 42.585938 63.570312 44.125 C 62.238281 45.628906 60.78125 46.015625 58.03125 46.328125 C 55.148438 46.648438 50.117188 46.039062 45.683594 45.503906 C 42.859375 45.160156 40.195312 44.835938 38.378906 44.792969 C 35.34375 44.730469 31.4375 44.878906 28.074219 46.777344 C 27.199219 47.269531 26.390625 47.855469 25.617188 48.421875 C 24.660156 49.117188 23.753906 49.769531 22.765625 50.246094 C 21.253906 50.964844 19.105469 51.183594 17.972656 49.96875 C 17.574219 49.546875 17.320312 48.921875 17.046875 48.253906 C 16.652344 47.277344 16.207031 46.171875 15.175781 45.449219 C 13.125 44.023438 10.441406 44.230469 8.476562 44.375 C 7.976562 44.414062 7.476562 44.449219 7.148438 44.449219 C 6.066406 44.445312 4.125 44.242188 3.195312 42.976562 C 2.398438 41.898438 2.5625 40.167969 3.570312 38.945312 C 4.46875 37.851562 5.992188 37.082031 7.875 36.773438 L 9.621094 36.773438 C 10.191406 36.773438 10.65625 36.3125 10.65625 35.746094 C 10.65625 35.179688 10.191406 34.71875 9.621094 34.71875 L 7.792969 34.71875 C 7.738281 34.71875 7.6875 34.726562 7.632812 34.730469 C 5.921875 34.996094 3.546875 35.726562 1.96875 37.644531 C 0.359375 39.601562 0.171875 42.355469 1.527344 44.1875 C 2.613281 45.664062 4.601562 46.488281 7.132812 46.503906 C 7.597656 46.492188 8.074219 46.464844 8.636719 46.421875 C 10.375 46.289062 12.542969 46.128906 13.992188 47.132812 C 14.519531 47.503906 14.804688 48.203125 15.132812 49.015625 C 15.449219 49.792969 15.804688 50.667969 16.460938 51.371094 C 17.472656 52.449219 18.855469 52.882812 20.265625 52.882812 C 21.4375 52.882812 22.636719 52.582031 23.652344 52.097656 C 24.824219 51.546875 25.847656 50.796875 26.839844 50.074219 C 27.601562 49.519531 28.324219 48.996094 29.09375 48.5625 C 32.011719 46.914062 35.5625 46.78125 38.328125 46.847656 C 40.046875 46.890625 42.664062 47.203125 45.4375 47.542969 C 49.980469 48.09375 55.140625 48.71875 58.261719 48.363281 C 60.960938 48.066406 63.183594 47.660156 65.121094 45.488281 C 67.179688 43.179688 67.128906 39.171875 65.792969 37.019531 " fill-opacity="1" fill-rule="nonzero"/><g clip-path="url(#id2)"><path fill="#000000" d="M 55.285156 58.726562 C 54.613281 59.355469 53.394531 59.578125 52.441406 59.234375 C 51.542969 58.914062 51.226562 58.433594 50.820312 57.824219 C 50.5 57.347656 50.136719 56.800781 49.492188 56.367188 C 49.09375 56.105469 48.53125 55.953125 47.8125 55.753906 C 47.152344 55.578125 46.398438 55.375 45.957031 55.105469 C 45.441406 54.796875 44.984375 54.140625 45.15625 53.53125 C 45.371094 52.734375 46.292969 52.332031 47.863281 52.332031 C 48.703125 52.332031 49.730469 52.449219 50.929688 52.679688 C 52.902344 53.058594 54.324219 53.792969 55.15625 54.855469 C 55.992188 55.925781 56.226562 57.847656 55.285156 58.726562 Z M 51.320312 50.664062 C 46.578125 49.75 43.839844 50.53125 43.160156 52.984375 C 42.761719 54.417969 43.472656 56.011719 44.886719 56.859375 C 45.574219 57.277344 46.472656 57.523438 47.265625 57.738281 C 47.664062 57.84375 48.195312 57.988281 48.339844 58.074219 C 48.636719 58.277344 48.839844 58.578125 49.101562 58.960938 C 49.5625 59.65625 50.203125 60.613281 51.742188 61.164062 C 52.273438 61.355469 52.839844 61.449219 53.402344 61.449219 C 54.628906 61.449219 55.855469 61.015625 56.703125 60.222656 C 58.519531 58.523438 58.214844 55.421875 56.789062 53.597656 C 55.640625 52.128906 53.800781 51.140625 51.320312 50.664062 " fill-opacity="1" fill-rule="nonzero"/></g><path fill="#000000" d="M 36.566406 52.816406 C 35.941406 52.816406 35.429688 52.308594 35.429688 51.683594 C 35.429688 51.058594 35.941406 50.550781 36.566406 50.550781 C 37.195312 50.550781 37.707031 51.058594 37.707031 51.683594 C 37.707031 52.308594 37.195312 52.816406 36.566406 52.816406 Z M 36.566406 48.5 C 34.800781 48.5 33.363281 49.925781 33.363281 51.683594 C 33.363281 53.4375 34.800781 54.871094 36.566406 54.871094 C 38.335938 54.871094 39.769531 53.4375 39.769531 51.683594 C 39.769531 49.925781 38.335938 48.5 36.566406 48.5 " fill-opacity="1" fill-rule="nonzero"/></svg>