<svg xmlns="http://www.w3.org/2000/svg" xmlns:xlink="http://www.w3.org/1999/xlink" width="90" zoomAndPan="magnify" viewBox="0 0 67.5 67.499996" height="90" preserveAspectRatio="xMidYMid meet" version="1.0"><defs><clipPath id="id1"><path d="M 0 1 L 67 1 L 67 67.003906 L 0 67.003906 Z M 0 1 " clip-rule="nonzero"/></clipPath></defs><path fill="#5c5c5c" d="M 36.761719 39.253906 C 36.40625 39.253906 36.058594 39.121094 35.789062 38.851562 L 28.648438 31.710938 C 28.105469 31.167969 28.105469 30.292969 28.648438 29.753906 C 29.1875 29.214844 30.0625 29.214844 30.601562 29.753906 L 37.746094 36.898438 C 38.285156 37.4375 38.285156 38.3125 37.746094 38.851562 C 37.476562 39.121094 37.121094 39.253906 36.761719 39.253906 " fill-opacity="1" fill-rule="nonzero"/><g clip-path="url(#id1)"><path fill="#5c5c5c" d="M 24.378906 41.101562 L 26.398438 43.121094 C 29.175781 41.445312 37.679688 36.128906 42.910156 30.898438 C 57.617188 16.191406 64.46875 5.582031 63.59375 3.871094 C 61.929688 3.007812 51.296875 9.890625 36.601562 24.589844 C 31.371094 29.820312 26.054688 38.324219 24.378906 41.101562 Z M 22.078125 42.722656 C 15.746094 42.925781 6.3125 46.796875 6.3125 56.671875 C 6.3125 59.730469 5.003906 62.722656 3.910156 64.691406 C 18.683594 64.140625 24.628906 58.585938 24.789062 45.433594 Z M 1.382812 67.5 C 0.863281 67.5 0.378906 67.207031 0.152344 66.734375 C -0.0859375 66.269531 -0.0429688 65.707031 0.28125 65.296875 C 0.300781 65.242188 3.542969 60.863281 3.542969 56.671875 C 3.542969 46.113281 12.828125 40.277344 21.839844 39.953125 C 23.363281 37.394531 28.949219 28.339844 34.644531 22.632812 C 40.675781 16.601562 47.09375 10.90625 52.25 6.996094 C 59.488281 1.515625 63.59375 -0.0390625 65.570312 1.9375 C 67.539062 3.917969 65.984375 8.023438 60.503906 15.25 C 56.601562 20.40625 50.898438 26.824219 44.867188 32.855469 C 39.171875 38.550781 30.117188 44.125 27.554688 45.660156 C 27.296875 60.960938 19.417969 67.5 1.382812 67.5 " fill-opacity="1" fill-rule="nonzero"/></g></svg>