<svg xmlns="http://www.w3.org/2000/svg" xmlns:xlink="http://www.w3.org/1999/xlink" width="90" zoomAndPan="magnify" viewBox="0 0 67.5 67.499996" height="90" preserveAspectRatio="xMidYMid meet" version="1.0"><defs><clipPath id="id1"><path d="M 7.671875 0 L 46 0 L 46 52 L 7.671875 52 Z M 7.671875 0 " clip-rule="nonzero"/></clipPath><clipPath id="id2"><path d="M 29 64 L 54 64 L 54 67.003906 L 29 67.003906 Z M 29 64 " clip-rule="nonzero"/></clipPath><clipPath id="id3"><path d="M 56 4.601562 L 59.972656 4.601562 L 59.972656 7 L 56 7 Z M 56 4.601562 " clip-rule="nonzero"/></clipPath><clipPath id="id4"><path d="M 58 0 L 59.972656 0 L 59.972656 2 L 58 2 Z M 58 0 " clip-rule="nonzero"/></clipPath><clipPath id="id5"><path d="M 58 9 L 59.972656 9 L 59.972656 10.738281 L 58 10.738281 Z M 58 9 " clip-rule="nonzero"/></clipPath></defs><path fill="#000000" d="M 36.84375 18.152344 C 37.222656 18.054688 37.609375 17.972656 37.976562 17.898438 L 31.292969 17.898438 L 31.292969 19.914062 C 34.125 18.660156 36.65625 18.179688 36.84375 18.152344 " fill-opacity="1" fill-rule="nonzero"/><path fill="#000000" d="M 35.792969 30.683594 C 33.730469 31.390625 32.691406 33.59375 32.480469 34.097656 C 32.1875 35.609375 31.777344 36.996094 31.292969 38.292969 L 31.292969 62.730469 L 52.335938 62.730469 L 52.335938 17.898438 L 43.613281 17.898438 C 45.621094 18.492188 46.414062 19.714844 46.683594 20.320312 C 47.335938 21.640625 47.347656 23.035156 46.742188 24.355469 C 44.898438 28.25 37.496094 30.273438 35.792969 30.683594 " fill-opacity="1" fill-rule="nonzero"/><g clip-path="url(#id1)"><path fill="#000000" d="M 41.074219 21.023438 C 42.1875 20.769531 43.292969 21.464844 43.546875 22.566406 L 43.566406 22.640625 C 44.179688 25.34375 40.542969 25.289062 39.976562 25.550781 C 38.703125 25.839844 38.890625 23.820312 38.414062 22.464844 C 38.128906 21.21875 40.101562 21.375 41.074219 21.023438 Z M 35.210938 28.65625 C 35.210938 28.65625 47.058594 25.808594 44.765625 21.226562 C 44.765625 21.226562 44.023438 18.59375 37.230469 20.21875 C 37.230469 20.21875 31.023438 21.382812 27.625 24.761719 C 27.625 24.761719 26.085938 22.460938 27.25 19.746094 C 27.25 19.746094 29.628906 13.273438 29.71875 9.929688 C 29.742188 8.648438 30.695312 8.648438 34.894531 5.148438 C 34.894531 5.148438 40.246094 3.769531 40.191406 1.3125 C 40.175781 0.527344 39.457031 -0.0585938 38.671875 0.0078125 C 35.582031 0.339844 35.035156 0.136719 33.996094 0.6875 L 26.847656 4.558594 C 25.773438 5.140625 24.933594 6.078125 24.476562 7.191406 C 17.453125 24.371094 22.695312 9.871094 18.238281 24.121094 C 13.386719 39.402344 9.484375 38.429688 7.820312 40.863281 L 17.792969 51.164062 C 19.34375 49.695312 28.136719 45.21875 30.4375 33.511719 C 30.4375 33.511719 31.765625 29.757812 35.210938 28.65625 " fill-opacity="1" fill-rule="nonzero"/></g><path fill="#000000" d="M 39.160156 3.980469 L 39.160156 7.5625 L 37.273438 7.5625 C 36.777344 7.5625 36.375 7.964844 36.375 8.457031 L 36.375 9.539062 L 31.292969 13.574219 L 31.304688 13.574219 C 31.148438 14.273438 30.96875 15.003906 30.769531 15.695312 C 30.914062 15.75 31.066406 15.789062 31.238281 15.789062 L 52.386719 15.789062 C 53.011719 15.789062 53.507812 15.300781 53.507812 14.683594 C 53.507812 14.078125 53.011719 13.566406 52.386719 13.566406 L 52.335938 13.566406 L 47.257812 9.539062 L 47.257812 8.449219 C 47.257812 7.964844 46.859375 7.5625 46.363281 7.5625 L 44.476562 7.5625 C 44.332031 4.65625 44.824219 3.53125 44.027344 3.53125 L 39.605469 3.53125 C 39.355469 3.53125 39.160156 3.726562 39.160156 3.980469 " fill-opacity="1" fill-rule="nonzero"/><g clip-path="url(#id2)"><path fill="#000000" d="M 52.359375 64.832031 L 31.269531 64.832031 C 30.535156 64.832031 29.929688 65.433594 29.929688 66.164062 C 29.929688 66.902344 30.535156 67.5 31.269531 67.5 L 52.359375 67.5 C 53.109375 67.5 53.707031 66.902344 53.707031 66.164062 C 53.707031 65.433594 53.109375 64.832031 52.359375 64.832031 " fill-opacity="1" fill-rule="nonzero"/></g><path fill="#000000" d="M 55.558594 5.566406 C 55.5625 5.175781 55.25 4.859375 54.863281 4.855469 L 54.015625 4.84375 C 53.621094 4.835938 53.300781 5.148438 53.296875 5.53125 C 53.289062 5.933594 53.617188 6.246094 53.996094 6.25 L 54.839844 6.261719 C 55.230469 6.261719 55.550781 5.957031 55.558594 5.566406 " fill-opacity="1" fill-rule="nonzero"/><g clip-path="url(#id3)"><path fill="#000000" d="M 59.097656 5.566406 C 59.105469 5.175781 58.792969 4.859375 58.398438 4.855469 L 57.554688 4.84375 C 57.164062 4.835938 56.835938 5.148438 56.832031 5.53125 C 56.824219 5.847656 57.035156 6.117188 57.324219 6.214844 C 57.386719 6.230469 57.457031 6.25 57.53125 6.25 L 58.382812 6.261719 C 58.769531 6.261719 59.09375 5.957031 59.097656 5.566406 " fill-opacity="1" fill-rule="nonzero"/></g><path fill="#000000" d="M 51.503906 4.253906 L 51.847656 4.152344 C 52.214844 4.039062 52.425781 3.644531 52.3125 3.273438 C 52.199219 2.898438 51.800781 2.691406 51.425781 2.804688 L 51.085938 2.914062 C 50.714844 3.027344 50.503906 3.414062 50.625 3.789062 C 50.738281 4.164062 51.136719 4.367188 51.503906 4.253906 " fill-opacity="1" fill-rule="nonzero"/><path fill="#000000" d="M 55.480469 1.570312 L 54.671875 1.816406 C 54.296875 1.929688 54.085938 2.324219 54.199219 2.695312 C 54.316406 3.066406 54.714844 3.273438 55.082031 3.15625 L 55.894531 2.914062 C 56.269531 2.796875 56.480469 2.402344 56.359375 2.03125 C 56.246094 1.660156 55.855469 1.457031 55.480469 1.570312 " fill-opacity="1" fill-rule="nonzero"/><g clip-path="url(#id4)"><path fill="#000000" d="M 59.136719 1.921875 L 59.472656 1.816406 C 59.847656 1.703125 60.058594 1.304688 59.9375 0.941406 C 59.824219 0.570312 59.429688 0.359375 59.058594 0.472656 L 58.71875 0.574219 C 58.34375 0.6875 58.132812 1.085938 58.253906 1.457031 C 58.371094 1.832031 58.769531 2.039062 59.136719 1.921875 " fill-opacity="1" fill-rule="nonzero"/></g><g clip-path="url(#id5)"><path fill="#000000" d="M 59.472656 9.28125 L 59.136719 9.179688 C 58.761719 9.0625 58.363281 9.269531 58.253906 9.640625 C 58.132812 10.011719 58.34375 10.410156 58.71875 10.523438 L 59.058594 10.625 C 59.425781 10.738281 59.824219 10.535156 59.9375 10.164062 C 60.058594 9.792969 59.847656 9.394531 59.472656 9.28125 " fill-opacity="1" fill-rule="nonzero"/></g><path fill="#000000" d="M 55.894531 8.1875 L 55.082031 7.941406 C 54.707031 7.828125 54.316406 8.03125 54.199219 8.402344 C 54.085938 8.773438 54.296875 9.167969 54.671875 9.28125 L 55.472656 9.535156 C 55.847656 9.640625 56.246094 9.445312 56.359375 9.066406 C 56.480469 8.695312 56.269531 8.300781 55.894531 8.1875 " fill-opacity="1" fill-rule="nonzero"/><path fill="#000000" d="M 51.085938 8.191406 L 51.425781 8.292969 C 51.792969 8.40625 52.191406 8.203125 52.3125 7.828125 C 52.425781 7.453125 52.214844 7.066406 51.847656 6.945312 L 51.503906 6.84375 C 51.128906 6.730469 50.738281 6.9375 50.625 7.3125 C 50.507812 7.683594 50.714844 8.070312 51.085938 8.191406 " fill-opacity="1" fill-rule="nonzero"/></svg>