<svg xmlns="http://www.w3.org/2000/svg" xmlns:xlink="http://www.w3.org/1999/xlink" width="90" zoomAndPan="magnify" viewBox="0 0 67.5 67.499996" height="90" preserveAspectRatio="xMidYMid meet" version="1.0"><defs><clipPath id="id1"><path d="M 22 36 L 46 36 L 46 67.003906 L 22 67.003906 Z M 22 36 " clip-rule="nonzero"/></clipPath><clipPath id="id2"><path d="M 41 3 L 47.355469 3 L 47.355469 10 L 41 10 Z M 41 3 " clip-rule="nonzero"/></clipPath><clipPath id="id3"><path d="M 20.371094 0 L 27 0 L 27 7 L 20.371094 7 Z M 20.371094 0 " clip-rule="nonzero"/></clipPath></defs><path fill="#000000" d="M 37.46875 45.363281 C 37.46875 45.929688 37.007812 46.386719 36.4375 46.386719 L 31.277344 46.386719 C 30.707031 46.386719 30.246094 45.929688 30.246094 45.363281 L 30.453125 25.925781 C 30.453125 25.359375 30.914062 24.898438 31.484375 24.898438 L 36.230469 24.898438 C 36.800781 24.898438 37.261719 25.359375 37.261719 25.925781 L 37.46875 45.363281 " fill-opacity="1" fill-rule="nonzero"/><path fill="#000000" d="M 29.800781 25.925781 L 29.703125 35.273438 L 27.277344 35.273438 C 25.058594 35.273438 23.261719 33.488281 23.261719 31.285156 C 23.261719 28.324219 25.679688 25.925781 28.664062 25.925781 L 29.800781 25.925781 " fill-opacity="1" fill-rule="nonzero"/><path fill="#000000" d="M 44.457031 31.285156 C 44.457031 33.488281 42.65625 35.273438 40.4375 35.273438 L 38.015625 35.273438 L 38.015625 35.265625 L 37.914062 25.925781 L 39.054688 25.925781 C 42.039062 25.925781 44.457031 28.324219 44.457031 31.285156 " fill-opacity="1" fill-rule="nonzero"/><g clip-path="url(#id1)"><path fill="#000000" d="M 33.859375 65.070312 C 28.894531 65.070312 24.871094 63.089844 24.871094 60.640625 C 24.871094 58.195312 28.894531 56.210938 33.859375 56.210938 C 38.820312 56.210938 42.84375 58.195312 42.84375 60.640625 C 42.84375 63.089844 38.820312 65.070312 33.859375 65.070312 Z M 44.40625 57.910156 C 42.863281 55.613281 42.070312 52.898438 42.070312 50.136719 L 42.070312 36.046875 L 37.648438 36.046875 L 37.65625 36.714844 L 38.027344 36.714844 L 38.121094 45.355469 C 38.121094 46.285156 37.367188 47.035156 36.4375 47.035156 L 31.277344 47.035156 C 30.351562 47.035156 29.59375 46.285156 29.59375 45.363281 L 29.6875 36.714844 L 30.058594 36.714844 L 30.066406 36.046875 L 25.675781 36.046875 L 25.675781 50.09375 C 25.675781 52.867188 24.878906 55.589844 23.320312 57.894531 C 22.609375 58.949219 22.453125 59.960938 22.453125 60.640625 C 22.453125 61.882812 22.96875 64.21875 26.429688 65.921875 C 28.453125 66.921875 31.09375 67.46875 33.859375 67.46875 C 36.625 67.46875 39.261719 66.921875 41.289062 65.921875 C 44.746094 64.21875 45.261719 61.882812 45.261719 60.640625 C 45.261719 59.964844 45.109375 58.960938 44.40625 57.910156 " fill-opacity="1" fill-rule="nonzero"/></g><path fill="#000000" d="M 34.25 24.253906 L 33.230469 24.253906 C 33.355469 23.992188 33.539062 23.832031 33.738281 23.832031 C 33.941406 23.832031 34.125 23.992188 34.25 24.253906 " fill-opacity="1" fill-rule="nonzero"/><path fill="#000000" d="M 38.929688 23.183594 L 38.929688 25.277344 L 37.785156 25.277344 C 37.527344 24.675781 36.929688 24.253906 36.230469 24.253906 L 34.96875 24.253906 C 34.96875 24.238281 34.972656 24.222656 34.972656 24.210938 L 34.972656 23.183594 L 38.929688 23.183594 " fill-opacity="1" fill-rule="nonzero"/><path fill="#000000" d="M 35.476562 18.917969 C 35.335938 18.890625 35.222656 18.78125 35.195312 18.640625 C 35.121094 18.3125 34.960938 18.082031 34.742188 18.046875 C 34.363281 17.980469 33.957031 18.503906 33.828125 19.222656 C 33.699219 19.9375 33.902344 20.570312 34.28125 20.636719 C 34.5 20.675781 34.734375 20.511719 34.910156 20.226562 C 34.988281 20.105469 35.132812 20.042969 35.273438 20.066406 C 35.464844 20.101562 35.59375 20.28125 35.5625 20.472656 L 35.382812 21.484375 L 39.277344 22.167969 L 39.964844 18.300781 L 36.066406 17.621094 L 35.886719 18.632812 C 35.855469 18.820312 35.671875 18.949219 35.476562 18.917969 " fill-opacity="1" fill-rule="nonzero"/><path fill="#000000" d="M 37.230469 13.648438 C 37.09375 13.597656 37.003906 13.472656 37 13.328125 C 36.988281 12.992188 36.867188 12.738281 36.660156 12.664062 C 36.296875 12.53125 35.804688 12.980469 35.550781 13.664062 C 35.300781 14.34375 35.390625 15.003906 35.75 15.132812 C 35.960938 15.210938 36.21875 15.089844 36.445312 14.839844 C 36.539062 14.734375 36.691406 14.695312 36.828125 14.746094 C 37.011719 14.8125 37.105469 15.011719 37.039062 15.195312 L 36.6875 16.160156 L 40.402344 17.503906 L 41.757812 13.8125 L 38.039062 12.472656 L 37.683594 13.4375 C 37.617188 13.617188 37.414062 13.714844 37.230469 13.648438 " fill-opacity="1" fill-rule="nonzero"/><path fill="#000000" d="M 39.609375 8.699219 C 39.484375 8.628906 39.414062 8.488281 39.433594 8.34375 C 39.480469 8.011719 39.410156 7.742188 39.214844 7.632812 C 38.882812 7.441406 38.316406 7.796875 37.953125 8.425781 C 37.585938 9.054688 37.558594 9.71875 37.890625 9.910156 C 38.082031 10.019531 38.355469 9.945312 38.621094 9.742188 C 38.738281 9.652344 38.894531 9.640625 39.019531 9.710938 C 39.1875 9.808594 39.246094 10.023438 39.148438 10.191406 L 38.628906 11.082031 L 42.058594 13.042969 L 44.035156 9.644531 L 40.609375 7.679688 L 40.089844 8.570312 C 39.992188 8.738281 39.777344 8.796875 39.609375 8.699219 " fill-opacity="1" fill-rule="nonzero"/><g clip-path="url(#id2)"><path fill="#000000" d="M 43.164062 4.324219 C 43.054688 4.234375 43.011719 4.082031 43.054688 3.949219 C 43.160156 3.628906 43.136719 3.347656 42.964844 3.207031 C 42.671875 2.960938 42.050781 3.214844 41.582031 3.769531 C 41.109375 4.328125 40.96875 4.976562 41.261719 5.222656 C 41.433594 5.363281 41.714844 5.339844 42.011719 5.179688 C 42.140625 5.113281 42.296875 5.128906 42.40625 5.222656 C 42.554688 5.347656 42.574219 5.566406 42.449219 5.714844 L 41.785156 6.503906 L 44.816406 9.027344 L 47.359375 6.019531 L 44.328125 3.496094 L 43.664062 4.28125 C 43.535156 4.429688 43.3125 4.449219 43.164062 4.324219 " fill-opacity="1" fill-rule="nonzero"/></g><path fill="#000000" d="M 33.101562 21.628906 C 33.246094 21.628906 33.375 21.539062 33.429688 21.40625 C 33.554688 21.097656 33.753906 20.898438 33.976562 20.898438 C 34.359375 20.898438 34.671875 21.484375 34.671875 22.210938 C 34.671875 22.9375 34.359375 23.527344 33.976562 23.527344 C 33.753906 23.527344 33.554688 23.328125 33.429688 23.015625 C 33.375 22.882812 33.246094 22.796875 33.101562 22.796875 C 32.902344 22.796875 32.746094 22.953125 32.746094 23.148438 L 32.746094 24.175781 L 28.789062 24.175781 L 28.789062 20.25 L 32.746094 20.25 L 32.746094 21.277344 C 32.746094 21.46875 32.902344 21.628906 33.101562 21.628906 " fill-opacity="1" fill-rule="nonzero"/><path fill="#000000" d="M 32.238281 15.980469 C 32.382812 15.957031 32.492188 15.847656 32.523438 15.707031 C 32.59375 15.382812 32.753906 15.148438 32.976562 15.113281 C 33.351562 15.046875 33.761719 15.570312 33.890625 16.289062 C 34.015625 17.003906 33.8125 17.636719 33.433594 17.703125 C 33.214844 17.742188 32.984375 17.578125 32.804688 17.292969 C 32.726562 17.171875 32.585938 17.109375 32.445312 17.132812 C 32.25 17.167969 32.121094 17.351562 32.15625 17.539062 L 32.335938 18.550781 L 28.441406 19.234375 L 27.753906 15.367188 L 31.648438 14.6875 L 31.828125 15.699219 C 31.863281 15.886719 32.046875 16.015625 32.238281 15.980469 " fill-opacity="1" fill-rule="nonzero"/><path fill="#000000" d="M 30.484375 10.714844 C 30.621094 10.664062 30.714844 10.539062 30.71875 10.394531 C 30.730469 10.058594 30.847656 9.804688 31.058594 9.726562 C 31.417969 9.597656 31.914062 10.046875 32.164062 10.730469 C 32.414062 11.410156 32.324219 12.070312 31.964844 12.199219 C 31.753906 12.277344 31.5 12.15625 31.273438 11.90625 C 31.175781 11.800781 31.023438 11.761719 30.890625 11.8125 C 30.707031 11.878906 30.609375 12.078125 30.675781 12.261719 L 31.03125 13.226562 L 27.3125 14.570312 L 25.960938 10.878906 L 29.679688 9.539062 L 30.03125 10.503906 C 30.097656 10.683594 30.300781 10.777344 30.484375 10.714844 " fill-opacity="1" fill-rule="nonzero"/><path fill="#000000" d="M 28.109375 5.765625 C 28.234375 5.695312 28.300781 5.554688 28.28125 5.410156 C 28.234375 5.078125 28.308594 4.808594 28.5 4.699219 C 28.832031 4.507812 29.398438 4.863281 29.765625 5.492188 C 30.132812 6.121094 30.160156 6.785156 29.828125 6.976562 C 29.632812 7.085938 29.359375 7.011719 29.09375 6.808594 C 28.980469 6.71875 28.824219 6.707031 28.699219 6.777344 C 28.53125 6.875 28.472656 7.089844 28.570312 7.257812 L 29.085938 8.148438 L 25.660156 10.109375 L 23.683594 6.710938 L 27.109375 4.746094 L 27.625 5.636719 C 27.722656 5.804688 27.941406 5.863281 28.109375 5.765625 " fill-opacity="1" fill-rule="nonzero"/><g clip-path="url(#id3)"><path fill="#000000" d="M 24.554688 1.390625 C 24.664062 1.300781 24.707031 1.148438 24.660156 1.015625 C 24.558594 0.695312 24.582031 0.414062 24.75 0.273438 C 25.046875 0.0273438 25.664062 0.28125 26.136719 0.835938 C 26.605469 1.394531 26.75 2.042969 26.457031 2.289062 C 26.285156 2.429688 26.003906 2.40625 25.707031 2.246094 C 25.578125 2.179688 25.421875 2.195312 25.308594 2.289062 C 25.160156 2.414062 25.140625 2.632812 25.265625 2.78125 L 25.933594 3.570312 L 22.902344 6.09375 L 20.359375 3.085938 L 23.390625 0.5625 L 24.054688 1.347656 C 24.179688 1.496094 24.402344 1.515625 24.554688 1.390625 " fill-opacity="1" fill-rule="nonzero"/></g></svg>