<svg xmlns="http://www.w3.org/2000/svg" xmlns:xlink="http://www.w3.org/1999/xlink" width="90" zoomAndPan="magnify" viewBox="0 0 67.5 67.499996" height="90" preserveAspectRatio="xMidYMid meet" version="1.0"><defs><clipPath id="id1"><path d="M 2.332031 0 L 65 0 L 65 67.003906 L 2.332031 67.003906 Z M 2.332031 0 " clip-rule="nonzero"/></clipPath></defs><g clip-path="url(#id1)"><path fill="#000000" d="M 16.976562 65.1875 C 14.546875 65.1875 12.289062 64.101562 10.78125 62.207031 C 9.269531 60.3125 8.722656 57.875 9.273438 55.523438 L 14.390625 33.6875 L 16.972656 33.6875 C 17.144531 34.964844 17.632812 37.15625 19.039062 39.351562 C 22.582031 44.898438 29.039062 46.0625 33.832031 46.0625 C 38.625 46.0625 45.082031 44.898438 48.625 39.351562 C 50.03125 37.15625 50.519531 34.964844 50.6875 33.6875 L 53.273438 33.6875 L 58.390625 55.523438 C 58.941406 57.875 58.394531 60.3125 56.882812 62.207031 C 55.375 64.101562 53.117188 65.1875 50.6875 65.1875 Z M 5.402344 52.761719 L 9.871094 33.6875 L 12.070312 33.6875 L 7.074219 55.011719 C 6.5 57.460938 6.851562 59.984375 8.039062 62.144531 C 7.792969 61.894531 7.558594 61.632812 7.335938 61.355469 C 5.398438 58.921875 4.691406 55.789062 5.402344 52.761719 Z M 13.320312 26.9375 L 15.550781 26.9375 L 14.796875 31.4375 L 12.566406 31.4375 Z M 20.996094 13.949219 C 23.941406 8.582031 28.554688 2.1875 33.832031 2.1875 C 39.105469 2.1875 43.722656 8.582031 46.667969 13.949219 C 49 18.203125 50.667969 22.503906 51.457031 24.6875 L 50.78125 24.6875 C 50.449219 24.6875 50.132812 24.832031 49.917969 25.085938 C 49.703125 25.335938 49.609375 25.671875 49.664062 25.996094 L 50.578125 31.4375 L 49.648438 31.4375 C 49.027344 31.4375 48.523438 31.941406 48.519531 32.558594 C 48.519531 33.019531 48.28125 43.8125 33.832031 43.8125 C 19.382812 43.8125 19.144531 33.019531 19.144531 32.5625 C 19.144531 31.941406 18.636719 31.4375 18.011719 31.4375 L 17.085938 31.4375 L 17.996094 25.996094 C 18.050781 25.671875 17.960938 25.335938 17.746094 25.085938 C 17.53125 24.832031 17.214844 24.6875 16.882812 24.6875 L 16.207031 24.6875 C 16.996094 22.503906 18.664062 18.203125 20.996094 13.949219 Z M 55.097656 31.4375 L 52.867188 31.4375 L 52.113281 26.9375 L 54.34375 26.9375 Z M 62.261719 52.761719 C 62.972656 55.789062 62.265625 58.921875 60.324219 61.355469 C 60.105469 61.632812 59.871094 61.894531 59.625 62.144531 C 60.8125 59.984375 61.164062 57.460938 60.589844 55.011719 L 55.59375 33.6875 L 57.792969 33.6875 Z M 52.359375 67.4375 C 56.175781 67.4375 59.722656 65.730469 62.097656 62.753906 C 64.46875 59.777344 65.332031 55.949219 64.464844 52.25 L 59.789062 32.304688 C 59.671875 31.796875 59.214844 31.4375 58.691406 31.4375 L 57.386719 31.4375 L 56.414062 25.625 C 56.324219 25.085938 55.851562 24.6875 55.300781 24.6875 L 53.855469 24.6875 C 53.207031 22.8125 51.398438 17.890625 48.664062 12.898438 C 43.953125 4.296875 38.960938 -0.0625 33.832031 -0.0625 C 28.699219 -0.0625 23.710938 4.296875 19 12.898438 C 16.265625 17.890625 14.457031 22.8125 13.808594 24.6875 L 12.363281 24.6875 C 11.8125 24.6875 11.339844 25.085938 11.25 25.625 L 10.277344 31.4375 L 8.972656 31.4375 C 8.449219 31.4375 7.992188 31.796875 7.875 32.304688 L 3.199219 52.25 C 2.332031 55.949219 3.195312 59.777344 5.566406 62.753906 C 7.941406 65.730469 11.488281 67.4375 15.304688 67.4375 L 52.359375 67.4375 " fill-opacity="1" fill-rule="nonzero"/></g></svg>