<svg xmlns="http://www.w3.org/2000/svg" xmlns:xlink="http://www.w3.org/1999/xlink" width="90" zoomAndPan="magnify" viewBox="0 0 67.5 67.499996" height="90" preserveAspectRatio="xMidYMid meet" version="1.0"><defs><clipPath id="id1"><path d="M 4 0 L 63.742188 0 L 63.742188 67.003906 L 4 67.003906 Z M 4 0 " clip-rule="nonzero"/></clipPath></defs><g clip-path="url(#id1)"><path fill="#000000" d="M 63.042969 51.953125 L 60.234375 28.777344 C 60.320312 28.46875 60.410156 28.160156 60.484375 27.847656 C 60.65625 27.167969 60.664062 26.484375 60.519531 25.800781 C 60.371094 25.113281 60.082031 24.496094 59.648438 23.945312 C 59.011719 23.128906 58.191406 22.601562 57.183594 22.359375 C 57.152344 21.617188 57.082031 20.875 56.976562 20.136719 C 56.871094 19.394531 56.730469 18.664062 56.554688 17.9375 C 56.378906 17.214844 56.167969 16.5 55.925781 15.792969 C 55.683594 15.089844 55.40625 14.398438 55.097656 13.71875 C 54.785156 13.039062 54.445312 12.375 54.074219 11.730469 C 53.699219 11.082031 53.296875 10.457031 52.863281 9.847656 C 52.429688 9.238281 51.972656 8.652344 51.480469 8.089844 C 50.992188 7.527344 50.480469 6.984375 49.9375 6.472656 C 49.398438 5.957031 48.835938 5.46875 48.25 5.007812 C 47.660156 4.542969 47.054688 4.113281 46.425781 3.707031 C 45.796875 3.304688 45.152344 2.933594 44.488281 2.589844 C 43.824219 2.246094 43.144531 1.9375 42.453125 1.660156 C 41.757812 1.382812 41.054688 1.140625 40.335938 0.929688 C 39.621094 0.71875 38.894531 0.542969 38.164062 0.402344 C 37.429688 0.261719 36.691406 0.152344 35.949219 0.0820312 C 35.203125 0.0117188 34.457031 -0.0234375 33.710938 -0.0234375 C 32.964844 -0.0234375 32.21875 0.0117188 31.476562 0.0820312 C 30.734375 0.152344 29.996094 0.261719 29.261719 0.402344 C 28.527344 0.542969 27.800781 0.71875 27.085938 0.929688 C 26.371094 1.140625 25.664062 1.382812 24.972656 1.660156 C 24.277344 1.9375 23.597656 2.246094 22.933594 2.589844 C 22.273438 2.933594 21.625 3.304688 20.996094 3.707031 C 20.371094 4.113281 19.761719 4.542969 19.175781 5.007812 C 18.589844 5.46875 18.023438 5.957031 17.484375 6.472656 C 16.945312 6.984375 16.429688 7.527344 15.941406 8.089844 C 15.453125 8.652344 14.992188 9.238281 14.558594 9.847656 C 14.125 10.457031 13.722656 11.082031 13.351562 11.730469 C 12.976562 12.375 12.636719 13.039062 12.328125 13.71875 C 12.015625 14.398438 11.742188 15.089844 11.496094 15.792969 C 11.253906 16.5 11.042969 17.214844 10.867188 17.9375 C 10.695312 18.664062 10.554688 19.394531 10.449219 20.136719 C 10.34375 20.875 10.273438 21.617188 10.238281 22.359375 C 9.230469 22.601562 8.410156 23.128906 7.773438 23.945312 C 7.34375 24.496094 7.050781 25.113281 6.90625 25.800781 C 6.757812 26.484375 6.769531 27.167969 6.9375 27.847656 C 7.011719 28.160156 7.101562 28.476562 7.191406 28.789062 L 4.378906 51.953125 C 4.320312 52.4375 4.289062 52.925781 4.28125 53.414062 C 4.273438 53.90625 4.292969 54.394531 4.335938 54.882812 C 4.382812 55.371094 4.453125 55.851562 4.546875 56.332031 C 4.644531 56.8125 4.761719 57.289062 4.910156 57.753906 C 5.054688 58.222656 5.226562 58.679688 5.421875 59.128906 C 5.613281 59.582031 5.832031 60.019531 6.074219 60.445312 C 6.3125 60.871094 6.578125 61.285156 6.863281 61.683594 C 7.144531 62.082031 7.449219 62.464844 7.777344 62.828125 C 8.101562 63.195312 8.445312 63.542969 8.808594 63.875 C 9.167969 64.203125 9.546875 64.515625 9.941406 64.804688 C 10.335938 65.09375 10.746094 65.363281 11.171875 65.609375 C 11.59375 65.855469 12.027344 66.082031 12.476562 66.28125 C 12.921875 66.484375 13.378906 66.660156 13.84375 66.8125 C 14.3125 66.964844 14.785156 67.09375 15.261719 67.195312 C 15.742188 67.296875 16.226562 67.375 16.714844 67.425781 C 17.199219 67.476562 17.691406 67.503906 18.179688 67.503906 L 49.242188 67.503906 C 49.734375 67.503906 50.222656 67.476562 50.710938 67.425781 C 51.199219 67.375 51.679688 67.296875 52.160156 67.195312 C 52.640625 67.09375 53.113281 66.964844 53.578125 66.8125 C 54.042969 66.660156 54.5 66.484375 54.949219 66.28125 C 55.394531 66.082031 55.828125 65.855469 56.253906 65.609375 C 56.675781 65.363281 57.085938 65.09375 57.480469 64.804688 C 57.875 64.515625 58.253906 64.203125 58.617188 63.875 C 58.976562 63.542969 59.320312 63.195312 59.648438 62.828125 C 59.972656 62.464844 60.277344 62.082031 60.5625 61.683594 C 60.847656 61.285156 61.109375 60.871094 61.351562 60.445312 C 61.589844 60.019531 61.808594 59.582031 62.003906 59.128906 C 62.199219 58.679688 62.367188 58.222656 62.515625 57.753906 C 62.660156 57.289062 62.78125 56.8125 62.875 56.332031 C 62.972656 55.851562 63.042969 55.371094 63.085938 54.882812 C 63.132812 54.394531 63.148438 53.90625 63.140625 53.414062 C 63.136719 52.925781 63.101562 52.4375 63.042969 51.953125 Z M 33.710938 1.230469 C 34.414062 1.234375 35.113281 1.273438 35.8125 1.34375 C 36.511719 1.410156 37.203125 1.515625 37.894531 1.648438 C 38.582031 1.785156 39.261719 1.953125 39.933594 2.152344 C 40.609375 2.351562 41.269531 2.582031 41.921875 2.84375 C 42.574219 3.105469 43.210938 3.394531 43.835938 3.71875 C 44.457031 4.039062 45.066406 4.390625 45.65625 4.765625 C 46.246094 5.144531 46.820312 5.550781 47.371094 5.984375 C 47.925781 6.414062 48.457031 6.871094 48.964844 7.355469 C 49.476562 7.835938 49.960938 8.34375 50.421875 8.871094 C 50.886719 9.398438 51.320312 9.945312 51.734375 10.515625 C 52.144531 11.082031 52.527344 11.667969 52.882812 12.273438 C 53.238281 12.878906 53.5625 13.5 53.859375 14.132812 C 54.15625 14.769531 54.421875 15.417969 54.660156 16.078125 C 54.894531 16.738281 55.097656 17.40625 55.273438 18.085938 C 55.445312 18.765625 55.585938 19.453125 55.691406 20.144531 C 55.800781 20.839844 55.875 21.535156 55.917969 22.234375 L 53.394531 22.234375 C 53.355469 21.617188 53.289062 21 53.191406 20.386719 C 53.097656 19.777344 52.972656 19.167969 52.816406 18.570312 C 52.664062 17.96875 52.484375 17.375 52.273438 16.792969 C 52.0625 16.210938 51.828125 15.636719 51.5625 15.078125 C 51.300781 14.515625 51.011719 13.96875 50.695312 13.433594 C 50.378906 12.898438 50.039062 12.382812 49.675781 11.878906 C 49.3125 11.378906 48.925781 10.894531 48.515625 10.429688 C 48.105469 9.964844 47.671875 9.519531 47.222656 9.09375 C 46.769531 8.671875 46.296875 8.269531 45.808594 7.886719 C 45.316406 7.507812 44.808594 7.152344 44.285156 6.820312 C 43.761719 6.488281 43.226562 6.179688 42.671875 5.898438 C 42.117188 5.617188 41.554688 5.363281 40.976562 5.132812 C 40.402344 4.90625 39.8125 4.703125 39.21875 4.53125 C 38.621094 4.359375 38.019531 4.214844 37.410156 4.097656 C 36.800781 3.980469 36.1875 3.894531 35.570312 3.835938 C 34.953125 3.777344 34.332031 3.746094 33.710938 3.746094 C 33.089844 3.746094 32.472656 3.777344 31.855469 3.835938 C 31.238281 3.894531 30.621094 3.980469 30.011719 4.097656 C 29.402344 4.214844 28.800781 4.359375 28.207031 4.53125 C 27.609375 4.703125 27.023438 4.90625 26.445312 5.132812 C 25.867188 5.363281 25.304688 5.617188 24.75 5.898438 C 24.199219 6.179688 23.660156 6.488281 23.136719 6.820312 C 22.613281 7.152344 22.105469 7.507812 21.617188 7.886719 C 21.125 8.269531 20.65625 8.671875 20.203125 9.09375 C 19.75 9.519531 19.320312 9.964844 18.910156 10.429688 C 18.5 10.894531 18.113281 11.378906 17.75 11.878906 C 17.382812 12.382812 17.042969 12.898438 16.730469 13.433594 C 16.414062 13.96875 16.125 14.515625 15.859375 15.078125 C 15.597656 15.636719 15.359375 16.210938 15.152344 16.792969 C 14.941406 17.375 14.757812 17.96875 14.605469 18.570312 C 14.453125 19.167969 14.328125 19.777344 14.230469 20.386719 C 14.136719 21 14.066406 21.617188 14.03125 22.234375 L 11.503906 22.234375 C 11.546875 21.535156 11.621094 20.839844 11.730469 20.144531 C 11.839844 19.453125 11.980469 18.765625 12.152344 18.085938 C 12.324219 17.40625 12.527344 16.738281 12.765625 16.078125 C 13 15.417969 13.265625 14.769531 13.5625 14.132812 C 13.859375 13.5 14.1875 12.878906 14.542969 12.273438 C 14.898438 11.667969 15.28125 11.082031 15.691406 10.515625 C 16.101562 9.945312 16.539062 9.398438 17 8.871094 C 17.460938 8.34375 17.949219 7.835938 18.457031 7.355469 C 18.96875 6.871094 19.5 6.414062 20.050781 5.984375 C 20.605469 5.550781 21.175781 5.144531 21.765625 4.765625 C 22.359375 4.390625 22.964844 4.039062 23.589844 3.71875 C 24.210938 3.394531 24.851562 3.105469 25.5 2.84375 C 26.152344 2.582031 26.816406 2.351562 27.488281 2.152344 C 28.160156 1.953125 28.839844 1.785156 29.53125 1.648438 C 30.21875 1.515625 30.914062 1.410156 31.609375 1.34375 C 32.308594 1.273438 33.007812 1.234375 33.710938 1.230469 Z M 52.128906 22.234375 L 15.296875 22.234375 C 15.371094 21.078125 15.550781 19.933594 15.84375 18.8125 C 16.132812 17.6875 16.523438 16.601562 17.019531 15.550781 C 17.515625 14.5 18.105469 13.507812 18.789062 12.570312 C 19.472656 11.628906 20.238281 10.765625 21.085938 9.96875 C 21.933594 9.175781 22.847656 8.46875 23.832031 7.847656 C 24.8125 7.226562 25.84375 6.699219 26.921875 6.273438 C 28.003906 5.847656 29.113281 5.523438 30.257812 5.308594 C 31.398438 5.089844 32.550781 4.980469 33.710938 4.980469 C 34.875 4.980469 36.027344 5.089844 37.167969 5.308594 C 38.308594 5.523438 39.417969 5.847656 40.5 6.273438 C 41.582031 6.699219 42.613281 7.226562 43.59375 7.847656 C 44.574219 8.46875 45.488281 9.175781 46.335938 9.96875 C 47.183594 10.765625 47.949219 11.628906 48.632812 12.570312 C 49.316406 13.507812 49.90625 14.5 50.402344 15.550781 C 50.898438 16.601562 51.289062 17.6875 51.582031 18.8125 C 51.871094 19.933594 52.054688 21.078125 52.128906 22.234375 Z M 8.765625 24.71875 C 9.3125 24.019531 10.03125 23.617188 10.917969 23.511719 C 11.042969 23.5 56.378906 23.5 56.503906 23.511719 C 57.390625 23.617188 58.109375 24.019531 58.660156 24.71875 C 58.972656 25.121094 59.183594 25.566406 59.289062 26.066406 C 59.394531 26.5625 59.382812 27.058594 59.257812 27.550781 C 56.996094 36.761719 48.3125 43.75 37.546875 45.109375 L 37.546875 42.917969 C 37.546875 42.410156 37.449219 41.921875 37.253906 41.453125 C 37.0625 40.984375 36.785156 40.570312 36.425781 40.210938 C 36.0625 39.851562 35.648438 39.574219 35.179688 39.378906 C 34.710938 39.183594 34.21875 39.085938 33.710938 39.085938 C 33.203125 39.085938 32.714844 39.183594 32.242188 39.378906 C 31.773438 39.574219 31.359375 39.851562 31 40.210938 C 30.640625 40.570312 30.363281 40.984375 30.167969 41.453125 C 29.972656 41.921875 29.875 42.410156 29.875 42.917969 L 29.875 45.109375 C 19.117188 43.742188 10.421875 36.734375 8.164062 27.550781 C 8.039062 27.058594 8.03125 26.5625 8.136719 26.066406 C 8.242188 25.566406 8.449219 25.121094 8.765625 24.71875 Z M 36.289062 42.917969 L 36.289062 49.398438 C 36.289062 49.738281 36.222656 50.066406 36.089844 50.382812 C 35.960938 50.699219 35.773438 50.976562 35.53125 51.21875 C 35.292969 51.457031 35.011719 51.644531 34.699219 51.773438 C 34.382812 51.90625 34.054688 51.972656 33.710938 51.972656 C 33.371094 51.972656 33.042969 51.90625 32.726562 51.773438 C 32.410156 51.644531 32.132812 51.457031 31.890625 51.21875 C 31.648438 50.976562 31.460938 50.699219 31.332031 50.382812 C 31.199219 50.066406 31.136719 49.738281 31.136719 49.398438 L 31.136719 42.917969 C 31.136719 42.578125 31.199219 42.25 31.332031 41.933594 C 31.460938 41.617188 31.648438 41.339844 31.890625 41.097656 C 32.132812 40.859375 32.410156 40.671875 32.726562 40.542969 C 33.042969 40.410156 33.371094 40.347656 33.710938 40.347656 C 34.054688 40.347656 34.382812 40.410156 34.699219 40.542969 C 35.011719 40.671875 35.292969 40.859375 35.53125 41.097656 C 35.773438 41.339844 35.960938 41.617188 36.089844 41.933594 C 36.222656 42.25 36.289062 42.578125 36.289062 42.917969 Z M 58.703125 61.992188 C 57.503906 63.34375 56.078125 64.390625 54.429688 65.132812 C 52.78125 65.875 51.050781 66.246094 49.242188 66.246094 L 18.179688 66.246094 C 17.734375 66.246094 17.289062 66.222656 16.847656 66.175781 C 16.402344 66.128906 15.964844 66.058594 15.527344 65.964844 C 15.09375 65.871094 14.664062 65.753906 14.238281 65.617188 C 13.816406 65.476562 13.398438 65.316406 12.992188 65.132812 C 12.585938 64.949219 12.191406 64.746094 11.808594 64.523438 C 11.421875 64.296875 11.050781 64.054688 10.691406 63.789062 C 10.332031 63.527344 9.988281 63.246094 9.660156 62.945312 C 9.328125 62.644531 9.015625 62.328125 8.722656 61.992188 C 8.425781 61.660156 8.148438 61.3125 7.890625 60.949219 C 7.628906 60.585938 7.390625 60.210938 7.171875 59.824219 C 6.953125 59.4375 6.757812 59.039062 6.578125 58.628906 C 6.402344 58.222656 6.246094 57.804688 6.113281 57.378906 C 5.980469 56.953125 5.871094 56.523438 5.785156 56.085938 C 5.699219 55.648438 5.632812 55.210938 5.59375 54.765625 C 5.554688 54.324219 5.535156 53.878906 5.542969 53.433594 C 5.550781 52.988281 5.582031 52.546875 5.632812 52.101562 L 8.148438 31.375 C 11.660156 39.339844 19.945312 45.171875 29.875 46.367188 L 29.875 49.398438 C 29.875 49.90625 29.972656 50.394531 30.167969 50.867188 C 30.363281 51.335938 30.636719 51.75 31 52.109375 C 31.359375 52.46875 31.773438 52.746094 32.242188 52.941406 C 32.714844 53.136719 33.203125 53.234375 33.710938 53.234375 C 34.21875 53.234375 34.710938 53.136719 35.179688 52.941406 C 35.652344 52.746094 36.066406 52.46875 36.425781 52.109375 C 36.785156 51.75 37.0625 51.335938 37.257812 50.867188 C 37.449219 50.394531 37.546875 49.90625 37.546875 49.398438 L 37.546875 46.371094 C 47.480469 45.171875 55.75 39.359375 59.277344 31.386719 L 61.789062 52.101562 C 62.007812 53.894531 61.84375 55.65625 61.308594 57.378906 C 60.769531 59.101562 59.902344 60.640625 58.703125 61.992188 Z M 58.703125 61.992188 " fill-opacity="1" fill-rule="nonzero"/></g></svg>