<svg xmlns="http://www.w3.org/2000/svg" xmlns:xlink="http://www.w3.org/1999/xlink" width="90" zoomAndPan="magnify" viewBox="0 0 67.5 67.499996" height="90" preserveAspectRatio="xMidYMid meet" version="1.0"><defs><clipPath id="id1"><path d="M 20 55 L 67.003906 55 L 67.003906 62.273438 L 20 62.273438 Z M 20 55 " clip-rule="nonzero"/></clipPath><clipPath id="id2"><path d="M 0 55 L 23 55 L 23 62.273438 L 0 62.273438 Z M 0 55 " clip-rule="nonzero"/></clipPath><clipPath id="id3"><path d="M 60 37 L 67.003906 37 L 67.003906 46 L 60 46 Z M 60 37 " clip-rule="nonzero"/></clipPath><clipPath id="id4"><path d="M 65 43 L 67.003906 43 L 67.003906 59 L 65 59 Z M 65 43 " clip-rule="nonzero"/></clipPath><clipPath id="id5"><path d="M 33 5.277344 L 67.003906 5.277344 L 67.003906 18 L 33 18 Z M 33 5.277344 " clip-rule="nonzero"/></clipPath><clipPath id="id6"><path d="M 4 5.277344 L 27 5.277344 L 27 28 L 4 28 Z M 4 5.277344 " clip-rule="nonzero"/></clipPath></defs><g clip-path="url(#id1)"><path fill="#000000" d="M 66.445312 62.273438 L 21.097656 62.273438 C 20.511719 62.273438 20.042969 61.800781 20.042969 61.21875 L 20.042969 56.992188 C 20.042969 56.40625 20.511719 55.9375 21.097656 55.9375 L 66.445312 55.9375 C 67.027344 55.9375 67.5 56.40625 67.5 56.992188 L 67.5 61.21875 C 67.5 61.800781 67.027344 62.273438 66.445312 62.273438 Z M 22.152344 60.164062 L 65.390625 60.164062 L 65.390625 58.046875 L 22.152344 58.046875 Z M 22.152344 60.164062 " fill-opacity="1" fill-rule="nonzero"/></g><g clip-path="url(#id2)"><path fill="#000000" d="M 16.878906 62.273438 L 1.054688 62.273438 C 0.472656 62.273438 0 61.800781 0 61.21875 L 0 56.992188 C 0 56.40625 0.472656 55.9375 1.054688 55.9375 L 21.101562 55.9375 C 21.527344 55.9375 21.914062 56.191406 22.074219 56.585938 C 22.238281 56.980469 22.148438 57.4375 21.847656 57.738281 L 17.621094 61.964844 C 17.425781 62.164062 17.15625 62.273438 16.878906 62.273438 Z M 2.109375 60.164062 L 16.441406 60.164062 L 18.554688 58.046875 L 2.109375 58.046875 Z M 2.109375 60.164062 " fill-opacity="1" fill-rule="nonzero"/></g><path fill="#000000" d="M 1.058594 58.046875 C 0.476562 58.046875 0.00390625 57.578125 0.00390625 56.992188 L 0.00390625 29.535156 C 0.00390625 28.949219 0.476562 28.480469 1.058594 28.480469 C 1.640625 28.480469 2.113281 28.949219 2.113281 29.535156 L 2.113281 56.992188 C 2.113281 57.578125 1.640625 58.046875 1.058594 58.046875 Z M 1.058594 58.046875 " fill-opacity="1" fill-rule="nonzero"/><g clip-path="url(#id3)"><path fill="#000000" d="M 66.445312 45.371094 C 65.859375 45.371094 65.390625 44.898438 65.390625 44.3125 C 65.390625 41.984375 63.496094 40.09375 61.171875 40.09375 C 60.585938 40.09375 60.117188 39.621094 60.117188 39.035156 C 60.117188 38.453125 60.585938 37.980469 61.171875 37.980469 C 64.660156 37.980469 67.5 40.820312 67.5 44.3125 C 67.5 44.898438 67.027344 45.371094 66.445312 45.371094 Z M 66.445312 45.371094 " fill-opacity="1" fill-rule="nonzero"/></g><g clip-path="url(#id4)"><path fill="#000000" d="M 66.445312 58.046875 C 65.859375 58.046875 65.390625 57.574219 65.390625 56.992188 L 65.390625 44.3125 C 65.390625 43.730469 65.859375 43.257812 66.445312 43.257812 C 67.027344 43.257812 67.5 43.730469 67.5 44.3125 L 67.5 56.992188 C 67.5 57.574219 67.027344 58.046875 66.445312 58.046875 Z M 66.445312 58.046875 " fill-opacity="1" fill-rule="nonzero"/></g><path fill="#000000" d="M 61.171875 40.09375 L 43.246094 40.09375 C 42.660156 40.09375 42.191406 39.621094 42.191406 39.035156 C 42.191406 38.453125 42.660156 37.980469 43.246094 37.980469 L 61.171875 37.980469 C 61.753906 37.980469 62.226562 38.453125 62.226562 39.035156 C 62.226562 39.621094 61.753906 40.09375 61.171875 40.09375 Z M 61.171875 40.09375 " fill-opacity="1" fill-rule="nonzero"/><path fill="#000000" d="M 43.242188 40.09375 C 43.039062 40.09375 42.828125 40.03125 42.648438 39.90625 L 25.769531 28.292969 C 25.289062 27.964844 25.167969 27.304688 25.5 26.824219 C 25.828125 26.34375 26.488281 26.222656 26.964844 26.554688 L 43.84375 38.167969 C 44.320312 38.496094 44.445312 39.15625 44.113281 39.636719 C 43.910156 39.933594 43.578125 40.09375 43.242188 40.09375 Z M 43.242188 40.09375 " fill-opacity="1" fill-rule="nonzero"/><path fill="#000000" d="M 5.277344 30.589844 L 1.058594 30.589844 C 0.476562 30.589844 0.00390625 30.117188 0.00390625 29.535156 C 0.00390625 28.949219 0.476562 28.480469 1.058594 28.480469 L 5.277344 28.480469 C 5.859375 28.480469 6.332031 28.949219 6.332031 29.535156 C 6.332031 30.117188 5.859375 30.589844 5.277344 30.589844 Z M 5.277344 30.589844 " fill-opacity="1" fill-rule="nonzero"/><path fill="#000000" d="M 10.546875 35.867188 C 7.058594 35.867188 4.222656 33.027344 4.222656 29.535156 C 4.222656 28.953125 4.695312 28.480469 5.277344 28.480469 C 5.859375 28.480469 6.332031 28.953125 6.332031 29.535156 C 6.332031 31.863281 8.222656 33.757812 10.546875 33.757812 C 11.128906 33.757812 11.601562 34.226562 11.601562 34.8125 C 11.601562 35.394531 11.128906 35.867188 10.546875 35.867188 Z M 10.546875 35.867188 " fill-opacity="1" fill-rule="nonzero"/><path fill="#000000" d="M 18.984375 35.867188 C 18.402344 35.867188 17.929688 35.394531 17.929688 34.8125 C 17.929688 34.226562 18.402344 33.757812 18.984375 33.757812 C 22.472656 33.757812 25.3125 30.917969 25.3125 27.421875 C 25.3125 26.839844 25.785156 26.367188 26.367188 26.367188 C 26.949219 26.367188 27.421875 26.839844 27.421875 27.421875 C 27.421875 32.082031 23.636719 35.867188 18.984375 35.867188 Z M 18.984375 35.867188 " fill-opacity="1" fill-rule="nonzero"/><path fill="#000000" d="M 18.984375 35.867188 L 10.546875 35.867188 C 9.964844 35.867188 9.492188 35.394531 9.492188 34.8125 C 9.492188 34.226562 9.964844 33.757812 10.546875 33.757812 L 18.984375 33.757812 C 19.566406 33.757812 20.039062 34.226562 20.039062 34.8125 C 20.039062 35.394531 19.566406 35.867188 18.984375 35.867188 Z M 18.984375 35.867188 " fill-opacity="1" fill-rule="nonzero"/><path fill="#000000" d="M 30.773438 35.128906 C 30.5625 35.128906 30.347656 35.0625 30.160156 34.929688 C 29.6875 34.589844 29.578125 33.929688 29.917969 33.457031 L 31.65625 31.035156 C 31.992188 30.558594 32.652344 30.449219 33.125 30.792969 C 33.597656 31.128906 33.707031 31.789062 33.367188 32.265625 L 31.632812 34.6875 C 31.425781 34.976562 31.101562 35.128906 30.773438 35.128906 Z M 30.773438 35.128906 " fill-opacity="1" fill-rule="nonzero"/><path fill="#000000" d="M 34.203125 37.585938 C 33.992188 37.585938 33.773438 37.523438 33.589844 37.390625 C 33.117188 37.050781 33.007812 36.390625 33.347656 35.914062 L 35.128906 33.425781 C 35.46875 32.953125 36.128906 32.839844 36.601562 33.183594 C 37.074219 33.523438 37.183594 34.183594 36.84375 34.65625 L 35.0625 37.148438 C 34.855469 37.433594 34.53125 37.585938 34.203125 37.585938 Z M 34.203125 37.585938 " fill-opacity="1" fill-rule="nonzero"/><path fill="#000000" d="M 37.628906 40.050781 C 37.417969 40.050781 37.203125 39.988281 37.015625 39.851562 C 36.542969 39.511719 36.433594 38.855469 36.773438 38.378906 L 38.609375 35.820312 C 38.945312 35.347656 39.605469 35.234375 40.078125 35.578125 C 40.550781 35.914062 40.664062 36.574219 40.320312 37.046875 L 38.488281 39.609375 C 38.28125 39.898438 37.957031 40.050781 37.628906 40.050781 Z M 37.628906 40.050781 " fill-opacity="1" fill-rule="nonzero"/><path fill="#000000" d="M 41.058594 42.515625 C 40.847656 42.515625 40.628906 42.449219 40.445312 42.316406 C 39.972656 41.976562 39.863281 41.316406 40.203125 40.84375 L 42.085938 38.210938 C 42.425781 37.738281 43.082031 37.628906 43.558594 37.96875 C 44.03125 38.308594 44.140625 38.96875 43.800781 39.445312 L 41.917969 42.074219 C 41.710938 42.363281 41.386719 42.515625 41.058594 42.515625 Z M 41.058594 42.515625 " fill-opacity="1" fill-rule="nonzero"/><g clip-path="url(#id5)"><path fill="#000000" d="M 66.445312 17.945312 L 34.804688 17.945312 C 34.222656 17.945312 33.75 17.472656 33.75 16.890625 L 33.75 6.328125 C 33.75 5.746094 34.222656 5.273438 34.804688 5.273438 L 66.445312 5.273438 C 67.027344 5.273438 67.5 5.746094 67.5 6.328125 L 67.5 16.890625 C 67.5 17.472656 67.027344 17.945312 66.445312 17.945312 Z M 35.859375 15.832031 L 65.390625 15.832031 L 65.390625 7.382812 L 35.859375 7.382812 Z M 35.859375 15.832031 " fill-opacity="1" fill-rule="nonzero"/></g><path fill="#000000" d="M 63.277344 25.335938 L 37.972656 25.335938 C 37.386719 25.335938 36.917969 24.863281 36.917969 24.28125 L 36.917969 16.890625 C 36.917969 16.304688 37.386719 15.832031 37.972656 15.832031 L 63.277344 15.832031 C 63.863281 15.832031 64.332031 16.304688 64.332031 16.890625 L 64.332031 24.28125 C 64.332031 24.863281 63.863281 25.335938 63.277344 25.335938 Z M 39.027344 23.222656 L 62.222656 23.222656 L 62.222656 17.945312 L 39.027344 17.945312 Z M 39.027344 23.222656 " fill-opacity="1" fill-rule="nonzero"/><path fill="#000000" d="M 60.117188 31.664062 L 41.132812 31.664062 C 40.546875 31.664062 40.078125 31.191406 40.078125 30.605469 C 40.078125 30.023438 40.546875 29.550781 41.132812 29.550781 L 60.117188 29.550781 C 60.703125 29.550781 61.171875 30.023438 61.171875 30.605469 C 61.171875 31.191406 60.703125 31.664062 60.117188 31.664062 Z M 60.117188 31.664062 " fill-opacity="1" fill-rule="nonzero"/><path fill="#000000" d="M 42.1875 32.71875 C 41.917969 32.71875 41.644531 32.613281 41.441406 32.410156 L 40.386719 31.351562 C 39.972656 30.941406 39.972656 30.273438 40.386719 29.859375 C 40.796875 29.449219 41.464844 29.449219 41.878906 29.859375 L 42.933594 30.917969 C 43.34375 31.328125 43.34375 31.996094 42.933594 32.410156 C 42.726562 32.613281 42.457031 32.71875 42.1875 32.71875 Z M 42.1875 32.71875 " fill-opacity="1" fill-rule="nonzero"/><path fill="#000000" d="M 41.132812 31.664062 C 40.863281 31.664062 40.589844 31.558594 40.386719 31.351562 C 39.972656 30.941406 39.972656 30.273438 40.386719 29.859375 L 41.441406 28.804688 C 41.851562 28.390625 42.519531 28.390625 42.933594 28.804688 C 43.34375 29.21875 43.34375 29.886719 42.933594 30.296875 L 41.878906 31.351562 C 41.671875 31.558594 41.402344 31.664062 41.132812 31.664062 Z M 41.132812 31.664062 " fill-opacity="1" fill-rule="nonzero"/><path fill="#000000" d="M 60.117188 31.664062 C 59.847656 31.664062 59.578125 31.558594 59.371094 31.351562 L 58.316406 30.296875 C 57.90625 29.886719 57.90625 29.21875 58.316406 28.804688 C 58.730469 28.390625 59.394531 28.390625 59.808594 28.804688 L 60.863281 29.859375 C 61.273438 30.273438 61.273438 30.941406 60.863281 31.351562 C 60.65625 31.558594 60.386719 31.664062 60.117188 31.664062 Z M 60.117188 31.664062 " fill-opacity="1" fill-rule="nonzero"/><path fill="#000000" d="M 59.0625 32.71875 C 58.792969 32.71875 58.523438 32.613281 58.316406 32.410156 C 57.90625 31.996094 57.90625 31.328125 58.316406 30.917969 L 59.371094 29.859375 C 59.785156 29.449219 60.449219 29.449219 60.863281 29.859375 C 61.273438 30.273438 61.273438 30.941406 60.863281 31.351562 L 59.808594 32.410156 C 59.601562 32.613281 59.332031 32.71875 59.0625 32.71875 Z M 59.0625 32.71875 " fill-opacity="1" fill-rule="nonzero"/><path fill="#000000" d="M 41.164062 23.21875 C 40.582031 23.21875 40.105469 22.746094 40.105469 22.164062 C 40.105469 21.578125 40.570312 21.105469 41.152344 21.105469 L 41.164062 21.105469 C 41.746094 21.105469 42.21875 21.578125 42.21875 22.164062 C 42.21875 22.746094 41.746094 23.21875 41.164062 23.21875 Z M 41.164062 23.21875 " fill-opacity="1" fill-rule="nonzero"/><path fill="#000000" d="M 47.492188 23.21875 C 46.910156 23.21875 46.433594 22.746094 46.433594 22.164062 C 46.433594 21.578125 46.898438 21.105469 47.480469 21.105469 L 47.492188 21.105469 C 48.074219 21.105469 48.546875 21.578125 48.546875 22.164062 C 48.546875 22.746094 48.074219 23.21875 47.492188 23.21875 Z M 47.492188 23.21875 " fill-opacity="1" fill-rule="nonzero"/><path fill="#000000" d="M 53.820312 23.21875 C 53.238281 23.21875 52.761719 22.746094 52.761719 22.164062 C 52.761719 21.578125 53.226562 21.105469 53.808594 21.105469 L 53.820312 21.105469 C 54.402344 21.105469 54.875 21.578125 54.875 22.164062 C 54.875 22.746094 54.402344 23.21875 53.820312 23.21875 Z M 53.820312 23.21875 " fill-opacity="1" fill-rule="nonzero"/><path fill="#000000" d="M 60.148438 23.21875 C 59.566406 23.21875 59.089844 22.746094 59.089844 22.164062 C 59.089844 21.578125 59.554688 21.105469 60.136719 21.105469 L 60.148438 21.105469 C 60.730469 21.105469 61.203125 21.578125 61.203125 22.164062 C 61.203125 22.746094 60.730469 23.21875 60.148438 23.21875 Z M 60.148438 23.21875 " fill-opacity="1" fill-rule="nonzero"/><path fill="#000000" d="M 44.328125 20.050781 C 43.746094 20.050781 43.269531 19.578125 43.269531 18.992188 C 43.269531 18.410156 43.734375 17.9375 44.316406 17.9375 L 44.328125 17.9375 C 44.910156 17.9375 45.382812 18.410156 45.382812 18.992188 C 45.382812 19.578125 44.910156 20.050781 44.328125 20.050781 Z M 44.328125 20.050781 " fill-opacity="1" fill-rule="nonzero"/><path fill="#000000" d="M 50.65625 20.050781 C 50.074219 20.050781 49.597656 19.578125 49.597656 18.992188 C 49.597656 18.410156 50.0625 17.9375 50.644531 17.9375 L 50.65625 17.9375 C 51.238281 17.9375 51.710938 18.410156 51.710938 18.992188 C 51.710938 19.578125 51.238281 20.050781 50.65625 20.050781 Z M 50.65625 20.050781 " fill-opacity="1" fill-rule="nonzero"/><path fill="#000000" d="M 56.984375 20.050781 C 56.402344 20.050781 55.925781 19.578125 55.925781 18.992188 C 55.925781 18.410156 56.390625 17.9375 56.972656 17.9375 L 56.984375 17.9375 C 57.566406 17.9375 58.039062 18.410156 58.039062 18.992188 C 58.039062 19.578125 57.566406 20.050781 56.984375 20.050781 Z M 56.984375 20.050781 " fill-opacity="1" fill-rule="nonzero"/><path fill="#000000" d="M 61.171875 12.660156 L 40.078125 12.660156 C 39.496094 12.660156 39.023438 12.1875 39.023438 11.605469 C 39.023438 11.019531 39.496094 10.550781 40.078125 10.550781 L 61.171875 10.550781 C 61.753906 10.550781 62.226562 11.019531 62.226562 11.605469 C 62.226562 12.1875 61.753906 12.660156 61.171875 12.660156 Z M 61.171875 12.660156 " fill-opacity="1" fill-rule="nonzero"/><g clip-path="url(#id6)"><path fill="#000000" d="M 15.300781 27.441406 L 15.296875 27.441406 C 9.191406 27.441406 4.222656 22.472656 4.222656 16.363281 C 4.21875 13.402344 5.371094 10.621094 7.460938 8.527344 C 9.550781 6.429688 12.332031 5.277344 15.289062 5.277344 C 21.398438 5.277344 26.367188 10.246094 26.367188 16.355469 C 26.371094 19.3125 25.21875 22.097656 23.128906 24.191406 C 21.035156 26.285156 18.257812 27.441406 15.300781 27.441406 Z M 15.292969 7.386719 C 10.347656 7.390625 6.328125 11.414062 6.332031 16.363281 C 6.332031 21.308594 10.355469 25.332031 15.296875 25.332031 L 15.296875 26.386719 L 15.300781 25.332031 C 17.695312 25.328125 19.941406 24.394531 21.636719 22.699219 C 23.328125 21.003906 24.261719 18.75 24.257812 16.355469 C 24.257812 11.410156 20.234375 7.386719 15.292969 7.386719 Z M 15.292969 7.386719 " fill-opacity="1" fill-rule="nonzero"/></g><path fill="#000000" d="M 13.710938 20.054688 C 13.441406 20.054688 13.171875 19.953125 12.964844 19.746094 L 10.855469 17.636719 C 10.445312 17.222656 10.445312 16.554688 10.855469 16.140625 C 11.269531 15.730469 11.933594 15.730469 12.347656 16.140625 L 14.457031 18.253906 C 14.871094 18.667969 14.871094 19.332031 14.457031 19.746094 C 14.253906 19.953125 13.980469 20.054688 13.710938 20.054688 Z M 13.710938 20.054688 " fill-opacity="1" fill-rule="nonzero"/><path fill="#000000" d="M 13.710938 20.054688 C 13.441406 20.054688 13.171875 19.953125 12.964844 19.746094 C 12.554688 19.335938 12.554688 18.667969 12.964844 18.253906 L 18.238281 12.972656 C 18.652344 12.558594 19.316406 12.558594 19.730469 12.972656 C 20.140625 13.382812 20.140625 14.050781 19.730469 14.464844 L 14.457031 19.746094 C 14.253906 19.953125 13.980469 20.054688 13.710938 20.054688 Z M 13.710938 20.054688 " fill-opacity="1" fill-rule="nonzero"/></svg>