<svg xmlns="http://www.w3.org/2000/svg" xmlns:xlink="http://www.w3.org/1999/xlink" width="90" zoomAndPan="magnify" viewBox="0 0 67.5 67.499996" height="90" preserveAspectRatio="xMidYMid meet" version="1.0"><defs><clipPath id="id1"><path d="M 24 53 L 44 53 L 44 67.003906 L 24 67.003906 Z M 24 53 " clip-rule="nonzero"/></clipPath><clipPath id="id2"><path d="M 16 58 L 27 58 L 27 67.003906 L 16 67.003906 Z M 16 58 " clip-rule="nonzero"/></clipPath><clipPath id="id3"><path d="M 21 8 L 67.003906 8 L 67.003906 17 L 21 17 Z M 21 8 " clip-rule="nonzero"/></clipPath></defs><path fill="#5c5c5c" d="M 62.222656 41.136719 L 21.097656 41.136719 C 20.511719 41.136719 20.042969 40.664062 20.042969 40.082031 L 20.042969 35.855469 C 20.042969 35.273438 20.511719 34.800781 21.097656 34.800781 L 62.222656 34.800781 C 62.808594 34.800781 63.277344 35.273438 63.277344 35.855469 L 63.277344 40.082031 C 63.277344 40.664062 62.808594 41.136719 62.222656 41.136719 Z M 22.152344 39.027344 L 61.167969 39.027344 L 61.167969 36.910156 L 22.152344 36.910156 Z M 22.152344 39.027344 " fill-opacity="1" fill-rule="nonzero"/><path fill="#5c5c5c" d="M 21.101562 41.136719 L 1.054688 41.136719 C 0.472656 41.136719 0 40.664062 0 40.082031 L 0 35.855469 C 0 35.273438 0.472656 34.800781 1.054688 34.800781 L 16.878906 34.800781 C 17.15625 34.800781 17.425781 34.914062 17.621094 35.113281 L 21.847656 39.335938 C 22.148438 39.636719 22.238281 40.089844 22.074219 40.484375 C 21.910156 40.878906 21.527344 41.136719 21.101562 41.136719 Z M 2.109375 39.027344 L 18.554688 39.027344 L 16.441406 36.910156 L 2.109375 36.910156 Z M 2.109375 39.027344 " fill-opacity="1" fill-rule="nonzero"/><path fill="#5c5c5c" d="M 1.058594 65.402344 C 0.472656 65.402344 0.00390625 64.929688 0.00390625 64.347656 L 0.00390625 40.082031 C 0.00390625 39.496094 0.472656 39.027344 1.058594 39.027344 C 1.640625 39.027344 2.113281 39.496094 2.113281 40.082031 L 2.113281 64.347656 C 2.113281 64.929688 1.640625 65.402344 1.058594 65.402344 Z M 1.058594 65.402344 " fill-opacity="1" fill-rule="nonzero"/><path fill="#5c5c5c" d="M 55.894531 55.90625 C 55.3125 55.90625 54.839844 55.433594 54.839844 54.851562 C 54.839844 54.269531 55.3125 53.796875 55.894531 53.796875 C 58.222656 53.796875 60.113281 51.90625 60.113281 49.578125 C 60.113281 48.996094 60.585938 48.523438 61.167969 48.523438 C 61.753906 48.523438 62.222656 48.996094 62.222656 49.578125 C 62.222656 53.066406 59.386719 55.90625 55.894531 55.90625 Z M 55.894531 55.90625 " fill-opacity="1" fill-rule="nonzero"/><path fill="#5c5c5c" d="M 61.167969 50.632812 C 60.585938 50.632812 60.113281 50.160156 60.113281 49.578125 L 60.113281 40.082031 C 60.113281 39.496094 60.585938 39.027344 61.167969 39.027344 C 61.753906 39.027344 62.222656 39.496094 62.222656 40.082031 L 62.222656 49.578125 C 62.222656 50.160156 61.753906 50.632812 61.167969 50.632812 Z M 61.167969 50.632812 " fill-opacity="1" fill-rule="nonzero"/><path fill="#5c5c5c" d="M 55.894531 55.90625 L 42.1875 55.90625 C 41.605469 55.90625 41.132812 55.433594 41.132812 54.851562 C 41.132812 54.269531 41.605469 53.796875 42.1875 53.796875 L 55.894531 53.796875 C 56.480469 53.796875 56.949219 54.269531 56.949219 54.851562 C 56.949219 55.433594 56.480469 55.90625 55.894531 55.90625 Z M 55.894531 55.90625 " fill-opacity="1" fill-rule="nonzero"/><g clip-path="url(#id1)"><path fill="#5c5c5c" d="M 25.3125 67.511719 C 24.976562 67.511719 24.644531 67.351562 24.441406 67.054688 C 24.109375 66.574219 24.234375 65.917969 24.714844 65.585938 L 41.589844 53.980469 C 42.070312 53.652344 42.726562 53.773438 43.058594 54.253906 C 43.386719 54.734375 43.265625 55.390625 42.785156 55.722656 L 25.90625 67.324219 C 25.726562 67.449219 25.515625 67.511719 25.3125 67.511719 Z M 25.3125 67.511719 " fill-opacity="1" fill-rule="nonzero"/></g><path fill="#5c5c5c" d="M 5.273438 65.402344 L 1.058594 65.402344 C 0.472656 65.402344 0.00390625 64.929688 0.00390625 64.347656 C 0.00390625 63.761719 0.472656 63.292969 1.058594 63.292969 L 5.273438 63.292969 C 5.855469 63.292969 6.328125 63.761719 6.328125 64.347656 C 6.328125 64.929688 5.855469 65.402344 5.273438 65.402344 Z M 5.273438 65.402344 " fill-opacity="1" fill-rule="nonzero"/><path fill="#5c5c5c" d="M 5.277344 65.398438 C 4.691406 65.398438 4.222656 64.925781 4.222656 64.34375 C 4.222656 60.855469 7.058594 58.019531 10.546875 58.019531 C 11.128906 58.019531 11.601562 58.488281 11.601562 59.074219 C 11.601562 59.65625 11.128906 60.128906 10.546875 60.128906 C 8.222656 60.128906 6.332031 62.019531 6.332031 64.34375 C 6.332031 64.925781 5.859375 65.398438 5.277344 65.398438 Z M 5.277344 65.398438 " fill-opacity="1" fill-rule="nonzero"/><g clip-path="url(#id2)"><path fill="#5c5c5c" d="M 25.308594 67.511719 C 24.726562 67.511719 24.253906 67.039062 24.253906 66.457031 C 24.253906 62.964844 21.417969 60.128906 17.925781 60.128906 C 17.34375 60.128906 16.871094 59.65625 16.871094 59.074219 C 16.871094 58.488281 17.34375 58.019531 17.925781 58.019531 C 22.578125 58.019531 26.363281 61.804688 26.363281 66.457031 C 26.363281 67.039062 25.894531 67.511719 25.308594 67.511719 Z M 25.308594 67.511719 " fill-opacity="1" fill-rule="nonzero"/></g><path fill="#5c5c5c" d="M 17.925781 60.128906 L 10.546875 60.128906 C 9.964844 60.128906 9.492188 59.65625 9.492188 59.074219 C 9.492188 58.488281 9.964844 58.019531 10.546875 58.019531 L 17.925781 58.019531 C 18.511719 58.019531 18.980469 58.488281 18.980469 59.074219 C 18.980469 59.65625 18.511719 60.128906 17.925781 60.128906 Z M 17.925781 60.128906 " fill-opacity="1" fill-rule="nonzero"/><path fill="#5c5c5c" d="M 17.925781 60.128906 C 17.34375 60.128906 16.871094 59.65625 16.871094 59.074219 C 16.871094 55.003906 13.5625 51.691406 9.492188 51.691406 C 8.910156 51.691406 8.4375 51.222656 8.4375 50.636719 C 8.4375 50.054688 8.910156 49.582031 9.492188 49.582031 C 14.726562 49.582031 18.980469 53.839844 18.980469 59.074219 C 18.980469 59.65625 18.511719 60.128906 17.925781 60.128906 Z M 17.925781 60.128906 " fill-opacity="1" fill-rule="nonzero"/><path fill="#5c5c5c" d="M 6.332031 51.683594 C 2.839844 51.683594 0.00390625 48.847656 0.00390625 45.355469 C 0.00390625 44.773438 0.472656 44.300781 1.058594 44.300781 C 1.640625 44.300781 2.113281 44.773438 2.113281 45.355469 C 2.113281 47.683594 4.003906 49.574219 6.332031 49.574219 C 6.914062 49.574219 7.386719 50.046875 7.386719 50.628906 C 7.386719 51.210938 6.914062 51.683594 6.332031 51.683594 Z M 6.332031 51.683594 " fill-opacity="1" fill-rule="nonzero"/><path fill="#5c5c5c" d="M 9.492188 51.691406 L 6.332031 51.691406 C 5.746094 51.691406 5.277344 51.222656 5.277344 50.636719 C 5.277344 50.054688 5.746094 49.582031 6.332031 49.582031 L 9.492188 49.582031 C 10.074219 49.582031 10.546875 50.054688 10.546875 50.636719 C 10.546875 51.222656 10.074219 51.691406 9.492188 51.691406 Z M 9.492188 51.691406 " fill-opacity="1" fill-rule="nonzero"/><path fill="#5c5c5c" d="M 31.453125 63.289062 C 31.125 63.289062 30.800781 63.132812 30.597656 62.847656 L 28.859375 60.425781 C 28.519531 59.953125 28.628906 59.296875 29.101562 58.953125 C 29.574219 58.613281 30.234375 58.722656 30.574219 59.195312 L 32.308594 61.617188 C 32.648438 62.089844 32.542969 62.75 32.070312 63.089844 C 31.882812 63.222656 31.667969 63.289062 31.453125 63.289062 Z M 31.453125 63.289062 " fill-opacity="1" fill-rule="nonzero"/><path fill="#5c5c5c" d="M 34.929688 60.898438 C 34.601562 60.898438 34.28125 60.746094 34.074219 60.457031 L 32.289062 57.96875 C 31.949219 57.496094 32.054688 56.839844 32.53125 56.496094 C 33.003906 56.15625 33.660156 56.265625 34.003906 56.738281 L 35.789062 59.226562 C 36.128906 59.699219 36.019531 60.359375 35.546875 60.699219 C 35.359375 60.835938 35.144531 60.898438 34.929688 60.898438 Z M 34.929688 60.898438 " fill-opacity="1" fill-rule="nonzero"/><path fill="#5c5c5c" d="M 38.410156 58.507812 C 38.078125 58.507812 37.757812 58.355469 37.550781 58.066406 L 35.71875 55.511719 C 35.378906 55.035156 35.488281 54.378906 35.960938 54.039062 C 36.433594 53.699219 37.09375 53.808594 37.433594 54.28125 L 39.265625 56.835938 C 39.605469 57.308594 39.496094 57.96875 39.023438 58.308594 C 38.835938 58.441406 38.621094 58.507812 38.410156 58.507812 Z M 38.410156 58.507812 " fill-opacity="1" fill-rule="nonzero"/><path fill="#5c5c5c" d="M 41.886719 56.117188 C 41.558594 56.117188 41.234375 55.960938 41.027344 55.675781 L 39.144531 53.046875 C 38.804688 52.574219 38.914062 51.914062 39.386719 51.578125 C 39.859375 51.234375 40.519531 51.347656 40.859375 51.820312 L 42.742188 54.445312 C 43.082031 54.917969 42.972656 55.578125 42.5 55.917969 C 42.3125 56.050781 42.097656 56.117188 41.886719 56.117188 Z M 41.886719 56.117188 " fill-opacity="1" fill-rule="nonzero"/><path fill="#5c5c5c" d="M 13.714844 36.914062 C 13.132812 36.914062 12.660156 36.441406 12.660156 35.859375 L 12.660156 27.433594 C 12.660156 26.851562 13.132812 26.378906 13.714844 26.378906 C 14.296875 26.378906 14.769531 26.851562 14.769531 27.433594 L 14.769531 35.859375 C 14.769531 36.441406 14.296875 36.914062 13.714844 36.914062 Z M 13.714844 36.914062 " fill-opacity="1" fill-rule="nonzero"/><path fill="#5c5c5c" d="M 14.777344 28.488281 L 12.65625 28.488281 C 12.074219 28.488281 11.601562 28.015625 11.601562 27.433594 C 11.601562 26.851562 12.074219 26.378906 12.65625 26.378906 L 14.777344 26.378906 C 15.359375 26.378906 15.832031 26.851562 15.832031 27.433594 C 15.832031 28.015625 15.359375 28.488281 14.777344 28.488281 Z M 14.777344 28.488281 " fill-opacity="1" fill-rule="nonzero"/><path fill="#5c5c5c" d="M 17.9375 25.304688 L 9.496094 25.304688 C 8.914062 25.304688 8.441406 24.832031 8.441406 24.25 L 8.441406 20.03125 C 8.441406 19.449219 8.914062 18.976562 9.496094 18.976562 L 17.9375 18.976562 C 18.519531 18.976562 18.992188 19.449219 18.992188 20.03125 L 18.992188 24.25 C 18.992188 24.832031 18.519531 25.304688 17.9375 25.304688 Z M 10.550781 23.195312 L 16.882812 23.195312 L 16.882812 21.085938 L 10.550781 21.085938 Z M 10.550781 23.195312 " fill-opacity="1" fill-rule="nonzero"/><path fill="#5c5c5c" d="M 11.605469 21.085938 C 11.023438 21.085938 10.550781 20.613281 10.550781 20.03125 L 10.550781 16.871094 C 10.550781 16.289062 11.023438 15.816406 11.605469 15.816406 C 12.1875 15.816406 12.660156 16.289062 12.660156 16.871094 L 12.660156 20.03125 C 12.660156 20.613281 12.1875 21.085938 11.605469 21.085938 Z M 11.605469 21.085938 " fill-opacity="1" fill-rule="nonzero"/><path fill="#5c5c5c" d="M 15.824219 21.085938 C 15.242188 21.085938 14.769531 20.613281 14.769531 20.03125 L 14.769531 16.871094 C 14.769531 16.289062 15.242188 15.816406 15.824219 15.816406 C 16.40625 15.816406 16.878906 16.289062 16.878906 16.871094 L 16.878906 20.03125 C 16.878906 20.613281 16.40625 21.085938 15.824219 21.085938 Z M 15.824219 21.085938 " fill-opacity="1" fill-rule="nonzero"/><path fill="#5c5c5c" d="M 11.605469 9.480469 C 11.023438 9.480469 10.550781 9.007812 10.550781 8.425781 L 10.550781 5.261719 C 10.550781 4.679688 11.023438 4.207031 11.605469 4.207031 C 12.1875 4.207031 12.660156 4.679688 12.660156 5.261719 L 12.660156 8.425781 C 12.660156 9.007812 12.1875 9.480469 11.605469 9.480469 Z M 11.605469 9.480469 " fill-opacity="1" fill-rule="nonzero"/><path fill="#5c5c5c" d="M 15.824219 9.480469 C 15.242188 9.480469 14.769531 9.007812 14.769531 8.425781 L 14.769531 1.042969 C 14.769531 0.460938 15.242188 -0.0117188 15.824219 -0.0117188 C 16.40625 -0.0117188 16.878906 0.460938 16.878906 1.042969 L 16.878906 8.425781 C 16.878906 9.007812 16.40625 9.480469 15.824219 9.480469 Z M 15.824219 9.480469 " fill-opacity="1" fill-rule="nonzero"/><path fill="#5c5c5c" d="M 11.605469 17.925781 C 8.699219 17.925781 6.332031 15.558594 6.332031 12.652344 C 6.332031 9.742188 8.699219 7.378906 11.605469 7.378906 C 12.1875 7.378906 12.660156 7.851562 12.660156 8.433594 C 12.660156 9.015625 12.1875 9.488281 11.605469 9.488281 C 9.859375 9.488281 8.441406 10.90625 8.441406 12.652344 C 8.441406 14.394531 9.859375 15.816406 11.605469 15.816406 C 12.1875 15.816406 12.660156 16.289062 12.660156 16.871094 C 12.660156 17.453125 12.1875 17.925781 11.605469 17.925781 Z M 11.605469 17.925781 " fill-opacity="1" fill-rule="nonzero"/><path fill="#5c5c5c" d="M 22.15625 17.925781 L 11.605469 17.925781 C 11.023438 17.925781 10.550781 17.453125 10.550781 16.871094 C 10.550781 16.289062 11.023438 15.816406 11.605469 15.816406 L 22.15625 15.816406 C 22.738281 15.816406 23.210938 16.289062 23.210938 16.871094 C 23.210938 17.453125 22.738281 17.925781 22.15625 17.925781 Z M 22.15625 17.925781 " fill-opacity="1" fill-rule="nonzero"/><path fill="#5c5c5c" d="M 22.15625 17.925781 C 21.570312 17.925781 21.101562 17.453125 21.101562 16.871094 L 21.101562 8.429688 C 21.101562 7.847656 21.570312 7.375 22.15625 7.375 C 22.738281 7.375 23.210938 7.847656 23.210938 8.429688 L 23.210938 16.871094 C 23.210938 17.453125 22.738281 17.925781 22.15625 17.925781 Z M 22.15625 17.925781 " fill-opacity="1" fill-rule="nonzero"/><path fill="#5c5c5c" d="M 22.15625 9.484375 L 11.605469 9.484375 C 11.023438 9.484375 10.550781 9.011719 10.550781 8.429688 C 10.550781 7.847656 11.023438 7.375 11.605469 7.375 L 22.15625 7.375 C 22.738281 7.375 23.210938 7.847656 23.210938 8.429688 C 23.210938 9.011719 22.738281 9.484375 22.15625 9.484375 Z M 22.15625 9.484375 " fill-opacity="1" fill-rule="nonzero"/><path fill="#5c5c5c" d="M 11.605469 6.316406 C 11.023438 6.316406 10.550781 5.84375 10.550781 5.261719 C 10.550781 2.355469 12.917969 -0.0117188 15.824219 -0.0117188 C 16.40625 -0.0117188 16.878906 0.460938 16.878906 1.042969 C 16.878906 1.625 16.40625 2.097656 15.824219 2.097656 C 14.078125 2.097656 12.660156 3.519531 12.660156 5.261719 C 12.660156 5.84375 12.1875 6.316406 11.605469 6.316406 Z M 11.605469 6.316406 " fill-opacity="1" fill-rule="nonzero"/><g clip-path="url(#id3)"><path fill="#5c5c5c" d="M 66.445312 16.886719 L 22.15625 16.886719 C 21.570312 16.886719 21.101562 16.414062 21.101562 15.832031 L 21.101562 9.503906 C 21.101562 8.921875 21.570312 8.449219 22.15625 8.449219 L 66.445312 8.449219 C 67.027344 8.449219 67.5 8.921875 67.5 9.503906 L 67.5 15.832031 C 67.5 16.414062 67.027344 16.886719 66.445312 16.886719 Z M 23.210938 14.777344 L 65.390625 14.777344 L 65.390625 10.558594 L 23.210938 10.558594 Z M 23.210938 14.777344 " fill-opacity="1" fill-rule="nonzero"/></g></svg>