<svg xmlns="http://www.w3.org/2000/svg" xmlns:xlink="http://www.w3.org/1999/xlink" width="90" zoomAndPan="magnify" viewBox="0 0 67.5 67.499996" height="90" preserveAspectRatio="xMidYMid meet" version="1.0"><defs><clipPath id="id1"><path d="M 5.214844 4 L 62.214844 4 L 62.214844 67.003906 L 5.214844 67.003906 Z M 5.214844 4 " clip-rule="nonzero"/></clipPath></defs><path fill="#231f20" d="M 16.75 26.035156 C 16.601562 26.035156 16.457031 26.066406 16.320312 26.121094 C 16.179688 26.179688 16.058594 26.261719 15.953125 26.367188 C 15.847656 26.472656 15.765625 26.59375 15.707031 26.734375 C 15.652344 26.871094 15.621094 27.015625 15.621094 27.164062 L 15.621094 28.070312 C 15.640625 28.367188 15.757812 28.617188 15.976562 28.824219 C 16.191406 29.027344 16.449219 29.128906 16.746094 29.128906 C 17.046875 29.128906 17.304688 29.027344 17.519531 28.824219 C 17.738281 28.617188 17.855469 28.367188 17.875 28.070312 L 17.875 27.164062 C 17.875 27.015625 17.847656 26.871094 17.789062 26.734375 C 17.730469 26.59375 17.652344 26.472656 17.546875 26.367188 C 17.441406 26.261719 17.320312 26.179688 17.179688 26.121094 C 17.042969 26.066406 16.898438 26.035156 16.75 26.035156 Z M 16.75 26.035156 " fill-opacity="1" fill-rule="nonzero"/><path fill="#231f20" d="M 22.339844 2.265625 L 24.015625 2.878906 C 24.140625 2.921875 24.269531 2.945312 24.398438 2.945312 C 24.671875 2.941406 24.910156 2.851562 25.117188 2.675781 C 25.324219 2.503906 25.453125 2.28125 25.5 2.011719 C 25.546875 1.746094 25.503906 1.492188 25.367188 1.257812 C 25.234375 1.019531 25.039062 0.855469 24.785156 0.761719 L 23.109375 0.148438 C 22.964844 0.0859375 22.816406 0.0585938 22.660156 0.0585938 C 22.507812 0.0585938 22.359375 0.0898438 22.214844 0.152344 C 22.074219 0.210938 21.949219 0.300781 21.84375 0.414062 C 21.738281 0.527344 21.65625 0.65625 21.605469 0.800781 C 21.550781 0.945312 21.53125 1.097656 21.539062 1.25 C 21.546875 1.40625 21.585938 1.554688 21.65625 1.691406 C 21.726562 1.832031 21.820312 1.949219 21.941406 2.050781 C 22.058594 2.148438 22.191406 2.21875 22.339844 2.265625 Z M 22.339844 2.265625 " fill-opacity="1" fill-rule="nonzero"/><path fill="#231f20" d="M 16.75 24.691406 C 16.898438 24.691406 17.042969 24.664062 17.183594 24.605469 C 17.320312 24.546875 17.441406 24.464844 17.546875 24.359375 C 17.652344 24.25 17.734375 24.128906 17.792969 23.988281 C 17.847656 23.851562 17.875 23.707031 17.875 23.554688 L 17.875 22.660156 C 17.855469 22.359375 17.738281 22.109375 17.519531 21.90625 C 17.304688 21.703125 17.046875 21.597656 16.746094 21.597656 C 16.449219 21.597656 16.191406 21.703125 15.976562 21.90625 C 15.757812 22.109375 15.640625 22.359375 15.621094 22.660156 L 15.621094 23.554688 C 15.621094 23.707031 15.648438 23.851562 15.707031 23.988281 C 15.761719 24.128906 15.84375 24.25 15.949219 24.359375 C 16.054688 24.464844 16.179688 24.546875 16.316406 24.605469 C 16.457031 24.664062 16.601562 24.691406 16.75 24.691406 Z M 16.75 24.691406 " fill-opacity="1" fill-rule="nonzero"/><path fill="#231f20" d="M 22.722656 11.785156 L 24.539062 11.785156 C 24.835938 11.765625 25.085938 11.648438 25.289062 11.433594 C 25.492188 11.214844 25.597656 10.957031 25.597656 10.660156 C 25.597656 10.359375 25.492188 10.105469 25.289062 9.886719 C 25.085938 9.667969 24.835938 9.550781 24.539062 9.535156 L 22.734375 9.535156 C 22.4375 9.550781 22.1875 9.667969 21.984375 9.886719 C 21.777344 10.105469 21.675781 10.359375 21.675781 10.660156 C 21.675781 10.957031 21.777344 11.214844 21.984375 11.433594 C 22.1875 11.648438 22.4375 11.765625 22.734375 11.785156 Z M 22.722656 11.785156 " fill-opacity="1" fill-rule="nonzero"/><path fill="#231f20" d="M 17.414062 25.367188 C 17.414062 25.515625 17.441406 25.660156 17.5 25.796875 C 17.558594 25.9375 17.640625 26.058594 17.746094 26.164062 C 17.851562 26.269531 17.976562 26.351562 18.113281 26.40625 C 18.253906 26.464844 18.398438 26.492188 18.546875 26.488281 L 19.453125 26.488281 C 19.609375 26.5 19.757812 26.476562 19.90625 26.425781 C 20.050781 26.371094 20.179688 26.292969 20.292969 26.183594 C 20.40625 26.078125 20.496094 25.953125 20.558594 25.8125 C 20.617188 25.667969 20.648438 25.519531 20.648438 25.363281 C 20.648438 25.207031 20.617188 25.058594 20.558594 24.917969 C 20.496094 24.773438 20.40625 24.648438 20.292969 24.542969 C 20.179688 24.4375 20.050781 24.355469 19.90625 24.304688 C 19.757812 24.25 19.609375 24.230469 19.453125 24.238281 L 18.546875 24.238281 C 18.398438 24.238281 18.253906 24.265625 18.113281 24.320312 C 17.976562 24.378906 17.851562 24.460938 17.746094 24.566406 C 17.640625 24.671875 17.554688 24.792969 17.5 24.933594 C 17.441406 25.070312 17.414062 25.214844 17.414062 25.367188 Z M 17.414062 25.367188 " fill-opacity="1" fill-rule="nonzero"/><path fill="#231f20" d="M 14.058594 26.488281 L 14.964844 26.488281 C 15.121094 26.5 15.269531 26.476562 15.417969 26.425781 C 15.5625 26.371094 15.691406 26.292969 15.804688 26.183594 C 15.917969 26.078125 16.007812 25.953125 16.066406 25.8125 C 16.128906 25.667969 16.160156 25.519531 16.160156 25.363281 C 16.160156 25.207031 16.128906 25.058594 16.066406 24.917969 C 16.007812 24.773438 15.917969 24.648438 15.804688 24.542969 C 15.691406 24.4375 15.5625 24.355469 15.417969 24.304688 C 15.269531 24.25 15.121094 24.230469 14.964844 24.238281 L 14.058594 24.238281 C 13.902344 24.230469 13.753906 24.25 13.605469 24.304688 C 13.460938 24.355469 13.332031 24.4375 13.21875 24.542969 C 13.105469 24.648438 13.015625 24.773438 12.957031 24.917969 C 12.894531 25.058594 12.863281 25.207031 12.863281 25.363281 C 12.863281 25.519531 12.894531 25.667969 12.957031 25.8125 C 13.015625 25.953125 13.105469 26.078125 13.21875 26.183594 C 13.332031 26.292969 13.460938 26.371094 13.605469 26.425781 C 13.753906 26.476562 13.902344 26.5 14.058594 26.488281 Z M 14.058594 26.488281 " fill-opacity="1" fill-rule="nonzero"/><g clip-path="url(#id1)"><path fill="#231f20" d="M 61.175781 65.160156 L 58.90625 65.160156 C 59.699219 64.136719 60.09375 62.972656 60.09375 61.675781 L 60.09375 22.757812 C 60.097656 22.609375 60.066406 22.464844 60.011719 22.328125 C 59.953125 22.191406 59.875 22.066406 59.769531 21.960938 C 59.664062 21.855469 59.539062 21.773438 59.402344 21.71875 C 59.265625 21.660156 59.121094 21.632812 58.972656 21.632812 L 56.84375 21.632812 L 56.84375 19.410156 C 56.84375 18.980469 56.757812 18.566406 56.59375 18.171875 C 56.429688 17.773438 56.195312 17.425781 55.890625 17.121094 C 55.589844 16.816406 55.238281 16.585938 54.84375 16.417969 C 54.445312 16.253906 54.03125 16.171875 53.601562 16.171875 L 51.457031 16.171875 L 51.457031 12.628906 C 51.894531 12.386719 52.238281 12.050781 52.492188 11.621094 C 52.75 11.191406 52.875 10.726562 52.878906 10.230469 L 52.878906 7.476562 C 52.878906 7.109375 52.804688 6.753906 52.664062 6.417969 C 52.523438 6.078125 52.324219 5.777344 52.0625 5.519531 C 51.804688 5.261719 51.503906 5.058594 51.164062 4.921875 C 50.824219 4.78125 50.46875 4.710938 50.101562 4.714844 L 44.234375 4.714844 C 43.871094 4.714844 43.519531 4.785156 43.179688 4.925781 C 42.84375 5.066406 42.542969 5.265625 42.285156 5.523438 C 42.027344 5.78125 41.828125 6.082031 41.6875 6.417969 C 41.546875 6.757812 41.476562 7.109375 41.476562 7.476562 L 41.476562 10.230469 C 41.480469 10.726562 41.605469 11.191406 41.859375 11.621094 C 42.113281 12.050781 42.457031 12.386719 42.894531 12.628906 L 42.894531 16.171875 L 40.753906 16.171875 C 40.324219 16.175781 39.914062 16.257812 39.519531 16.425781 C 39.125 16.589844 38.777344 16.824219 38.472656 17.128906 C 38.171875 17.429688 37.941406 17.78125 37.777344 18.175781 C 37.613281 18.570312 37.53125 18.980469 37.53125 19.410156 L 37.53125 21.632812 L 35.382812 21.632812 C 35.234375 21.628906 35.089844 21.660156 34.953125 21.714844 C 34.8125 21.773438 34.691406 21.855469 34.585938 21.960938 C 34.480469 22.066406 34.398438 22.1875 34.339844 22.328125 C 34.285156 22.464844 34.257812 22.609375 34.257812 22.757812 L 34.257812 23.25 C 34.046875 23.097656 33.820312 22.972656 33.578125 22.878906 C 33.195312 22.730469 32.796875 22.652344 32.382812 22.652344 C 32.050781 22.652344 31.726562 22.703125 31.40625 22.800781 C 31.089844 22.898438 30.792969 23.039062 30.515625 23.226562 C 30.242188 23.414062 30 23.636719 29.789062 23.898438 C 29.582031 24.15625 29.417969 24.441406 29.292969 24.75 L 20.796875 46.6875 L 20.304688 46.492188 C 20.167969 46.441406 20.03125 46.417969 19.886719 46.417969 C 19.652344 46.417969 19.441406 46.484375 19.25 46.613281 C 19.058594 46.746094 18.921875 46.917969 18.835938 47.132812 L 18.78125 47.273438 C 17.785156 46.84375 16.917969 46.226562 16.1875 45.421875 C 15.457031 44.617188 14.921875 43.699219 14.589844 42.660156 C 14.515625 42.4375 14.382812 42.253906 14.191406 42.113281 C 14 41.96875 13.785156 41.898438 13.546875 41.890625 L 13.496094 41.890625 C 13.269531 41.894531 13.0625 41.960938 12.878906 42.09375 C 12.691406 42.222656 12.558594 42.394531 12.476562 42.605469 L 5.351562 61.003906 C 5.285156 61.175781 5.261719 61.355469 5.28125 61.539062 C 5.300781 61.722656 5.363281 61.890625 5.46875 62.042969 C 5.570312 62.195312 5.703125 62.316406 5.863281 62.402344 C 6.027344 62.492188 6.199219 62.535156 6.386719 62.539062 C 6.578125 62.539062 6.761719 62.488281 6.929688 62.398438 C 8.082031 61.738281 9.324219 61.40625 10.652344 61.402344 C 11.515625 61.402344 12.351562 61.542969 13.167969 61.824219 C 12.769531 62.871094 12.796875 63.910156 13.25 64.9375 C 13.285156 65.011719 13.335938 65.078125 13.371094 65.15625 L 7.222656 65.15625 C 7.066406 65.144531 6.917969 65.167969 6.769531 65.21875 C 6.625 65.273438 6.496094 65.351562 6.382812 65.460938 C 6.269531 65.566406 6.179688 65.691406 6.121094 65.832031 C 6.058594 65.976562 6.027344 66.125 6.027344 66.28125 C 6.027344 66.4375 6.058594 66.585938 6.121094 66.726562 C 6.179688 66.871094 6.269531 66.996094 6.382812 67.101562 C 6.496094 67.207031 6.625 67.289062 6.769531 67.339844 C 6.917969 67.394531 7.066406 67.414062 7.222656 67.40625 L 61.175781 67.40625 C 61.472656 67.386719 61.726562 67.269531 61.929688 67.054688 C 62.132812 66.835938 62.234375 66.578125 62.234375 66.28125 C 62.234375 65.984375 62.132812 65.726562 61.929688 65.507812 C 61.726562 65.292969 61.472656 65.171875 61.175781 65.15625 Z M 49.203125 12.992188 L 49.203125 16.171875 L 45.144531 16.171875 L 45.144531 12.992188 Z M 43.730469 10.230469 L 43.730469 7.476562 C 43.730469 7.335938 43.777344 7.214844 43.875 7.117188 C 43.976562 7.015625 44.09375 6.964844 44.234375 6.964844 L 50.101562 6.964844 C 50.246094 6.964844 50.363281 7.015625 50.464844 7.113281 C 50.566406 7.214844 50.613281 7.335938 50.613281 7.476562 L 50.613281 10.230469 C 50.613281 10.371094 50.566406 10.492188 50.464844 10.589844 C 50.363281 10.691406 50.246094 10.742188 50.101562 10.742188 L 44.234375 10.742188 C 44.09375 10.738281 43.976562 10.6875 43.875 10.589844 C 43.777344 10.488281 43.730469 10.371094 43.730469 10.230469 Z M 39.765625 21.632812 L 39.765625 19.410156 C 39.765625 19.136719 39.863281 18.90625 40.054688 18.714844 C 40.246094 18.519531 40.480469 18.425781 40.753906 18.425781 L 53.597656 18.425781 C 53.730469 18.425781 53.855469 18.449219 53.976562 18.5 C 54.097656 18.550781 54.203125 18.621094 54.296875 18.714844 C 54.386719 18.804688 54.457031 18.910156 54.507812 19.03125 C 54.558594 19.152344 54.582031 19.277344 54.582031 19.410156 L 54.582031 21.632812 Z M 10.636719 59.144531 C 9.867188 59.144531 9.105469 59.238281 8.359375 59.421875 L 9.691406 55.980469 C 9.796875 55.980469 9.910156 55.980469 10.035156 55.980469 C 10.484375 55.980469 10.921875 56.042969 11.351562 56.167969 C 11.527344 56.214844 11.703125 56.273438 11.871094 56.34375 C 12.003906 56.402344 12.144531 56.429688 12.289062 56.429688 C 12.558594 56.429688 12.800781 56.34375 13.007812 56.171875 C 13.214844 56 13.347656 55.78125 13.398438 55.519531 C 13.449219 55.253906 13.410156 55.003906 13.28125 54.765625 C 13.152344 54.527344 12.960938 54.359375 12.710938 54.261719 C 12.023438 53.972656 11.304688 53.800781 10.5625 53.738281 L 13.640625 45.808594 C 14.734375 47.429688 16.183594 48.617188 17.988281 49.367188 L 13.976562 59.726562 C 12.894531 59.339844 11.78125 59.148438 10.636719 59.144531 Z M 20.695312 65.160156 C 20.761719 65.03125 20.828125 64.898438 20.882812 64.765625 L 34.257812 30.261719 L 34.257812 61.660156 C 34.25 62.960938 34.644531 64.125 35.433594 65.160156 Z M 20.535156 49 L 21.023438 49.1875 C 21.160156 49.242188 21.300781 49.265625 21.445312 49.265625 C 21.675781 49.265625 21.890625 49.199219 22.082031 49.066406 C 22.273438 48.9375 22.410156 48.765625 22.496094 48.546875 L 31.394531 25.582031 C 31.472656 25.375 31.605469 25.214844 31.785156 25.089844 C 31.964844 24.964844 32.164062 24.90625 32.382812 24.90625 C 32.515625 24.90625 32.640625 24.929688 32.765625 24.976562 C 32.894531 25.027344 33.011719 25.101562 33.113281 25.199219 C 33.214844 25.296875 33.292969 25.410156 33.347656 25.535156 C 33.40625 25.664062 33.4375 25.800781 33.4375 25.941406 C 33.441406 26.082031 33.417969 26.214844 33.367188 26.347656 L 18.792969 63.953125 C 18.722656 64.136719 18.625 64.304688 18.5 64.457031 C 18.121094 64.921875 17.632812 65.15625 17.03125 65.160156 C 16.796875 65.160156 16.570312 65.117188 16.351562 65.03125 C 16.117188 64.9375 15.910156 64.808594 15.730469 64.636719 C 15.550781 64.460938 15.410156 64.261719 15.308594 64.03125 C 15.207031 63.804688 15.152344 63.566406 15.148438 63.316406 C 15.140625 63.066406 15.183594 62.824219 15.273438 62.589844 Z M 36.507812 35.972656 C 38.742188 37.289062 40.277344 40.421875 40.277344 43.9375 C 40.277344 47.449219 38.730469 50.589844 36.507812 51.902344 Z M 42.546875 43.9375 C 42.546875 39.023438 40.03125 34.8125 36.507812 33.496094 L 36.507812 29.804688 L 47.304688 29.804688 L 47.304688 57.1875 L 36.507812 57.1875 L 36.507812 54.378906 C 40.042969 53.066406 42.558594 48.847656 42.558594 43.9375 Z M 49.554688 58.3125 L 49.554688 28.683594 C 49.554688 28.53125 49.527344 28.386719 49.46875 28.25 C 49.414062 28.113281 49.332031 27.988281 49.226562 27.882812 C 49.121094 27.777344 48.996094 27.695312 48.859375 27.640625 C 48.71875 27.582031 48.578125 27.554688 48.425781 27.554688 L 36.507812 27.554688 L 36.507812 23.882812 L 57.839844 23.882812 L 57.839844 61.675781 C 57.839844 62.136719 57.75 62.582031 57.574219 63.007812 C 57.398438 63.433594 57.144531 63.8125 56.820312 64.136719 C 56.492188 64.464844 56.117188 64.714844 55.691406 64.894531 C 55.261719 65.070312 54.820312 65.160156 54.359375 65.160156 L 39.988281 65.160156 C 39.527344 65.160156 39.085938 65.070312 38.65625 64.894531 C 38.230469 64.714844 37.855469 64.464844 37.527344 64.136719 C 37.203125 63.8125 36.949219 63.433594 36.773438 63.007812 C 36.597656 62.582031 36.507812 62.136719 36.507812 61.675781 L 36.507812 59.4375 L 48.425781 59.4375 C 48.578125 59.4375 48.71875 59.410156 48.859375 59.351562 C 48.996094 59.296875 49.117188 59.214844 49.222656 59.109375 C 49.328125 59.003906 49.410156 58.882812 49.46875 58.746094 C 49.527344 58.605469 49.554688 58.464844 49.554688 58.3125 Z M 49.554688 58.3125 " fill-opacity="1" fill-rule="nonzero"/></g><path fill="#231f20" d="M 27.910156 4.273438 L 29.847656 4.972656 C 29.96875 5.019531 30.097656 5.039062 30.230469 5.039062 C 30.503906 5.042969 30.746094 4.957031 30.957031 4.78125 C 31.167969 4.605469 31.300781 4.382812 31.347656 4.109375 C 31.394531 3.839844 31.347656 3.585938 31.207031 3.347656 C 31.070312 3.109375 30.871094 2.945312 30.609375 2.855469 L 28.675781 2.175781 C 28.558594 2.128906 28.4375 2.101562 28.308594 2.09375 C 28.035156 2.089844 27.792969 2.175781 27.578125 2.347656 C 27.367188 2.523438 27.238281 2.746094 27.1875 3.015625 C 27.140625 3.285156 27.183594 3.539062 27.320312 3.777344 C 27.457031 4.015625 27.652344 4.179688 27.910156 4.273438 Z M 27.910156 4.273438 " fill-opacity="1" fill-rule="nonzero"/><path fill="#231f20" d="M 33.722656 6.367188 L 35.402344 6.980469 C 35.523438 7.027344 35.652344 7.046875 35.78125 7.046875 C 36.054688 7.042969 36.292969 6.957031 36.5 6.78125 C 36.707031 6.605469 36.832031 6.382812 36.878906 6.113281 C 36.925781 5.847656 36.882812 5.59375 36.746094 5.359375 C 36.613281 5.125 36.417969 4.957031 36.164062 4.863281 L 34.488281 4.253906 C 34.363281 4.207031 34.238281 4.1875 34.105469 4.183594 C 33.832031 4.183594 33.585938 4.269531 33.375 4.445312 C 33.164062 4.621094 33.035156 4.84375 32.988281 5.113281 C 32.941406 5.386719 32.988281 5.640625 33.125 5.878906 C 33.265625 6.113281 33.464844 6.277344 33.722656 6.367188 Z M 33.722656 6.367188 " fill-opacity="1" fill-rule="nonzero"/><path fill="#231f20" d="M 30.207031 9.535156 L 28.308594 9.535156 C 28.011719 9.550781 27.761719 9.667969 27.558594 9.886719 C 27.351562 10.105469 27.25 10.359375 27.25 10.660156 C 27.25 10.957031 27.351562 11.214844 27.558594 11.433594 C 27.761719 11.648438 28.011719 11.765625 28.308594 11.785156 L 30.203125 11.785156 C 30.359375 11.792969 30.507812 11.773438 30.65625 11.71875 C 30.800781 11.667969 30.933594 11.585938 31.046875 11.480469 C 31.15625 11.375 31.246094 11.25 31.308594 11.105469 C 31.367188 10.964844 31.398438 10.816406 31.398438 10.660156 C 31.398438 10.503906 31.367188 10.355469 31.308594 10.210938 C 31.246094 10.070312 31.15625 9.945312 31.046875 9.839844 C 30.933594 9.730469 30.800781 9.652344 30.65625 9.597656 C 30.507812 9.546875 30.359375 9.523438 30.203125 9.535156 Z M 30.207031 9.535156 " fill-opacity="1" fill-rule="nonzero"/><path fill="#231f20" d="M 33.996094 11.785156 L 35.800781 11.785156 C 36.097656 11.765625 36.347656 11.648438 36.550781 11.433594 C 36.753906 11.214844 36.859375 10.957031 36.859375 10.660156 C 36.859375 10.359375 36.753906 10.105469 36.550781 9.886719 C 36.347656 9.667969 36.097656 9.550781 35.800781 9.535156 L 33.996094 9.535156 C 33.699219 9.550781 33.449219 9.667969 33.246094 9.886719 C 33.039062 10.105469 32.9375 10.359375 32.9375 10.660156 C 32.9375 10.957031 33.039062 11.214844 33.246094 11.433594 C 33.449219 11.648438 33.699219 11.765625 33.996094 11.785156 Z M 33.996094 11.785156 " fill-opacity="1" fill-rule="nonzero"/></svg>