<svg xmlns="http://www.w3.org/2000/svg" xmlns:xlink="http://www.w3.org/1999/xlink" width="90" zoomAndPan="magnify" viewBox="0 0 67.5 67.499996" height="90" preserveAspectRatio="xMidYMid meet" version="1.0"><defs><clipPath id="id1"><path d="M 0 4.296875 L 51 4.296875 L 51 47 L 0 47 Z M 0 4.296875 " clip-rule="nonzero"/></clipPath><clipPath id="id2"><path d="M 0 23 L 67.003906 23 L 67.003906 60.546875 L 0 60.546875 Z M 0 23 " clip-rule="nonzero"/></clipPath></defs><g clip-path="url(#id1)"><path fill="#000000" d="M 4.066406 46.320312 C 5.09375 46.324219 5.964844 45.964844 6.691406 45.242188 L 26.742188 25.261719 L 27.367188 25.878906 C 27.46875 25.984375 27.585938 26.0625 27.722656 26.117188 C 27.855469 26.171875 27.996094 26.199219 28.140625 26.199219 C 28.289062 26.199219 28.425781 26.171875 28.5625 26.117188 C 28.695312 26.0625 28.816406 25.984375 28.917969 25.878906 L 29.21875 25.578125 C 30.195312 26.558594 30.914062 27.699219 31.375 29 C 31.832031 30.304688 31.992188 31.640625 31.847656 33.015625 C 31.832031 33.167969 31.847656 33.320312 31.894531 33.464844 C 31.945312 33.613281 32.019531 33.742188 32.125 33.855469 C 32.230469 33.972656 32.351562 34.058594 32.496094 34.121094 C 32.636719 34.183594 32.785156 34.210938 32.941406 34.210938 C 33.246094 34.210938 33.503906 34.105469 33.71875 33.890625 L 50.398438 17.28125 C 50.554688 17.125 50.65625 16.9375 50.699219 16.71875 C 50.742188 16.5 50.722656 16.289062 50.636719 16.085938 C 50.550781 15.882812 50.417969 15.71875 50.230469 15.597656 C 50.046875 15.472656 49.839844 15.414062 49.617188 15.414062 L 49.519531 15.414062 C 49.195312 15.445312 48.878906 15.460938 48.574219 15.460938 C 47.351562 15.464844 46.171875 15.234375 45.039062 14.773438 C 43.910156 14.308594 42.90625 13.652344 42.039062 12.792969 L 42.171875 12.660156 C 42.378906 12.441406 42.5625 12.203125 42.726562 11.949219 C 42.886719 11.695312 43.023438 11.425781 43.132812 11.148438 C 43.242188 10.867188 43.320312 10.578125 43.375 10.28125 C 43.429688 9.984375 43.453125 9.6875 43.449219 9.386719 C 43.445312 9.085938 43.414062 8.785156 43.351562 8.492188 C 43.289062 8.199219 43.199219 7.910156 43.082031 7.632812 C 42.964844 7.355469 42.820312 7.09375 42.652344 6.84375 C 42.484375 6.59375 42.292969 6.363281 42.082031 6.148438 C 41.867188 5.933594 41.636719 5.742188 41.386719 5.574219 C 41.136719 5.40625 40.871094 5.261719 40.59375 5.144531 C 40.316406 5.027344 40.03125 4.9375 39.734375 4.875 C 39.4375 4.808594 39.140625 4.777344 38.839844 4.769531 C 38.535156 4.765625 38.238281 4.789062 37.9375 4.839844 C 37.640625 4.894531 37.351562 4.972656 37.070312 5.082031 C 36.789062 5.1875 36.519531 5.324219 36.261719 5.480469 C 36.007812 5.640625 35.769531 5.824219 35.546875 6.03125 L 1.445312 40.011719 C 1.1875 40.269531 0.96875 40.558594 0.796875 40.882812 C 0.625 41.203125 0.5 41.546875 0.429688 41.902344 C 0.359375 42.261719 0.339844 42.621094 0.375 42.988281 C 0.414062 43.351562 0.5 43.699219 0.640625 44.039062 C 0.78125 44.375 0.96875 44.6875 1.199219 44.96875 C 1.433594 45.25 1.703125 45.496094 2.007812 45.699219 C 2.3125 45.898438 2.640625 46.054688 2.992188 46.160156 C 3.339844 46.265625 3.699219 46.320312 4.066406 46.320312 Z M 2.996094 41.558594 L 37.121094 7.574219 C 37.355469 7.34375 37.625 7.160156 37.933594 7.035156 C 38.238281 6.910156 38.558594 6.84375 38.890625 6.84375 C 39.222656 6.84375 39.542969 6.910156 39.847656 7.035156 C 40.15625 7.160156 40.425781 7.34375 40.660156 7.574219 C 40.894531 7.808594 41.078125 8.078125 41.203125 8.386719 C 41.332031 8.691406 41.394531 9.007812 41.394531 9.339844 C 41.394531 9.671875 41.332031 9.988281 41.203125 10.296875 C 41.078125 10.601562 40.894531 10.871094 40.660156 11.105469 L 28.132812 23.5625 L 27.507812 22.941406 C 27.40625 22.839844 27.289062 22.757812 27.152344 22.703125 C 27.019531 22.648438 26.878906 22.621094 26.734375 22.621094 C 26.585938 22.621094 26.445312 22.648438 26.3125 22.703125 C 26.179688 22.757812 26.058594 22.839844 25.957031 22.941406 L 5.125 43.699219 C 4.832031 43.988281 4.480469 44.136719 4.066406 44.144531 C 3.761719 44.140625 3.480469 44.058594 3.226562 43.886719 C 2.972656 43.71875 2.785156 43.492188 2.667969 43.210938 C 2.550781 42.929688 2.523438 42.636719 2.582031 42.339844 C 2.644531 42.039062 2.78125 41.78125 2.996094 41.566406 Z M 43.433594 21.097656 C 42.488281 20.789062 41.671875 20.277344 40.984375 19.558594 C 40.769531 19.335938 40.503906 19.226562 40.195312 19.226562 C 39.898438 19.222656 39.644531 19.328125 39.433594 19.535156 C 39.328125 19.636719 39.246094 19.753906 39.191406 19.886719 C 39.132812 20.019531 39.101562 20.15625 39.101562 20.300781 C 39.097656 20.449219 39.125 20.585938 39.175781 20.722656 C 39.230469 20.855469 39.304688 20.976562 39.40625 21.082031 C 40.09375 21.785156 40.878906 22.347656 41.769531 22.773438 L 33.984375 30.507812 C 33.8125 29.285156 33.453125 28.117188 32.902344 27.011719 C 32.355469 25.902344 31.640625 24.914062 30.769531 24.035156 L 40.507812 14.332031 C 41.390625 15.207031 42.394531 15.917969 43.511719 16.46875 C 44.628906 17.015625 45.804688 17.375 47.042969 17.539062 Z M 43.433594 21.097656 " fill-opacity="1" fill-rule="nonzero"/></g><g clip-path="url(#id2)"><path fill="#000000" d="M 66.40625 58.339844 L 63.160156 58.339844 C 63.761719 57.472656 64.066406 56.515625 64.066406 55.460938 L 64.066406 51.558594 C 64.828125 50.535156 65.402344 49.414062 65.785156 48.199219 C 66.167969 46.980469 66.335938 45.734375 66.296875 44.460938 C 66.296875 44.410156 66.296875 44.359375 66.296875 44.308594 C 66.296875 44.019531 66.265625 43.722656 66.234375 43.421875 C 66.203125 43.121094 66.15625 42.761719 66.097656 42.421875 C 66.097656 42.421875 66.097656 42.421875 66.097656 42.390625 C 65.609375 40 64.648438 37.8125 63.210938 35.832031 C 61.292969 33.058594 60.871094 29.617188 61.960938 25.605469 C 62.0625 25.238281 61.988281 24.910156 61.746094 24.617188 C 61.535156 24.355469 61.265625 24.222656 60.929688 24.210938 L 60.808594 24.210938 C 60.78125 24.210938 59.464844 24.316406 57.429688 24.316406 C 54.648438 24.324219 51.886719 24.121094 49.140625 23.703125 L 48.964844 23.703125 C 48.679688 23.707031 48.4375 23.804688 48.230469 24 C 48.023438 24.191406 47.910156 24.429688 47.886719 24.710938 C 47.863281 24.992188 47.941406 25.246094 48.113281 25.46875 C 48.289062 25.691406 48.515625 25.828125 48.792969 25.875 C 50.425781 26.132812 52.023438 26.28125 53.492188 26.390625 C 54.957031 26.503906 56.289062 26.519531 57.417969 26.519531 C 58.027344 26.519531 58.578125 26.519531 59.050781 26.519531 L 59.5 26.519531 C 58.683594 30.589844 59.339844 34.125 61.402344 37.101562 C 61.507812 37.25 61.589844 37.402344 61.691406 37.554688 C 60.765625 37.628906 59.851562 37.765625 58.945312 37.964844 C 58.039062 38.167969 57.148438 38.429688 56.28125 38.753906 C 55.410156 39.082031 54.566406 39.464844 53.75 39.90625 C 52.933594 40.347656 52.152344 40.84375 51.40625 41.394531 C 50.65625 41.941406 49.953125 42.542969 49.289062 43.191406 C 48.625 43.835938 48.011719 44.527344 47.445312 45.261719 C 46.878906 45.996094 46.363281 46.761719 45.90625 47.566406 C 45.445312 48.371094 45.042969 49.203125 44.699219 50.066406 L 44.59375 50.066406 C 41.90625 50.066406 34.929688 50.695312 27.796875 56.492188 C 26.59375 57.484375 25.21875 58.085938 23.667969 58.296875 C 23.691406 54.695312 22.800781 51.335938 20.996094 48.210938 L 26.089844 46.175781 C 29.765625 44.738281 32.816406 42.46875 35.242188 39.363281 C 36.273438 39.957031 37.390625 40.242188 38.582031 40.21875 C 39.457031 40.21875 40.3125 40.09375 41.152344 39.839844 C 41.289062 39.796875 41.414062 39.726562 41.523438 39.632812 C 41.632812 39.535156 41.722656 39.425781 41.789062 39.296875 C 41.855469 39.167969 41.890625 39.03125 41.902344 38.886719 C 41.914062 38.742188 41.898438 38.601562 41.851562 38.460938 C 41.804688 38.324219 41.738281 38.203125 41.640625 38.089844 C 41.546875 37.980469 41.433594 37.894531 41.304688 37.828125 C 41.175781 37.761719 41.039062 37.722656 40.894531 37.714844 C 40.75 37.703125 40.605469 37.71875 40.46875 37.765625 C 39.976562 37.90625 39.472656 37.992188 38.957031 38.019531 L 38.582031 38.019531 C 37.519531 38.074219 36.589844 37.75 35.796875 37.042969 C 35.773438 37.023438 35.746094 37.007812 35.71875 36.996094 C 35.695312 36.972656 35.683594 36.941406 35.652344 36.925781 C 35.617188 36.90625 35.574219 36.886719 35.535156 36.875 C 35.472656 36.839844 35.40625 36.808594 35.339844 36.789062 C 35.269531 36.769531 35.203125 36.753906 35.128906 36.75 L 34.925781 36.75 C 34.859375 36.761719 34.789062 36.773438 34.722656 36.792969 C 34.65625 36.8125 34.589844 36.835938 34.53125 36.871094 C 34.464844 36.902344 34.40625 36.941406 34.351562 36.988281 C 34.316406 37.015625 34.277344 37.027344 34.246094 37.058594 C 34.226562 37.085938 34.207031 37.113281 34.191406 37.140625 C 34.191406 37.167969 34.144531 37.179688 34.125 37.203125 C 33.023438 38.765625 31.714844 40.136719 30.210938 41.316406 C 28.703125 42.5 27.058594 43.441406 25.273438 44.144531 L 18.964844 46.636719 L 8.59375 50.730469 C 8.234375 50.875 7.898438 51.050781 7.578125 51.261719 C 7.257812 51.472656 6.964844 51.714844 6.695312 51.988281 C 6.425781 52.261719 6.183594 52.558594 5.976562 52.878906 C 5.769531 53.199219 5.597656 53.539062 5.460938 53.898438 C 5.320312 54.253906 5.222656 54.621094 5.160156 55 C 5.101562 55.378906 5.078125 55.757812 5.097656 56.140625 C 5.117188 56.523438 5.171875 56.898438 5.269531 57.269531 C 5.363281 57.640625 5.5 57.996094 5.667969 58.339844 L 1.457031 58.339844 C 1.304688 58.332031 1.160156 58.351562 1.015625 58.402344 C 0.875 58.453125 0.746094 58.53125 0.636719 58.636719 C 0.527344 58.738281 0.441406 58.859375 0.382812 58.996094 C 0.320312 59.136719 0.292969 59.28125 0.292969 59.433594 C 0.292969 59.582031 0.320312 59.726562 0.382812 59.867188 C 0.441406 60.003906 0.527344 60.125 0.636719 60.230469 C 0.746094 60.332031 0.875 60.410156 1.015625 60.460938 C 1.160156 60.511719 1.304688 60.535156 1.457031 60.523438 L 66.402344 60.523438 C 66.691406 60.507812 66.9375 60.394531 67.136719 60.183594 C 67.335938 59.972656 67.433594 59.722656 67.433594 59.433594 C 67.433594 59.144531 67.335938 58.894531 67.136719 58.683594 C 66.9375 58.472656 66.691406 58.355469 66.402344 58.339844 Z M 62.878906 39.664062 C 65.460938 45.164062 63.261719 48.960938 62.441406 50.085938 L 47.042969 50.085938 C 47.386719 49.328125 47.78125 48.597656 48.230469 47.894531 C 48.679688 47.191406 49.175781 46.523438 49.714844 45.890625 C 50.257812 45.257812 50.84375 44.667969 51.46875 44.117188 C 52.09375 43.566406 52.753906 43.058594 53.453125 42.601562 C 54.148438 42.144531 54.875 41.734375 55.628906 41.378906 C 56.382812 41.019531 57.160156 40.71875 57.957031 40.46875 C 58.753906 40.222656 59.566406 40.03125 60.390625 39.894531 C 61.210938 39.761719 62.042969 39.683594 62.878906 39.664062 Z M 46.730469 52.28125 L 61.871094 52.28125 L 61.871094 55.480469 C 61.871094 55.863281 61.796875 56.230469 61.652344 56.582031 C 61.503906 56.933594 61.296875 57.246094 61.027344 57.515625 C 60.753906 57.785156 60.441406 57.992188 60.089844 58.140625 C 59.734375 58.285156 59.367188 58.359375 58.984375 58.359375 L 49.613281 58.359375 C 49.230469 58.359375 48.863281 58.285156 48.511719 58.140625 C 48.15625 57.992188 47.84375 57.785156 47.574219 57.515625 C 47.304688 57.246094 47.097656 56.933594 46.949219 56.582031 C 46.804688 56.230469 46.730469 55.863281 46.730469 55.480469 Z M 44.539062 52.246094 L 44.539062 55.503906 C 44.535156 56.558594 44.839844 57.515625 45.445312 58.378906 L 28.949219 58.378906 C 29.027344 58.316406 29.113281 58.261719 29.191406 58.195312 C 35.71875 52.839844 42.148438 52.246094 44.539062 52.226562 Z M 8.332031 58.351562 C 8.125 58.15625 7.945312 57.941406 7.792969 57.703125 C 7.640625 57.464844 7.519531 57.210938 7.433594 56.941406 C 7.34375 56.671875 7.292969 56.394531 7.273438 56.113281 C 7.257812 55.832031 7.273438 55.550781 7.328125 55.273438 C 7.382812 54.996094 7.46875 54.726562 7.589844 54.472656 C 7.710938 54.214844 7.863281 53.976562 8.042969 53.761719 C 8.226562 53.542969 8.429688 53.351562 8.660156 53.183594 C 8.890625 53.019531 9.136719 52.882812 9.402344 52.78125 L 18.929688 49.011719 C 20.65625 51.886719 21.5 55 21.472656 58.351562 Z M 8.332031 58.351562 " fill-opacity="1" fill-rule="nonzero"/></g></svg>