<svg xmlns="http://www.w3.org/2000/svg" xmlns:xlink="http://www.w3.org/1999/xlink" width="90" zoomAndPan="magnify" viewBox="0 0 67.5 67.499996" height="90" preserveAspectRatio="xMidYMid meet" version="1.0"><defs><clipPath id="id1"><path d="M 39 20 L 62.25 20 L 62.25 57 L 39 57 Z M 39 20 " clip-rule="nonzero"/></clipPath><clipPath id="id2"><path d="M 6.75 0 L 59 0 L 59 67.003906 L 6.75 67.003906 Z M 6.75 0 " clip-rule="nonzero"/></clipPath></defs><path fill="#5c5c5c" d="M 33.410156 28.414062 C 33.484375 28.421875 33.558594 28.421875 33.636719 28.414062 L 35.429688 28.0625 C 35.714844 28 35.941406 27.851562 36.113281 27.617188 C 36.285156 27.382812 36.359375 27.121094 36.328125 26.832031 C 36.300781 26.546875 36.179688 26.300781 35.964844 26.105469 C 35.75 25.910156 35.496094 25.8125 35.203125 25.808594 C 35.128906 25.804688 35.054688 25.8125 34.980469 25.828125 L 33.1875 26.183594 C 32.898438 26.242188 32.667969 26.386719 32.492188 26.621094 C 32.316406 26.855469 32.242188 27.117188 32.269531 27.410156 C 32.300781 27.699219 32.421875 27.945312 32.640625 28.140625 C 32.859375 28.335938 33.113281 28.433594 33.410156 28.433594 Z M 33.410156 28.414062 " fill-opacity="1" fill-rule="nonzero"/><path fill="#5c5c5c" d="M 26.433594 27.519531 C 26.359375 27.511719 26.285156 27.511719 26.210938 27.519531 L 24.417969 27.875 C 24.132812 27.933594 23.902344 28.082031 23.730469 28.316406 C 23.558594 28.550781 23.488281 28.8125 23.515625 29.101562 C 23.542969 29.386719 23.664062 29.632812 23.878906 29.828125 C 24.09375 30.023438 24.347656 30.125 24.636719 30.128906 C 24.714844 30.136719 24.789062 30.136719 24.863281 30.128906 L 26.660156 29.773438 C 26.945312 29.710938 27.171875 29.566406 27.34375 29.332031 C 27.515625 29.097656 27.585938 28.835938 27.558594 28.546875 C 27.53125 28.257812 27.40625 28.015625 27.191406 27.820312 C 26.976562 27.621094 26.722656 27.523438 26.433594 27.519531 Z M 26.433594 27.519531 " fill-opacity="1" fill-rule="nonzero"/><path fill="#5c5c5c" d="M 36.789062 34.050781 L 35.632812 35.46875 C 35.539062 35.585938 35.46875 35.71875 35.425781 35.863281 C 35.382812 36.007812 35.371094 36.152344 35.386719 36.304688 C 35.402344 36.453125 35.449219 36.59375 35.519531 36.726562 C 35.589844 36.859375 35.6875 36.972656 35.804688 37.070312 C 35.921875 37.164062 36.054688 37.230469 36.199219 37.273438 C 36.347656 37.316406 36.492188 37.328125 36.644531 37.3125 C 36.796875 37.296875 36.9375 37.253906 37.070312 37.183594 C 37.203125 37.109375 37.320312 37.015625 37.414062 36.898438 L 38.570312 35.484375 C 38.664062 35.367188 38.734375 35.234375 38.777344 35.089844 C 38.820312 34.945312 38.832031 34.800781 38.816406 34.648438 C 38.800781 34.5 38.757812 34.359375 38.683594 34.226562 C 38.613281 34.09375 38.515625 33.980469 38.398438 33.882812 C 38.28125 33.789062 38.148438 33.722656 38.003906 33.679688 C 37.859375 33.636719 37.710938 33.625 37.5625 33.640625 C 37.410156 33.65625 37.269531 33.699219 37.136719 33.769531 C 37.003906 33.84375 36.890625 33.9375 36.792969 34.050781 Z M 36.789062 34.050781 " fill-opacity="1" fill-rule="nonzero"/><path fill="#5c5c5c" d="M 36.507812 29.066406 L 34.9375 30.007812 C 34.714844 30.136719 34.550781 30.320312 34.453125 30.558594 C 34.355469 30.800781 34.339844 31.042969 34.410156 31.292969 C 34.480469 31.542969 34.617188 31.746094 34.828125 31.898438 C 35.035156 32.054688 35.269531 32.128906 35.53125 32.125 C 35.742188 32.125 35.941406 32.070312 36.125 31.964844 L 37.6875 31.019531 C 37.816406 30.941406 37.925781 30.839844 38.015625 30.71875 C 38.105469 30.597656 38.171875 30.464844 38.207031 30.320312 C 38.242188 30.171875 38.25 30.023438 38.226562 29.875 C 38.203125 29.726562 38.152344 29.589844 38.074219 29.460938 C 37.996094 29.332031 37.898438 29.222656 37.773438 29.132812 C 37.652344 29.042969 37.519531 28.980469 37.371094 28.945312 C 37.226562 28.90625 37.078125 28.902344 36.925781 28.921875 C 36.777344 28.945312 36.636719 28.996094 36.507812 29.074219 Z M 36.507812 29.066406 " fill-opacity="1" fill-rule="nonzero"/><g clip-path="url(#id1)"><path fill="#5c5c5c" d="M 61.882812 34.117188 L 57.347656 26.644531 C 57.269531 26.515625 57.167969 26.40625 57.046875 26.316406 C 56.925781 26.226562 56.789062 26.164062 56.640625 26.128906 C 56.496094 26.09375 56.34375 26.085938 56.195312 26.109375 C 56.046875 26.132812 55.90625 26.183594 55.773438 26.261719 L 54.59375 26.96875 L 53.847656 25.734375 C 53.65625 25.417969 53.414062 25.152344 53.113281 24.933594 C 52.816406 24.714844 52.488281 24.5625 52.125 24.472656 C 51.765625 24.386719 51.402344 24.371094 51.039062 24.425781 C 50.671875 24.484375 50.328125 24.605469 50.011719 24.796875 L 48.824219 25.511719 L 45.988281 20.847656 C 45.835938 20.574219 45.605469 20.398438 45.300781 20.316406 C 45.210938 20.292969 45.117188 20.28125 45.027344 20.28125 C 44.8125 20.28125 44.617188 20.335938 44.433594 20.445312 L 40.25 22.960938 C 40.113281 23.035156 39.996094 23.136719 39.902344 23.257812 C 39.808594 23.382812 39.742188 23.519531 39.703125 23.671875 C 39.667969 23.820312 39.660156 23.972656 39.683594 24.125 C 39.710938 24.28125 39.765625 24.421875 39.847656 24.550781 L 42.683594 29.214844 L 41.488281 29.929688 C 41.171875 30.121094 40.902344 30.363281 40.683594 30.660156 C 40.460938 30.957031 40.308594 31.285156 40.21875 31.640625 C 40.132812 32 40.117188 32.359375 40.171875 32.726562 C 40.230469 33.089844 40.355469 33.429688 40.546875 33.742188 L 41.296875 34.976562 L 40.117188 35.683594 C 39.988281 35.761719 39.878906 35.863281 39.789062 35.984375 C 39.699219 36.105469 39.632812 36.238281 39.597656 36.386719 C 39.5625 36.53125 39.554688 36.679688 39.578125 36.828125 C 39.601562 36.980469 39.652344 37.117188 39.730469 37.246094 L 50.835938 55.539062 C 51.058594 55.90625 51.386719 56.089844 51.820312 56.089844 C 52.265625 56.089844 52.597656 55.898438 52.816406 55.511719 C 53.03125 55.125 53.027344 54.746094 52.796875 54.367188 L 42.289062 37.011719 L 43.46875 36.308594 L 54.792969 29.527344 L 55.980469 28.789062 L 59.925781 35.289062 C 60.003906 35.417969 60.105469 35.527344 60.226562 35.617188 C 60.347656 35.707031 60.484375 35.769531 60.632812 35.804688 C 60.777344 35.839844 60.925781 35.847656 61.078125 35.824219 C 61.226562 35.800781 61.367188 35.75 61.496094 35.671875 C 61.625 35.59375 61.734375 35.496094 61.824219 35.375 C 61.914062 35.253906 61.976562 35.117188 62.015625 34.972656 C 62.050781 34.824219 62.058594 34.679688 62.035156 34.527344 C 62.011719 34.378906 61.960938 34.242188 61.882812 34.113281 Z M 42.464844 32.179688 C 42.496094 32.046875 42.570312 31.949219 42.6875 31.878906 L 51.210938 26.761719 C 51.289062 26.714844 51.371094 26.691406 51.460938 26.691406 C 51.5 26.6875 51.542969 26.6875 51.582031 26.691406 C 51.714844 26.722656 51.816406 26.800781 51.886719 26.917969 L 52.636719 28.144531 L 43.257812 33.765625 L 42.507812 32.535156 C 42.445312 32.421875 42.429688 32.304688 42.464844 32.179688 Z M 44.652344 28.039062 L 42.40625 24.328125 L 44.632812 22.992188 L 46.878906 26.671875 Z M 44.652344 28.039062 " fill-opacity="1" fill-rule="nonzero"/></g><path fill="#5c5c5c" d="M 28.421875 36.382812 C 28.636719 36.386719 28.832031 36.328125 29.015625 36.21875 L 30.582031 35.277344 C 30.808594 35.148438 30.972656 34.964844 31.070312 34.722656 C 31.167969 34.484375 31.183594 34.238281 31.113281 33.988281 C 31.042969 33.742188 30.902344 33.539062 30.695312 33.382812 C 30.484375 33.230469 30.25 33.152344 29.992188 33.160156 C 29.777344 33.160156 29.582031 33.214844 29.398438 33.324219 L 27.832031 34.273438 C 27.605469 34.402344 27.441406 34.585938 27.34375 34.828125 C 27.246094 35.066406 27.230469 35.3125 27.300781 35.558594 C 27.371094 35.808594 27.511719 36.011719 27.71875 36.167969 C 27.929688 36.320312 28.164062 36.394531 28.421875 36.390625 Z M 28.421875 36.382812 " fill-opacity="1" fill-rule="nonzero"/><path fill="#5c5c5c" d="M 31.488281 42.347656 C 31.695312 42.519531 31.9375 42.605469 32.207031 42.601562 C 32.570312 42.601562 32.867188 42.460938 33.097656 42.179688 L 34.253906 40.765625 C 34.355469 40.648438 34.433594 40.515625 34.480469 40.367188 C 34.527344 40.222656 34.546875 40.070312 34.535156 39.914062 C 34.519531 39.761719 34.476562 39.613281 34.402344 39.476562 C 34.332031 39.339844 34.234375 39.222656 34.113281 39.125 C 33.992188 39.027344 33.855469 38.957031 33.703125 38.917969 C 33.554688 38.875 33.402344 38.863281 33.246094 38.882812 C 33.09375 38.902344 32.949219 38.949219 32.8125 39.027344 C 32.679688 39.105469 32.566406 39.207031 32.472656 39.332031 L 31.324219 40.765625 C 31.230469 40.878906 31.160156 41.011719 31.121094 41.152344 C 31.078125 41.296875 31.0625 41.441406 31.078125 41.589844 C 31.09375 41.738281 31.136719 41.878906 31.207031 42.011719 C 31.277344 42.140625 31.371094 42.253906 31.488281 42.347656 Z M 31.488281 42.347656 " fill-opacity="1" fill-rule="nonzero"/><g clip-path="url(#id2)"><path fill="#5c5c5c" d="M 57.234375 65.167969 L 55.191406 65.167969 C 55.191406 65.121094 55.242188 65.082031 55.257812 65.039062 C 55.402344 64.671875 55.472656 64.289062 55.476562 63.894531 C 55.480469 63.5 55.414062 63.117188 55.277344 62.742188 C 55.144531 62.371094 54.949219 62.035156 54.691406 61.734375 C 54.433594 61.433594 54.132812 61.1875 53.785156 60.992188 C 52.933594 60.515625 51.347656 60.015625 49.65625 59.480469 C 48.503906 59.121094 47.316406 58.746094 46.53125 58.425781 C 45.523438 58.015625 44.636719 57.433594 43.863281 56.671875 C 43.09375 55.910156 42.5 55.03125 42.082031 54.03125 C 40.726562 50.800781 39.308594 47.113281 38.1875 43.910156 C 38.136719 43.765625 38.058594 43.636719 37.957031 43.523438 C 37.855469 43.410156 37.738281 43.320312 37.601562 43.253906 C 37.460938 43.1875 37.316406 43.152344 37.164062 43.140625 C 37.011719 43.132812 36.863281 43.15625 36.71875 43.203125 C 36.574219 43.253906 36.445312 43.328125 36.332031 43.429688 C 36.21875 43.53125 36.128906 43.652344 36.0625 43.789062 C 35.996094 43.925781 35.957031 44.070312 35.949219 44.21875 C 35.941406 44.371094 35.960938 44.519531 36.011719 44.664062 C 37.148438 47.914062 38.570312 51.648438 39.960938 54.917969 C 40.492188 56.195312 41.25 57.320312 42.234375 58.292969 C 43.222656 59.265625 44.359375 60.015625 45.644531 60.535156 C 46.035156 60.695312 46.496094 60.867188 47.019531 61.039062 C 46.203125 62.269531 45.683594 63.613281 45.457031 65.070312 C 39.101562 64.84375 34.40625 64.222656 33.042969 63.445312 C 31.972656 62.816406 30.910156 61.214844 29.898438 59.664062 C 28.480469 57.519531 27.019531 55.296875 24.910156 54.386719 L 24.617188 54.273438 C 25.382812 52.496094 25.769531 50.640625 25.785156 48.707031 C 25.78125 47.996094 25.726562 47.289062 25.617188 46.585938 C 25.507812 45.886719 25.351562 45.195312 25.140625 44.519531 C 24.929688 43.839844 24.671875 43.179688 24.363281 42.539062 C 24.054688 41.898438 23.703125 41.285156 23.304688 40.695312 C 22.90625 40.105469 22.464844 39.546875 21.984375 39.023438 C 21.503906 38.5 20.988281 38.011719 20.4375 37.5625 C 19.882812 37.113281 19.300781 36.707031 18.6875 36.339844 C 18.074219 35.976562 17.4375 35.660156 16.78125 35.386719 C 17.03125 34.925781 17.265625 34.464844 17.464844 34.007812 C 18.316406 32.066406 18.804688 25.898438 19.089844 12.945312 L 34.078125 12.945312 C 33.792969 15.566406 33.648438 18.191406 33.652344 20.824219 L 33.683594 22.367188 C 33.707031 22.667969 33.828125 22.917969 34.054688 23.121094 C 34.28125 23.324219 34.542969 23.421875 34.847656 23.417969 C 35.152344 23.410156 35.410156 23.300781 35.628906 23.089844 C 35.84375 22.878906 35.960938 22.621094 35.96875 22.320312 L 35.941406 20.777344 C 35.941406 17.816406 36.117188 14.867188 36.464844 11.929688 C 36.546875 11.183594 36.632812 10.40625 36.730469 9.597656 L 36.730469 9.492188 C 36.824219 8.710938 36.925781 7.890625 37.035156 7.046875 L 37.0625 6.851562 C 37.171875 6.027344 37.289062 5.179688 37.410156 4.3125 L 37.449219 4.039062 C 37.578125 3.148438 37.710938 2.238281 37.851562 1.296875 C 37.910156 0.953125 37.832031 0.644531 37.605469 0.371094 C 37.382812 0.113281 37.097656 -0.015625 36.753906 -0.0234375 L 18.113281 -0.0234375 C 17.960938 -0.0234375 17.816406 0.00390625 17.679688 0.0625 C 17.539062 0.117188 17.414062 0.199219 17.308594 0.304688 C 17.203125 0.410156 17.117188 0.535156 17.058594 0.671875 C 17.003906 0.808594 16.972656 0.953125 16.972656 1.101562 C 16.929688 4.726562 16.882812 8.34375 16.808594 11.789062 C 16.625 20.808594 16.238281 31.027344 15.34375 33.085938 C 14.960938 33.921875 14.527344 34.730469 14.039062 35.511719 C 13.660156 36.128906 13.257812 36.75 12.851562 37.375 C 11.0625 40.175781 9.203125 43.042969 9.164062 46.050781 C 9.15625 46.488281 9.1875 46.921875 9.261719 47.347656 C 9.492188 48.5625 10.042969 49.609375 10.917969 50.484375 L 10.917969 65.167969 L 8.179688 65.167969 C 8.019531 65.15625 7.867188 65.179688 7.71875 65.234375 C 7.570312 65.285156 7.4375 65.367188 7.324219 65.472656 C 7.207031 65.582031 7.121094 65.707031 7.058594 65.851562 C 6.992188 65.996094 6.960938 66.148438 6.960938 66.304688 C 6.960938 66.460938 6.992188 66.613281 7.058594 66.757812 C 7.121094 66.902344 7.207031 67.027344 7.324219 67.136719 C 7.4375 67.242188 7.570312 67.324219 7.71875 67.375 C 7.867188 67.429688 8.019531 67.453125 8.179688 67.441406 L 57.234375 67.441406 C 57.535156 67.425781 57.789062 67.304688 57.996094 67.085938 C 58.207031 66.867188 58.308594 66.605469 58.308594 66.304688 C 58.308594 66.003906 58.207031 65.742188 57.996094 65.523438 C 57.789062 65.304688 57.535156 65.183594 57.234375 65.167969 Z M 49.753906 65.167969 L 49.5625 65.167969 C 48.957031 65.167969 48.363281 65.167969 47.777344 65.140625 C 48.03125 63.90625 48.542969 62.78125 49.304688 61.773438 C 50.449219 62.089844 51.558594 62.492188 52.636719 62.980469 C 52.859375 63.09375 53.015625 63.265625 53.113281 63.496094 C 53.210938 63.722656 53.222656 63.957031 53.148438 64.191406 C 53.113281 64.273438 53.066406 64.347656 53.007812 64.414062 C 52.578125 64.890625 51.421875 65.167969 49.753906 65.167969 Z M 31.539062 65.167969 L 21.996094 65.167969 L 23.464844 56.269531 L 24.015625 56.484375 C 25.496094 57.125 26.765625 59.050781 27.996094 60.917969 C 29.117188 62.613281 30.183594 64.21875 31.539062 65.167969 Z M 15.605469 37.367188 C 16.378906 37.65625 17.113281 38.019531 17.8125 38.457031 C 18.511719 38.894531 19.15625 39.398438 19.753906 39.964844 C 20.347656 40.535156 20.878906 41.15625 21.347656 41.832031 C 21.816406 42.507812 22.210938 43.222656 22.53125 43.980469 C 22.855469 44.734375 23.097656 45.515625 23.257812 46.320312 C 23.421875 47.125 23.5 47.9375 23.496094 48.757812 C 23.492188 49.578125 23.40625 50.390625 23.234375 51.195312 C 23.0625 51.996094 22.816406 52.773438 22.484375 53.527344 L 21.847656 53.324219 C 18.953125 52.410156 14.960938 51.140625 12.898438 49.210938 C 12.191406 48.617188 11.742188 47.875 11.550781 46.976562 C 11.496094 46.648438 11.472656 46.316406 11.484375 45.984375 C 11.546875 43.621094 13.195312 41.078125 14.792969 38.628906 C 15.054688 38.230469 15.3125 37.828125 15.570312 37.425781 Z M 19.671875 65.167969 L 13.207031 65.167969 L 13.207031 52.277344 C 15.585938 53.726562 18.621094 54.691406 21.152344 55.492188 L 21.265625 55.53125 Z M 15.25 37.199219 L 15.226562 37.230469 Z M 34.582031 8.410156 C 34.484375 9.1875 34.394531 9.945312 34.3125 10.671875 L 19.140625 10.671875 C 19.140625 10.460938 19.140625 10.246094 19.140625 10.027344 C 19.160156 8.980469 19.179688 7.910156 19.195312 6.761719 C 19.195312 6.609375 19.195312 6.457031 19.195312 6.300781 C 19.21875 5.007812 19.234375 3.660156 19.25 2.25 L 35.410156 2.25 C 35.277344 3.199219 35.148438 4.117188 35.023438 5.011719 L 34.921875 5.761719 C 34.832031 6.421875 34.746094 7.070312 34.671875 7.695312 C 34.640625 7.933594 34.605469 8.175781 34.582031 8.410156 Z M 34.582031 8.410156 " fill-opacity="1" fill-rule="nonzero"/></g></svg>